<svg id="Ebene_1" data-name="Ebene 1" xmlns="http://www.w3.org/2000/svg" viewBox="0 0 573.75 547.62"><polygon points="328.92 198.35 370.74 145.64 394 167.43 357.48 218.97 318.02 226.33 328.92 198.35" style="fill:#fff"/><polygon points="376.33 306.43 419.03 343.53 390.76 357.67 348.06 335.87 365.14 321.44 376.33 306.43" style="fill:#fff"/><polygon points="333.93 336.46 387.81 367.09 421.68 484 398.71 516.68 285.34 359.14 306.24 351.78 316.26 342.94 327.15 333.81 333.93 336.46" style="fill:#fff"/><polygon points="261.48 322.33 300.06 410.67 236.16 534.35 209.95 497.54 218.19 399.19 261.48 322.33" style="fill:#fff"/><polygon points="241.75 327.92 220.55 326.75 199.94 380.93 219.37 383.87 238.22 362.97 249.12 335.58 252.35 328.22 241.75 327.92" style="fill:#fff"/><polygon points="99.81 410.38 185.51 287.29 218.49 319.09 155.47 415.38 113.07 423.33 99.81 410.38" style="fill:#fff"/><path d="M155.47,176.86l17.67-15.61L152.23,87.33,166.37,60l20.9,10.3s23.27,36.52,27.39,37.11,25.92,34.75,26.8,35,29.45,14.14,29.45,14.14l25-75.1S322.15,34.92,322.15,34s13-24.14,13-24.14l20.62,17.67,11.48,83-9.42,31.51L349.53,163l-25.32,37.69L293,193.35l-22.08-.3-7.66,5-5.3,10.6L254.71,221l-26.5.29-19.44,8.84-65.08-40.64Z" style="fill:#fff"/><polygon points="30.79 231.92 132.37 206.22 182.55 213.97 198.46 228.25 204.17 262.52 167.86 282.92 63.42 274.35 14.06 264.56 16.51 238.45 30.79 231.92" style="fill:#fff"/><polygon points="427.33 144.62 474.65 114.83 489.34 146.66 471.39 202.55 380.41 268.64 359.2 222.13 427.74 142.99 427.33 144.62" style="fill:#fff"/><polygon points="450.58 258.03 557.06 311.47 556.24 334.73 467.31 336.77 395.1 320.04 380 292.3 394.28 265.37 450.58 258.03" style="fill:#fff"/><path d="M238.23,258.82a16.61,16.61,0,0,0,9.72-6.08c1.22-1.21.61-1.82-1.22-1.21a30,30,0,0,0-4.25,1.82,15.45,15.45,0,0,1-19.63-9.62,15,15,0,0,1-.62-2.46,16.82,16.82,0,0,1,.6-5.47c0-1.82-1.21-1.82-1.82-.61a28.77,28.77,0,0,0-2.16,9.72,14.44,14.44,0,0,0,19.38,13.91Z" style="stroke:#fff;stroke-miterlimit:10;stroke-width:2.77076566358441px"/><path d="M252.81,306.08a6.7,6.7,0,0,1-4.25,1.82,16.86,16.86,0,0,1-5.47.61,13.5,13.5,0,0,1-13.91-12.69,8.28,8.28,0,0,1,0-5.47c0-1.82-1.21-1.82-1.82,0a22.3,22.3,0,0,0-2.43,9.11A15,15,0,0,0,244.3,314,26.37,26.37,0,0,0,254,307.9C255.24,306.08,254.63,305.47,252.81,306.08Z" style="stroke:#fff;stroke-miterlimit:10;stroke-width:2.77076566358441px"/><path d="M486.08,248.56q-14.52-5.48-27-9.12c4.25-5.46,9.11-11.54,13.5-18.16,16.95-24.84,29.71-59.41,29.71-84.19a39.68,39.68,0,0,0-6.75-24.24,25.17,25.17,0,0,0-20.59-10.93A33.81,33.81,0,0,0,456.77,108a170.16,170.16,0,0,0-21.8,17c-8.51,6.75-19.38,13.5-33.76,23.63a25.64,25.64,0,0,0-18.16-10.26c1.21-8.51,2.43-17.56,3-27.89,3-43.61-12.76-97.56-35.79-106.6a27.21,27.21,0,0,0-10.87-2.43A30.18,30.18,0,0,0,314,18.94l-5.2,10.87-5.47,15.12c-4.86,11.55-11.54,24.24-18.16,38.76a374.27,374.27,0,0,0-16.88,44.89c-23.63-27-34.5-32.13-55.7-54.55-15.73-16.94-24.84-30.31-41.18-30.31-18.16,0-29.1,18.16-29.1,42.4a193.06,193.06,0,0,0,18.77,75.14c-20.26,4.26-27,15.13-27,26.67a21.3,21.3,0,0,0,1.22,7.29c-66,0-133.88,29.71-133.88,60.77,0,23,15.73,29.09,38.75,31.52,33.76,3.65,70.28,19.38,108.43,20.6-21.2,27.88-26.06,45.43-41.79,71.5-8.51,13.9-15.13,21.19-15.13,31.52,0,16.34,10.94,26.07,27,26.07,24.24,0,61.78-18.17,87.23-37.54a242.72,242.72,0,0,0-10.33,66c0,44.22,12.76,80.54,38.75,80.54,16.34,0,20.26-9.65,35.11-39.36,20.25-41.18,27-36.32,43.61-77,16.68,24.31,33.69,37.81,46.39,59.15,11.54,19.37,22.41,35.1,40,35.1,19.37,0,30.92-23.63,30.92-52.72a223.68,223.68,0,0,0-27-104.25c13.91-1.82,24.85-6.75,28.49-23a310.48,310.48,0,0,0,38.76,3c35.17,0,57.52,3.64,72.71,3.64,17,0,29.1-8.5,29.1-26.66,0-26.67-44.83-60.77-86-75.76ZM453.33,144.32c9.12-9.73,15.73-20.26,20.26-20.26s5.46,4.25,5.46,9.72c0,43.62-72.71,116.33-93.91,116.33-3.65,0-4.86-2.43-1.82-6.08A39.57,39.57,0,0,0,393,226.48c0-2.43-.61-3.64-2.43-3.64-5.47,0-15.73,8.5-20.59,13.5l-1.83-3.65c10.33-44.22,62.39-64.2,85.41-88.44ZM343.69,283.06a23,23,0,0,1,23.62,22.4c0,.07,0,.14,0,.22a21,21,0,0,1-21.71,20.25h-.1a23.09,23.09,0,0,1-24.24-21.81,21.26,21.26,0,0,1,21.9-20.61l.52,0Zm-24.24-36.93a19.58,19.58,0,0,1,18.86-20.27c.58,0,1.16,0,1.73,0a22.23,22.23,0,0,1,22.42,21.81A19.44,19.44,0,0,1,343,267.09c-.37,0-.75,0-1.12,0a22.15,22.15,0,0,1-22.41-21.2Zm55.77,70.28c9.72,1.22,26.66,18.77,26.06,28.49a79.46,79.46,0,0,1-41.19-11.54A29.74,29.74,0,0,0,375.22,316.41Zm-6.76-156.9s4.87,2.43,4.87,11.54c0,14.52-18.17,39.36-29.71,46a5.35,5.35,0,0,0-3-.61,20.59,20.59,0,0,0-5.47.61,33.57,33.57,0,0,0-7.29,2.43c8.51-18.16,33.76-43,40.51-60ZM335.18,22.11c5.47,0,11.54,7.9,11.54,36.33,0,38.75-13.5,108.43-25.45,126.65a25.72,25.72,0,0,1-3-12.69c0-9.72,3-23,3-36.39,0-9.11-1.21-12.08-3-12.08-3,0-15.73,35.17-15.73,69.06a47.73,47.73,0,0,0-15.73-4.86,31.91,31.91,0,0,1-2.43-14.51c0-50.3,36.93-102.42,50.91-151.51ZM284.27,197.65c12.7,0,23.63,7.9,23.63,19.38a20.25,20.25,0,0,1-19.79,20.7,20.8,20.8,0,0,1-2.62-.11,21.93,21.93,0,0,1-23.62-20.12v-.13a20.8,20.8,0,0,1,21.26-20.32c.39,0,.77,0,1.15.06Zm4.26,46.66a31,31,0,0,1,30.85,30.92,27.69,27.69,0,0,1-28.49,26.67,30.59,30.59,0,0,1-32.13-29v-.14A29.5,29.5,0,0,1,288.53,244.31Zm-27,58.73a20.25,20.25,0,0,1-19.85,20.65c-.65,0-1.31,0-2-.05a23,23,0,0,1-23.63-22.4v0a21.88,21.88,0,0,1,23-20.59A23.16,23.16,0,0,1,261.52,303ZM171,183.07c13.91,0,23,5.47,35.11,9.72-22.41-27.88-41.18-68.46-41.18-107.21,0-12.7,3-17,6.07-18.77,24.85,54.55,79.4,82.37,86,135a28.71,28.71,0,0,0-4.26,12.69,69.45,69.45,0,0,1-33.35-18.77c-2.43-2.43-4.25-1.82-4.25,1.22a30.44,30.44,0,0,0,12.69,20.25A28.54,28.54,0,0,0,212.1,224c-17.55-7.9-33.76-26.67-54.55-36.39a17.25,17.25,0,0,1,13.5-4.25ZM66.2,258.42a153.63,153.63,0,0,0-40.51,3.64,5.74,5.74,0,0,1-2.43-5.47c0-20.25,66-38.75,123-38.75,33.29,0,41.79,9.11,41.79,9.11-9.11,0-40.5,0-40.5,5.47,0,10.94,49.08,10.33,49.08,21.81,0,7.29-18.16,15.12-42.4,15.12-26.06,0-61.17-10.87-87.77-10.87Zm54,154.47a7.15,7.15,0,0,1-6.07-3c32.13-40,43-100,83-100,6.75,0,9.12,3.65,9.12,8.51C206.23,351.65,142,412.89,120.21,412.89ZM232.83,226.14a22.49,22.49,0,0,1,23,21.94c0,.16,0,.32,0,.48a20.66,20.66,0,0,1-21,20.28l-.78,0a22.54,22.54,0,0,1-23.61-21.43c0-.12,0-.25,0-.37a21.28,21.28,0,0,1,21.9-20.62l.52,0ZM214.26,367.25c0-8.51,10.33-15.12,13.5-35.11A31.83,31.83,0,0,0,242.89,334c0,15.73-11.55,38.75-25.46,43A12.41,12.41,0,0,1,214.26,367.25Zm19.38,155.69c-4.86,0-10.33-13.91-10.33-46.05,0-72.1,26.06-93.91,38.14-139.35a31.27,31.27,0,0,0,10.94,17.56c0,2.43.61,5.47.61,9.11,0,9.72-3,18.77-3,24.24a3.25,3.25,0,0,0,3,3c4.25,0,6.75-9.72,10.87-9.72,1.82,0,2.43,2.43,2.43,6.75,0,47.26-47.87,96.34-52.73,134.49ZM269.35,329a21.28,21.28,0,0,1,21.9-20.62l.52,0a23,23,0,0,1,23.76,22.27v.22a21,21,0,0,1-21.71,20.25h-.09a23.09,23.09,0,0,1-24.24-21.81ZM405.46,481.82c0,12.7-3.64,23.63-9.11,23.63a161.7,161.7,0,0,0-17.56-29.7c-27.88-41.19-66.63-71.5-73.32-116.06a30,30,0,0,0,16.81-16c18.17,0,18.77,16.94,24.85,16.94,3,0,3-7.9,6.08-7.9,13.9,0,52.12,84.8,52.12,129.09ZM546.64,329.71a556.57,556.57,0,0,0-84.8-4.86c-40.51,0-70.29-10.94-70.29-18.77,0-5.47,20.6-3.64,20.6-7.9,0-6.07-17.56-7.9-17.56-15.73,0-3.64,4.26-9.11,24.24-9.11,63,0,130.24,29.7,130.24,50.3C549.07,328.5,546.64,329.71,546.64,329.71Z" style="stroke:#fff;stroke-miterlimit:10;stroke-width:2.77076566358441px"/><path d="M349.29,316.41a23.72,23.72,0,0,0,9.11-6.08c1.83-1.82.61-2.43-1.21-1.82a9.7,9.7,0,0,1-4.25,2.43,14.85,14.85,0,0,1-18.9-9.17,14.61,14.61,0,0,1-.68-2.85v-5.46c.6-1.83-.61-2.43-1.83-.61A24.62,24.62,0,0,0,329,304.26,15.46,15.46,0,0,0,346.83,317a14.8,14.8,0,0,0,2.46-.63Z" style="stroke:#fff;stroke-miterlimit:10;stroke-width:2.77076566358441px"/><path d="M356,251.66c1.82-1.21.61-1.82-1.21-1.21a30.82,30.82,0,0,1-4.26,1.82,14.84,14.84,0,0,1-18.76-9.44,14.23,14.23,0,0,1-.61-2.64v-5.47c.6-1.82-.61-1.82-1.83-.61a26.44,26.44,0,0,0-2.43,11.55,14.39,14.39,0,0,0,14.32,12.76,16.77,16.77,0,0,0,5.46-.61A15.33,15.33,0,0,0,356,251.66Z" style="stroke:#fff;stroke-miterlimit:10;stroke-width:2.77076566358441px"/><path d="M306.08,334.57a8.06,8.06,0,0,1-4.86,1.83,15.09,15.09,0,0,1-4.86.6,14.37,14.37,0,0,1-14.58-12.76v-5.06c.6-1.82-.61-2.43-1.83-.61a18.65,18.65,0,0,0-1.82,7.9,14.64,14.64,0,0,0,13.53,15.69c.33,0,.66,0,1,0a13.35,13.35,0,0,0,4.86-.61,22.13,22.13,0,0,0,9.72-5.46c1.21-1.83.61-2.44-1.22-1.83Z" style="stroke:#fff;stroke-miterlimit:10;stroke-width:2.77076566358441px"/><path d="M291,229.72a26.52,26.52,0,0,0,9.72-6.07c1.21-1.83.61-2.44-1.22-1.83a6.74,6.74,0,0,1-4.25,1.83,17.1,17.1,0,0,1-5.47.6,13.5,13.5,0,0,1-13.91-12.69,8.4,8.4,0,0,1,0-5.47c0-1.82-1.21-1.82-1.82,0a22.63,22.63,0,0,0-2.43,9.12,15,15,0,0,0,14.8,15.17A14.8,14.8,0,0,0,291,229.72Z" style="stroke:#fff;stroke-miterlimit:10;stroke-width:2.77076566358441px"/><path d="M291,291.57a17.14,17.14,0,0,0,5.47-.61,22.71,22.71,0,0,0,12.35-7.29c1.82-1.83.61-3-1.82-1.83a19.27,19.27,0,0,1-5.47,1.83,23,23,0,0,1-6.08.6,19.24,19.24,0,0,1-20.25-16.94,15,15,0,0,1,0-7.29c0-2.43-1.82-3-3-.61a43.07,43.07,0,0,0-2.43,12.15,20.26,20.26,0,0,0,20.23,20.28l1,0Z" style="stroke:#fff;stroke-miterlimit:10;stroke-width:2.77076566358441px"/></svg>