<?xml version="1.0" encoding="UTF-8" standalone="no"?>
<!DOCTYPE svg PUBLIC "-//W3C//DTD SVG 1.1//EN" "http://www.w3.org/Graphics/SVG/1.1/DTD/svg11.dtd">
<svg width="100%" height="100%" viewBox="0 0 1792 1792" version="1.1" xmlns="http://www.w3.org/2000/svg" xmlns:xlink="http://www.w3.org/1999/xlink" xml:space="preserve" xmlns:serif="http://www.serif.com/" style="fill-rule:evenodd;clip-rule:evenodd;stroke-linejoin:round;stroke-miterlimit:2;">
    <path d="M477,625L477,1616L147,1616L147,625L477,625ZM498,319C498.667,367.667 481.833,408.333 447.5,441C413.167,473.667 368,490 312,490L310,490C255.333,490 211.333,473.667 178,441C144.667,408.333 128,367.667 128,319C128,269.667 145.167,228.833 179.5,196.5C213.833,164.167 258.667,148 314,148C369.333,148 413.667,164.167 447,196.5C480.333,228.833 497.333,269.667 498,319ZM1664,1048L1664,1616L1335,1616L1335,1086C1335,1016 1321.5,961.167 1294.5,921.5C1267.5,881.833 1225.33,862 1168,862C1126,862 1090.83,873.5 1062.5,896.5C1034.17,919.5 1013,948 999,982C991.667,1002 988,1029 988,1063L988,1616L659,1616C660.333,1350 661,1134.33 661,969C661,803.667 660.667,705 660,673L659,625L988,625L988,769L986,769C999.333,747.667 1013,729 1027,713C1041,697 1059.83,679.667 1083.5,661C1107.17,642.333 1136.17,627.833 1170.5,617.5C1204.83,607.167 1243,602 1285,602C1399,602 1490.67,639.833 1560,715.5C1629.33,791.167 1664,902 1664,1048Z" style="fill:white;fill-rule:nonzero;"/>
</svg>
