<?xml version="1.0" encoding="UTF-8" standalone="no"?>
<!DOCTYPE svg PUBLIC "-//W3C//DTD SVG 1.1//EN" "http://www.w3.org/Graphics/SVG/1.1/DTD/svg11.dtd">
<svg width="100%" height="100%" viewBox="0 0 512 512" version="1.1" xmlns="http://www.w3.org/2000/svg" xmlns:xlink="http://www.w3.org/1999/xlink" xml:space="preserve" xmlns:serif="http://www.serif.com/" style="fill-rule:evenodd;clip-rule:evenodd;stroke-linejoin:round;stroke-miterlimit:2;">
    <path d="M512,97.2C493,105.6 472.7,111.1 451.5,113.8C473.3,100.8 489.9,80.4 497.7,55.8C477.4,67.9 455,76.4 431.1,81.2C411.9,60.7 384.4,48 354.5,48C296.4,48 249.6,95.2 249.6,153C249.6,161.3 250.3,169.3 252,176.9C164.7,172.6 87.5,130.8 35.6,67.1C26.5,82.8 21.2,100.8 21.2,120.2C21.2,156.6 39.9,188.8 67.8,207.4C50.9,207.1 34.4,202.2 20.4,194.5L20.4,195.7C20.4,246.7 56.8,289.1 104.5,298.8C96,301.1 86.6,302.3 77,302.3C70.3,302.3 63.5,301.9 57.1,300.5C70.7,342.1 109.3,372.6 155.2,373.6C119.5,401.5 74.1,418.4 25.1,418.4C16.5,418.4 8.2,418 -0,417C46.5,447 101.6,464.1 161,464.1C354.2,464.1 459.8,304.1 459.8,165.4C459.8,160.8 459.6,156.3 459.4,151.8C480.2,137 497.7,118.5 512,97.2Z" style="fill:white;fill-rule:nonzero;"/>
</svg>
