<svg width="451" height="900" fill="none" xmlns="http://www.w3.org/2000/svg"><g filter="url(#a)"><rect x="16" y="14" width="410" height="859" rx="10" fill="#fff"/></g><path d="M88.5 50.8c0 5.4 4 9.5 9.4 9.5a9 9 0 0 0 7.5-3.9l-1.4-1.1a7.5 7.5 0 0 1-13.7-4.5c0-4.4 3.3-7.8 7.6-7.8a7 7 0 0 1 5.8 2.9l1.3-1.3a9 9 0 0 0-7.2-3.4 9.3 9.3 0 0 0-9.3 9.6Zm26 9.5c3.8 0 6.7-3 6.7-6.9a6.8 6.8 0 1 0-13.5 0c0 3.8 2.9 7 6.7 7Zm-5-6.9c0-2.8 2-5.2 5-5.2 2.9 0 4.9 2.4 4.9 5.2 0 2.8-2 5.2-5 5.2-2.9 0-5-2.4-5-5.2ZM125 60h1.7v-6.9c0-2.5 1.6-5 4.3-5 2 0 3.6 1.5 3.6 3.8V60h1.8v-6.9c0-2.5 1.5-5 4.2-5 2.1 0 3.6 1.5 3.6 3.8V60h1.8v-8.1c0-3.3-2.1-5.4-5-5.4-2.6 0-3.9 1.1-5 3.1-.8-2-2.5-3.1-4.7-3.1a5 5 0 0 0-4.6 2.8v-2.5H125V60Zm27.3 5.3v-7.5c.9 1.5 2.8 2.5 4.8 2.5 3.5 0 6.3-3 6.3-7 0-3.9-2.8-6.8-6.3-6.8-2 0-4 1-4.9 2.6v-2.3h-1.6v18.5h1.7ZM157 48c2.6 0 4.7 2.3 4.7 5.3s-2 5.3-4.7 5.3c-2.5 0-4.7-1.9-4.7-5.3 0-3.5 2.2-5.3 4.7-5.3Zm9.3 5.3c0 3.9 3 7 6.9 7 2.1 0 4-.8 5.3-2.4l-1-1.3c-1.1 1.2-2.6 2-4.3 2a5 5 0 0 1-5-5h10.6l.1-1.3c0-3.3-2.4-6-6-6-3.8 0-6.6 3.1-6.6 7Zm6.6-5.3c2.3 0 4.2 1.6 4.3 4v.2h-9a4.7 4.7 0 0 1 4.7-4.2Zm9.8 11.9h1.7v-6.9c0-2.5 1.6-5 4.3-5 2 0 3.6 1.5 3.6 3.8V60h1.8v-8.1c0-3.3-2.1-5.4-5-5.4a5 5 0 0 0-4.7 2.8v-2.5h-1.7V60Zm14.7-2.3c.4.8 2.1 2.6 5 2.6 2.7 0 4.7-1.6 4.7-3.7 0-2.3-2-3.2-4.4-4-2-.6-3.1-1.2-3.1-2.4 0-1.4 1.2-2.1 2.8-2.1 1.8 0 2.8 1.4 3.1 1.8l1.3-1a5.1 5.1 0 0 0-4.4-2.4c-2.6 0-4.6 1.5-4.6 3.7s1.8 3.2 4.2 4c2.1.6 3.3 1.2 3.3 2.4 0 1.3-1.3 2-2.9 2a4.5 4.5 0 0 1-3.7-2l-1.3 1Zm12.3-1c0 2 1.9 3.6 4.2 3.6 2.1 0 3.8-1 4.8-2.7V60h1.6v-8.6c0-3-2-5-5.1-5-2.4 0-4 1.2-5 2.4l1 1.2c.7-1 2.1-1.9 3.8-1.9 2.3 0 3.6 1.2 3.6 3.3v.4l-4.7 1c-2.7.5-4.2 1.8-4.2 3.8Zm1.8-.1c0-1.3.9-2 2.7-2.4l4.4-.9v1.1c0 2.2-1.9 4.3-4.4 4.3-1.5 0-2.7-.9-2.7-2.1Zm11.8-9.8v1.5h2v8c0 2.6 1.6 4 3.9 4 .7 0 1.3-.1 1.9-.4v-1.6c-.6.3-1.2.3-1.6.3-1.4 0-2.4-.8-2.4-2.5v-7.8h3.5v-1.5H227v-3.7h-1.7v3.7h-2.1Zm11 0V60h1.8V46.8h-1.7Zm-.3-4.2c0 .7.6 1.3 1.2 1.3a1.3 1.3 0 0 0 0-2.6c-.6 0-1.2.6-1.2 1.3Zm12.7 17.7c3.8 0 6.7-3 6.7-6.9a6.8 6.8 0 1 0-13.5 0c0 3.8 2.9 7 6.8 7Zm-5-6.9c0-2.8 2-5.2 5-5.2 2.9 0 5 2.4 5 5.2 0 2.8-2.1 5.2-5 5.2-3 0-5-2.4-5-5.2Zm15.5 6.6h1.8v-6.9c0-2.5 1.5-5 4.2-5 2.1 0 3.6 1.5 3.6 3.8V60h1.8v-8.1c0-3.3-2.1-5.4-5-5.4a5 5 0 0 0-4.7 2.8v-2.5h-1.7V60Zm22-9.2c0 5.4 4 9.5 9.3 9.5a9 9 0 0 0 7.5-3.9l-1.3-1.1a7.5 7.5 0 0 1-13.6-4.5c-.1-4.4 3.1-7.8 7.4-7.8a7 7 0 0 1 5.9 2.9l1.3-1.3a9 9 0 0 0-7.2-3.4 9.3 9.3 0 0 0-9.4 9.6ZM301 60v-7c0-2.6 1.6-4.9 4.3-4.9 2 0 3.6 1.5 3.6 3.8V60h1.7v-8.1c0-3.3-2.1-5.4-5-5.4a5 5 0 0 0-4.6 2.7v-7.7h-1.8V60h1.8Zm13.2-6.6c0 3.9 3 7 6.9 7 2.1 0 3.9-.8 5.3-2.4l-1-1.3c-1.1 1.2-2.6 2-4.3 2a5 5 0 0 1-5-5h10.6l.1-1.3c0-3.3-2.4-6-6-6-3.8 0-6.6 3.1-6.6 7Zm6.6-5.3c2.3 0 4.2 1.6 4.3 4v.2h-9a4.7 4.7 0 0 1 4.7-4.2Zm8.7 5.3a6.8 6.8 0 0 0 12.2 4.1l-1.2-1.1a5 5 0 0 1-4.2 2.2c-2.8 0-5-2.2-5-5.2s2.1-5.2 5-5.2c1.7 0 3 .8 4 2l1.2-1a6.3 6.3 0 0 0-5.2-2.7c-3.8 0-6.8 3-6.8 6.9ZM345 41.5V60h1.8v-3.6l2.5-3 4.4 6.6h2l-5.2-7.8 4.8-5.4H353l-6.3 7.1V41.5H345Zm13.4 0v15.9c0 2 1.2 3 2.9 3l1-.2v-1.6h-.8c-1 0-1.4-.5-1.4-1.5V41.5h-1.7Zm7.3 5.3V60h1.7V46.8h-1.7Zm-.4-4.2c0 .7.6 1.3 1.2 1.3a1.3 1.3 0 0 0 0-2.6c-.6 0-1.2.6-1.2 1.3Zm5.7 15c.4.9 2.1 2.7 5 2.7 2.7 0 4.6-1.6 4.6-3.7 0-2.3-1.8-3.2-4.3-4-2-.6-3.1-1.2-3.1-2.4 0-1.4 1.2-2.1 2.8-2.1 1.8 0 2.8 1.4 3.1 1.8l1.3-1a5.1 5.1 0 0 0-4.4-2.4c-2.6 0-4.6 1.5-4.6 3.7s1.8 3.2 4.2 4c2 .6 3.3 1.2 3.3 2.4 0 1.3-1.3 2-2.9 2a4.5 4.5 0 0 1-3.7-2l-1.3 1Zm12-10.8v1.5h2v8c0 2.6 1.6 4 3.9 4 .7 0 1.3-.1 1.9-.4v-1.6c-.6.3-1.2.3-1.6.3-1.4 0-2.4-.8-2.4-2.5v-7.8h3.4v-1.5h-3.4v-3.7H385v3.7h-2ZM87.6 131a4.2 4.2 0 0 0 3.9 2.2c2.5 0 3.8-1.5 3.8-3.1 0-2-1.4-2.6-3.2-3.4-1.5-.7-2.6-1-2.6-2.2 0-.9.8-1.5 2-1.5.9 0 1.8.3 2.4 1.3l1.2-.9a4 4 0 0 0-3.5-1.9c-2.2 0-3.7 1.4-3.7 3 0 2.2 1.7 2.8 3.3 3.5 1.5.6 2.5 1 2.5 2.2 0 .7-.8 1.5-2.2 1.5-1 0-2-.5-2.6-1.6l-1.3.9Zm9-.1c0 1.3 1.2 2.3 2.7 2.3a3 3 0 0 0 2.7-1.4v1.2h1.4v-5.2c0-1.9-1.3-3-3.3-3a4 4 0 0 0-3.2 1.3l.8 1a3 3 0 0 1 2.3-1c1.1 0 1.8.6 1.8 1.7v.1l-2.5.5c-1.7.4-2.6 1.2-2.6 2.5Zm1.6-.1c0-.7.4-1 1.4-1.2l2.3-.5v.6c0 1-1 2.2-2.3 2.2-.8 0-1.4-.5-1.4-1.1Zm7.6-9.1v9.3c0 1.7 1 2.2 2.1 2.2l.7-.1v-1.4h-.5c-.6 0-.8-.4-.8-1v-9h-1.5Zm4 9.2c0 1.3 1.1 2.3 2.6 2.3a3 3 0 0 0 2.6-1.4v1.2h1.5v-5.2c0-1.9-1.3-3-3.3-3a4 4 0 0 0-3.2 1.3l.8 1a3 3 0 0 1 2.2-1c1.2 0 2 .6 2 1.7v.1l-2.6.5c-1.7.4-2.6 1.2-2.6 2.5Zm1.5-.1c0-.7.4-1 1.4-1.2l2.3-.5v.6c0 1-1 2.2-2.3 2.2-.8 0-1.4-.5-1.4-1.1Zm7.7-5.9v8.1h1.5v-4c0-1.7 1-2.7 2.5-2.7h.3v-1.5h-.5c-1 0-1.9.5-2.3 1.5V125H119Zm8.2 8-.3.9c-.4.9-.8 1.3-1.5 1.3-.2 0-.6 0-1-.3v1.4c.4.2.8.2 1.2.2 1.4 0 2-.9 2.6-2l3.7-9.5h-1.7L128 131l-2.3-6.1h-1.8l3.4 8Zm-33.6 43.3c3.3 0 5.8-2.5 5.8-5.8 0-3.4-2.5-5.9-5.8-5.9a5.7 5.7 0 0 0-5.8 5.9c0 3.3 2.5 5.8 5.8 5.8Zm0-10.1c2.3 0 4.2 1.8 4.2 4.3a4.2 4.2 0 1 1-8.4 0c0-2.5 1.9-4.3 4.2-4.3Zm9.6 0v9.9h1.6v-9.9h3.4v-1.4H100v1.4h3.3Zm6.9 9.9h7.2v-1.5h-5.6V171h4.5v-1.4h-4.5V166h5.4v-1.4h-7V176Zm-21.5 43h7.1v-1.5h-5.6V214h4.5v-1.4h-4.5V209h5.5v-1.4h-7V219Zm8.4-4c0 2.4 1.7 4.2 3.8 4.2 1 0 2.2-.6 2.7-1.3v4.3h1.5v-11.3h-1.5v1.2a3.4 3.4 0 0 0-2.7-1.4c-2.1 0-3.8 1.8-3.8 4.3Zm1.5 0c0-1.7 1.2-2.9 2.6-2.9 1.3 0 2.5 1.2 2.5 2.9 0 1.6-1.2 2.8-2.5 2.8-1.4 0-2.6-1.2-2.6-2.8Zm12.2 4.2c1.3 0 2.1-.6 2.6-1.4v1.2h1.5v-8.1h-1.5v4.1c0 1.2-.6 2.8-2.3 2.8-1 0-1.9-.7-1.9-2v-4.9h-1.6v4.9c0 2.1 1.3 3.4 3.2 3.4Zm6.8-8.3v8.1h1.5v-8.1h-1.5Zm-.2-2.4c0 .5.4 1 1 1 .5 0 1-.5 1-1 0-.6-.5-1-1-1a1 1 0 0 0-1 1Zm3.5 2.4v1.3h1.2v4.4c0 1.6 1 2.6 2.6 2.6.5 0 1-.1 1.3-.3v-1.4a2 2 0 0 1-1 .3c-.9 0-1.3-.5-1.3-1.4v-4.2h2v-1.3h-2v-2.2H122v2.2h-1.3Zm9 8-.4.9c-.3.9-.7 1.3-1.4 1.3-.2 0-.6 0-1-.3v1.4c.4.2.8.2 1.1.2 1.5 0 2.1-.9 2.6-2l3.8-9.5h-1.7l-2.3 6.1-2.3-6.1h-1.8l3.4 8Zm-36.2 43.3c3.3 0 5.8-2.5 5.8-5.8 0-3.4-2.5-5.9-5.8-5.9a5.7 5.7 0 0 0-5.8 5.9c0 3.3 2.5 5.8 5.8 5.8Zm0-10.1c2.3 0 4.2 1.8 4.2 4.3a4.2 4.2 0 1 1-8.4 0c0-2.5 1.9-4.3 4.2-4.3Zm8 1.8v11.3h1.5v-4.3c.4.7 1.6 1.3 2.6 1.3 2.2 0 3.9-1.8 3.9-4.2 0-2.5-1.7-4.3-3.9-4.3-1 0-2.2.6-2.7 1.4v-1.2h-1.5Zm1.4 4c0-1.6 1.1-2.8 2.5-2.8 1.3 0 2.5 1.2 2.5 2.9 0 1.6-1.2 2.8-2.5 2.8-1.4 0-2.5-1.2-2.5-2.8Zm7.7-4v1.3h1.2v4.4c0 1.6 1 2.6 2.5 2.6.6 0 1-.1 1.3-.3v-1.4a2 2 0 0 1-1 .3c-.9 0-1.3-.5-1.3-1.4v-4.2h2.1v-1.3h-2v-2.2h-1.6v2.2h-1.2Zm6.7 0v8.1h1.6v-8.1h-1.6Zm-.2-2.4c0 .5.5 1 1 1s1-.5 1-1c0-.6-.5-1-1-1a1 1 0 0 0-1 1Zm4.4 10.5h1.6v-4.1c0-1.2.6-2.8 2.3-2.8 1 0 1.9.7 1.9 2v4.9h1.5v-4.1c0-1.2.6-2.8 2.3-2.8 1 0 1.9.7 1.9 2v4.9h1.5v-4.9c0-2.1-1.2-3.4-3-3.4-1.4 0-2.3.5-3 1.7a3 3 0 0 0-2.8-1.7c-1.4 0-2.2.6-2.6 1.4V254h-1.6v8.1Zm15.6-8.1v8.1h1.5v-8.1h-1.5Zm-.2-2.4c0 .5.4 1 1 1 .5 0 1-.5 1-1 0-.6-.5-1-1-1a1 1 0 0 0-1 1Zm3.7 2.4v1.3h4.2l-4.2 5.9v.9h6.4v-1.3h-4.3l4.1-5.9v-.9h-6.2Zm7.6 4c0 2.5 1.7 4.3 4.3 4.3 1.3 0 2.4-.4 3.3-1.4l-1-1a3 3 0 0 1-2.3 1c-1.4 0-2.6-1-2.7-2.4h6.1l.1-1c0-2-1.4-3.7-3.7-3.7-2.5 0-4.1 1.9-4.1 4.3Zm4-2.8c1.3 0 2.2.8 2.3 2h-4.7c.3-1.2 1.2-2 2.5-2Zm9 7c1.2 0 2.3-.5 2.8-1.3v1.2h1.5v-11.3H164v4.3a3.3 3.3 0 0 0-2.6-1.3c-2.2 0-3.9 1.8-3.9 4.3 0 2.4 1.7 4.2 3.9 4.2Zm.3-7c1.4 0 2.5 1.2 2.5 2.9 0 1.6-1.1 2.8-2.5 2.8-1.3 0-2.5-1.2-2.5-2.8 0-1.7 1.2-2.9 2.5-2.9Zm10.6-1.2v8.1h1.5v-8.1h-1.5Zm-.2-2.4c0 .5.4 1 1 1 .5 0 1-.5 1-1 0-.6-.5-1-1-1a1 1 0 0 0-1 1Zm4.4 10.5h1.5v-4.1c0-1.2.6-2.8 2.3-2.8 1 0 1.9.7 1.9 2v4.9h1.6v-4.9c0-2.1-1.3-3.4-3.2-3.4-1.3 0-2.1.6-2.6 1.4V254h-1.5v8.1Zm9-1.6a3.5 3.5 0 0 0 3.2 1.8c1.8 0 3-1 3-2.3 0-1.4-.9-2-2.7-2.7-1.2-.4-1.6-.7-1.6-1.2s.5-1 1.3-1 1.3.5 1.7 1.1l1.2-.8a3 3 0 0 0-2.8-1.6c-1.7 0-3 1.1-3 2.3 0 1.4 1 2 2.6 2.6 1.5.4 1.8.7 1.8 1.3 0 .5-.6 1-1.5 1s-1.5-.6-2-1.3l-1.2.8Zm11.2 1.8c1.4 0 2.2-.6 2.7-1.4v1.2h1.5v-8.1h-1.6v4.1c0 1.2-.6 2.8-2.2 2.8-1 0-2-.7-2-2v-4.9h-1.5v4.9c0 2.1 1.3 3.4 3.1 3.4Zm6.9-8.3v8.1h1.5v-4c0-1.7 1-2.7 2.5-2.7h.3v-1.5h-.5c-1 0-2 .5-2.3 1.5V254h-1.5Zm5.2 6c0 1.3 1.1 2.3 2.6 2.3a3 3 0 0 0 2.7-1.4v1.2h1.4v-5.2c0-1.9-1.3-3-3.3-3a4 4 0 0 0-3.2 1.3l.8 1a3 3 0 0 1 2.3-1c1.1 0 1.8.6 1.8 1.7v.1l-2.5.5c-1.7.4-2.6 1.2-2.6 2.5Zm1.5-.1c0-.7.4-1 1.4-1.2l2.3-.5v.6c0 1-1 2.2-2.3 2.2-.8 0-1.4-.5-1.4-1.1Zm7.7 2.2h1.5v-4.1c0-1.2.6-2.8 2.3-2.8 1 0 2 .7 2 2v4.9h1.5v-4.9c0-2.1-1.3-3.4-3.2-3.4-1.3 0-2.1.6-2.6 1.4V254H218v8.1Zm9.2-4c0 2.3 1.8 4.2 4.2 4.2a4 4 0 0 0 3.3-1.7l-1-1c-.5.8-1.3 1.3-2.3 1.3-1.5 0-2.7-1.3-2.7-2.8 0-1.6 1.2-2.8 2.7-2.8 1 0 1.7.5 2.2 1.2l1-1c-.7-1-1.8-1.7-3.2-1.7a4.2 4.2 0 0 0-4.2 4.2Zm8.6 0c0 2.4 1.7 4.2 4.3 4.2 1.3 0 2.4-.4 3.3-1.4l-1-1a3 3 0 0 1-2.2 1c-1.4 0-2.6-1-2.8-2.4h6.2v-1c0-2-1.4-3.7-3.7-3.7-2.4 0-4.1 1.9-4.1 4.3Zm4.1-2.9c1.2 0 2.1.8 2.2 2h-4.6c.2-1.2 1.2-2 2.4-2Zm9.7-1.2v11.3h1.6v-4.3c.4.7 1.6 1.3 2.6 1.3 2.2 0 3.9-1.8 3.9-4.2 0-2.5-1.7-4.3-3.9-4.3-1.1 0-2.2.6-2.7 1.4v-1.2h-1.5Zm1.5 4c0-1.6 1.1-2.8 2.5-2.8 1.3 0 2.5 1.2 2.5 2.9 0 1.6-1.2 2.8-2.5 2.8-1.4 0-2.5-1.2-2.5-2.8Zm8 2c0 1.3 1 2.3 2.6 2.3a3 3 0 0 0 2.6-1.4v1.2h1.5v-5.2c0-1.9-1.3-3-3.3-3a4 4 0 0 0-3.2 1.3l.8 1a3 3 0 0 1 2.2-1c1.2 0 2 .6 2 1.7v.1l-2.6.5c-1.8.4-2.6 1.2-2.6 2.5Zm1.5-.1c0-.7.4-1 1.3-1.2l2.4-.5v.6c0 1-1 2.2-2.4 2.2-.8 0-1.3-.5-1.3-1.1Zm7-1.9c0 2.4 1.9 4.3 4.2 4.3a4 4 0 0 0 3.4-1.7l-1-1c-.6.8-1.4 1.3-2.4 1.3-1.5 0-2.6-1.3-2.6-2.8 0-1.6 1.1-2.8 2.6-2.8 1 0 1.8.5 2.2 1.2l1-1c-.6-1-1.7-1.7-3.2-1.7a4.2 4.2 0 0 0-4.2 4.2Zm11 4.1v-2.2l1.3-1.5 2.4 3.7h1.7l-3.1-4.7 2.9-3.4h-1.9l-3.4 3.9v-7.1H277V262h1.5Zm6-2.1c0 1.3 1.2 2.3 2.7 2.3a3 3 0 0 0 2.6-1.4v1.2h1.5v-5.2c0-1.9-1.3-3-3.3-3a4 4 0 0 0-3.2 1.3l.8 1a3 3 0 0 1 2.2-1c1.2 0 2 .6 2 1.7v.1l-2.6.5c-1.7.4-2.6 1.2-2.6 2.5Zm1.6-.1c0-.7.4-1 1.4-1.2l2.3-.5v.6c0 1-1 2.2-2.3 2.2-.8 0-1.4-.5-1.4-1.1Zm6.9 3.3c0 1.5 1.4 2.3 3.6 2.3 2.5 0 4-1.1 4-2.5 0-1.3-1-2.2-2.6-2.2h-2c-.4 0-.7-.3-.7-.6s.1-.4.3-.6l.9.1c1.8 0 3.2-1.3 3.2-3 0-.5-.2-1-.4-1.4h1.3v-1.3h-3l-1.1-.2c-1.9 0-3.3 1.3-3.3 3 0 1 .5 1.8 1.3 2.4-.4.3-.7.7-.7 1.2 0 .4.2.8.6 1-.8.4-1.4 1-1.4 1.8Zm3.5-8c1 0 1.7.7 1.7 1.6 0 .9-.8 1.6-1.7 1.6-1 0-1.8-.7-1.8-1.6 0-1 .8-1.6 1.8-1.6Zm-2 7.9c0-.6.6-.9 1-1h2.4c.7 0 1.3.3 1.3 1 0 .6-1 1-2.5 1-1.2 0-2.2-.4-2.2-1Zm7.2-5c0 2.4 1.7 4.2 4.3 4.2 1.3 0 2.3-.4 3.3-1.4l-1-1a3 3 0 0 1-2.3 1c-1.4 0-2.6-1-2.7-2.4h6.1l.1-1c0-2-1.4-3.7-3.7-3.7-2.5 0-4.1 1.9-4.1 4.3Zm4-2.9c1.3 0 2.2.8 2.3 2h-4.7c.3-1.2 1.2-2 2.5-2Zm5 5.3a3.5 3.5 0 0 0 3.2 1.8c1.8 0 3-1 3-2.3 0-1.4-.9-2-2.6-2.7-1.3-.4-1.7-.7-1.7-1.2s.5-1 1.3-1 1.4.5 1.8 1.1l1-.8a3 3 0 0 0-2.7-1.6c-1.7 0-3 1.1-3 2.3 0 1.4 1 2 2.6 2.6 1.5.4 1.8.7 1.8 1.3 0 .5-.5 1-1.5 1-.9 0-1.5-.6-2-1.3l-1.1.8ZM88.7 305H95v-1.4h-5v-9.9h-1.5V305Zm7.3-4c0 2.4 1.8 4.2 4.4 4.2 1.3 0 2.3-.4 3.2-1.4l-1-1a3 3 0 0 1-2.2 1c-1.4 0-2.6-1-2.7-2.4h6.1v-1c0-2-1.3-3.7-3.7-3.7-2.4 0-4 1.9-4 4.3Zm4.1-2.9c1.2 0 2.1.8 2.3 2h-4.7c.3-1.2 1.2-2 2.5-2Zm5 8c0 1.5 1.4 2.3 3.7 2.3 2.4 0 4-1.1 4-2.5 0-1.3-1-2.2-2.7-2.2h-2c-.4 0-.7-.3-.7-.6s.2-.4.3-.6l.9.1c1.8 0 3.2-1.3 3.2-3 0-.5-.1-1-.4-1.4h1.3v-1.3h-3l-1.1-.2c-1.8 0-3.3 1.3-3.3 3 0 1 .6 1.8 1.4 2.4-.5.3-.8.7-.8 1.2 0 .4.2.8.6 1-.8.4-1.4 1-1.4 1.8Zm3.5-8c1 0 1.7.7 1.7 1.6 0 .9-.8 1.6-1.7 1.6-1 0-1.8-.7-1.8-1.6 0-1 .8-1.6 1.8-1.6Zm-2 7.9c0-.6.7-.9 1-1h2.4c.7 0 1.3.3 1.3 1 0 .6-1 1-2.5 1-1.2 0-2.1-.4-2.1-1Zm7.2-3.1c0 1.3 1.1 2.3 2.6 2.3a3 3 0 0 0 2.7-1.4v1.2h1.4v-5.2c0-1.9-1.3-3-3.3-3a4 4 0 0 0-3.2 1.3l.8 1a3 3 0 0 1 2.3-1c1.2 0 1.9.6 1.9 1.7v.1l-2.6.5c-1.7.4-2.6 1.2-2.6 2.5Zm1.5-.1c0-.7.4-1 1.4-1.2l2.3-.5v.6c0 1-1 2.2-2.3 2.2-.8 0-1.4-.5-1.4-1.1Zm7.6-9.1v9.3c0 1.7 1 2.2 2.1 2.2l.8-.1v-1.4h-.6c-.6 0-.7-.4-.7-1v-9h-1.6Zm8.6 3.2v8.1h1.6v-4c0-1.7 1-2.7 2.4-2.7h.3v-1.5h-.5c-1 0-1.9.5-2.3 1.5V297h-1.5Zm5.1 4c0 2.5 1.8 4.3 4.4 4.3 1.3 0 2.3-.4 3.2-1.4l-.9-1a3 3 0 0 1-2.3 1c-1.4 0-2.6-1-2.7-2.4h6.1v-1c0-2-1.3-3.7-3.7-3.7-2.4 0-4 1.9-4 4.3Zm4.2-2.8c1.1 0 2 .8 2.2 2h-4.7c.3-1.2 1.2-2 2.5-2Zm5.7-1.2v11.3h1.6v-4.3c.4.7 1.6 1.3 2.6 1.3 2.2 0 3.9-1.8 3.9-4.2 0-2.5-1.7-4.3-3.9-4.3-1 0-2.2.6-2.7 1.4v-1.2h-1.5Zm1.5 4c0-1.6 1.1-2.8 2.5-2.8 1.3 0 2.5 1.2 2.5 2.9 0 1.6-1.2 2.8-2.5 2.8-1.4 0-2.5-1.2-2.5-2.8Zm8.6-4v8.1h1.6v-4c0-1.7 1-2.7 2.4-2.7h.4v-1.5h-.5c-1.1 0-2 .5-2.4 1.5V297h-1.5Zm5.2 4c0 2.5 1.7 4.3 4.3 4.3 1.3 0 2.3-.4 3.3-1.4l-1-1a3 3 0 0 1-2.3 1c-1.4 0-2.6-1-2.7-2.4h6.1l.1-1c0-2-1.4-3.7-3.7-3.7-2.5 0-4.1 1.9-4.1 4.3Zm4-2.8c1.3 0 2.2.8 2.3 2h-4.7c.3-1.2 1.2-2 2.5-2Zm5 5.3a3.5 3.5 0 0 0 3.2 1.8c1.8 0 3-1 3-2.3 0-1.4-.9-2-2.6-2.7-1.3-.4-1.7-.7-1.7-1.2s.5-1 1.3-1 1.4.5 1.8 1.1l1-.8a3 3 0 0 0-2.7-1.6c-1.7 0-3 1.1-3 2.3 0 1.4 1 2 2.6 2.6 1.5.4 1.8.7 1.8 1.3 0 .5-.5 1-1.5 1-.9 0-1.5-.6-2-1.3l-1.1.8Zm7.6-2.4c0 2.4 1.8 4.2 4.4 4.2 1.3 0 2.3-.4 3.2-1.4l-.9-1a3 3 0 0 1-2.3 1c-1.4 0-2.6-1-2.7-2.4h6.1v-1c0-2-1.3-3.7-3.7-3.7-2.4 0-4 1.9-4 4.3Zm4.2-2.9c1.1 0 2 .8 2.2 2H180c.3-1.2 1.2-2 2.5-2Zm5.7 6.9h1.6v-4.1c0-1.2.5-2.8 2.2-2.8 1 0 2 .7 2 2v4.9h1.5v-4.9c0-2.1-1.3-3.4-3.2-3.4-1.3 0-2.1.6-2.6 1.4V297h-1.5v8.1Zm8.8-8.1v1.3h1.2v4.4c0 1.6 1 2.6 2.6 2.6.5 0 1-.1 1.3-.3v-1.4a2 2 0 0 1-1 .3c-.9 0-1.3-.5-1.3-1.4v-4.2h2v-1.3h-2v-2.2h-1.5v2.2H197Zm6.2 6c0 1.3 1 2.3 2.6 2.3a3 3 0 0 0 2.6-1.4v1.2h1.5v-5.2c0-1.9-1.3-3-3.3-3a4 4 0 0 0-3.2 1.3l.8 1a3 3 0 0 1 2.2-1c1.2 0 2 .6 2 1.7v.1l-2.6.5c-1.7.4-2.6 1.2-2.6 2.5Zm1.5-.1c0-.7.4-1 1.4-1.2l2.3-.5v.6c0 1-1 2.2-2.4 2.2-.8 0-1.3-.5-1.3-1.1Zm6.7-5.9v1.3h1.2v4.4c0 1.6 1 2.6 2.5 2.6.6 0 1-.1 1.3-.3v-1.4a2 2 0 0 1-1 .3c-.8 0-1.2-.5-1.2-1.4v-4.2h2v-1.3h-2v-2.2h-1.5v2.2h-1.3Zm6.8 0v8.1h1.5v-8.1h-1.5Zm-.2-2.4c0 .5.4 1 1 1 .5 0 1-.5 1-1 0-.6-.5-1-1-1a1 1 0 0 0-1 1Zm8 10.7c2.4 0 4.2-1.9 4.2-4.2 0-2.4-1.8-4.3-4.2-4.3a4.1 4.1 0 0 0-4.2 4.3c0 2.3 1.8 4.2 4.2 4.2Zm-2.6-4.2c0-1.6 1-2.8 2.6-2.8 1.5 0 2.6 1.2 2.6 2.8 0 1.5-1.1 2.7-2.6 2.7-1.6 0-2.6-1.2-2.6-2.7Zm8.8 4h1.5v-4.1c0-1.2.6-2.8 2.3-2.8 1 0 2 .7 2 2v4.9h1.5v-4.9c0-2.1-1.3-3.4-3.2-3.4-1.3 0-2.1.6-2.6 1.4V297h-1.5v8.1Zm13.1-4c0 2.3 1.9 4.2 4.2 4.2a4 4 0 0 0 3.4-1.7l-1-1c-.6.8-1.4 1.3-2.4 1.3-1.5 0-2.6-1.3-2.6-2.8 0-1.6 1-2.8 2.6-2.8 1 0 1.7.5 2.2 1.2l1-1c-.7-1-1.7-1.7-3.2-1.7a4.2 4.2 0 0 0-4.2 4.2Zm12.8 4.2c2.4 0 4.2-1.9 4.2-4.2 0-2.4-1.8-4.3-4.2-4.3a4.1 4.1 0 0 0-4.2 4.3c0 2.3 1.8 4.2 4.2 4.2Zm-2.6-4.2c0-1.6 1-2.8 2.6-2.8s2.6 1.2 2.6 2.8c0 1.5-1 2.7-2.6 2.7-1.5 0-2.6-1.2-2.6-2.7Zm8.9 4h1.5v-4.1c0-1.2.6-2.8 2.3-2.8 1 0 1.9.7 1.9 2v4.9h1.5v-4.1c0-1.2.6-2.8 2.3-2.8 1 0 2 .7 2 2v4.9h1.5v-4.9c0-2.1-1.3-3.4-3.2-3.4-1.3 0-2.1.5-2.9 1.7a3 3 0 0 0-2.8-1.7c-1.3 0-2.2.6-2.6 1.4V297h-1.5v8.1Zm15.5 0h1.5v-4.1c0-1.2.6-2.8 2.3-2.8 1 0 2 .7 2 2v4.9h1.5v-4.1c0-1.2.6-2.8 2.2-2.8 1 0 2 .7 2 2v4.9h1.5v-4.9c0-2.1-1.3-3.4-3.1-3.4-1.4 0-2.2.5-3 1.7a3 3 0 0 0-2.8-1.7c-1.3 0-2.1.6-2.6 1.4V297H280v8.1Zm14.9-4c0 2.4 1.7 4.2 4.3 4.2 1.3 0 2.4-.4 3.3-1.4l-1-1a3 3 0 0 1-2.2 1c-1.4 0-2.6-1-2.8-2.4h6.2v-1c0-2-1.4-3.7-3.7-3.7-2.4 0-4.1 1.9-4.1 4.3Zm4.1-2.9c1.2 0 2.1.8 2.2 2h-4.6c.2-1.2 1.2-2 2.4-2Zm5.8 6.9h1.5v-4.1c0-1.2.6-2.8 2.3-2.8 1 0 1.9.7 1.9 2v4.9h1.5v-4.9c0-2.1-1.3-3.4-3.1-3.4-1.3 0-2.2.6-2.6 1.4V297h-1.5v8.1Zm9-1.6a3.5 3.5 0 0 0 3.2 1.8c1.7 0 3-1 3-2.3 0-1.4-.9-2-2.7-2.7-1.2-.4-1.6-.7-1.6-1.2s.5-1 1.3-1 1.3.5 1.7 1.1l1.1-.8a3 3 0 0 0-2.8-1.6c-1.6 0-2.9 1.1-2.9 2.3 0 1.4 1 2 2.6 2.6 1.5.4 1.8.7 1.8 1.3 0 .5-.6 1-1.5 1-1 0-1.6-.6-2-1.3l-1.2.8Zm11.2 1.8c1.4 0 2.2-.6 2.7-1.4v1.2h1.5v-8.1h-1.6v4.1c0 1.2-.6 2.8-2.3 2.8-1 0-1.9-.7-1.9-2v-4.9h-1.5v4.9c0 2.1 1.3 3.4 3.1 3.4Zm6.8-8.3v8.1h1.6v-4c0-1.7 1-2.7 2.4-2.7h.4v-1.5h-.5c-1.1 0-2 .5-2.3 1.5V297h-1.6Zm5.3 6c0 1.3 1 2.3 2.6 2.3a3 3 0 0 0 2.6-1.4v1.2h1.5v-5.2c0-1.9-1.3-3-3.3-3a4 4 0 0 0-3.2 1.3l.8 1a3 3 0 0 1 2.2-1c1.2 0 2 .6 2 1.7v.1l-2.6.5c-1.7.4-2.6 1.2-2.6 2.5Zm1.5-.1c0-.7.4-1 1.4-1.2l2.3-.5v.6c0 1-1 2.2-2.4 2.2-.8 0-1.3-.5-1.3-1.1Zm6.7-5.9v1.3h1.2v4.4c0 1.6 1 2.6 2.6 2.6.5 0 1-.1 1.3-.3v-1.4a2 2 0 0 1-1 .3c-.9 0-1.3-.5-1.3-1.4v-4.2h2v-1.3h-2v-2.2h-1.5v2.2h-1.3Zm6 4c0 2.5 1.8 4.3 4.4 4.3 1.3 0 2.4-.4 3.3-1.4l-1-1a3 3 0 0 1-2.3 1c-1.4 0-2.6-1-2.7-2.4h6.1l.1-1c0-2-1.4-3.7-3.7-3.7-2.5 0-4.1 1.9-4.1 4.3Zm4.2-2.8c1.2 0 2 .8 2.2 2h-4.7c.3-1.2 1.2-2 2.5-2ZM89.8 324h1.6l2-6 2 6h1.5l2.6-8.1H98l-1.8 6-2-6h-1.5l-2 6-1.8-6h-1.6l2.6 8.1Zm11.3-8.1v8.1h1.5v-8.1h-1.5Zm-.2-2.4c0 .5.4 1 1 1 .5 0 1-.5 1-1 0-.6-.5-1-1-1a1 1 0 0 0-1 1Zm3.5 2.4v1.3h1.2v4.4c0 1.6 1 2.6 2.5 2.6.6 0 1-.1 1.3-.3v-1.4a2 2 0 0 1-1 .3c-.8 0-1.2-.5-1.2-1.4v-4.2h2v-1.3h-2v-2.2h-1.5v2.2h-1.3Zm6.8-3.2V324h1.5v-4.3c0-1.2.6-2.6 2.3-2.6 1 0 2 .7 2 2v4.9h1.5v-4.9c0-2.1-1.4-3.4-3.2-3.4a3 3 0 0 0-2.6 1.3v-4.3h-1.5Zm13.6 0v9.3c0 1.7 1 2.2 2.2 2.2l.7-.1v-1.4h-.6c-.6 0-.7-.4-.7-1v-9h-1.6Zm4 7.3c0 2.4 1.7 4.2 4.3 4.2 1.3 0 2.3-.4 3.2-1.4l-1-1a3 3 0 0 1-2.2 1c-1.4 0-2.6-1-2.7-2.4h6l.2-1c0-2-1.5-3.7-3.8-3.7-2.4 0-4 1.9-4 4.3Zm4-2.9c1.2 0 2.1.8 2.2 2h-4.6c.2-1.2 1.2-2 2.4-2Zm4.5-1.2 3.3 8.1h1.4l3.3-8.1h-1.6l-2.4 6-2.3-6h-1.7Zm8.8 4c0 2.5 1.7 4.3 4.3 4.3 1.3 0 2.4-.4 3.3-1.4l-1-1a3 3 0 0 1-2.2 1c-1.4 0-2.6-1-2.8-2.4h6.2v-1c0-2-1.4-3.7-3.7-3.7-2.4 0-4.1 1.9-4.1 4.3Zm4.1-2.8c1.2 0 2.1.8 2.2 2h-4.6c.2-1.2 1.2-2 2.4-2Zm5.7-4.4v9.3c0 1.7 1 2.2 2 2.2l.8-.1v-1.4h-.5c-.6 0-.8-.4-.8-1v-9H156Zm12.1 11.5c2.4 0 4.2-1.9 4.2-4.2 0-2.4-1.8-4.3-4.2-4.3a4.1 4.1 0 0 0-4.2 4.3c0 2.3 1.8 4.2 4.2 4.2Zm-2.6-4.2c0-1.6 1-2.8 2.6-2.8 1.5 0 2.6 1.2 2.6 2.8 0 1.5-1 2.7-2.6 2.7-1.5 0-2.6-1.2-2.6-2.7Zm8-4.1v1.3h1v6.8h1.6v-6.8h2v-1.3h-2v-.7c0-1 .8-1.3 1.5-1.3.3 0 .6 0 .9.2v-1.4l-1.1-.2c-1.7 0-2.8 1-2.8 2.7v.7h-1.1Zm9.8 0v8.1h1.5v-4c0-1.7 1-2.7 2.5-2.7h.3v-1.5h-.5c-1 0-1.9.5-2.3 1.5V316h-1.5Zm6 0v8.1h1.6v-8.1h-1.6Zm-.2-2.4c0 .5.5 1 1 1s1-.5 1-1c0-.6-.5-1-1-1a1 1 0 0 0-1 1Zm3.7 8.9a3.5 3.5 0 0 0 3.2 1.8c1.7 0 3-1 3-2.3 0-1.4-1-2-2.7-2.7-1.3-.4-1.7-.7-1.7-1.2s.6-1 1.3-1c.8 0 1.4.5 1.8 1.1l1.1-.8a3 3 0 0 0-2.8-1.6c-1.7 0-2.9 1.1-2.9 2.3 0 1.4.9 2 2.5 2.6 1.5.4 1.8.7 1.8 1.3 0 .5-.5 1-1.4 1-1 0-1.6-.6-2-1.3l-1.2.8Zm9.7 1.6v-2.2l1.4-1.5 2.4 3.7h1.8l-3.2-4.7 2.9-3.4h-1.9l-3.4 3.9v-7.1H201V324h1.5Zm10.3-2.1c0 1.3 1.1 2.3 2.6 2.3a3 3 0 0 0 2.7-1.4v1.2h1.4v-5.2c0-1.9-1.3-3-3.3-3a4 4 0 0 0-3.2 1.3l.8 1a3 3 0 0 1 2.3-1c1.1 0 1.8.6 1.8 1.7v.1l-2.5.5c-1.7.4-2.6 1.2-2.6 2.5Zm1.5-.1c0-.7.4-1 1.4-1.2l2.3-.5v.6c0 1-1 2.2-2.3 2.2-.8 0-1.4-.5-1.4-1.1Zm7.7 2.2h1.5v-4.1c0-1.2.6-2.8 2.3-2.8 1 0 2 .7 2 2v4.9h1.5v-4.9c0-2.1-1.3-3.4-3.2-3.4-1.3 0-2.1.6-2.6 1.4V316H222v8.1Zm13.1-4c0 2.4 1.8 4.2 4.4 4.2 1.2 0 2.3-.4 3.2-1.4l-1-1a3 3 0 0 1-2.2 1c-1.4 0-2.6-1-2.8-2.4h6.2v-1c0-2-1.4-3.7-3.7-3.7-2.4 0-4 1.9-4 4.3Zm4.1-2.9c1.2 0 2.1.8 2.2 2h-4.6c.2-1.2 1.2-2 2.4-2Zm4.6 6.9h1.7l2-3.1 2 3.1h1.8l-2.7-4.2 2.6-3.9h-1.8l-1.9 3-1.8-3h-1.8l2.6 4-2.7 4.1Zm8.2-4c0 2.4 1.8 4.2 4.4 4.2 1.3 0 2.3-.4 3.2-1.4l-1-1a3 3 0 0 1-2.2 1c-1.4 0-2.6-1-2.7-2.4h6l.2-1c0-2-1.5-3.7-3.8-3.7-2.4 0-4 1.9-4 4.3Zm4.1-2.9c1.2 0 2.1.8 2.2 2h-4.6c.2-1.2 1.2-2 2.4-2Zm5.1 2.8c0 2.4 2 4.3 4.3 4.3a4 4 0 0 0 3.3-1.7l-1-1c-.5.8-1.3 1.3-2.4 1.3-1.5 0-2.6-1.3-2.6-2.8 0-1.6 1.1-2.8 2.6-2.8 1 0 1.8.5 2.3 1.2l1-1c-.7-1-1.8-1.7-3.2-1.7a4.2 4.2 0 0 0-4.3 4.2Zm12.4 4.3c1.3 0 2.2-.6 2.6-1.4v1.2h1.5v-8.1h-1.5v4.1c0 1.2-.6 2.8-2.3 2.8-1 0-1.9-.7-1.9-2v-4.9h-1.5v4.9c0 2.1 1.3 3.4 3 3.4Zm6-8.3v1.3h1.1v4.4c0 1.6 1 2.6 2.6 2.6.5 0 1-.1 1.3-.3v-1.4a2 2 0 0 1-1 .3c-.9 0-1.3-.5-1.3-1.4v-4.2h2v-1.3h-2v-2.2h-1.5v2.2h-1.3Zm6.7 0v8.1h1.6v-8.1h-1.6Zm-.2-2.4c0 .5.5 1 1 1s1-.5 1-1c0-.6-.5-1-1-1a1 1 0 0 0-1 1Zm3.3 2.4 3.3 8.1h1.4l3.3-8.1h-1.7l-2.3 6-2.4-6h-1.6Zm8.7 4c0 2.5 1.8 4.3 4.4 4.3 1.3 0 2.3-.4 3.2-1.4l-1-1a3 3 0 0 1-2.2 1c-1.4 0-2.6-1-2.7-2.4h6l.2-1c0-2-1.5-3.7-3.8-3.7-2.4 0-4 1.9-4 4.3Zm4.1-2.8c1.2 0 2.1.8 2.3 2h-4.7c.3-1.2 1.2-2 2.4-2Zm8.9-1.2v1.3h1.2v4.4c0 1.6 1 2.6 2.5 2.6.6 0 1-.1 1.3-.3v-1.4a2 2 0 0 1-1 .3c-.9 0-1.3-.5-1.3-1.4v-4.2h2.1v-1.3h-2v-2.2h-1.6v2.2H311Zm6 6c0 1.3 1.2 2.3 2.7 2.3a3 3 0 0 0 2.7-1.4v1.2h1.4v-5.2c0-1.9-1.3-3-3.3-3a4 4 0 0 0-3.2 1.3l.8 1a3 3 0 0 1 2.3-1c1.1 0 1.8.6 1.8 1.7v.1l-2.5.5c-1.7.4-2.6 1.2-2.6 2.5Zm1.6-.1c0-.7.4-1 1.4-1.2l2.3-.5v.6c0 1-1 2.2-2.3 2.2-.8 0-1.4-.5-1.4-1.1Zm9.2 2.2v-2.2l1.4-1.5 2.4 3.7h1.8l-3.2-4.7 2.9-3.4h-1.9l-3.4 3.9v-7.1h-1.5V324h1.5Zm6.1-4c0 2.4 1.8 4.2 4.4 4.2 1.3 0 2.3-.4 3.2-1.4l-1-1a3 3 0 0 1-2.2 1c-1.4 0-2.6-1-2.7-2.4h6.1v-1c0-2-1.3-3.7-3.7-3.7-2.4 0-4 1.9-4 4.3Zm4.2-2.9c1.1 0 2 .8 2.2 2h-4.7c.3-1.2 1.2-2 2.4-2Zm5 5.3a3.5 3.5 0 0 0 3.1 1.8c1.8 0 3-1 3-2.3 0-1.4-.9-2-2.7-2.7-1.2-.4-1.6-.7-1.6-1.2s.5-1 1.3-1 1.3.5 1.7 1.1l1.2-.8a3 3 0 0 0-2.8-1.6c-1.7 0-3 1.1-3 2.3 0 1.4 1 2 2.6 2.6 1.5.4 1.8.7 1.8 1.3 0 .5-.6 1-1.5 1s-1.5-.6-2-1.3l-1.2.8Zm15.7 1.8c2.4 0 4.1-1.9 4.1-4.2 0-2.4-1.7-4.3-4.1-4.3a4.1 4.1 0 0 0-4.2 4.3c0 2.3 1.8 4.2 4.2 4.2ZM356 320c0-1.6 1.1-2.8 2.7-2.8 1.5 0 2.6 1.2 2.6 2.8 0 1.5-1.1 2.7-2.6 2.7-1.6 0-2.7-1.2-2.7-2.7Zm8.9 4h1.5v-4.1c0-1.2.6-2.8 2.3-2.8 1 0 2 .7 2 2v4.9h1.5v-4.9c0-2.1-1.3-3.4-3.2-3.4-1.3 0-2.1.6-2.6 1.4V316H365v8.1ZM87.7 340.9c0 1.3 1 2.3 2.6 2.3a3 3 0 0 0 2.6-1.4v1.2h1.5v-5.2c0-1.9-1.3-3-3.3-3a4 4 0 0 0-3.2 1.3l.8 1a3 3 0 0 1 2.2-1c1.2 0 2 .6 2 1.7v.1l-2.6.5c-1.7.4-2.6 1.2-2.6 2.5Zm1.5-.1c0-.7.4-1 1.4-1.2l2.3-.5v.6c0 1-1 2.2-2.3 2.2-.8 0-1.4-.5-1.4-1.1Zm7 .6a3.5 3.5 0 0 0 3.1 1.8c1.8 0 3-1 3-2.3 0-1.4-.9-2-2.7-2.7-1.2-.4-1.6-.7-1.6-1.2s.5-1 1.3-1 1.3.5 1.7 1.1l1.1-.8a3 3 0 0 0-2.8-1.6c-1.6 0-2.9 1.1-2.9 2.3 0 1.4 1 2 2.6 2.6 1.5.4 1.8.7 1.8 1.3 0 .5-.6 1-1.5 1-1 0-1.5-.6-2-1.3l-1.2.8Zm11.4-.5c0 1.3 1.1 2.3 2.6 2.3a3 3 0 0 0 2.7-1.4v1.2h1.4v-5.2c0-1.9-1.3-3-3.3-3a4 4 0 0 0-3.2 1.3l.8 1a3 3 0 0 1 2.3-1c1.2 0 1.9.6 1.9 1.7v.1l-2.6.5c-1.7.4-2.6 1.2-2.6 2.5Zm1.5-.1c0-.7.4-1 1.4-1.2l2.3-.5v.6c0 1-1 2.2-2.3 2.2-.8 0-1.4-.5-1.4-1.1Zm11.7-5.9v11.3h1.5v-4.3c.5.7 1.6 1.3 2.7 1.3 2.1 0 3.8-1.8 3.8-4.2 0-2.5-1.7-4.3-3.8-4.3-1.1 0-2.3.6-2.8 1.4v-1.2h-1.5Zm1.4 4c0-1.6 1.2-2.8 2.5-2.8 1.4 0 2.5 1.2 2.5 2.9 0 1.6-1.1 2.8-2.5 2.8-1.3 0-2.5-1.2-2.5-2.8Zm11.7 4.3c1.3 0 2.1-.6 2.6-1.4v1.2h1.5v-8.1h-1.5v4.1c0 1.2-.6 2.8-2.3 2.8-1 0-2-.7-2-2v-4.9h-1.5v4.9c0 2.1 1.3 3.4 3.2 3.4Zm6.8-11.5V343h1.5v-1.2c.4.8 1.6 1.4 2.7 1.4 2.2 0 3.8-1.8 3.8-4.2 0-2.5-1.6-4.3-3.8-4.3-1.1 0-2.2.6-2.7 1.3v-4.3h-1.5Zm4 4.4c1.3 0 2.5 1.2 2.5 2.9 0 1.6-1.2 2.8-2.6 2.8-1.3 0-2.5-1.2-2.5-2.8 0-1.7 1.2-2.9 2.5-2.9Zm6-4.4v9.3c0 1.7 1 2.2 2.1 2.2l.7-.1v-1.4h-.5c-.6 0-.8-.4-.8-1v-9h-1.5Zm4.6 3.2v8.1h1.6v-8.1h-1.6Zm-.2-2.4c0 .5.5 1 1 1s1-.5 1-1c0-.6-.5-1-1-1a1 1 0 0 0-1 1Zm3.8 6.4c0 2.4 1.9 4.3 4.2 4.3a4 4 0 0 0 3.4-1.7l-1-1c-.6.8-1.4 1.3-2.4 1.3-1.5 0-2.6-1.3-2.6-2.8 0-1.6 1-2.8 2.6-2.8 1 0 1.7.5 2.2 1.2l1-1c-.7-1-1.7-1.7-3.2-1.7a4.2 4.2 0 0 0-4.2 4.2Zm12.6-4v1.3h1v6.8h1.6v-6.8h2v-1.3h-2v-.7c0-1 .7-1.3 1.5-1.3.3 0 .6 0 .9.2v-1.4l-1.1-.2c-1.7 0-2.8 1-2.8 2.7v.7h-1.1Zm6.2 0v8.1h1.5v-8.1h-1.5Zm-.2-2.4c0 .5.4 1 1 1 .5 0 1-.5 1-1 0-.6-.5-1-1-1a1 1 0 0 0-1 1ZM181 344c0 1.5 1.4 2.3 3.7 2.3 2.4 0 4-1.1 4-2.5 0-1.3-1-2.2-2.7-2.2h-2c-.4 0-.7-.3-.7-.6s.2-.4.3-.6l.9.1c1.8 0 3.2-1.3 3.2-3 0-.5-.1-1-.4-1.4h1.3v-1.3h-3l-1.1-.2c-1.8 0-3.3 1.3-3.3 3 0 1 .6 1.8 1.4 2.4-.5.3-.8.7-.8 1.2 0 .4.2.8.6 1-.8.4-1.4 1-1.4 1.8Zm3.5-8c1 0 1.7.7 1.7 1.6 0 .9-.8 1.6-1.7 1.6-1 0-1.8-.7-1.8-1.6 0-1 .8-1.6 1.8-1.6Zm-2 7.9c0-.6.7-.9 1-1h2.4c.7 0 1.3.3 1.3 1 0 .6-1 1-2.5 1-1.2 0-2.1-.4-2.1-1Zm11-.8c1.3 0 2.1-.6 2.6-1.4v1.2h1.5v-8.1H196v4.1c0 1.2-.6 2.8-2.2 2.8-1 0-2-.7-2-2v-4.9h-1.5v4.9c0 2.1 1.3 3.4 3.1 3.4Zm6.7-8.3v8.1h1.6v-4c0-1.7 1-2.7 2.5-2.7h.3v-1.5h-.5c-1.1 0-2 .5-2.3 1.5V335h-1.6Zm5.2 4c0 2.5 1.7 4.3 4.3 4.3 1.3 0 2.4-.4 3.3-1.4l-1-1a3 3 0 0 1-2.2 1c-1.5 0-2.6-1-2.8-2.4h6.1l.1-1c0-2-1.4-3.7-3.7-3.7-2.5 0-4.1 1.9-4.1 4.3Zm4.1-2.8c1.2 0 2 .8 2.2 2h-4.6c.2-1.2 1.1-2 2.4-2Zm-118.9 40v9.9h1.6v-9.9h3.4v-1.4h-8.4v1.4h3.4Zm5.1 1.8v8.1h1.6v-4c0-1.7 1-2.7 2.4-2.7h.3v-1.5h-.4c-1.1 0-2 .5-2.4 1.5V378h-1.5Zm5.2 6c0 1.3 1.2 2.3 2.7 2.3a3 3 0 0 0 2.6-1.4v1.2h1.5v-5.2c0-1.9-1.3-3-3.3-3a4 4 0 0 0-3.2 1.3l.8 1a3 3 0 0 1 2.2-1c1.2 0 1.9.6 1.9 1.7v.1l-2.5.5c-1.8.4-2.7 1.2-2.7 2.5Zm1.6-.1c0-.7.4-1 1.3-1.2l2.4-.5v.6c0 1-1 2.2-2.4 2.2-.8 0-1.3-.5-1.3-1.1Zm6.4-5.9 3.3 8.1h1.4l3.3-8.1h-1.7l-2.3 6-2.4-6H109Zm8.7 4c0 2.5 1.8 4.3 4.4 4.3 1.3 0 2.3-.4 3.2-1.4l-1-1a3 3 0 0 1-2.2 1c-1.4 0-2.6-1-2.7-2.4h6l.2-1c0-2-1.4-3.7-3.8-3.7s-4 1.9-4 4.3Zm4.1-2.8c1.2 0 2.1.8 2.3 2h-4.7c.3-1.2 1.2-2 2.4-2Zm5.7-4.4v9.3c0 1.7 1 2.2 2.1 2.2l.7-.1v-1.4h-.5c-.6 0-.8-.4-.8-1v-9h-1.5Zm8.6 3.2v8.1h1.5v-4c0-1.7 1-2.7 2.5-2.7h.3v-1.5h-.5c-1 0-1.9.5-2.3 1.5V378h-1.5Zm6 0v8.1h1.6v-8.1H142Zm-.2-2.4c0 .5.5 1 1 1s1-.5 1-1c0-.6-.5-1-1-1a1 1 0 0 0-1 1Zm7.7 10.7c1 0 2.2-.6 2.7-1.4v1.2h1.5v-11.3h-1.6v4.3a3.3 3.3 0 0 0-2.6-1.3c-2.2 0-3.9 1.8-3.9 4.3 0 2.4 1.7 4.2 3.9 4.2Zm.2-7c1.4 0 2.5 1 2.5 2.8 0 1.6-1.1 2.8-2.5 2.8-1.3 0-2.5-1.2-2.5-2.8 0-1.7 1.2-2.9 2.5-2.9Zm6 2.8c0 2.4 1.8 4.2 4.3 4.2 1.3 0 2.4-.4 3.3-1.4l-1-1a3 3 0 0 1-2.2 1c-1.4 0-2.6-1-2.8-2.4h6.2v-1c0-2-1.4-3.7-3.7-3.7-2.4 0-4 1.9-4 4.3Zm4.1-2.9c1.2 0 2.1.8 2.2 2h-4.6c.2-1.2 1.2-2 2.4-2Zm5.8-1.2v8.1h1.5v-4c0-1.7 1-2.7 2.5-2.7h.3v-1.5h-.5c-1 0-2 .5-2.3 1.5V378h-1.5Zm5.1 6.5a3.5 3.5 0 0 0 3.2 1.8c1.8 0 3-1 3-2.3 0-1.4-.9-2-2.7-2.7-1.2-.4-1.6-.7-1.6-1.2s.5-1 1.3-1 1.3.5 1.7 1.1l1.2-.8a3 3 0 0 0-2.8-1.6c-1.7 0-3 1.1-3 2.3 0 1.4 1 2 2.6 2.6 1.5.4 1.8.7 1.8 1.3 0 .5-.6 1-1.5 1s-1.5-.6-2-1.3l-1.2.8Zm11.3-6.5v1.3h1.2v4.4c0 1.6 1 2.6 2.6 2.6.5 0 1-.1 1.3-.3v-1.4a2 2 0 0 1-1 .3c-.9 0-1.3-.5-1.3-1.4v-4.2h2v-1.3h-2v-2.2h-1.5v2.2H182Zm10.3 8.3c2.4 0 4.2-1.9 4.2-4.2 0-2.4-1.8-4.3-4.2-4.3a4.1 4.1 0 0 0-4.2 4.3c0 2.3 1.8 4.2 4.2 4.2Zm-2.6-4.2c0-1.6 1-2.8 2.6-2.8 1.5 0 2.6 1.2 2.6 2.8 0 1.5-1.1 2.7-2.6 2.7-1.6 0-2.6-1.2-2.6-2.7Zm12.1 0c0 2.4 1.8 4.2 4.3 4.2 1.3 0 2.4-.4 3.3-1.4l-1-1a3 3 0 0 1-2.2 1c-1.4 0-2.6-1-2.8-2.4h6.2v-1c0-2-1.4-3.7-3.7-3.7-2.4 0-4 1.9-4 4.3Zm4.1-2.9c1.2 0 2.1.8 2.2 2h-4.6c.2-1.2 1.2-2 2.4-2Zm5.8 6.9h1.5v-4.1c0-1.2.6-2.8 2.3-2.8 1 0 1.9.7 1.9 2v4.9h1.5v-4.9c0-2.1-1.3-3.4-3-3.4-1.4 0-2.3.6-2.7 1.4V378h-1.5v8.1Zm9-1.6a3.5 3.5 0 0 0 3.2 1.8c1.8 0 3-1 3-2.3 0-1.4-.9-2-2.7-2.7-1.2-.4-1.6-.7-1.6-1.2s.5-1 1.3-1 1.3.5 1.7 1.1l1.1-.8a3 3 0 0 0-2.8-1.6c-1.6 0-2.9 1.1-2.9 2.3 0 1.4 1 2 2.6 2.6 1.5.4 1.8.7 1.8 1.3 0 .5-.6 1-1.5 1s-1.5-.6-2-1.3l-1.2.8Zm11.2 1.8c1.4 0 2.2-.6 2.7-1.4v1.2h1.5v-8.1h-1.6v4.1c0 1.2-.6 2.8-2.2 2.8-1 0-2-.7-2-2v-4.9H229v4.9c0 2.1 1.3 3.4 3.1 3.4Zm6.8-8.3v8.1h1.6v-4c0-1.7 1-2.7 2.5-2.7h.3v-1.5h-.5c-1.1 0-2 .5-2.3 1.5V378h-1.6Zm5.2 4c0 2.5 1.7 4.3 4.3 4.3 1.3 0 2.4-.4 3.3-1.4l-1-1a3 3 0 0 1-2.2 1c-1.5 0-2.6-1-2.8-2.4h6.1l.1-1c0-2-1.4-3.7-3.7-3.7-2.5 0-4.1 1.9-4.1 4.3Zm4.1-2.8c1.2 0 2 .8 2.2 2h-4.6c.2-1.2 1.1-2 2.4-2Zm9 4.8c0 1.3 1.1 2.3 2.6 2.3a3 3 0 0 0 2.7-1.4v1.2h1.4v-5.2c0-1.9-1.3-3-3.3-3a4 4 0 0 0-3.2 1.3l.8 1a3 3 0 0 1 2.3-1c1.2 0 1.9.6 1.9 1.7v.1l-2.6.5c-1.7.4-2.6 1.2-2.6 2.5Zm1.5-.1c0-.7.4-1 1.4-1.2l2.3-.5v.6c0 1-1 2.2-2.3 2.2-.8 0-1.4-.5-1.4-1.1Zm11-1.9c0 2.4 1.9 4.3 4.3 4.3a4 4 0 0 0 3.3-1.7l-1-1c-.5.8-1.4 1.3-2.4 1.3-1.5 0-2.6-1.3-2.6-2.8 0-1.6 1.1-2.8 2.6-2.8 1 0 1.8.5 2.3 1.2l1-1c-.7-1-1.8-1.7-3.3-1.7a4.2 4.2 0 0 0-4.2 4.2Zm8.7 0c0 2.5 1.7 4.3 4.3 4.3 1.3 0 2.4-.4 3.3-1.4l-1-1a3 3 0 0 1-2.3 1c-1.4 0-2.6-1-2.7-2.4h6.1l.1-1c0-2-1.4-3.7-3.7-3.7-2.5 0-4.1 1.9-4.1 4.3Zm4-2.8c1.3 0 2.2.8 2.3 2h-4.7c.3-1.2 1.2-2 2.5-2Zm5.8-1.2v8.1h1.6v-4c0-1.7 1-2.7 2.4-2.7h.4v-1.5h-.5c-1.1 0-2 .5-2.4 1.5V378h-1.5Zm5.2 0v1.3h1.2v4.4c0 1.6 1 2.6 2.6 2.6.5 0 1-.1 1.2-.3v-1.4a2 2 0 0 1-1 .3c-.8 0-1.2-.5-1.2-1.4v-4.2h2v-1.3h-2v-2.2h-1.5v2.2h-1.3Zm6.1 6c0 1.3 1.2 2.3 2.7 2.3a3 3 0 0 0 2.6-1.4v1.2h1.4v-5.2c0-1.9-1.2-3-3.3-3a4 4 0 0 0-3.2 1.3l.8 1a3 3 0 0 1 2.3-1c1.2 0 1.9.6 1.9 1.7v.1l-2.5.5c-1.8.4-2.7 1.2-2.7 2.5Zm1.6-.1c0-.7.4-1 1.3-1.2l2.4-.5v.6c0 1-1 2.2-2.4 2.2-.8 0-1.3-.5-1.3-1.1Zm7.6-5.9v8.1h1.6v-8.1h-1.6Zm-.2-2.4c0 .5.5 1 1 1 .6 0 1-.5 1-1 0-.6-.4-1-1-1a1 1 0 0 0-1 1Zm4.4 10.5h1.6v-4.1c0-1.2.6-2.8 2.3-2.8 1 0 1.9.7 1.9 2v4.9h1.5v-4.9c0-2.1-1.3-3.4-3.1-3.4-1.4 0-2.2.6-2.6 1.4V378h-1.6v8.1Zm13.2-4c0 2.3 1.8 4.2 4.2 4.2a4 4 0 0 0 3.3-1.7l-1-1c-.5.8-1.3 1.3-2.4 1.3-1.4 0-2.6-1.3-2.6-2.8 0-1.6 1.1-2.8 2.7-2.8 1 0 1.7.5 2.2 1.2l1-1c-.7-1-1.8-1.7-3.2-1.7a4.2 4.2 0 0 0-4.2 4.2Zm9.2-7.3v9.3c0 1.7 1 2.2 2.1 2.2l.7-.1v-1.4h-.5c-.6 0-.7-.4-.7-1v-9h-1.6Zm4 9.2c0 1.3 1.1 2.3 2.6 2.3a3 3 0 0 0 2.7-1.4v1.2h1.4v-5.2c0-1.9-1.3-3-3.3-3a4 4 0 0 0-3.2 1.3l.8 1a3 3 0 0 1 2.3-1c1.1 0 1.8.6 1.8 1.7v.1l-2.5.5c-1.7.4-2.6 1.2-2.6 2.5Zm1.5-.1c0-.7.4-1 1.4-1.2l2.3-.5v.6c0 1-1 2.2-2.3 2.2-.8 0-1.4-.5-1.4-1.1Zm7 .6a3.5 3.5 0 0 0 3.1 1.8c1.8 0 3-1 3-2.3 0-1.4-.9-2-2.7-2.7-1.2-.4-1.6-.7-1.6-1.2s.5-1 1.3-1 1.3.5 1.7 1.1l1.2-.8a3 3 0 0 0-2.8-1.6c-1.7 0-3 1.1-3 2.3 0 1.4 1 2 2.6 2.6 1.5.4 1.8.7 1.8 1.3 0 .5-.6 1-1.5 1s-1.5-.6-2-1.3l-1.2.8Zm7.4 0a3.5 3.5 0 0 0 3.2 1.8c1.7 0 3-1 3-2.3 0-1.4-1-2-2.7-2.7-1.3-.4-1.7-.7-1.7-1.2s.6-1 1.3-1c.8 0 1.4.5 1.8 1.1l1.1-.8a3 3 0 0 0-2.8-1.6c-1.7 0-2.9 1.1-2.9 2.3 0 1.4.9 2 2.5 2.6 1.5.4 1.8.7 1.8 1.3 0 .5-.5 1-1.4 1-1 0-1.6-.6-2-1.3l-1.2.8Zm15.7 1.8c2.4 0 4.2-1.9 4.2-4.2 0-2.4-1.8-4.3-4.2-4.3a4.1 4.1 0 0 0-4.2 4.3c0 2.3 1.8 4.2 4.2 4.2Zm-2.6-4.2c0-1.6 1-2.8 2.6-2.8 1.5 0 2.6 1.2 2.6 2.8 0 1.5-1 2.7-2.6 2.7-1.5 0-2.6-1.2-2.6-2.7Zm8-4.1v1.3h1v6.8h1.6v-6.8h2v-1.3h-2v-.7c0-1 .7-1.3 1.5-1.3.3 0 .6 0 .9.2v-1.4l-1.1-.2c-1.7 0-2.8 1-2.8 2.7v.7h-1.1Zm-288.7 19v1.3h1.2v4.4c0 1.6 1 2.6 2.5 2.6.6 0 1-.1 1.3-.3v-1.4a2 2 0 0 1-1 .3c-.9 0-1.3-.5-1.3-1.4v-4.2h2.1v-1.3h-2v-2.2h-1.6v2.2h-1.2Zm6.7 0v8.1h1.6v-4c0-1.7 1-2.7 2.5-2.7h.3v-1.5H98c-1.1 0-2 .5-2.3 1.5V397h-1.6Zm5.3 6c0 1.3 1.1 2.3 2.6 2.3a3 3 0 0 0 2.6-1.4v1.2h1.5v-5.2c0-1.9-1.3-3-3.3-3a4 4 0 0 0-3.2 1.3l.8 1a3 3 0 0 1 2.2-1c1.2 0 2 .6 2 1.7v.1l-2.6.5c-1.7.4-2.6 1.2-2.6 2.5Zm1.5-.1c0-.7.4-1 1.4-1.2l2.3-.5v.6c0 1-1 2.2-2.3 2.2-.8 0-1.4-.5-1.4-1.1Zm6.4-5.9 3.3 8.1h1.4l3.3-8.1h-1.6l-2.4 6-2.3-6h-1.7Zm8.8 4c0 2.5 1.7 4.3 4.3 4.3 1.3 0 2.4-.4 3.3-1.4l-1-1a3 3 0 0 1-2.3 1c-1.4 0-2.6-1-2.7-2.4h6.1l.1-1c0-2-1.4-3.7-3.7-3.7-2.5 0-4.1 1.9-4.1 4.3Zm4-2.8c1.3 0 2.2.8 2.3 2h-4.6c.2-1.2 1.1-2 2.4-2Zm5.7-4.4v9.3c0 1.7 1 2.2 2.1 2.2l.8-.1v-1.4h-.6c-.6 0-.7-.4-.7-1v-9h-1.6Zm-38.1 48.7a5.8 5.8 0 0 0 10.5 3.3l-1.2-1a4.1 4.1 0 0 1-3.5 2 4.1 4.1 0 0 1-4.2-4.3c0-2.5 1.8-4.3 4.1-4.3 1.6 0 2.8.8 3.5 1.8l1.2-1a5.6 5.6 0 0 0-4.7-2.4 5.7 5.7 0 0 0-5.7 5.9Zm15.8 5.8c2.4 0 4.2-1.9 4.2-4.2 0-2.4-1.8-4.3-4.2-4.3a4.1 4.1 0 0 0-4.2 4.3c0 2.3 1.8 4.2 4.2 4.2ZM101 444c0-1.6 1-2.8 2.6-2.8s2.6 1.2 2.6 2.8c0 1.5-1 2.7-2.6 2.7-1.5 0-2.6-1.2-2.6-2.7Zm8.8 4h1.6v-4.1c0-1.2.6-2.8 2.3-2.8 1 0 1.9.7 1.9 2v4.9h1.5v-4.1c0-1.2.6-2.8 2.3-2.8 1 0 1.9.7 1.9 2v4.9h1.6v-4.9c0-2.1-1.3-3.4-3.2-3.4-1.3 0-2.2.5-3 1.7a3 3 0 0 0-2.7-1.7c-1.4 0-2.2.6-2.6 1.4V440h-1.6v8.1Zm15.6-8.1v11.3h1.5v-4.3c.5.7 1.6 1.3 2.7 1.3 2.2 0 3.8-1.8 3.8-4.2 0-2.5-1.6-4.3-3.8-4.3-1.1 0-2.2.6-2.7 1.4v-1.2h-1.5Zm1.4 4c0-1.6 1.2-2.8 2.5-2.8 1.4 0 2.6 1.2 2.6 2.9 0 1.6-1.2 2.8-2.6 2.8-1.3 0-2.5-1.2-2.5-2.8Zm8 2c0 1.3 1.1 2.3 2.7 2.3a3 3 0 0 0 2.6-1.4v1.2h1.4v-5.2c0-1.9-1.2-3-3.3-3a4 4 0 0 0-3.2 1.3l.8 1a3 3 0 0 1 2.3-1c1.2 0 1.9.6 1.9 1.7v.1l-2.5.5c-1.8.4-2.7 1.2-2.7 2.5Zm1.5-.1c0-.7.4-1 1.4-1.2l2.3-.5v.6c0 1-1 2.2-2.3 2.2-.8 0-1.4-.5-1.4-1.1Zm7.7 2.2h1.6v-4.1c0-1.2.6-2.8 2.3-2.8 1 0 1.9.7 1.9 2v4.9h1.5v-4.9c0-2.1-1.3-3.4-3.1-3.4-1.4 0-2.2.6-2.6 1.4V440H144v8.1Zm11.9-.1-.4.9c-.3.9-.7 1.3-1.4 1.3-.2 0-.6 0-1-.3v1.4c.4.2.8.2 1.1.2 1.5 0 2.1-.9 2.6-2l3.8-9.5h-1.7l-2.3 6.1-2.4-6.1h-1.7l3.4 8Zm8.4-8 3.3 8.1h1.4l3.3-8.1h-1.7l-2.3 6-2.4-6h-1.6Zm8.7 4c0 2.5 1.8 4.3 4.4 4.3 1.3 0 2.3-.4 3.2-1.4l-1-1a3 3 0 0 1-2.2 1c-1.4 0-2.6-1-2.7-2.4h6l.2-1c0-2-1.5-3.7-3.8-3.7-2.4 0-4 1.9-4 4.3Zm4.1-2.8c1.2 0 2.1.8 2.3 2h-4.7c.3-1.2 1.2-2 2.4-2Zm5.8-4.4V448h1.5v-4.3c0-1.2.6-2.6 2.3-2.6 1 0 2 .7 2 2v4.9h1.5v-4.9c0-2.1-1.4-3.4-3.2-3.4a3 3 0 0 0-2.6 1.3v-4.3H183Zm9.8 3.2v8.1h1.6v-8.1h-1.6Zm-.2-2.4c0 .5.5 1 1 1s1-.5 1-1c0-.6-.5-1-1-1a1 1 0 0 0-1 1Zm3.8 6.4c0 2.4 1.8 4.3 4.2 4.3a4 4 0 0 0 3.3-1.7l-1-1c-.5.8-1.3 1.3-2.3 1.3-1.5 0-2.7-1.3-2.7-2.8 0-1.6 1.2-2.8 2.7-2.8 1 0 1.7.5 2.2 1.2l1-1c-.7-1-1.8-1.7-3.2-1.7a4.2 4.2 0 0 0-4.2 4.2Zm9.2-7.2v9.3c0 1.7 1 2.2 2.1 2.2l.7-.1v-1.4h-.5c-.6 0-.7-.4-.7-1v-9h-1.6Zm3.9 7.3c0 2.4 1.7 4.2 4.3 4.2 1.3 0 2.4-.4 3.3-1.4l-1-1a3 3 0 0 1-2.2 1c-1.4 0-2.6-1-2.8-2.4h6.2v-1c0-2-1.4-3.7-3.7-3.7-2.4 0-4.1 1.9-4.1 4.3Zm4.1-2.9c1.2 0 2.1.8 2.2 2h-4.6c.2-1.2 1.2-2 2.4-2Zm5 5.3a3.5 3.5 0 0 0 3.2 1.8c1.7 0 3-1 3-2.3 0-1.4-1-2-2.7-2.7-1.3-.4-1.7-.7-1.7-1.2s.6-1 1.3-1c.8 0 1.4.5 1.8 1.1l1.1-.8a3 3 0 0 0-2.8-1.6c-1.7 0-2.9 1.1-2.9 2.3 0 1.4.9 2 2.5 2.6 1.5.4 1.9.7 1.9 1.3 0 .5-.6 1-1.5 1-1 0-1.6-.6-2-1.3l-1.2.8ZM88.5 491h7.2v-1.5h-5.6V486h4.5v-1.4h-4.5V481h5.5v-1.4h-7V491Zm12.3.2c1.1 0 2.3-.6 2.7-1.4v1.2h1.5v-11.3h-1.5v4.3a3.3 3.3 0 0 0-2.7-1.3c-2.1 0-3.8 1.8-3.8 4.3 0 2.4 1.7 4.2 3.8 4.2Zm.3-7c1.3 0 2.5 1 2.5 2.8 0 1.6-1.2 2.8-2.5 2.8-1.4 0-2.6-1.2-2.6-2.8 0-1.7 1.2-2.9 2.6-2.9Zm9.6 7c1.3 0 2.2-.6 2.6-1.4v1.2h1.5v-8.1h-1.5v4.1c0 1.2-.6 2.8-2.3 2.8-1 0-1.9-.7-1.9-2v-4.9h-1.5v4.9c0 2.1 1.3 3.4 3 3.4Zm6.2-4.3c0 2.4 1.8 4.3 4.2 4.3a4 4 0 0 0 3.3-1.7l-1-1c-.5.8-1.3 1.3-2.3 1.3-1.5 0-2.7-1.3-2.7-2.8 0-1.6 1.1-2.8 2.7-2.8 1 0 1.7.5 2.2 1.2l1-1c-.7-1-1.8-1.7-3.2-1.7a4.2 4.2 0 0 0-4.2 4.2Zm8.6 2c0 1.3 1.2 2.3 2.7 2.3a3 3 0 0 0 2.6-1.4v1.2h1.5v-5.2c0-1.9-1.3-3-3.3-3a4 4 0 0 0-3.2 1.3l.8 1a3 3 0 0 1 2.2-1c1.2 0 1.9.6 1.9 1.7v.1l-2.5.5c-1.8.4-2.7 1.2-2.7 2.5Zm1.6-.1c0-.7.4-1 1.3-1.2l2.4-.5v.6c0 1-1 2.2-2.4 2.2-.8 0-1.3-.5-1.3-1.1Zm6.7-5.9v1.3h1.2v4.4c0 1.6 1 2.6 2.5 2.6.6 0 1-.1 1.3-.3v-1.4a2 2 0 0 1-1 .3c-.8 0-1.2-.5-1.2-1.4v-4.2h2v-1.3h-2v-2.2H135v2.2h-1.3Zm6.8 0v8.1h1.5v-8.1h-1.5Zm-.2-2.4c0 .5.4 1 1 1 .5 0 1-.5 1-1 0-.6-.5-1-1-1a1 1 0 0 0-1 1Zm8 10.7c2.3 0 4.1-1.9 4.1-4.2 0-2.4-1.8-4.3-4.2-4.3a4.1 4.1 0 0 0-4.1 4.3c0 2.3 1.7 4.2 4.1 4.2Zm-2.7-4.2c0-1.6 1.1-2.8 2.6-2.8 1.6 0 2.7 1.2 2.7 2.8 0 1.5-1.1 2.7-2.7 2.7-1.5 0-2.6-1.2-2.6-2.7Zm8.9 4h1.5v-4.1c0-1.2.6-2.8 2.3-2.8 1 0 2 .7 2 2v4.9h1.5v-4.9c0-2.1-1.3-3.4-3.2-3.4-1.3 0-2.1.6-2.6 1.4V483h-1.5v8.1Zm13-8.1v1.3h1.1v6.8h1.6v-6.8h2v-1.3h-2v-.7c0-1 .7-1.3 1.5-1.3.3 0 .6 0 .8.2v-1.4l-1-.2c-1.7 0-2.9 1-2.9 2.7v.7h-1Zm9.3 8.3c1.3 0 2.1-.6 2.6-1.4v1.2h1.5v-8.1h-1.6v4.1c0 1.2-.5 2.8-2.2 2.8-1 0-2-.7-2-2v-4.9h-1.5v4.9c0 2.1 1.3 3.4 3.2 3.4Zm6.8-.2h1.5v-4.1c0-1.2.6-2.8 2.3-2.8 1 0 1.9.7 1.9 2v4.9h1.5v-4.9c0-2.1-1.3-3.4-3.1-3.4-1.3 0-2.2.6-2.6 1.4V483h-1.5v8.1Zm13 .2c1.1 0 2.3-.6 2.7-1.4v1.2h1.5v-11.3h-1.5v4.3a3.3 3.3 0 0 0-2.7-1.3c-2.2 0-3.8 1.8-3.8 4.3 0 2.4 1.6 4.2 3.8 4.2Zm.3-7c1.3 0 2.5 1 2.5 2.8 0 1.6-1.2 2.8-2.5 2.8-1.4 0-2.6-1.2-2.6-2.8 0-1.7 1.2-2.9 2.6-2.9Zm6.6-1.3v8.1h1.5v-8.1h-1.5Zm-.2-2.4c0 .5.4 1 1 1 .5 0 1-.5 1-1 0-.6-.5-1-1-1a1 1 0 0 0-1 1Zm4.4 10.5h1.5v-4.1c0-1.2.6-2.8 2.3-2.8 1 0 2 .7 2 2v4.9h1.5v-4.9c0-2.1-1.3-3.4-3.2-3.4-1.3 0-2.1.6-2.6 1.4V483h-1.5v8.1Zm9 1.1c0 1.5 1.4 2.3 3.7 2.3 2.4 0 4-1.1 4-2.5 0-1.3-1-2.2-2.7-2.2h-2c-.4 0-.7-.3-.7-.6s.2-.4.3-.6l.9.1c1.8 0 3.2-1.3 3.2-3 0-.5-.1-1-.4-1.4h1.3v-1.3h-3l-1.1-.2c-1.8 0-3.3 1.3-3.3 3 0 1 .6 1.8 1.4 2.4-.5.3-.8.7-.8 1.2 0 .4.2.8.6 1-.8.4-1.4 1-1.4 1.8Zm3.5-8c1 0 1.7.7 1.7 1.6 0 .9-.8 1.6-1.7 1.6-1 0-1.8-.7-1.8-1.6 0-1 .8-1.6 1.8-1.6Zm-2 7.9c0-.6.7-.9 1-1h2.4c.7 0 1.3.3 1.3 1 0 .6-1 1-2.5 1-1.2 0-2.1-.4-2.1-1ZM87.7 532a4.2 4.2 0 0 0 3.9 2.2c2.5 0 3.8-1.5 3.8-3.1 0-2-1.4-2.6-3.2-3.4-1.5-.7-2.6-1-2.6-2.2 0-.9.8-1.5 2-1.5.9 0 1.8.3 2.4 1.3l1.2-.9a4 4 0 0 0-3.5-1.9c-2.2 0-3.7 1.4-3.7 3 0 2.2 1.7 2.8 3.3 3.5 1.5.6 2.5 1 2.5 2.2 0 .7-.8 1.5-2.2 1.5-1 0-2-.5-2.6-1.6l-1.3.9Zm9.6-6.1v11.3h1.6v-4.3c.5.7 1.6 1.3 2.7 1.3 2.1 0 3.8-1.8 3.8-4.2 0-2.5-1.7-4.3-3.8-4.3-1.1 0-2.3.6-2.8 1.4v-1.2h-1.5Zm1.5 4c0-1.6 1.2-2.8 2.5-2.8 1.4 0 2.5 1.2 2.5 2.9 0 1.6-1.1 2.8-2.5 2.8-1.3 0-2.5-1.2-2.5-2.8Zm8 0c0 2.5 1.8 4.3 4.4 4.3 1.3 0 2.3-.4 3.2-1.4l-1-1a3 3 0 0 1-2.2 1c-1.4 0-2.6-1-2.7-2.4h6l.2-1c0-2-1.4-3.7-3.8-3.7s-4 1.9-4 4.3Zm4.1-2.8c1.2 0 2.1.8 2.3 2h-4.7c.3-1.2 1.2-2 2.4-2Zm5.2 2.8c0 2.4 1.8 4.3 4.2 4.3a4 4 0 0 0 3.3-1.7l-1-1c-.5.8-1.3 1.3-2.4 1.3-1.4 0-2.6-1.3-2.6-2.8 0-1.6 1.1-2.8 2.7-2.8 1 0 1.7.5 2.2 1.2l1-1c-.7-1-1.8-1.7-3.2-1.7a4.2 4.2 0 0 0-4.2 4.2Zm9.3-4v8.1h1.5v-8.1h-1.5Zm-.2-2.4c0 .5.5 1 1 1s1-.5 1-1c0-.6-.5-1-1-1a1 1 0 0 0-1 1Zm3.7 8.4c0 1.3 1.2 2.3 2.7 2.3a3 3 0 0 0 2.6-1.4v1.2h1.4v-5.2c0-1.9-1.2-3-3.2-3a4 4 0 0 0-3.2 1.3l.8 1a3 3 0 0 1 2.2-1c1.2 0 1.9.6 1.9 1.7v.1l-2.5.5c-1.8.4-2.7 1.2-2.7 2.5Zm1.6-.1c0-.7.4-1 1.3-1.2l2.4-.5v.6c0 1-1 2.2-2.4 2.2-.8 0-1.3-.5-1.3-1.1Zm7.6-9.1v9.3c0 1.7 1 2.2 2 2.2l.8-.1v-1.4h-.5c-.7 0-.8-.4-.8-1v-9H138Zm4.6 3.2v8.1h1.5v-8.1h-1.5Zm-.2-2.4c0 .5.4 1 1 1 .5 0 1-.5 1-1 0-.6-.5-1-1-1a1 1 0 0 0-1 1Zm3.8 2.4v1.3h4.1l-4.1 5.9v.9h6.3v-1.3h-4.3l4.2-5.9v-.9h-6.2Zm7.5 4c0 2.5 1.7 4.3 4.3 4.3 1.3 0 2.4-.4 3.3-1.4l-1-1a3 3 0 0 1-2.2 1c-1.5 0-2.6-1-2.8-2.4h6.1l.1-1c0-2-1.4-3.7-3.7-3.7-2.4 0-4.1 1.9-4.1 4.3Zm4.1-2.8c1.2 0 2.1.8 2.2 2h-4.6c.2-1.2 1.2-2 2.4-2Zm9 7c1.1 0 2.3-.5 2.7-1.3v1.2h1.5v-11.3h-1.5v4.3a3.3 3.3 0 0 0-2.7-1.3c-2.2 0-3.9 1.8-3.9 4.3 0 2.4 1.7 4.2 3.9 4.2Zm.2-7c1.4 0 2.5 1.2 2.5 2.9 0 1.6-1.1 2.8-2.5 2.8-1.3 0-2.5-1.2-2.5-2.8 0-1.7 1.2-2.9 2.5-2.9Zm9.9-1.2v1.3h1.1v6.8h1.6v-6.8h1.9v-1.3h-2v-.7c0-1 .8-1.3 1.5-1.3.3 0 .6 0 .9.2v-1.4l-1.1-.2c-1.6 0-2.8 1-2.8 2.7v.7H177Zm6.2 0v8.1h1.6v-8.1H183Zm-.2-2.4c0 .5.5 1 1 1s1-.5 1-1c0-.6-.5-1-1-1a1 1 0 0 0-1 1Zm4.4 10.5h1.6v-4.1c0-1.2.6-2.8 2.2-2.8 1 0 2 .7 2 2v4.9h1.5v-4.9c0-2.1-1.3-3.4-3.1-3.4-1.4 0-2.2.6-2.7 1.4V526h-1.5v8.1Zm9.2-2.1c0 1.3 1 2.3 2.6 2.3a3 3 0 0 0 2.6-1.4v1.2h1.5v-5.2c0-1.9-1.3-3-3.3-3a4 4 0 0 0-3.2 1.3l.8 1a3 3 0 0 1 2.2-1c1.2 0 2 .6 2 1.7v.1l-2.6.5c-1.7.4-2.6 1.2-2.6 2.5Zm1.5-.1c0-.7.4-1 1.4-1.2l2.3-.5v.6c0 1-1 2.2-2.4 2.2-.8 0-1.3-.5-1.3-1.1Zm7.7 2.2h1.5v-4.1c0-1.2.6-2.8 2.3-2.8 1 0 1.9.7 1.9 2v4.9h1.6v-4.9c0-2.1-1.3-3.4-3.2-3.4-1.3 0-2.1.6-2.6 1.4V526h-1.5v8.1Zm9.1-4c0 2.3 2 4.2 4.3 4.2a4 4 0 0 0 3.3-1.7l-1-1c-.5.8-1.3 1.3-2.4 1.3-1.5 0-2.6-1.3-2.6-2.8 0-1.6 1.1-2.8 2.7-2.8 1 0 1.7.5 2.2 1.2l1-1c-.7-1-1.8-1.7-3.2-1.7a4.2 4.2 0 0 0-4.3 4.2Zm9.4-4.1v8.1h1.5v-8.1h-1.5Zm-.2-2.4c0 .5.4 1 1 1 .5 0 1-.5 1-1 0-.6-.5-1-1-1a1 1 0 0 0-1 1Zm3.7 8.4c0 1.3 1.2 2.3 2.7 2.3a3 3 0 0 0 2.6-1.4v1.2h1.4v-5.2c0-1.9-1.2-3-3.3-3a4 4 0 0 0-3.2 1.3l.8 1a3 3 0 0 1 2.3-1c1.2 0 1.9.6 1.9 1.7v.1l-2.5.5c-1.8.4-2.7 1.2-2.7 2.5Zm1.6-.1c0-.7.4-1 1.3-1.2l2.4-.5v.6c0 1-1 2.2-2.4 2.2-.8 0-1.3-.5-1.3-1.1Zm7.5-9.1v9.3c0 1.7 1 2.2 2.2 2.2l.7-.1v-1.4h-.6c-.6 0-.7-.4-.7-1v-9h-1.6Zm7.9 9.7a3.5 3.5 0 0 0 3.2 1.8c1.7 0 3-1 3-2.3 0-1.4-1-2-2.7-2.7-1.3-.4-1.7-.7-1.7-1.2s.5-1 1.3-1 1.4.5 1.8 1.1l1-.8a3 3 0 0 0-2.7-1.6c-1.7 0-3 1.1-3 2.3 0 1.4 1 2 2.6 2.6 1.5.4 1.8.7 1.8 1.3 0 .5-.5 1-1.5 1-.9 0-1.5-.6-2-1.3l-1.1.8Zm7.6-2.4c0 2.4 1.7 4.2 4.3 4.2 1.3 0 2.3-.4 3.3-1.4l-1-1a3 3 0 0 1-2.3 1c-1.4 0-2.6-1-2.7-2.4h6.1v-1c0-2-1.3-3.7-3.7-3.7-2.4 0-4 1.9-4 4.3Zm4-2.9c1.2 0 2.2.8 2.3 2h-4.7c.3-1.2 1.2-2 2.5-2Zm5.8-1.2v8.1h1.6v-4c0-1.7 1-2.7 2.4-2.7h.3v-1.5h-.5c-1 0-1.9.5-2.3 1.5V526h-1.5Zm4.9 0 3.3 8.1h1.4l3.3-8.1h-1.6l-2.4 6-2.3-6H267Zm9.5 0v8.1h1.6v-8.1h-1.6Zm-.2-2.4c0 .5.5 1 1 1s1-.5 1-1c0-.6-.5-1-1-1a1 1 0 0 0-1 1Zm3.8 6.4c0 2.4 1.9 4.3 4.2 4.3a4 4 0 0 0 3.4-1.7l-1-1c-.6.8-1.4 1.3-2.4 1.3-1.5 0-2.6-1.3-2.6-2.8 0-1.6 1-2.8 2.6-2.8 1 0 1.7.5 2.2 1.2l1-1c-.7-1-1.8-1.7-3.2-1.7a4.2 4.2 0 0 0-4.2 4.2Zm8.6 0c0 2.5 1.8 4.3 4.4 4.3 1.3 0 2.3-.4 3.2-1.4l-1-1a3 3 0 0 1-2.2 1c-1.4 0-2.6-1-2.7-2.4h6l.2-1c0-2-1.5-3.7-3.8-3.7-2.4 0-4 1.9-4 4.3Zm4.1-2.8c1.2 0 2.1.8 2.2 2h-4.6c.2-1.2 1.2-2 2.4-2Zm5 5.3a3.5 3.5 0 0 0 3.2 1.8c1.8 0 3-1 3-2.3 0-1.4-.9-2-2.7-2.7-1.2-.4-1.6-.7-1.6-1.2s.5-1 1.3-1 1.3.5 1.7 1.1l1.1-.8a3 3 0 0 0-2.8-1.6c-1.6 0-2.9 1.1-2.9 2.3 0 1.4 1 2 2.6 2.6 1.5.4 1.8.7 1.8 1.3 0 .5-.6 1-1.5 1s-1.5-.6-2-1.3l-1.2.8ZM90.1 577v-4.5h2.4l2.2 4.5h1.8l-2.3-4.6c1.4-.5 2.4-1.6 2.4-3.3 0-2-1.6-3.4-3.5-3.4h-4.5V577H90Zm0-9.9H93c1 0 2 .8 2 2 0 1.3-1 2-2 2h-2.8v-4ZM98 573c0 2.4 1.7 4.2 4.3 4.2 1.3 0 2.4-.4 3.3-1.4l-1-1a3 3 0 0 1-2.2 1c-1.4 0-2.6-1-2.8-2.4h6.2v-1c0-2-1.4-3.7-3.7-3.7-2.4 0-4.1 1.9-4.1 4.3Zm4.1-2.9c1.2 0 2.1.8 2.2 2h-4.6c.2-1.2 1.2-2 2.4-2Zm5.7-4.4v9.3c0 1.7 1 2.2 2 2.2l.8-.1v-1.4h-.5c-.7 0-.8-.4-.8-1v-9h-1.5Zm8 11.5c2.4 0 4.2-1.9 4.2-4.2 0-2.4-1.8-4.3-4.2-4.3a4.1 4.1 0 0 0-4.2 4.3c0 2.3 1.8 4.2 4.2 4.2Zm-2.6-4.2c0-1.6 1-2.8 2.6-2.8s2.6 1.2 2.6 2.8c0 1.5-1 2.7-2.6 2.7-1.5 0-2.6-1.2-2.6-2.7Zm8.2 0c0 2.3 1.9 4.2 4.2 4.2a4 4 0 0 0 3.4-1.7l-1-1c-.6.8-1.4 1.3-2.4 1.3-1.5 0-2.6-1.3-2.6-2.8 0-1.6 1.1-2.8 2.6-2.8 1 0 1.7.5 2.2 1.2l1-1c-.7-1-1.7-1.7-3.2-1.7a4.2 4.2 0 0 0-4.2 4.2Zm8.7 1.9c0 1.3 1.1 2.3 2.6 2.3a3 3 0 0 0 2.7-1.4v1.2h1.4v-5.2c0-1.9-1.3-3-3.3-3a4 4 0 0 0-3.2 1.3l.8 1a3 3 0 0 1 2.3-1c1.1 0 1.9.6 1.9 1.7v.1l-2.6.5c-1.7.4-2.6 1.2-2.6 2.5Zm1.5-.1c0-.7.4-1 1.4-1.2l2.3-.5v.6c0 1-1 2.2-2.3 2.2-.8 0-1.4-.5-1.4-1.1Zm6.7-5.9v1.3h1.3v4.4c0 1.6 1 2.6 2.5 2.6.5 0 1-.1 1.3-.3v-1.4a2 2 0 0 1-1 .3c-.9 0-1.3-.5-1.3-1.4v-4.2h2v-1.3h-2v-2.2h-1.5v2.2h-1.3Zm6.8 0v8.1h1.6v-8.1H145Zm-.2-2.4c0 .5.5 1 1 1s1-.5 1-1c0-.6-.5-1-1-1a1 1 0 0 0-1 1Zm8 10.7c2.4 0 4.2-1.9 4.2-4.2 0-2.4-1.8-4.3-4.2-4.3a4.1 4.1 0 0 0-4.2 4.3c0 2.3 1.8 4.2 4.2 4.2Zm-2.6-4.2c0-1.6 1-2.8 2.6-2.8 1.5 0 2.6 1.2 2.6 2.8 0 1.5-1 2.7-2.6 2.7-1.5 0-2.6-1.2-2.6-2.7Zm8.8 4h1.6v-4.1c0-1.2.6-2.8 2.3-2.8 1 0 1.9.7 1.9 2v4.9h1.5v-4.9c0-2.1-1.3-3.4-3.1-3.4-1.4 0-2.2.6-2.6 1.4V569H159v8.1Zm13.1-4c0 2.3 2 4.2 4.3 4.2a4 4 0 0 0 3.3-1.7l-1-1c-.5.8-1.3 1.3-2.4 1.3-1.5 0-2.6-1.3-2.6-2.8 0-1.6 1.1-2.8 2.6-2.8 1 0 1.8.5 2.3 1.2l1-1c-.7-1-1.8-1.7-3.2-1.7a4.2 4.2 0 0 0-4.3 4.2Zm12.9 4.2c2.4 0 4.2-1.9 4.2-4.2 0-2.4-1.8-4.3-4.2-4.3a4.1 4.1 0 0 0-4.2 4.3c0 2.3 1.8 4.2 4.2 4.2Zm-2.6-4.2c0-1.6 1-2.8 2.6-2.8 1.5 0 2.6 1.2 2.6 2.8 0 1.5-1 2.7-2.6 2.7s-2.6-1.2-2.6-2.7Zm8.8 4h1.6v-4.1c0-1.2.5-2.8 2.2-2.8 1 0 2 .7 2 2v4.9h1.5v-4.1c0-1.2.6-2.8 2.3-2.8 1 0 1.9.7 1.9 2v4.9h1.5v-4.9c0-2.1-1.3-3.4-3.1-3.4-1.4 0-2.2.5-3 1.7a3 3 0 0 0-2.8-1.7c-1.3 0-2.1.6-2.6 1.4V569h-1.5v8.1Zm15.5-8.1v11.3h1.6v-4.3c.5.7 1.6 1.3 2.7 1.3 2.1 0 3.8-1.8 3.8-4.2 0-2.5-1.7-4.3-3.8-4.3-1.2 0-2.3.6-2.8 1.4v-1.2h-1.5Zm1.5 4c0-1.6 1.2-2.8 2.5-2.8s2.5 1.2 2.5 2.9c0 1.6-1.2 2.8-2.5 2.8s-2.5-1.2-2.5-2.8Zm8 0c0 2.5 1.8 4.3 4.4 4.3 1.3 0 2.3-.4 3.2-1.4l-1-1a3 3 0 0 1-2.2 1c-1.4 0-2.6-1-2.7-2.4h6l.2-1c0-2-1.5-3.7-3.8-3.7-2.4 0-4 1.9-4 4.3Zm4.1-2.8c1.2 0 2.1.8 2.2 2H218c.2-1.2 1.2-2 2.4-2Zm5.8 6.9h1.5v-4.1c0-1.2.6-2.8 2.3-2.8 1 0 2 .7 2 2v4.9h1.5v-4.9c0-2.1-1.3-3.4-3.2-3.4-1.3 0-2.1.6-2.6 1.4V569h-1.5v8.1Zm9-1.6a3.5 3.5 0 0 0 3.2 1.8c1.8 0 3-1 3-2.3 0-1.4-.9-2-2.7-2.7-1.2-.4-1.6-.7-1.6-1.2s.5-1 1.3-1 1.3.5 1.7 1.1l1.2-.8a3 3 0 0 0-2.8-1.6c-1.7 0-3 1.1-3 2.3 0 1.4 1 2 2.6 2.6 1.5.4 1.8.7 1.8 1.3 0 .5-.6 1-1.5 1s-1.5-.6-2-1.3l-1.2.8Zm7.6-.5c0 1.3 1.1 2.3 2.6 2.3a3 3 0 0 0 2.7-1.4v1.2h1.4v-5.2c0-1.9-1.3-3-3.3-3a4 4 0 0 0-3.2 1.3l.8 1a3 3 0 0 1 2.3-1c1.1 0 1.8.6 1.8 1.7v.1l-2.5.5c-1.7.4-2.6 1.2-2.6 2.5Zm1.5-.1c0-.7.4-1 1.4-1.2l2.3-.5v.6c0 1-1 2.2-2.3 2.2-.8 0-1.4-.5-1.4-1.1Zm6.7-5.9v1.3h1.2v4.4c0 1.6 1 2.6 2.6 2.6.5 0 1-.1 1.3-.3v-1.4a2 2 0 0 1-1 .3c-.9 0-1.3-.5-1.3-1.4v-4.2h2v-1.3h-2v-2.2h-1.5v2.2h-1.3Zm6.8 0v8.1h1.6v-8.1h-1.6Zm-.2-2.4c0 .5.5 1 1 1s1-.5 1-1c0-.6-.5-1-1-1a1 1 0 0 0-1 1Zm8 10.7c2.4 0 4.2-1.9 4.2-4.2 0-2.4-1.8-4.3-4.2-4.3a4.1 4.1 0 0 0-4.2 4.3c0 2.3 1.8 4.2 4.2 4.2Zm-2.6-4.2c0-1.6 1-2.8 2.6-2.8 1.5 0 2.6 1.2 2.6 2.8 0 1.5-1 2.7-2.6 2.7-1.5 0-2.6-1.2-2.6-2.7Zm8.8 4h1.6v-4.1c0-1.2.6-2.8 2.2-2.8 1 0 2 .7 2 2v4.9h1.5v-4.9c0-2.1-1.3-3.4-3.1-3.4-1.4 0-2.2.6-2.7 1.4V569h-1.5v8.1ZM90.6 620h1.6l2.9-9 2.8 9h1.7l3.4-11.3h-1.7l-2.6 9-2.8-9h-1.7l-2.8 9-2.6-9h-1.6l3.4 11.3Zm12.8-2.1c0 1.3 1 2.3 2.6 2.3a3 3 0 0 0 2.6-1.4v1.2h1.5v-5.2c0-1.9-1.3-3-3.3-3a4 4 0 0 0-3.2 1.3l.8 1a3 3 0 0 1 2.2-1c1.2 0 2 .6 2 1.7v.1l-2.6.5c-1.7.4-2.6 1.2-2.6 2.5Zm1.5-.1c0-.7.4-1 1.4-1.2l2.3-.5v.6c0 1-1 2.2-2.4 2.2-.8 0-1.3-.5-1.3-1.1Zm7.7-5.9v8.1h1.5v-4c0-1.7 1-2.7 2.5-2.7h.3v-1.5h-.5c-1 0-2 .5-2.3 1.5V612h-1.5Zm9 8.3c1.1 0 2.3-.6 2.7-1.4v1.2h1.5v-11.3h-1.5v4.3a3.3 3.3 0 0 0-2.7-1.3c-2.2 0-3.8 1.8-3.8 4.3 0 2.4 1.6 4.2 3.8 4.2Zm.2-7c1.4 0 2.6 1 2.6 2.8 0 1.6-1.2 2.8-2.6 2.8-1.3 0-2.5-1.2-2.5-2.8 0-1.7 1.2-2.9 2.5-2.9Zm6.7-1.3v8.1h1.5v-4c0-1.7 1-2.7 2.5-2.7h.3v-1.5h-.5c-1 0-2 .5-2.3 1.5V612h-1.5Zm9.3 8.3c2.4 0 4.2-1.9 4.2-4.2 0-2.4-1.8-4.3-4.2-4.3a4.1 4.1 0 0 0-4.2 4.3c0 2.3 1.8 4.2 4.2 4.2Zm-2.6-4.2c0-1.6 1-2.8 2.6-2.8 1.5 0 2.6 1.2 2.6 2.8 0 1.5-1 2.7-2.6 2.7-1.5 0-2.6-1.2-2.6-2.7Zm8.8-7.3V620h1.5v-1.2c.5.8 1.6 1.4 2.8 1.4 2.1 0 3.8-1.8 3.8-4.2 0-2.5-1.7-4.3-3.8-4.3-1.2 0-2.3.6-2.7 1.3v-4.3H144Zm4 4.4c1.3 0 2.5 1.2 2.5 2.9 0 1.6-1.2 2.8-2.5 2.8s-2.5-1.2-2.5-2.8c0-1.7 1.2-2.9 2.5-2.9Zm5.5 2.9c0 2.4 1.8 4.2 4.4 4.2 1.2 0 2.3-.4 3.2-1.4l-1-1a3 3 0 0 1-2.2 1c-1.4 0-2.6-1-2.8-2.4h6.2v-1c0-2-1.4-3.7-3.7-3.7-2.4 0-4 1.9-4 4.3Zm4.1-2.9c1.2 0 2.1.8 2.2 2h-4.6c.2-1.2 1.2-2 2.4-2Zm9 5.3a3.5 3.5 0 0 0 3.1 1.8c1.8 0 3-1 3-2.3 0-1.4-.9-2-2.6-2.7-1.3-.4-1.7-.7-1.7-1.2s.5-1 1.3-1 1.4.5 1.8 1.1l1-.8a3 3 0 0 0-2.7-1.6c-1.7 0-3 1.1-3 2.3 0 1.4 1 2 2.6 2.6 1.5.4 1.8.7 1.8 1.3 0 .5-.5 1-1.5 1-.9 0-1.5-.6-2-1.3l-1.1.8Zm7.3-6.5v1.3h1.2v4.4c0 1.6 1 2.6 2.5 2.6.6 0 1-.1 1.3-.3v-1.4a2 2 0 0 1-1 .3c-.8 0-1.2-.5-1.2-1.4v-4.2h2v-1.3h-2v-2.2h-1.5v2.2h-1.3Zm6.8 0v8.1h1.5v-8.1h-1.5Zm-.2-2.4c0 .5.4 1 1 1 .5 0 1-.5 1-1 0-.6-.5-1-1-1a1 1 0 0 0-1 1Zm4.4 2.4v11.3h1.5v-4.3c.5.7 1.6 1.3 2.7 1.3 2.2 0 3.9-1.8 3.9-4.2 0-2.5-1.7-4.3-3.9-4.3-1.1 0-2.2.6-2.7 1.4v-1.2h-1.5Zm1.4 4c0-1.6 1.2-2.8 2.6-2.8 1.3 0 2.5 1.2 2.5 2.9 0 1.6-1.2 2.8-2.5 2.8-1.4 0-2.6-1.2-2.6-2.8Zm8 0c0 2.5 1.8 4.3 4.4 4.3 1.3 0 2.4-.4 3.3-1.4l-1-1a3 3 0 0 1-2.3 1c-1.4 0-2.5-1-2.7-2.4h6.1l.1-1c0-2-1.4-3.7-3.7-3.7-2.5 0-4.1 1.9-4.1 4.3Zm4.2-2.8c1.2 0 2 .8 2.2 2h-4.6c.2-1.2 1.1-2 2.4-2Zm5.7 6.9h1.6v-4.1c0-1.2.6-2.8 2.3-2.8 1 0 1.9.7 1.9 2v4.9h1.5v-4.9c0-2.1-1.3-3.4-3.1-3.4-1.4 0-2.2.6-2.6 1.4V612h-1.6v8.1Zm13 .2c1.2 0 2.4-.6 2.8-1.4v1.2h1.5v-11.3H220v4.3a3.3 3.3 0 0 0-2.7-1.3c-2.2 0-3.9 1.8-3.9 4.3 0 2.4 1.7 4.2 3.9 4.2Zm.3-7c1.4 0 2.5 1 2.5 2.8 0 1.6-1.1 2.8-2.5 2.8-1.3 0-2.5-1.2-2.5-2.8 0-1.7 1.2-2.9 2.5-2.9ZM87.1 663h1.6l1.2-3h4.8l1.2 3h1.6l-4.4-11.3h-1.6L87 663Zm3.3-4.6 2-5 1.8 5h-3.8Zm7.8 3a3.5 3.5 0 0 0 3.2 1.8c1.7 0 3-1 3-2.3 0-1.4-1-2-2.7-2.7-1.3-.4-1.7-.7-1.7-1.2s.6-1 1.4-1c.8 0 1.3.5 1.7 1.1l1.1-.8a3 3 0 0 0-2.8-1.6c-1.7 0-2.9 1.1-2.9 2.3 0 1.4.9 2 2.5 2.6 1.5.4 1.9.7 1.9 1.3 0 .5-.6 1-1.5 1-1 0-1.6-.6-2-1.3l-1.2.8Zm7.5 0a3.5 3.5 0 0 0 3.1 1.8c1.8 0 3-1 3-2.3 0-1.4-.9-2-2.6-2.7-1.3-.4-1.7-.7-1.7-1.2s.5-1 1.3-1 1.4.5 1.8 1.1l1-.8a3 3 0 0 0-2.7-1.6c-1.7 0-3 1.1-3 2.3 0 1.4 1 2 2.6 2.6 1.5.4 1.8.7 1.8 1.3 0 .5-.5 1-1.5 1-.9 0-1.5-.6-2-1.3l-1.1.8Zm11.7 1.8c2.4 0 4.2-1.9 4.2-4.2 0-2.4-1.8-4.3-4.2-4.3a4.1 4.1 0 0 0-4.2 4.3c0 2.3 1.8 4.2 4.2 4.2Zm-2.6-4.2c0-1.6 1-2.8 2.6-2.8s2.6 1.2 2.6 2.8c0 1.5-1 2.7-2.6 2.7-1.5 0-2.6-1.2-2.6-2.7Zm8.2 0c0 2.3 1.9 4.2 4.2 4.2a4 4 0 0 0 3.4-1.7l-1-1c-.6.8-1.4 1.3-2.4 1.3-1.5 0-2.6-1.3-2.6-2.8 0-1.6 1.1-2.8 2.6-2.8 1 0 1.8.5 2.2 1.2l1-1c-.6-1-1.7-1.7-3.2-1.7a4.2 4.2 0 0 0-4.2 4.2Zm9.4-4.1v8.1h1.5v-8.1h-1.5Zm-.2-2.4c0 .5.4 1 1 1 .5 0 1-.5 1-1 0-.6-.5-1-1-1a1 1 0 0 0-1 1Zm3.7 8.4c0 1.3 1.1 2.3 2.6 2.3a3 3 0 0 0 2.7-1.4v1.2h1.4v-5.2c0-1.9-1.3-3-3.3-3a4 4 0 0 0-3.2 1.3l.8 1a3 3 0 0 1 2.3-1c1.2 0 1.9.6 1.9 1.7v.1l-2.6.5c-1.7.4-2.6 1.2-2.6 2.5Zm1.5-.1c0-.7.4-1 1.4-1.2l2.3-.5v.6c0 1-1 2.2-2.3 2.2-.8 0-1.4-.5-1.4-1.1Zm6.8-5.9v1.3h1.2v4.4c0 1.6 1 2.6 2.5 2.6.6 0 1-.1 1.3-.3v-1.4a2 2 0 0 1-1 .3c-.9 0-1.3-.5-1.3-1.4v-4.2h2.1v-1.3h-2v-2.2h-1.6v2.2h-1.2Zm6.7 0v8.1h1.6v-8.1h-1.6Zm-.2-2.4c0 .5.5 1 1 1s1-.5 1-1c0-.6-.5-1-1-1a1 1 0 0 0-1 1Zm8 10.7c2.4 0 4.2-1.9 4.2-4.2 0-2.4-1.8-4.3-4.2-4.3a4.1 4.1 0 0 0-4.2 4.3c0 2.3 1.8 4.2 4.2 4.2Zm-2.6-4.2c0-1.6 1-2.8 2.6-2.8 1.5 0 2.6 1.2 2.6 2.8 0 1.5-1 2.7-2.6 2.7-1.5 0-2.6-1.2-2.6-2.7Zm8.8 4h1.6v-4.1c0-1.2.6-2.8 2.3-2.8 1 0 1.9.7 1.9 2v4.9h1.5v-4.9c0-2.1-1.3-3.4-3.1-3.4-1.4 0-2.2.6-2.6 1.4V655h-1.6v8.1Zm13.8 0h1.5v-4.1c0-1.2.6-2.8 2.3-2.8 1 0 2 .7 2 2v4.9h1.5v-4.1c0-1.2.6-2.8 2.2-2.8 1 0 2 .7 2 2v4.9h1.5v-4.9c0-2.1-1.3-3.4-3.1-3.4-1.4 0-2.2.5-3 1.7a3 3 0 0 0-2.8-1.7c-1.3 0-2.1.6-2.6 1.4V655h-1.5v8.1Zm14.9-4c0 2.4 1.7 4.2 4.3 4.2 1.3 0 2.4-.4 3.3-1.4l-1-1a3 3 0 0 1-2.2 1c-1.4 0-2.6-1-2.8-2.4h6.2v-1c0-2-1.4-3.7-3.7-3.7-2.4 0-4.1 1.9-4.1 4.3Zm4.1-2.9c1.2 0 2.1.8 2.2 2h-4.6c.2-1.2 1.2-2 2.4-2Zm5.8 6.9h1.5v-4.1c0-1.2.6-2.8 2.3-2.8 1 0 1.9.7 1.9 2v4.9h1.5v-4.1c0-1.2.6-2.8 2.3-2.8 1 0 2 .7 2 2v4.9h1.5v-4.9c0-2.1-1.3-3.4-3.2-3.4-1.3 0-2.2.5-2.9 1.7a3 3 0 0 0-2.8-1.7c-1.3 0-2.2.6-2.6 1.4V655h-1.5v8.1Zm15.5-11.3V663h1.5v-1.2c.4.8 1.6 1.4 2.7 1.4 2.2 0 3.8-1.8 3.8-4.2 0-2.5-1.6-4.3-3.8-4.3-1.1 0-2.2.6-2.7 1.3v-4.3H219Zm4 4.4c1.3 0 2.5 1.2 2.5 2.9 0 1.6-1.2 2.8-2.5 2.8-1.4 0-2.6-1.2-2.6-2.8 0-1.7 1.2-2.9 2.6-2.9Zm5.5 2.9c0 2.4 1.7 4.2 4.3 4.2 1.3 0 2.4-.4 3.3-1.4l-1-1a3 3 0 0 1-2.3 1c-1.4 0-2.6-1-2.7-2.4h6.1l.1-1c0-2-1.4-3.7-3.7-3.7-2.5 0-4.1 1.9-4.1 4.3Zm4-2.9c1.3 0 2.2.8 2.3 2H230c.3-1.2 1.2-2 2.5-2Zm5.8-1.2v8.1h1.6v-4c0-1.7 1-2.7 2.4-2.7h.4v-1.5h-.5c-1.1 0-2 .5-2.4 1.5V655h-1.5Zm5.2 6.5a3.5 3.5 0 0 0 3.2 1.8c1.7 0 3-1 3-2.3 0-1.4-1-2-2.7-2.7-1.3-.4-1.7-.7-1.7-1.2s.6-1 1.3-1c.8 0 1.4.5 1.8 1.1l1.1-.8a3 3 0 0 0-2.8-1.6c-1.7 0-2.9 1.1-2.9 2.3 0 1.4.9 2 2.5 2.6 1.5.4 1.9.7 1.9 1.3 0 .5-.6 1-1.5 1-1 0-1.6-.6-2-1.3l-1.2.8Zm8.2-9.7V663h1.6v-4.3c0-1.2.5-2.6 2.2-2.6 1 0 2 .7 2 2v4.9h1.5v-4.9c0-2.1-1.4-3.4-3.2-3.4a3 3 0 0 0-2.5 1.3v-4.3h-1.6Zm9.8 3.2v8.1h1.6v-8.1h-1.6Zm-.2-2.4c0 .5.5 1 1 1s1-.5 1-1c0-.6-.5-1-1-1a1 1 0 0 0-1 1Zm4.4 2.4v11.3h1.6v-4.3c.5.7 1.6 1.3 2.6 1.3 2.2 0 3.9-1.8 3.9-4.2 0-2.5-1.7-4.3-3.9-4.3-1 0-2.2.6-2.7 1.4v-1.2h-1.5Zm1.5 4c0-1.6 1.1-2.8 2.5-2.8 1.3 0 2.5 1.2 2.5 2.9 0 1.6-1.2 2.8-2.5 2.8-1.4 0-2.5-1.2-2.5-2.8Zm7.9 2.5a3.5 3.5 0 0 0 3.2 1.8c1.7 0 3-1 3-2.3 0-1.4-1-2-2.7-2.7-1.3-.4-1.7-.7-1.7-1.2s.5-1 1.3-1 1.4.5 1.8 1.1l1-.8a3 3 0 0 0-2.7-1.6c-1.7 0-2.9 1.1-2.9 2.3 0 1.4.9 2 2.5 2.6 1.5.4 1.8.7 1.8 1.3 0 .5-.5 1-1.5 1-.9 0-1.5-.6-2-1.3l-1.1.8Zm-187.3 39a5.8 5.8 0 0 0 10.5 3.3l-1.2-1a4.1 4.1 0 0 1-3.5 2 4.1 4.1 0 0 1-4.2-4.3c0-2.5 1.8-4.3 4.1-4.3 1.6 0 2.8.8 3.5 1.8l1.2-1a5.6 5.6 0 0 0-4.7-2.4 5.7 5.7 0 0 0-5.7 5.9Zm11.6 3.5c0 1.3 1.1 2.3 2.6 2.3a3 3 0 0 0 2.7-1.4v1.2h1.4v-5.2c0-1.9-1.3-3-3.3-3a4 4 0 0 0-3.2 1.3l.8 1a3 3 0 0 1 2.3-1c1.1 0 1.8.6 1.8 1.7v.1l-2.5.5c-1.7.4-2.6 1.2-2.6 2.5Zm1.5-.1c0-.7.4-1 1.4-1.2l2.3-.5v.6c0 1-1 2.2-2.3 2.2-.8 0-1.4-.5-1.4-1.1Zm7.7-5.9v8.1h1.5v-4c0-1.7 1-2.7 2.5-2.7h.3v-1.5h-.5c-1 0-1.9.5-2.3 1.5V698h-1.5Zm5.1 4c0 2.5 1.8 4.3 4.4 4.3 1.3 0 2.3-.4 3.2-1.4l-1-1a3 3 0 0 1-2.2 1c-1.4 0-2.6-1-2.7-2.4h6l.2-1c0-2-1.4-3.7-3.8-3.7s-4 1.9-4 4.3Zm4.1-2.8c1.2 0 2.1.8 2.3 2h-4.7c.3-1.2 1.2-2 2.4-2Zm5-1.2v1.3h1.1v6.8h1.6v-6.8h1.9v-1.3h-2v-.7c0-1 .8-1.3 1.5-1.3.3 0 .6 0 .9.2v-1.4l-1.1-.2c-1.6 0-2.8 1-2.8 2.7v.7h-1.1Zm9.2 8.3c1.4 0 2.2-.6 2.6-1.4v1.2h1.6v-8.1h-1.6v4.1c0 1.2-.6 2.8-2.3 2.8-1 0-1.9-.7-1.9-2v-4.9H129v4.9c0 2.1 1.3 3.4 3.1 3.4Zm6.7-11.5v9.3c0 1.7 1 2.2 2.1 2.2l.8-.1v-1.4h-.6c-.6 0-.7-.4-.7-1v-9h-1.6Zm4.6 0v9.3c0 1.7 1 2.2 2 2.2l.8-.1v-1.4h-.5c-.6 0-.8-.4-.8-1v-9h-1.5Zm6.6 11.2-.4.9c-.3.9-.7 1.3-1.4 1.3-.2 0-.6 0-1-.3v1.4c.4.2.8.2 1.1.2 1.5 0 2.1-.9 2.6-2l3.8-9.5h-1.7l-2.3 6.1-2.4-6.1h-1.7l3.4 8Zm9.8.1h1.6v-4.1c0-1.2.6-2.8 2.2-2.8 1 0 2 .7 2 2v4.9h1.5v-4.9c0-2.1-1.3-3.4-3.1-3.4-1.4 0-2.2.6-2.7 1.4V698h-1.5v8.1Zm9.2-4c0 2.4 1.8 4.2 4.3 4.2 1.3 0 2.4-.4 3.3-1.4l-1-1a3 3 0 0 1-2.2 1c-1.4 0-2.6-1-2.8-2.4h6.2v-1c0-2-1.4-3.7-3.7-3.7-2.4 0-4 1.9-4 4.3Zm4.1-2.9c1.2 0 2.1.8 2.2 2h-4.6c.2-1.2 1.2-2 2.4-2Zm5 8c0 1.5 1.4 2.3 3.6 2.3 2.5 0 4-1.1 4-2.5 0-1.3-1-2.2-2.6-2.2h-2c-.4 0-.7-.3-.7-.6s.1-.4.3-.6l.8.1c1.8 0 3.3-1.3 3.3-3 0-.5-.2-1-.4-1.4h1.3v-1.3h-3l-1.2-.2c-1.8 0-3.2 1.3-3.2 3 0 1 .5 1.8 1.3 2.4-.4.3-.7.7-.7 1.2 0 .4.2.8.5 1-.7.4-1.3 1-1.3 1.8Zm3.4-8c1 0 1.8.7 1.8 1.6 0 .9-.8 1.6-1.8 1.6s-1.7-.7-1.7-1.6c0-1 .8-1.6 1.7-1.6Zm-1.9 7.9c0-.6.6-.9 1-1h2.3c.8 0 1.3.3 1.3 1 0 .6-.8 1-2.4 1-1.3 0-2.2-.4-2.2-1Zm11.3-.8c2.4 0 4.2-1.9 4.2-4.2 0-2.4-1.8-4.3-4.2-4.3a4.1 4.1 0 0 0-4.2 4.3c0 2.3 1.8 4.2 4.2 4.2Zm-2.6-4.2c0-1.6 1.1-2.8 2.6-2.8 1.6 0 2.6 1.2 2.6 2.8 0 1.5-1 2.7-2.6 2.7-1.5 0-2.6-1.2-2.6-2.7Zm7.9-4.1v1.3h1.2v4.4c0 1.6 1 2.6 2.5 2.6.6 0 1-.1 1.3-.3v-1.4a2 2 0 0 1-1 .3c-.8 0-1.3-.5-1.3-1.4v-4.2h2.1v-1.3h-2v-2.2h-1.6v2.2h-1.2Zm6.8 0v8.1h1.5v-8.1H203Zm-.2-2.4c0 .5.4 1 1 1 .5 0 1-.5 1-1 0-.6-.5-1-1-1a1 1 0 0 0-1 1Zm3.7 8.4c0 1.3 1.1 2.3 2.6 2.3a3 3 0 0 0 2.7-1.4v1.2h1.4v-5.2c0-1.9-1.3-3-3.3-3a4 4 0 0 0-3.2 1.3l.8 1a3 3 0 0 1 2.3-1c1.2 0 1.9.6 1.9 1.7v.1l-2.6.5c-1.7.4-2.6 1.2-2.6 2.5Zm1.5-.1c0-.7.4-1 1.4-1.2l2.3-.5v.6c0 1-1 2.2-2.3 2.2-.8 0-1.4-.5-1.4-1.1Zm6.8-5.9v1.3h1.2v4.4c0 1.6 1 2.6 2.5 2.6.6 0 1-.1 1.3-.3v-1.4a2 2 0 0 1-1 .3c-.9 0-1.3-.5-1.3-1.4v-4.2h2.1v-1.3h-2v-2.2h-1.6v2.2h-1.2Zm6 4c0 2.5 1.7 4.3 4.3 4.3 1.3 0 2.4-.4 3.3-1.4l-1-1a3 3 0 0 1-2.2 1c-1.4 0-2.6-1-2.8-2.4h6.2v-1c0-2-1.4-3.7-3.7-3.7-2.4 0-4.1 1.9-4.1 4.3Zm4.1-2.8c1.2 0 2.1.8 2.2 2h-4.6c.2-1.2 1.2-2 2.4-2Zm9 7c1.1 0 2.3-.5 2.7-1.3v1.2h1.5v-11.3h-1.5v4.3a3.3 3.3 0 0 0-2.7-1.3c-2.2 0-3.8 1.8-3.8 4.3 0 2.4 1.6 4.2 3.8 4.2Zm.3-7c1.3 0 2.5 1.2 2.5 2.9 0 1.6-1.2 2.8-2.5 2.8-1.4 0-2.6-1.2-2.6-2.8 0-1.7 1.2-2.9 2.6-2.9Zm9.8 5.3a3.5 3.5 0 0 0 3.1 1.8c1.8 0 3-1 3-2.3 0-1.4-.9-2-2.6-2.7-1.3-.4-1.7-.7-1.7-1.2s.5-1 1.3-1 1.4.5 1.8 1.1l1-.8a3 3 0 0 0-2.7-1.6c-1.7 0-3 1.1-3 2.3 0 1.4 1 2 2.6 2.6 1.5.4 1.8.7 1.8 1.3 0 .5-.5 1-1.5 1-.9 0-1.5-.6-2-1.3l-1.1.8Zm7.5-2.4c0 2.4 1.8 4.2 4.4 4.2 1.3 0 2.3-.4 3.2-1.4l-1-1a3 3 0 0 1-2.2 1c-1.4 0-2.6-1-2.7-2.4h6.1v-1c0-2-1.3-3.7-3.7-3.7-2.4 0-4 1.9-4 4.3Zm4.2-2.9c1.1 0 2 .8 2.2 2H253c.3-1.2 1.2-2 2.5-2Zm4.4-1.2 3.3 8.1h1.5l3.3-8.1h-1.7l-2.3 6-2.4-6H260Zm8.8 4c0 2.5 1.8 4.3 4.3 4.3 1.3 0 2.4-.4 3.3-1.4l-1-1a3 3 0 0 1-2.2 1c-1.4 0-2.6-1-2.8-2.4h6.2v-1c0-2-1.4-3.7-3.7-3.7-2.4 0-4 1.9-4 4.3Zm4.1-2.8c1.2 0 2.1.8 2.2 2h-4.6c.2-1.2 1.2-2 2.4-2Zm5.8-1.2v8.1h1.5v-4c0-1.7 1-2.7 2.5-2.7h.3v-1.5h-.5c-1 0-2 .5-2.3 1.5V698h-1.5Zm5.2 6c0 1.3 1.1 2.3 2.6 2.3a3 3 0 0 0 2.7-1.4v1.2h1.4v-5.2c0-1.9-1.3-3-3.3-3a4 4 0 0 0-3.2 1.3l.8 1a3 3 0 0 1 2.3-1c1.2 0 1.9.6 1.9 1.7v.1l-2.6.5c-1.7.4-2.6 1.2-2.6 2.5Zm1.5-.1c0-.7.4-1 1.4-1.2l2.3-.5v.6c0 1-1 2.2-2.3 2.2-.8 0-1.4-.5-1.4-1.1Zm7.7 2.2h1.6v-4.1c0-1.2.6-2.8 2.2-2.8 1 0 2 .7 2 2v4.9h1.5v-4.9c0-2.1-1.3-3.4-3.1-3.4-1.4 0-2.2.6-2.7 1.4V698h-1.5v8.1Zm9.2-4c0 2.3 1.9 4.2 4.2 4.2a4 4 0 0 0 3.4-1.7l-1-1c-.6.8-1.4 1.3-2.4 1.3-1.5 0-2.6-1.3-2.6-2.8 0-1.6 1-2.8 2.6-2.8 1 0 1.7.5 2.2 1.2l1-1c-.7-1-1.8-1.7-3.2-1.7a4.2 4.2 0 0 0-4.2 4.2Zm8.6 0c0 2.4 1.8 4.2 4.4 4.2 1.3 0 2.3-.4 3.2-1.4l-1-1a3 3 0 0 1-2.2 1c-1.4 0-2.6-1-2.7-2.4h6l.2-1c0-2-1.5-3.7-3.8-3.7-2.4 0-4 1.9-4 4.3Zm4.1-2.9c1.2 0 2.1.8 2.2 2h-4.6c.2-1.2 1.2-2 2.4-2ZM88.3 716.9v11.3H90v-4.3c.5.7 1.6 1.3 2.7 1.3 2.1 0 3.8-1.8 3.8-4.2 0-2.5-1.7-4.3-3.8-4.3-1.2 0-2.3.6-2.8 1.4v-1.2h-1.5Zm1.5 4c0-1.6 1.2-2.8 2.5-2.8s2.5 1.2 2.5 2.9c0 1.6-1.2 2.8-2.5 2.8s-2.5-1.2-2.5-2.8Zm8 2c0 1.3 1.1 2.3 2.6 2.3a3 3 0 0 0 2.6-1.4v1.2h1.5v-5.2c0-1.9-1.3-3-3.3-3A4 4 0 0 0 98 718l.8 1a3 3 0 0 1 2.2-1c1.2 0 2 .6 2 1.7v.1l-2.6.5c-1.7.4-2.6 1.2-2.6 2.5Zm1.5-.1c0-.7.4-1 1.4-1.2l2.3-.5v.6c0 1-1 2.2-2.3 2.2-.8 0-1.4-.5-1.4-1.1Zm7-1.9c0 2.4 2 4.3 4.3 4.3a4 4 0 0 0 3.3-1.7l-1-1c-.5.8-1.3 1.3-2.4 1.3-1.5 0-2.6-1.3-2.6-2.8 0-1.6 1.1-2.8 2.7-2.8 1 0 1.7.5 2.2 1.2l1-1c-.7-1-1.8-1.7-3.2-1.7a4.2 4.2 0 0 0-4.3 4.2Zm11 4.1v-2.2l1.3-1.5 2.4 3.7h1.8l-3.2-4.7 2.9-3.4h-1.9l-3.4 3.9v-7.1h-1.5V725h1.5Zm6.1-2.1c0 1.3 1.1 2.3 2.6 2.3a3 3 0 0 0 2.7-1.4v1.2h1.4v-5.2c0-1.9-1.3-3-3.3-3a4 4 0 0 0-3.2 1.3l.8 1a3 3 0 0 1 2.3-1c1.2 0 1.9.6 1.9 1.7v.1l-2.6.5c-1.7.4-2.6 1.2-2.6 2.5Zm1.5-.1c0-.7.4-1 1.4-1.2l2.3-.5v.6c0 1-1 2.2-2.3 2.2-.8 0-1.4-.5-1.4-1.1Zm7 3.3c0 1.5 1.3 2.3 3.6 2.3 2.4 0 4-1.1 4-2.5 0-1.3-1-2.2-2.7-2.2h-2c-.4 0-.7-.3-.7-.6s.2-.4.3-.6l.9.1c1.8 0 3.2-1.3 3.2-3 0-.5-.1-1-.4-1.4h1.3v-1.3h-3l-1.1-.2c-1.8 0-3.3 1.3-3.3 3 0 1 .6 1.8 1.4 2.4-.5.3-.7.7-.7 1.2 0 .4.1.8.5 1-.8.4-1.4 1-1.4 1.8Zm3.4-8c1 0 1.7.7 1.7 1.6 0 .9-.8 1.6-1.7 1.6-1 0-1.7-.7-1.7-1.6 0-1 .7-1.6 1.7-1.6Zm-2 7.9c0-.6.7-.9 1-1h2.4c.7 0 1.3.3 1.3 1 0 .6-.9 1-2.5 1-1.2 0-2.1-.4-2.1-1Zm7.2-5c0 2.4 1.7 4.2 4.3 4.2 1.3 0 2.4-.4 3.3-1.4l-1-1a3 3 0 0 1-2.2 1c-1.5 0-2.6-1-2.8-2.4h6.1l.1-1c0-2-1.4-3.7-3.7-3.7-2.5 0-4.1 1.9-4.1 4.3Zm4.1-2.9c1.2 0 2 .8 2.2 2h-4.6c.2-1.2 1.1-2 2.4-2Zm17 3.2V720h-11.5v1.3h11.5Zm1.6 2.1a3.5 3.5 0 0 0 3.2 1.8c1.8 0 3-1 3-2.3 0-1.4-.9-2-2.6-2.7-1.3-.4-1.7-.7-1.7-1.2s.5-1 1.3-1 1.3.5 1.7 1.1l1.2-.8a3 3 0 0 0-2.8-1.6c-1.7 0-3 1.1-3 2.3 0 1.4 1 2 2.6 2.6 1.5.4 1.8.7 1.8 1.3 0 .5-.6 1-1.5 1s-1.5-.6-2-1.3l-1.2.8Zm11.8 1.8c2.4 0 4.2-1.9 4.2-4.2 0-2.4-1.8-4.3-4.2-4.3a4.1 4.1 0 0 0-4.2 4.3c0 2.3 1.8 4.2 4.2 4.2Zm-2.6-4.2c0-1.6 1-2.8 2.6-2.8s2.6 1.2 2.6 2.8c0 1.5-1 2.7-2.6 2.7-1.5 0-2.6-1.2-2.6-2.7Zm8.8 4h1.6v-4.1c0-1.2.6-2.8 2.3-2.8 1 0 1.9.7 1.9 2v4.9h1.5v-4.1c0-1.2.6-2.8 2.3-2.8 1 0 2 .7 2 2v4.9h1.5v-4.9c0-2.1-1.3-3.4-3.2-3.4-1.3 0-2.2.5-3 1.7a3 3 0 0 0-2.7-1.7c-1.3 0-2.2.6-2.6 1.4V717h-1.6v8.1Zm15-4c0 2.4 1.7 4.2 4.3 4.2 1.3 0 2.3-.4 3.3-1.4l-1-1a3 3 0 0 1-2.3 1c-1.4 0-2.6-1-2.7-2.4h6.1l.1-1c0-2-1.4-3.7-3.7-3.7-2.5 0-4.1 1.9-4.1 4.3Zm4-2.9c1.3 0 2.2.8 2.3 2h-4.7c.3-1.2 1.2-2 2.5-2Zm4.9-1.2v1.3h1.2v4.4c0 1.6 1 2.6 2.5 2.6.6 0 1-.1 1.3-.3v-1.4a2 2 0 0 1-1 .3c-.8 0-1.3-.5-1.3-1.4v-4.2h2.1v-1.3h-2v-2.2h-1.6v2.2h-1.2Zm6.8 0v8.1h1.5v-8.1H212Zm-.2-2.4c0 .5.4 1 1 1 .5 0 1-.5 1-1 0-.6-.5-1-1-1a1 1 0 0 0-1 1ZM216 725h1.5v-4.1c0-1.2.6-2.8 2.3-2.8 1 0 1.9.7 1.9 2v4.9h1.5v-4.1c0-1.2.6-2.8 2.3-2.8 1 0 2 .7 2 2v4.9h1.5v-4.9c0-2.1-1.3-3.4-3.2-3.4-1.3 0-2.1.5-2.9 1.7a3 3 0 0 0-2.8-1.7c-1.3 0-2.2.6-2.6 1.4V717H216v8.1Zm14.9-4c0 2.4 1.7 4.2 4.3 4.2 1.3 0 2.4-.4 3.3-1.4l-1-1a3 3 0 0 1-2.3 1c-1.4 0-2.6-1-2.7-2.4h6.1l.1-1c0-2-1.4-3.7-3.7-3.7-2.5 0-4.1 1.9-4.1 4.3Zm4-2.9c1.3 0 2.2.8 2.3 2h-4.7c.3-1.2 1.2-2 2.5-2Zm5 5.3a3.5 3.5 0 0 0 3.3 1.8c1.7 0 3-1 3-2.3 0-1.4-1-2-2.7-2.7-1.3-.4-1.7-.7-1.7-1.2s.5-1 1.3-1 1.4.5 1.8 1.1l1-.8a3 3 0 0 0-2.7-1.6c-1.7 0-2.9 1.1-2.9 2.3 0 1.4.9 2 2.5 2.6 1.5.4 1.8.7 1.8 1.3 0 .5-.5 1-1.5 1-.9 0-1.5-.6-2-1.3l-1.1.8Zm12.2-6.5v8.1h1.6v-4c0-1.7 1-2.7 2.4-2.7h.4v-1.5h-.5c-1.1 0-2 .5-2.4 1.5V717h-1.5Zm5.2 4c0 2.5 1.7 4.3 4.3 4.3 1.3 0 2.3-.4 3.3-1.4l-1-1a3 3 0 0 1-2.3 1c-1.4 0-2.6-1-2.7-2.4h6.1l.1-1c0-2-1.4-3.7-3.7-3.7-2.5 0-4.1 1.9-4.1 4.3Zm4-2.8c1.3 0 2.2.8 2.3 2H259c.3-1.2 1.2-2 2.5-2Zm5-1.2v1.3h1.1v6.8h1.6v-6.8h2v-1.3h-2v-.7c0-1 .7-1.3 1.4-1.3.4 0 .7 0 1 .2v-1.4l-1.2-.2c-1.6 0-2.8 1-2.8 2.7v.7h-1Zm5.4 4c0 2.5 1.8 4.3 4.3 4.3 1.3 0 2.4-.4 3.3-1.4l-1-1a3 3 0 0 1-2.2 1c-1.4 0-2.6-1-2.8-2.4h6.2v-1c0-2-1.4-3.7-3.7-3.7-2.4 0-4 1.9-4 4.3Zm4.1-2.8c1.2 0 2.1.8 2.2 2h-4.6c.2-1.2 1.2-2 2.4-2Zm5.8-1.2v8.1h1.5v-4c0-1.7 1-2.7 2.5-2.7h.3v-1.5h-.5c-1 0-2 .5-2.3 1.5V717h-1.5Zm6 0v8.1h1.6v-4c0-1.7 1-2.7 2.4-2.7h.4v-1.5h-.5c-1.1 0-2 .5-2.4 1.5V717h-1.5Zm5.2 4c0 2.5 1.7 4.3 4.3 4.3 1.3 0 2.3-.4 3.3-1.4l-1-1a3 3 0 0 1-2.3 1c-1.4 0-2.6-1-2.7-2.4h6.1l.1-1c0-2-1.4-3.7-3.7-3.7-2.5 0-4.1 1.9-4.1 4.3Zm4-2.8c1.3 0 2.2.8 2.3 2h-4.7c.3-1.2 1.2-2 2.5-2Zm9 7c1.2 0 2.3-.5 2.8-1.3v1.2h1.5v-11.3h-1.6v4.3a3.3 3.3 0 0 0-2.6-1.3c-2.2 0-3.9 1.8-3.9 4.3 0 2.4 1.7 4.2 3.9 4.2Zm.3-7c1.4 0 2.5 1.2 2.5 2.9 0 1.6-1.1 2.8-2.5 2.8-1.3 0-2.5-1.2-2.5-2.8 0-1.7 1.2-2.9 2.5-2.9Zm9.7-1.2v1.3h1.2v4.4c0 1.6 1 2.6 2.5 2.6.6 0 1-.1 1.3-.3v-1.4a2 2 0 0 1-1 .3c-.8 0-1.2-.5-1.2-1.4v-4.2h2v-1.3h-2v-2.2h-1.5v2.2h-1.3Zm10.2 8.3c2.4 0 4.2-1.9 4.2-4.2 0-2.4-1.8-4.3-4.2-4.3a4.1 4.1 0 0 0-4.1 4.3c0 2.3 1.7 4.2 4.1 4.2Zm-2.6-4.2c0-1.6 1.1-2.8 2.6-2.8 1.6 0 2.7 1.2 2.7 2.8 0 1.5-1.1 2.7-2.7 2.7-1.5 0-2.6-1.2-2.6-2.7Zm12.2 1.9c0 1.3 1 2.3 2.6 2.3a3 3 0 0 0 2.6-1.4v1.2h1.5v-5.2c0-1.9-1.3-3-3.3-3a4 4 0 0 0-3.2 1.3l.8 1a3 3 0 0 1 2.2-1c1.2 0 2 .6 2 1.7v.1l-2.6.5c-1.7.4-2.6 1.2-2.6 2.5Zm1.5-.1c0-.7.4-1 1.4-1.2l2.3-.5v.6c0 1-1 2.2-2.4 2.2-.8 0-1.3-.5-1.3-1.1Zm7 .6a3.5 3.5 0 0 0 3 1.8c1.8 0 3-1 3-2.3 0-1.4-.8-2-2.6-2.7-1.3-.4-1.7-.7-1.7-1.2s.6-1 1.4-1c.8 0 1.3.5 1.7 1.1l1.1-.8a3 3 0 0 0-2.8-1.6c-1.7 0-2.9 1.1-2.9 2.3 0 1.4 1 2 2.6 2.6 1.4.4 1.8.7 1.8 1.3 0 .5-.6 1-1.5 1-1 0-1.6-.6-2-1.3l-1.2.8Zm11.4-.5c0 1.3 1.1 2.3 2.6 2.3a3 3 0 0 0 2.7-1.4v1.2h1.4v-5.2c0-1.9-1.3-3-3.3-3a4 4 0 0 0-3.2 1.3l.8 1a3 3 0 0 1 2.3-1c1.1 0 1.8.6 1.8 1.7v.1l-2.5.5c-1.7.4-2.6 1.2-2.6 2.5Zm1.5-.1c0-.7.4-1 1.4-1.2l2.3-.5v.6c0 1-1 2.2-2.3 2.2-.8 0-1.4-.5-1.4-1.1ZM90.5 734.4c0 .5.4 1 1 1 .5 0 1-.5 1-1s-.4-.8-.8-1l.7-1.8h-.8l-1 2.3-.1.5Zm-2.8 0c0 .5.4 1 1 1 .5 0 1-.5 1-1s-.4-.8-.8-1l.7-1.8h-.8l-1 2.3-.1.5Zm5.2 10.7c0 1.5 1.4 2.3 3.7 2.3 2.4 0 4-1.1 4-2.5 0-1.3-1-2.2-2.7-2.2h-2c-.4 0-.7-.3-.7-.6s.2-.4.3-.6l.9.1c1.8 0 3.2-1.3 3.2-3 0-.5-.1-1-.4-1.4h1.3v-1.3h-3l-1.1-.2c-1.8 0-3.3 1.3-3.3 3 0 1 .6 1.8 1.4 2.4-.5.3-.7.7-.7 1.2 0 .4.1.8.5 1-.8.4-1.4 1-1.4 1.8Zm3.5-8c1 0 1.7.7 1.7 1.6 0 .9-.8 1.6-1.7 1.6-1 0-1.8-.7-1.8-1.6 0-1 .8-1.6 1.8-1.6Zm-2 7.9c0-.6.7-.9 1-1h2.4c.7 0 1.3.3 1.3 1 0 .6-.9 1-2.5 1-1.2 0-2.1-.4-2.1-1Zm11.4-.8c2.4 0 4.2-1.9 4.2-4.2 0-2.4-1.8-4.3-4.2-4.3a4.1 4.1 0 0 0-4.2 4.3c0 2.3 1.8 4.2 4.2 4.2Zm-2.6-4.2c0-1.6 1-2.8 2.6-2.8 1.5 0 2.6 1.2 2.6 2.8 0 1.5-1 2.7-2.6 2.7s-2.6-1.2-2.6-2.7Zm8.7-7.3v9.3c0 1.7 1 2.2 2.1 2.2l.7-.1v-1.4h-.5c-.6 0-.7-.4-.7-1v-9h-1.6Zm7.8 11.5c1 0 2.2-.6 2.7-1.4v1.2h1.5v-11.3h-1.6v4.3a3.3 3.3 0 0 0-2.6-1.3c-2.2 0-3.9 1.8-3.9 4.3 0 2.4 1.7 4.2 3.9 4.2Zm.2-7c1.4 0 2.5 1 2.5 2.8 0 1.6-1.1 2.8-2.5 2.8-1.3 0-2.5-1.2-2.5-2.8 0-1.7 1.2-2.9 2.5-2.9Zm6 2.8c0 2.4 1.8 4.2 4.3 4.2 1.3 0 2.4-.4 3.3-1.4l-1-1a3 3 0 0 1-2.2 1c-1.4 0-2.6-1-2.8-2.4h6.2v-1c0-2-1.4-3.7-3.7-3.7-2.4 0-4 1.9-4 4.3Zm4.1-2.9c1.2 0 2.1.8 2.2 2h-4.6c.2-1.2 1.2-2 2.4-2Zm5.8 6.9h1.5v-4.1c0-1.2.6-2.8 2.3-2.8 1 0 1.9.7 1.9 2v4.9h1.5v-4.9c0-2.1-1.3-3.4-3-3.4-1.4 0-2.3.6-2.7 1.4V736h-1.5v8.1Zm13.7-8.1v11.3h1.6v-4.3c.4.7 1.6 1.3 2.6 1.3 2.2 0 3.9-1.8 3.9-4.2 0-2.5-1.7-4.3-3.9-4.3-1 0-2.2.6-2.7 1.4v-1.2h-1.5Zm1.5 4c0-1.6 1.1-2.8 2.5-2.8 1.3 0 2.5 1.2 2.5 2.9 0 1.6-1.2 2.8-2.5 2.8-1.4 0-2.5-1.2-2.5-2.8Zm8 2c0 1.3 1 2.3 2.6 2.3a3 3 0 0 0 2.6-1.4v1.2h1.5v-5.2c0-1.9-1.3-3-3.3-3a4 4 0 0 0-3.2 1.3l.8 1a3 3 0 0 1 2.2-1c1.2 0 2 .6 2 1.7v.1l-2.6.5c-1.7.4-2.6 1.2-2.6 2.5Zm1.5-.1c0-.7.4-1 1.4-1.2l2.3-.5v.6c0 1-1 2.2-2.4 2.2-.8 0-1.3-.5-1.3-1.1Zm7.7-5.9v8.1h1.5v-4c0-1.7 1-2.7 2.5-2.7h.3v-1.5h-.5c-1 0-2 .5-2.3 1.5V736h-1.5Zm5.2 6c0 1.3 1.1 2.3 2.6 2.3a3 3 0 0 0 2.7-1.4v1.2h1.4v-5.2c0-1.9-1.3-3-3.3-3a4 4 0 0 0-3.2 1.3l.8 1a3 3 0 0 1 2.3-1c1.2 0 1.9.6 1.9 1.7v.1l-2.6.5c-1.7.4-2.6 1.2-2.6 2.5Zm1.5-.1c0-.7.4-1 1.4-1.2l2.3-.5v.6c0 1-1 2.2-2.3 2.2-.8 0-1.4-.5-1.4-1.1Zm7-1.9c0 2.4 2 4.3 4.3 4.3a4 4 0 0 0 3.4-1.7l-1-1c-.6.8-1.4 1.3-2.4 1.3-1.5 0-2.6-1.3-2.6-2.8 0-1.6 1-2.8 2.6-2.8 1 0 1.7.5 2.2 1.2l1-1c-.7-1-1.8-1.7-3.2-1.7a4.2 4.2 0 0 0-4.2 4.2Zm9.4-7.2V744h1.6v-4.3c0-1.2.6-2.6 2.2-2.6 1 0 2 .7 2 2v4.9h1.5v-4.9c0-2.1-1.4-3.4-3.1-3.4a3 3 0 0 0-2.6 1.3v-4.3h-1.6Zm12.8 11.5c1.4 0 2.2-.6 2.7-1.4v1.2h1.5v-8.1h-1.6v4.1c0 1.2-.6 2.8-2.2 2.8-1 0-2-.7-2-2v-4.9H201v4.9c0 2.1 1.3 3.4 3.1 3.4Zm6-8.3v1.3h1.2v4.4c0 1.6 1 2.6 2.5 2.6.6 0 1-.1 1.3-.3v-1.4a2 2 0 0 1-1 .3c-.8 0-1.3-.5-1.3-1.4v-4.2h2.1v-1.3h-2v-2.2h-1.6v2.2h-1.2Zm6 4c0 2.5 1.8 4.3 4.4 4.3 1.3 0 2.3-.4 3.2-1.4l-1-1a3 3 0 0 1-2.2 1c-1.4 0-2.6-1-2.7-2.4h6l.2-1c0-2-1.5-3.7-3.8-3.7-2.4 0-4 1.9-4 4.3Zm4.1-2.8c1.2 0 2.1.8 2.2 2h-4.6c.2-1.2 1.2-2 2.4-2Zm5.3 6.1c0 .5.4 1 1 1 .5 0 1-.5 1-1s-.5-1-1-1a1 1 0 0 0-1 1Zm5.4-9.6-.6 1.7h.8l1-2.2v-.5c0-.6-.3-1-.9-1a1 1 0 0 0-1 1c0 .5.4.8.7 1Zm-3.5-1c0 .5.4.8.7 1l-.6 1.7h.8l1-2.2v-.5c0-.6-.3-1-.9-1a1 1 0 0 0-1 1ZM87.6 785a4.2 4.2 0 0 0 3.9 2.2c2.5 0 3.8-1.5 3.8-3.1 0-2-1.4-2.6-3.2-3.4-1.5-.7-2.6-1-2.6-2.2 0-.9.8-1.5 2-1.5.9 0 1.8.3 2.4 1.3l1.2-.9a4 4 0 0 0-3.5-1.9c-2.2 0-3.7 1.4-3.7 3 0 2.2 1.7 2.8 3.3 3.5 1.5.6 2.5 1 2.5 2.2 0 .7-.8 1.5-2.2 1.5-1 0-2-.5-2.6-1.6l-1.3.9Zm9.1-2c0 2.4 1.8 4.2 4.4 4.2 1.3 0 2.3-.4 3.2-1.4l-1-1a3 3 0 0 1-2.2 1c-1.4 0-2.6-1-2.7-2.4h6l.2-1c0-2-1.5-3.7-3.8-3.7-2.4 0-4 1.9-4 4.3Zm4.1-2.9c1.2 0 2.1.8 2.2 2h-4.6c.2-1.2 1.2-2 2.4-2Zm4.8-1.2v1.3h1.3v4.4c0 1.6.9 2.6 2.5 2.6.5 0 1-.1 1.3-.3v-1.4a2 2 0 0 1-1 .3c-.9 0-1.3-.5-1.3-1.4v-4.2h2v-1.3h-2v-2.2h-1.5v2.2h-1.3Zm12.6 8-.3.9c-.3.9-.8 1.3-1.5 1.3-.2 0-.6 0-1-.3v1.4c.5.2.9.2 1.2.2 1.5 0 2-.9 2.6-2l3.7-9.5h-1.7L119 785l-2.4-6.1H115l3.3 8Zm9.6.3c2.4 0 4.2-1.9 4.2-4.2 0-2.4-1.8-4.3-4.2-4.3a4.1 4.1 0 0 0-4.1 4.3c0 2.3 1.7 4.2 4.1 4.2Zm-2.6-4.2c0-1.6 1.1-2.8 2.6-2.8 1.6 0 2.7 1.2 2.7 2.8 0 1.5-1.1 2.7-2.7 2.7-1.5 0-2.6-1.2-2.6-2.7Zm11.9 4.2c1.3 0 2.1-.6 2.6-1.4v1.2h1.5v-8.1h-1.5v4.1c0 1.2-.6 2.8-2.3 2.8-1 0-1.9-.7-1.9-2v-4.9h-1.6v4.9c0 2.1 1.3 3.4 3.2 3.4Zm6.8-8.3v8.1h1.5v-4c0-1.7 1-2.7 2.5-2.7h.3v-1.5h-.5c-1 0-1.9.5-2.3 1.5V779H144Zm5.2 6.5a3.5 3.5 0 0 0 3.1 1.8c1.8 0 3-1 3-2.3 0-1.4-.9-2-2.6-2.7-1.3-.4-1.7-.7-1.7-1.2s.5-1 1.3-1 1.4.5 1.8 1.1l1-.8a3 3 0 0 0-2.7-1.6c-1.7 0-3 1.1-3 2.3 0 1.4 1 2 2.6 2.6 1.5.4 1.8.7 1.8 1.3 0 .5-.5 1-1.5 1-.9 0-1.5-.6-2-1.3l-1.1.8Zm7.5-2.4c0 2.4 1.8 4.2 4.4 4.2 1.3 0 2.3-.4 3.2-1.4l-.9-1a3 3 0 0 1-2.3 1c-1.4 0-2.6-1-2.7-2.4h6.1v-1c0-2-1.3-3.7-3.7-3.7-2.4 0-4 1.9-4 4.3Zm4.2-2.9c1.1 0 2 .8 2.2 2h-4.7c.3-1.2 1.2-2 2.5-2Zm5.6-4.4v9.3c0 1.7 1 2.2 2.1 2.2l.7-.1v-1.4h-.5c-.6 0-.7-.4-.7-1v-9h-1.6Zm3.8 3.2v1.3h1.1v6.8h1.6v-6.8h1.9v-1.3h-2v-.7c0-1 .8-1.3 1.5-1.3.3 0 .6 0 .9.2v-1.4l-1.1-.2c-1.6 0-2.8 1-2.8 2.7v.7h-1.1Zm12.8 8.3c1.4 0 2.2-.6 2.6-1.4v1.2h1.6v-8.1h-1.6v4.1c0 1.2-.6 2.8-2.3 2.8-1 0-1.9-.7-1.9-2v-4.9H180v4.9c0 2.1 1.3 3.4 3.1 3.4Zm6.8-8.3v11.3h1.6v-4.3c.4.7 1.6 1.3 2.6 1.3 2.2 0 3.9-1.8 3.9-4.2 0-2.5-1.7-4.3-3.9-4.3-1 0-2.2.6-2.7 1.4v-1.2h-1.5Zm1.5 4c0-1.6 1.1-2.8 2.5-2.8 1.3 0 2.5 1.2 2.5 2.9 0 1.6-1.2 2.8-2.5 2.8-1.4 0-2.5-1.2-2.5-2.8Zm11.9-4v1.3h1v6.8h1.6v-6.8h2v-1.3h-2v-.7c0-1 .7-1.3 1.5-1.3.3 0 .6 0 .9.2v-1.4l-1.2-.2c-1.6 0-2.7 1-2.7 2.7v.7h-1.1Zm9.5 8.3c2.4 0 4.2-1.9 4.2-4.2 0-2.4-1.8-4.3-4.2-4.3a4.1 4.1 0 0 0-4.2 4.3c0 2.3 1.8 4.2 4.2 4.2Zm-2.6-4.2c0-1.6 1.1-2.8 2.6-2.8 1.6 0 2.6 1.2 2.6 2.8 0 1.5-1 2.7-2.6 2.7-1.5 0-2.6-1.2-2.6-2.7Zm8.9-4.1v8.1h1.5v-4c0-1.7 1-2.7 2.5-2.7h.3v-1.5h-.5c-1 0-2 .5-2.3 1.5V779H219Zm9.5-3.2v9.3c0 1.7 1 2.2 2 2.2l.8-.1v-1.4h-.5c-.6 0-.8-.4-.8-1v-9h-1.5Zm8 11.5c2.5 0 4.2-1.9 4.2-4.2 0-2.4-1.7-4.3-4.1-4.3a4.1 4.1 0 0 0-4.2 4.3c0 2.3 1.8 4.2 4.2 4.2ZM234 783c0-1.6 1.1-2.8 2.7-2.8 1.5 0 2.6 1.2 2.6 2.8 0 1.5-1.1 2.7-2.6 2.7-1.6 0-2.7-1.2-2.7-2.7Zm8.9 4h1.5v-4.1c0-1.2.6-2.8 2.3-2.8 1 0 2 .7 2 2v4.9h1.5v-4.9c0-2.1-1.3-3.4-3.2-3.4-1.3 0-2.1.6-2.6 1.4V779h-1.5v8.1Zm9 1.1c0 1.5 1.4 2.3 3.7 2.3 2.4 0 4-1.1 4-2.5 0-1.3-1-2.2-2.7-2.2h-2c-.4 0-.7-.3-.7-.6s.2-.4.3-.6l.9.1c1.8 0 3.2-1.3 3.2-3 0-.5-.1-1-.4-1.4h1.3v-1.3h-3l-1.1-.2c-1.8 0-3.3 1.3-3.3 3 0 1 .6 1.8 1.4 2.4-.5.3-.8.7-.8 1.2 0 .4.2.8.6 1-.8.4-1.4 1-1.4 1.8Zm3.5-8c1 0 1.7.7 1.7 1.6 0 .9-.8 1.6-1.7 1.6-1 0-1.8-.7-1.8-1.6 0-1 .8-1.6 1.8-1.6Zm-2 7.9c0-.6.7-.9 1-1h2.4c.7 0 1.3.3 1.3 1 0 .6-1 1-2.5 1-1.2 0-2.1-.4-2.1-1Zm12.6-4.7V782h-5.2v1.3h5.2Zm1.3-4.4v1.3h1.2v4.4c0 1.6 1 2.6 2.6 2.6.5 0 1-.1 1.3-.3v-1.4a2 2 0 0 1-1 .3c-.9 0-1.3-.5-1.3-1.4v-4.2h2v-1.3h-2v-2.2h-1.5v2.2h-1.3Zm6 4c0 2.5 1.8 4.3 4.4 4.3 1.3 0 2.4-.4 3.3-1.4l-1-1a3 3 0 0 1-2.3 1c-1.4 0-2.6-1-2.7-2.4h6.1l.1-1c0-2-1.4-3.7-3.7-3.7-2.5 0-4.1 1.9-4.1 4.3Zm4.2-2.8c1.2 0 2 .8 2.2 2h-4.7c.3-1.2 1.2-2 2.5-2Zm5.7-1.2v8.1h1.6v-4c0-1.7 1-2.7 2.4-2.7h.4v-1.5h-.5c-1.1 0-2 .5-2.4 1.5V779h-1.5Zm6 8.1h1.6v-4.1c0-1.2.6-2.8 2.3-2.8 1 0 1.9.7 1.9 2v4.9h1.6v-4.1c0-1.2.5-2.8 2.2-2.8 1 0 2 .7 2 2v4.9h1.5v-4.9c0-2.1-1.3-3.4-3.2-3.4-1.3 0-2.1.5-2.9 1.7a3 3 0 0 0-2.8-1.7c-1.3 0-2.1.6-2.6 1.4V779h-1.5v8.1Zm18.8-8.1v1.3h1.2v6.8h1.5v-6.8h2v-1.3h-2v-.7c0-1 .7-1.3 1.5-1.3.3 0 .6 0 .8.2v-1.4l-1-.2c-1.7 0-2.8 1-2.8 2.7v.7h-1.2Zm6.3 0v8.1h1.5v-8.1h-1.5Zm-.2-2.4c0 .5.4 1 1 1 .5 0 1-.5 1-1 0-.6-.5-1-1-1a1 1 0 0 0-1 1Zm4.4 10.5h1.5v-4.1c0-1.2.6-2.8 2.3-2.8 1 0 1.9.7 1.9 2v4.9h1.5v-4.9c0-2.1-1.3-3.4-3.1-3.4-1.3 0-2.2.6-2.6 1.4V779h-1.5v8.1Zm9.1-2.1c0 1.3 1.1 2.3 2.6 2.3a3 3 0 0 0 2.7-1.4v1.2h1.4v-5.2c0-1.9-1.3-3-3.3-3a4 4 0 0 0-3.2 1.3l.8 1a3 3 0 0 1 2.3-1c1.2 0 1.9.6 1.9 1.7v.1l-2.6.5c-1.7.4-2.6 1.2-2.6 2.5Zm1.5-.1c0-.7.4-1 1.4-1.2l2.3-.5v.6c0 1-1 2.2-2.3 2.2-.8 0-1.4-.5-1.4-1.1Zm7.7 2.2h1.6v-4.1c0-1.2.6-2.8 2.2-2.8 1 0 2 .7 2 2v4.9h1.5v-4.9c0-2.1-1.3-3.4-3.1-3.4-1.4 0-2.2.6-2.7 1.4V779h-1.5v8.1Zm9.2-4c0 2.3 1.9 4.2 4.2 4.2a4 4 0 0 0 3.4-1.7l-1-1c-.6.8-1.4 1.3-2.4 1.3-1.5 0-2.6-1.3-2.6-2.8 0-1.6 1-2.8 2.6-2.8 1 0 1.7.5 2.2 1.2l1-1c-.7-1-1.7-1.7-3.2-1.7a4.2 4.2 0 0 0-4.2 4.2Zm9.3-4.1v8.1h1.6v-8.1h-1.6Zm-.2-2.4c0 .5.5 1 1 1s1-.5 1-1c0-.6-.5-1-1-1a1 1 0 0 0-1 1Zm3.8 8.4c0 1.3 1.1 2.3 2.6 2.3a3 3 0 0 0 2.6-1.4v1.2h1.5v-5.2c0-1.9-1.3-3-3.3-3a4 4 0 0 0-3.2 1.3l.8 1a3 3 0 0 1 2.2-1c1.2 0 2 .6 2 1.7v.1l-2.6.5c-1.7.4-2.6 1.2-2.6 2.5Zm1.5-.1c0-.7.4-1 1.4-1.2l2.3-.5v.6c0 1-1 2.2-2.3 2.2-.8 0-1.4-.5-1.4-1.1Zm7.6-9.1v9.3c0 1.7 1 2.2 2.1 2.2l.7-.1v-1.4h-.5c-.6 0-.8-.4-.8-1v-9H368ZM87.6 804.4a3.5 3.5 0 0 0 3.2 1.8c1.7 0 3-1 3-2.3 0-1.4-1-2-2.7-2.7-1.3-.4-1.7-.7-1.7-1.2s.5-1 1.3-1 1.4.5 1.8 1.1l1-.8a3 3 0 0 0-2.7-1.6c-1.7 0-2.9 1.1-2.9 2.3 0 1.4.9 2 2.5 2.6 1.5.4 1.8.7 1.8 1.3 0 .5-.5 1-1.5 1-.9 0-1.5-.6-2-1.3l-1.1.8Zm11.2 1.8c1.3 0 2.1-.6 2.6-1.4v1.2h1.5v-8.1h-1.5v4.1c0 1.2-.6 2.8-2.3 2.8-1 0-1.9-.7-1.9-2v-4.9h-1.5v4.9c0 2.1 1.2 3.4 3 3.4Zm6.2-4.3c0 2.4 1.8 4.3 4.2 4.3a4 4 0 0 0 3.3-1.7l-1-1c-.5.8-1.3 1.3-2.4 1.3-1.4 0-2.6-1.3-2.6-2.8 0-1.6 1.1-2.8 2.7-2.8 1 0 1.7.5 2.2 1.2l1-1c-.7-1-1.8-1.7-3.2-1.7a4.2 4.2 0 0 0-4.2 4.2Zm8.6 0c0 2.4 1.9 4.3 4.2 4.3a4 4 0 0 0 3.4-1.7l-1-1c-.6.8-1.4 1.3-2.4 1.3-1.5 0-2.6-1.3-2.6-2.8 0-1.6 1-2.8 2.6-2.8 1 0 1.7.5 2.2 1.2l1-1c-.7-1-1.8-1.7-3.2-1.7a4.2 4.2 0 0 0-4.2 4.2Zm8.6 0c0 2.5 1.8 4.3 4.4 4.3 1.3 0 2.3-.4 3.2-1.4l-1-1a3 3 0 0 1-2.2 1c-1.4 0-2.6-1-2.7-2.4h6l.2-1c0-2-1.5-3.7-3.8-3.7-2.4 0-4 1.9-4 4.3Zm4.1-2.8c1.2 0 2.1.8 2.2 2H124c.2-1.2 1.2-2 2.4-2Zm5 5.3a3.5 3.5 0 0 0 3.2 1.8c1.8 0 3-1 3-2.3 0-1.4-.9-2-2.7-2.7-1.2-.4-1.6-.7-1.6-1.2s.5-1 1.3-1 1.3.5 1.7 1.1l1.1-.8a3 3 0 0 0-2.8-1.6c-1.6 0-2.9 1.1-2.9 2.3 0 1.4 1 2 2.6 2.6 1.5.4 1.8.7 1.8 1.3 0 .5-.6 1-1.5 1s-1.5-.6-2-1.3l-1.2.8Zm7.5 0a3.5 3.5 0 0 0 3.2 1.8c1.7 0 3-1 3-2.3 0-1.4-1-2-2.7-2.7-1.3-.4-1.7-.7-1.7-1.2s.5-1 1.3-1 1.4.5 1.8 1.1l1-.8a3 3 0 0 0-2.7-1.6c-1.7 0-2.9 1.1-2.9 2.3 0 1.4.9 2 2.5 2.6 1.5.4 1.8.7 1.8 1.3 0 .5-.5 1-1.5 1-.8 0-1.5-.6-2-1.3l-1.1.8Zm12.1-9.7V806h1.5v-1.2c.5.8 1.6 1.4 2.7 1.4 2.2 0 3.9-1.8 3.9-4.2 0-2.5-1.7-4.3-3.9-4.3-1 0-2.2.6-2.6 1.3v-4.3h-1.6Zm4 4.4c1.3 0 2.5 1.2 2.5 2.9 0 1.6-1.2 2.8-2.5 2.8-1.4 0-2.5-1.2-2.5-2.8 0-1.7 1.1-2.9 2.5-2.9Zm8.2 6.8-.4.9c-.3.9-.7 1.3-1.4 1.3-.2 0-.6 0-1-.3v1.4c.4.2.8.2 1.1.2 1.5 0 2.1-.9 2.6-2l3.8-9.5H166l-2.3 6.1-2.3-6.1h-1.8l3.4 8Zm9.8.1h1.6v-4.1c0-1.2.6-2.8 2.3-2.8 1 0 1.9.7 1.9 2v4.9h1.5v-4.9c0-2.1-1.3-3.4-3.1-3.4-1.4 0-2.2.6-2.6 1.4V798h-1.6v8.1Zm9.2-4c0 2.4 1.8 4.2 4.4 4.2 1.3 0 2.3-.4 3.2-1.4l-1-1a3 3 0 0 1-2.2 1c-1.4 0-2.6-1-2.7-2.4h6l.2-1c0-2-1.5-3.7-3.8-3.7-2.4 0-4 1.9-4 4.3Zm4.1-2.9c1.2 0 2.1.8 2.2 2h-4.6c.2-1.2 1.2-2 2.4-2Zm5 8c0 1.5 1.4 2.3 3.6 2.3 2.5 0 4-1.1 4-2.5 0-1.3-1-2.2-2.6-2.2h-2c-.4 0-.7-.3-.7-.6s.1-.4.3-.6l.9.1c1.8 0 3.2-1.3 3.2-3 0-.5-.2-1-.4-1.4h1.3v-1.3h-3l-1.1-.2c-1.9 0-3.3 1.3-3.3 3 0 1 .6 1.8 1.4 2.4-.5.3-.8.7-.8 1.2 0 .4.2.8.6 1-.8.4-1.4 1-1.4 1.8Zm3.5-8c1 0 1.7.7 1.7 1.6 0 .9-.8 1.6-1.7 1.6-1 0-1.8-.7-1.8-1.6 0-1 .8-1.6 1.8-1.6Zm-2 7.9c0-.6.6-.9 1-1h2.4c.7 0 1.3.3 1.3 1 0 .6-1 1-2.5 1-1.2 0-2.1-.4-2.1-1Zm11.4-.8c2.4 0 4.1-1.9 4.1-4.2 0-2.4-1.7-4.3-4.1-4.3a4.1 4.1 0 0 0-4.2 4.3c0 2.3 1.8 4.2 4.2 4.2Zm-2.7-4.2c0-1.6 1.1-2.8 2.7-2.8 1.5 0 2.6 1.2 2.6 2.8 0 1.5-1.1 2.7-2.6 2.7-1.6 0-2.7-1.2-2.7-2.7Zm7.9-4.1v1.3h1.2v4.4c0 1.6 1 2.6 2.5 2.6.6 0 1-.1 1.3-.3v-1.4a2 2 0 0 1-1 .3c-.8 0-1.2-.5-1.2-1.4v-4.2h2v-1.3h-2v-2.2h-1.5v2.2h-1.3Zm6.8 0v8.1h1.5v-8.1h-1.5Zm-.2-2.4c0 .5.4 1 1 1 .5 0 1-.5 1-1 0-.6-.5-1-1-1a1 1 0 0 0-1 1Zm3.7 8.4c0 1.3 1.1 2.3 2.6 2.3a3 3 0 0 0 2.7-1.4v1.2h1.4v-5.2c0-1.9-1.3-3-3.3-3a4 4 0 0 0-3.2 1.3l.8 1a3 3 0 0 1 2.3-1c1.2 0 1.9.6 1.9 1.7v.1l-2.6.5c-1.7.4-2.6 1.2-2.6 2.5Zm1.5-.1c0-.7.4-1 1.4-1.2l2.3-.5v.6c0 1-1 2.2-2.3 2.2-.8 0-1.4-.5-1.4-1.1Zm6.8-5.9v1.3h1.2v4.4c0 1.6 1 2.6 2.5 2.6.6 0 1-.1 1.3-.3v-1.4a2 2 0 0 1-1 .3c-.8 0-1.3-.5-1.3-1.4v-4.2h2.1v-1.3h-2v-2.2H229v2.2H228Zm6.8 0v8.1h1.5v-8.1h-1.5Zm-.2-2.4c0 .5.4 1 1 1 .5 0 1-.5 1-1 0-.6-.5-1-1-1a1 1 0 0 0-1 1Zm4.4 10.5h1.5v-4.1c0-1.2.6-2.8 2.3-2.8 1 0 1.9.7 1.9 2v4.9h1.5v-4.9c0-2.1-1.3-3.4-3.1-3.4-1.3 0-2.2.6-2.6 1.4V798h-1.5v8.1Zm9 1.1c0 1.5 1.4 2.3 3.6 2.3 2.5 0 4-1.1 4-2.5 0-1.3-1-2.2-2.6-2.2h-2c-.4 0-.7-.3-.7-.6s.1-.4.3-.6l.8.1c1.9 0 3.3-1.3 3.3-3 0-.5-.2-1-.4-1.4h1.3v-1.3h-3l-1.2-.2c-1.8 0-3.2 1.3-3.2 3 0 1 .5 1.8 1.3 2.4-.4.3-.7.7-.7 1.2 0 .4.2.8.5 1-.7.4-1.3 1-1.3 1.8Zm3.4-8c1 0 1.8.7 1.8 1.6 0 .9-.8 1.6-1.8 1.6s-1.7-.7-1.7-1.6c0-1 .8-1.6 1.7-1.6Zm-1.9 7.9c0-.6.6-.9 1-1h2.4c.7 0 1.2.3 1.2 1 0 .6-.8 1-2.4 1-1.2 0-2.2-.4-2.2-1Zm11.1-9.1v1.3h1.2v6.8h1.5v-6.8h2v-1.3h-2v-.7c0-1 .7-1.3 1.5-1.3.3 0 .6 0 .9.2v-1.4l-1.2-.2c-1.6 0-2.7 1-2.7 2.7v.7h-1.2Zm9.6 8.3c2.4 0 4.2-1.9 4.2-4.2 0-2.4-1.8-4.3-4.2-4.3a4.1 4.1 0 0 0-4.2 4.3c0 2.3 1.8 4.2 4.2 4.2Zm-2.6-4.2c0-1.6 1-2.8 2.6-2.8s2.6 1.2 2.6 2.8c0 1.5-1 2.7-2.6 2.7-1.5 0-2.6-1.2-2.6-2.7Zm8.9-4.1v8.1h1.5v-4c0-1.7 1-2.7 2.5-2.7h.3v-1.5h-.5c-1 0-2 .5-2.3 1.5V798h-1.5Zm9.6 8.1h1.5v-4.1c0-1.2.6-2.8 2.3-2.8 1 0 1.9.7 1.9 2v4.9h1.5v-4.9c0-2.1-1.2-3.4-3-3.4-1.4 0-2.2.6-2.7 1.4V798H286v8.1Zm13.3.2c2.4 0 4.2-1.9 4.2-4.2 0-2.4-1.8-4.3-4.2-4.3a4.1 4.1 0 0 0-4.1 4.3c0 2.3 1.7 4.2 4.1 4.2Zm-2.6-4.2c0-1.6 1.1-2.8 2.6-2.8 1.6 0 2.7 1.2 2.7 2.8 0 1.5-1.1 2.7-2.7 2.7-1.5 0-2.6-1.2-2.6-2.7Zm8.9 4h1.5v-4.1c0-1.2.6-2.8 2.3-2.8 1 0 2 .7 2 2v4.9h1.5v-4.9c0-2.1-1.3-3.4-3.2-3.4-1.3 0-2.1.6-2.6 1.4V798h-1.5v8.1Zm14.8-3.7V801h-5.3v1.3h5.3Zm1.8-.4c0 2.4 1.8 4.3 4.2 4.3a4 4 0 0 0 3.4-1.7l-1-1c-.6.8-1.4 1.3-2.4 1.3-1.5 0-2.6-1.3-2.6-2.8 0-1.6 1-2.8 2.6-2.8 1 0 1.7.5 2.2 1.2l1-1c-.7-1-1.8-1.7-3.2-1.7a4.2 4.2 0 0 0-4.2 4.2Zm8.7 2c0 1.3 1 2.3 2.6 2.3a3 3 0 0 0 2.6-1.4v1.2h1.5v-5.2c0-1.9-1.3-3-3.3-3a4 4 0 0 0-3.2 1.3l.8 1a3 3 0 0 1 2.2-1c1.2 0 2 .6 2 1.7v.1l-2.6.5c-1.7.4-2.6 1.2-2.6 2.5Zm1.5-.1c0-.7.4-1 1.4-1.2l2.3-.5v.6c0 1-1 2.2-2.4 2.2-.8 0-1.3-.5-1.3-1.1Zm7 .6a3.5 3.5 0 0 0 3 1.8c1.8 0 3-1 3-2.3 0-1.4-.8-2-2.6-2.7-1.3-.4-1.7-.7-1.7-1.2s.6-1 1.4-1c.8 0 1.3.5 1.7 1.1l1.1-.8a3 3 0 0 0-2.8-1.6c-1.7 0-2.9 1.1-2.9 2.3 0 1.4 1 2 2.6 2.6 1.4.4 1.8.7 1.8 1.3 0 .5-.6 1-1.5 1-1 0-1.6-.6-2-1.3l-1.2.8Zm8.1-9.7V806h1.6v-4.3c0-1.2.6-2.6 2.2-2.6 1 0 2 .7 2 2v4.9h1.5v-4.9c0-2.1-1.3-3.4-3.1-3.4a3 3 0 0 0-2.6 1.3v-4.3h-1.6ZM92 825.2c2.4 0 4.2-1.9 4.2-4.2 0-2.4-1.8-4.3-4.2-4.3a4.1 4.1 0 0 0-4.2 4.3c0 2.3 1.8 4.2 4.2 4.2Zm-2.6-4.2c0-1.6 1-2.8 2.6-2.8 1.5 0 2.6 1.2 2.6 2.8 0 1.5-1 2.7-2.6 2.7-1.5 0-2.6-1.2-2.6-2.7Zm8.8-4.1v11.3h1.6v-4.3c.5.7 1.6 1.3 2.6 1.3 2.2 0 3.9-1.8 3.9-4.2 0-2.5-1.7-4.3-3.9-4.3-1 0-2.2.6-2.7 1.4v-1.2h-1.5Zm1.5 4c0-1.6 1.1-2.8 2.5-2.8 1.3 0 2.5 1.2 2.5 2.9 0 1.6-1.2 2.8-2.5 2.8-1.4 0-2.5-1.2-2.5-2.8Zm7.7-4v1.3h1.2v4.4c0 1.6 1 2.6 2.5 2.6.6 0 1-.1 1.3-.3v-1.4a2 2 0 0 1-1 .3c-.9 0-1.3-.5-1.3-1.4v-4.2h2.1v-1.3h-2v-2.2h-1.6v2.2h-1.2Zm6.7 0v8.1h1.6v-8.1H114Zm-.1-2.4c0 .5.4 1 1 1 .5 0 1-.5 1-1 0-.6-.5-1-1-1a1 1 0 0 0-1 1Zm8 10.7c2.3 0 4.1-1.9 4.1-4.2 0-2.4-1.8-4.3-4.2-4.3a4.1 4.1 0 0 0-4.2 4.3c0 2.3 1.8 4.2 4.2 4.2Zm-2.7-4.2c0-1.6 1-2.8 2.6-2.8s2.6 1.2 2.6 2.8c0 1.5-1 2.7-2.6 2.7-1.5 0-2.6-1.2-2.6-2.7Zm8.8 4h1.6v-4.1c0-1.2.6-2.8 2.3-2.8 1 0 1.9.7 1.9 2v4.9h1.5v-4.9c0-2.1-1.3-3.4-3.1-3.4-1.4 0-2.2.6-2.6 1.4V817H128v8.1Zm9.1-1.6a3.5 3.5 0 0 0 3.2 1.8c1.7 0 3-1 3-2.3 0-1.4-1-2-2.7-2.7-1.3-.4-1.7-.7-1.7-1.2s.6-1 1.4-1c.8 0 1.3.5 1.7 1.1l1.1-.8a3 3 0 0 0-2.8-1.6c-1.7 0-2.9 1.1-2.9 2.3 0 1.4 1 2 2.6 2.6 1.4.4 1.8.7 1.8 1.3 0 .5-.6 1-1.5 1-1 0-1.6-.6-2-1.3l-1.2.8Zm12-9.7v9.3c0 1.7 1 2.2 2.2 2.2l.7-.1v-1.4h-.5c-.7 0-.8-.4-.8-1v-9h-1.5Zm4.7 3.2v8.1h1.5v-8.1h-1.5Zm-.2-2.4c0 .5.5 1 1 1s1-.5 1-1c0-.6-.5-1-1-1a1 1 0 0 0-1 1Zm6 10.5v-2.2l1.3-1.5 2.4 3.7h1.8l-3.2-4.7 2.9-3.4h-1.9l-3.3 3.9v-7.1H158V825h1.6Zm6-4c0 2.4 1.8 4.2 4.4 4.2 1.3 0 2.3-.4 3.2-1.4l-.9-1a3 3 0 0 1-2.3 1c-1.4 0-2.6-1-2.7-2.4h6.1v-1c0-2-1.3-3.7-3.7-3.7-2.4 0-4 1.9-4 4.3Zm4.2-2.9c1.1 0 2 .8 2.2 2h-4.7c.3-1.2 1.2-2 2.5-2Zm8.8-1.2v1.3h1.2v4.4c0 1.6 1 2.6 2.5 2.6.6 0 1-.1 1.3-.3v-1.4a2 2 0 0 1-1 .3c-.8 0-1.3-.5-1.3-1.4v-4.2h2.1v-1.3h-2v-2.2h-1.6v2.2h-1.2Zm6.8-3.2V825h1.5v-4.3c0-1.2.6-2.6 2.3-2.6 1 0 1.9.7 1.9 2v4.9h1.5v-4.9c0-2.1-1.3-3.4-3.1-3.4a3 3 0 0 0-2.6 1.3v-4.3h-1.5Zm9.1 7.3c0 2.4 1.8 4.2 4.4 4.2 1.3 0 2.3-.4 3.2-1.4l-.9-1a3 3 0 0 1-2.3 1c-1.4 0-2.6-1-2.7-2.4h6.1v-1c0-2-1.3-3.7-3.7-3.7-2.4 0-4 1.9-4 4.3Zm4.2-2.9c1.1 0 2 .8 2.2 2h-4.7c.3-1.2 1.2-2 2.5-2Zm9.6-1.2v8.1h1.6v-4c0-1.7 1-2.7 2.5-2.7h.3v-1.5h-.5c-1.1 0-2 .5-2.3 1.5V817h-1.6Zm6 0v8.1h1.6v-8.1h-1.5Zm-.1-2.4c0 .5.4 1 1 1 .5 0 1-.5 1-1 0-.6-.5-1-1-1a1 1 0 0 0-1 1Zm3.6 11.6c0 1.5 1.4 2.3 3.7 2.3 2.4 0 4-1.1 4-2.5 0-1.3-1-2.2-2.7-2.2h-2c-.4 0-.7-.3-.7-.6s.2-.4.3-.6l.9.1c1.8 0 3.2-1.3 3.2-3 0-.5-.1-1-.4-1.4h1.3v-1.3h-3l-1.1-.2c-1.8 0-3.3 1.3-3.3 3 0 1 .6 1.8 1.4 2.4-.5.3-.8.7-.8 1.2 0 .4.2.8.6 1-.8.4-1.4 1-1.4 1.8Zm3.5-8c1 0 1.7.7 1.7 1.6 0 .9-.8 1.6-1.7 1.6-1 0-1.8-.7-1.8-1.6 0-1 .8-1.6 1.8-1.6Zm-2 7.9c0-.6.7-.9 1-1h2.4c.7 0 1.3.3 1.3 1 0 .6-1 1-2.5 1-1.2 0-2.1-.4-2.1-1Zm8-12.3V825h1.5v-4.3c0-1.2.6-2.6 2.3-2.6 1 0 1.9.7 1.9 2v4.9h1.5v-4.9c0-2.1-1.3-3.4-3.1-3.4a3 3 0 0 0-2.6 1.3v-4.3h-1.6Zm8.8 3.2v1.3h1.2v4.4c0 1.6 1 2.6 2.5 2.6.6 0 1-.1 1.3-.3v-1.4a2 2 0 0 1-1 .3c-.9 0-1.3-.5-1.3-1.4v-4.2h2.1v-1.3h-2v-2.2h-1.6v2.2h-1.2Zm9.8 0v1.3h1.2v4.4c0 1.6 1 2.6 2.6 2.6.5 0 1-.1 1.3-.3v-1.4a2 2 0 0 1-1 .3c-.9 0-1.3-.5-1.3-1.4v-4.2h2v-1.3h-2v-2.2h-1.5v2.2h-1.3Zm10.3 8.3c2.4 0 4.2-1.9 4.2-4.2 0-2.4-1.8-4.3-4.2-4.3a4.1 4.1 0 0 0-4.2 4.3c0 2.3 1.8 4.2 4.2 4.2Zm-2.6-4.2c0-1.6 1-2.8 2.6-2.8 1.5 0 2.6 1.2 2.6 2.8 0 1.5-1.1 2.7-2.6 2.7-1.6 0-2.6-1.2-2.6-2.7Zm12 0c0 2.3 2 4.2 4.3 4.2a4 4 0 0 0 3.4-1.7l-1-1c-.6.8-1.4 1.3-2.4 1.3-1.5 0-2.6-1.3-2.6-2.8 0-1.6 1-2.8 2.6-2.8 1 0 1.7.5 2.2 1.2l1-1c-.7-1-1.7-1.7-3.2-1.7a4.2 4.2 0 0 0-4.2 4.2Zm13 4.2c2.3 0 4.1-1.9 4.1-4.2 0-2.4-1.8-4.3-4.2-4.3a4.1 4.1 0 0 0-4.2 4.3c0 2.3 1.8 4.2 4.2 4.2Zm-2.7-4.2c0-1.6 1-2.8 2.6-2.8s2.6 1.2 2.6 2.8c0 1.5-1 2.7-2.6 2.7-1.5 0-2.6-1.2-2.6-2.7Zm8.9 4h1.5v-4.1c0-1.2.6-2.8 2.3-2.8 1 0 1.9.7 1.9 2v4.9h1.5v-4.9c0-2.1-1.3-3.4-3.1-3.4-1.3 0-2.2.6-2.6 1.4V817h-1.6v8.1Zm9-1.6a3.5 3.5 0 0 0 3.2 1.8c1.7 0 3-1 3-2.3 0-1.4-1-2-2.7-2.7-1.3-.4-1.7-.7-1.7-1.2s.6-1 1.4-1c.8 0 1.3.5 1.7 1.1l1.1-.8a3 3 0 0 0-2.8-1.6c-1.7 0-2.9 1.1-2.9 2.3 0 1.4 1 2 2.6 2.6 1.4.4 1.8.7 1.8 1.3 0 .5-.6 1-1.5 1-1 0-1.6-.6-2-1.3l-1.2.8Zm11.2 1.8c1.4 0 2.2-.6 2.6-1.4v1.2h1.6v-8.1h-1.6v4.1c0 1.2-.6 2.8-2.3 2.8-1 0-1.9-.7-1.9-2v-4.9H302v4.9c0 2.1 1.3 3.4 3.1 3.4Zm6.7-11.5v9.3c0 1.7 1 2.2 2.1 2.2l.8-.1v-1.4h-.6c-.6 0-.7-.4-.7-1v-9h-1.6Zm3.6 3.2v1.3h1.3v4.4c0 1.6.9 2.6 2.5 2.6.5 0 1-.1 1.3-.3v-1.4a2 2 0 0 1-1 .3c-.9 0-1.3-.5-1.3-1.4v-4.2h2v-1.3h-2v-2.2h-1.5v2.2h-1.3Zm6.3 7.3c0 .5.5 1 1 1s1-.5 1-1-.5-1-1-1a1 1 0 0 0-1 1Z" fill="#2F4858"/><path d="M16 88h411" stroke="#F64B1C" stroke-width="2"/><g clip-path="url(#b)"><path d="m59 132.2-3.5-3.5a1 1 0 1 0-1.4 1.4l4.2 4.2c.4.4 1 .4 1.4 0l10.6-10.6a1 1 0 1 0-1.4-1.4l-9.9 9.9Z" fill="#F64B1C"/></g><g clip-path="url(#c)"><path d="m59 174.2-3.5-3.5a1 1 0 1 0-1.4 1.4l4.2 4.2c.4.4 1 .4 1.4 0l10.6-10.6a1 1 0 1 0-1.4-1.4l-9.9 9.9Z" fill="#F64B1C"/></g><g clip-path="url(#d)"><path d="m59 216.2-3.5-3.5a1 1 0 1 0-1.4 1.4l4.2 4.2c.4.4 1 .4 1.4 0l10.6-10.6a1 1 0 1 0-1.4-1.4l-9.9 9.9Z" fill="#F64B1C"/></g><g clip-path="url(#e)"><path d="m59 259.2-3.5-3.5a1 1 0 1 0-1.4 1.4l4.2 4.2c.4.4 1 .4 1.4 0l10.6-10.6a1 1 0 1 0-1.4-1.4l-9.9 9.9Z" fill="#F64B1C"/></g><g clip-path="url(#f)"><path d="m59 304.2-3.5-3.5a1 1 0 1 0-1.4 1.4l4.2 4.2c.4.4 1 .4 1.4 0l10.6-10.6a1 1 0 1 0-1.4-1.4l-9.9 9.9Z" fill="#F64B1C"/></g><g clip-path="url(#g)"><path d="m59 383.2-3.5-3.5a1 1 0 1 0-1.4 1.4l4.2 4.2c.4.4 1 .4 1.4 0l10.6-10.6a1 1 0 1 0-1.4-1.4l-9.9 9.9Z" fill="#F64B1C"/></g><g clip-path="url(#h)"><path d="m59 442.2-3.5-3.5a1 1 0 1 0-1.4 1.4l4.2 4.2c.4.4 1 .4 1.4 0l10.6-10.6a1 1 0 1 0-1.4-1.4l-9.9 9.9Z" fill="#F64B1C"/></g><g clip-path="url(#i)"><path d="m59 488.2-3.5-3.5a1 1 0 1 0-1.4 1.4l4.2 4.2c.4.4 1 .4 1.4 0l10.6-10.6a1 1 0 1 0-1.4-1.4l-9.9 9.9Z" fill="#F64B1C"/></g><g clip-path="url(#j)"><path d="m59 531.2-3.5-3.5a1 1 0 1 0-1.4 1.4l4.2 4.2c.4.4 1 .4 1.4 0l10.6-10.6a1 1 0 1 0-1.4-1.4l-9.9 9.9Z" fill="#F64B1C"/></g><g clip-path="url(#k)"><path d="m59 574.2-3.5-3.5a1 1 0 1 0-1.4 1.4l4.2 4.2c.4.4 1 .4 1.4 0l10.6-10.6a1 1 0 1 0-1.4-1.4l-9.9 9.9Z" fill="#F64B1C"/></g><g clip-path="url(#l)"><path d="m59 617.2-3.5-3.5a1 1 0 1 0-1.4 1.4l4.2 4.2c.4.4 1 .4 1.4 0l10.6-10.6a1 1 0 1 0-1.4-1.4l-9.9 9.9Z" fill="#F64B1C"/></g><g clip-path="url(#m)"><path d="m59 660.2-3.5-3.5a1 1 0 1 0-1.4 1.4l4.2 4.2c.4.4 1 .4 1.4 0l10.6-10.6a1 1 0 1 0-1.4-1.4l-9.9 9.9Z" fill="#F64B1C"/></g><g clip-path="url(#n)"><path d="m59 703.2-3.5-3.5a1 1 0 1 0-1.4 1.4l4.2 4.2c.4.4 1 .4 1.4 0l10.6-10.6a1 1 0 1 0-1.4-1.4l-9.9 9.9Z" fill="#F64B1C"/></g><g clip-path="url(#o)"><path d="m59 784.2-3.5-3.5a1 1 0 1 0-1.4 1.4l4.2 4.2c.4.4 1 .4 1.4 0l10.6-10.6a1 1 0 1 0-1.4-1.4l-9.9 9.9Z" fill="#F64B1C"/></g><g clip-path="url(#p)"><path d="M69.1 39.1H50A2.8 2.8 0 0 0 47 42V61c0 1.5 1.3 2.8 2.8 2.8H69c1.5 0 2.8-1.3 2.8-2.8V42c0-1.5-1.3-2.8-2.8-2.8Zm0 22H50V42H69V61Zm-1.4-13.7-1.9-2-9 9-3.6-3.4-2 1.9 5.5 5.5 11-11Z" fill="#F64B1C"/></g><defs><clipPath id="b"><path fill="#fff" transform="translate(50 116)" d="M0 0h24v24H0z"/></clipPath><clipPath id="c"><path fill="#fff" transform="translate(50 158)" d="M0 0h24v24H0z"/></clipPath><clipPath id="d"><path fill="#fff" transform="translate(50 200)" d="M0 0h24v24H0z"/></clipPath><clipPath id="e"><path fill="#fff" transform="translate(50 243)" d="M0 0h24v24H0z"/></clipPath><clipPath id="f"><path fill="#fff" transform="translate(50 288)" d="M0 0h24v24H0z"/></clipPath><clipPath id="g"><path fill="#fff" transform="translate(50 367)" d="M0 0h24v24H0z"/></clipPath><clipPath id="h"><path fill="#fff" transform="translate(50 426)" d="M0 0h24v24H0z"/></clipPath><clipPath id="i"><path fill="#fff" transform="translate(50 472)" d="M0 0h24v24H0z"/></clipPath><clipPath id="j"><path fill="#fff" transform="translate(50 515)" d="M0 0h24v24H0z"/></clipPath><clipPath id="k"><path fill="#fff" transform="translate(50 558)" d="M0 0h24v24H0z"/></clipPath><clipPath id="l"><path fill="#fff" transform="translate(50 601)" d="M0 0h24v24H0z"/></clipPath><clipPath id="m"><path fill="#fff" transform="translate(50 644)" d="M0 0h24v24H0z"/></clipPath><clipPath id="n"><path fill="#fff" transform="translate(50 687)" d="M0 0h24v24H0z"/></clipPath><clipPath id="o"><path fill="#fff" transform="translate(50 768)" d="M0 0h24v24H0z"/></clipPath><clipPath id="p"><path fill="#fff" transform="translate(43 35)" d="M0 0h33v33H0z"/></clipPath><filter id="a" x=".9" y=".8" width="450" height="899" filterUnits="userSpaceOnUse" color-interpolation-filters="sRGB"><feFlood flood-opacity="0" result="BackgroundImageFix"/><feColorMatrix in="SourceAlpha" values="0 0 0 0 0 0 0 0 0 0 0 0 0 0 0 0 0 0 127 0" result="hardAlpha"/><feOffset dx="4.9" dy="6.8"/><feGaussianBlur stdDeviation="10"/><feColorMatrix values="0 0 0 0 0 0 0 0 0 0 0 0 0 0 0 0 0 0 0.2 0"/><feBlend in2="BackgroundImageFix" result="effect1_dropShadow_1973_10674"/><feBlend in="SourceGraphic" in2="effect1_dropShadow_1973_10674" result="shape"/></filter></defs></svg>