<svg id="Layer_1" data-name="Layer 1" xmlns="http://www.w3.org/2000/svg" viewBox="0 0 680.31 680.31"><rect width="680.31" height="680.31" style="fill:#fff"/><path d="M462.05,191.91c46.72,1.2,42.92,68.54-8.48,150.41l-.59.93,38,44.49H453.05L436.17,368C385.51,437.43,317.62,489.46,275.9,488.4c-37.49-1-42.44-44.53-16.36-104h6.2c-17.5,39.46-15,67.1,10.06,67.78,33.49.9,95.05-46.81,140.13-107.88l-45.36-53.12H408.5l24.25,28.4c34.92-56.14,39.09-99.77,7.57-100.62-27.56-.74-74.13,31.44-114.89,76.89h-11c48.86-61,109.3-104.9,147.64-103.92Zm86.76,115.82H497.68a1.89,1.89,0,0,0-2.13,2.13v9.95a1.88,1.88,0,0,0,2.13,2.13h49.47a28,28,0,0,1,6.39.59,9.07,9.07,0,0,1,3.91,1.83,6.7,6.7,0,0,1,2,3.26,17.53,17.53,0,0,1,.59,4.85v2.25H511.88a31.58,31.58,0,0,0-8.7,1,13.49,13.49,0,0,0-5.62,3,11.07,11.07,0,0,0-3,4.92,22.44,22.44,0,0,0-.89,6.56v5.69a28.54,28.54,0,0,0,.89,7.57,11,11,0,0,0,3,5.21,13.62,13.62,0,0,0,5.62,3,32,32,0,0,0,8.7,1h56.34a18.47,18.47,0,0,0,4.26-.41,5.38,5.38,0,0,0,2.66-1.48,6,6,0,0,0,1.42-2.9,21.5,21.5,0,0,0,.42-4.68V331.76a37.32,37.32,0,0,0-1.42-10.95,16.19,16.19,0,0,0-4.68-7.45,20.06,20.06,0,0,0-8.7-4.26,55.88,55.88,0,0,0-13.37-1.37Zm7.81,52H516.73c-2.44,0-4.16-.49-5.14-1.48s-1.48-2.54-1.48-4.67v-2.49a5.85,5.85,0,0,1,1.48-4.32c1-1,2.7-1.48,5.14-1.48h43.32v10.42a4.9,4.9,0,0,1-.77,3.14,3.38,3.38,0,0,1-2.66.88ZM604,284a2.3,2.3,0,0,1,2.61,2.6v83.56a2.3,2.3,0,0,1-2.61,2.6h-11.6a2.3,2.3,0,0,1-2.6-2.6V286.55a2.3,2.3,0,0,1,2.6-2.6Zm32,0a2.3,2.3,0,0,1,2.6,2.6v83.56a2.3,2.3,0,0,1-2.6,2.6h-11.6a2.3,2.3,0,0,1-2.61-2.6V286.55a2.3,2.3,0,0,1,2.61-2.6ZM56.12,307.73c1.73,0,2.6.91,2.6,2.73v59.65a2.3,2.3,0,0,1-2.6,2.6H44.52a2.3,2.3,0,0,1-2.61-2.6V310.46q0-2.73,2.61-2.73Zm0-24a2.3,2.3,0,0,1,2.6,2.6v11.25c0,1.81-.87,2.72-2.6,2.72H44.52a2.41,2.41,0,0,1-2.73-2.72V286.31c0-1.73.91-2.6,2.73-2.6Zm79.41,24a55.76,55.76,0,0,1,13.37,1.37,20.06,20.06,0,0,1,8.7,4.26,16.19,16.19,0,0,1,4.68,7.45,37,37,0,0,1,1.42,10.95v38.35a2.3,2.3,0,0,1-2.6,2.6H149.5a2.3,2.3,0,0,1-2.61-2.6V335.78a34.3,34.3,0,0,0-.47-6.21,8,8,0,0,0-1.83-4,7.69,7.69,0,0,0-3.73-2.13,23.63,23.63,0,0,0-6.16-.65H103.22a25,25,0,0,0-6.27.65,8.48,8.48,0,0,0-4,2.13,8.24,8.24,0,0,0-2.07,4,28.19,28.19,0,0,0-.59,6.21v34.33a2.3,2.3,0,0,1-2.6,2.6H76.12c-1.82,0-2.72-.87-2.72-2.6V331.76a37,37,0,0,1,1.42-10.95,16.09,16.09,0,0,1,4.67-7.45,20,20,0,0,1,8.64-4.26,55.72,55.72,0,0,1,13.43-1.37Zm114.45,0h-44.5a55.66,55.66,0,0,0-13.43,1.37,20,20,0,0,0-8.64,4.26,16.19,16.19,0,0,0-4.68,7.45,37,37,0,0,0-1.42,10.95v17a36.94,36.94,0,0,0,1.42,10.95,16.27,16.27,0,0,0,4.68,7.46,19.76,19.76,0,0,0,8.64,4.2,58.18,58.18,0,0,0,13.43,1.3h33.14a58.4,58.4,0,0,0,13.37-1.3,19.79,19.79,0,0,0,8.7-4.2,16.27,16.27,0,0,0,4.68-7.46,37.27,37.27,0,0,0,1.42-10.95V286.55a2.3,2.3,0,0,0-2.61-2.6h-11.6a2.3,2.3,0,0,0-2.6,2.6v21.18Zm-13,50.78a26.06,26.06,0,0,0,6.39-.65,8.66,8.66,0,0,0,4-2.13,8.24,8.24,0,0,0,2.07-4,27.89,27.89,0,0,0,.59-6.27V321.94H207.14a25.06,25.06,0,0,0-6.28.65,8.44,8.44,0,0,0-4,2.13,8.07,8.07,0,0,0-2.07,4,27.57,27.57,0,0,0-.6,6.22v10.53a27.25,27.25,0,0,0,.6,6.27,8.07,8.07,0,0,0,2.07,4,8.62,8.62,0,0,0,4,2.13,25.54,25.54,0,0,0,6.28.65ZM341.7,307.73H307a55.75,55.75,0,0,0-13.44,1.37,20,20,0,0,0-8.64,4.26,16.17,16.17,0,0,0-4.67,7.45,37,37,0,0,0-1.42,10.95v17a36.94,36.94,0,0,0,1.42,10.95,16.25,16.25,0,0,0,4.67,7.46,19.76,19.76,0,0,0,8.64,4.2,58.27,58.27,0,0,0,13.44,1.3h51a1.88,1.88,0,0,0,2.13-2.13v-9.94a1.88,1.88,0,0,0-2.13-2.13H308.68c-5.12,0-8.58-.83-10.35-2.49s-2.67-4.34-2.67-8v-2.85h59.77a7.49,7.49,0,0,0,5.09-1.47q1.67-1.49,1.66-5.27V327.15a37.36,37.36,0,0,0-.95-9.06,12.79,12.79,0,0,0-3.25-6,13.34,13.34,0,0,0-6.27-3.31,41.66,41.66,0,0,0-10-1Zm-46,26.87H343.6a1.78,1.78,0,0,0,2-2v-5c0-2.45-.51-4.18-1.54-5.21s-2.92-1.54-5.68-1.54H308.68c-5.12,0-8.58.81-10.35,2.43s-2.67,4.32-2.67,8.11Z" style="fill:#231f20;fill-rule:evenodd"/></svg>