<svg id="Layer_1" data-name="Layer 1" xmlns="http://www.w3.org/2000/svg" viewBox="0 0 1200 628"><title>blog_post_generic</title><rect width="1200" height="628" fill="#fff"/><path d="M516.06,257.82A6.77,6.77,0,0,0,515,258a7,7,0,0,0-1.18.44,6.79,6.79,0,0,0-1.68,1.13,8.43,8.43,0,0,0-1.46,1.74,10.42,10.42,0,0,0-1.57,4.69,1.24,1.24,0,0,0,.38.92,1.3,1.3,0,0,0,1.84,0,1.43,1.43,0,0,0,.38-.92.41.41,0,0,1,0-.11,10.22,10.22,0,0,1,.5-1.88,7.7,7.7,0,0,1,.8-1.39,7.05,7.05,0,0,1,1-1A8,8,0,0,1,515,261a7,7,0,0,1,1-.28,6,6,0,0,1,1,0,5.35,5.35,0,0,1,1,.29,8.14,8.14,0,0,1,1.3.78,11.67,11.67,0,0,1,.9.82,1.36,1.36,0,0,0,1.93,0,1.34,1.34,0,0,0,.41-1,1.47,1.47,0,0,0-.41-1,7.54,7.54,0,0,0-3.94-2.7,5.81,5.81,0,0,0-1.56-.2c-.21,0-.42,0-.62,0" fill="#161616"/><path d="M521.35,272a12.29,12.29,0,0,0-4.38,1.63,13.27,13.27,0,0,0-3.75,3.49,1.27,1.27,0,0,0-.13,1,1.29,1.29,0,0,0,1.58.89,1.4,1.4,0,0,0,.76-.59l0,0a11.59,11.59,0,0,1,1.74-1.76,12,12,0,0,1,2.27-1.31,12.23,12.23,0,0,1,2.71-.74,13.48,13.48,0,0,1,2.84,0,14.48,14.48,0,0,1,3.17.88c.44.19.86.39,1.28.61a1.07,1.07,0,0,0,1.29-.17,1.06,1.06,0,0,0,0-1.51,10.4,10.4,0,0,0-4.35-2.24,11.54,11.54,0,0,0-2.8-.34,15.51,15.51,0,0,0-2.25.18m-5.71,6.14-.17.22.17-.22" fill="#161616"/><path d="M517.7,278.8a2.92,2.92,0,1,0,2.92-2.93,2.94,2.94,0,0,0-2.92,2.93" fill="#161616"/><path d="M548,266.68a13.13,13.13,0,0,0-5,1.63,12.67,12.67,0,0,0-4,3.75,1.17,1.17,0,0,0,.42,1.59,1.22,1.22,0,0,0,.9.12,1.28,1.28,0,0,0,.69-.54l.23-.31a10.82,10.82,0,0,1,1.72-1.73,11.88,11.88,0,0,1,2.21-1.28,12.17,12.17,0,0,1,2.7-.75,12.63,12.63,0,0,1,3.25,0,14.58,14.58,0,0,1,3,.84,21.55,21.55,0,0,1,2.42,1.29,1,1,0,0,0,1.2-1.54,10.83,10.83,0,0,0-4.62-2.65,13.06,13.06,0,0,0-2.64-.48c-.32,0-.64,0-1,0a12.76,12.76,0,0,0-1.51.1" fill="#161616"/><path d="M542.84,273.4a3.15,3.15,0,1,0,3.15-3.15,3.18,3.18,0,0,0-3.15,3.15" fill="#161616"/><path d="M530.81,282.54a1.1,1.1,0,0,0-.31.74c0,.33-.07.66-.11,1-.19,1.31-.45,2.61-.64,3.93-.11.74-.21,1.49-.26,2.24a12,12,0,0,0,.09,2.16,4.23,4.23,0,0,0,1.95,3.13,4.65,4.65,0,0,0,2.09.55,5.32,5.32,0,0,0,1.13-.05,11.34,11.34,0,0,0,1.64-.33,1.06,1.06,0,0,0,.73-1.28,1,1,0,0,0-.48-.63,1.2,1.2,0,0,0-.81-.11l-.44.08.14,0-.14,0-.14,0,.13,0a8.71,8.71,0,0,1-1.84,0,3.25,3.25,0,0,1-.63-.17,2.16,2.16,0,0,1-.39-.22,3.19,3.19,0,0,1-.26-.26A4.49,4.49,0,0,1,532,293a5.09,5.09,0,0,1-.26-1,15.79,15.79,0,0,1,.16-3.76c.23-1.63.54-3.25.68-4.89a1,1,0,0,0-1.05-1,1.06,1.06,0,0,0-.74.31M535.38,294h0Z" fill="#161616"/><path d="M548.4,295.93a1.13,1.13,0,0,0-.65.5c-.21.3-.43.59-.64.88a19.07,19.07,0,0,1-3,3.09,12.67,12.67,0,0,1-2.36,1.38,11.18,11.18,0,0,1-2.55.69,12.13,12.13,0,0,1-2,0,1.39,1.39,0,0,0-1.39,1.38,1.37,1.37,0,0,0,.41,1,1.39,1.39,0,0,0,1,.41,12.51,12.51,0,0,0,7.46-1.89,13,13,0,0,0,4.18-4.22,12.16,12.16,0,0,0,.91-1.89,1.1,1.1,0,0,0-.5-1.24,1.12,1.12,0,0,0-.56-.15,1,1,0,0,0-.29,0" fill="#161616"/><path d="M540.89,251.73a6.83,6.83,0,0,0-1.65,1.23,8.78,8.78,0,0,0-1.38,1.87,1.07,1.07,0,0,0,1.85,1.08,8.39,8.39,0,0,1,.55-.86,6.28,6.28,0,0,1,.85-.86,6.07,6.07,0,0,1,.95-.56,5.73,5.73,0,0,1,1.15-.3,7.72,7.72,0,0,1,1.52,0,10.56,10.56,0,0,1,2.19.64,21.75,21.75,0,0,1,4,2.47,1,1,0,0,0,1.26-.16,1.07,1.07,0,0,0,0-1.49,13.18,13.18,0,0,0-3.42-2.51,12.46,12.46,0,0,0-2-.84,10.32,10.32,0,0,0-2.06-.42A6,6,0,0,0,544,251a7,7,0,0,0-3.11.75" fill="#161616"/><path d="M527.24,349.69a.65.65,0,0,0-.31.41.6.6,0,0,0,.07.52l2.34,3.16c.81,1.11,1.61,2.24,2.43,3.34a.77.77,0,0,0,.41.32.67.67,0,0,0,.52-.07.68.68,0,0,0,.25-.94c-.75-1.08-1.53-2.13-2.31-3.19l-2.47-3.31a.79.79,0,0,0-.41-.31l-.18,0a.67.67,0,0,0-.34.09" fill="#161616"/><path d="M488.34,211.39a18.92,18.92,0,0,0-.46,3,14.77,14.77,0,0,0,.17,3,18.92,18.92,0,0,0,1.89,5.79,22.37,22.37,0,0,0,3.41,4.92,21.16,21.16,0,0,0,2.86,2.64,50,50,0,0,0-8.3,4.57c-1.11.75-2.23,1.57-3.34,2.44l-.6.58a2.66,2.66,0,0,1-.52.38,2.49,2.49,0,0,1-.32.2l-.91.77-.22.19-1,.91a2.25,2.25,0,0,1-.39.3c-1.27,1.17-2.4,2.31-3.43,3.45a1.36,1.36,0,0,0-.2,1.63,1.39,1.39,0,0,0,1.15.67,1,1,0,0,0,.36-.05,49.36,49.36,0,0,1,5.53-1.66,57.51,57.51,0,0,1,6-1.14,52,52,0,0,1,6.55-.44,42.14,42.14,0,0,1,4.81.28c-1.16,1-2.39,2.1-3.77,3.46-1.84,1.8-3.69,3.79-5.48,5.89s-3.39,4.19-5,6.53-3.28,5-4.57,7.18a1.94,1.94,0,0,0,.3,2.34,1.89,1.89,0,0,0,.85.5,2.2,2.2,0,0,0,.56.07,1.59,1.59,0,0,0,.94-.26l1.29-1,.09-.08-.11,0,.16-.08.05,0,0,0c1.62-1.21,3.3-2.38,5-3.49a13.68,13.68,0,0,1,2.69-1.82,3.27,3.27,0,0,1,.66-.24l.7-.4c2.52-1.44,5.2-2.79,8.2-4.13a50.74,50.74,0,0,0,.49,6.18,3.06,3.06,0,0,1,.18.87l.09,1a84.19,84.19,0,0,0,2.31,10.13c.92,3.2,2.05,6.55,3.46,10.23a2.2,2.2,0,0,1,.3.66c.05.17.09.33.14.49,1.38,3.52,2.87,6.87,4.44,10a80.19,80.19,0,0,0,7.07,11.69,42.47,42.47,0,0,0,8.45,8.93l.11.11.11.1a1.49,1.49,0,0,0,.54.34,1.53,1.53,0,0,0,1.28.73,40.6,40.6,0,0,0,15-2.86,34.37,34.37,0,0,0,3.7-1.8l0,.26.18,1.06a1.11,1.11,0,0,1,0,.17,1.27,1.27,0,0,0-.55.16c-2.25,1.05-4.67,2.16-7.13,3.21l-.09.05c-2.93,1.2-5.52,2.15-7.93,2.9a82.67,82.67,0,0,1-9.13,2.15,1.22,1.22,0,0,0-.9,1.19,1.1,1.1,0,0,0,.11.5A76.64,76.64,0,0,0,518,334c-.21.22-.42.43-.62.65a2.09,2.09,0,0,1-.4.55,32.3,32.3,0,0,0-2.32,2.63l-.1.14a4,4,0,0,1-.55.6l0,.06a33.29,33.29,0,0,0-3.11,4.58c-.37-.81-.77-1.61-1.18-2.41a1.39,1.39,0,0,0-1.28-.73,1.55,1.55,0,0,0-.75.19,1.4,1.4,0,0,0-.59.66,30.71,30.71,0,0,0-3.33-1l-1.13-.28h0l.07,0a1.19,1.19,0,0,0,.54-.7,9.24,9.24,0,0,0,.09-2.31,6.71,6.71,0,0,0-.55-2.1,4.51,4.51,0,0,0-2.29-2.39,5.11,5.11,0,0,0-1.8-.43h-.25a5.86,5.86,0,0,0-1.53.23,7.53,7.53,0,0,0-1.22.44l-.43-1-.14-.32-.24-.56a2,2,0,0,1-.36-.45,21.18,21.18,0,0,1-1.56-3.26,17.88,17.88,0,0,1-.77-2.42c-.15-.34-.3-.69-.44-1-1.63-3.85-2.92-7.1-4.06-10.2a1.79,1.79,0,0,0-.77-1l-.1-.05a1,1,0,0,0,.09-.41,1.1,1.1,0,0,0-.77-1.06,13.87,13.87,0,0,0-1.38-1.71,5.75,5.75,0,0,0-1.61-1.18,3.25,3.25,0,0,0-1.45-.37h-.12a2.6,2.6,0,0,0-1.61.64,3.88,3.88,0,0,0-1.13,3,7.64,7.64,0,0,0,.33,2c0,.13.08.27.13.41a8.6,8.6,0,0,0-.38,2.2,8,8,0,0,0,.16,1.79,10.33,10.33,0,0,0,.5,1.82,21.43,21.43,0,0,0,1.68,3.61c.32.58.66,1.15,1,1.72a15.24,15.24,0,0,0,1.21,1.68,1.12,1.12,0,0,0,.87.37,1.29,1.29,0,0,0,.65-.17,1.24,1.24,0,0,0,.57-1.41,16.6,16.6,0,0,0-1.62-3.1l-.39-.63a28.82,28.82,0,0,1-1.88-3.45l-.08-.17-.1-.28-.14-.4c.75,1.3,1.54,2.52,2.38,3.74.59,1.4,1.23,2.84,2,4.41.79,1.73,1.55,3.32,2.33,4.86l.13.25.12.25a.82.82,0,0,0-.25-.16,5.68,5.68,0,0,0-2.19-.6h-.18a3.52,3.52,0,0,0-1.81.52,4.58,4.58,0,0,0-1.55,1.76,11.5,11.5,0,0,0-1,3.19,1.08,1.08,0,0,0,.09.74l-.34-.08-3.48-.67a1.14,1.14,0,0,0-.16-.8,1.36,1.36,0,0,0-.8-.62,7.73,7.73,0,0,0-2.72-.54,4.69,4.69,0,0,0-2.3.56,3.93,3.93,0,0,0-1.48,1.47,5,5,0,0,0-.64,2.2,6.26,6.26,0,0,0,.21,2.11,7.56,7.56,0,0,0,.93,2.19,7.41,7.41,0,0,0,.65.9,5.14,5.14,0,0,0-.39,1,5,5,0,0,0-.16,1.49,4.77,4.77,0,0,0,.39,1.56,4.89,4.89,0,0,0,2.62,2.49,6.32,6.32,0,0,0,.27,3.63,5.58,5.58,0,0,0,.75,1.37,5,5,0,0,0,.62.7,7,7,0,0,0,.75.6,4.27,4.27,0,0,0,.91.49,4.87,4.87,0,0,0,0,1.08,107.51,107.51,0,0,0-2.9,15.7c-.3,3.27-.46,8.11,1.49,12.33a10.7,10.7,0,0,0,2.94,3.82,13.15,13.15,0,0,0,5,2.47,21.5,21.5,0,0,0,5.35.61c.48,0,.95,0,1.43,0a43.3,43.3,0,0,0,8.89-1.39,1.38,1.38,0,0,0,.84-.66,1.39,1.39,0,0,0-1.2-2.13,1.94,1.94,0,0,0-.4,0c-1.6.29-2.9.49-4.09.65h.21a48.26,48.26,0,0,1-5.49.37,25.31,25.31,0,0,1-3.09-.18,15.66,15.66,0,0,1-3.6-.93,11.64,11.64,0,0,1-2-1.17,9.35,9.35,0,0,1-1.54-1.54,10.88,10.88,0,0,1-1.19-2.05,16.19,16.19,0,0,1-1-3.68,39,39,0,0,1,.26-9.84l0-.18s0,0,0,0l0-.07c.38-2.71.92-5.57,1.71-9a4.4,4.4,0,0,0,.84.71,5.27,5.27,0,0,0,.74.42,1.39,1.39,0,0,0-.1.27,5.87,5.87,0,0,0,.05,3.4,5.45,5.45,0,0,0,2,2.68,5.9,5.9,0,0,0,1.43.75s0,.11,0,.17a5.52,5.52,0,0,0,.64,3,5.33,5.33,0,0,0,2.18,2.1c.22.12.45.22.68.32a4.8,4.8,0,0,0-.24.7,5,5,0,0,0,.27,3.35,3.83,3.83,0,0,0,.86,1.19,4.45,4.45,0,0,0,1.5.95,5.19,5.19,0,0,0,1.54.38,4.52,4.52,0,0,0,.36,3.46,3.63,3.63,0,0,0,.77.92,4.75,4.75,0,0,0,1.4.83,6.3,6.3,0,0,0,2.5.46l.63,0a1.25,1.25,0,0,0,1-.6c1,.33,2,.71,3.25,1.23l.11,0,.11,0,.4.17.17.07a.92.92,0,0,0,.29,0,1.45,1.45,0,0,0,.3,0,1.12,1.12,0,0,0,.79-.88l.27.29a23.9,23.9,0,0,0,6.35,4,29,29,0,0,0,7.49,2.14,26.16,26.16,0,0,0,3.57.25,20.36,20.36,0,0,0,4-.39,12.93,12.93,0,0,0,1.91-.57,8.65,8.65,0,0,0,1.1-.49,1,1,0,0,0,.2.25,1.94,1.94,0,0,0,1.26.53l.68.07a6.06,6.06,0,0,1-.51,1.71,74.11,74.11,0,0,1-7.2,12.05c-.75,1.07-1.48,2.14-2.2,3.21a46.72,46.72,0,0,0-4.17,7.34,23.48,23.48,0,0,0-1.38,4.06,19.09,19.09,0,0,0-.5,4.35,21.64,21.64,0,0,0,2,8.93c-5.28-2.79-10.85-5.41-16.55-7.83a217.39,217.39,0,0,0-23.95-8.58,120.67,120.67,0,0,0-14.75-3.34,90.15,90.15,0,0,0-14.25-1.21h-.41a1.41,1.41,0,0,0-1.41,1.41,1.43,1.43,0,0,0,.41,1,1.54,1.54,0,0,0,1,.41c1.73.16,3.61.38,6.11.7a211.7,211.7,0,0,1,23.83,4.83,189.55,189.55,0,0,1,24,7.94c1.07.43,2.13.87,3.2,1.32a173,173,0,0,1,16.1,7.81,1.44,1.44,0,0,0,1,.93q1.8.34,3.6.72a45.58,45.58,0,0,0-5.22,11l0,.15,0,.13c-1.53-1.78-2.94-3.47-4.21-5.05-.49-.62-1-1.23-1.46-1.86l-.16-.21-.17-.22a.63.63,0,0,0-.34-.26.32.32,0,0,0-.15,0,.55.55,0,0,0-.29.08.61.61,0,0,0-.28.41.42.42,0,0,0,.07.37c2.11,2.79,4.32,5.52,6.59,8.13a42.43,42.43,0,0,0-1.06,4.7l-.12.68c-.65-.81-1.27-1.57-1.88-2.35l-.12-.11h0a.86.86,0,0,0-.51-.42.72.72,0,0,0-.22,0,.82.82,0,0,0-.44.11.85.85,0,0,0-.4.51.86.86,0,0,0,.09.67c1.07,1.39,2.13,2.71,3.17,3.92a24.39,24.39,0,0,0-.15,3.77,1.27,1.27,0,0,0,1.25,1.25,1.25,1.25,0,0,0,1.24-1.25l0-.58,0-.59.62.68a.87.87,0,0,0,.64.26.9.9,0,0,0,.64-.26.91.91,0,0,0,0-1.28c-.58-.59-1.16-1.19-1.72-1.8.05-.57.12-1.16.19-1.75.19-1.31.43-2.62.73-3.89.87,1,1.83,2.07,2.9,3.19l.47.5c-.43,2-.78,4.14-1.05,6.38a54.43,54.43,0,0,0-.41,8.31c0,.75.06,1.49.13,2.24,0,.14,0,.29,0,.44-.67-.56-1.38-1.1-2.1-1.64l-.16-.12-.2-.15c-1.87-1.39-3.82-2.71-5.49-3.83-3.61-2.44-7.54-4.9-11.7-7.3a158.86,158.86,0,0,0-25.24-11.94,94,94,0,0,0-17.62-4.62l.38-.52c.3-.43.61-.85.92-1.27a1.62,1.62,0,0,0,.18-1.28,1.7,1.7,0,0,0-.76-1,1.63,1.63,0,0,0-.84-.23,1.46,1.46,0,0,0-.44.06,1.71,1.71,0,0,0-1,.76l-.08.1-.08.1c-5,6.35-8.65,13.65-11.28,19.3-1.48,3.17-2.93,6.65-4.68,11.28-1.45,3.83-2.79,7.73-4,11.59a169.72,169.72,0,0,0-4.87,19.92,115.89,115.89,0,0,0-1.94,18.38,1.12,1.12,0,0,0,.09.44l-.5-.06c-1.63-.14-3.17-.28-4.7-.48a77.7,77.7,0,0,1-9-1.84,67,67,0,0,1-8.78-3c-1.25-.53-2.49-1.1-3.7-1.69a5.78,5.78,0,0,0,.36-.61l.16-.31c.39-.73.75-1.47,1.11-2.22.66-1.39,1.29-2.88,2-4.69,1.08-2.7,2.09-5.67,3.18-9.34.91-3.08,1.8-6.35,2.62-9.71.43-1.77.84-3.55,1.25-5.33l.07-.29c.33-1.44.67-2.88,1-4.31l.23-.93.06-.29c1.46-6.12,3-12.44,4.73-18.6a165.65,165.65,0,0,1,6.51-18.93A84.8,84.8,0,0,1,438.74,423a65.27,65.27,0,0,1,5-5.77,1.09,1.09,0,0,0,0-1.55,1.1,1.1,0,0,0-1.55,0,74.22,74.22,0,0,0-11.6,15.51,115.17,115.17,0,0,0-8.12,18c-2.35,6.54-4.26,13.18-6,19.39q-.89,3.21-1.75,6.43l-.1.35c-1.15,4.24-2.34,8.63-3.59,12.92-1.5,5.16-2.86,9.82-4.41,14.59-.77,2.36-1.56,4.7-2.36,7l-1.2,3.46-.13.38c-.33.91-.69,1.94-1,2.94l-.06.11a1.5,1.5,0,0,0-.13,1,1.35,1.35,0,0,0,.62.8l.18.09a1,1,0,0,0,.23.16c.8.41,1.62.81,2.43,1.2a15.4,15.4,0,0,1-2.2,2.08,39.48,39.48,0,0,1-4.41,2.82c-2,1.11-3.95,2.1-5.8,3-1.49.73-3,1.43-4.5,2.14-2.82,1.32-5.66,2.66-8.4,4.08-2.19,1.14-4.13,2.25-5.91,3.4a34.49,34.49,0,0,0-5,3.92c-1.81,1.71-4.76,5.23-4.28,9.59a10.81,10.81,0,0,0,.48,2.3,14.77,14.77,0,0,0,1.11,2.43,21.68,21.68,0,0,0,3.89,4.82,1.68,1.68,0,0,0,.43.3,1.21,1.21,0,0,0,1.17.92h.78a43.23,43.23,0,0,0,15.62-3.12,96.75,96.75,0,0,0,14.71-7.56c1.18-.7,2.36-1.42,3.53-2.14l.1-.07h0a131.43,131.43,0,0,1,16.84-9.17l.06,0,.06,0a51.48,51.48,0,0,1,9.2-2.86,1.48,1.48,0,0,0,.77.52,1.44,1.44,0,0,0,.37,0,1.47,1.47,0,0,0,1.47-1.1,20.23,20.23,0,0,0-.73-10l-.09-.22a1.05,1.05,0,0,0,.13-.54,1.29,1.29,0,0,0-.37-.91,1.18,1.18,0,0,0-.61-.33,1,1,0,0,0,.21-.62,107.13,107.13,0,0,1,.9-11.3l0-.32a155.22,155.22,0,0,1,4-19.45,164,164,0,0,1,6.87-20.12l-.12.2A163.64,163.64,0,0,1,452.83,458c1.2-2.16,2.53-4.38,4.06-6.79.39-.62.78-1.22,1.18-1.82a1,1,0,0,0,.46.23,96.82,96.82,0,0,1,23,6.71,174.18,174.18,0,0,1,21.89,11.34c3.22,1.93,6.63,4.11,10.42,6.63l2.19,1.46.88.59,1.8,1.2,2.39,1.57c.43.29.86.56,1.3.84l.49.29c.27.16.55.32.8.5v.11l-.06.08c-2.66,3.44-5.28,6.89-7.91,10.34s-5.25,6.91-7.91,10.34l.16-.17c-6.59,8.49-11.81,14.88-16.92,20.66a211.14,211.14,0,0,1-18.87,19c-3.08,2.7-6.26,5.38-9.34,8-3.41,2.88-6.94,5.85-10.34,8.86a133.88,133.88,0,0,0-17.88,18.74c-1.06,1.38-2,2.76-2.94,4.09a1.29,1.29,0,0,0-.17,1,1.49,1.49,0,0,0,.68.95,1.43,1.43,0,0,0,.73.2,1.58,1.58,0,0,0,.38-.05,1.57,1.57,0,0,0,.85-.66c.74-1,1.48-2,2.24-3a121.29,121.29,0,0,1,8.3-9.53c2.69-2.77,5.73-5.66,9.3-8.84s7.05-6.11,10.53-9c3-2.54,6.1-5.15,9.1-7.79,3.36-3,6.57-6,9.54-8.94s6-6.24,9.15-9.78c5.05-5.71,10.25-12.05,16.83-20.57l.15-.19.08-.11c3-3.88,6-7.85,8.91-11.69l3.29-4.34c1-1.27,1.93-2.53,2.9-3.8l.06-.1h0l1.42-1.85.16-.21.65-.85a.65.65,0,0,0,.16-.21c1-1.24,1.93-2.48,2.9-3.71a1.6,1.6,0,0,0,.42-1,1.43,1.43,0,0,0-1.44-1.44,1.38,1.38,0,0,0-1,.42l-2.41,3.09a1.39,1.39,0,0,0-.25-.23c-.18-.18-.38-.35-.57-.52,0-.78,0-1.62,0-2.36,0-.39,0-.72,0-1.06,0-1.21,0-2.42,0-3.58a71.63,71.63,0,0,1,.58-7.38c.13-.92.28-1.91.46-2.9,3.07,3.15,6.54,6.42,10.61,10l.57.52c.71.63,1.36,1.2,2.05,1.73a.85.85,0,0,0,.47.13.93.93,0,0,0,.65-.27,1,1,0,0,0,.27-.7.84.84,0,0,0-.28-.61c-.38-.34-.79-.66-1.2-1l-.47-.37-1.81-1.47c-1.18-1-2.32-2-3.39-2.9-2.24-2-4.43-4-6.51-6.05l-.65-.64a63.44,63.44,0,0,1,3.48-11.44l.05-.11,0-.12a51.49,51.49,0,0,1,2.47-5A.73.73,0,0,0,532,442l4.45,1.19A137.73,137.73,0,0,1,553.59,449,76,76,0,0,1,570,458.18c1.22.95,2.41,2,3.56,3,.64.6,1.48,1.4,2.32,2.27a.72.72,0,0,0-.09.2c-.77,2.33-1.66,4.67-2.63,7a111.59,111.59,0,0,1-14.49,24.26c-8.43,10.91-18.38,20.65-28.68,30.49-1.29,1.24-2.6,2.47-3.9,3.71-8.7,8.28-17.7,16.83-25.68,26.08-2.32,2.7-4.55,5.54-6.7,8.29l-.19.25c-2.86,3.66-5.7,7.19-8.45,10.5s-5.66,6.81-8.62,10.28l-3.36,4c-1.78,2.1-3.55,4.2-5.35,6.29l-2,2.33-2.94,3.43-.38.44c-1.29,1.48-2.61,3-3.88,4.55l-.13-.08a40.34,40.34,0,0,1-5.93-3.83l.28.23a104.06,104.06,0,0,1-8.88-8.11l-2.18-2.14c-2.16-2.09-3.88-3.62-5.55-5a33.68,33.68,0,0,0-6.29-4.11,1.23,1.23,0,0,0-.55-.13,1,1,0,0,0-.91.52.77.77,0,0,0-.1.25l-.24-.23a85.46,85.46,0,0,0-9.53-7.48,38.81,38.81,0,0,0-4.93-2.8,22.5,22.5,0,0,0-5.06-1.73,14.87,14.87,0,0,0-2.77-.28,12.37,12.37,0,0,0-2.3.22,10.57,10.57,0,0,0-4.57,2.15,14.88,14.88,0,0,0-3.42,4,27.19,27.19,0,0,0-2.65,5.82h0a1.2,1.2,0,0,0-.65.18,1.36,1.36,0,0,0-.49,1.84c3,5.63,8.66,9.16,12.68,11.33,1.49.8,3,1.55,4.52,2.28,1,.49,2,1,2.95,1.48,1.49.75,2.7,1.42,3.81,2.11a45.26,45.26,0,0,1,3.72,2.59,89.88,89.88,0,0,1,9.32,9l.11.12c1.53,1.62,3,3.21,4.63,4.77a65.09,65.09,0,0,0,5.48,4.75,1.18,1.18,0,0,0,.61.16.52.52,0,1,1,1,.27,1.72,1.72,0,0,0,1,.78,1.52,1.52,0,0,0,.42.06,2.17,2.17,0,0,0,.89-.23,20,20,0,0,0,4.59-3.14,27.39,27.39,0,0,0,3.72-4.1,25.75,25.75,0,0,0,4.51-9.8c.43.26.87.5,1.32.74a1.63,1.63,0,0,0,.44.15,1.44,1.44,0,0,0,.29.45,1.41,1.41,0,0,0,1,.4,1.53,1.53,0,0,0,1-.4c1.65-1.54,3.23-3.15,4.83-4.79s3.14-3.23,4.69-4.87c2.75-2.92,6-6.38,9.07-9.91,2.93-3.35,5.84-6.8,8.65-10.25,2.5-3.07,5.11-6.4,8.47-10.8.7-.92,1.4-1.85,2.09-2.78s1.52-2,2.3-3c8.24-10.62,17.7-20.11,28.32-30.51l2.47-2.41c9.05-8.85,18.41-18,26.56-28a134.71,134.71,0,0,0,12-17,101.87,101.87,0,0,0,8.75-19h.07a1.28,1.28,0,0,0,.69-.17,1.35,1.35,0,0,0,.61-.78,1.54,1.54,0,0,0,.82-.58,16.1,16.1,0,0,0,1.35-2.63,19.14,19.14,0,0,0,.94-2.91,1,1,0,0,0-.07-.67,17.14,17.14,0,0,0,3.85-2.15,22.06,22.06,0,0,0,3.28-3,24.39,24.39,0,0,0,2.65-3.6,30,30,0,0,0,2-4.1A45.27,45.27,0,0,0,596.6,436c.7-3.48,1.09-6.91,1.35-9.52.15-1.48.28-3,.4-4.45a16,16,0,0,1-1.76-.63c-.4-.17-.8-.34-1.19-.53-.2,2.29-.43,4.61-.73,6.89a59.89,59.89,0,0,1-3.76,15.16,31.94,31.94,0,0,1-3.72,6.54,23.14,23.14,0,0,1-3.82,3.84c-.65.49-1.37,1-2.29,1.55a1.65,1.65,0,0,0-.57.63l-.19-.22c-.53-.51-1.1-1-1.76-1.59-1.13-.95-2.37-1.92-3.8-2.95a78.39,78.39,0,0,0-8.32-5.18,109.52,109.52,0,0,0-19-8,104,104,0,0,0-14.66-3.48,74.83,74.83,0,0,0-11.72-1l-2,0a1.34,1.34,0,0,0-.32.05l-.06-.18a26.27,26.27,0,0,1-1.39-5.2,20,20,0,0,1,0-4.89,24.27,24.27,0,0,1,1.61-5.68,62,62,0,0,1,5.81-9.82l1.31-1.94c1.13-1.69,2.59-3.94,3.84-6.25a40.43,40.43,0,0,0,2.84-6.45c9.68,1.45,19.18,4.45,28.37,7.36l.79.25c5.21,1.64,9.93,3.1,14.79,4.37a11.43,11.43,0,0,1-1.2-3.45c0-.23-.08-.47-.11-.71-4.13-1.15-8.12-2.39-11.9-3.57l-1.5-.47c-9.35-2.9-19-5.89-28.77-7.29l-2.55-.33a6.3,6.3,0,0,0,.65-.8,15.12,15.12,0,0,0,1.24-2,19.06,19.06,0,0,0,1.72-4.7,17.38,17.38,0,0,0,0-7.29,55.64,55.64,0,0,0,6.51,2.67.28.28,0,0,0,0,.18,21.79,21.79,0,0,1-.13,3.22,23,23,0,0,1-.55,2.64c-.27,1-.63,1.93-1,2.83a1.15,1.15,0,0,0,.52,1.29,1.16,1.16,0,0,0,1.56-.41A16.29,16.29,0,0,0,542.8,382a19.59,19.59,0,0,0,.44-4.45,108.94,108.94,0,0,0,10.9,2.71,175.2,175.2,0,0,0,21,2.76,23.39,23.39,0,0,1,.51-3.44l-.77-.07-2-.19c-5.56-.53-9.87-1-13.95-1.55-6.29-.85-14.47-2.24-22-5.34a4.55,4.55,0,0,0,.63-1.42,14.7,14.7,0,0,0,.32-1.51,33.23,33.23,0,0,0,.37-3.41,48.23,48.23,0,0,0,0-6.34,64.58,64.58,0,0,0-2.13-12.61,1.58,1.58,0,0,0-1.51-1.14,1.7,1.7,0,0,0-.41.05,1.57,1.57,0,0,0-1.08,1.91c.44,1.61.81,3.29,1.13,5-.39-.65-.83-1.28-1.27-1.91-1.51-2.12-3.14-4.21-4.4-5.79a.93.93,0,0,0-.68-.28,1,1,0,0,0-1,1,1,1,0,0,0,.28.68l.54.7c1.44,1.87,2.69,3.57,3.8,5.21.58.87,1.14,1.75,1.7,2.64.2.33.4.67.59,1,.35.58.7,1.17,1.08,1.74,0,.27,0,.55.07.83a1,1,0,0,0-.26.16c-1.22,1-2.36,2.13-3.72,3.45q-1.8,1.75-3.57,3.55l-.1-.13a24.51,24.51,0,0,0-6-5,1.65,1.65,0,0,0-.76-.19,1.46,1.46,0,0,0-1.28.73l-.07.14c-.81-1.9-1.71-3.95-2.84-6.48-1.46-3.26-3-6.55-4.57-9.78a.31.31,0,0,0,.13-.09c.54-.66,1.07-1.33,1.6-2l.13-.16c.58-.74,1.17-1.48,1.78-2.2,1.26-1.5,2.59-3,4-4.4a80.61,80.61,0,0,1,8.57-7.63l.13-.1.47-.36a1.48,1.48,0,0,0,.62-.81,1.16,1.16,0,0,0,0-.18,40.68,40.68,0,0,0,11.31-2.55c1.82-.67,3.74-1.46,6-2.5a30.78,30.78,0,0,0-3.1,4.67,32.48,32.48,0,0,0-2.81,6.78,26.23,26.23,0,0,0-.7,3.53c-.07.54-.11,1.1-.14,1.72a12,12,0,0,0,.06,1.49v.18a1.14,1.14,0,0,0,.16.55.45.45,0,0,0,0,.12,1.4,1.4,0,0,0,.41,1,1.44,1.44,0,0,0,1,.41,1.32,1.32,0,0,0,1-.41,14.3,14.3,0,0,1,2.23-2.24,18.13,18.13,0,0,1,3.5-2,26.83,26.83,0,0,1,6.7-1.73l.89-.11a3.64,3.64,0,0,0,.35.45,1.15,1.15,0,0,0,.87.37,1.25,1.25,0,0,0,.64-.17,1.11,1.11,0,0,0,.43-.43,1.1,1.1,0,0,0,.5.27,1.41,1.41,0,0,0,.35.05,2,2,0,0,0,.74-.19l.11-.05.11-.05c.68-.27,1.37-.52,2.06-.74-.15-.26-.29-.52-.43-.78a16.72,16.72,0,0,1-1.1-1.68,17.85,17.85,0,0,1-.92-1.86c-.63.93-1.27,1.91-1.92,2.95a23.53,23.53,0,0,1-1.16-2.22,13.75,13.75,0,0,1-.88-3.18,16.51,16.51,0,0,1-.11-1.68,1.22,1.22,0,0,0-1.21-1.22A1.24,1.24,0,0,0,553,327.2a16.93,16.93,0,0,0,.72,4.81,14.72,14.72,0,0,0,.73,1.91,18.86,18.86,0,0,0-2.6.26,21,21,0,0,0-4.18,1.1,17.74,17.74,0,0,0-5.22,3c.17-.67.34-1.41.56-2.26a38.71,38.71,0,0,1,1.6-4.72,36.23,36.23,0,0,1,4.4-7.59,27.8,27.8,0,0,1,3.13-3.38c-.06.57-.12,1.14-.17,1.72,0,.4-.07.81-.11,1.21a1.3,1.3,0,0,0,.94,1.24,1.75,1.75,0,0,0,.33,0,1.29,1.29,0,0,0,1.25-.94,15.29,15.29,0,0,0,.34-2.7,21.24,21.24,0,0,0,0-2.61V318a1.43,1.43,0,0,0-.12-1.15,31,31,0,0,0-.65-3.3l.26-.17a27,27,0,0,0,4.53-4.1,10.45,10.45,0,0,1,.41-2.49,19.47,19.47,0,0,1,2.14-4.77,28.48,28.48,0,0,1,2.12-3c.32-.54.66-1.08,1-1.59a28.68,28.68,0,0,0,.49-4.65,27.78,27.78,0,0,0-.54-6.46.87.87,0,0,0-.85-.64.85.85,0,0,0-.62.26.82.82,0,0,0-.25.61v.57c0,1,0,2,0,3s-.11,2-.24,3.13a29.7,29.7,0,0,1-1.87,7.14,26.48,26.48,0,0,1-3.24,5.57,27.38,27.38,0,0,1-4.39,4.35,29.35,29.35,0,0,1-6.12,3.54,35.69,35.69,0,0,1-8.66,2.31,43.15,43.15,0,0,1-4.79.35,7.17,7.17,0,0,1-.74-.85l-.14-.17-.4-.5-.41-.51c-.54-.67-1.07-1.35-1.6-2a145.83,145.83,0,0,1-8.92-13.1,123.07,123.07,0,0,1-7.91-15.34l-.1-.21a84.47,84.47,0,0,1-5.9-20.68l0-.19,0-.17a45.72,45.72,0,0,1-.38-5.8A146.39,146.39,0,0,1,543,247.73h0c4-.53,8.13-.94,12.13-1.19A50.87,50.87,0,0,0,556.29,258a54.69,54.69,0,0,0,1.65,6.15,30.13,30.13,0,0,0,2.23,5.25,1.25,1.25,0,0,0,.37.77,1.23,1.23,0,0,0,.9.38,1.44,1.44,0,0,0,.41,0,1.26,1.26,0,0,0,.89-1.34,11.77,11.77,0,0,1,.76-2.79,13.86,13.86,0,0,1,1.6-2.72,12,12,0,0,1,1.89-1.89,10.29,10.29,0,0,1,1.71-1,7.3,7.3,0,0,1,1.38-.38l.54,0,.57,0a7.12,7.12,0,0,1,.89.25,6,6,0,0,1,.91.54,8,8,0,0,1,1.07,1.1,11.93,11.93,0,0,1,1.22,2.12,9.86,9.86,0,0,1,.62,2.21,11.55,11.55,0,0,1,0,2.2,13,13,0,0,1-.73,2.58,17,17,0,0,1-1.93,3.25,24.78,24.78,0,0,1-4.14,4.11,26.61,26.61,0,0,1-4.8,2.89,1.45,1.45,0,0,0-.67,1.65,1.51,1.51,0,0,0,.75.92c1,3.48,1.86,7,2.63,10.53a5.5,5.5,0,0,1,1-.65,7.26,7.26,0,0,1,1.54-.61l.14,0c-.7-3.25-1.52-6.57-2.47-9.91a20,20,0,0,0,1.93-1,2.56,2.56,0,0,1,.86-.58,3.47,3.47,0,0,1,.46-.27,28.21,28.21,0,0,0,2.59-2,19.16,19.16,0,0,0,5.38-7.73,12.17,12.17,0,0,0,.71-4.5,12,12,0,0,0-1.28-4.82,12.16,12.16,0,0,0-1.4-2.14,8.73,8.73,0,0,0-1.74-1.66,15,15,0,0,0,1-2.45c.29-.84.54-1.73.83-2.92a41.36,41.36,0,0,0,1-6.49,28.59,28.59,0,0,0-.27-6.29,14.69,14.69,0,0,0-1.82-5.33,10.18,10.18,0,0,0-2.07-2.52,10.77,10.77,0,0,0-1.44-1.07,11.64,11.64,0,0,0-1.75-.85,12.79,12.79,0,0,0-3.74-.75q-.51,0-1,0a21,21,0,0,0-3.4.3,1.18,1.18,0,0,0-.47-.59,29,29,0,0,0-7.16-3,46.38,46.38,0,0,0-8.06-1.52,98.68,98.68,0,0,0-10.84-.49c-1.69,0-3.37,0-5,0h-2.44c-1.35,0-2.7,0-4.06,0a94.29,94.29,0,0,1-12-.63,38.11,38.11,0,0,1-9.41-2.42,25.52,25.52,0,0,1-5-2.88,23.79,23.79,0,0,1-4-4c-.42-.57-.83-1.16-1.22-1.76s-.58-1-.86-1.45l-.36-.63a1.58,1.58,0,0,0-2.88.37m11.1,17.91c-.49-.31-1-.63-1.43-1a20.65,20.65,0,0,1-3.48-3.51,21.23,21.23,0,0,1-2.4-4.06,18,18,0,0,1-1.08-3.84v-.25a19.27,19.27,0,0,0,2.33,2.76,24.46,24.46,0,0,0,6.2,4.51c4.07,2.1,8.93,3.34,15.29,3.88,2.56.22,5.34.32,8.73.32,2.11,0,4.21,0,6.31-.08l1.72,0c1.83,0,3.65-.06,5.47-.06a98.23,98.23,0,0,1,11.23.55l.89.11a41,41,0,0,1,10.11,2.6c.38.16.76.32,1.13.5l.24.1a.71.71,0,0,0,0,.3,1.42,1.42,0,0,0,.65.85,1.27,1.27,0,0,0,.68.17l.4,0q.3-.06.6-.09a17.49,17.49,0,0,1,2.31-.16,15.59,15.59,0,0,1,1.67.1,11.26,11.26,0,0,1,2.3.61,9.55,9.55,0,0,1,1.54.89,7.82,7.82,0,0,1,1.22,1.22,10.68,10.68,0,0,1,1.13,2,15.79,15.79,0,0,1,.93,3.54,32.85,32.85,0,0,1-.17,8.39c-.19,1.31-.42,2.74-.74,4.37l-.13.66c-.21,1-.41,2.07-.54,3.09a5.54,5.54,0,0,0-1.57-.27h-.28a8,8,0,0,0-3.61,1,11.33,11.33,0,0,0-3.24,2.59,14.73,14.73,0,0,0-2.44,3.68c-.06.12-.11.24-.16.36-.57-1.77-1-3.1-1.34-4.31a61.9,61.9,0,0,1-1.9-8.8,39.16,39.16,0,0,1-.33-6.31,1.21,1.21,0,0,0-.1-.5A1.7,1.7,0,0,0,556,243a190.81,190.81,0,0,0-27.07,3.58,137.29,137.29,0,0,0-27,8.43,93.61,93.61,0,0,0-10,5.08l-1.06.63c1.12-1.52,2-2.74,2.87-3.84,1.78-2.27,3.64-4.42,5.52-6.4s3.63-3.61,5.45-5.33L506,244a1.5,1.5,0,0,0,.45-1.07,1.56,1.56,0,0,0-1.57-1.62,1.65,1.65,0,0,0-1.08.43,40.41,40.41,0,0,0-7.53-.67,50.77,50.77,0,0,0-5.14.27,62.07,62.07,0,0,0-6.93,1.08c-.5.11-1,.22-1.51.35,1.24-1.1,2.49-2.15,3.85-3.21l.08-.07.13-.1a61.94,61.94,0,0,1,5.93-4,58.12,58.12,0,0,1,6.56-3.28c.66-.28,1.3-.53,1.95-.77a1.32,1.32,0,0,0,.72-.56,1.16,1.16,0,0,0,.12-.93,1.24,1.24,0,0,0-1.16-.89,1.13,1.13,0,0,0-.32,0l-1,.34a.5.5,0,0,0-.12-.08m-7.52,108.35-.32,0-3-.48c-1.93-.31-3.87-.62-5.8-.95a.61.61,0,0,0,.31-.45,11.92,11.92,0,0,1,.61-2.2,5.39,5.39,0,0,1,.51-.88,3.09,3.09,0,0,1,.4-.41,2.16,2.16,0,0,1,.3-.18,1.67,1.67,0,0,1,.32-.08l.21,0,.23,0a3.28,3.28,0,0,1,.66.19,7.9,7.9,0,0,1,1.45.89,22,22,0,0,1,2.7,2.65c.37.41.71.84,1.05,1.26l.1.11.51.63Zm7.78,1.4-1.87-.37a16.15,16.15,0,0,0-1.06-3.59l-.21-.53.09,0,.1-.05a7,7,0,0,1,1.1-.31,3.1,3.1,0,0,1,.43,0,2.42,2.42,0,0,1,.38,0,2.91,2.91,0,0,1,.56.15,3.35,3.35,0,0,1,.45.27,4.16,4.16,0,0,1,.42.42,4.89,4.89,0,0,1,.36.63,6.42,6.42,0,0,1,.36,1.36,13.33,13.33,0,0,1,.06,1.64,1.14,1.14,0,0,0,.24.7l-1.41-.3m-27.51-.62a5.81,5.81,0,0,1,0-1,6.06,6.06,0,0,1,.16-.61,3,3,0,0,1,.21-.35l.22-.22a2,2,0,0,1,.29-.18l.48-.12H474a1.1,1.1,0,0,0,.83,1.06c4.68,1,9.48,1.81,14.12,2.58l.19,0,1.86.31c3.34.56,5.83,1,8.09,1.44l4,.8,1.08.23,1.5.32h-.1l-.19,0a1.08,1.08,0,0,0-.63.48,1,1,0,0,0-.1.82c1.32,3.35,2.81,6.7,4.25,9.93l.1.22c1,2.25,2,4.54,3,6.81v-.14c.32.88.69,1.75,1.05,2.62l.34.83c.28.65.55,1.3.82,2s.56,1.32.85,2c-.67-.41-1.37-.79-2.06-1.17a52.92,52.92,0,0,0-7.7-3.64,13.53,13.53,0,0,0-3.41-.74l-.38,0a6.54,6.54,0,0,0-2.59.6,3.78,3.78,0,0,0-1,.65,2.83,2.83,0,0,0-.71,1.1,2.17,2.17,0,0,0-.11.93,3.53,3.53,0,0,0,.36,1.26,4.81,4.81,0,0,0,.69,1.05,6.75,6.75,0,0,0-.52,1.37,7.07,7.07,0,0,0-.19,1.39,5.49,5.49,0,0,0,.46,2.42,5.69,5.69,0,0,0,.26.56.67.67,0,0,0-.06.3,10,10,0,0,0,.28,2.29,10.59,10.59,0,0,0,.82,2.17,9.29,9.29,0,0,0,.55,1,1,1,0,0,0-.34.35,1.2,1.2,0,0,0-.13,1,13.76,13.76,0,0,0,1.66,3c.2.27.4.52.61.77a24.29,24.29,0,0,0-3.11-1.19c-.55-1.36-1.21-2.72-1.84-4l-.11-.23-.55-1.15c-.93-1.95-1.86-3.89-2.82-5.83-2.15-4.38-4-8-5.68-11.33a218.2,218.2,0,0,0-11.57-20.37,96.12,96.12,0,0,1,12.6,3l2.18.64.65.2c1.22.36,2.44.73,3.67,1.08s2.3.63,3.29.86a21.67,21.67,0,0,0,3.5.58,1.34,1.34,0,0,0,1.27-1,1.37,1.37,0,0,0-.13-1,1.48,1.48,0,0,0-.78-.61,31.55,31.55,0,0,0-3.13-1l-.14,0c-1.17-.33-2.34-.63-3.52-.93-2.27-.58-4.53-1.14-6.81-1.68a119.17,119.17,0,0,0-13.95-2.56h0a1,1,0,0,0-.49.12.92.92,0,0,0-.36-.16,1.49,1.49,0,0,0-.43-.06,1.56,1.56,0,0,0-.83.22,1.39,1.39,0,0,0-.22.15ZM507,344.21l-.31-.78a1.14,1.14,0,0,0-.49-.63l-.13-.06a9.87,9.87,0,0,0,1.06.2l.28,0c1.56,3.18,3.15,6.67,4.84,10.67.93,2.2,1.85,4.48,2.76,6.75l.62,1.54.14.35c.28.7.57,1.41.86,2.11l-.08-.17c-.84-1.78-1.79-3.62-2.55-5.1L513.4,358c-2.38-4.68-4.36-8.88-6-12.86v0Zm-33.2,2.47a4.49,4.49,0,0,1-.54-.53,4.27,4.27,0,0,1-.3-.51,4.41,4.41,0,0,1-.15-.55,4.85,4.85,0,0,1,0-.66c0-.13,0-.22.06-.31a6.65,6.65,0,0,0,1.62.82.92.92,0,0,0,.25.05l.2.35.28.46a.83.83,0,0,0-.52.43,8.08,8.08,0,0,0-.37.79c-.19-.11-.36-.22-.53-.34m2.82,3.17a1,1,0,0,0,.78-.38l.61,1.14.41.73.13.23.23.43a.93.93,0,0,0-.36.34,10.46,10.46,0,0,0-.78,1.28l-.45-.31a4.8,4.8,0,0,1-.68-.67,4.1,4.1,0,0,1-.43-.75,5.84,5.84,0,0,1-.27-1,7,7,0,0,1,0-1.12,3.42,3.42,0,0,0,.79.08Zm3,6.72a1.14,1.14,0,0,0,1.08-.83.51.51,0,0,0,0-.13l.63,1.31.66,1.31a.35.35,0,0,0-.13.1c-.21.28-.41.55-.6.83-.22-.14-.45-.29-.67-.45a5.2,5.2,0,0,1-.71-.69,5,5,0,0,1-.37-.63c-.05-.15-.09-.3-.13-.45a1,1,0,0,0,0-.39l.18,0Zm53.15,13.84a17.21,17.21,0,0,1-1.76-1.16c-.53-.42-1.06-.89-1.63-1.44,1.26-1.25,2.41-2.43,3.51-3.59s1.69-1.82,2.34-2.59v.87c0,.44,0,.88,0,1.33,0,1.43-.07,2.83-.13,4l0,.68,0,.45c0,.29,0,.58,0,.87v.19a8.49,8.49,0,0,0,0,1.51l-.67-.36-.12-.06a1.46,1.46,0,0,0-.68-.17l-.22,0a1.36,1.36,0,0,0-.55-.59m-48.66-4.75a5.1,5.1,0,0,1-.66-.65,5.73,5.73,0,0,1-.35-.59c-.07-.22-.13-.44-.18-.67a5.61,5.61,0,0,1,0-.82,8.19,8.19,0,0,1,.23-.85,1,1,0,0,0,.64-.32l.18.44.21.43,1,2.12a1,1,0,0,0-.52.48,5.07,5.07,0,0,0-.32.61l-.27-.18m37.57,4.76a1.17,1.17,0,0,0,.33-.9,11.51,11.51,0,0,0-.86-3.24l-.16-.44c-.3-.8-.61-1.59-.93-2.39.43.31.89.62,1.43,1a46.76,46.76,0,0,1,3.72,3.44l.82.82a26.12,26.12,0,0,0,5.27,4.21,10.22,10.22,0,0,1,.48,1.92,17,17,0,0,1,0,3.84,18.8,18.8,0,0,1-1.22,4.34,26.62,26.62,0,0,1-1.36,2.64c-.21.37-.44.73-.67,1.09-.34.56-.72,1.14-1,1.73a1.35,1.35,0,0,0-.16.85c-1.29.32-2.29.53-3.25.68a24.79,24.79,0,0,1-3,.18,28.63,28.63,0,0,1-3.53-.23,29.29,29.29,0,0,1-7-1.93,23.58,23.58,0,0,1-4.9-2.83c-.25-.2-.5-.41-.73-.63a14,14,0,0,0,6.21,2.2,1.07,1.07,0,0,0,1-.76,1,1,0,0,0-.13-.83.88.88,0,0,0-.59-.45,21.78,21.78,0,0,1-3.65-1.12,18.43,18.43,0,0,1-3.79-2.18,14.11,14.11,0,0,1-2.42-2.4,10.11,10.11,0,0,1-1.18-2c-.07-.17-.14-.35-.2-.54a9.26,9.26,0,0,0,1.27,1.1,23.25,23.25,0,0,0,5.25,2.87A22.37,22.37,0,0,0,511.8,382c.33.05.65.09,1,.12a1.1,1.1,0,0,0,1-.8,1.05,1.05,0,0,0-.11-.83,1,1,0,0,0-.65-.49,32.47,32.47,0,0,1-7-2.09,19.26,19.26,0,0,1-3.93-2.23,11.53,11.53,0,0,1-1.84-1.75,7.94,7.94,0,0,1-.79-1.32,5.3,5.3,0,0,1-.31-1.15,5,5,0,0,1,0-1.09,4.67,4.67,0,0,1,.2-.82,8.06,8.06,0,0,0,.74.68,38.7,38.7,0,0,0,4.62,3.2c1.52.91,3.11,1.75,4.74,2.52.68.33,1.38.63,2.11.92a12.91,12.91,0,0,0,1.56.53.78.78,0,0,0,.22,0,.86.86,0,0,0,.24-1.68c-.32-.1-.62-.22-.92-.34a41.89,41.89,0,0,1-4.64-2.39,49.2,49.2,0,0,1-5.27-3.47.15.15,0,0,1,0,0s0,0,0,0a17.94,17.94,0,0,1-2.72-2.59,5.1,5.1,0,0,1-.44-.74c0-.09-.06-.18-.08-.26a.87.87,0,0,1,.24-.15,4.34,4.34,0,0,1,.93-.24l.32,0,.54,0a12.84,12.84,0,0,1,2.51.78c1.16.5,2.26,1.08,3.57,1.79s2.69,1.52,4.16,2.39c1.24.73,2.57,1.5,3.88,2.21a22.25,22.25,0,0,0,3.43,1.54,1.69,1.69,0,0,0,.5.08,1.92,1.92,0,0,0,1.8-1.39,1.86,1.86,0,0,0-.91-2.13h.06a1.37,1.37,0,0,0,1-.46m-2.24,0-.51-.23a17.81,17.81,0,0,0-.82-2.4c.08.19.17.39.26.58l.06.12a8.45,8.45,0,0,0,1.22,2l-.21-.08m-32,1a6,6,0,0,1-.63-.61,4.79,4.79,0,0,1-.34-.59,4.12,4.12,0,0,1-.19-.71,5.45,5.45,0,0,1,0-.7,1.22,1.22,0,0,0,.61-.74c.53,1.12,1.1,2.26,1.68,3.4a.67.67,0,0,0-.13.15l-.21.28a6.28,6.28,0,0,1-.78-.48m4.34,6.82h0a6.94,6.94,0,0,1-1.09-.29c-.21-.1-.41-.22-.61-.34a3.34,3.34,0,0,1-.32-.33,2.4,2.4,0,0,1-.23-.38,3.45,3.45,0,0,1-.12-.46,5.15,5.15,0,0,1,0-.68,4.83,4.83,0,0,1,.3-1.05l0-.11a1.06,1.06,0,0,0,.4-.08c.6,1.16,1.25,2.35,1.94,3.53a.55.55,0,0,0-.17.2Zm2.91,5.22a4,4,0,0,1-.61-.35,2.29,2.29,0,0,1-.27-.27,2.26,2.26,0,0,1-.16-.26c0-.13-.07-.26-.1-.39a4.3,4.3,0,0,1,0-.62,7.19,7.19,0,0,1,.2-.8c.67,1.15,1.29,2.09,1.92,3a7.31,7.31,0,0,1-1-.29m23,51.27a1.49,1.49,0,0,0,.28-.11,1.1,1.1,0,0,0,1.05.83c.69,0,1.34,0,2,0,1.53,0,3.1.06,4.68.18a7.76,7.76,0,0,0-.81,1.47c-1.18-.26-2.38-.5-3.58-.73a3.42,3.42,0,0,0-.44,0,1.66,1.66,0,0,0-.51.07c-1-.55-2-1.08-3-1.62l.08,0,.23,0m9.3,2.76c.25-.45.5-.88.76-1.28a.89.89,0,0,0,.15-.44l2.3.29L530,436c3.15.47,6.32,1.08,9.41,1.83-.11.43-.21.86-.31,1.29l-.09.39-.21.88c-3.71-1-7.6-2-11.87-2.9m26.34,7.75c-3.24-1.31-6.68-2.52-10.52-3.69L541,441c.28-.86.49-1.77.68-2.56a98.77,98.77,0,0,1,13.7,4.63c2.29,1,4.54,2,6.69,3.1-.21.82-.45,1.67-.75,2.65-2.36-1.2-5-2.37-8-3.59m-32.6,8.42a49.92,49.92,0,0,1,2-6,44.75,44.75,0,0,1,3.74-7l3.58.83a58.16,58.16,0,0,0-5.83,15.12l-.06.22-.08.36c-1.19-1.22-2.33-2.42-3.37-3.57M563.45,450l-.1-.06-.1-.05a17.89,17.89,0,0,0,.83-2.65c.88.5,1.78,1,2.66,1.51l-.12.29-.11.28a19.9,19.9,0,0,1-1,1.89c-.69-.42-1.39-.82-2.1-1.21m15,12.29c-.25-.35-.52-.7-.79-1-.52-.66-1.07-1.31-1.64-1.92a36.42,36.42,0,0,0-3.67-3.37,56.33,56.33,0,0,0-4.93-3.58,11.71,11.71,0,0,0,1.3-2.48c2.54,1.57,5,3.23,7.18,4.93.72.56,1.44,1.13,2.15,1.71l.71.59.39.33.32.26c.26.21.52.43.76.66-.16.54-.34,1.07-.56,1.62a21.83,21.83,0,0,1-1.2,2.34Z" fill="#161616"/><path d="M591.09,350.11c-.05,1.9-.13,4.09-.28,6.43a25.15,25.15,0,0,1,2.58-1.46c.09-1.73.15-3.39.19-5a1.15,1.15,0,0,0-.35-.86,1.24,1.24,0,0,0-.89-.39,1.25,1.25,0,0,0-1.25,1.24" fill="#161616"/><path d="M522.43,307a14.33,14.33,0,0,0-1.68.55l1.48,1.87c.1.13.19.25.27.37l.65-.18a1.35,1.35,0,0,0-.37-2.66,1.48,1.48,0,0,0-.35.05" fill="#161616"/><path d="M514.93,337.43a1.27,1.27,0,0,0,1.71-1.74l-.07-.11c-.57.6-1.12,1.21-1.64,1.85" fill="#161616"/><path d="M511.69,290c.19.51.39,1,.59,1.52a3.73,3.73,0,0,0,.16.35l.64-.93a.85.85,0,0,0-.3-1.16.83.83,0,0,0-.41-.12.9.9,0,0,0-.68.34" fill="#161616"/><path d="M486.56,235.91c-.9.77-1.77,1.56-2.61,2.39a2.74,2.74,0,0,1-.48.36c.7-.16,1.4-.29,2.12-.39,1.22-.16,2.45-.19,3.66-.4a.88.88,0,0,0,.65-.85.9.9,0,0,0-.65-.85,8.54,8.54,0,0,0-2.31-.27h-.38" fill="#161616"/><path d="M491.48,263.89a8.37,8.37,0,0,0,0,1.12,16.38,16.38,0,0,1,1.81-1.39,1,1,0,0,0-.89-.66.94.94,0,0,0-.91.93" fill="#161616"/><path d="M504.73,266.37c.06.62.14,1.25.22,1.88s.17,1.22.27,1.83c0,.13.07.26.11.38a7.79,7.79,0,0,0,.72-3.12,1,1,0,0,0-.75-1,1.07,1.07,0,0,0-.25,0,.86.86,0,0,0-.32.05" fill="#161616"/><path d="M540.54,317.07a.89.89,0,0,0,0,1.27,7.33,7.33,0,0,1,1,1,8,8,0,0,1,.79,1.36c.09.22.17.45.24.68a1,1,0,0,0,1.14.65.94.94,0,0,0,.65-1.15,8.15,8.15,0,0,0-2.5-3.79,1,1,0,0,0-.64-.26.86.86,0,0,0-.63.26" fill="#161616"/><path d="M513.52,294.35l0,.08a1.85,1.85,0,0,0,.3-1,1.67,1.67,0,0,0-1.5-1.68c.38.87.77,1.73,1.16,2.6" fill="#161616"/><path d="M492.11,329.6c0,.37.07.73.12,1.11a1,1,0,0,0,2,0c0-.27.09-.54.13-.81a21.24,21.24,0,0,1-1.49-3.12c-.21-.55-.4-1.11-.57-1.67a28,28,0,0,0-.18,4.49" fill="#161616"/><path d="M569.2,279.5a1.5,1.5,0,0,0-.9.7,1.48,1.48,0,0,0-.16,1.16,1.63,1.63,0,0,0,.7.91l.29.22a2.58,2.58,0,0,1,.87-.61,3.57,3.57,0,0,1,.78-.4l.44-.17.72-.47c-.51-.4-1-.8-1.57-1.19a1.33,1.33,0,0,0-.74-.2,2,2,0,0,0-.43.05" fill="#161616"/><path d="M623.78,422.92a21.47,21.47,0,0,1-2.42.81,13.56,13.56,0,0,0,2.29-.41,7,7,0,0,0,2.4-1.19,4.11,4.11,0,0,0,.59-.59,24.3,24.3,0,0,1-2.86,1.38" fill="#161616"/><path d="M489,466.8c-3.72.38-7.43,1-11.09,1.71C470.61,470,463.44,472,456.3,474c-3.28.94-6.55,1.9-9.83,2.82a1.28,1.28,0,0,0,.68,2.46c13.18-3.71,26.33-7.77,39.93-9.64,4.32-.57,8.66-.91,13-1.13a1,1,0,0,0,0-2c-1.15-.07-2.3-.11-3.44-.11a75.66,75.66,0,0,0-7.67.43" fill="#161616"/><path d="M585.28,459.88a1.29,1.29,0,0,0-1.28,1.27,1.27,1.27,0,0,0,1.28,1.27,218.25,218.25,0,0,1,24.93-.1c6.92.34,13.82,1,20.7,1.84-.43-.91-.85-1.82-1.23-2.75-2.29-.27-4.59-.52-6.88-.74-8-.78-16.07-1.21-24.12-1.21-4.47,0-8.94.13-13.4.42" fill="#161616"/><path d="M640.47,462.91c.51.51,1,1,1.59,1.46a1.75,1.75,0,0,1,.4,0,2.39,2.39,0,0,1,1.63.65c.32.3.65.58,1,.86l.59.41c8.56,1.36,17.09,2.9,25.62,4.48a1.11,1.11,0,0,0,1.36-.77,1.13,1.13,0,0,0-.78-1.37c-10.43-2.15-20.9-4.15-31.43-5.72l0,0" fill="#161616"/><path d="M674.13,442.52a1.07,1.07,0,0,0-.74,1.3c1.76,4.35,3.46,8.73,4.89,13.2q1.08,3.39,1.91,6.84c.29,1.21.55,2.44.78,3.67-2.31-2.34-4.56-4.74-6.88-7.07-1.59-1.58-3.2-3.13-4.88-4.62-.83-.74-1.67-1.46-2.53-2.16s-1.75-1.4-2.67-2a.9.9,0,0,0-1.09,1.42,31.72,31.72,0,0,1,3.14,3.51l-.1-.13c3.06,4,5.32,8.47,8,12.71a.86.86,0,1,0,1.49-.87c-1.73-2.8-3.3-5.7-5-8.49l-.52-.83c1.14,1.09,2.27,2.21,3.38,3.34,2.87,2.92,5.66,5.93,8.52,8.87a1,1,0,0,0,1.43,0,1,1,0,0,0,.3-.72,77.12,77.12,0,0,0-3.14-13.81c-.45-1.44-.93-2.87-1.43-4.29,1.2,1.88,2.38,3.78,3.52,5.7,1.41,2.37,2.76,4.79,4,7.24s2.48,5.08,3.6,7.67a1.29,1.29,0,0,0,.33.33.94.94,0,0,0,.7.09.92.92,0,0,0,.63-1.12,79.87,79.87,0,0,0-3.4-7.63c-1.26-2.52-2.63-5-4.06-7.43-2.83-4.84-5.9-9.51-8.95-14.2a1.12,1.12,0,0,0-.92-.53,1.26,1.26,0,0,0-.27,0m-8,14.11,0-.05,0,.05" fill="#161616"/><path d="M700.08,458.1a18,18,0,0,0-4,5.61c-1.07,2.22-1.83,4.56-2.68,6.86a1,1,0,0,0,1.43,1.1,1,1,0,0,0,.44-.58c.66-1.78,1.27-3.57,2-5.32a21.25,21.25,0,0,1,2.32-4.2c0,1,0,2.06,0,3.08a44.84,44.84,0,0,1-.12,6.24,1,1,0,0,0,0,.53,1,1,0,0,0,1.7.45,35,35,0,0,1,5.16-4.88l1.85-1.53-.27,1A44.19,44.19,0,0,1,706.2,472c-.08.18-.16.37-.25.55a1,1,0,0,0-.14.53,1.09,1.09,0,0,0,.3.74,1.17,1.17,0,0,0,.46.26,1,1,0,0,0,.81-.1,42.28,42.28,0,0,1,4.29-2.82c1.44-.83,2.93-1.58,4.44-2.29,3-1.45,6.14-2.76,9.14-4.28a1,1,0,0,0,.34-1.31.94.94,0,0,0-1.3-.34c-3,1.47-6.14,2.76-9.2,4.19a59.87,59.87,0,0,0-6.08,3.23c.26-.83.5-1.67.73-2.52a46.21,46.21,0,0,1,1.6-5.3l0-.08a1.05,1.05,0,0,0-.17-1.27,1.05,1.05,0,0,0-1.48,0,23.23,23.23,0,0,1-2.12,2.09c-.9.78-1.82,1.53-2.74,2.29-1.1.9-2.19,1.82-3.21,2.81,0-1.07,0-2.15-.06-3.22s-.05-2.11-.05-3.16a24.06,24.06,0,0,1,.14-2.68l0-.22a.92.92,0,0,0,0-.52,1,1,0,0,0-.45-.59.91.91,0,0,0-.48-.13,1,1,0,0,0-.71.29m-.58,12.66s0,0,0,.07v-.07m0,.1v0h0v0" fill="#161616"/><path d="M724.38,471.63a77,77,0,0,0-8.22,2.75,1,1,0,0,0-.57.44,1,1,0,0,0-.1.74,1,1,0,0,0,.44.58,1,1,0,0,0,.74.09q4-1.61,8.2-2.8a.93.93,0,0,0-.25-1.83l-.24,0" fill="#161616"/><path d="M581.69,468.48c-1.49,0-3,0-4.46,0a.82.82,0,0,0,0,1.64c3,.06,6.09.05,9.14.05,8.25,0,16.5,0,24.7,1.06l.22,0,1.46.22a2.11,2.11,0,0,1,1.25-.39,19.05,19.05,0,0,0,2.14-.11,19.75,19.75,0,0,0,2.28-.51,77.08,77.08,0,0,0-7.86-1.29c-3.18-.36-6.38-.55-9.58-.65-2.37-.08-4.73-.1-7.09-.1-4.07,0-8.13.07-12.2.08" fill="#161616"/><path d="M611.29,471.23h0" fill="#161616"/><path d="M575.3,475.22a.85.85,0,0,0,.83.83l8.88.44c3,.14,5.92.28,8.89.35a.81.81,0,0,0,0-1.62c-3-.16-5.92-.27-8.89-.4s-5.92-.28-8.88-.43h0a.84.84,0,0,0-.79.83" fill="#161616"/><path d="M576.49,481.41a.48.48,0,0,0,.14.34.54.54,0,0,0,.34.14c3,.22,5.92.5,8.87.86a.45.45,0,0,0,.32-.14.46.46,0,0,0,.13-.32.48.48,0,0,0-.13-.32.56.56,0,0,0-.32-.13c-3-.37-5.91-.68-8.87-.91h0a.49.49,0,0,0-.45.48" fill="#161616"/><path d="M595.5,448.29a.53.53,0,0,0,0,.74c3.67,3.65,7.5,7.15,11.52,10.43a.55.55,0,0,0,.36.15.52.52,0,0,0,.37-.88c-2-1.67-4-3.36-5.87-5.09s-3.8-3.53-5.64-5.35a.53.53,0,0,0-.37-.15.51.51,0,0,0-.37.15" fill="#161616"/><path d="M594.88,431.51a.64.64,0,0,0-.19.45.7.7,0,0,0,.19.45q4.9,6.21,10.24,12.07c1.8,2,3.65,3.9,5.53,5.79s3.78,3.76,5.77,5.54a.64.64,0,0,0,.9-.9c-1.89-1.8-3.77-3.59-5.61-5.43s-3.74-3.82-5.55-5.78q-5.43-5.9-10.38-12.19a.63.63,0,0,0-.9,0" fill="#161616"/><path d="M606.38,430.68c2.55,2.88,5.16,5.7,7.88,8.42a.67.67,0,0,0,1-1c-2.67-2.68-5.29-5.4-7.82-8.21q-3.07-3.42-6-7l-.66-.35-1.38-.3q3.39,4.28,7,8.36" fill="#161616"/><path d="M611.46,424.46a60.17,60.17,0,0,0,6.5,6.37.7.7,0,0,0,.46.18.63.63,0,0,0,.45-.18.65.65,0,0,0,0-.92,62,62,0,0,1-5.77-5.58c-.54.06-1.09.1-1.64.13" fill="#161616"/><path d="M524.2,57.92a1.4,1.4,0,0,0,0,1.95c2.69,3,5.57,5.76,8.45,8.54s5.79,5.46,8.67,8.19a151.4,151.4,0,0,1,15.77,16.76l-.09-.13a2.56,2.56,0,0,0,.2.26l.11.15-.07-.09A71.2,71.2,0,0,1,566,108.39a62.65,62.65,0,0,1,3.16,9.81c.9,3.84,1.58,7.72,2.11,11.63l0-.27c2.69,20.39,1.69,41,.41,61.47-.82,13.14-1.85,26.27-2.07,39.44a1.14,1.14,0,1,0,2.28,0c.35-20.35,2.68-40.6,3.62-60.92a292,292,0,0,0,0-30.75c-.3-5-.86-10-1.61-15-.36-2.39-.76-4.78-1.27-7.14a60.66,60.66,0,0,0-1.74-6.34,62,62,0,0,0-5.34-11.62,80.69,80.69,0,0,0-7.25-10.25,161,161,0,0,0-17.63-17.7c-2.41-2.15-4.84-4.27-7.27-6.4s-4.85-4.3-7.27-6.46a1.52,1.52,0,0,0-1-.4,1.33,1.33,0,0,0-.95.4m33,35.63,0-.06-.11-.13.15.19" fill="#161616"/><path d="M522.88,36a1.26,1.26,0,0,0-.45,1.72c.24.5.48,1,.7,1.5a25.68,25.68,0,0,1,1.75,6.32,21.09,21.09,0,0,1,0,4.83,18.19,18.19,0,0,1-1.15,4.28,17,17,0,0,1-1.85,3.21,15.53,15.53,0,0,1-2.53,2.53,16.05,16.05,0,0,1-3.27,1.88,19.12,19.12,0,0,1-4.35,1.15h0a1.38,1.38,0,0,0-.91.38,1.29,1.29,0,0,0-.37.9,1.33,1.33,0,0,0,.37.91,1.25,1.25,0,0,0,.91.38,23.63,23.63,0,0,0,4.41-1,18.88,18.88,0,0,0,3.75-1.76,17,17,0,0,0,5.49-5.45,18.16,18.16,0,0,0,2.53-7.34,21,21,0,0,0-3.29-14,1.33,1.33,0,0,0-1.1-.62,1.19,1.19,0,0,0-.62.17m-6.53,26.17-.08,0,.08,0" fill="#161616"/><path d="M548.85,13.5c0,.53-.08,1.05-.14,1.57a19.44,19.44,0,0,1-1.16,4.37,17.76,17.76,0,0,1-2,3.45A19.49,19.49,0,0,1,542.39,26a26.59,26.59,0,0,1-5.55,3.18,42.06,42.06,0,0,1-10.33,2.7l.36-.06a51.51,51.51,0,0,1-13.36,0q-1-.15-2-.33a1.36,1.36,0,0,0-1,.13,1.33,1.33,0,0,0-.6.79,1.3,1.3,0,0,0,.91,1.6,52.93,52.93,0,0,0,15.74.53,37.65,37.65,0,0,0,15.61-4.88,20.68,20.68,0,0,0,6.77-6.52,17.74,17.74,0,0,0,2.62-9.71,1.35,1.35,0,0,0-2.69,0m-1.34,6a.77.77,0,0,1-.07.16.77.77,0,0,0,.07-.16m-1.84,3.2-.08.1.08-.1" fill="#161616"/><path d="M536.53,30.85a1.54,1.54,0,0,0-.7.92,1.45,1.45,0,0,0,.15,1.17A112.23,112.23,0,0,0,551.8,50.49a77.48,77.48,0,0,0,9.55,7.29,57.77,57.77,0,0,0,5.08,2.89A39.75,39.75,0,0,0,571.85,63l.65.21a1.24,1.24,0,0,0,1-2.27,88.92,88.92,0,0,1-8-4.19,78.42,78.42,0,0,1-7.28-5,102.06,102.06,0,0,1-17.9-18.13l.09.13-.14-.19-.09-.12,0,0c-.53-.7-1.06-1.4-1.58-2.11a1.67,1.67,0,0,0-.91-.7,1.44,1.44,0,0,0-.41-.05,1.58,1.58,0,0,0-.77.2m21.38,20.69.3.23Zm-17.65-18,0,.06-.11-.13.06.07" fill="#161616"/><path d="M572.17,10.44c0,1.06.13,2.13.22,3.19s.21,2.31.31,3.47q.33,3.36.58,6.71.53,6.77.68,13.53a219.12,219.12,0,0,1-1,27c0,.44-.09.89-.13,1.33a1.17,1.17,0,0,0,.37.9,1.27,1.27,0,0,0,1.81,0,1.32,1.32,0,0,0,.37-.9,231.29,231.29,0,0,0,1.26-27q-.06-6.78-.49-13.54c-.28-4.5-.65-9-1.35-13.48-.08-.52-.18-1-.29-1.56a1.19,1.19,0,0,0-1.15-.88,1.21,1.21,0,0,0-1.2,1.2" fill="#161616"/><path d="M679.05,10.28c-3.64,58.64-7.6,117.27-10.52,176C666,237,664.3,287.89,664.35,338.76q1.3.87,2.67,1.62l.53.13q0-39.31,1-78.63c1.52-58.67,4.62-117.29,8.14-175.88Q679,48.14,681.4,10.28a1.18,1.18,0,0,0-1.17-1.18,1.2,1.2,0,0,0-1.18,1.18" fill="#161616"/><path d="M664.38,347.58c0,1.75,0,3.51,0,5.26l1.79.44a2.19,2.19,0,0,1,1.39,1.15c0-1.48,0-2.95,0-4.42,0-1.19,0-2.37,0-3.56-1.06.36-2.12.73-3.18,1.13" fill="#161616"/><path d="M667,357.23a3.82,3.82,0,0,1-.52.45l-.56.37a2.23,2.23,0,0,1-.37.5l-1,1,0,2.83c0,3.77.12,7.54.19,11.31l.69-.89a14.91,14.91,0,0,1,1.41-2.11,10.79,10.79,0,0,1,1-1.08q-.09-6.57-.13-13.13a2.36,2.36,0,0,1-.64.76" fill="#161616"/><path d="M665.32,409.06c.22,7.55.64,15.1,1.54,22.6s2.22,15,5,22.1a1.2,1.2,0,0,0,.51.66,1.07,1.07,0,0,0,.84.11,1.11,1.11,0,0,0,.77-1.36c-.33-1.54-.69-3.08-1-4.63-.38-1.81-.73-3.63-1.08-5.45-.65-3.4-1.21-6.83-1.68-10.26l.06.43c-1.72-13.17-2-26.44-2.15-39.7a15.53,15.53,0,0,1-1.35-1.21,12.56,12.56,0,0,1-1.74-1.6c.08,6.1.14,12.21.31,18.31" fill="#161616"/><path d="M567.77,110.35a21.51,21.51,0,0,1-1.61,2.41,22.81,22.81,0,0,1-3.68,3.67,23.42,23.42,0,0,1-4.76,2.78,22.61,22.61,0,0,1-5.35,1.48,20.48,20.48,0,0,1-5.07,0,17.55,17.55,0,0,1-8.51-3.51,22.27,22.27,0,0,1-3.81-3.83l0,.06a1.43,1.43,0,0,0-.77-.57,1.38,1.38,0,0,0-1,.14,1.36,1.36,0,0,0-.49,1.86,21.31,21.31,0,0,0,3.19,3.65,19.91,19.91,0,0,0,3.72,2.67,20.81,20.81,0,0,0,8.42,2.5,22.12,22.12,0,0,0,8.51-1,24.26,24.26,0,0,0,13.51-11,1.34,1.34,0,0,0-.48-1.82,1.28,1.28,0,0,0-.65-.18,1.37,1.37,0,0,0-1.17.65m-1.42,2.17-.13.17Z" fill="#161616"/><path d="M502.73,112.15a1.35,1.35,0,0,0-.48,1.82,15.29,15.29,0,0,0,5.39,6,14,14,0,0,0,6.9,2,18.86,18.86,0,0,0,7.16-1.27,26.81,26.81,0,0,0,6.8-3.78,29.14,29.14,0,0,0,3.5-3.07,1,1,0,0,0-1.48-1.48,28.55,28.55,0,0,1-2.78,2.49,25.29,25.29,0,0,1-5.24,3.08,21.3,21.3,0,0,1-4.9,1.4,15.91,15.91,0,0,1-3.9,0,13.68,13.68,0,0,1-2.93-.8,12.77,12.77,0,0,1-2.5-1.46,14.72,14.72,0,0,1-2.38-2.42,21.5,21.5,0,0,1-1.34-2.07,1.33,1.33,0,0,0-1.82-.48m25.2,2.57-.18.14.18-.14m-10.33,4.62-.32,0,.32,0" fill="#161616"/><path d="M453.79,86.18a28.29,28.29,0,0,0,1.09,10,24.29,24.29,0,0,0,1.82,4.34,24,24,0,0,0,2.57,3.76,25.17,25.17,0,0,0,6.62,5.63,31.33,31.33,0,0,0,8.25,3.41,40.33,40.33,0,0,0,29.61-4,1.64,1.64,0,1,0-1.66-2.84,33.55,33.55,0,0,1-3.64,1.84,38.16,38.16,0,0,1-9.32,2.52,38.87,38.87,0,0,1-9.7,0,34.36,34.36,0,0,1-8.17-2.18,28.21,28.21,0,0,1-5.85-3.39,24.69,24.69,0,0,1-4-4,24.39,24.39,0,0,1-2.75-4.74A26.76,26.76,0,0,1,457,90.38a32.85,32.85,0,0,1-.23-4.2,1.51,1.51,0,1,0-3,0m5,10.46s0,.08,0,.12,0-.08,0-.12m2.74,4.66a.76.76,0,0,1,.08.11.76.76,0,0,0-.08-.11m36.95,7-.26.11.26-.11m-27.49.2.12.05-.12-.05" fill="#161616"/><path d="M430.68,59.8a18.59,18.59,0,0,0,3.94,17.45,22.39,22.39,0,0,0,6.86,5.28,28.6,28.6,0,0,0,13.37,2.8,1.15,1.15,0,1,0,0-2.29,26.93,26.93,0,0,1-4.21-.2,25,25,0,0,1-5.87-1.62,23.74,23.74,0,0,1-4.71-2.72,21,21,0,0,1-3.31-3.29,17.24,17.24,0,0,1-3.52-8.47,27.24,27.24,0,0,1,.15-6.57,1.34,1.34,0,0,0-.19-.7,1.38,1.38,0,0,0-.82-.62,1.12,1.12,0,0,0-.36-.05,1.41,1.41,0,0,0-1.33,1m2.52,6.72s0,.08,0,.11,0-.07,0-.11m0,.3v0m11.57,14.42.21.09-.21-.09" fill="#161616"/><path d="M414.82,4.47a19.17,19.17,0,0,0-3.44,2.64,19.61,19.61,0,0,0-2.64,3.3,20.46,20.46,0,0,0-2.9,7.7,34.56,34.56,0,0,0,2,17.74A43.56,43.56,0,0,0,417.6,51.4a30.27,30.27,0,0,0,6.75,5.17,23.52,23.52,0,0,0,3.82,1.67,20,20,0,0,0,4,.85,17.87,17.87,0,0,0,5.92-.34,1.53,1.53,0,1,0-.81-3c-.39.08-.77.16-1.16.21a16.19,16.19,0,0,1-3.81,0A18.77,18.77,0,0,1,428,54.82a24.46,24.46,0,0,1-4.88-2.88,33.11,33.11,0,0,1-5.77-5.88,42.27,42.27,0,0,1-5.08-8.82,42.59,42.59,0,0,1-2.8-10.15,31.66,31.66,0,0,1-.05-7.66,24.06,24.06,0,0,1,1.5-5.59,19.27,19.27,0,0,1,2.22-3.8,19.47,19.47,0,0,1,3.27-3.21l-.05,0a1.49,1.49,0,0,0,.56-.78,1.44,1.44,0,0,0-1.41-1.82,1.38,1.38,0,0,0-.7.2m-1.77,5.7-.08.1.08-.1M410.86,14a1,1,0,0,1-.07.15,1,1,0,0,0,.07-.15m1.5,23.43.06.15-.06-.15M432,56l.25,0L432,56" fill="#161616"/><path d="M546.23,26.8a.94.94,0,0,0-.34,1.29c2.66,3.76,5.18,7.61,7.72,11.46q1.86,2.84,3.76,5.66c1.29,1.9,2.58,3.82,4,5.63a.91.91,0,0,0,.41.25,1,1,0,0,0,.74-.1,1,1,0,0,0,.34-1.3c-.62-.91-1.27-1.81-1.9-2.71l-1.91-2.76c-1.28-1.87-2.54-3.76-3.79-5.65-2.55-3.83-5.09-7.68-7.75-11.43a1,1,0,0,0-.57-.44l-.24,0a.89.89,0,0,0-.48.13" fill="#161616"/><path d="M554,21.84a.89.89,0,0,0-.31,1.2q2.78,5.33,5.68,10.61,1.47,2.63,3,5.23l1.57,2.68c.52.88,1,1.77,1.63,2.62a.94.94,0,0,0,1.27.34.94.94,0,0,0,.34-1.28c-.48-.84-1-1.66-1.49-2.49s-1.07-1.76-1.6-2.65c-1-1.72-2-3.46-3-5.2q-3-5.32-5.85-10.74a.84.84,0,0,0-.75-.43,1,1,0,0,0-.44.11" fill="#161616"/><path d="M560.8,18.86a.84.84,0,0,0-.29,1.14c2.89,5.17,5.86,10.31,9,15.37a.88.88,0,1,0,1.51-.89c-1.52-2.5-3.05-5-4.54-7.53s-3-5.18-4.49-7.79a.84.84,0,0,0-.73-.42.81.81,0,0,0-.42.12" fill="#161616"/><path d="M716.88,91.27a39.36,39.36,0,0,1-1.77,5.38,32.42,32.42,0,0,1-4,6.83,30.36,30.36,0,0,1-5,5,26.68,26.68,0,0,1-12.66,5.32,28.19,28.19,0,0,1-7,0,30.13,30.13,0,0,1-7-1.95,31.87,31.87,0,0,1-4.51-2.39,1.47,1.47,0,1,0-1.48,2.53,33.12,33.12,0,0,0,9.56,4.17,29.42,29.42,0,0,0,14.42,0,31.63,31.63,0,0,0,4.54-1.57,30,30,0,0,0,7.94-5.11,31.91,31.91,0,0,0,10-17.45,1.61,1.61,0,0,0-.15-1.16,1.56,1.56,0,0,0-.91-.7,1.58,1.58,0,0,0-.38,0,1.52,1.52,0,0,0-1.48,1.11m-5.57,12-.15.19.15-.19m-25.13,10.54.17,0-.17,0m.25,0,.15,0-.15,0" fill="#161616"/><path d="M746.89,82.21a26.4,26.4,0,0,1-1.75,2.61,23.25,23.25,0,0,1-3.84,3.84A22.19,22.19,0,0,1,737,91.18a23.22,23.22,0,0,1-5.24,1.42,25.15,25.15,0,0,1-6.37,0l.2,0-.22,0h0a29.15,29.15,0,0,1-6.1-1.6,1.17,1.17,0,0,0-1.44.81,1.18,1.18,0,0,0,.12.9,1.27,1.27,0,0,0,.7.54,27.16,27.16,0,0,0,17.21,1,22.37,22.37,0,0,0,13.39-10.75,1.35,1.35,0,0,0-.48-1.82,1.28,1.28,0,0,0-.66-.18,1.35,1.35,0,0,0-1.16.66m-5.36,6.27-.16.12.16-.12m-16.21,4.13h0" fill="#161616"/><path d="M801.13,32.08a1.53,1.53,0,0,0-.89.69,1.62,1.62,0,0,0-.15,1.14l.06.4a40.52,40.52,0,0,1,0,10.61,48.09,48.09,0,0,1-3.22,11.53,50.38,50.38,0,0,1-6.27,10.73A45.22,45.22,0,0,1,782.89,75,37.11,37.11,0,0,1,775,79.67a31.31,31.31,0,0,1-7.42,2,28.92,28.92,0,0,1-7,0,30.2,30.2,0,0,1-7.5-2.09l-.85-.38a1.45,1.45,0,0,0-1-.14,1.42,1.42,0,0,0-.82.62,1.37,1.37,0,0,0,.49,1.86,34.59,34.59,0,0,0,4.81,1.85,29.6,29.6,0,0,0,4.81,1,30.27,30.27,0,0,0,9.21-.25,36.19,36.19,0,0,0,16.41-8A49.34,49.34,0,0,0,798,61.42a47.37,47.37,0,0,0,5.54-18.34,33.65,33.65,0,0,0-.6-10A1.47,1.47,0,0,0,801.5,32a1.57,1.57,0,0,0-.37,0m-18.35,43-.1.07.1-.07" fill="#161616"/><path d="M825.72-2.45a1.32,1.32,0,0,0-.77.6,1.4,1.4,0,0,0-.14,1c.11.54.2,1.07.28,1.61a27.39,27.39,0,0,1,0,6.71,26.6,26.6,0,0,1-1.73,6.31,29.07,29.07,0,0,1-3.59,6.11,32.2,32.2,0,0,1-5.41,5.41,34.37,34.37,0,0,1-7.51,4.36,32.51,32.51,0,0,1-7.68,2.1,1.05,1.05,0,0,0-.66.51,1.09,1.09,0,0,0-.11.85,1.15,1.15,0,0,0,.51.66,1.25,1.25,0,0,0,.85.11,35.08,35.08,0,0,0,15.75-6.41,32.68,32.68,0,0,0,6.15-5.83,30.75,30.75,0,0,0,2.47-3.51,28.6,28.6,0,0,0,1.91-3.84,26.19,26.19,0,0,0,1.86-7.55,25.16,25.16,0,0,0-.61-8.29,1.3,1.3,0,0,0-1.26-1,1.27,1.27,0,0,0-.34,0M806.93,29.64l0,0,0,0" fill="#161616"/><path d="M671.81,444.82a1.3,1.3,0,0,0,1.29,1.28,169.64,169.64,0,0,1,19.63,1.52l-.35-.05c17.33,2.35,34.25,7,50.76,12.69s32.49,12.36,48.51,19.1l4.63,1.94-.06,0,.08,0,.14.06-.13-.05.14.06a1.42,1.42,0,0,0,1,.12,1.25,1.25,0,0,0,.87-1.53,1.22,1.22,0,0,0-.58-.75c-3.87-1.67-7.73-3.37-11.61-5s-8-3.37-12-5c-8.1-3.34-16.26-6.53-24.51-9.5C733.13,453.76,716.24,448.79,699,446a179.3,179.3,0,0,0-25.85-2.42h0a1.3,1.3,0,0,0-1.27,1.29m124.5,36.5h0l0,0" fill="#161616"/><path d="M798,450.16a1,1,0,0,0-.35,1.32c1.84,3.69,3.59,7.4,5.2,11.19,0-.07-.07-.15-.1-.23a133.06,133.06,0,0,1,5.7,16.32c-2.36-2.14-4.66-4.35-7-6.55-3.2-3.06-6.38-6.15-9.76-9a1,1,0,0,0-.68-.28,1,1,0,0,0-.68.28,1,1,0,0,0-.28.68,1,1,0,0,0,.28.67c0,.06.08.1.12.15a1.34,1.34,0,0,1-.11-.14,50.94,50.94,0,0,1,5,8.36c1.46,2.94,2.77,5.95,4.26,8.87a.94.94,0,0,0,1.29.34,1,1,0,0,0,.34-1.3c-1.48-2.92-2.81-5.92-4.25-8.87-.43-.87-.88-1.73-1.34-2.58,1.43,1.34,2.85,2.7,4.27,4.06,3.13,3,6.26,6,9.53,8.86a1,1,0,0,0,1.19.15,1,1,0,0,0,.45-1.11,117.12,117.12,0,0,0-5-15.62q-1-2.64-2.15-5.25,1.56,2.22,3.11,4.45c3.17,4.56,6.25,9.17,9.16,13.91a.9.9,0,0,0,1.55-.91c-2.82-4.71-5.86-9.28-9-13.79s-6.4-9.06-9.55-13.63a1,1,0,0,0-.58-.45,1.15,1.15,0,0,0-.26,0,1,1,0,0,0-.49.13m-7.66,14.36,0,0Z" fill="#161616"/><path d="M827.23,467.37a20.57,20.57,0,0,0-2.16,3.14,18.74,18.74,0,0,0-1.51,3.58,19.64,19.64,0,0,0-.73,7.77.74.74,0,0,0,.21.51.67.67,0,0,0,.5.21.72.72,0,0,0,.72-.72,20,20,0,0,1,.06-4.57,19.24,19.24,0,0,1,1.22-4.41,19.76,19.76,0,0,1,2.5-4.26v0l.2-.27a.76.76,0,0,0,.21-.5.67.67,0,0,0-.21-.5.76.76,0,0,0-.52-.21.63.63,0,0,0-.48.21" fill="#161616"/><path d="M839.47,471.19a38.9,38.9,0,0,0-5.48,4.53,39.76,39.76,0,0,0-4.54,5.49.77.77,0,0,0,.28,1.06.79.79,0,0,0,1-.28c.4-.58.81-1.14,1.23-1.7l-.06.07.08-.1,0-.06a.05.05,0,0,1,0,0,39,39,0,0,1,6.68-6.67c.49-.37,1-.73,1.5-1.09a.77.77,0,0,0,.34-.45.71.71,0,0,0-.07-.57.81.81,0,0,0-.67-.38.66.66,0,0,0-.36.11M832,480.26l0,0,0-.05,0,0" fill="#161616"/><path d="M847.75,476.25a91.82,91.82,0,0,0-13.58,8.18,1,1,0,0,0-.39.51.86.86,0,0,0,1.26,1c2.52-1.75,5.07-3.47,7.7-5-1.32,1.35-2.62,2.71-4,3.95a.88.88,0,0,0,.86,1.47c6.3-1.9,12.92-2.45,19.17-4.52a.8.8,0,0,0,.55-1,.79.79,0,0,0-1-.55c-5.2,1.62-10.63,2.28-15.92,3.5a68.7,68.7,0,0,1,6.41-6.13.77.77,0,0,0,.22-.38.88.88,0,0,0-.09-.67.85.85,0,0,0-.51-.4l-.22,0a1,1,0,0,0-.45.12" fill="#161616"/><path d="M356.53,444.63a1,1,0,0,0-.29.72,1.05,1.05,0,0,0,.29.71c2.89,3.47,5.75,7,8.52,10.55a158.06,158.06,0,0,1,13.17,19.58c-4.25-1.87-8.53-3.68-13-5.13a51.91,51.91,0,0,0-17.09-2.94,1,1,0,0,0-.51,1.87c8.06,3.42,16.13,7.1,23.13,12.43,1.36,1.05,2.67,2.17,3.92,3.34a1,1,0,0,0,1.41,0,1,1,0,0,0,0-1.4c-6.52-6.13-14.42-10.3-22.52-13.95l.53.07a76.84,76.84,0,0,1,19.07,5.74h0c2.29,1,4.55,2,6.81,3a1.14,1.14,0,0,0,.51.13,1,1,0,0,0,.72-.3,1,1,0,0,0,.16-1.23,138.59,138.59,0,0,0-10.79-17.14q-1.44-2-2.93-3.94a175.8,175.8,0,0,1,13.74,15.62l-.15-.2c1.81,2.34,3.55,4.75,5.22,7.2a1,1,0,1,0,1.67-1c-7.5-11.27-16.8-21.22-26.65-30.46-1.17-1.1-2.36-2.19-3.55-3.28a1.09,1.09,0,0,0-.73-.29,1,1,0,0,0-.7.29" fill="#161616"/><path d="M395.29,464.37a1.05,1.05,0,0,0-.42.55,73.74,73.74,0,0,0-4.28,15.15,1,1,0,0,0,.1.74,1,1,0,0,0,.57.44,1,1,0,0,0,.74-.1.9.9,0,0,0,.44-.57,83,83,0,0,1,4.21-15.17.93.93,0,0,0-.65-1.13.67.67,0,0,0-.24,0,1,1,0,0,0-.47.13" fill="#161616"/><path d="M402.39,470.8c-2.23,2.82-4.3,5.75-6.24,8.77a1.11,1.11,0,0,0,.4,1.51,1.13,1.13,0,0,0,1.51-.39c1.88-2.95,3.89-5.82,6-8.6a1.14,1.14,0,0,0,.14-.54,1.06,1.06,0,0,0-1.06-1.06,1,1,0,0,0-.75.31" fill="#161616"/><path d="M503.88,474.1c-6.25.21-12.5.44-18.75.82s-12.52.94-18.71,1.92a108.45,108.45,0,0,0-14.79,3.38.76.76,0,1,0,.41,1.47,112,112,0,0,1,18.13-3.84l-.21,0c5.6-.75,11.23-1.19,16.87-1.51s11.37-.51,17.05-.86a.71.71,0,0,0,0-1.41h0" fill="#161616"/><path d="M472.05,481.41a.83.83,0,0,0-.82.83.82.82,0,0,0,.82.81q5.81-.26,11.63-.06a.78.78,0,0,0,.77-.78.79.79,0,0,0-.77-.77c-2-.1-4-.15-6-.15s-3.73,0-5.59.12" fill="#161616"/><path d="M715.44,506.53a1.05,1.05,0,0,0-.3.74,1.13,1.13,0,0,0,.3.73c1.48,1.85,3,3.7,4.43,5.58l-.16-.21a74.19,74.19,0,0,1,9,14.08c-2.46-1.09-5-2.05-7.52-3-1.67-.59-3.36-1.15-5-1.69s-3.35-1.1-5-1.6a1,1,0,0,0-1.06.44.93.93,0,0,0,.34,1.28c2.7,1.38,5.28,3,7.86,4.6s5.18,3.19,7.88,4.58a.92.92,0,0,0,1.24-.32.91.91,0,0,0-.33-1.23c-2.7-1.4-5.29-3-7.88-4.59l-.38-.24c2.54.87,5.07,1.8,7.54,2.84l-.23-.1c1.37.59,2.73,1.21,4.06,1.88a1,1,0,0,0,1,0,1,1,0,0,0,.46-1.14,55.26,55.26,0,0,0-6.45-11.9c-1.39-2-2.87-4-4.37-5.91.6.43,1.2.87,1.79,1.32l0,0,.16.12,0,0h0A86.06,86.06,0,0,1,736,526a.89.89,0,0,0,.67.28,1,1,0,0,0,1-1,1,1,0,0,0-.28-.68c-5.73-7.19-12.53-13.74-20.6-18.26a1.1,1.1,0,0,0-.53-.14,1,1,0,0,0-.73.3m7.29,6.31,0,0-.12-.09.15.12" fill="#161616"/><path d="M747.07,521.56a28.62,28.62,0,0,0-4,8.79.93.93,0,0,0,1.79.49,28.72,28.72,0,0,1,3.75-8.4.87.87,0,0,0-.74-1.32,1,1,0,0,0-.78.44" fill="#161616"/><path d="M756,525.81Q752,528,748.26,530.4a.86.86,0,0,0,.87,1.48c2.5-1.64,5.06-3.2,7.69-4.64a.83.83,0,0,0-.42-1.54.91.91,0,0,0-.42.11" fill="#161616"/><path d="M585.27,56q.45,19.93.53,39.89t0,39.92c0,6.58-.12,13.16-.11,19.75a1,1,0,0,0,1.93,0c.18-6.65.21-13.3.24-20s0-13.31,0-20q-.16-20-.59-39.91Q587,65.89,586.79,56a.76.76,0,1,0-1.52,0" fill="#161616"/><path d="M586.32,167.42c.12,4.35.14,8.7.09,13.05a.72.72,0,0,0,.72.72.73.73,0,0,0,.73-.72q0-6.53-.18-13.05a.69.69,0,0,0-.68-.68.67.67,0,0,0-.68.68" fill="#161616"/><path d="M657.22,25.35a.9.9,0,0,0-.25.6c-.72,6.78-1.35,13.56-1.84,20.36s-.89,13.64-1.2,20.46q-.93,20.49-1.11,41c-.06,5.31-.12,10.63,0,15.94a1.15,1.15,0,0,0,2.3,0c.11-3.4.13-6.81.17-10.21l.09-10.23q.09-10.26.23-20.51t.58-20.5c.27-6.82.63-13.64,1.12-20.45.37-5.3.81-10.59,1.36-15.87a.84.84,0,0,0-.84-.84.85.85,0,0,0-.59.24" fill="#161616"/><path d="M633.82,170.37c-.51,14-.37,28-.11,42s.66,28,.76,42c0,5,0,9.92,0,14.89a1.09,1.09,0,0,0,1.08,1.07,1.08,1.08,0,0,0,1.07-1.07c.2-7,.18-14,.1-21s-.28-14-.48-21c-.41-14-.86-28-.79-42q0-7.46.29-14.9a.94.94,0,1,0-1.88,0" fill="#161616"/><path d="M644.13,215.88c1.11,18.83.72,37.71.11,56.55s-1.46,37.8-1.21,56.71q.11,7.92.52,15.82c.05.9.1,1.79.16,2.68.38-.1.76-.23,1.14-.37s.47-.22.7-.35v-.26q-.36-7.07-.51-14.12c-.21-9.44-.15-18.89,0-28.33.36-18.91,1.21-37.81,1.33-56.72.07-10.55-.11-21.09-.73-31.61a.78.78,0,0,0-.77-.77.77.77,0,0,0-.77.77" fill="#161616"/><path d="M644.18,353.76c.1,1,.2,2,.34,3,.09.65.21,1.29.32,1.93s.23,1.47.35,2.21a.49.49,0,0,0,.48.37.5.5,0,0,0,.5-.5c0-1.13-.07-2.25-.08-3.38s-.08-2.43-.15-3.65c0-.24,0-.47,0-.71-.56.28-1.13.54-1.72.77" fill="#161616"/><path d="M646.49,403.69l.06,2.7c0,2.63.05,5.27,0,7.9,0,1.34,0,2.67-.07,4s-.11,2.63-.1,3.95a1,1,0,0,0,.94.95.93.93,0,0,0,.67-.28,1,1,0,0,0,.28-.67c.12-1.25.15-2.51.19-3.76s.06-2.67.06-4c0-2.64,0-5.27-.09-7.91,0-1.7-.1-3.4-.16-5.1a10.56,10.56,0,0,1-1.8,2.21" fill="#161616"/><path d="M633,0c.64,14.53,1.23,29.06,1.52,43.6s.25,29.35-.28,44q-.24,6.54-.61,13.08c-.25,4.32-.56,8.63-.83,13a.88.88,0,0,0,.87.87.83.83,0,0,0,.61-.26.92.92,0,0,0,.26-.61c.88-7.19,1.33-14.42,1.67-21.66s.47-14.62.49-21.93c.05-14.68-.4-29.35-1-44-.34-8.67-.74-17.35-1.12-26a.82.82,0,0,0-.81-.81A.81.81,0,0,0,633,0" fill="#161616"/><path d="M622.72,63.32c.24,4.15.45,8.3.59,12.45.08,2.11.12,4.22.15,6.33,0,1.06,0,2.11,0,3.16s0,2.11,0,3.17a.85.85,0,0,0,.83.82.83.83,0,0,0,.58-.24.92.92,0,0,0,.25-.58c.11-1,.13-2,.15-3s0-2.11,0-3.16c0-2.11-.08-4.22-.16-6.33-.18-4.22-.46-8.44-.73-12.65a.89.89,0,0,0-.87-.87.88.88,0,0,0-.87.87" fill="#161616"/><path d="M589,286.92a44.83,44.83,0,0,0-6,.4,15.46,15.46,0,0,0-5.7,2,.68.68,0,0,0-.25.92.69.69,0,0,0,.93.24c.33-.17.67-.33,1-.47a15.42,15.42,0,0,1,3.46-.94,40.64,40.64,0,0,1,5.94-.14,43.79,43.79,0,0,1,5.11.4l-.3,0a41.35,41.35,0,0,1,10.31,2.81,39.61,39.61,0,0,1,8.33,4.84,36.77,36.77,0,0,1,6.16,6.12l0,0a31.48,31.48,0,0,1,4.11,7,28.18,28.18,0,0,1,1.81,6.55s0-.07,0-.11l0,.14s0,.08,0,.11,0,0,0-.06a26.59,26.59,0,0,1,0,6.73l0-.17,0,.21v0a28.29,28.29,0,0,1-1.88,6.76l.09-.21a32.62,32.62,0,0,1-4.1,7,34.91,34.91,0,0,1-5.86,6,30.56,30.56,0,0,1-6.5,3.78,33.25,33.25,0,0,1-8,2.15,38.35,38.35,0,0,1-9.81,0,40.53,40.53,0,0,1-10-2.74,39.06,39.06,0,0,1-8.19-4.78,34,34,0,0,1-5.67-5.64,25.7,25.7,0,0,1-3.23-5.55,31.88,31.88,0,0,1-2.06-7.73,36.54,36.54,0,0,1,0-9.11,34.79,34.79,0,0,1,2.33-8.5,30.29,30.29,0,0,1,3.68-6.29,25.58,25.58,0,0,1,4.16-4.16,23.85,23.85,0,0,1,5-2.89,1.33,1.33,0,0,0,.64-.84,1.38,1.38,0,0,0-.14-1.07,1.4,1.4,0,0,0-.84-.65l-.37-.05a1.38,1.38,0,0,0-.71.19,25,25,0,0,0-5.75,3.49,26.48,26.48,0,0,0-4.58,4.82,28.86,28.86,0,0,0-3.29,5.6,36.11,36.11,0,0,0-2.2,6.48,38.29,38.29,0,0,0-.93,6.84,36.52,36.52,0,0,0,.36,6.85,30.26,30.26,0,0,0,4.5,12.25,30.88,30.88,0,0,0,4.54,5.4,37,37,0,0,0,5.79,4.51,40.14,40.14,0,0,0,13.53,5.36c9.44,1.91,19.78.47,27.7-5.24a33,33,0,0,0,5.64-5.25,37.73,37.73,0,0,0,4.54-6.53,28.34,28.34,0,0,0,1-26A33.35,33.35,0,0,0,615.42,297a38.53,38.53,0,0,0-11.95-7.44,38,38,0,0,0-14-2.64H589m-25.12,48.67.08.11-.08-.11m5.89,5.85.08.07-.08-.07m42.37,1.5-.18.14.18-.14m11.75-19.51h0v0m0-6.78v-.08s0,.05,0,.08" fill="#161616"/><path d="M586.36,282.23a22.76,22.76,0,0,0-.16,5.89c.11,2.05.28,4.09.39,6.14a1.61,1.61,0,1,0,3.22,0c-.09-1.94-.18-3.89-.28-5.83,0-1-.11-2.05-.17-3.07a19.23,19.23,0,0,0-.36-3.13,1.37,1.37,0,0,0-2.64,0" fill="#161616"/><path d="M582.69,282.65a4.63,4.63,0,1,0,4.63-4.63,4.67,4.67,0,0,0-4.63,4.63" fill="#161616"/><path d="M586.51,273.57a9.91,9.91,0,0,0-3.5,1.7,13,13,0,0,0-2.9,3,.94.94,0,0,0,.34,1.27.91.91,0,0,0,.72.1,1,1,0,0,0,.55-.43l.21-.27a10.61,10.61,0,0,1,1.66-1.69,9.8,9.8,0,0,1,1.95-1.15,8.82,8.82,0,0,1,2-.54,8.63,8.63,0,0,1,1.76,0A7.76,7.76,0,0,1,591,276a13.31,13.31,0,0,1,1.83,1.05,1,1,0,0,0,1.27-1.64,7.76,7.76,0,0,0-3.58-1.94,8.23,8.23,0,0,0-1.78-.2,9,9,0,0,0-2.19.28m.9,2h0" fill="#161616"/><path d="M585.57,269.89a11.35,11.35,0,0,0-4.24,1.58,11.07,11.07,0,0,0-3.54,3.6,1.63,1.63,0,1,0,2.82,1.65c.15-.26.32-.5.49-.74a9.67,9.67,0,0,1,1.43-1.43,10.48,10.48,0,0,1,1.83-1.08,11.72,11.72,0,0,1,2.55-.69,12.35,12.35,0,0,1,2.85,0,16.9,16.9,0,0,1,3.88,1.12,1.18,1.18,0,0,0,1.35-.55,1.23,1.23,0,0,0,.12-.92,1.26,1.26,0,0,0-.55-.71,11.07,11.07,0,0,0-4.21-1.74,15.9,15.9,0,0,0-2.39-.27h-.29a14.88,14.88,0,0,0-2.1.18" fill="#161616"/><path d="M584.28,265.33a17.2,17.2,0,0,0-3,1.06,14.15,14.15,0,0,0-2.56,1.47,12.69,12.69,0,0,0-4,4.55,1.79,1.79,0,0,0-.17,1.3,1.74,1.74,0,0,0,.78,1,1.69,1.69,0,0,0,2.31-.61,10.61,10.61,0,0,1,.86-1.41,11.52,11.52,0,0,1,1.75-1.74,14.89,14.89,0,0,1,2.87-1.66,16.15,16.15,0,0,1,3.43-.95,14.06,14.06,0,0,1,3.11,0,12,12,0,0,1,2.3.63,10.1,10.1,0,0,1,1.93,1.14l-.07-.05a1.39,1.39,0,0,0,.89.34,1.36,1.36,0,0,0,1-.39,1.38,1.38,0,0,0,0-1.92,9.59,9.59,0,0,0-5-2.85,12.28,12.28,0,0,0-2.83-.32,16.29,16.29,0,0,0-3.48.4" fill="#161616"/><path d="M559.52,310.61c-1.8.58-2.63,2.47-3,4.17a.89.89,0,0,0,0,.54,1.27,1.27,0,0,0-.52.75,12,12,0,0,0-.14,3.48,12.84,12.84,0,0,0,.32,1.64,11.16,11.16,0,0,0,.6,1.58,8.25,8.25,0,0,0,1.59,2.29,6.67,6.67,0,0,0,2,1.48,5.59,5.59,0,0,0,2.45.55,4.63,4.63,0,0,0,2.34-.75C567,325.16,567.72,323,568,321a9.88,9.88,0,0,0,.13-1.44,8.54,8.54,0,0,0-.14-1.42,9.74,9.74,0,0,0-.91-2.59,11,11,0,0,0-3.43-4,5.41,5.41,0,0,0-3-1.07,3.46,3.46,0,0,0-1.1.17m1.3,1.64a3.4,3.4,0,0,1,.71.2,5.71,5.71,0,0,1,1.09.65,8.79,8.79,0,0,1,1.42,1.44,11.27,11.27,0,0,1,1.25,2.15,8.81,8.81,0,0,1,.55,2,6.46,6.46,0,0,1,0,1.39,10.17,10.17,0,0,1-.62,2.38,6.29,6.29,0,0,1-.61,1.07,4.85,4.85,0,0,1-.55.56,3.5,3.5,0,0,1-.49.29,3.07,3.07,0,0,1-.52.14,3.87,3.87,0,0,1-.59,0,3.4,3.4,0,0,1-1.57-.72,6,6,0,0,1-.91-.91,8.07,8.07,0,0,1-.88-1.5,9.65,9.65,0,0,1-.53-2,11,11,0,0,1,0-2.36,2.51,2.51,0,0,1,0-.27,1.48,1.48,0,0,0-.14-1.05,1.42,1.42,0,0,0-.43-.45.19.19,0,0,1,0-.07,9,9,0,0,1,.37-1.18,6,6,0,0,1,.56-1,4.67,4.67,0,0,1,.44-.45,2.65,2.65,0,0,1,.4-.24,3.31,3.31,0,0,1,.42-.12,3.35,3.35,0,0,1,.55,0m4.43,4.34,0,.08,0-.08m0,.13.06.13-.06-.13" fill="#161616"/><path d="M586.26,318.26a9,9,0,0,0-2.42,2.71,7,7,0,0,0-.91,3.41,6.51,6.51,0,0,0,1.36,3.88,4.82,4.82,0,0,0,.36.43,6.48,6.48,0,0,0,1,1.4,7.13,7.13,0,0,0,2.25,1.64c3.42,1.61,8.21.92,10.37-2.4a6.58,6.58,0,0,0,1-3,9.78,9.78,0,0,0-.49-3.75,10.18,10.18,0,0,0-2.34-4.08,6.92,6.92,0,0,0-3.29-1.87,7.35,7.35,0,0,0-1.68-.2,8.72,8.72,0,0,0-5.16,1.79m6,.1a6.07,6.07,0,0,1,1.31.36,6,6,0,0,1,1.14.67,7.8,7.8,0,0,1,1.08,1.07,10.25,10.25,0,0,1,1.15,2l0-.08,0,.09s0,.07,0,.11l0-.09a12.06,12.06,0,0,1,.7,2.45,7.57,7.57,0,0,1,0,1.78,6.24,6.24,0,0,1-.36,1.33,5.85,5.85,0,0,1-.63,1.08,6.63,6.63,0,0,1-1,.95,7.49,7.49,0,0,1-1.41.79,8.92,8.92,0,0,1-1.84.49,9.13,9.13,0,0,1-2.09,0h.06l-.36-.05a.41.41,0,0,0-.29-.35l-.56-.22a8.88,8.88,0,0,1-1.48-.88,11.1,11.1,0,0,1-1.8-1.76,8.52,8.52,0,0,1-.94-1.59,5.67,5.67,0,0,1-.22-.66,8.81,8.81,0,0,1,.06-1.78s0,.07,0,.11a11.88,11.88,0,0,1,.56-2.3,7.06,7.06,0,0,1,.42-.64,9,9,0,0,1,1.41-1.41,9.62,9.62,0,0,1,1.67-1,8.58,8.58,0,0,1,1.8-.5,6.87,6.87,0,0,1,1.57,0m-3.21.44-.15.06.15-.06m-3.19,2.38v0M597.63,325s0,.07,0,.11,0-.07,0-.11M585,326.59l0,0a.08.08,0,0,1,0,0m2.61,3.21.1.07Zm8.16.22-.09.06.09-.06m-6.57.74.08,0-.08,0m7.72-8.26v0h0l0,0" fill="#161616"/><path d="M590.28,332.3a27.22,27.22,0,0,0,1.37,7.32,19.06,19.06,0,0,0,1.57,3.4,14.15,14.15,0,0,0,2.39,3,.59.59,0,0,0,.83,0,.59.59,0,0,0,0-.83l-.42-.52a19,19,0,0,1-2.25-3.87,25.2,25.2,0,0,1-1.63-6.08c-.11-.81-.19-1.61-.23-2.42a.83.83,0,0,0-.82-.82.82.82,0,0,0-.81.82m1.83,2.21a1.1,1.1,0,0,1,0,.18,1.1,1.1,0,0,0,0-.18" fill="#161616"/><path d="M603.7,294.29a23.19,23.19,0,0,0-5,3.46,23.74,23.74,0,0,0-4,4.7,29.71,29.71,0,0,0-1.56,2.68,30.74,30.74,0,0,0-1.33,2.92,41.23,41.23,0,0,0-1.85,5.87c-.15.62-.28,1.25-.4,1.87a1,1,0,0,0,.09.72.93.93,0,0,0,.56.43,1,1,0,0,0,.72-.09,1,1,0,0,0,.43-.56c.31-1.63.68-3.25,1.14-4.84a40.87,40.87,0,0,1,1.68-4.81,33,33,0,0,1,1.65-3.38,28.85,28.85,0,0,1,2-3.09,20.22,20.22,0,0,1,3.46-3.52,17,17,0,0,1,2.76-1.69.38.38,0,0,0,.14-.53.37.37,0,0,0-.33-.19.46.46,0,0,0-.2.05m-5.83,5.88,0,0,0,0" fill="#161616"/><path d="M615.61,345.7c-1.06.35-2.08.81-3.09,1.25s-2.1.95-3.15,1.43c-2,.95-4.12,1.9-6.2,2.78a79.84,79.84,0,0,1-16.45,5.13,1.16,1.16,0,0,0-.81,1.43,1.15,1.15,0,0,0,.53.69,1.21,1.21,0,0,0,.89.12,79.13,79.13,0,0,0,14.92-4.33c2.39-.95,4.76-2,7.1-3.07,1.16-.55,2.31-1.11,3.44-1.7a33.27,33.27,0,0,0,3.54-2,1,1,0,0,0,.44-1.07,1,1,0,0,0-.91-.7.74.74,0,0,0-.25.05m-12.18,5.35-.12.05.12-.05" fill="#161616"/><path d="M585.44,356.83c-3.87,3.84-6.43,8.84-8.28,13.91a60.9,60.9,0,0,0-3.55,18.11,51.44,51.44,0,0,0,.38,9,37.67,37.67,0,0,0,2,8.32,28.89,28.89,0,0,0,1.69,3.72,23.06,23.06,0,0,0,2.18,3.28,25.89,25.89,0,0,0,6.54,5.71,43.71,43.71,0,0,0,8.67,4.15,56.5,56.5,0,0,0,9.48,2.48,46.14,46.14,0,0,0,18.58-.25,40.59,40.59,0,0,0,9.55-3.68,44.26,44.26,0,0,0,8.39-5.85,42.29,42.29,0,0,0,6.77-7.56,36.82,36.82,0,0,0,4.5-8.92,35.87,35.87,0,0,0,1.64-6.84c.19-1.21.32-2.42.39-3.64s0-2.52,0-3.78a1,1,0,0,0-2.05,0,28.91,28.91,0,0,1-.31,4.46l0-.21a2,2,0,0,1,0,.24v0a29.77,29.77,0,0,1-.83,4,37.68,37.68,0,0,1-1.44,4A44.28,44.28,0,0,1,644,407a42.28,42.28,0,0,1-17,13.06,40.47,40.47,0,0,1-9.78,2.77,46.84,46.84,0,0,1-12.06-.23l.41.06a53.44,53.44,0,0,1-13.38-3.56A34.71,34.71,0,0,1,585,415a22.09,22.09,0,0,1-3.9-3.83,24.45,24.45,0,0,1-2.81-4.92,35.79,35.79,0,0,1-2.27-8.63v.06s0-.08,0-.11,0-.11,0-.17,0,.07,0,.11a54.71,54.71,0,0,1,.13-14.12,58.13,58.13,0,0,1,3.93-14.59l-.1.24a38.66,38.66,0,0,1,4.71-8.33l0,.05a25.53,25.53,0,0,1,2.23-2.53,1,1,0,0,0,0-1.43,1,1,0,0,0-.72-.29,1,1,0,0,0-.71.29m-.64,3.75,0,.06,0-.06m-8.67,22.9a.28.28,0,0,0,0,.09Zm68.15,23.21-.09.11.09-.11M576,397.6v0l0-.11a.13.13,0,0,1,0,.06m76-8.08h0v0" fill="#161616"/><path d="M615.85,355.14a1.35,1.35,0,0,0-.89.37,1.27,1.27,0,0,0,.89,2.16,63.13,63.13,0,0,1,13.25.42,82.36,82.36,0,0,1,20.47,5.73l-.33-.13a87.25,87.25,0,0,1,8.26,4q2,1.08,3.87,2.27c.66.41,1.31.81,2,1.23s1.29.79,1.92,1.21a1.07,1.07,0,0,0,1.62-.93,1,1,0,0,0-.31-.76c-.62-.5-1.23-1-1.86-1.49s-1.35-1-2.05-1.45c-1.35-.91-2.75-1.75-4.17-2.55a80.6,80.6,0,0,0-9.12-4.41A79.6,79.6,0,0,0,630,355.59a68.07,68.07,0,0,0-9.23-.64c-1.63,0-3.26.06-4.89.19m13,2.92h0" fill="#161616"/><path d="M619.53,363.89a1.31,1.31,0,1,0,0,2.62,69.84,69.84,0,0,1,10.11.62A85.5,85.5,0,0,1,650.85,373c1.91.81,3.79,1.66,5.64,2.58.9.44,1.78.91,2.65,1.39s1.85,1,2.75,1.53a.93.93,0,0,0,.94-1.61c-1.28-.88-2.56-1.73-3.9-2.51s-2.74-1.55-4.14-2.26a78.3,78.3,0,0,0-9-3.76A80.33,80.33,0,0,0,627,364.21a63.17,63.17,0,0,0-6.45-.32h-1" fill="#161616"/><path d="M663.52,370.9a10.6,10.6,0,0,0-2.6,6.73,1.67,1.67,0,1,0,3.34,0c0-.19,0-.37,0-.56a9,9,0,0,1,.46-1.69,10,10,0,0,1,.91-1.55l.35-.42a1.86,1.86,0,0,0,.52-1.26,1.79,1.79,0,0,0-.52-1.25,1.85,1.85,0,0,0-1.28-.51,1.6,1.6,0,0,0-1.22.51" fill="#161616"/><path d="M661.4,381.33a19.09,19.09,0,0,0,1.42,7.5,15.38,15.38,0,0,0,4.08,5.83,11.55,11.55,0,0,0,2.85,1.83,10.35,10.35,0,0,0,1.61.59,11.32,11.32,0,0,0,1.83.33,10.21,10.21,0,0,0,3.48-.25,12.26,12.26,0,0,0,3.56-1.5,14.44,14.44,0,0,0,2.75-2.23.88.88,0,0,0-1.07-1.39,20.1,20.1,0,0,1-3.64,2.12,12.85,12.85,0,0,1-2.71.76,10.44,10.44,0,0,1-2.37,0,10.65,10.65,0,0,1-2.06-.56,11.53,11.53,0,0,1-2.29-1.36,13.39,13.39,0,0,1-2.08-2.11,15.69,15.69,0,0,1-1.79-3.07,17.24,17.24,0,0,1-1.12-4.09,19.32,19.32,0,0,1-.14-2.4,1.16,1.16,0,1,0-2.31,0m16.83,12.85-.11.05.11-.05m-2.73.75-.15,0,.15,0" fill="#161616"/><path d="M674.5,382a1.39,1.39,0,0,0-.62.81,1.28,1.28,0,0,0,.13,1c1.85,2.43,3.93,4.66,5.81,7.06.49.64,1,1.3,1.43,2a1.2,1.2,0,1,0,2.08-1.21c-1.07-1.6-2.21-3.14-3.38-4.68s-2.48-3.24-3.8-4.78a1.2,1.2,0,0,0-.94-.4,1.44,1.44,0,0,0-.71.18m5.19,8.75.11.13-.11-.13" fill="#161616"/><path d="M674.72,381.45a1.37,1.37,0,0,0-1.35,1.34,1.35,1.35,0,0,0,1.35,1.34,55.35,55.35,0,0,1,10.76.54c1.91.26,3.82.59,5.74.79a1.22,1.22,0,0,0,1.18-.9,1.23,1.23,0,0,0-.86-1.52c-1.3-.29-2.63-.51-3.95-.72s-2.89-.44-4.34-.6a49.67,49.67,0,0,0-5.85-.37c-.89,0-1.79,0-2.68.1" fill="#161616"/><path d="M677.33,362.56a14.07,14.07,0,0,0-4.84.94,18.07,18.07,0,0,0-5.18,3.06,1.35,1.35,0,0,0-.22,1.65,1.38,1.38,0,0,0,1.87.49,22.85,22.85,0,0,1,3.69-2.11,15.84,15.84,0,0,1,3.3-.91,11,11,0,0,1,5.71.75,14.11,14.11,0,0,1,2.78,1.64,16.35,16.35,0,0,1,2.49,2.5,18.81,18.81,0,0,1,2.2,3.75,20.53,20.53,0,0,1,1.26,4.62,21.16,21.16,0,0,1,0,4.5,1.43,1.43,0,0,0,1.43,1.42,1.42,1.42,0,0,0,1-.42,1.54,1.54,0,0,0,.42-1,21.22,21.22,0,0,0-1.44-10.09,20,20,0,0,0-2.32-4.23,17.61,17.61,0,0,0-3.51-3.6,14.06,14.06,0,0,0-8.57-3Z" fill="#161616"/><path d="M619,345.44a1,1,0,0,0,1,1c.77,0,1.52.11,2.28.21a33.7,33.7,0,0,1,8,2.24,45.87,45.87,0,0,1,9.87,5.89l-.26-.19c1.36,1.05,2.67,2.16,4,3.3s2.49,2.29,3.77,3.4a.92.92,0,0,0,1.44-1.11,30.34,30.34,0,0,0-5.69-6,45.55,45.55,0,0,0-7-4.78,38.93,38.93,0,0,0-15.88-4.89l-.5,0h0a1,1,0,0,0-.94,1m3,1.17.1,0-.1,0" fill="#161616"/><path d="M649.29,370.24a1.33,1.33,0,0,0-.47,1.79,21.18,21.18,0,0,1,.92,1.92,32.49,32.49,0,0,1,2.12,8.06A37,37,0,0,1,652,390a.69.69,0,0,0,.51.66.68.68,0,0,0,.83-.48,25.43,25.43,0,0,0,.65-9.71,27.18,27.18,0,0,0-3-9.71,1.32,1.32,0,0,0-1.78-.47" fill="#161616"/><path d="M604.16,351.34a1.47,1.47,0,0,0-.84.65,57.48,57.48,0,0,0-8.38,17.79,64.14,64.14,0,0,0-1.79,9.52,66.11,66.11,0,0,0-.44,9.95.92.92,0,1,0,1.84,0c.14-2.76.33-5.51.69-8.25a69.51,69.51,0,0,1,1.67-8.46,65.53,65.53,0,0,1,2.69-8.05,59.87,59.87,0,0,1,6.17-11.06,1.37,1.37,0,0,0,.14-1.1,1.4,1.4,0,0,0-1.37-1,1.24,1.24,0,0,0-.38,0m-4.46,12.91-.09.24.09-.24" fill="#161616"/><path d="M585.94,389a42.72,42.72,0,0,1-8.9,2.19l-1.62.19a1.19,1.19,0,0,0-.78.32,1.11,1.11,0,0,0-.33.79,1.09,1.09,0,0,0,.33.78,1,1,0,0,0,.78.33,38.86,38.86,0,0,0,5.67-1,37.37,37.37,0,0,0,5.35-1.8,1,1,0,0,0,.57-.44,1,1,0,0,0,.09-.72,1,1,0,0,0-.9-.71.8.8,0,0,0-.26.05" fill="#161616"/><path d="M616.9,423.49a1.32,1.32,0,0,0-.77.6,1.22,1.22,0,0,0-.14,1c1.07,2.71,2,5.48,2.77,8.26s1.64,5.78,2.42,8.67,1.58,5.79,2.5,8.65c.46,1.43,1,2.85,1.49,4.25.28.74.59,1.47.9,2.2a20.58,20.58,0,0,0,1,2,1.38,1.38,0,0,0,2.53-1.06c-.33-1.36-.78-2.7-1.19-4L627,449.75q-1.34-4.31-2.68-8.6c-.88-2.77-1.75-5.55-2.7-8.3s-2-5.66-3.13-8.45a1.41,1.41,0,0,0-.6-.78,1.28,1.28,0,0,0-.66-.18,1.41,1.41,0,0,0-.35.05" fill="#161616"/><path d="M626.66,421.23a1.54,1.54,0,0,0-1.06,1.88q2.32,9,5,18c.89,3,1.84,6.06,2.78,9.08s1.91,6,3,9a1.24,1.24,0,0,0,.54.69,1.15,1.15,0,0,0,.89.12,1.16,1.16,0,0,0,.8-1.42c-.73-3-1.58-5.92-2.44-8.85s-1.76-6.08-2.63-9.13c-1.73-6.07-3.43-12.16-5-18.27a1.53,1.53,0,0,0-1.48-1.12,1.74,1.74,0,0,0-.39.05" fill="#161616"/><path d="M637.61,461.28c-.21.18-.42.36-.64.53a10.43,10.43,0,0,1-1.6,1,7.94,7.94,0,0,1-1.35.37,8.42,8.42,0,0,1-1.42,0,8.2,8.2,0,0,1-1.56-.44l-.33-.16a1.61,1.61,0,0,0-1.2-.15,1.6,1.6,0,0,0-.92.71,1.57,1.57,0,0,0,.55,2.13,11,11,0,0,0,2.65,1,8.9,8.9,0,0,0,3.13.07,8.09,8.09,0,0,0,2.74-1,7.35,7.35,0,0,0,2.32-2.19,1.51,1.51,0,0,0-1.31-2.27,1.56,1.56,0,0,0-1.06.44" fill="#161616"/><path d="M633.36,452.55a7.21,7.21,0,0,1-.64.59,8.89,8.89,0,0,1-1.3.77,7.53,7.53,0,0,1-1.48.4,8.33,8.33,0,0,1-1.8,0,1.35,1.35,0,0,0-1,.4,1.38,1.38,0,0,0,0,1.94,1.51,1.51,0,0,0,1,.4,9.06,9.06,0,0,0,3.87-.39,7.32,7.32,0,0,0,3.23-2.21,1.4,1.4,0,0,0,.39-.94,1.34,1.34,0,0,0-.39-.95,1.36,1.36,0,0,0-.94-.38,1.32,1.32,0,0,0-.94.38" fill="#161616"/><path d="M630.6,441.51a16.49,16.49,0,0,1-2.39,1.33,13.59,13.59,0,0,1-3,.82q-.68.07-1.35.09a1.22,1.22,0,0,0,0,2.43,13.49,13.49,0,0,0,7.92-2.61,1.3,1.3,0,0,0,.55-.71,1.18,1.18,0,0,0-.12-.92,1.24,1.24,0,0,0-1.06-.6,1,1,0,0,0-.57.17" fill="#161616"/><path d="M626.17,431.32a21.79,21.79,0,0,1-4.63,1.22l-.94.1a1.59,1.59,0,0,0-1.05.43,1.49,1.49,0,0,0,1.05,2.54,22,22,0,0,0,6.35-1.46,1.61,1.61,0,0,0,.88-.68,1.48,1.48,0,0,0,.14-1.13,1.46,1.46,0,0,0-.67-.87,1.53,1.53,0,0,0-.77-.21,1,1,0,0,0-.36.06m-4.71,1.23-.19,0,.19,0" fill="#161616"/><path d="M614.87,355.55a10.16,10.16,0,0,0-1,1.38,9.06,9.06,0,0,0-.65,1.5,7.22,7.22,0,0,0-.35,3.09,7.44,7.44,0,0,0,.93,2.89,7.78,7.78,0,0,0,2.26,2.38,1.08,1.08,0,0,0,1.32-1.7,6.54,6.54,0,0,1-.77-.81,6.46,6.46,0,0,1-.69-1.16,7.38,7.38,0,0,1-.31-1.14,7.49,7.49,0,0,1,0-1.42,6.72,6.72,0,0,1,.37-1.33,9.22,9.22,0,0,1,.86-1.45,1.13,1.13,0,0,0,.1-.13,1.56,1.56,0,0,0,.44-1,1.5,1.5,0,0,0-1.49-1.49,1.42,1.42,0,0,0-1,.44" fill="#161616"/><path d="M628.2,355.87a11.62,11.62,0,0,0-1,2.2,9.24,9.24,0,0,0-.49,2.5,7.71,7.71,0,0,0,1.34,4.79,1,1,0,0,0,1.77-1,6,6,0,0,1-.34-.67,8.5,8.5,0,0,1-.52-1.9,8,8,0,0,1,0-1.76,8.49,8.49,0,0,1,.53-1.93A10.76,10.76,0,0,1,630,357a1.07,1.07,0,0,0-.38-1.46,1,1,0,0,0-.53-.15,1.08,1.08,0,0,0-.93.53" fill="#161616"/><path d="M640.91,359.18a7.89,7.89,0,0,0-2.57,3.87,6.53,6.53,0,0,0-.23,2.24,7.19,7.19,0,0,0,.67,2.54,1,1,0,0,0,.37.38,1,1,0,0,0,.82.11,1.06,1.06,0,0,0,.74-1.3,7.69,7.69,0,0,1-.35-1.31,7.06,7.06,0,0,1,0-1.3,6.57,6.57,0,0,1,.33-1.23,7.9,7.9,0,0,1,.7-1.19,8.48,8.48,0,0,1,1.16-1.16,1.11,1.11,0,0,0,.34-.82,1.16,1.16,0,0,0-1.16-1.17,1.24,1.24,0,0,0-.82.34" fill="#161616"/><path d="M651.12,364.08a8.25,8.25,0,0,0-1.1,2.68,8.4,8.4,0,0,0,0,3.12.93.93,0,0,0,1.82-.25,8.11,8.11,0,0,1,0-1.3,8.59,8.59,0,0,1,.47-1.72,9.94,9.94,0,0,1,.75-1.4,1.13,1.13,0,0,0-.4-1.53,1.14,1.14,0,0,0-.55-.15,1.21,1.21,0,0,0-1,.55" fill="#161616"/><path d="M627.33,462.67a83.49,83.49,0,0,1-11.16,5.46c-1.95.85-3.9,1.7-5.82,2.62a34.14,34.14,0,0,0-5.49,3.19,1.85,1.85,0,0,0-.75,1,1.65,1.65,0,0,0,.17,1.25,1.61,1.61,0,0,0,1,.74,1.63,1.63,0,0,0,1.24-.16c1.83-.88,3.62-1.81,5.45-2.67s3.89-1.73,5.84-2.58a83.91,83.91,0,0,0,11.36-5.73,1.79,1.79,0,0,0-.93-3.34,1.66,1.66,0,0,0-.88.25" fill="#161616"/><path d="M603,475.93a.79.79,0,0,0-.47.37.77.77,0,0,0-.08.61l.06.51v0a21,21,0,0,0,.32,2.21.75.75,0,0,0,.73.56.77.77,0,0,0,.76-.76,10.26,10.26,0,0,0-.12-1.35c-.07-.52-.15-1-.22-1.56a.81.81,0,0,0-.77-.59l-.21,0" fill="#161616"/><path d="M669.05,475.62l-.29.14a110.87,110.87,0,0,1-26.14,6.82l.32,0a96.72,96.72,0,0,1-25.55.31l.29,0a52.28,52.28,0,0,1-13.2-3.37l-.13-.06a1.17,1.17,0,0,0-.84-.11,1.13,1.13,0,0,0-.65.5,1.17,1.17,0,0,0-.11.84,1.09,1.09,0,0,0,.5.65,47,47,0,0,0,7,2.38,62.35,62.35,0,0,0,7.9,1.45,91.66,91.66,0,0,0,17,.45,113.14,113.14,0,0,0,17.39-2.4,74.2,74.2,0,0,0,15.31-5c.69-.33,1.37-.68,2.07-1a1,1,0,0,0,.34-1.29,1,1,0,0,0-.57-.44l-.23,0a1.16,1.16,0,0,0-.5.13m-64.54,3.91.23.1-.23-.1" fill="#161616"/><path d="M639.64,460.46a1.43,1.43,0,0,0-.84.64,1.41,1.41,0,0,0-.14,1.08,1.49,1.49,0,0,0,.64.83c4.54,3.25,10,5.05,15.33,6.33,2.77.66,5.58,1.18,8.4,1.62,1.47.23,2.93.44,4.41.62l1.95.22c.69.06,1.4.09,2.09.17a1,1,0,0,0,.28-2c-.5-.13-1-.29-1.48-.42l-1.52-.37c-1-.23-2.09-.43-3.15-.63-2.17-.4-4.35-.78-6.52-1.2a65.47,65.47,0,0,1-12.75-3.59,31,31,0,0,1-5.63-3.13,1.22,1.22,0,0,0-.68-.19,1.6,1.6,0,0,0-.39,0" fill="#161616"/><path d="M670.56,471.83c0,.74.06,1.47.11,2.21a1.6,1.6,0,0,0,.45,1.07A1.51,1.51,0,0,0,673.7,474a18.12,18.12,0,0,0,0-2.21,1.55,1.55,0,1,0-3.1,0" fill="#161616"/><path d="M603,475.45a1.2,1.2,0,0,0,.43,1.63,33.83,33.83,0,0,0,11.45,4.08,65.92,65.92,0,0,0,13.31.95,90.54,90.54,0,0,0,10.14-.8c1.64-.22,3.26-.51,4.89-.79.74-.12,1.47-.25,2.21-.4s1.47-.33,2.21-.46a.55.55,0,1,0-.29-1.07c-.38.07-.76.12-1.13.17h.06l-1.18.16.11,0-.81.11.17,0-.73.09h0c-2,.27-4,.43-6.05.59s-4.28.29-6.42.35a81.09,81.09,0,0,1-12.85-.55l.12,0A42.8,42.8,0,0,1,608,476.74a27.22,27.22,0,0,1-3.35-1.73,1.14,1.14,0,0,0-.59-.16,1.22,1.22,0,0,0-1,.6m42.21,3.44h0" fill="#161616"/><path d="M638.57,345.6c-2,.15-4,.46-5.91.72l.26,0-1,.13a1.1,1.1,0,0,0-.69.29,1,1,0,0,0-.28.69.94.94,0,0,0,.28.68.91.91,0,0,0,.69.29c2-.26,4-.54,6-.7a31.29,31.29,0,0,1,6.27.09,1,1,0,0,0,.52-.14,1,1,0,0,0,.48-.62,1.07,1.07,0,0,0-.11-.8,1,1,0,0,0-.62-.47,23.63,23.63,0,0,0-3-.24h-.31c-.88,0-1.75,0-2.63.12" fill="#161616"/><path d="M653.29,336.41a17,17,0,0,0-6.27,4,19,19,0,0,0-3.24,4.51,1,1,0,0,0,.35,1.32,1,1,0,0,0,1.31-.34,19.46,19.46,0,0,1,1.63-2.56,16.84,16.84,0,0,1,2.63-2.64,15,15,0,0,1,2.92-1.72,13.61,13.61,0,0,1,3.12-.85,14.54,14.54,0,0,1,3.55,0,16.3,16.3,0,0,1,3.69,1,17.38,17.38,0,0,1,3.4,2,27.33,27.33,0,0,1,4.44,4.68,1.42,1.42,0,0,0,.63.36,1.41,1.41,0,0,0,1.08-.14,1.39,1.39,0,0,0,.64-.84,1.45,1.45,0,0,0-.14-1.08,15.43,15.43,0,0,0-5.57-6.15,16.58,16.58,0,0,0-3.49-1.7,15.82,15.82,0,0,0-3.67-.8,13.82,13.82,0,0,0-1.58-.09,16,16,0,0,0-5.43,1" fill="#161616"/><path d="M671.12,343.62l-.09,0c-1.69.7-3.41,1.33-5.13,1.94a34.67,34.67,0,0,0-5.41,2.16,1.72,1.72,0,0,0-.79,1.95,1.75,1.75,0,0,0,2.12,1.21,22.93,22.93,0,0,0,2.55-.82c1-.34,1.88-.71,2.83-1.07,1.91-.75,3.82-1.52,5.71-2.34a1.69,1.69,0,0,0,.82-1.06,1.82,1.82,0,0,0-.18-1.37,1.75,1.75,0,0,0-1.07-.81,1.64,1.64,0,0,0-.42-.06,2.34,2.34,0,0,0-.94.24m-.2.08-.11.05.11-.05" fill="#161616"/><path d="M660,348.18a1.58,1.58,0,0,0-.94.72,1.59,1.59,0,0,0-.16,1.21,1.71,1.71,0,0,0,.72.93,37.49,37.49,0,0,0,3.86,2.51,31.12,31.12,0,0,0,4.22,2.07,1.35,1.35,0,0,0,1.54-.63,1.38,1.38,0,0,0-.49-1.87c-1.19-.81-2.47-1.5-3.71-2.25s-2.6-1.62-3.83-2.54a1.33,1.33,0,0,0-.77-.21,1.56,1.56,0,0,0-.44.06" fill="#161616"/><path d="M643.81,352.25a1,1,0,0,0-.43.56,1.08,1.08,0,0,0,.09.73,16.5,16.5,0,0,0,8.14,8.32,14.05,14.05,0,0,0,5.55,1.3,12.05,12.05,0,0,0,5.51-1.21,10.92,10.92,0,0,0,2.77-1.95,11.34,11.34,0,0,0,1.24-1.44,9.37,9.37,0,0,0,1-1.63.68.68,0,0,0-.11-.8.67.67,0,0,0-.93,0c-.42.48-.82,1-1.27,1.42a16.89,16.89,0,0,1-1.35,1.19,12.55,12.55,0,0,1-2.6,1.52,11.27,11.27,0,0,1-2.54.7,12.53,12.53,0,0,1-3.06,0,14.46,14.46,0,0,1-3.23-.89,14.67,14.67,0,0,1-3-1.75,15.47,15.47,0,0,1-2.63-2.61,15.82,15.82,0,0,1-1.83-3.13.9.9,0,0,0-.57-.44l-.24,0a1,1,0,0,0-.49.13m11.86,8.7.12,0Zm.19,0h0" fill="#161616"/></svg>