<svg id="Capa_1" enable-background="new 0 0 512 512" height="512" viewBox="0 0 512 512" width="512" xmlns="http://www.w3.org/2000/svg"><g><path d="m470.675 3.515c-4.687-4.686-12.284-4.686-16.971 0l-48.749 48.749v-40.264c0-6.627-5.373-12-12-12h-380.955c-6.627 0-12 5.373-12 12v488c0 6.627 5.373 12 12 12h277.059c3.122-.001 6.19-1.219 8.485-3.515l103.897-103.896c2.295-2.295 3.507-5.364 3.508-8.485h.007v-234.278l103.53-103.53c4.686-4.687 4.686-12.284 0-16.971zm-205.431 226.886c.478.929.709 1.978.648 3.041-.218 3.812 1.391 7.499 4.333 9.932 2.942 2.434 6.867 3.321 10.569 2.392.818-.204 1.676-.101 2.42.255l-31.623 14.388zm22.672-8.005c-1.486-3.877-3.778-7.444-6.775-10.44-.324-.324-.654-.64-.99-.946l154.01-154.011 20.84 20.84-152.889 152.89c-.306-.338-.62-.669-.944-.993-3.683-3.682-8.306-6.185-13.252-7.34zm13.143 248.633v-62.926h62.926zm79.897-86.925h-91.897c-6.627 0-12 5.373-12 12v91.896h-253.059v-464h356.956v52.263l-130.475 130.474c-1.037 1.037-1.847 2.234-2.431 3.518l-.006-.003-31.564 69.374c-2.072 4.555-1.101 9.917 2.437 13.455 2.3 2.3 5.37 3.515 8.488 3.515 1.679 0 3.373-.353 4.966-1.077l69.375-31.563-.005-.012c1.282-.583 2.482-1.386 3.521-2.426l75.693-75.693zm91.016-323.236-20.84-20.84 11.057-11.057 20.84 20.84zm-417.268 22.897c0-6.627 5.373-12 12-12h256.548c6.627 0 12 5.373 12 12s-5.373 12-12 12h-256.548c-6.628 0-12-5.373-12-12zm0 53.717c0-6.627 5.373-12 12-12h213.435c6.627 0 12 5.373 12 12s-5.373 12-12 12h-213.435c-6.628 0-12-5.373-12-12zm0 53.718c0-6.627 5.373-12 12-12h159.716c6.627 0 12 5.373 12 12s-5.373 12-12 12h-159.716c-6.628 0-12-5.373-12-12zm0 53.719c0-6.627 5.373-12 12-12h105.999c6.627 0 12 5.373 12 12s-5.373 12-12 12h-105.999c-6.628 0-12-5.373-12-12zm0 53.718c0-6.627 5.373-12 12-12h113.186c6.627 0 12 5.373 12 12s-5.373 12-12 12h-113.186c-6.628 0-12-5.373-12-12zm12 41.717h271.548c6.627 0 12 5.373 12 12s-5.373 12-12 12h-271.548c-6.627 0-12-5.373-12-12s5.372-12 12-12z"/></g></svg>