<svg id="Layer_1" data-name="Layer 1" xmlns="http://www.w3.org/2000/svg" viewBox="0 0 1200 628"><title>CP006_blog</title><rect id="White" width="1200" height="628" style="fill:#fff"/><g id="_006" data-name="006"><path d="M163.48,230a45.82,45.82,0,0,1-1.6,12.88,27,27,0,0,1-4.36,9,17.67,17.67,0,0,1-6.46,5.3,18.76,18.76,0,0,1-15.78,0,17.78,17.78,0,0,1-6.44-5.3,26.58,26.58,0,0,1-4.34-9,53.29,53.29,0,0,1,0-25.76,26.58,26.58,0,0,1,4.34-9,17.78,17.78,0,0,1,6.44-5.3,18.76,18.76,0,0,1,15.78,0,17.67,17.67,0,0,1,6.46,5.3,27,27,0,0,1,4.36,9A45.82,45.82,0,0,1,163.48,230Zm-4,0a45.5,45.5,0,0,0-1.32-11.76,24.8,24.8,0,0,0-3.54-8,13.76,13.76,0,0,0-5.2-4.54,14.21,14.21,0,0,0-6.26-1.44,13.69,13.69,0,0,0-11.44,6,24.6,24.6,0,0,0-3.56,8,53.13,53.13,0,0,0,0,23.54,24.57,24.57,0,0,0,3.56,8,13.83,13.83,0,0,0,5.2,4.52,14.18,14.18,0,0,0,6.24,1.42,14.33,14.33,0,0,0,6.26-1.42,13.61,13.61,0,0,0,5.2-4.52,24.78,24.78,0,0,0,3.54-8A45.51,45.51,0,0,0,159.48,230Z"/><path d="M209.88,230a45.82,45.82,0,0,1-1.6,12.88,27,27,0,0,1-4.36,9,17.67,17.67,0,0,1-6.46,5.3,18.76,18.76,0,0,1-15.78,0,17.78,17.78,0,0,1-6.44-5.3,26.58,26.58,0,0,1-4.34-9,53.29,53.29,0,0,1,0-25.76,26.58,26.58,0,0,1,4.34-9,17.78,17.78,0,0,1,6.44-5.3,18.76,18.76,0,0,1,15.78,0,17.67,17.67,0,0,1,6.46,5.3,27,27,0,0,1,4.36,9A45.82,45.82,0,0,1,209.88,230Zm-4,0a45.5,45.5,0,0,0-1.32-11.76,24.8,24.8,0,0,0-3.54-8,13.76,13.76,0,0,0-5.2-4.54,14.21,14.21,0,0,0-6.26-1.44,13.69,13.69,0,0,0-11.44,6,24.39,24.39,0,0,0-3.56,8,53.13,53.13,0,0,0,0,23.54,24.36,24.36,0,0,0,3.56,8,13.83,13.83,0,0,0,5.2,4.52,14.18,14.18,0,0,0,6.24,1.42,14.33,14.33,0,0,0,6.26-1.42,13.61,13.61,0,0,0,5.2-4.52,24.78,24.78,0,0,0,3.54-8A45.51,45.51,0,0,0,205.88,230Z"/><path d="M229.4,223.72c-.83,1.09-1.59,2.12-2.28,3.08s-1.32,1.91-1.88,2.84a16.84,16.84,0,0,1,5.6-3.82,17.88,17.88,0,0,1,7.08-1.38,18.41,18.41,0,0,1,6.72,1.2,15.57,15.57,0,0,1,5.3,3.38,15.38,15.38,0,0,1,3.48,5.28,18.29,18.29,0,0,1,1.26,6.94,17.88,17.88,0,0,1-1.38,7.08,16.74,16.74,0,0,1-3.84,5.6,17.51,17.51,0,0,1-5.9,3.68,21,21,0,0,1-7.56,1.32,19.8,19.8,0,0,1-7.24-1.28,15.65,15.65,0,0,1-5.62-3.68,16.36,16.36,0,0,1-3.62-5.86,22.27,22.27,0,0,1-1.28-7.82,20.44,20.44,0,0,1,1.68-7.5,43.87,43.87,0,0,1,5.52-9.38l15.44-20.8a2.37,2.37,0,0,1,2-.92h3.36Zm6.56,32a16.91,16.91,0,0,0,6.2-1.08,13.83,13.83,0,0,0,4.7-3,13.05,13.05,0,0,0,3-4.52,15.4,15.4,0,0,0,1-5.7,16.05,16.05,0,0,0-1-5.86,12.36,12.36,0,0,0-2.88-4.44,12.82,12.82,0,0,0-4.42-2.8,15.86,15.86,0,0,0-5.68-1,15.56,15.56,0,0,0-6.3,1.22,14.93,14.93,0,0,0-4.7,3.16A13.54,13.54,0,0,0,222,241.2a16.73,16.73,0,0,0,1,5.84,13.42,13.42,0,0,0,2.78,4.62,12.38,12.38,0,0,0,4.4,3A15.08,15.08,0,0,0,236,255.76Z"/><path d="M153.08,310.66H141.8v35h-9.91v-35H120.82v-7.61h32.26Z"/><path d="M166.11,317.93a10.66,10.66,0,0,1,3.5-3.33,9,9,0,0,1,4.56-1.18,9.44,9.44,0,0,1,7.73,3.43q2.82,3.42,2.82,10.63V345.7h-9.91V327.42q0-3.63-.93-5A3.21,3.21,0,0,0,171,321a8,8,0,0,0-2.91.48,5.19,5.19,0,0,0-2,1.36V345.7h-9.9V300h9.9Z"/><path d="M204.29,346.32q-7.22,0-11.3-4.37a15.53,15.53,0,0,1-4.08-11v-1.12q0-7.26,3.85-11.83t11.15-4.54q6.41,0,9.94,3.84t3.53,10.51V333H199.22l-.06.17a6.14,6.14,0,0,0,1.85,4,6.4,6.4,0,0,0,4.62,1.54,20.24,20.24,0,0,0,4.74-.47,29.82,29.82,0,0,0,4.32-1.49l2.37,6a17.93,17.93,0,0,1-5.51,2.52A25.13,25.13,0,0,1,204.29,346.32ZM203.91,321a4.08,4.08,0,0,0-3.5,1.5,7.55,7.55,0,0,0-1.31,4.09l.06.15h8.55V326a6.59,6.59,0,0,0-.86-3.73A3.34,3.34,0,0,0,203.91,321Z"/><path d="M239.09,322.44l-3.22,0a5.47,5.47,0,0,0-2.78.63,3.91,3.91,0,0,0-1.62,1.77V345.7h-9.9V314h9.32l.35,4.66a9.49,9.49,0,0,1,2.64-3.87,5.8,5.8,0,0,1,3.83-1.37,7.56,7.56,0,0,1,2.32.35Z"/><path d="M256.23,346.32q-7.2,0-11.29-4.37a15.5,15.5,0,0,1-4.09-11v-1.12q0-7.26,3.85-11.83t11.15-4.54q6.42,0,10,3.84t3.53,10.51V333H251.16l-.06.17a6.19,6.19,0,0,0,1.85,4,6.42,6.42,0,0,0,4.63,1.54,20.2,20.2,0,0,0,4.73-.47,29.82,29.82,0,0,0,4.32-1.49l2.37,6a17.86,17.86,0,0,1-5.5,2.52A25.25,25.25,0,0,1,256.23,346.32ZM255.85,321a4.09,4.09,0,0,0-3.5,1.5,7.63,7.63,0,0,0-1.31,4.09l.06.15h8.56V326a6.59,6.59,0,0,0-.87-3.73A3.31,3.31,0,0,0,255.85,321Z"/><path d="M306.77,345.67a11.62,11.62,0,0,1-.95-2.25,16.94,16.94,0,0,1-.61-2.64,12.14,12.14,0,0,1-3.17,4,7.66,7.66,0,0,1-4.94,1.51q-5,0-7.75-2.57a9,9,0,0,1-2.77-7,8.43,8.43,0,0,1,3.55-7.28q3.54-2.57,10.75-2.57H305v-2.25a4.51,4.51,0,0,0-1-3.11,3.76,3.76,0,0,0-3-1.08,3.61,3.61,0,0,0-2.57.8,3.39,3.39,0,0,0-.83,2.51l-9.61,0-.06-.18a8.27,8.27,0,0,1,3.62-7.25q3.82-2.91,10.09-2.91a14.8,14.8,0,0,1,9.54,2.93q3.65,2.92,3.64,8.38v11.95a24.69,24.69,0,0,0,.43,4.69,25.31,25.31,0,0,0,1.27,4.33Zm-7-6.41a6.06,6.06,0,0,0,3.21-.85,4.87,4.87,0,0,0,1.95-2V332.2h-4a4.47,4.47,0,0,0-3.43,1.14,4.13,4.13,0,0,0-1.06,2.9,2.78,2.78,0,0,0,.93,2.18A3.39,3.39,0,0,0,299.79,339.26Z"/><path d="M337.79,322.44l-3.22,0a5.47,5.47,0,0,0-2.78.63,3.84,3.84,0,0,0-1.61,1.77V345.7h-9.91V314h9.32l.35,4.66a9.49,9.49,0,0,1,2.64-3.87,5.81,5.81,0,0,1,3.84-1.37,7.16,7.16,0,0,1,1.2.09,7.34,7.34,0,0,1,1.11.26Z"/><path d="M354.93,346.32q-7.2,0-11.29-4.37a15.5,15.5,0,0,1-4.09-11v-1.12q0-7.26,3.85-11.83t11.15-4.54q6.42,0,9.95,3.84T368,327.77V333H349.86l-.06.17a6.19,6.19,0,0,0,1.85,4,6.42,6.42,0,0,0,4.63,1.54,20.2,20.2,0,0,0,4.73-.47,29.82,29.82,0,0,0,4.32-1.49l2.38,6a18,18,0,0,1-5.51,2.52A25.25,25.25,0,0,1,354.93,346.32ZM354.55,321a4.09,4.09,0,0,0-3.5,1.5,7.55,7.55,0,0,0-1.3,4.09l.05.15h8.56V326a6.68,6.68,0,0,0-.86-3.73A3.34,3.34,0,0,0,354.55,321Z"/><path d="M396.27,314l.38,4.46a11.51,11.51,0,0,1,3.84-3.71,9.9,9.9,0,0,1,5.1-1.33,8.94,8.94,0,0,1,7.28,3.16q2.61,3.17,2.62,10.05V345.7h-9.9V326.6a7.29,7.29,0,0,0-1-4.29,3.31,3.31,0,0,0-2.81-1.27,7,7,0,0,0-2.85.55,5.61,5.61,0,0,0-2.1,1.58V345.7H387V314Z"/><path d="M419.56,329.56q0-7.15,4-11.64t11.28-4.5q7.28,0,11.31,4.5t4,11.64v.62q0,7.17-4,11.66t-11.25,4.48q-7.29,0-11.34-4.48t-4-11.66Zm9.9.62a13.09,13.09,0,0,0,1.25,6.25,4.43,4.43,0,0,0,4.23,2.27,4.37,4.37,0,0,0,4.16-2.28,13,13,0,0,0,1.26-6.24v-.62a13.07,13.07,0,0,0-1.26-6.2,4.41,4.41,0,0,0-4.22-2.32,4.35,4.35,0,0,0-4.17,2.34,13.17,13.17,0,0,0-1.25,6.18Z"/><path d="M152.17,402.53q0,7.14-3.22,11.47a10.68,10.68,0,0,1-9.09,4.32,8.94,8.94,0,0,1-4.05-.88,9.08,9.08,0,0,1-3.1-2.55v15h-9.9V386h9.35l.29,3.46a9.72,9.72,0,0,1,3.15-3,8.29,8.29,0,0,1,4.2-1.05,10.55,10.55,0,0,1,9.13,4.54q3.24,4.55,3.24,12Zm-9.88-.62a15,15,0,0,0-1.17-6.44,3.91,3.91,0,0,0-3.75-2.43,5.94,5.94,0,0,0-2.82.61,4.53,4.53,0,0,0-1.84,1.79v13.24a4.23,4.23,0,0,0,1.87,1.52,7.06,7.06,0,0,0,2.85.5,3.9,3.9,0,0,0,3.74-2.15,13.2,13.2,0,0,0,1.12-6Z"/><path d="M174.05,394.44l-3.22,0a5.47,5.47,0,0,0-2.78.63,3.84,3.84,0,0,0-1.61,1.77V417.7h-9.91V386h9.32l.35,4.66a9.49,9.49,0,0,1,2.64-3.87,5.81,5.81,0,0,1,3.84-1.37,7.24,7.24,0,0,1,1.2.09,7.34,7.34,0,0,1,1.11.26Z"/><path d="M175.78,401.56q0-7.15,4-11.64t11.28-4.5q7.28,0,11.31,4.5t4.05,11.64v.62q0,7.17-4.05,11.66t-11.25,4.48q-7.29,0-11.34-4.48t-4-11.66Zm9.9.62a13.09,13.09,0,0,0,1.25,6.25,4.43,4.43,0,0,0,4.23,2.27,4.37,4.37,0,0,0,4.16-2.28,13,13,0,0,0,1.26-6.24v-.62a13.07,13.07,0,0,0-1.26-6.2A4.41,4.41,0,0,0,191.1,393a4.35,4.35,0,0,0-4.17,2.34,13.17,13.17,0,0,0-1.25,6.18Z"/><path d="M240.18,402.53q0,7.23-3.11,11.51t-9.2,4.28a8.9,8.9,0,0,1-4.51-1.11,9.88,9.88,0,0,1-3.31-3.23l-.59,3.72h-8.64V372h9.9v17.08a9.54,9.54,0,0,1,3.06-2.71,8.36,8.36,0,0,1,4-.95q6.12,0,9.25,4.48t3.12,12Zm-9.88-.62a16.41,16.41,0,0,0-1.05-6.55,3.92,3.92,0,0,0-3.93-2.32,6,6,0,0,0-2.77.6,4.51,4.51,0,0,0-1.83,1.74v13.33a4.34,4.34,0,0,0,1.86,1.49,6.94,6.94,0,0,0,2.8.5c2,0,3.26-.68,3.93-2a14.66,14.66,0,0,0,1-6.14Z"/><path d="M254.91,417.7H245V372h9.93Z"/><path d="M275,418.32q-7.21,0-11.29-4.37a15.5,15.5,0,0,1-4.09-11v-1.12q0-7.26,3.85-11.83t11.15-4.54q6.42,0,9.94,3.84t3.53,10.51V405H270l-.06.17a6.14,6.14,0,0,0,1.85,4,6.42,6.42,0,0,0,4.63,1.54,20.2,20.2,0,0,0,4.73-.47,29.82,29.82,0,0,0,4.32-1.49l2.37,6a17.82,17.82,0,0,1-5.51,2.52A25.13,25.13,0,0,1,275,418.32ZM274.66,393a4.09,4.09,0,0,0-3.5,1.5,7.63,7.63,0,0,0-1.31,4.09l.06.15h8.56V398a6.59,6.59,0,0,0-.87-3.73A3.32,3.32,0,0,0,274.66,393Z"/><path d="M301.64,386l.35,4.19a10.25,10.25,0,0,1,9-4.77,9.65,9.65,0,0,1,5.09,1.29,8,8,0,0,1,3.23,3.92,10.61,10.61,0,0,1,3.76-3.85,10.37,10.37,0,0,1,5.38-1.36,8.83,8.83,0,0,1,7.28,3.32q2.66,3.33,2.65,10.24V417.7h-9.93V399c0-2.26-.32-3.82-.95-4.67a3.35,3.35,0,0,0-2.86-1.27,5.92,5.92,0,0,0-2.53.51,5.26,5.26,0,0,0-1.87,1.42c0,.33,0,.62,0,.86s0,.49,0,.72V417.7h-9.9V399c0-2.28-.31-3.85-.94-4.69a3.39,3.39,0,0,0-2.9-1.25,5.7,5.7,0,0,0-2.44.51,5.13,5.13,0,0,0-1.86,1.42V417.7h-9.91V386Z"/><path d="M360.53,408.8a2.61,2.61,0,0,0-1.34-2.1,14.45,14.45,0,0,0-4.84-1.65c-3.7-.73-6.48-1.84-8.35-3.36a7.58,7.58,0,0,1-2.82-6.25,8.94,8.94,0,0,1,3.52-7.11q3.51-2.91,9.52-2.91,6.33,0,10.08,2.83a8.29,8.29,0,0,1,3.57,7.3l-.06.18h-9.6a3.94,3.94,0,0,0-.94-2.84,4.14,4.14,0,0,0-3.08-1,4.09,4.09,0,0,0-2.61.85,2.68,2.68,0,0,0-1.05,2.17,2.57,2.57,0,0,0,1.22,2.14,13.86,13.86,0,0,0,4.9,1.58q5.84,1.14,8.62,3.41a7.85,7.85,0,0,1,2.78,6.43,8.4,8.4,0,0,1-3.8,7.05q-3.78,2.77-10,2.77-6.48,0-10.24-3.28c-2.51-2.19-3.7-4.63-3.59-7.33l.06-.17h9a4,4,0,0,0,1.36,3.25,6,6,0,0,0,3.7,1,4.93,4.93,0,0,0,3-.78A2.6,2.6,0,0,0,360.53,408.8Z"/><path d="M385.58,417.94l-4.78,9.31H374l2.06-9.58V410h9.55Z"/><path d="M121.49,473.56q0-7.15,4.05-11.64t11.28-4.5q7.26,0,11.3,4.5t4,11.64v.62q0,7.17-4,11.66t-11.24,4.48q-7.31,0-11.34-4.48t-4.05-11.66Zm9.91.62a13.1,13.1,0,0,0,1.24,6.25,4.44,4.44,0,0,0,4.24,2.27,4.38,4.38,0,0,0,4.16-2.28,13.15,13.15,0,0,0,1.25-6.24v-.62a13.2,13.2,0,0,0-1.25-6.2,4.41,4.41,0,0,0-4.22-2.32,4.35,4.35,0,0,0-4.18,2.34,13.17,13.17,0,0,0-1.24,6.18Z"/><path d="M165.64,458l.39,4.46a11.48,11.48,0,0,1,3.83-3.71,10,10,0,0,1,5.1-1.33,8.93,8.93,0,0,1,7.28,3.16q2.63,3.17,2.62,10.05V489.7H175V470.6a7.22,7.22,0,0,0-1-4.29,3.3,3.3,0,0,0-2.81-1.27,7,7,0,0,0-2.84.55,5.73,5.73,0,0,0-2.11,1.58V489.7h-9.87V458Z"/><path d="M200.62,489.7h-9.93V444h9.93Z"/><path d="M219,475.73l0,.23h.18l5.24-18H235l-12.63,36.42a17.26,17.26,0,0,1-3.78,5.8c-1.54,1.52-4,2.29-7.35,2.29a11,11,0,0,1-2.11-.17c-.55-.1-1.4-.3-2.58-.6l1.2-7.06.62.14a3.59,3.59,0,0,0,.53,0,6.6,6.6,0,0,0,3.43-.69,4.16,4.16,0,0,0,1.61-2.06l.79-2.06-11-32.05h10.52Z"/><path d="M266,482.7a3.88,3.88,0,0,0,3-1.1,4.54,4.54,0,0,0,1-3.18h9l.06.18a10.4,10.4,0,0,1-3.59,8.45,13.84,13.84,0,0,1-9.51,3.27q-7.23,0-11.14-4.47T251,474.21v-.68q0-7.14,3.89-11.63T266,457.42q6,0,9.65,3.35t3.5,9.19l-.06.17h-9a6.06,6.06,0,0,0-1-3.67,3.5,3.5,0,0,0-3-1.42,4.06,4.06,0,0,0-4,2.29,14.28,14.28,0,0,0-1.13,6.2v.68a14.23,14.23,0,0,0,1.13,6.24A4.12,4.12,0,0,0,266,482.7Z"/><path d="M292.79,461.93a10.66,10.66,0,0,1,3.5-3.33,9,9,0,0,1,4.56-1.18,9.44,9.44,0,0,1,7.73,3.43q2.82,3.42,2.82,10.63V489.7h-9.91V471.42q0-3.63-.93-5a3.22,3.22,0,0,0-2.85-1.37,8,8,0,0,0-2.9.48,5.19,5.19,0,0,0-2,1.36V489.7h-9.9V444h9.9Z"/><path d="M335.21,489.67a12.27,12.27,0,0,1-.95-2.25,18.15,18.15,0,0,1-.6-2.64,12.17,12.17,0,0,1-3.18,4,7.63,7.63,0,0,1-4.93,1.51c-3.32,0-5.91-.86-7.75-2.57a9,9,0,0,1-2.77-7,8.45,8.45,0,0,1,3.54-7.28q3.56-2.57,10.76-2.57h4.07v-2.25a4.51,4.51,0,0,0-1-3.11,3.77,3.77,0,0,0-3-1.08,3.6,3.6,0,0,0-2.56.8,3.35,3.35,0,0,0-.84,2.51l-9.61,0,0-.18a8.28,8.28,0,0,1,3.61-7.25q3.83-2.91,10.1-2.91a14.71,14.71,0,0,1,9.53,2.93q3.64,2.92,3.65,8.38v11.95a23.9,23.9,0,0,0,.43,4.69A24.44,24.44,0,0,0,345,489.7Zm-7-6.41a6.11,6.11,0,0,0,3.21-.85,4.87,4.87,0,0,0,1.95-2V476.2h-4a4.46,4.46,0,0,0-3.42,1.14,4.08,4.08,0,0,0-1.06,2.9,2.8,2.8,0,0,0,.92,2.18A3.44,3.44,0,0,0,328.24,483.26Z"/><path d="M359.09,489.7h-9.93V444h9.93Z"/><path d="M375.53,489.7H365.6V444h9.93Z"/><path d="M395.65,490.32q-7.2,0-11.29-4.37a15.54,15.54,0,0,1-4.09-11v-1.12q0-7.26,3.86-11.83t11.14-4.54q6.42,0,10,3.84t3.53,10.51V477H390.59l-.06.17a6.13,6.13,0,0,0,1.84,4A6.44,6.44,0,0,0,397,482.7a20.14,20.14,0,0,0,4.73-.47,29.82,29.82,0,0,0,4.32-1.49l2.38,6a18,18,0,0,1-5.51,2.52A25.2,25.2,0,0,1,395.65,490.32ZM395.27,465a4.09,4.09,0,0,0-3.5,1.5,7.63,7.63,0,0,0-1.3,4.09l.06.15h8.55V470a6.68,6.68,0,0,0-.86-3.73A3.34,3.34,0,0,0,395.27,465Z"/><path d="M422.05,458l.38,4.46a11.6,11.6,0,0,1,3.84-3.71,9.9,9.9,0,0,1,5.1-1.33,8.94,8.94,0,0,1,7.28,3.16q2.63,3.17,2.62,10.05V489.7h-9.9V470.6a7.29,7.29,0,0,0-1-4.29,3.3,3.3,0,0,0-2.81-1.27,7,7,0,0,0-2.84.55,5.65,5.65,0,0,0-2.11,1.58V489.7h-9.88V458Z"/><path d="M445.31,473.91q0-7.41,3.24-12a10.55,10.55,0,0,1,9.13-4.54,8.13,8.13,0,0,1,4.39,1.18,10.55,10.55,0,0,1,3.28,3.36l.65-4h8.73v31.35q0,6.27-4.3,9.71t-11.82,3.45a21.15,21.15,0,0,1-5.15-.68A28.91,28.91,0,0,1,448.3,500l1.7-7.33a23,23,0,0,0,4.09,1.39,19.29,19.29,0,0,0,4.46.46,7.36,7.36,0,0,0,4.71-1.26,4.88,4.88,0,0,0,1.53-4v-2.46a8.59,8.59,0,0,1-7.17,3.49,10.64,10.64,0,0,1-9.08-4.34q-3.23-4.34-3.23-11.45Zm9.88.62a13.2,13.2,0,0,0,1.12,6,4,4,0,0,0,3.83,2.15,6.89,6.89,0,0,0,2.77-.5,4.45,4.45,0,0,0,1.88-1.49V467.38a4.87,4.87,0,0,0-1.87-1.74,5.78,5.78,0,0,0-2.72-.6,4,4,0,0,0-3.83,2.44,14.86,14.86,0,0,0-1.18,6.43Z"/><path d="M494.44,490.32q-7.2,0-11.29-4.37a15.5,15.5,0,0,1-4.09-11v-1.12q0-7.26,3.86-11.83t11.14-4.54q6.42,0,9.95,3.84t3.53,10.51V477H489.38l-.06.17a6.13,6.13,0,0,0,1.84,4,6.44,6.44,0,0,0,4.63,1.54,20.14,20.14,0,0,0,4.73-.47,29.82,29.82,0,0,0,4.32-1.49l2.38,6a18,18,0,0,1-5.51,2.52A25.25,25.25,0,0,1,494.44,490.32ZM494.06,465a4.09,4.09,0,0,0-3.5,1.5,7.63,7.63,0,0,0-1.3,4.09l.06.15h8.55V470a6.68,6.68,0,0,0-.86-3.73A3.34,3.34,0,0,0,494.06,465Z"/><path d="M528.25,480.8a2.59,2.59,0,0,0-1.33-2.1,14.61,14.61,0,0,0-4.85-1.65c-3.69-.73-6.47-1.84-8.35-3.36a7.6,7.6,0,0,1-2.81-6.25,8.93,8.93,0,0,1,3.51-7.11q3.52-2.91,9.53-2.91,6.31,0,10.07,2.83a8.32,8.32,0,0,1,3.58,7.3l-.06.18h-9.61a3.89,3.89,0,0,0-.94-2.84,4.11,4.11,0,0,0-3.07-1,4.05,4.05,0,0,0-2.61.85,2.68,2.68,0,0,0-1.06,2.17,2.59,2.59,0,0,0,1.22,2.14,13.93,13.93,0,0,0,4.91,1.58q5.82,1.14,8.61,3.41a7.82,7.82,0,0,1,2.78,6.43,8.39,8.39,0,0,1-3.79,7.05q-3.79,2.77-10,2.77-6.48,0-10.24-3.28t-3.59-7.33l.06-.17h9a4,4,0,0,0,1.36,3.25,6,6,0,0,0,3.71,1,5,5,0,0,0,3-.78A2.62,2.62,0,0,0,528.25,480.8Z"/><g id="_006_draw" data-name="006_draw"><path d="M864.4,157.28l.13,0-.13,0Zm-.18-.08c.07,0,.14,0,.18.08s-.11,0-.18-.08Zm-.17-10.9a53.88,53.88,0,0,0-10.47,0,33.5,33.5,0,0,0-5.25.9,19.57,19.57,0,0,0-2.46.8c-.41.15-.86.35-1.28.51a12.9,12.9,0,0,0-1.38.75,1.54,1.54,0,0,0-.62,1.7,1.44,1.44,0,0,0,.38.63l.31.24a1.45,1.45,0,0,0,.73.2h.07c1.65.19,3.28.47,4.9.79,1.8.31,3.56.71,5.29,1.18a75.92,75.92,0,0,1,10.13,3.32,72,72,0,0,1,8.25,4,61.18,61.18,0,0,1,7.88,5.18,66.31,66.31,0,0,1,7.71,7.08,1,1,0,0,0,1.45,0,1.15,1.15,0,0,0,0-1.55,64.77,64.77,0,0,0-7.92-7.27,65.9,65.9,0,0,0-8.77-5.85,80.75,80.75,0,0,0-19.36-7.7c-1.38-.4-2.76-.71-4.14-1,.45-.08.9-.2,1.31-.28a51.75,51.75,0,0,1,6.46-.63c2.32-.08,4.63,0,6.91-.12a1.34,1.34,0,0,0,1.28-1.42,1.64,1.64,0,0,0-.41-1,1,1,0,0,1-.28-.2.51.51,0,0,0-.34-.11,1,1,0,0,0-.35,0Z" style="fill:#161616"/><path d="M847.08,128a1.23,1.23,0,0,0-.76,0,1.37,1.37,0,0,0-.59.43,1.56,1.56,0,0,0-.17,1.82c3.91,6.84,10.85,10.71,15.62,16.76a1.55,1.55,0,0,0,.28.39,1.43,1.43,0,0,0,.79.63,1.35,1.35,0,0,0,1-.19,1.66,1.66,0,0,0,.58-.87,1.44,1.44,0,0,0-.17-1.07,32.93,32.93,0,0,0-3.32-3.87c-1.21-1.27-2.45-2.45-3.73-3.6a61.75,61.75,0,0,1-6.6-6.64,33.4,33.4,0,0,1,3.18,1.11,66.17,66.17,0,0,1,8.15,4.11c2.73,1.58,5.36,3.28,8,5a1.22,1.22,0,0,0,1.69-.56,1.43,1.43,0,0,0,.07-1,1.39,1.39,0,0,0-.58-.79,105.76,105.76,0,0,0-11.1-7.08,52.91,52.91,0,0,0-6.15-2.8,31.13,31.13,0,0,0-4-1.31,14,14,0,0,0-2.18-.43Z" style="fill:#161616"/><path d="M888.41,148.35s.07.12.14.16-.1-.12-.14-.16Zm-18.17-24s0,.08-.07.16c0-.08,0-.12.07-.16Zm.58-5.53a1.18,1.18,0,0,0-1,.67c-.28.63-.55,1.27-.79,1.9s-.59,1.54-.83,2.29a39.48,39.48,0,0,0-1.14,4.43c-.66,3.12-1,6.24-1.39,9.36a1.37,1.37,0,0,0,.11.83,1,1,0,0,0,.62.48,1,1,0,0,0,1.21-.79c.59-4.63,1.14-9.33,2.66-13.76.14-.35.28-.75.45-1.14.28.75.62,1.5.93,2.21.66,1.58,1.38,3.16,2.11,4.7,1.52,3.13,3.11,6.17,4.84,9.17s3.59,6,5.56,8.82a102.2,102.2,0,0,0,6.46,8.29c1.39,1.59,2.84,3.09,4.36,4.55.76.75,1.55,1.42,2.38,2.13a18.52,18.52,0,0,0,2.7,1.9,1,1,0,0,0,1.24-.24,1.27,1.27,0,0,0,.28-.79,1.23,1.23,0,0,0-.31-.75c-1-1.3-2.15-2.41-3.25-3.59s-2.21-2.34-3.32-3.56c-2.14-2.37-4.18-4.82-6.15-7.35a126.54,126.54,0,0,1-9.26-14.11c-1.42-2.45-2.7-4.94-3.94-7.51-.59-1.23-1.18-2.45-1.73-3.71-.27-.6-.55-1.23-.79-1.82s-.59-1.39-.94-2a1.29,1.29,0,0,0-.76-.55.8.8,0,0,0-.31,0Z" style="fill:#161616"/><path d="M846.22,180.32a.15.15,0,0,0,0,.12.15.15,0,0,1,0-.12Zm7.5-15.21a.55.55,0,0,0-.11.16.55.55,0,0,1,.11-.16Zm5-9.53a75.47,75.47,0,0,0-11.71,16.17,67.74,67.74,0,0,0-3.91,9,59.5,59.5,0,0,0-2.73,10.08,15.2,15.2,0,0,0-.31,2.45,1.3,1.3,0,0,0,.94,1.22,1,1,0,0,0,.89-.2.6.6,0,0,0,.25-.19,1.7,1.7,0,0,0,.31-.6c.38-1.14.62-2.29.93-3.47s.59-2.26.86-3.4c.59-2.18,1.25-4.35,2-6.48a66.08,66.08,0,0,1,7.5-15.1h0a64.72,64.72,0,0,1,6.43-8,1.13,1.13,0,0,0-.07-1.47,1,1,0,0,0-.41-.27,1,1,0,0,0-.94.31Z" style="fill:#161616"/><path d="M857.52,204.79c.07,0,.17,0,.24.08s-.17,0-.24-.08ZM872.31,207a.12.12,0,0,1-.1,0,.12.12,0,0,0,.1,0ZM885,199.06a44.19,44.19,0,0,1-3.18,3.24,23.86,23.86,0,0,1-4.66,3.12,20.16,20.16,0,0,1-4.74,1.58,23.44,23.44,0,0,1-5.8.2,35.15,35.15,0,0,1-8.85-2.33,88.86,88.86,0,0,1-15.65-8.82,1.07,1.07,0,0,0-1.45.48,1.22,1.22,0,0,0,.41,1.58,118.57,118.57,0,0,0,14.41,8.53c4.84,2.22,10,4,15.31,3.68a23.52,23.52,0,0,0,4.32-.67,21.11,21.11,0,0,0,4.18-1.74,20.62,20.62,0,0,0,3.9-2.89,21.31,21.31,0,0,0,3.6-4.15c.07-.08.14-.19.21-.27a1.51,1.51,0,0,0,.13-.67,1.4,1.4,0,0,0-.93-1.27,1.29,1.29,0,0,0-1.21.4" style="fill:#161616"/><path d="M889.55,175.66v0Zm1.18-2.45a1.23,1.23,0,0,0-.8.35,1.8,1.8,0,0,0-.31.91c0,.52-.07,1-.1,1.51-.17,1.89-.42,3.79-.73,5.65-.14,1-.34,2-.52,3s-.45,2.14-.62,3.2a1.42,1.42,0,0,0,.14,1,1.17,1.17,0,0,0,.76.59,1.27,1.27,0,0,0,.93-.16,1.37,1.37,0,0,0,.52-.82,28.44,28.44,0,0,0,.8-3.4c.24-1.19.38-2.34.55-3.48.31-2.37.48-4.74.59-7.12a1.32,1.32,0,0,0-.38-.86,1.2,1.2,0,0,0-.52-.32Z" style="fill:#161616"/><path d="M895.67,185.82a6,6,0,0,0-3.21.43,15.31,15.31,0,0,0-4.22,2.61,1.28,1.28,0,0,0-.52.79,1.31,1.31,0,0,0,.14.95,1,1,0,0,0,.72.51,1.1,1.1,0,0,0,.87-.12,14.73,14.73,0,0,1,3.14-2.13,6.14,6.14,0,0,1,1.63-.59,7.23,7.23,0,0,1,.93,0,3.32,3.32,0,0,1,.62.16,1.67,1.67,0,0,1,.49.27c.17.16.34.32.48.48a7.74,7.74,0,0,1,.48.83,9.08,9.08,0,0,1,.45,1.66,14,14,0,0,1,.07,3.24,16.07,16.07,0,0,1-.83,3.87,10.38,10.38,0,0,1-1.1,2.33,7.69,7.69,0,0,1-.87,1,2.1,2.1,0,0,1-.65.43,1.8,1.8,0,0,1-.49.2h-.55a3.54,3.54,0,0,1-.62-.16,4,4,0,0,1-.9-.55,10.6,10.6,0,0,1-1.59-1.62,28.88,28.88,0,0,1-2.28-3.87.91.91,0,0,0-.66-.52,1,1,0,0,0-.83.12,1.34,1.34,0,0,0-.48.75,1.24,1.24,0,0,0,.14.87,23.56,23.56,0,0,0,2.66,4.47,8.36,8.36,0,0,0,2.56,2.37,4.63,4.63,0,0,0,2.69.59,4.84,4.84,0,0,0,2.35-1.06,7.24,7.24,0,0,0,1-1.07,8.05,8.05,0,0,0,.87-1.31,13.92,13.92,0,0,0,1.21-2.92,15.93,15.93,0,0,0,.62-3,14.78,14.78,0,0,0,.1-3.32,8.27,8.27,0,0,0-2-5.38,4.25,4.25,0,0,0-2-1.18c-.14,0-.24,0-.38,0Z" style="fill:#161616"/><path d="M898.16,185.5s0,0,0,0,.11,0,.14-.08l-.17.12Zm-.18.16a.65.65,0,0,0,.18-.16.65.65,0,0,1-.18.16Zm4.5-19.8a1.41,1.41,0,0,0-.76.63,1.45,1.45,0,0,0,.51,1.86,19.72,19.72,0,0,1,2.94,1.82,8.21,8.21,0,0,1,1.66,1.62,7.22,7.22,0,0,1,.66,1.06c.1.32.2.6.27.91a7,7,0,0,1,0,.91,6.86,6.86,0,0,1-.24,1.07,9.18,9.18,0,0,1-.94,1.78,22.55,22.55,0,0,1-3.87,4.11c-1.48,1.3-3,2.53-4.56,3.83-.55.51-1.1,1-1.62,1.54a1.55,1.55,0,0,0-.18,1.86,1.59,1.59,0,0,0,.9.71,1.2,1.2,0,0,1,.38,0,2.5,2.5,0,0,0,.73-.24,30.63,30.63,0,0,0,6.22-4.42,21.52,21.52,0,0,0,4.73-5.58,9.64,9.64,0,0,0,1.18-3.12,7.61,7.61,0,0,0-.11-3.32,8.52,8.52,0,0,0-1.69-3.12,13.59,13.59,0,0,0-3.28-2.73,16.14,16.14,0,0,0-2-1.1.89.89,0,0,0-.34-.16,1.09,1.09,0,0,0-.62,0Z" style="fill:#161616"/><path d="M864.78,207.87a1,1,0,0,0-.56.51,1.08,1.08,0,0,0-.07.79,16.72,16.72,0,0,1,1,3.4c.1.79.17,1.62.21,2.45a1,1,0,0,0,1,1,1.14,1.14,0,0,0,1-1.15,19.59,19.59,0,0,0-1.38-6.36,1.24,1.24,0,0,0-.45-.59.87.87,0,0,0-.25-.08,1.1,1.1,0,0,0-.51,0Z" style="fill:#161616"/><path d="M881.92,203.4a62.51,62.51,0,0,0-1.35,6.45,48.72,48.72,0,0,0-.59,6.87,1.24,1.24,0,0,0,1.21,1.19,1.19,1.19,0,0,0,.79-.4,1.16,1.16,0,0,0,.32-.91c0-1.42.06-2.88.2-4.3a51.93,51.93,0,0,1,1.49-8.38,1.23,1.23,0,0,0-.8-1.39,1.1,1.1,0,0,0-1.27.87Z" style="fill:#161616"/><path d="M883.09,221.27h0Zm.28,0h0ZM902,218.93a1.24,1.24,0,0,0-.65.2c-.45.2-.9.36-1.32.52-.58.19-1.14.35-1.69.51a28.11,28.11,0,0,1-3.14.75,44.08,44.08,0,0,1-12,.36A83.33,83.33,0,0,1,861,215.46a111.93,111.93,0,0,1-10.57-5,71.38,71.38,0,0,1-8.67-5.34.82.82,0,0,0-1.14.36.87.87,0,0,0,0,.67,1,1,0,0,0,.38.55,102.75,102.75,0,0,0,12.17,7.43c2.41,1.27,4.87,2.41,7.36,3.52s5.28,2.17,8,3.12,5.32,1.7,8,2.37a60.54,60.54,0,0,0,8,1.43,44.16,44.16,0,0,0,7.88.23,25.24,25.24,0,0,0,3.83-.55,19,19,0,0,0,3.35-.91,21.49,21.49,0,0,0,2.94-1.34,1.25,1.25,0,0,1,.38-.2,1.54,1.54,0,0,0,.66-1,1.64,1.64,0,0,0-.21-1.14,1.28,1.28,0,0,0-.9-.68,1.11,1.11,0,0,0-.38,0Z" style="fill:#161616"/><path d="M836.78,202.26a8,8,0,0,0-2.21,1.26,6.38,6.38,0,0,0-1.59,1.9,5.29,5.29,0,0,0-.65,2.41,6.8,6.8,0,0,0,.38,2.77,1.15,1.15,0,0,0,1.07.83,1.42,1.42,0,0,0,.76-.36,1.45,1.45,0,0,0,.31-.87,8.68,8.68,0,0,1-.17-2.17,5,5,0,0,1,.2-1,5,5,0,0,1,.42-.79,4.8,4.8,0,0,1,.66-.71,5.23,5.23,0,0,1,1.14-.75,3.64,3.64,0,0,1,.38-.16,1.33,1.33,0,0,0,.65-.59,1.51,1.51,0,0,0,.11-.95,1.25,1.25,0,0,0-.9-.87.9.9,0,0,0-.56,0Z" style="fill:#161616"/><path d="M910.15,229.29c-.07,0-.14,0-.21.08-1.66.31-3.32.71-5,1a67.14,67.14,0,0,1-9.3,1,72.63,72.63,0,0,1-9.67-.23,92.63,92.63,0,0,1-25.05-6.6,141.76,141.76,0,0,1-13.24-6.17c-4.11-2.17-8.16-4.54-12.06-7.11a1.07,1.07,0,0,0-1.52.47,1.29,1.29,0,0,0,.45,1.66,187.65,187.65,0,0,0,17.24,10.08,125.37,125.37,0,0,0,19.66,8.1,81.48,81.48,0,0,0,20.12,3.76,51.08,51.08,0,0,0,9.81-.44,41.75,41.75,0,0,0,4.91-1.07,22.23,22.23,0,0,0,4.56-1.74.13.13,0,0,1,.1,0,1.54,1.54,0,0,0,.9-1.86,1.41,1.41,0,0,0-1-1,1.33,1.33,0,0,0-.69,0Z" style="fill:#161616"/><path d="M910.39,217.91a1.24,1.24,0,0,0-.73,2.13c.42.4.83.87,1.21,1.31a9.38,9.38,0,0,1,1,1.66,8.8,8.8,0,0,1,.42,1.42,10,10,0,0,1,0,1.46,8.63,8.63,0,0,1-.34,1.62,15.07,15.07,0,0,1-1.15,2.17,1.13,1.13,0,0,0-.06.95,1.09,1.09,0,0,0,.55.75,1.17,1.17,0,0,0,.9.08,1.51,1.51,0,0,0,.69-.59,10.18,10.18,0,0,0,1.8-6.52,9.37,9.37,0,0,0-3.46-6.09,1.13,1.13,0,0,0-.55-.31.61.61,0,0,0-.28,0Z" style="fill:#161616"/><path d="M832.81,195.06l0,.08Zm80.52,15.3s-.07.12-.11.16a.55.55,0,0,1,.11-.16Zm-84.11-43.24v0Zm4.35-20s0,0,0,.08,0,0,0-.08Zm59.75-27.54.17.08-.17-.08Zm-8.85-6a50.72,50.72,0,0,0-10.05-.91,46.51,46.51,0,0,0-9.89,1.19,41.45,41.45,0,0,0-17.72,8.77,44.55,44.55,0,0,0-7.23,7.91,56.28,56.28,0,0,0-4.8,8.14,74.51,74.51,0,0,0-3.77,9.52,92.77,92.77,0,0,0-2.62,10.32,86.16,86.16,0,0,0-1.32,10.79,73.43,73.43,0,0,0,.14,10.59c.69,7.9,2.87,15.89,7.33,22.33a.85.85,0,0,0,.59.43.78.78,0,0,0,.72-.12,1,1,0,0,0,.31-1.42,37.17,37.17,0,0,1-3.38-6.16,48.57,48.57,0,0,1-3.11-11.07.66.66,0,0,1,0,.24,72,72,0,0,1-.48-17,84.48,84.48,0,0,1,4.35-20,63.36,63.36,0,0,1,6.74-13.75,46.23,46.23,0,0,1,7.08-8.06,39.29,39.29,0,0,1,8.33-5.53,40.2,40.2,0,0,1,10.13-3.36,49.59,49.59,0,0,1,13-.48,56.8,56.8,0,0,1,14.38,3.6A55.46,55.46,0,0,1,906,126.93a51.8,51.8,0,0,1,9,9,56,56,0,0,1,6.39,10.95A59,59,0,0,1,925.15,160a69.13,69.13,0,0,1,.55,16.44,71.69,71.69,0,0,1-3.7,16.88,76.39,76.39,0,0,1-8.57,16.91,81.64,81.64,0,0,1-6.29,8,1.81,1.81,0,0,0,.83,3,1.55,1.55,0,0,0,1.25-.24,53.6,53.6,0,0,0,6.8-6.84,61.18,61.18,0,0,0,5.57-8.1,62.75,62.75,0,0,0,4-8.54,75,75,0,0,0,3-9.48,70.89,70.89,0,0,0,1.55-9.29,71.91,71.91,0,0,0,.31-9.84,63.9,63.9,0,0,0-1.07-9.64,59.2,59.2,0,0,0-2.31-8.89,64.64,64.64,0,0,0-3.77-8.78,57.84,57.84,0,0,0-5.22-7.94,52.26,52.26,0,0,0-14.44-12.73,60.9,60.9,0,0,0-9.44-4.5,56.84,56.84,0,0,0-6.56-2.1c-1-.23-2.08-.47-3.15-.67" style="fill:#161616"/><path d="M904.1,140l.1.08s-.06,0-.1-.08Zm-8.29-10.71a1.29,1.29,0,0,0,0,1.74,65.24,65.24,0,0,1,8.23,8.93,60.33,60.33,0,0,1,7.46,12.69A52.4,52.4,0,0,1,915,164.32a49.7,49.7,0,0,1,.45,11.5c-.18,1.86-.45,3.71-.8,5.53a1.31,1.31,0,0,0,1.94,1.5,1.53,1.53,0,0,0,.55-.87,37.73,37.73,0,0,0,1.38-10.43,43.61,43.61,0,0,0-1.17-10.2,54.79,54.79,0,0,0-3.25-9.68,58.29,58.29,0,0,0-4.84-8.77,69.64,69.64,0,0,0-11.82-13.64,1.09,1.09,0,0,0-.55-.31,1,1,0,0,0-1.07.35" style="fill:#161616"/><path d="M909.08,192.93a3.55,3.55,0,0,0,2.42,4.15,3.27,3.27,0,0,0,3.87-2.61,3.5,3.5,0,0,0-2.42-4.15,3.29,3.29,0,0,0-3.87,2.61Z" style="fill:#161616"/><path d="M883.19,214.07a.47.47,0,0,0-.31.28.63.63,0,0,0,.21.83,50.65,50.65,0,0,1,4.73,2.49c1.59.91,3.11,1.94,4.64,2.92a.55.55,0,0,0,.79-.23.58.58,0,0,0,0-.48.45.45,0,0,0-.27-.35,37.53,37.53,0,0,0-4.49-2.93q-2.38-1.36-4.88-2.49s-.1,0-.13-.08a.88.88,0,0,0-.32,0Z" style="fill:#161616"/><path d="M887.86,212.89a.46.46,0,0,0-.31.27.56.56,0,0,0,0,.4.64.64,0,0,0,.25.36,39.73,39.73,0,0,1,8.25,4.94c.14.11.28.19.42.31a.58.58,0,0,0,.38.16.51.51,0,0,0,.34-.2.46.46,0,0,0,.14-.39.51.51,0,0,0-.17-.36,40,40,0,0,0-8.88-5.45s-.07,0-.14,0a.25.25,0,0,0-.24,0Z" style="fill:#161616"/><path d="M894.42,214.51Zm-1.07-1.46a.61.61,0,0,0-.24.39.63.63,0,0,0,.07.48.62.62,0,0,0,.35.23l.86.36,0,0s0,0,.06,0a.09.09,0,0,1,.07,0s0,0-.07,0a22.4,22.4,0,0,1,7.33,4.78.57.57,0,0,0,.8,0,.64.64,0,0,0,0-.83A23,23,0,0,0,893.8,213h0a.52.52,0,0,0-.42.08Z" style="fill:#161616"/><path d="M826.49,206.17h0ZM773.13,190.4a1.52,1.52,0,0,0-.1,1.11,1.43,1.43,0,0,0,.62.83c4.39,1.82,8.81,3.51,13.2,5.29s8.74,3.44,13.17,5a130.54,130.54,0,0,0,13.37,4.11,90.64,90.64,0,0,0,13.86,2.37c1.69.16,3.38.24,5.11.28a1.48,1.48,0,0,0,.87-2.49,1.37,1.37,0,0,0-1-.39q-2.85-.06-5.7-.36a91.68,91.68,0,0,1-13.06-2.41c-4.42-1.11-8.78-2.57-13.06-4.11s-8.61-3.28-12.89-5-8.54-3.48-12.93-4.94h-.07a1.25,1.25,0,0,0-1.38.71Z" style="fill:#161616"/><path d="M771.89,190.05a26.65,26.65,0,0,0-2,2,19.36,19.36,0,0,0-1.79,2.37,17.65,17.65,0,0,0-2.7,10.71,14.91,14.91,0,0,0,1.56,5.73,1,1,0,0,0,1.17.48,1.14,1.14,0,0,0,.59-.52,1.09,1.09,0,0,0,.07-.87,21.22,21.22,0,0,1-1.11-3.95,19,19,0,0,1-.14-3.91,16,16,0,0,1,2.63-7.31,16.64,16.64,0,0,1,2.63-3s.07,0,.07-.08a1,1,0,0,0,.41-.59.95.95,0,0,0-.69-1.18.84.84,0,0,0-.69.12Z" style="fill:#161616"/><path d="M789,221.31s.07,0,.1,0-.07,0-.1,0Zm-21-8.7a1.52,1.52,0,0,0,.55,2c3.53,2.09,7.08,4.15,10.71,6,1.9,1,3.84,2,5.77,3s4,1.86,6,2.73A122.07,122.07,0,0,0,803.68,231a70.75,70.75,0,0,0,12.68,2.57c1.21.08,2.42.16,3.6.2.62,0,1.27,0,1.9,0s1.24-.12,1.86-.12a1.69,1.69,0,0,0,1.52-1.78,1.67,1.67,0,0,0-.52-1.15,1.55,1.55,0,0,0-1.14-.47h0c-1.24-.2-2.45-.32-3.7-.48-1.45-.19-2.87-.43-4.32-.71-3-.51-5.94-1.14-8.88-1.89a143.07,143.07,0,0,1-17.79-5.89c-3.29-1.31-6.54-2.73-9.72-4.27s-6.22-3.16-9.26-4.94a1,1,0,0,0-.31-.16,1.45,1.45,0,0,0-1.55.75" style="fill:#161616"/><path d="M824.52,230a53.9,53.9,0,0,0-1.35,11.82,79.43,79.43,0,0,0,.9,11.42c1.1,7.67,3,15.17,4.46,22.76.31,1.74.62,3.48.89,5.22a76.76,76.76,0,0,1,1.11,18.22,66.13,66.13,0,0,1-1.07,6.84,1.65,1.65,0,0,0,.76,1.77,1.44,1.44,0,0,0,1.21.16,1.49,1.49,0,0,0,.86-.79c.38-1,.69-2,1-3s.48-2,.66-3a49.82,49.82,0,0,0,.72-6,54.43,54.43,0,0,0-.55-11.34c-1.11-7.71-3.46-15.1-5.32-22.61-.87-3.36-1.63-6.68-2.18-10.08a71.11,71.11,0,0,1-.83-7.15,53.23,53.23,0,0,1,.11-7.47,46,46,0,0,1,1-6.17,1.26,1.26,0,0,0-.9-1.54,1.19,1.19,0,0,0-1.41.95Z" style="fill:#161616"/><path d="M913.88,229a1.35,1.35,0,0,0-.79.71,1.53,1.53,0,0,0-.11,1.11,1.6,1.6,0,0,0,.66.87c3.94,2.85,7.88,5.69,12,8.34s8.3,5.26,12.55,7.71,8.6,4.7,13,6.75a141.15,141.15,0,0,0,13.61,5.62c1.7.59,3.39,1.14,5.15,1.62a1.45,1.45,0,0,0,1.69-.83,1.61,1.61,0,0,0,.14-1.27,1.5,1.5,0,0,0-.76-1c-4.35-1.93-8.81-3.75-13.16-5.73s-8.85-4.07-13.24-6.24a236,236,0,0,1-25.4-14.58q-2.18-1.42-4.25-3a1,1,0,0,0-.34-.16,1.48,1.48,0,0,0-.73,0Z" style="fill:#161616"/><path d="M902.75,256.88a1.57,1.57,0,0,0,0,2.13,86,86,0,0,0,9.54,8.14A89.83,89.83,0,0,0,923,274a119,119,0,0,0,11.54,5.73q6.06,2.61,12.23,4.74c3.46,1.15,6.91,2.21,10.4,3.12,1.66.44,3.32.87,5,1.23s3.46.71,5.15,1.06a2,2,0,0,0,1.48-.27,2.19,2.19,0,0,0,.87-1.31,2.12,2.12,0,0,0-1.45-2.49c-1.25-.27-2.49-.55-3.7-.83s-2.7-.63-4-1c-2.73-.64-5.46-1.39-8.19-2.14a166,166,0,0,1-16.07-5.45,108.62,108.62,0,0,1-25.33-14.15,68.51,68.51,0,0,1-6.19-5.45,1.6,1.6,0,0,0-.65-.4,1.42,1.42,0,0,0-1.32.44Z" style="fill:#161616"/><path d="M978.29,264.74a1.27,1.27,0,0,0-.93.43,1.52,1.52,0,0,0-.35,1.07c-.1,2.14-.13,4.27-.31,6.4a27.72,27.72,0,0,1-1.31,6.64,15.78,15.78,0,0,1-1.59,3.28,18.1,18.1,0,0,1-1.9,2.18c-.35.27-.69.55-1.07.79a1.51,1.51,0,0,0-.42,2,1.31,1.31,0,0,0,1.87.48A17,17,0,0,0,974.6,286a15.66,15.66,0,0,0,1.79-2.33,19.63,19.63,0,0,0,2.35-5.38,30.94,30.94,0,0,0,1-6,34.37,34.37,0,0,0,0-6.17,1.51,1.51,0,0,0-.42-1,1.05,1.05,0,0,0-.62-.35,1,1,0,0,0-.35,0Z" style="fill:#161616"/><path d="M993.22,259.68a16.48,16.48,0,0,0-4.21,0A25.91,25.91,0,0,0,979,263.32c-.38.27-.79.51-1.17.79a1.79,1.79,0,0,0-.52,2.33,1.49,1.49,0,0,0,2.14.51c1-.67,2-1.26,3.07-1.82a24.81,24.81,0,0,1,5.53-1.85,16,16,0,0,1,4.15-.24,9.58,9.58,0,0,1,2,.47,7.63,7.63,0,0,1,.73.4c.06.08.13.12.2.2a0,0,0,0,0,0,0,.15.15,0,0,0,0,.12,4,4,0,0,0-.2.35,9.48,9.48,0,0,1-.8.87,17.64,17.64,0,0,1-3.52,2.21c-.63.28-1.21.56-1.84.83a1.64,1.64,0,0,0-1,.83,1.8,1.8,0,0,0-.11,1.35,1.61,1.61,0,0,0,2,1.14,24.78,24.78,0,0,0,5.29-2.61,15.58,15.58,0,0,0,1.69-1.38,6.69,6.69,0,0,0,1.21-1.54,4.28,4.28,0,0,0,.45-3.2,4.42,4.42,0,0,0-2-2.45,7.09,7.09,0,0,0-1.52-.63c-.18,0-.35-.12-.52-.16a9.5,9.5,0,0,0-1.11-.2Z" style="fill:#161616"/><path d="M1000.44,276.6l.11,0s-.07,0-.11,0ZM990,269.72a1.56,1.56,0,0,0-1,1.94,1.48,1.48,0,0,0,.69.94c1.69.72,3.42,1.35,5.15,1.94,2,.71,3.9,1.38,5.84,2.17a30.51,30.51,0,0,1,7,3.72,14.53,14.53,0,0,1,1.86,1.82,8.32,8.32,0,0,1,.69,1.18,5.62,5.62,0,0,1,.28.95c0,.32,0,.63,0,.95a7.39,7.39,0,0,1-.27,1.22,11.35,11.35,0,0,1-1,2,25,25,0,0,1-3.52,3.83c-.63.52-1.25,1-1.9,1.51a9.28,9.28,0,0,1-1.66,1,14.25,14.25,0,0,1-3.32,1.11,19.26,19.26,0,0,1-4.8.12,29.1,29.1,0,0,1-7.88-2.06,47.89,47.89,0,0,1-10.85-6.32c-.63-.47-1.21-.95-1.8-1.46a1.28,1.28,0,0,0-2,0,1.53,1.53,0,0,0,.07,2.09,36,36,0,0,0,6.88,5.77,44.27,44.27,0,0,0,8.81,4.35,26.69,26.69,0,0,0,9.29,1.58,16.36,16.36,0,0,0,8.68-2.69,17,17,0,0,0,1.83-1.46c.72-.59,1.41-1.26,2.11-1.93a23.29,23.29,0,0,0,2.76-3.4,9.76,9.76,0,0,0,1.87-6c-.28-4.19-3.94-6.84-7.16-8.58a54.69,54.69,0,0,0-8.05-3.4c-2.31-.87-4.63-1.58-6.94-2.52l-.63-.24a2,2,0,0,0-.38-.16,1,1,0,0,0-.76,0Z" style="fill:#161616"/><path d="M766.67,182.06l0,0,0,0Zm-6.77-7.59a3.39,3.39,0,0,0-2.11,1,4,4,0,0,0-.9,2.14,10.55,10.55,0,0,0,.62,4.38,30.4,30.4,0,0,0,1.21,2.89,37.85,37.85,0,0,0,1.87,3.48,1.27,1.27,0,0,0,1.79.43,1.46,1.46,0,0,0,.42-1.94,40.78,40.78,0,0,1-2.21-4.26,15.84,15.84,0,0,1-1-3.28c0-.4-.07-.8-.07-1.19l.11-.43s0-.12.06-.16,0-.08.07-.08.07,0,.11-.08a1.08,1.08,0,0,1,.17,0,.86.86,0,0,1,.45,0,4.41,4.41,0,0,1,1,.24,14.22,14.22,0,0,1,2.08,1.26A18,18,0,0,1,766.6,182a23.27,23.27,0,0,1,2.87,4.94,29.53,29.53,0,0,1,1.14,3.36,1.32,1.32,0,0,0,1.66.91,1.45,1.45,0,0,0,.86-1.78,28.15,28.15,0,0,0-3.66-8.06,21.15,21.15,0,0,0-5-5.26,12,12,0,0,0-2.45-1.3c-.21-.08-.42-.12-.66-.2a4.64,4.64,0,0,0-1.48-.12Z" style="fill:#161616"/><path d="M758.79,210.56h0Zm-15.34-5.66s.07,0,.1.08-.07,0-.1-.08Zm7.08-20.07a.46.46,0,0,0,.21.08.46.46,0,0,1-.21-.08Zm-7.81-2.25h0ZM757,184.39l.18.08a.27.27,0,0,0-.18-.08Zm-11.88-4.34a12.79,12.79,0,0,0-5.64-.12,6.88,6.88,0,0,0-2.24,1.1,7,7,0,0,0-1.9,2.26,10.92,10.92,0,0,0-1,3.12,19,19,0,0,0-.31,4.27,40.58,40.58,0,0,0,.48,5.37,17.89,17.89,0,0,0,.49,2,16.4,16.4,0,0,0,.83,2.25,17.4,17.4,0,0,0,2.1,3.6,24,24,0,0,0,3,3.28,28,28,0,0,0,7.64,4.74,33.17,33.17,0,0,0,9,2.37,22.65,22.65,0,0,0,8.78-.55,1.7,1.7,0,0,0,1.1-1.66,1.64,1.64,0,0,0-1.62-1.62,38,38,0,0,1-7.23.12,36.53,36.53,0,0,1-8.84-2.18,27.41,27.41,0,0,1-6.36-3.59,22.28,22.28,0,0,1-3.52-3.48,19.76,19.76,0,0,1-1.8-3,16.21,16.21,0,0,1-.9-3.17,29.65,29.65,0,0,1-.35-6.79,13.25,13.25,0,0,1,.56-2.73,8.29,8.29,0,0,1,.62-1.27,4.37,4.37,0,0,1,.66-.75,6.51,6.51,0,0,1,.79-.55,5.77,5.77,0,0,1,1.18-.36,11.83,11.83,0,0,1,2.31-.07,30.57,30.57,0,0,1,8,2.41c2.69,1.1,5.35,2.33,8.12,3.28a1.46,1.46,0,0,0,1.07-.2,1.41,1.41,0,0,0,.59-.91,1.46,1.46,0,0,0-1-1.78c-.9-.31-1.8-.67-2.73-1-1.93-.79-3.9-1.66-5.87-2.41a41.59,41.59,0,0,0-5.15-1.74c-.28-.07-.52-.11-.76-.15Z" style="fill:#161616"/><path d="M755,188.43a30.77,30.77,0,0,0-3,8.33,32.79,32.79,0,0,0-.48,4.43,27.24,27.24,0,0,0,.14,4.51,1.08,1.08,0,0,0,.24.55.84.84,0,0,0,.52.2.67.67,0,0,0,.52-.24.94.94,0,0,0,.2-.59,27.19,27.19,0,0,1-.24-6.25A26.62,26.62,0,0,1,756,189a.65.65,0,0,0-.25-.83s-.1,0-.13,0a.53.53,0,0,0-.63.28Z" style="fill:#161616"/><path d="M992.12,274.9a1,1,0,0,0-.76.39,1.16,1.16,0,0,0-.32.91,22.52,22.52,0,0,1,.07,4.11,19.92,19.92,0,0,1-1,4.51A20.44,20.44,0,0,1,988,289l-.41.6a1.39,1.39,0,0,0-.31.91,1.12,1.12,0,0,0,.38.87,1.09,1.09,0,0,0,1.66,0,22.05,22.05,0,0,0,2.07-3.28,24.91,24.91,0,0,0,1.42-3.84,23.13,23.13,0,0,0,.62-4.07,20.87,20.87,0,0,0-.1-4.11,1.51,1.51,0,0,0-.35-.83,1.13,1.13,0,0,0-.55-.31.85.85,0,0,0-.31,0Z" style="fill:#161616"/><path d="M912.22,269.32a1.43,1.43,0,0,0-1.07.52,1.76,1.76,0,0,0-.45,1.22c1.56,12.81,2.66,25.77,1.56,38.61A92.89,92.89,0,0,1,908,330.9a1.68,1.68,0,0,0,0,1,2,2,0,0,0,.86,1.19,1.77,1.77,0,0,0,1.42.12,1.63,1.63,0,0,0,1.07-1c.86-2.41,1.62-4.86,2.24-7.35a71.25,71.25,0,0,0,1.46-7.63,110.1,110.1,0,0,0,1.1-15.49c.07-10.35-1.07-20.63-2.31-30.87a1.71,1.71,0,0,0-.49-1.14,1.44,1.44,0,0,0-.72-.44,1.5,1.5,0,0,0-.42,0Z" style="fill:#161616"/><path d="M789.62,328.92h0Zm20.31-13.71s-.06,0-.1.08.07,0,.1-.08Zm19.29-8.93a63.84,63.84,0,0,0-21.67,6.44,96.26,96.26,0,0,0-20.91,13.67,91.68,91.68,0,0,0-10.36,10.4,68.09,68.09,0,0,0-4.22,5.69c-.66.91-1.24,1.85-1.83,2.84s-1,1.94-1.56,2.89a2.09,2.09,0,0,0,.76,2.72,1.84,1.84,0,0,0,2.53-.83c.48-.9,1-1.73,1.55-2.6s1.07-1.7,1.63-2.53a86.39,86.39,0,0,1,14.44-16.05c-.07.08-.14.12-.21.2a.62.62,0,0,1,.25-.2l.1-.12-.1.12a96.22,96.22,0,0,1,20.14-13.63,66.25,66.25,0,0,1,16.45-5.62c1-.19,2.07-.31,3.11-.43a1.49,1.49,0,0,0,1.35-1.54,1.46,1.46,0,0,0-1.07-1.38,1.14,1.14,0,0,0-.38,0Z" style="fill:#161616"/><path d="M887.58,420.37a.66.66,0,0,0,0,.24.66.66,0,0,1,0-.24Zm21-85.64a1.71,1.71,0,0,0-.69,1c-1,3.32-2,6.56-3.18,9.76-3.21,9.05-6.91,17.9-10.36,26.83a208.23,208.23,0,0,0-8.82,27.51,109.87,109.87,0,0,0-2.38,13.4q-.46,3.74-.62,7.47a72.08,72.08,0,0,0,0,7.35,2.37,2.37,0,0,0,2.35,2.29,2.23,2.23,0,0,0,1.52-.75l.34-.51a2.52,2.52,0,0,0,.28-1.23c.21-2.57.35-5.14.55-7.67.42-4.58,1-9.16,1.83-13.67s1.8-8.93,2.94-13.28,2.49-8.57,3.87-12.8,2.73-8.18,4.18-12.22c.66-1.85,1.32-3.71,1.94-5.53l-.17.52c1.55-4.39,3.11-8.78,4.56-13.2s2.9-9,4.21-13.52a1.63,1.63,0,0,0-1.17-2,1.39,1.39,0,0,0-1.18.2Z" style="fill:#161616"/><path d="M860.15,346a.88.88,0,0,0,.24.2.88.88,0,0,1-.24-.2ZM843,329.36a.11.11,0,0,0,0,.07.11.11,0,0,1,0-.07Zm-3.6-3.6a1,1,0,0,0-.31,1.3,77.45,77.45,0,0,0,10.75,13c2,1.93,4,3.75,6.11,5.53s4.32,3.68,6.6,5.37a1,1,0,0,0,.59.16,1.27,1.27,0,0,0,.8-.39,1.31,1.31,0,0,0,.34-.91,1.29,1.29,0,0,0-.38-.87l-3.52-2.73c-3.22-2.49-6.29-5.1-9.26-7.9a81.39,81.39,0,0,1-8.16-8.93c-.79-1.07-1.59-2.18-2.31-3.28a1,1,0,0,0-.59-.44.67.67,0,0,0-.66.12" style="fill:#161616"/><path d="M851.61,387.85v0Zm0-.36v0Zm6.85-41.34a1.69,1.69,0,0,0-1,.87c-1.79,4.86-3.42,9.8-4.83,14.86-1.35,4.7-2.42,9.49-3.32,14.35a172.84,172.84,0,0,0-2.8,29.28,127.82,127.82,0,0,0,.83,16.25,2.24,2.24,0,0,0,.59,1.34,1.63,1.63,0,0,0,1.31.51,1.7,1.7,0,0,0,1.24-.59,2.1,2.1,0,0,0,.49-1.42c0-5.81-.14-11.66-.11-17.47,0-5.45.28-10.91.76-16.36a153.53,153.53,0,0,1,8.12-37c.25-.68.49-1.35.73-2,.07-.16.1-.32.17-.47a2.17,2.17,0,0,0,0-1,2,2,0,0,0-.83-1.07,1.81,1.81,0,0,0-.42-.16,1.35,1.35,0,0,0-.89,0Z" style="fill:#161616"/><path d="M842.31,449.38a.15.15,0,0,0,0,.12.15.15,0,0,1,0-.12Zm5.57-25a46.56,46.56,0,0,0-4.32,5.93,33.9,33.9,0,0,0-3.22,6.8,27.22,27.22,0,0,0-1,3.44,25.57,25.57,0,0,0-.56,3.91,19.5,19.5,0,0,0,.14,3.75,14.53,14.53,0,0,0,1,3.88,1.51,1.51,0,0,0,.69.87,1.43,1.43,0,0,0,1.11.12,1.46,1.46,0,0,0,.83-.72,1.89,1.89,0,0,0,.13-1.22c-.13-.63-.27-1.3-.41-1.94a27.55,27.55,0,0,1-.24-5.89,29.18,29.18,0,0,1,1.38-6.16,34.84,34.84,0,0,1,3.84-7.55,35.6,35.6,0,0,1,2.52-3.28,1.49,1.49,0,0,0,0-2,1.79,1.79,0,0,0-.62-.35,1.39,1.39,0,0,0-1.24.39Z" style="fill:#161616"/><path d="M868.16,463.81h0Zm-27.3-12.1a1.78,1.78,0,0,0-.69,1,1.72,1.72,0,0,0,.21,1.23,26.39,26.39,0,0,0,3.32,3.67,32.9,32.9,0,0,0,4.18,3.12,43.1,43.1,0,0,0,9.85,4.59,52,52,0,0,0,10.64,2.29,38.64,38.64,0,0,0,10.47-.08c.69-.12,1.38-.24,2.11-.39l.86-.24a10.69,10.69,0,0,1,1-.36,1.68,1.68,0,0,0,1-2.09,1.79,1.79,0,0,0-.72-1,1.81,1.81,0,0,0-1.21-.12h0c-.93.16-1.87.28-2.83.4-1.14.11-2.32.19-3.49.23a49.31,49.31,0,0,1-7.19-.19,51.49,51.49,0,0,1-13.48-3.28,35.49,35.49,0,0,1-8.15-4.59,22.15,22.15,0,0,1-3.87-3.87.5.5,0,0,1-.14-.16,1.31,1.31,0,0,0-.69-.39,1.4,1.4,0,0,0-1.18.19" style="fill:#161616"/><path d="M887.41,445.19c0,.08,0,.16,0,.24,0-.08,0-.16,0-.24Zm-4.87-18.57a1.49,1.49,0,0,0-.42,1.14,1.67,1.67,0,0,0,.49,1.11l.93,1.19a20.06,20.06,0,0,1,2.42,4.07,22.12,22.12,0,0,1,1.28,4.42,29.66,29.66,0,0,1,.17,6.52c-.62,6.41-2.7,12.49-4.22,18.66a1.75,1.75,0,0,0,1.21,2,1.61,1.61,0,0,0,1.9-1.26c1.56-6.37,3.77-12.61,4.36-19.21a32.08,32.08,0,0,0,.1-4.9,23.77,23.77,0,0,0-.83-5,20.9,20.9,0,0,0-5.28-8.89,1.44,1.44,0,0,0-.7-.4,1.42,1.42,0,0,0-1.41.48Z" style="fill:#161616"/><path d="M811.59,358.92c-.1.08-.17.16-.27.23.1-.07.17-.15.27-.23Zm38.81-19.37a31,31,0,0,0-9.33.08,48.39,48.39,0,0,0-9.92,2.69,67.39,67.39,0,0,0-10,4.82,87,87,0,0,0-9.4,6.4,86.06,86.06,0,0,0-13.27,12.77,66.83,66.83,0,0,0-5.08,7c-.69,1.11-1.32,2.26-1.94,3.44a37.87,37.87,0,0,0-1.55,3.56,2.37,2.37,0,0,0-.18,1.7,2.41,2.41,0,0,0,1,1.26,2,2,0,0,0,1.59.16,2.06,2.06,0,0,0,1.18-1.07,39.69,39.69,0,0,1,2.14-4.34c.79-1.47,1.69-2.93,2.62-4.31a80.69,80.69,0,0,1,13-14.59,83.56,83.56,0,0,1,17-11.46,50.4,50.4,0,0,1,12.44-4.3,30.37,30.37,0,0,1,8.06-.44l.86.12a1.64,1.64,0,0,0,1.28-.24,1.6,1.6,0,0,0,.72-1.1,1.9,1.9,0,0,0-.2-1.39,1.81,1.81,0,0,0-.94-.79Z" style="fill:#161616"/><path d="M767,351.61c-2.53-.08-5.05-.32-7.61-.52a48.24,48.24,0,0,0-7.11,0,19.41,19.41,0,0,0-3.43.64,13.51,13.51,0,0,0-3.11,1.3A12.3,12.3,0,0,0,741,358.4a20.07,20.07,0,0,0-1.21,3.44,27.59,27.59,0,0,0-.69,4.43,1.75,1.75,0,0,0,.21.75,1.58,1.58,0,0,0,.93.71,1.45,1.45,0,0,0,1.07-.2,1.55,1.55,0,0,0,.66-1,27,27,0,0,1,1.17-5.26,14.06,14.06,0,0,1,1.49-3,13.75,13.75,0,0,1,1.69-1.94,11.87,11.87,0,0,1,2.08-1.34,13.28,13.28,0,0,1,3.49-1.11,32.87,32.87,0,0,1,7.15-.36c2.69.12,5.35.32,8,.44a1.19,1.19,0,0,0,.69-2,.87.87,0,0,0-.48-.27.85.85,0,0,0-.31,0Z" style="fill:#161616"/><path d="M758.72,383.3a.13.13,0,0,0,.11,0,.13.13,0,0,1-.11,0Zm-19.38-17.66a1.54,1.54,0,0,0-.94,1.89,30.33,30.33,0,0,0,5.32,9.17,35.55,35.55,0,0,0,7.75,6.88,51.49,51.49,0,0,0,9.53,4.78,53.07,53.07,0,0,0,10,2.77,57.41,57.41,0,0,0,6.74.75c1,0,2.08,0,3.11,0a19.68,19.68,0,0,0,3.39-.44,1.58,1.58,0,0,0,.66-.43,1.73,1.73,0,0,0,.41-1.23,1.66,1.66,0,0,0-1.17-1.54c-2.25-.31-4.5-.43-6.74-.67a91.44,91.44,0,0,1-9.13-1.38,57.35,57.35,0,0,1-9.22-2.73,43.37,43.37,0,0,1-9.33-5.3,29.59,29.59,0,0,1-5.12-5.13,27.3,27.3,0,0,1-3.07-5.22c-.18-.4-.31-.79-.45-1.19a1.69,1.69,0,0,0-.69-.87.61.61,0,0,0-.35-.11,1.11,1.11,0,0,0-.72,0" style="fill:#161616"/><path d="M790.2,379.86c-.07.08-.17.16-.24.24a1.34,1.34,0,0,0-.34.63h0a14.36,14.36,0,0,1-1.42,2.89,13.42,13.42,0,0,1-1.94,2.17,15.4,15.4,0,0,1-1.45,1.07,1.54,1.54,0,0,0-.45,2,1.34,1.34,0,0,0,1.87.48,14.29,14.29,0,0,0,3.56-3.24,13.28,13.28,0,0,0,1.35-2.14,13.53,13.53,0,0,0,1-2.6,1.43,1.43,0,0,0-.17-1.07,1.19,1.19,0,0,0-.8-.59,1.15,1.15,0,0,0-1,.15Z" style="fill:#161616"/><path d="M774.76,344.77a1.12,1.12,0,0,0-1.32.87,1.16,1.16,0,0,0,.83,1.42,22.51,22.51,0,0,1,3.94,1.15,29.6,29.6,0,0,1,6.6,3.91,43.77,43.77,0,0,1,7.57,7.75c1.55,2.09,3,4.34,4.39,6.56a1.34,1.34,0,0,0,1.9.47,1.41,1.41,0,0,0,.59-.91,1.36,1.36,0,0,0-.18-1.1,39.74,39.74,0,0,0-4.49-6.72,48.7,48.7,0,0,0-5.73-6,30.48,30.48,0,0,0-12.72-7.11c-.45-.12-.9-.2-1.38-.28Z" style="fill:#161616"/><path d="M777.66,337.73a1.28,1.28,0,0,0,.86,1.47,13.8,13.8,0,0,1,1.9.67,30.32,30.32,0,0,1,7,4.15,59.65,59.65,0,0,1,10,10.39c1.72,2.29,3.35,4.67,4.94,7a1.3,1.3,0,0,0,.72.55,1,1,0,0,0,.9-.16,1.3,1.3,0,0,0,.35-1.7,66.32,66.32,0,0,0-4.88-7.15,63.07,63.07,0,0,0-5.94-6.88A35.17,35.17,0,0,0,779,336.83s0,0,0,0a1.2,1.2,0,0,0-1.35.94Z" style="fill:#161616"/><path d="M849.81,412.67a1.32,1.32,0,0,0,.49,1.73,76.27,76.27,0,0,0,15.13,6.45,47.32,47.32,0,0,0,8,1.7,29.8,29.8,0,0,0,8.33,0,1.36,1.36,0,0,0,.9-.44,1.42,1.42,0,0,0,.34-1,1.33,1.33,0,0,0-1.35-1.3,57,57,0,0,1-7.39-.16,58.11,58.11,0,0,1-15.21-3.91,77.89,77.89,0,0,1-7.67-3.64l-.27-.12a1.17,1.17,0,0,0-1.32.64Z" style="fill:#161616"/><path d="M851.89,404a1.23,1.23,0,0,0-.7.59,1.3,1.3,0,0,0-.06.95,1.22,1.22,0,0,0,.55.75A55.48,55.48,0,0,0,867.37,414a53.43,53.43,0,0,0,8.64,1.9,38.27,38.27,0,0,0,4.28.27,18.58,18.58,0,0,0,2.11,0c.73-.07,1.45-.19,2.18-.31a1.19,1.19,0,0,0,.55-.4,1.53,1.53,0,0,0,.38-1,1.38,1.38,0,0,0-1.38-1.35c-1.25.08-2.49.12-3.77.16s-2.63-.08-3.94-.2a52.11,52.11,0,0,1-23.64-8.93,1.78,1.78,0,0,0-.27-.12,1.07,1.07,0,0,0-.62,0Z" style="fill:#161616"/><path d="M854.3,374.88a1.1,1.1,0,0,0-1.31.87,1.17,1.17,0,0,0,.8,1.43,113.9,113.9,0,0,1,16.83,5.25c2.76,1.15,5.49,2.37,8.15,3.8,1.31.67,2.59,1.42,3.91,2.17s2.69,1.66,4,2.49a1.32,1.32,0,0,0,1.83-.59,1.52,1.52,0,0,0,.1-1.11,1.48,1.48,0,0,0-.65-.83,56.2,56.2,0,0,0-7.74-4.58c-2.77-1.39-5.6-2.61-8.5-3.72s-5.71-2.05-8.64-2.92c-1.73-.52-3.46-.95-5.22-1.39-1.21-.31-2.39-.59-3.6-.87Z" style="fill:#161616"/><path d="M800.67,316a.92.92,0,0,0,.31,1.14c1.08.68,2.08,1.39,3.08,2.14a46.93,46.93,0,0,1,8.22,8.38,53.47,53.47,0,0,1,4.08,6.2,65.14,65.14,0,0,1,3.35,6.88,1,1,0,0,0,.42.35.93.93,0,0,0,.79.12,1.16,1.16,0,0,0,.59-.55,1.2,1.2,0,0,0,.07-.83,52.91,52.91,0,0,0-3.52-7.07,56.71,56.71,0,0,0-4.53-6.49A44.84,44.84,0,0,0,802.26,316a3.17,3.17,0,0,0-.52-.32.39.39,0,0,0-.2-.08.81.81,0,0,0-.87.4Z" style="fill:#161616"/><path d="M823.24,324.93l.07.08s0-.08-.07-.08Zm-5.39-7.47a.91.91,0,0,0-.55.28,1,1,0,0,0-.21.63.73.73,0,0,0,.24.55,34.21,34.21,0,0,1,5.87,6,37.46,37.46,0,0,1,4.6,7.86c.48,1.11.86,2.18,1.24,3.32a1.45,1.45,0,0,0,.49.64,1.15,1.15,0,0,0,.79.08,1.12,1.12,0,0,0,.66-1.39,38.34,38.34,0,0,0-12.58-17.7,1.74,1.74,0,0,0-.38-.2c-.07,0-.1,0-.17,0Z" style="fill:#161616"/><path d="M865.71,374.69a1.13,1.13,0,0,0,.76,1.34,57.92,57.92,0,0,1,5.63,1.86,50.09,50.09,0,0,1,5.5,2.61,60,60,0,0,1,5.39,3.4,1.08,1.08,0,0,0,1.45-.48,1.21,1.21,0,0,0,.07-.87,1.29,1.29,0,0,0-.52-.63,44.26,44.26,0,0,0-8-4.74,57.89,57.89,0,0,0-9-3.32h0a1,1,0,0,0-1.21.83Z" style="fill:#161616"/><path d="M836.89,235.85a82.31,82.31,0,0,0-2.8,18.42,69.7,69.7,0,0,0,.28,9.36,62.63,62.63,0,0,0,1.59,9.21c.17.63.34,1.27.55,1.9a1.15,1.15,0,0,0,1.48.83,1.3,1.3,0,0,0,.8-1.58,65.34,65.34,0,0,1-1.8-7.71,74.55,74.55,0,0,1,1.63-30,1,1,0,0,0-.66-1.14.94.94,0,0,0-1.07.71Z" style="fill:#161616"/><path d="M841.14,280s.07,0,.1.07-.07,0-.1-.07Zm-2.28-1.47a1.19,1.19,0,0,0-.87.44,1.47,1.47,0,0,0-.34,1,1.31,1.31,0,0,0,.41.94,66.65,66.65,0,0,0,9.16,6.33,78.81,78.81,0,0,0,10.51,4.86,88,88,0,0,0,10.88,3.32c1.76.39,3.53.75,5.29,1.07a39.12,39.12,0,0,0,5.6.51,1.53,1.53,0,0,0,1.41-1.23,1.61,1.61,0,0,0-1.14-1.93c-2-.44-4-.71-6-1s-4.18-.79-6.29-1.26A83.13,83.13,0,0,1,855,287.58a59,59,0,0,1-14-7.74c-.41-.32-.79-.64-1.21-1a1.23,1.23,0,0,0-.59-.32.88.88,0,0,0-.34,0Z" style="fill:#161616"/><path d="M882.61,289.84a18.45,18.45,0,0,1-2.7,1.77,1.4,1.4,0,0,0-.66,1,1.6,1.6,0,0,0,.18,1.19,1.47,1.47,0,0,0,.93.71c.14,0,.28,0,.38,0a1.16,1.16,0,0,0,.73-.24,11.36,11.36,0,0,0,2.93-2.09,1.67,1.67,0,0,0,.18-1.86,1.44,1.44,0,0,0-.9-.67,1.25,1.25,0,0,0-1.07.16Z" style="fill:#161616"/><path d="M885.65,271.3Zm0-16.16A85.94,85.94,0,0,0,883,272.41a97.86,97.86,0,0,0,.55,17.62,1.27,1.27,0,0,0,.35.83,1.23,1.23,0,0,0,.83.32,1,1,0,0,0,.76-.4,1.1,1.1,0,0,0,.31-.87,92.59,92.59,0,0,1-.17-18.61v0a.56.56,0,0,0,0-.2.56.56,0,0,1,0,.2c.24-2.57.55-5.14,1-7.67s.89-5.29,1.41-7.9a1.34,1.34,0,0,0-.93-1.58,1.21,1.21,0,0,0-1.45,1Z" style="fill:#161616"/><path d="M855,240.67c.07,0,.1,0,.14,0s-.07,0-.14,0Zm-14.51-3.83h0Zm1.72-2.18-2.24-.23a.93.93,0,0,0-.76.35,1.3,1.3,0,0,0,.07,1.7c.07,0,.14.12.2.16a1,1,0,0,0,.59.16h.18A56.45,56.45,0,0,1,855,240.63a146.83,146.83,0,0,1,14.1,6.88c2.31,1.26,4.56,2.57,6.84,3.83s4.39,2.49,6.63,3.64a1.47,1.47,0,0,0,1.07.12,1.5,1.5,0,0,0,.25-2.69c-3.18-2-6.47-3.83-9.75-5.61s-6.81-3.64-10.33-5.26a109,109,0,0,0-10.75-4.31c-1.66-.51-3.32-1-5-1.42a58.51,58.51,0,0,0-5.81-1.15Z" style="fill:#161616"/><path d="M838.89,217.28a24.35,24.35,0,0,0-.24,6.32,23.13,23.13,0,0,0,1.49,6.16,1.15,1.15,0,0,0,.45.6.83.83,0,0,0,.69,0,.89.89,0,0,0,.52-.44.93.93,0,0,0,.06-.75,23,23,0,0,1-1.48-5,20.83,20.83,0,0,1-.17-4.86,14.06,14.06,0,0,1,.2-1.7.84.84,0,0,0-.58-1,.77.77,0,0,0-.94.64Z" style="fill:#161616"/><path d="M836.13,230.51l.1.24-.1-.24ZM831.39,208a36.32,36.32,0,0,0-.72,7.7,40.58,40.58,0,0,0,.86,7.91,43.13,43.13,0,0,0,2.18,7.55c.45,1.22,1,2.45,1.52,3.59a22.13,22.13,0,0,0,1.9,3.32,1.26,1.26,0,0,0,.8.6,1.11,1.11,0,0,0,.93-.16,1.43,1.43,0,0,0,.41-1.86c-1.1-2-2.21-4-3.14-6.13a46.32,46.32,0,0,1-2.87-9.84,37.54,37.54,0,0,1-.38-8.81,27.88,27.88,0,0,1,.52-3.36,1.1,1.1,0,0,0-.76-1.3,1,1,0,0,0-1.25.79Z" style="fill:#161616"/><path d="M897.81,232.73a46.68,46.68,0,0,0-6,4.27,58.56,58.56,0,0,0-5.63,5.41,1.4,1.4,0,0,0,0,1.82,1.16,1.16,0,0,0,1.72,0c1.25-1.35,2.56-2.65,3.94-3.87q1.67-1.42,3.42-2.73c1.25-.91,2.56-1.78,3.87-2.61a1.44,1.44,0,0,0,.42-1.86,1.35,1.35,0,0,0-.76-.59,1.21,1.21,0,0,0-1,.2Z" style="fill:#161616"/><path d="M915,232.25a30.09,30.09,0,0,0-4.36,1.62,46.93,46.93,0,0,0-4.18,2.26,61.41,61.41,0,0,0-7.5,5.41c-4.94,4-9.5,8.62-14.13,13a1.77,1.77,0,0,0-.38,1.11,1.59,1.59,0,0,0,.45,1,1.29,1.29,0,0,0,1,.39,1.47,1.47,0,0,0,1-.47c3.73-3.56,7.4-7.23,11.3-10.63-.1.12-.21.19-.27.27a87.47,87.47,0,0,1,7.29-5.77,62.93,62.93,0,0,1,8-4.74c.79-.39,1.59-.75,2.42-1.15a1.07,1.07,0,0,0,.65-.59,1.46,1.46,0,0,0,.11-.95,1.16,1.16,0,0,0-.87-.83,1.41,1.41,0,0,0-.58,0Z" style="fill:#161616"/><path d="M886.55,288.81c.07,0,.13.12.2.16s-.13-.12-.2-.16Zm-1.11-.52a1,1,0,0,0-.86.44,1.42,1.42,0,0,0,0,1.9,95.79,95.79,0,0,0,13,8.69c2.32,1.3,4.67,2.45,7.09,3.52a55.89,55.89,0,0,0,7.43,2.68,1.42,1.42,0,0,0,1.69-1.14,1.65,1.65,0,0,0-.17-1.15,1.7,1.7,0,0,0-.9-.67c-2-.71-4-1.42-5.94-2.21a87.54,87.54,0,0,1-20.29-11.58,1.74,1.74,0,0,0-.14-.12,1.17,1.17,0,0,1-.27-.2,1.1,1.1,0,0,0-.31-.12,1.08,1.08,0,0,0-.35,0Z" style="fill:#161616"/><path d="M878.32,293.83a1.15,1.15,0,0,0-.27.75,1.24,1.24,0,0,0,.31.71,80.2,80.2,0,0,0,14.2,12.88,75.86,75.86,0,0,0,8.19,5.14c1.38.71,2.76,1.42,4.21,2.06a45.76,45.76,0,0,0,4.39,1.7s.11,0,.18,0a1.22,1.22,0,0,0,1.48-1,1.54,1.54,0,0,0-.17-1,1.27,1.27,0,0,0-.76-.59c-1.25-.4-2.49-.87-3.7-1.35a69.31,69.31,0,0,1-16.17-9.44,72.64,72.64,0,0,1-10.54-9.92.89.89,0,0,0-.42-.24,1,1,0,0,0-.93.28Z" style="fill:#161616"/><path d="M896.19,298.73a54.82,54.82,0,0,1-1.49,6,1,1,0,0,0,.11.82,1.09,1.09,0,0,0,.62.48,1,1,0,0,0,.76-.12,1.08,1.08,0,0,0,.45-.67,45.45,45.45,0,0,0,1.48-6,1.09,1.09,0,0,0-.72-1.26,1,1,0,0,0-1.21.79Z" style="fill:#161616"/><path d="M904,301.49a1.22,1.22,0,0,0-.48.75,58.53,58.53,0,0,1-.93,5.93,1.25,1.25,0,0,0,.83,1.47,1.18,1.18,0,0,0,1.34-.91,48.32,48.32,0,0,0,.9-6,.78.78,0,0,0,0-.32,1,1,0,0,0-.18-.55,1,1,0,0,0-.69-.55,1.07,1.07,0,0,0-.83.15Z" style="fill:#161616"/><path d="M836.2,274.62c-1.42,1.19-2.84,2.37-4.29,3.56a.72.72,0,0,0-.34.51,1.09,1.09,0,0,0,.1.67.78.78,0,0,0,.52.4.71.71,0,0,0,.62-.12c1.38-1.19,2.83-2.37,4.22-3.6a.81.81,0,0,0,.34-.51.74.74,0,0,0-.07-.63.88.88,0,0,0-.52-.4.63.63,0,0,0-.58.12Z" style="fill:#161616"/><path d="M839.62,281.93a35.81,35.81,0,0,0-5.81,3.8,1.75,1.75,0,0,0-.62,1,1.56,1.56,0,0,0,1.07,1.86,1.38,1.38,0,0,0,1.11-.2,37.51,37.51,0,0,1,5.77-3.87,1.44,1.44,0,0,0,.62-.95,1.62,1.62,0,0,0-.17-1.14,1.5,1.5,0,0,0-.9-.68,1.45,1.45,0,0,0-1.07.2Z" style="fill:#161616"/><path d="M832.33,299.72a1.11,1.11,0,0,0,.41,1.46c2.9,1.93,5.74,3.95,8.57,5.93a1.18,1.18,0,0,0,.87.08,1.12,1.12,0,0,0,.62-.56,1.19,1.19,0,0,0,.07-.91,1.38,1.38,0,0,0-.52-.67c-2.84-2-5.74-3.87-8.64-5.81l-.24-.12a1.07,1.07,0,0,0-1.14.6Z" style="fill:#161616"/><path d="M842.52,305.05a1.19,1.19,0,0,0-.79.4,1.43,1.43,0,0,0-.35.91,44.76,44.76,0,0,0,.14,7.5c.1,1.31.31,2.57.52,3.84a17.17,17.17,0,0,0,1.07,3.79,1.54,1.54,0,0,0,.59.83,1.24,1.24,0,0,0,1,.08,1.22,1.22,0,0,0,.72-.63,1.6,1.6,0,0,0,.11-1.07c-.24-1.07-.52-2.09-.8-3.16s-.45-2-.62-3a38.72,38.72,0,0,1-.41-4c-.07-1.42,0-2.84,0-4.22a1.24,1.24,0,0,0-.34-.87,1.19,1.19,0,0,0-.56-.32.83.83,0,0,0-.31,0Z" style="fill:#161616"/><path d="M845.35,320.27a1,1,0,0,0-.79.39,1.35,1.35,0,0,0,0,1.78,47.69,47.69,0,0,0,7.19,5.37,50,50,0,0,0,7.92,4,82.44,82.44,0,0,0,8.53,2.92c1.42.4,2.83.79,4.25,1.11s2.8.63,4.25.83a1.3,1.3,0,0,0,.94-.16,1.46,1.46,0,0,0,.55-.83,1.54,1.54,0,0,0-.17-1,1.16,1.16,0,0,0-.77-.55c-1.45-.51-2.9-.91-4.35-1.31s-3.14-.86-4.66-1.3c-3-.87-6-1.86-8.89-3a49.19,49.19,0,0,1-11.26-6.25c-.66-.51-1.28-1.06-1.9-1.62a1.59,1.59,0,0,0-.55-.31Z" style="fill:#161616"/><path d="M884.06,326.51c-1,1.3-2,2.69-3,4s-2,2.65-3.11,3.91a1.48,1.48,0,0,0,.07,1.94,1.21,1.21,0,0,0,1.79,0c1.07-1.26,2.14-2.57,3.15-3.87a41.65,41.65,0,0,0,3.07-4.43,1.41,1.41,0,0,0-.24-1.58,1.11,1.11,0,0,0-.59-.32,1.13,1.13,0,0,0-1.17.36Z" style="fill:#161616"/><path d="M903,328.53c-1.52-.16-3.07-.24-4.63-.36a46.55,46.55,0,0,1-4.7-.79,34.41,34.41,0,0,1-4.76-1.46c-.52-.24-1-.44-1.56-.67a1.13,1.13,0,0,0-1.62.51,1.35,1.35,0,0,0,.48,1.74,45.58,45.58,0,0,0,8,2.92,35.85,35.85,0,0,0,4.15.83,22.62,22.62,0,0,0,4.35.16,1.42,1.42,0,0,0,1.28-1.14,1.64,1.64,0,0,0-.17-1.07,1.24,1.24,0,0,0-.76-.63.13.13,0,0,0-.11,0Z" style="fill:#161616"/><path d="M934.48,244.5a24.94,24.94,0,0,0-4.39,3.76,28.53,28.53,0,0,0-3.6,4.82,35.11,35.11,0,0,0-2.55,5.45,32.65,32.65,0,0,0-1.59,6,1.41,1.41,0,0,0,.13,1,1.31,1.31,0,0,0,.73.55,1.21,1.21,0,0,0,1.45-.95c.45-1.85.9-3.71,1.52-5.53a32.71,32.71,0,0,1,3.42-6.88,26.94,26.94,0,0,1,4-4.58c.66-.55,1.35-1.07,2.08-1.58a1.26,1.26,0,0,0,.38-1.66,1.21,1.21,0,0,0-.73-.55,1,1,0,0,0-.86.15Z" style="fill:#161616"/><path d="M943.15,250a32.53,32.53,0,0,0-9.5,11,26,26,0,0,0-2.49,7,19.24,19.24,0,0,0-.45,3.79,16.28,16.28,0,0,0,.34,4.07,1.29,1.29,0,0,0,.35.6,1.24,1.24,0,0,0,1,.39,1.42,1.42,0,0,0,1.32-1.5,30.32,30.32,0,0,1,0-4.47,25.05,25.05,0,0,1,1.21-5.69,29.85,29.85,0,0,1,3-6,30.51,30.51,0,0,1,4.8-5.46c.59-.47,1.17-.95,1.76-1.38a1.74,1.74,0,0,0,.59-.87,1.65,1.65,0,0,0-.17-1.07,1.29,1.29,0,0,0-.83-.59,1.06,1.06,0,0,0-1,.16Z" style="fill:#161616"/><path d="M948.3,262.88a.94.94,0,0,0-.62.32,27,27,0,0,0-3.46,5.93,30,30,0,0,0-2,6.64,1.14,1.14,0,0,0,.76,1.34,1,1,0,0,0,1.28-.83,26.48,26.48,0,0,1,1.18-4.9,29.28,29.28,0,0,1,3-6c.21-.28.42-.55.62-.83a1.35,1.35,0,0,0,.25-.75,1.05,1.05,0,0,0-.28-.67,1,1,0,0,0-.45-.24.45.45,0,0,0-.24,0Z" style="fill:#161616"/><path d="M794.32,199.81a29.25,29.25,0,0,0-2.56,3.79,28.39,28.39,0,0,0-1.87,4.39,27,27,0,0,0-1,4.58,21.14,21.14,0,0,0-.07,4.9,1.06,1.06,0,0,0,.35.79,1.09,1.09,0,0,0,.76.32,1.12,1.12,0,0,0,1-1.19,30.13,30.13,0,0,1,0-4,27.8,27.8,0,0,1,1.21-5.61,24.76,24.76,0,0,1,2.52-5c.35-.51.69-1,1.07-1.46a1.15,1.15,0,0,0,0-1.54.82.82,0,0,0-.45-.28,1,1,0,0,0-1,.32Z" style="fill:#161616"/><path d="M803.71,207s0,.08-.06.08,0,0,.06-.08Zm-.1-4.07a39.57,39.57,0,0,0-3.39,4.94,32.88,32.88,0,0,0-2.45,5.53,27.89,27.89,0,0,0-1.31,5.81,23.88,23.88,0,0,0,.07,6.09c0,.12,0,.24.07.35a1.2,1.2,0,0,0,.34.6,1.37,1.37,0,0,0,1,.39,1.59,1.59,0,0,0,.9-.43,1.29,1.29,0,0,0,.34-1,25.2,25.2,0,0,1,1.28-11.66,29.92,29.92,0,0,1,3.35-6.6c.52-.75,1.07-1.46,1.63-2.17a1.4,1.4,0,0,0,0-1.86,1.24,1.24,0,0,0-.58-.32,1.12,1.12,0,0,0-1.18.36Z" style="fill:#161616"/><path d="M810.56,213.13a1.07,1.07,0,0,0-.07.19,1.07,1.07,0,0,1,.07-.19ZM809.21,211a1.22,1.22,0,0,0-.73.63,42.35,42.35,0,0,0-1.48,5.14,33.91,33.91,0,0,0-.8,5.3,1.28,1.28,0,0,0,.18.63,1.22,1.22,0,0,0,.76.55,1,1,0,0,0,.89-.15,1.17,1.17,0,0,0,.52-.8,41.42,41.42,0,0,1,2-9.2c0-.08,0-.16.07-.2a1.34,1.34,0,0,1,.14-.36,1.53,1.53,0,0,0,0-.67,1.62,1.62,0,0,0-.58-.79l-.31-.12a1.24,1.24,0,0,0-.66,0Z" style="fill:#161616"/><path d="M857.35,162.46a1.13,1.13,0,0,0,.1.95,1.14,1.14,0,0,0,.69.55,24.73,24.73,0,0,0,3.8,1.11,17.13,17.13,0,0,0,4.22.47,1.21,1.21,0,0,0,1.17-1.26,1.29,1.29,0,0,0-.34-.91,1.26,1.26,0,0,0-.83-.36c-1-.08-2-.16-3.08-.27a24.35,24.35,0,0,1-4.35-1.11,1,1,0,0,0-.31-.08,1.15,1.15,0,0,0-1.07.91Z" style="fill:#161616"/><path d="M874.45,170a1.06,1.06,0,0,0-.66.55,1.23,1.23,0,0,0,.38,1.58c1.77,1,3.67,1.58,5.5,2.37a12.54,12.54,0,0,1,2.49,1.47,6.89,6.89,0,0,1,1,1.06c.25.4.45.79.66,1.19a11.64,11.64,0,0,1,.45,1.9c0,.07,0,.19,0,.31a1.24,1.24,0,0,0,.28.75.91.91,0,0,0,.69.28,1.05,1.05,0,0,0,1-1,9.34,9.34,0,0,0-1-4.23,7.63,7.63,0,0,0-2.49-2.68,14.61,14.61,0,0,0-3.25-1.59c-1.07-.43-2.18-.83-3.25-1.3a10.42,10.42,0,0,1-1-.51,1.44,1.44,0,0,0-.55-.16c-.11,0-.21,0-.28,0Z" style="fill:#161616"/><path d="M870.68,176.57a1.07,1.07,0,0,0-1,1.11,1.09,1.09,0,0,0,1,1.1,10.19,10.19,0,0,1,1.56.08,16.05,16.05,0,0,1,3.32,1,23.34,23.34,0,0,1,4.32,2.77c.55.47,1.07.94,1.59,1.42a1.22,1.22,0,0,0,.79.35,1.18,1.18,0,0,0,.8-.35,1.28,1.28,0,0,0,0-1.7,19.15,19.15,0,0,0-2.6-2.33,18.61,18.61,0,0,0-3-1.86,14.94,14.94,0,0,0-6.63-1.58Z" style="fill:#161616"/><path d="M873,180.8a2.45,2.45,0,1,0,2.42-2.61A2.55,2.55,0,0,0,873,180.8Z" style="fill:#161616"/><path d="M858.24,170.64a.13.13,0,0,0,.11,0,.13.13,0,0,1-.11,0Zm-4.14-3.12a1.54,1.54,0,0,0-.49.67,1.13,1.13,0,0,0,.11.83,1,1,0,0,0,.62.51,14.7,14.7,0,0,1,3.84,1.11,15.87,15.87,0,0,1,3.49,2.17c.55.48,1.1,1,1.65,1.51a1,1,0,0,0,.38.23.85.85,0,0,0,.7-.08,1,1,0,0,0,.31-1.3,9.8,9.8,0,0,0-1.94-2.17,13.51,13.51,0,0,0-2.38-1.7,15.46,15.46,0,0,0-5.5-1.9c-.07,0-.17,0-.27,0a.86.86,0,0,0-.52.16Z" style="fill:#161616"/><path d="M855.55,172.34a2.77,2.77,0,1,0,2.76-3,2.88,2.88,0,0,0-2.76,3Z" style="fill:#161616"/><path d="M863.46,179.53s-.07.08-.07.12,0-.08.07-.12Zm.59-.95a7.32,7.32,0,0,1-.55.91,7.1,7.1,0,0,1-1,1.07,8.86,8.86,0,0,1-1.14.71,8.43,8.43,0,0,1-1.35.36,8.7,8.7,0,0,1-2,0,.91.91,0,0,0-.45.16.77.77,0,0,0-.41.55,1,1,0,0,0,.62,1.18,5.51,5.51,0,0,0,2.28.24,6.08,6.08,0,0,0,4.11-2.05,8.46,8.46,0,0,0,1.45-2.1,1,1,0,0,0-.31-1.34.92.92,0,0,0-.45-.12.9.9,0,0,0-.79.47Z" style="fill:#161616"/><path d="M857.28,184.55s0,0,0,.08,0,0,0-.08Zm-.28-2.73a1,1,0,0,0-.45.56,1.14,1.14,0,0,0,.1.75c.25.55.49,1.07.7,1.62s.45,1.22.65,1.82a.91.91,0,0,0,.42.59.73.73,0,0,0,.69.12,1,1,0,0,0,.65-1.23,27.77,27.77,0,0,0-1.52-3.87.83.83,0,0,0-1.24-.36Z" style="fill:#161616"/><path d="M865.92,197.87s.07,0,.1,0-.07,0-.1,0ZM852.85,188a.91.91,0,0,0-.31,1.19,6.19,6.19,0,0,0,2.59,2.25,15.45,15.45,0,0,0,3.74,1.22c2.69.6,5.46.83,8.12,1.47a12.78,12.78,0,0,1,2.14.71,5.05,5.05,0,0,1,1,.59l.35.36a4,4,0,0,1,.2.35,1.23,1.23,0,0,0,.07.32V197a6,6,0,0,1-.24.91c-.1.16-.17.32-.27.47a1.25,1.25,0,0,1-.18.24l-.24.12-.34.12a5.1,5.1,0,0,1-.8,0,11.12,11.12,0,0,1-2.52-.83c-1.73-.75-3.35-1.74-5-2.61a22.47,22.47,0,0,0-2.56-1.26,8.85,8.85,0,0,0-2-.71,1,1,0,0,0-1.28.79,1.13,1.13,0,0,0,.72,1.34l.52.24a36.43,36.43,0,0,1,3.8,2.13,39.37,39.37,0,0,0,4.49,2.49,13,13,0,0,0,2.32.91,5.54,5.54,0,0,0,2.14.24,3.5,3.5,0,0,0,2-.68,4.93,4.93,0,0,0,.49-.39,3.74,3.74,0,0,0,.41-.55,5.13,5.13,0,0,0,.55-1.07,6.31,6.31,0,0,0,.35-1.94,4.31,4.31,0,0,0-.38-1.82,3.15,3.15,0,0,0-.45-.71c-.14-.16-.28-.31-.45-.47a6,6,0,0,0-1.35-.87,8.34,8.34,0,0,0-1.73-.63,13.84,13.84,0,0,0-1.79-.36c-1.42-.24-2.84-.39-4.25-.59-.49,0-1-.12-1.42-.2.07,0,.14,0,.21,0A21.72,21.72,0,0,1,856,190a9.69,9.69,0,0,1-1.31-.79,6.48,6.48,0,0,1-.66-.72s-.07-.11-.1-.15a.87.87,0,0,0-.73-.44.66.66,0,0,0-.38.12Z" style="fill:#161616"/><path d="M1167.13,426.22h0Zm13.92-6.32c-5.46.24-10.92.67-16.34,1.38a166.38,166.38,0,0,0-32.35,7.31,146.14,146.14,0,0,0-27.16,12.49,220,220,0,0,0-20,13.32,252,252,0,0,0-40.36,37.31,174.07,174.07,0,0,0-16.25,21.89,107.1,107.1,0,0,0-10.81,22.73,70.44,70.44,0,0,0-2.84,12,1.55,1.55,0,0,0,.11,1,1.24,1.24,0,0,0,.76.63,1.2,1.2,0,0,0,1-.16,1.39,1.39,0,0,0,.58-.79,73.55,73.55,0,0,1,4.43-16.24A119.42,119.42,0,0,1,1036,507.6s0,0,0,0a187.07,187.07,0,0,1,16.83-20,230.46,230.46,0,0,1,19.29-17.87c12.68-10.47,26.12-19.95,40.6-27.31,1.69-.86,3.42-1.69,5.15-2.45a165.74,165.74,0,0,1,24.05-8.61,205.75,205.75,0,0,1,25.19-5.18c-.14,0-.27,0-.41,0,.14,0,.31,0,.45,0a.36.36,0,0,1,.2,0l-.17,0c4.94-.71,9.92-1.26,14.89-1.66,2.53-.24,5-.39,7.54-.55l3.94-.24c1.31-.08,2.62-.24,3.94-.24a1.69,1.69,0,0,0,1.66-1.73,1.72,1.72,0,0,0-1.66-1.74c-1.32,0-2.63-.16-3.94-.2s-2.84-.08-4.25-.08h-1.07c-2.39,0-4.77,0-7.16.12Z" style="fill:#161616"/><path d="M1094.45,504.91a1.23,1.23,0,0,0-.24.31,1.23,1.23,0,0,1,.24-.31Zm-1.76-17.15a1.27,1.27,0,0,0-.55.35,1.53,1.53,0,0,0-.38,1c0,.71.59,1.46,1.28,1.38a16.89,16.89,0,0,1,3.18,0,9,9,0,0,1,1.55.44,7,7,0,0,1,.73.43,2.32,2.32,0,0,1,.38.44,2.46,2.46,0,0,1,.27.51,5.26,5.26,0,0,1,.21.75,6.42,6.42,0,0,1,0,1.46,16.11,16.11,0,0,1-.9,3.32,35.07,35.07,0,0,1-4.22,7.39,32.83,32.83,0,0,1-5.11,5.66,19.38,19.38,0,0,1-9.06,4,15.18,15.18,0,0,1-4,0,9.45,9.45,0,0,1-5-2.06,8.19,8.19,0,0,1-1.2-1.3,5.85,5.85,0,0,1-.73-1.35,7,7,0,0,1-.38-1.46,7.23,7.23,0,0,1,0-1.74,11.91,11.91,0,0,1,.55-2.21,15.29,15.29,0,0,1,1.63-2.85,25,25,0,0,1,4.11-4.3,1.07,1.07,0,0,0,.34-.83,1.3,1.3,0,0,0-.34-.83,1.11,1.11,0,0,0-.76-.32,1.23,1.23,0,0,0-.8.32,20.87,20.87,0,0,0-6.6,8.81,10.74,10.74,0,0,0-.48,4,9.46,9.46,0,0,0,1.14,3.64,10.58,10.58,0,0,0,6.12,4.66,13.51,13.51,0,0,0,4.35.67,18.81,18.81,0,0,0,4.91-.59,24.89,24.89,0,0,0,5.22-2.1,17.77,17.77,0,0,0,2.79-1.85,32.32,32.32,0,0,0,4.43-4.55,43.25,43.25,0,0,0,4.11-6,30.08,30.08,0,0,0,1.49-3,25,25,0,0,0,1.07-3.16,14,14,0,0,0,.34-2,7.6,7.6,0,0,0,0-1.58,6,6,0,0,0-.17-1,5,5,0,0,0-.35-.95,6.11,6.11,0,0,0-.86-1.43,6,6,0,0,0-3.11-1.73,8.85,8.85,0,0,0-2.28-.24,16.92,16.92,0,0,0-2.84.24Z" style="fill:#161616"/><path d="M1137.89,466.93h0Zm3.49-16h0Zm1.66-2.57a18.25,18.25,0,0,0-4.53.83,1.26,1.26,0,0,0-.76,1.43,1.12,1.12,0,0,0,1.35.83,16.11,16.11,0,0,1,2.32-.52,11.57,11.57,0,0,1,3.11-.08,7.47,7.47,0,0,1,1.59.48,4.64,4.64,0,0,1,.93.55c.21.2.41.4.62.63s.31.52.42.79a6.43,6.43,0,0,1,.27,1.11,8.38,8.38,0,0,1,0,1.66,12.31,12.31,0,0,1-.69,2.65,20.2,20.2,0,0,1-1.9,3.55,14.78,14.78,0,0,1-2,2.1,11.93,11.93,0,0,1-2.49,1.58,16.21,16.21,0,0,1-3.28.95,14.87,14.87,0,0,1-3.77,0A13.59,13.59,0,0,1,1131,466a9.43,9.43,0,0,1-2.11-1.26,7.53,7.53,0,0,1-1.17-1.23,6.7,6.7,0,0,1-.62-1.11,7.59,7.59,0,0,1-.28-1,5.15,5.15,0,0,1,0-1.11,7.94,7.94,0,0,1,.34-1.23,9,9,0,0,1,1-1.73,16.15,16.15,0,0,1,2.32-2.42c.34-.27.69-.51,1-.79a1.1,1.1,0,0,0,.35-1.46,1,1,0,0,0-1.38-.39,15.27,15.27,0,0,0-4.91,5.37,7.14,7.14,0,0,0-.48,5.22,8.27,8.27,0,0,0,3,4.07,12.89,12.89,0,0,0,2.38,1.34,14.48,14.48,0,0,0,2.59.83,14.67,14.67,0,0,0,11.86-2.57,14.1,14.1,0,0,0,2.45-2.49,18.23,18.23,0,0,0,2.18-3.67,11.07,11.07,0,0,0,1-7.19,6,6,0,0,0-4.08-4.31,9,9,0,0,0-2.94-.44Z" style="fill:#161616"/><path d="M1150.82,516.13a.19.19,0,0,0-.07.12.19.19,0,0,1,.07-.12Zm-2.67-11.85a1.32,1.32,0,0,0,.42,1.77,11.68,11.68,0,0,1,1.55,1,12,12,0,0,1,1.18,1.27,8.94,8.94,0,0,1,.66,1.22,6.07,6.07,0,0,1,.34,1.35,9.38,9.38,0,0,1,0,1.5,10.91,10.91,0,0,1-.48,1.89,12.84,12.84,0,0,1-1.18,2.1,11.92,11.92,0,0,1-2.1,2.21,13.33,13.33,0,0,1-2.77,1.78,11.89,11.89,0,0,1-2.38.71,9.3,9.3,0,0,1-2.11,0,11,11,0,0,1-1.94-.55,9,9,0,0,1-1.59-1,9.63,9.63,0,0,1-1.21-1.26,8.69,8.69,0,0,1-.79-1.47,8.45,8.45,0,0,1-.38-1.54,5.1,5.1,0,0,1,0-1.46,6.15,6.15,0,0,1,.34-1.42,10.21,10.21,0,0,1,.83-1.5,8.86,8.86,0,0,1,1.56-1.62,11.1,11.1,0,0,1,2-1.31,1.58,1.58,0,0,0,.49-2.05,1.38,1.38,0,0,0-1.9-.52,13.68,13.68,0,0,0-3.56,2.73,12.18,12.18,0,0,0-1.21,1.62,8.57,8.57,0,0,0-.9,1.82,9.49,9.49,0,0,0-.52,3.4,10.75,10.75,0,0,0,.24,1.77,9.29,9.29,0,0,0,.59,1.78,9.47,9.47,0,0,0,1.83,2.77,9.75,9.75,0,0,0,2.73,2.09,9.05,9.05,0,0,0,1.69.68,12.7,12.7,0,0,0,2,.39,11,11,0,0,0,3.91-.35,13.72,13.72,0,0,0,3.14-1.35,16.16,16.16,0,0,0,3-2.33,15.42,15.42,0,0,0,2.25-2.81,12.53,12.53,0,0,0,1.31-3.08,9.51,9.51,0,0,0,.31-1.66,10.74,10.74,0,0,0,0-1.5,8.81,8.81,0,0,0-.83-3.24,7.83,7.83,0,0,0-.83-1.34,7.61,7.61,0,0,0-1-1.15,11.1,11.1,0,0,0-3.32-1.9.84.84,0,0,0-.31-.08,1.24,1.24,0,0,0-1,.68Z" style="fill:#161616"/><path d="M983.72,453.1a2.58,2.58,0,1,0,5.15,0,2.58,2.58,0,1,0-5.15,0Z" style="fill:#161616"/><path d="M971.49,400.57a3,3,0,0,0,2.83,3.05,3.05,3.05,0,0,0,0-6.09,3,3,0,0,0-2.83,3Z" style="fill:#161616"/><path d="M1014.54,419.78a.78.78,0,1,0,1.56,0,.78.78,0,1,0-1.56,0Z" style="fill:#161616"/><path d="M1034.07,425a1.61,1.61,0,1,0,3.21,0,1.61,1.61,0,1,0-3.21,0Z" style="fill:#161616"/><path d="M1027.23,341.45a2.71,2.71,0,0,0,2.59,2.77,2.8,2.8,0,1,0-2.59-2.77Z" style="fill:#161616"/><path d="M1095.34,366a3.15,3.15,0,1,0,3.14-3.32,3.28,3.28,0,0,0-3.14,3.32Z" style="fill:#161616"/><path d="M737.82,273a1.57,1.57,0,1,0,3.14,0,1.57,1.57,0,1,0-3.14,0Z" style="fill:#161616"/><path d="M774.62,281.89a1.66,1.66,0,1,0,3.32,0,1.66,1.66,0,1,0-3.32,0Z" style="fill:#161616"/><path d="M702,338.92a2,2,0,0,0,2,2.09,2.1,2.1,0,0,0,0-4.18,2,2,0,0,0-2,2.09Z" style="fill:#161616"/><path d="M705.16,438.87a2,2,0,1,0,2-2.17,2.13,2.13,0,0,0-2,2.17Z" style="fill:#161616"/><path d="M764.67,442.58a2.42,2.42,0,1,0,2.41-2.57,2.54,2.54,0,0,0-2.41,2.57Z" style="fill:#161616"/><path d="M792.69,449.26a2.68,2.68,0,1,0,2.66-2.84,2.81,2.81,0,0,0-2.66,2.84Z" style="fill:#161616"/><path d="M800.81,505a3.41,3.41,0,1,0,3.39-3.64,3.57,3.57,0,0,0-3.39,3.64Z" style="fill:#161616"/><path d="M992.63,63.74q.27,5.38.52,10.79c.18,3.75.35,7.5.69,11.22a2.33,2.33,0,0,0,.56,1.46,1.92,1.92,0,0,0,1.34.59,2,2,0,0,0,1.94-2c-.14-3.6-.38-7.19-.59-10.79s-.41-7.47-.59-11.22a2.32,2.32,0,0,0-.58-1.47,1.93,1.93,0,0,0-1.35-.59,2,2,0,0,0-1.94,2.06Z" style="fill:#161616"/><path d="M1008.81,70.61a69,69,0,0,0-13,4.15,1.87,1.87,0,0,0-1,.83,1.8,1.8,0,0,0-.17,1.39,1.62,1.62,0,0,0,2.07,1.26c2.08-.83,4.15-1.54,6.29-2.17s4.46-1.27,6.74-1.82a2,2,0,0,0,1.21-2.33,1.88,1.88,0,0,0-.8-1.11,1.72,1.72,0,0,0-.86-.24c-.17,0-.31,0-.48,0Z" style="fill:#161616"/><path d="M1008,61.76q-.21,5.28-.31,10.55c0,1.78,0,3.52,0,5.3s0,3.75.17,5.61a2,2,0,0,0,.49,1.23,1.51,1.51,0,0,0,1.17.51,1.69,1.69,0,0,0,1.63-1.74c0-1.78,0-3.52-.07-5.26s-.07-3.51-.07-5.29c0-3.64.1-7.27.21-10.91a1.61,1.61,0,1,0-3.22,0Z" style="fill:#161616"/><path d="M1021,67.89a1.38,1.38,0,0,0,.86.27l.9.12a11.14,11.14,0,0,1,2.66.75,13.26,13.26,0,0,1,2,1.23,13.86,13.86,0,0,1,1.42,1.54,12.47,12.47,0,0,1,.93,1.74,10.83,10.83,0,0,1,.49,1.82c0,.59,0,1.18,0,1.81a10.38,10.38,0,0,1-.49,1.78,8,8,0,0,1-1,1.82,9.84,9.84,0,0,1-1.69,1.78,16.41,16.41,0,0,1-3.22,2,10.56,10.56,0,0,1-2.24.68,6.88,6.88,0,0,1-1.28,0,7.32,7.32,0,0,1-.87-.28,3.91,3.91,0,0,1-.65-.4c-.24-.23-.45-.47-.66-.71a7.54,7.54,0,0,1-1.17-3.4,15.4,15.4,0,0,1,0-3.59,21.14,21.14,0,0,1,1.11-4.43,16.57,16.57,0,0,1,1.79-3.32,10.59,10.59,0,0,1,1.08-1.26Zm-.42-3.48A14,14,0,0,0,1018,67a17.17,17.17,0,0,0-2,3.32,21.65,21.65,0,0,0-1.9,7.51,14.11,14.11,0,0,0,1.08,6.79,6.42,6.42,0,0,0,4.45,3.76c2.7.55,5.39-.59,7.67-2a13.41,13.41,0,0,0,3.91-3.48,11.29,11.29,0,0,0,2-4.38,11,11,0,0,0-1.7-8.58,10.55,10.55,0,0,0-1.45-1.74,11,11,0,0,0-1.93-1.54,11.31,11.31,0,0,0-2.11-1.07,10.21,10.21,0,0,0-2.35-.63c-.45-.08-.9-.16-1.35-.2a1.28,1.28,0,0,0-.69-.47,1.11,1.11,0,0,0-.38,0,1.09,1.09,0,0,0-.69.2Z" style="fill:#161616"/><path d="M1050.83,67.45a2,2,0,0,0-1.32,2.45,27.42,27.42,0,0,1,.59,3,21.09,21.09,0,0,1,0,4.63,14.22,14.22,0,0,1-.69,2.88,13.38,13.38,0,0,1-1,1.86,7.71,7.71,0,0,1-1.21,1.27,6.55,6.55,0,0,1-1.34.87,12.71,12.71,0,0,1-1.63.47,11,11,0,0,1-1.62,0,7.06,7.06,0,0,1-1.45-.43,5.5,5.5,0,0,1-1.28-.8,7,7,0,0,1-1-1.06,12.13,12.13,0,0,1-.79-1.46,10.47,10.47,0,0,1-.49-2.06,14.25,14.25,0,0,1,0-2.92,23.1,23.1,0,0,1,1.18-4.43c.27-.67.58-1.34.9-2a1.47,1.47,0,0,0-.49-1.93,1.26,1.26,0,0,0-1.8.51c-2.24,4.55-3.83,10.32-1.34,15.14a8.67,8.67,0,0,0,8.77,4.7,9.8,9.8,0,0,0,2.08-.47,13.42,13.42,0,0,0,2-1.11,10.89,10.89,0,0,0,3.25-3.83,15.64,15.64,0,0,0,1.59-6,26.16,26.16,0,0,0-.62-7.83,1.87,1.87,0,0,0-1.8-1.46,1.78,1.78,0,0,0-.48.08Z" style="fill:#161616"/><path d="M1068.55,80.89l.07.08Zm-6.66-11s0,.08.06.12Zm3.07-7.74a21.9,21.9,0,0,0-2.49.79,7.8,7.8,0,0,0-1.83,1,4.36,4.36,0,0,0-1.8,2.73,6.35,6.35,0,0,0,.07,1.74,11.93,11.93,0,0,0,.59,1.58,18.47,18.47,0,0,0,2.14,3.16c1.18,1.39,2.42,2.69,3.67,4a39.13,39.13,0,0,1,3.18,3.6,7.53,7.53,0,0,1,.89,1.58,2,2,0,0,1,.14.51.18.18,0,0,1,0,.2v.08s0,0,0,.08-.11.12-.18.16a6.36,6.36,0,0,1-.58.35,11,11,0,0,1-2.49.64,43.69,43.69,0,0,1-5.46.27,1.9,1.9,0,0,0,0,3.8,36.21,36.21,0,0,0,6.81-.91,7.72,7.72,0,0,0,3.76-1.86,4.34,4.34,0,0,0,.94-1.58,4,4,0,0,0,0-1.82,4.92,4.92,0,0,0-.59-1.46,9.88,9.88,0,0,0-1-1.54,22.87,22.87,0,0,0-2-2.21c-.79-.84-1.62-1.63-2.45-2.42a38.18,38.18,0,0,1-4.46-4.78,9.21,9.21,0,0,1-.93-1.62,2.56,2.56,0,0,1-.21-.79,1.24,1.24,0,0,1,0-.47,1.19,1.19,0,0,1,.07-.4,4.14,4.14,0,0,1,.24-.43,7.15,7.15,0,0,1,.52-.56,7.66,7.66,0,0,1,1.38-.79,15.16,15.16,0,0,1,2.49-.83.94.94,0,0,0,.62-1.14.86.86,0,0,0-.86-.67H1065" style="fill:#161616"/><path d="M1081.41,62.27a61.06,61.06,0,0,0-9.09,1.7,2.17,2.17,0,0,0-1.35,2.57,1.94,1.94,0,0,0,2.39,1.46c2-.51,3.94-.9,5.91-1.22a50.49,50.49,0,0,1,5-.47c1.11,0,2.18,0,3.29,0h2.45a2,2,0,0,0,1.83-1.51,2.07,2.07,0,0,0-.21-1.58,1.81,1.81,0,0,0-1.14-1,29,29,0,0,0-4.08-.27,45.44,45.44,0,0,0-5,.31Z" style="fill:#161616"/><path d="M1083.55,76.11a.73.73,0,0,1,0,.31.73.73,0,0,0,0-.31ZM1079.27,66c.17,2.92.38,5.85.65,8.77.11,1.46.28,2.93.42,4.39.21,1.62.38,3.24.65,4.86a1.89,1.89,0,0,0,1.77,1.42,1.86,1.86,0,0,0,1.28-.59,2.06,2.06,0,0,0,.51-1.34c-.27-2.37-.65-4.71-1-7.08-.42-3.48-.76-7-1-10.43a2,2,0,0,0-.52-1.27,1.66,1.66,0,0,0-1.17-.51,1.73,1.73,0,0,0-1.66,1.78Z" style="fill:#161616"/><path d="M1101.18,66.31a1.35,1.35,0,0,0,.55-.72,9.61,9.61,0,0,1,1.8.56,10.37,10.37,0,0,1,1.76,1.1,14.22,14.22,0,0,1,1.45,1.55,13.31,13.31,0,0,1,1.07,2,14.79,14.79,0,0,1,.62,2.37,14.79,14.79,0,0,1,0,2.49,12.91,12.91,0,0,1-.62,2.29,10.64,10.64,0,0,1-1.17,2.18,11.19,11.19,0,0,1-1.8,1.9,15.4,15.4,0,0,1-3.21,2,8.39,8.39,0,0,1-2,.63,6.84,6.84,0,0,1-1.28,0,2.79,2.79,0,0,1-1.56-.67c-.24-.24-.45-.47-.65-.71a12,12,0,0,1-.66-1.23,10.53,10.53,0,0,1-.49-2,14.6,14.6,0,0,1,0-3.24,18.64,18.64,0,0,1,1-3.84,17.91,17.91,0,0,1,1.83-3.39,15.36,15.36,0,0,1,2.38-2.53c.31-.24.62-.48.94-.71Zm-1.77-4.67a1.88,1.88,0,0,0-1.76,1.9,2,2,0,0,0,.66,1.5,16.81,16.81,0,0,0-4.08,5.3,19.12,19.12,0,0,0-2,7.9,14.33,14.33,0,0,0,.35,3.64,9.3,9.3,0,0,0,1.24,3,6.16,6.16,0,0,0,5.56,2.89,11.51,11.51,0,0,0,4-1.11,17,17,0,0,0,4.25-2.85,12.9,12.9,0,0,0,2.83-3.87,11.32,11.32,0,0,0,.83-2.17,12.79,12.79,0,0,0,.45-2.49,12.94,12.94,0,0,0-.34-4.43,13.21,13.21,0,0,0-1.77-4,11.58,11.58,0,0,0-5.25-4.35,14.91,14.91,0,0,0-2.18-.63,15.92,15.92,0,0,0-2.38-.2Z" style="fill:#161616"/><path d="M1118.73,69.7v0Zm-2-2.49a1.31,1.31,0,0,0-.66.91c-.45,3.09-.83,6.21-1.11,9.33s-.55,6.17-.62,9.25a1.69,1.69,0,0,0,1.63,1.74,1.71,1.71,0,0,0,1.62-1.74c.1-2.89.17-5.73.35-8.62s.45-5.49.79-8.26c0-.27.07-.59.1-.87s0-.27,0-.43a1.46,1.46,0,0,0-.17-.75,1.54,1.54,0,0,0-.87-.71,1.56,1.56,0,0,0-1.1.15Z" style="fill:#161616"/><path d="M1130.62,59.15a2.39,2.39,0,0,0-.66,1.74c.28,3.64.55,7.23.62,10.87q.06,3.67-.2,7.35c-1.46-1.74-2.87-3.56-4.29-5.37-2.52-3.29-5-6.6-7.6-9.85a2.08,2.08,0,0,0-1.52-.67,2.17,2.17,0,0,0-1.56.67,2.56,2.56,0,0,0-.62,1.66,2.49,2.49,0,0,0,.62,1.62c2.49,3.17,4.91,6.37,7.36,9.53s5,6.48,7.68,9.6a2.12,2.12,0,0,0,2.21.64,2.28,2.28,0,0,0,1.55-1.7,71,71,0,0,0,1-12.22,109.54,109.54,0,0,0-.65-12.13,3.81,3.81,0,0,1-.07-.67,2.44,2.44,0,0,0-.59-1.07,2.31,2.31,0,0,0-1.66-.75,2.28,2.28,0,0,0-1.62.75Z" style="fill:#161616"/><path d="M969.72,99.19a1.7,1.7,0,0,0-1.1.91,2,2,0,0,0-.18,1.5c1.25,3.4,2.42,6.83,3.77,10.15a51.21,51.21,0,0,0,4.74,9.41,1.61,1.61,0,0,0,.65.67,1.56,1.56,0,0,0,1.38.2,1.82,1.82,0,0,0,.83-.47c.11-.16.18-.28.28-.4a2,2,0,0,0,.24-1v-.08a41.9,41.9,0,0,1,1.83-6.44c.35-1.07.69-2.09,1-3.16.48.55,1,1.11,1.52,1.66a59.49,59.49,0,0,1,4.56,5.06,16,16,0,0,1,.86,1.38,1.73,1.73,0,0,0,1.49.91,1.77,1.77,0,0,0,1.66-1.34,48.49,48.49,0,0,0,1.59-6.92,34.14,34.14,0,0,0,.34-7.75,2,2,0,0,0-.48-1.26,1.54,1.54,0,0,0-1.18-.51,1.71,1.71,0,0,0-1.66,1.77,35.44,35.44,0,0,1-.2,6.09c-.18,1.34-.42,2.69-.73,4-.66-.83-1.38-1.58-2.07-2.33a58.47,58.47,0,0,1-4.53-5.06,5.31,5.31,0,0,1-.62-1,1.79,1.79,0,0,0-2-.87,1.55,1.55,0,0,0-.79.48,2.13,2.13,0,0,0-.52,1.34c0,.12,0,.2,0,.32a37.87,37.87,0,0,1-1.87,6.68c-.24.67-.45,1.34-.69,2-.93-1.85-1.76-3.79-2.52-5.73-1.14-3-2.21-5.93-3.29-8.93a2,2,0,0,0-.83-1.15,1.77,1.77,0,0,0-1-.27,1.14,1.14,0,0,0-.49.08Z" style="fill:#161616"/><path d="M999.72,99.5h0v0Zm.48-1.18c-.1.12-.17.23-.24.31a2.4,2.4,0,0,0-.24.87c-.31,2.45-.62,4.94-.83,7.39a27.53,27.53,0,0,0,.21,7.2,10.15,10.15,0,0,0,1,3,6.92,6.92,0,0,0,2.07,2.53A6.57,6.57,0,0,0,1005,121a10.5,10.5,0,0,0,4.18,0,1.93,1.93,0,0,0,.79-.51,2,2,0,0,0,0-2.77,1.64,1.64,0,0,0-1.28-.55,12.46,12.46,0,0,1-2.73,0,6.94,6.94,0,0,1-1.28-.36,2.7,2.7,0,0,1-.72-.47,7,7,0,0,1-.66-.67,7.35,7.35,0,0,1-.59-1.11,15.11,15.11,0,0,1-.58-2.41,32.2,32.2,0,0,1,0-6c.17-2.17.45-4.38.73-6.56a1.78,1.78,0,0,0-.45-1.18,1.63,1.63,0,0,0-1.14-.52,1.5,1.5,0,0,0-1.11.52Z" style="fill:#161616"/><path d="M1007.46,105c-1.66.39-3.32.87-5,1.38a2.08,2.08,0,0,0-1.31,2.53,1.9,1.9,0,0,0,2.35,1.42c1.62-.51,3.28-1,4.94-1.46a2.09,2.09,0,0,0,1.31-2.45,1.9,1.9,0,0,0-.86-1.19,1.74,1.74,0,0,0-.93-.27,2.24,2.24,0,0,0-.52,0Z" style="fill:#161616"/><path d="M999.72,94.4A2.49,2.49,0,0,0,998.58,96a2.52,2.52,0,0,0,.24,2,2.24,2.24,0,0,0,1.49,1.23,36.5,36.5,0,0,0,6.18.55,30.9,30.9,0,0,0,6.57-.79,2.48,2.48,0,0,0,1-4.07,2.14,2.14,0,0,0-1.62-.75,41.28,41.28,0,0,1-10.3,0,2.43,2.43,0,0,0-.52-.08l-.66-.12a2.35,2.35,0,0,0-1.24.35Z" style="fill:#161616"/><path d="M1029.26,98.48a1.64,1.64,0,0,0-.45,1.18c.35,3.8.8,7.59,1.32,11.38.24,1.82.48,3.64.76,5.46s.55,3.87.9,5.81a1.53,1.53,0,0,0,.76,1,1.6,1.6,0,0,0,1.28.2,1.8,1.8,0,0,0,1-.83l.14-.39a1.54,1.54,0,0,0,0-1c-.38-3-.87-5.93-1.32-8.86s-.86-5.73-1.24-8.61c-.17-1.42-.35-2.81-.49-4.23a1.72,1.72,0,0,0-.44-1.18,1.44,1.44,0,0,0-2.22,0Z" style="fill:#161616"/><path d="M1043.4,107.56c-3.77.24-7.54.6-11.27.84a2,2,0,0,0-1.48.63,2.42,2.42,0,0,0-.63,1.58,2.19,2.19,0,0,0,2.11,2.25c3.73-.24,7.5-.51,11.27-1a2.43,2.43,0,0,0,.52-.08,1.73,1.73,0,0,0,.89-.55,2.24,2.24,0,0,0,.59-1.5,2.11,2.11,0,0,0-1.93-2.14Z" style="fill:#161616"/><path d="M1044.92,97.17a2.12,2.12,0,0,0-.52,1.27c-.35,3.67-.59,7.35-.69,11-.07,1.9-.07,3.8,0,5.69s.14,3.84.34,5.69a2.68,2.68,0,0,1,.07.56,2.28,2.28,0,0,0,.49.87,1.75,1.75,0,0,0,2.62,0,2,2,0,0,0,.56-1.43c-.14-1.73-.31-3.51-.38-5.29s-.14-3.8-.14-5.69c0-3.84.24-7.63.55-11.42a1.77,1.77,0,0,0-.48-1.27,1.61,1.61,0,0,0-2.42,0Z" style="fill:#161616"/><path d="M1054.87,98.12a2.48,2.48,0,0,0-.66.71,50.33,50.33,0,0,0-1.72,4.82,53.79,53.79,0,0,0-1.28,5.3c-.73,3.52-1.21,7.11-1.7,10.67l0,.47a1.68,1.68,0,0,0,.21.83,1.53,1.53,0,0,0,.93.79,1.73,1.73,0,0,0,1.24-.15,1.8,1.8,0,0,0,.73-1c.73-5.57,1.55-11.23,3.42-16.52.38.71.76,1.42,1.14,2.17.87,1.78,1.66,3.64,2.42,5.5,1,2.6,1.9,5.21,2.87,7.78.07.16.14.32.21.51a2.06,2.06,0,0,0,.65.72,1.82,1.82,0,0,0,1.49.19,1.85,1.85,0,0,0,1.14-.91,2.37,2.37,0,0,0,.21-1.58c-1.14-3.43-2.39-6.79-3.77-10.11-.69-1.62-1.42-3.2-2.21-4.75a31.67,31.67,0,0,0-2.77-4.7,2.09,2.09,0,0,0-.65-.71,1.88,1.88,0,0,0-.94-.28,2.08,2.08,0,0,0-.93.28Z" style="fill:#161616"/><path d="M1062,108.55c-2.83.28-5.66.4-8.53.4a2.27,2.27,0,0,0-2.18,2.33,2.3,2.3,0,0,0,2.18,2.37,64,64,0,0,0,9.09-.67,2.28,2.28,0,0,0,.93-.59,2.43,2.43,0,0,0,.62-1.58,2.39,2.39,0,0,0-.62-1.58,2.06,2.06,0,0,0-1.38-.68Z" style="fill:#161616"/><path d="M1076.23,112.94a2,2,0,0,0-.14.32,2,2,0,0,1,.14-.32Zm6.7-15.69a1.81,1.81,0,0,0-1.14,1c-1,2.49-2,5-2.87,7.51s-1.86,5.1-2.87,7.63c-.1.27-.24.59-.38.9-.41-.87-.83-1.77-1.17-2.68a61.1,61.1,0,0,1-3-11,2.21,2.21,0,0,0-.87-1.23,1.81,1.81,0,0,0-1.48-.19,1.88,1.88,0,0,0-1.14,1,2.22,2.22,0,0,0-.21,1.58,54.69,54.69,0,0,0,6.46,18.3A2.16,2.16,0,0,0,1076,121a2,2,0,0,0,1.77-1.06c.76-1.63,1.41-3.28,2.07-5s1.24-3.27,1.83-4.94c1.25-3.39,2.49-6.83,3.6-10.27a2.1,2.1,0,0,0-.87-2.29,1.62,1.62,0,0,0-1-.28,1.83,1.83,0,0,0-.48,0Z" style="fill:#161616"/><path d="M1087.66,99.11c0,2.61-.24,5.21-.38,7.82-.1,1.31-.13,2.61-.13,3.88a31.72,31.72,0,0,0,.27,4,10.89,10.89,0,0,0,2.8,6.24,9.13,9.13,0,0,0,7.26,2.45,2.28,2.28,0,0,0,1.45-.63,2.4,2.4,0,0,0,.59-1.58,2.14,2.14,0,0,0-2-2.18l-1.21-.11a9.57,9.57,0,0,1-1.83-.52c-.31-.16-.62-.35-.94-.55s-.44-.48-.65-.71a9.24,9.24,0,0,1-.62-1.15,15,15,0,0,1-.59-2.49,47.39,47.39,0,0,1,0-7c.18-2.49.38-5,.38-7.55a2.3,2.3,0,0,0-2.17-2.29,2.25,2.25,0,0,0-2.15,2.29Z" style="fill:#161616"/><path d="M1098.2,105.67c-2.17.31-4.35.71-6.53,1-.14,0-.31,0-.45.07a3.4,3.4,0,0,0-.62.08,2.15,2.15,0,0,0-1,.64,2.46,2.46,0,0,0-.66,1.7,2.63,2.63,0,0,0,.66,1.73,2.16,2.16,0,0,0,1.62.72,62.18,62.18,0,0,0,8.12-1.55,2.34,2.34,0,0,0,1.52-2.84,2.13,2.13,0,0,0-1-1.34l-.52-.24a1.32,1.32,0,0,0-.55-.08,1.51,1.51,0,0,0-.59.08Z" style="fill:#161616"/><path d="M1090.08,94.92a2.62,2.62,0,0,0,.66,1.7,2.48,2.48,0,0,0,1.59.67c2.94.16,5.87.2,8.81.12a2.2,2.2,0,0,0,0-4.39c-2.94-.12-5.87-.31-8.81-.51h-.1a2.36,2.36,0,0,0-2.15,2.41Z" style="fill:#161616"/><path d="M1121.46,94.92a1.75,1.75,0,0,0-1.17,1.26q-.57,2.73-1,5.46c-.31,1.85-.55,3.75-.76,5.65-.45,3.83-.73,7.67-.87,11.54a1.59,1.59,0,1,0,3.18,0c.14-4,.42-8,.9-11.9.28-2,.59-4,1-6l.24.39c.87,1.46,1.66,3,2.42,4.47,1.52,3,2.94,6,4.39,9a1.7,1.7,0,0,0,2.42.67,2,2,0,0,0,.62-2.61c-1.45-3-2.9-6-4.42-9a49.68,49.68,0,0,0-5.26-8.58,1.46,1.46,0,0,0-1.17-.51,1.61,1.61,0,0,0-.45,0Z" style="fill:#161616"/><path d="M1128.48,105.23a37.39,37.39,0,0,0-8.78,1.94,2.31,2.31,0,0,0-1.45,2.77,2.09,2.09,0,0,0,2.59,1.58,49.27,49.27,0,0,1,8.15-2.1,1.67,1.67,0,0,0,.9-.55,2.2,2.2,0,0,0,.59-1.5,2.16,2.16,0,0,0-.59-1.5,1.85,1.85,0,0,0-1.31-.64Z" style="fill:#161616"/><path d="M981.78,135.35a9.85,9.85,0,0,0-5.32,3.12,11.27,11.27,0,0,0-2.73,5.34,9.94,9.94,0,0,0,.31,5.84,9.25,9.25,0,0,0,.83,1.7,8.18,8.18,0,0,0,1.21,1.51,8.52,8.52,0,0,0,3.49,2,9,9,0,0,0,2.28.48,10.85,10.85,0,0,0,2.21,0,18.94,18.94,0,0,0,5.74-1.22,2,2,0,0,0,1.07-.87,2.29,2.29,0,0,0,.17-1.46,1.74,1.74,0,0,0-2.17-1.31c-1.14.28-2.25.56-3.39.75a13.51,13.51,0,0,1-3.59,0,9.89,9.89,0,0,1-1.94-.51,12.92,12.92,0,0,1-1.17-.75,8.25,8.25,0,0,1-.8-.87,5.69,5.69,0,0,1-.59-1.07,11.82,11.82,0,0,1-.38-1.38,10.59,10.59,0,0,1,0-1.78,9.33,9.33,0,0,1,.48-1.94,10.59,10.59,0,0,1,.9-1.66,9.51,9.51,0,0,1,1.28-1.34,7.74,7.74,0,0,1,1.59-1,8.24,8.24,0,0,1,1.93-.55,11.53,11.53,0,0,1,2.35,0,13.21,13.21,0,0,1,2.8.79,1.38,1.38,0,0,0,1.18-.16,1.51,1.51,0,0,0,.69-1,1.6,1.6,0,0,0-.14-1.26,1.58,1.58,0,0,0-.93-.75,14.91,14.91,0,0,0-3.91-.95,5.28,5.28,0,0,0-1.1-.08,12.11,12.11,0,0,0-2.39.24Z" style="fill:#161616"/><path d="M1000.58,152.86c0,.11,0,.27.07.39,0-.12,0-.28-.07-.39ZM997.37,135a1.59,1.59,0,0,0-.45,1.15,93.91,93.91,0,0,0-.1,9.92,73.9,73.9,0,0,0,.93,10,2.15,2.15,0,0,0,.41.75,1.53,1.53,0,0,0,1.18.51,1.51,1.51,0,0,0,1.14-.51,1.69,1.69,0,0,0,.45-1.19c-.07-.79-.17-1.58-.28-2.37a100.7,100.7,0,0,1-.69-17.11,1.6,1.6,0,0,0-1.52-1.62,1.4,1.4,0,0,0-1.07.47Z" style="fill:#161616"/><path d="M998.06,145a2.21,2.21,0,0,0,2.11,2.25,73.63,73.63,0,0,0,10.71,0,1.91,1.91,0,0,0,1.35-.59,2.15,2.15,0,0,0,.59-1.46,2,2,0,0,0-.59-1.46,1.8,1.8,0,0,0-1.35-.63c-1.73-.08-3.46-.12-5.15-.16-1.86,0-3.7-.08-5.56-.16h-.07a2.23,2.23,0,0,0-2,2.25Z" style="fill:#161616"/><path d="M1013.92,148.27v0Zm-3.83-15.17a2.25,2.25,0,0,0-.56,1.5,72.15,72.15,0,0,0-.07,10.08,68,68,0,0,0,1.35,10.15,2,2,0,0,0,2.52,1.54,2.09,2.09,0,0,0,1.25-1,2.57,2.57,0,0,0,.2-1.7c-.34-1.86-.65-3.76-.89-5.66a68.94,68.94,0,0,1-.38-13.39,2.07,2.07,0,0,0-2-2.14,1.83,1.83,0,0,0-1.41.64Z" style="fill:#161616"/><path d="M1024.84,143.21a3.06,3.06,0,0,0,.17.48,3.06,3.06,0,0,1-.17-.48Zm-3.14-10.79a1.71,1.71,0,0,0-.66.72c-.69,1.73-1.35,3.43-1.9,5.21s-1,3.52-1.45,5.3c-.83,3.63-1.38,7.27-1.9,10.94,0,.16,0,.32,0,.48a2.23,2.23,0,0,0,.21,1,1.77,1.77,0,0,0,1,.79,1.53,1.53,0,0,0,1.32-.16,1.71,1.71,0,0,0,.79-1.07,81.25,81.25,0,0,1,3.73-17c.11.2.17.39.28.59.62,1.31,1.21,2.69,1.73,4,.83,2.1,1.55,4.19,2.28,6.29s1.48,4.42,2.28,6.64c.07.15.14.31.21.43a1.5,1.5,0,0,0,.65.71,1.62,1.62,0,0,0,1.42.2,2,2,0,0,0,1.28-2.41c-1.11-3.75-2.32-7.43-3.67-11.11-.72-1.89-1.48-3.79-2.31-5.69a41.3,41.3,0,0,0-2.7-5.09,1.87,1.87,0,0,0-1.62-1,1.65,1.65,0,0,0-.93.27Z" style="fill:#161616"/><path d="M1027.81,143.33c-2,.36-4.07.79-6.08,1.23a2.31,2.31,0,0,0-1.42,1.14,2.74,2.74,0,0,0-.24,1.94,2.49,2.49,0,0,0,1.07,1.5,2.27,2.27,0,0,0,1.83.24c2-.44,4-.87,6-1.35a2.48,2.48,0,0,0,1.59-3,2.38,2.38,0,0,0-1-1.46,2,2,0,0,0-1.11-.32,3.72,3.72,0,0,0-.66.08Z" style="fill:#161616"/><path d="M1036.76,134.28c-.07,3.87-.24,7.75-.27,11.62a84.41,84.41,0,0,0,.76,11.46,2.07,2.07,0,0,0,.48.87,1.76,1.76,0,0,0,1.28.55,16.66,16.66,0,0,0,5.22-.83,16.2,16.2,0,0,0,2.66-1.1,13.1,13.1,0,0,0,2.52-1.5,2.29,2.29,0,0,0,.9-1.27,2.5,2.5,0,0,0-.17-1.66,2,2,0,0,0-2.73-.75,20.84,20.84,0,0,1-3.15,1.86,16.57,16.57,0,0,1-3.9,1.18c-.18-.79-.28-1.58-.42-2.41-.69-6-.27-12-.24-18a1.51,1.51,0,0,0-1.45-1.58,1.53,1.53,0,0,0-1.49,1.58Z" style="fill:#161616"/><path d="M1052.87,132.46a2,2,0,0,0-.59,1.5c.21,2.77.07,5.54,0,8.3a49.93,49.93,0,0,0,.52,9.05,11.21,11.21,0,0,0,1.14,3.48,6.94,6.94,0,0,0,1.07,1.46,6.2,6.2,0,0,0,1.9,1.19,4.11,4.11,0,0,0,1.7.28,7.32,7.32,0,0,0,2.07-.36,14.73,14.73,0,0,0,4.77-3,2.54,2.54,0,0,0,.52-1,2.25,2.25,0,0,0-.21-1.7,2,2,0,0,0-2.83-.79c-.83.51-1.66,1-2.53,1.46a6.08,6.08,0,0,1-1.45.44,2.24,2.24,0,0,1-.52,0,.7.7,0,0,0-.27-.08,1.25,1.25,0,0,0-.17-.12l-.25-.28c-.14-.24-.27-.51-.41-.79a14.19,14.19,0,0,1-.66-3,68,68,0,0,1-.27-7.43c0-2.37.06-4.78-.14-7.2a2.24,2.24,0,0,0-.59-1.5,2,2,0,0,0-1.42-.63,2,2,0,0,0-1.41.63Z" style="fill:#161616"/><path d="M1071.22,132.07a2,2,0,0,0-.52,1.3c-.45,5.3-1.42,10.63-.66,15.93a12.59,12.59,0,0,0,1,3.32,7,7,0,0,0,2.18,2.57,6,6,0,0,0,1.52.79,7.09,7.09,0,0,0,1.83.31,9.76,9.76,0,0,0,2.08-.15,13.25,13.25,0,0,0,2.07-.56,2,2,0,0,0,1.28-2.37,1.82,1.82,0,0,0-2.25-1.34c-.55.16-1.14.27-1.73.39a11.78,11.78,0,0,1-1.69,0l-.83-.23-.52-.36a3.86,3.86,0,0,1-.48-.51,5.5,5.5,0,0,1-.52-1,13.69,13.69,0,0,1-.59-2.37,38.5,38.5,0,0,1,0-7c.2-2.53.52-5,.72-7.51a1.8,1.8,0,0,0-.52-1.3,1.66,1.66,0,0,0-2.41,0Z" style="fill:#161616"/><path d="M1081.13,141.24c-.83.15-1.62.31-2.42.43a27.39,27.39,0,0,1-4,.32,1.88,1.88,0,0,0-1.8,1.89,1.92,1.92,0,0,0,1.8,1.94,27.2,27.2,0,0,0,7.33-1.14,1.84,1.84,0,0,0,1.17-2.22,1.76,1.76,0,0,0-.76-1.07,1.66,1.66,0,0,0-.83-.19,1.71,1.71,0,0,0-.45,0Z" style="fill:#161616"/><path d="M1082.48,131.12a80.4,80.4,0,0,0-8.64.63,2.14,2.14,0,0,0-.45.08,1.73,1.73,0,0,0-.72.44,1.82,1.82,0,0,0-.49,1.26,1.94,1.94,0,0,0,.49,1.27,1.66,1.66,0,0,0,1.17.51c2.87-.4,5.74-.67,8.64-.91a1.62,1.62,0,0,0,1.07-.47,1.75,1.75,0,0,0,.45-1.15,1.63,1.63,0,0,0-1.52-1.66Z" style="fill:#161616"/><path d="M1085.38,133.45c.14,3.68.21,7.31.25,11v5.49c0,1.94-.07,3.87,0,5.81a1.74,1.74,0,0,0,1.69,1.82,1.79,1.79,0,0,0,1.69-1.82c0-1.82,0-3.64,0-5.49s-.07-3.64-.11-5.46c-.1-3.79-.24-7.58-.41-11.34a1.65,1.65,0,0,0-1.56-1.62,1.6,1.6,0,0,0-1.52,1.62Z" style="fill:#161616"/><path d="M1099.41,130.76a2.13,2.13,0,0,0-.55,1.39,45,45,0,0,0,.07,5.69c.1,2,.31,4,.55,6,.11,1.11.28,2.26.42,3.36-3.18-4.7-6.15-9.6-9.13-14.5a1.89,1.89,0,0,0-1.1-.91,1.7,1.7,0,0,0-1.45.2,2.06,2.06,0,0,0-.66,2.73c2.25,3.71,4.49,7.43,6.81,11.1,1.17,1.82,2.35,3.64,3.56,5.45s2.42,3.48,3.59,5.22a2.28,2.28,0,0,0,.73.75,1.8,1.8,0,0,0,1.55.24,2,2,0,0,0,1.18-1c.07-.16.14-.35.2-.51a2,2,0,0,0,0-1.15c-.24-1.86-.62-3.71-.89-5.57s-.56-3.6-.8-5.42-.41-3.75-.55-5.65-.21-4-.35-6.08a2.3,2.3,0,0,0-.55-1.39,1.76,1.76,0,0,0-2.63,0Z" style="fill:#161616"/><path d="M1116.86,144.71l.11.12Zm-.27-.23s.07.08.1.08-.07,0-.1-.08Zm-2.11-14.35a33.51,33.51,0,0,0-7.64,5.73,11.31,11.31,0,0,0-3.07,5.46,7.61,7.61,0,0,0,.9,5.21,10.93,10.93,0,0,0,3.62,3.6,18,18,0,0,0,4.74,2.17,20.43,20.43,0,0,0,4.91.83,15.64,15.64,0,0,0,2.35-.2,5.53,5.53,0,0,0,1.9-.63,4.08,4.08,0,0,0,2.17-3.67,7.16,7.16,0,0,0-1.72-3.95,13.56,13.56,0,0,0-1.56-1.74c-.9-.79-1.83-1.58-2.8-2.3a1.67,1.67,0,0,0-1.48-.19,1.87,1.87,0,0,0-1.18.94,2.24,2.24,0,0,0-.21,1.63c.07.19.14.35.21.51a2.26,2.26,0,0,0,.69.75l.45.36a21.35,21.35,0,0,1,3.08,3.08c.17.27.34.55.48.83v0s-.07,0-.1,0a5.13,5.13,0,0,1-1,.31,15.8,15.8,0,0,1-3.08-.08,17.35,17.35,0,0,1-4.45-1.3,17.59,17.59,0,0,1-2.6-1.54,13.18,13.18,0,0,1-1.14-1.23,4.26,4.26,0,0,1-.51-.91c-.07-.27-.14-.51-.21-.79v-.83a10.37,10.37,0,0,1,.28-1.06,9.84,9.84,0,0,1,.89-1.58,18.1,18.1,0,0,1,2.87-2.93,42.46,42.46,0,0,1,5-3.4,1.94,1.94,0,0,0,.62-2.49,1.73,1.73,0,0,0-1.49-.91,1.67,1.67,0,0,0-.86.24Z" style="fill:#161616"/><path d="M1125.43,132.19c.14,2.92,0,5.85,0,8.77a43.59,43.59,0,0,0,.83,9.29,10.79,10.79,0,0,0,1.42,3.63,6.87,6.87,0,0,0,1.24,1.54,8,8,0,0,0,.86.68,7,7,0,0,0,1.14.55,5.68,5.68,0,0,0,2,.4,9.31,9.31,0,0,0,2.28-.24,12.24,12.24,0,0,0,2.18-.75,17.13,17.13,0,0,0,2.83-1.58,2.49,2.49,0,0,0,.8-3.2,2.29,2.29,0,0,0-1.31-1.07,2.09,2.09,0,0,0-1.7.24c-.58.31-1.17.59-1.76.86a10.08,10.08,0,0,1-2.52.83,3.93,3.93,0,0,1-1,0,3.53,3.53,0,0,1-.55-.15l-.42-.24c-.17-.16-.31-.36-.48-.51a12,12,0,0,1-.59-1.19,16.61,16.61,0,0,1-.86-3.64c-.52-4.74-.14-9.52-.42-14.22a2.25,2.25,0,0,0-.58-1.54,2,2,0,0,0-1.42-.64,2.1,2.1,0,0,0-2,2.18Z" style="fill:#161616"/><path d="M1128.13,137.25a2.42,2.42,0,0,0-1.11,1.54,2.6,2.6,0,0,0,.25,2,2.19,2.19,0,0,0,1.45,1.19,21.47,21.47,0,0,0,3.59.43,17,17,0,0,0,4-.43,2.51,2.51,0,0,0,1.72-2.45,2.56,2.56,0,0,0-.69-1.78,2.08,2.08,0,0,0-1.66-.75,20.68,20.68,0,0,1-5.21.08c-.14,0-.32,0-.45-.08a4.7,4.7,0,0,0-.7-.08,1.86,1.86,0,0,0-1.17.36Z" style="fill:#161616"/><path d="M1139.29,126.57c-3.56.44-7.08,1-10.64,1.35l-.59.08a2.37,2.37,0,0,0-.93.59,2.32,2.32,0,0,0-.62,1.62,2.25,2.25,0,0,0,.62,1.62,1.91,1.91,0,0,0,1.52.67c3.73-.39,7.46-.87,11.19-1.5a2,2,0,0,0,.94-.55,2.38,2.38,0,0,0,.62-1.62,2.34,2.34,0,0,0-.62-1.62,2.16,2.16,0,0,0-1.35-.67c-.07,0-.1,0-.14,0Z" style="fill:#161616"/><path d="M955,64l-.11.2L955,64Zm6.29-11.7a.14.14,0,0,0,0,.08.14.14,0,0,1,0-.08Zm7.15-7.74s0,0-.07.08.07,0,.07-.08Zm12.72-8.38a38.25,38.25,0,0,0-8.19,3,39.88,39.88,0,0,0-7.12,4.9A49.41,49.41,0,0,0,954.9,58a67.71,67.71,0,0,0-6.5,17.5,77.12,77.12,0,0,0-1.9,18.85,69.07,69.07,0,0,0,.76,8.82c.21,1.38.49,2.73.8,4.11s.69,2.61,1.1,3.91a2.6,2.6,0,0,0,1,1.34,2,2,0,0,0,2.8-.79,2.14,2.14,0,0,0,.21-1.7c-.28-.9-.52-1.85-.76-2.8s-.52-1.86-.73-2.85c-.41-1.89-.76-3.83-1-5.77a66.71,66.71,0,0,1-.55-8.69,72.42,72.42,0,0,1,4.87-26,58.79,58.79,0,0,1,6.36-11.73,43.28,43.28,0,0,1,7.11-7.63,36.2,36.2,0,0,1,8-5l-.21.12a32.3,32.3,0,0,1,5.29-1.86.85.85,0,0,0,.55-1,.79.79,0,0,0-.76-.63c-.06,0-.13,0-.2,0" style="fill:#161616"/><path d="M951.68,113.49c0,.12-.06.2-.1.32,0-.12.07-.2.1-.32ZM950.3,110a76.57,76.57,0,0,0-4,11.3,77.94,77.94,0,0,0-2,12,74.55,74.55,0,0,0,0,11.86c.14,2,.38,4.07.69,6.09a52.24,52.24,0,0,0,1.28,5.61,47.19,47.19,0,0,0,10.33,19,42.12,42.12,0,0,0,4.18,3.87,38.23,38.23,0,0,0,4.43,3.08,35.87,35.87,0,0,0,5.39,2.57,31,31,0,0,0,5.63,1.5,3,3,0,0,0,.59.08,1.77,1.77,0,0,0,1.07-.31,2.22,2.22,0,0,0,1-1.35,2.34,2.34,0,0,0-1.52-2.84c-2-.67-4-1.43-6-2.25a43.73,43.73,0,0,1-8.78-5.38,41,41,0,0,1-6.46-7,43.7,43.7,0,0,1-5-9.28,59.07,59.07,0,0,1-2.11-6.64,67.59,67.59,0,0,1-1.35-7,63.24,63.24,0,0,1,.11-15.37,67,67,0,0,1,4-16c.32-.71.59-1.38.9-2.09a1.58,1.58,0,0,0,.14-1.07,1.52,1.52,0,0,0-.62-.87,1.34,1.34,0,0,0-.66-.16,1.17,1.17,0,0,0-1.14.68Z" style="fill:#161616"/><path d="M977.84,183.84a1.59,1.59,0,0,0-.76,1c-.58,3.2-1.24,6.32-1.9,9.48-.34,1.58-.65,3.12-1,4.71s-.59,3.2-.9,4.82a2.7,2.7,0,0,0,0,1.06,2,2,0,0,0,.9,1.23,1.71,1.71,0,0,0,1,.28,2.43,2.43,0,0,0,.52-.08,1.62,1.62,0,0,0,.83-.52,46.39,46.39,0,0,0,3.76-3.79c1.18-1.3,2.35-2.65,3.53-4s2.31-2.73,3.52-4.07,2.39-2.65,3.53-4a2,2,0,0,0,0-2.73,1.74,1.74,0,0,0-1.28-.59,1.79,1.79,0,0,1-.49.08,2,2,0,0,0-.79.51,40.88,40.88,0,0,0-3.77,3.79q-1.82,2-3.52,4c-1,1.19-2.07,2.38-3.11,3.52.76-4.27,1.66-8.5,2.38-12.76a1.82,1.82,0,0,0-.17-1.35,1.65,1.65,0,0,0-1-.83,1.78,1.78,0,0,0-.45-.08,1.53,1.53,0,0,0-.83.28Z" style="fill:#161616"/><path d="M1038.91,206.92c.13,0,.24,0,.34.08-.1,0-.21,0-.34-.08Zm53-6.52a.59.59,0,0,0-.17.08.59.59,0,0,1,.17-.08Zm-83-2.17c.07,0,.1,0,.14,0s-.07,0-.14,0Zm-20-9.53a1.94,1.94,0,0,0-.18,1.46,2.06,2.06,0,0,0,.83,1.15,106.91,106.91,0,0,0,26.89,14.31,121,121,0,0,0,30.86,6.91,104.64,104.64,0,0,0,24.12-.67,74.57,74.57,0,0,0,11.88-2.57c1.84-.55,3.6-1.18,5.36-1.9,1-.39,2.07-.86,3.08-1.3s1.76-.91,2.66-1.34a2.52,2.52,0,0,0,1.07-1.5,2.66,2.66,0,0,0-.24-2,2.48,2.48,0,0,0-1.42-1.19c-.21,0-.41,0-.62-.08a1.9,1.9,0,0,0-1.14.32c-3.8,1.54-7.64,3-11.54,4.11a95.81,95.81,0,0,1-12.48,2.73,106.46,106.46,0,0,1-28.75-.16,116.61,116.61,0,0,1-30.62-8.89A98.72,98.72,0,0,1,991.39,188a1.4,1.4,0,0,0-.86-.28,1.87,1.87,0,0,0-1.59,1Z" style="fill:#161616"/><path d="M1165.21,150.37a2.2,2.2,0,0,0-1,1.38,49,49,0,0,1-1.21,6.44,44.46,44.46,0,0,1-1.9,5.93,48.36,48.36,0,0,1-5.6,10.27,59.91,59.91,0,0,1-9.67,10.24,73.65,73.65,0,0,1-16,9.88,78.12,78.12,0,0,1-20.11,5.93,60.23,60.23,0,0,1-15.06.28,1.77,1.77,0,0,0-1.35.63,2,2,0,0,0-.55,1.42,2,2,0,0,0,.55,1.46,2,2,0,0,0,1.35.64,69.42,69.42,0,0,0,23.46-1.66,80.86,80.86,0,0,0,23.74-9.73,72.37,72.37,0,0,0,10.09-7.54,56.27,56.27,0,0,0,8.43-9.49,43.13,43.13,0,0,0,8.23-24.07,2.37,2.37,0,0,0-1.63-2.25,1.56,1.56,0,0,0-.59-.12,1.83,1.83,0,0,0-1.1.36Z" style="fill:#161616"/><path d="M1030.3,14.65c-.07,0-.17,0-.24,0s.17,0,.24,0Zm9.16-5.29a103.53,103.53,0,0,0-25,4.86c-12.09,4-23.91,10.67-32,21.42a1.8,1.8,0,0,0-.45,1.18,1.86,1.86,0,0,0,.45,1.23,1.65,1.65,0,0,0,1.14.51,1.45,1.45,0,0,0,1.14-.51,48.74,48.74,0,0,1,8-8.34,62.32,62.32,0,0,1,13.65-8.38,89.32,89.32,0,0,1,23.43-6.6,107.77,107.77,0,0,1,16.34-1.11,116.74,116.74,0,0,1,16.17,1.11,109.68,109.68,0,0,1,28.13,7.9,77.24,77.24,0,0,1,15.31,9.25s.07,0,.14.08.31.28.48.4a2.15,2.15,0,0,0,1.18.35,2.27,2.27,0,0,0,1.69-.75,2.68,2.68,0,0,0,.73-1.82,2.41,2.41,0,0,0-.73-1.77c-1.45-1.27-2.94-2.53-4.49-3.68s-3-2.1-4.6-3a76.8,76.8,0,0,0-10.74-5.26,101.51,101.51,0,0,0-24.26-6.24A119.84,119.84,0,0,0,1048.68,9c-3.07,0-6.15.12-9.22.36" style="fill:#161616"/><path d="M1109.85,28.72a1.79,1.79,0,0,0-1.14,1,2.18,2.18,0,0,0-.21,1.54,2,2,0,0,0,.9,1.23,1.72,1.72,0,0,0,1.45.19l1.8-.27a41,41,0,0,1,23.15,3.28,50.43,50.43,0,0,1,11,7,66.09,66.09,0,0,1,10.92,11.82,87.09,87.09,0,0,1,10,18.57,100.64,100.64,0,0,1,6,23.87,92.17,92.17,0,0,1,.11,22,73.16,73.16,0,0,1-4.29,17.07c-.72,1.82-1.55,3.6-2.42,5.34a46.3,46.3,0,0,1-3.21,5.49,2.48,2.48,0,0,0,.83,3.32,2.15,2.15,0,0,0,1.76.28,4.18,4.18,0,0,0,.56-.28,2,2,0,0,0,.82-.87,9.31,9.31,0,0,0,.7-1h0a36.7,36.7,0,0,0,2.76-4.27,47.7,47.7,0,0,0,2.38-4.74,65.07,65.07,0,0,0,3.6-10.79,77.64,77.64,0,0,0,1.83-11.54,84.89,84.89,0,0,0,.24-11.5,101.43,101.43,0,0,0-13-45.33,75.58,75.58,0,0,0-13.62-17.7,62.12,62.12,0,0,0-8.43-6.72,50.68,50.68,0,0,0-9.36-4.78,45.48,45.48,0,0,0-12.1-2.81c-1.31-.12-2.59-.16-3.9-.16a51,51,0,0,0-9.16.87Z" style="fill:#161616"/></g></g><g id="CareerPlaybook"><path d="M142.73,144.92h-6.28l-2.62,16h-7.78l2.62-16H120v-7.15h9.84l1.72-10.31h-8.63v-7.15h9.8l2.7-16.25h7.73l-2.65,16.25h6.29l2.69-16.25h7.78l-2.7,16.25h9v7.15H153.4l-1.72,10.31h8.94v7.15H150.51l-2.62,16h-7.77Zm-5.11-7.15h6.29l1.71-10.31h-6.28Z" style="fill:#da2222"/><path d="M213.24,141.76l.08.23q.15,9.73-5.49,14.75t-16,5q-10.56,0-16.94-6.45t-6.38-16.87V126.56q0-10.38,6.15-16.85t16.27-6.47q10.81,0,16.74,5t5.76,14.65l-.12.23H200.47q0-5.23-2.23-7.5c-1.48-1.51-3.92-2.26-7.3-2.26A7.73,7.73,0,0,0,184.1,117q-2.39,3.59-2.38,9.51v12q0,6,2.62,9.57a8.72,8.72,0,0,0,7.5,3.59q4.53,0,6.54-2.26t2-7.58Z" style="fill:#da2222"/><path d="M244.26,160.9a15.65,15.65,0,0,1-1.27-3,23,23,0,0,1-.8-3.51,16.18,16.18,0,0,1-4.24,5.37,10.23,10.23,0,0,1-6.58,2q-6.65,0-10.33-3.42t-3.7-9.32a11.27,11.27,0,0,1,4.73-9.7q4.73-3.42,14.34-3.42h5.43v-3a6,6,0,0,0-1.29-4.14,5,5,0,0,0-4-1.45,4.76,4.76,0,0,0-3.42,1.08,4.47,4.47,0,0,0-1.11,3.34l-12.81,0-.08-.23q-.27-5.79,4.82-9.67t13.46-3.89c5.24,0,9.47,1.3,12.72,3.91S255,128.12,255,133v15.94a32.33,32.33,0,0,0,.57,6.25,33.46,33.46,0,0,0,1.69,5.78Zm-9.3-8.56a8,8,0,0,0,4.28-1.13,6.54,6.54,0,0,0,2.6-2.69v-5.59h-5.32q-3.17,0-4.57,1.52a5.53,5.53,0,0,0-1.4,3.87,3.73,3.73,0,0,0,1.23,2.91A4.57,4.57,0,0,0,235,152.34Z" style="fill:#da2222"/><path d="M285.62,129.92l-4.29,0a7.3,7.3,0,0,0-3.71.84,5.15,5.15,0,0,0-2.15,2.37v27.85h-13.2V118.67h12.42l.47,6.21a12.64,12.64,0,0,1,3.51-5.15,7.7,7.7,0,0,1,5.12-1.84,9.57,9.57,0,0,1,1.6.12,12.17,12.17,0,0,1,1.49.35Z" style="fill:#da2222"/><path d="M308.48,161.76q-9.62,0-15.06-5.82A20.71,20.71,0,0,1,288,141.21v-1.48q0-9.69,5.14-15.78T308,117.89q8.55,0,13.26,5.12t4.71,14V144H301.72l-.08.23a8.24,8.24,0,0,0,2.46,5.37,8.58,8.58,0,0,0,6.17,2,27.13,27.13,0,0,0,6.31-.62,39.19,39.19,0,0,0,5.76-2l3.17,8.05a24.12,24.12,0,0,1-7.35,3.36A33.9,33.9,0,0,1,308.48,161.76ZM308,128.05a5.45,5.45,0,0,0-4.67,2,10.15,10.15,0,0,0-1.74,5.45l.08.19h11.41v-1a8.76,8.76,0,0,0-1.16-5A4.39,4.39,0,0,0,308,128.05Z" style="fill:#da2222"/><path d="M350.27,161.76q-9.6,0-15.06-5.82t-5.44-14.73v-1.48q0-9.69,5.13-15.78t14.87-6.06q8.55,0,13.26,5.12t4.7,14V144H343.52l-.08.23a8.24,8.24,0,0,0,2.46,5.37,8.58,8.58,0,0,0,6.17,2,27.13,27.13,0,0,0,6.31-.62,39.19,39.19,0,0,0,5.76-2L367.3,157a24.06,24.06,0,0,1-7.34,3.36A33.92,33.92,0,0,1,350.27,161.76Zm-.5-33.71a5.45,5.45,0,0,0-4.67,2,10.07,10.07,0,0,0-1.74,5.45l.08.19h11.4v-1a8.76,8.76,0,0,0-1.15-5A4.42,4.42,0,0,0,349.77,128.05Z" style="fill:#da2222"/><path d="M396.68,129.92l-4.3,0a7.3,7.3,0,0,0-3.71.84,5.21,5.21,0,0,0-2.15,2.37v27.85h-13.2V118.67h12.42l.47,6.21a12.75,12.75,0,0,1,3.52-5.15,7.66,7.66,0,0,1,5.11-1.84,9.7,9.7,0,0,1,1.61.12,12,12,0,0,1,1.48.35Z" style="fill:#da2222"/><path d="M415.51,141.45v19.49H402.3V104.06H424q10.13,0,16.06,5.16a18.41,18.41,0,0,1,0,27.09q-5.94,5.13-16.06,5.14Zm0-10.16H424q4.31,0,6.57-2.36a8.43,8.43,0,0,0,2.26-6.08,8.82,8.82,0,0,0-2.24-6.21q-2.25-2.42-6.59-2.42h-8.51Z" style="fill:#da2222"/><path d="M466.37,160.94H453.12V100h13.25Z" style="fill:#da2222"/><path d="M498.87,160.9a15.65,15.65,0,0,1-1.27-3,23,23,0,0,1-.8-3.51,16.18,16.18,0,0,1-4.24,5.37,10.25,10.25,0,0,1-6.58,2q-6.64,0-10.34-3.42A12.08,12.08,0,0,1,472,149a11.27,11.27,0,0,1,4.73-9.7q4.72-3.42,14.34-3.42h5.43v-3a6,6,0,0,0-1.29-4.14,5,5,0,0,0-4-1.45,4.76,4.76,0,0,0-3.42,1.08,4.47,4.47,0,0,0-1.11,3.34l-12.81,0-.08-.23q-.27-5.79,4.82-9.67t13.46-3.89q7.85,0,12.72,3.91T509.65,133v15.94a33.17,33.17,0,0,0,.56,6.25,34.42,34.42,0,0,0,1.7,5.78Zm-9.3-8.56a8,8,0,0,0,4.28-1.13,6.54,6.54,0,0,0,2.6-2.69v-5.59h-5.32q-3.17,0-4.57,1.52a5.48,5.48,0,0,0-1.4,3.87,3.73,3.73,0,0,0,1.23,2.91A4.57,4.57,0,0,0,489.57,152.34Z" style="fill:#da2222"/><path d="M532.66,142.3l0,.32h.23l7-24H554l-16.83,48.56a23.23,23.23,0,0,1-5,7.73q-3.09,3-9.81,3a14.46,14.46,0,0,1-2.81-.22c-.73-.14-1.87-.41-3.44-.8l1.61-9.41.82.17a3.31,3.31,0,0,0,.7.06,8.69,8.69,0,0,0,4.57-.92,5.47,5.47,0,0,0,2.15-2.75l1.05-2.73-14.61-42.74h14Z" style="fill:#da2222"/><path d="M596.56,140.7q0,9.66-4.14,15.35t-12.26,5.71a11.84,11.84,0,0,1-6-1.49,13.05,13.05,0,0,1-4.41-4.29l-.78,5H557.42V100h13.2v22.77a12.9,12.9,0,0,1,4.09-3.61,11,11,0,0,1,5.37-1.27q8.16,0,12.32,6t4.16,16Zm-13.16-.82a21.67,21.67,0,0,0-1.41-8.73,5.22,5.22,0,0,0-5.23-3.1,7.82,7.82,0,0,0-3.69.8,6,6,0,0,0-2.45,2.32V149a5.82,5.82,0,0,0,2.49,2,9.43,9.43,0,0,0,3.73.66q3.9,0,5.23-2.71t1.33-8.19Z" style="fill:#da2222"/><path d="M600.62,139.41q0-9.53,5.4-15.52t15-6q9.69,0,15.08,6t5.39,15.52v.82q0,9.59-5.39,15.55t-15,6q-9.72,0-15.11-6t-5.4-15.55Zm13.21.82a17.39,17.39,0,0,0,1.66,8.34c1.1,2,3,3,5.64,3a5.83,5.83,0,0,0,5.55-3,17.3,17.3,0,0,0,1.68-8.32v-.82a17.4,17.4,0,0,0-1.68-8.26,5.89,5.89,0,0,0-5.63-3.1,5.79,5.79,0,0,0-5.56,3.12,17.56,17.56,0,0,0-1.66,8.24Z" style="fill:#da2222"/><path d="M645.59,139.41q0-9.53,5.39-15.52t15-6q9.68,0,15.07,6t5.39,15.52v.82q0,9.59-5.39,15.55t-15,6q-9.72,0-15.11-6t-5.39-15.55Zm13.2.82a17.39,17.39,0,0,0,1.66,8.34,5.91,5.91,0,0,0,5.64,3,5.83,5.83,0,0,0,5.55-3,17.3,17.3,0,0,0,1.68-8.32v-.82a17.4,17.4,0,0,0-1.68-8.26,5.87,5.87,0,0,0-5.62-3.1,5.81,5.81,0,0,0-5.57,3.12,17.56,17.56,0,0,0-1.66,8.24Z" style="fill:#da2222"/><path d="M707.89,144.14h-2.38v16.8H692.3V100h13.21v34.18h1.87l8.91-15.51h15.12l-13,19.06,15.15,23.21h-15Z" style="fill:#da2222"/></g></svg>