<svg id="Layer_1" data-name="Layer 1" xmlns="http://www.w3.org/2000/svg" viewBox="0 0 1200 628"><title>CP005_blog</title><rect id="White" width="1200" height="628" style="fill:#fff"/><g id="_005" data-name="005"><path d="M163.48,230a45.82,45.82,0,0,1-1.6,12.88,27,27,0,0,1-4.36,9,17.67,17.67,0,0,1-6.46,5.3,18.76,18.76,0,0,1-15.78,0,17.78,17.78,0,0,1-6.44-5.3,26.58,26.58,0,0,1-4.34-9,53.29,53.29,0,0,1,0-25.76,26.58,26.58,0,0,1,4.34-9,17.78,17.78,0,0,1,6.44-5.3,18.76,18.76,0,0,1,15.78,0,17.67,17.67,0,0,1,6.46,5.3,27,27,0,0,1,4.36,9A45.82,45.82,0,0,1,163.48,230Zm-4,0a45.5,45.5,0,0,0-1.32-11.76,24.8,24.8,0,0,0-3.54-8,13.76,13.76,0,0,0-5.2-4.54,14.21,14.21,0,0,0-6.26-1.44,13.69,13.69,0,0,0-11.44,6,24.6,24.6,0,0,0-3.56,8,53.13,53.13,0,0,0,0,23.54,24.57,24.57,0,0,0,3.56,8,13.83,13.83,0,0,0,5.2,4.52,14.18,14.18,0,0,0,6.24,1.42,14.33,14.33,0,0,0,6.26-1.42,13.61,13.61,0,0,0,5.2-4.52,24.78,24.78,0,0,0,3.54-8A45.51,45.51,0,0,0,159.48,230Z"/><path d="M209.88,230a45.82,45.82,0,0,1-1.6,12.88,27,27,0,0,1-4.36,9,17.67,17.67,0,0,1-6.46,5.3,18.76,18.76,0,0,1-15.78,0,17.78,17.78,0,0,1-6.44-5.3,26.58,26.58,0,0,1-4.34-9,53.29,53.29,0,0,1,0-25.76,26.58,26.58,0,0,1,4.34-9,17.78,17.78,0,0,1,6.44-5.3,18.76,18.76,0,0,1,15.78,0,17.67,17.67,0,0,1,6.46,5.3,27,27,0,0,1,4.36,9A45.82,45.82,0,0,1,209.88,230Zm-4,0a45.5,45.5,0,0,0-1.32-11.76,24.8,24.8,0,0,0-3.54-8,13.76,13.76,0,0,0-5.2-4.54,14.21,14.21,0,0,0-6.26-1.44,13.69,13.69,0,0,0-11.44,6,24.39,24.39,0,0,0-3.56,8,53.13,53.13,0,0,0,0,23.54,24.36,24.36,0,0,0,3.56,8,13.83,13.83,0,0,0,5.2,4.52,14.18,14.18,0,0,0,6.24,1.42,14.33,14.33,0,0,0,6.26-1.42,13.61,13.61,0,0,0,5.2-4.52,24.78,24.78,0,0,0,3.54-8A45.51,45.51,0,0,0,205.88,230Z"/><path d="M225.2,224.08a42.29,42.29,0,0,1,5.06-1,36.27,36.27,0,0,1,4.54-.3,22.15,22.15,0,0,1,7.8,1.26,15.51,15.51,0,0,1,5.62,3.52,14.69,14.69,0,0,1,3.4,5.38,19.69,19.69,0,0,1,1.14,6.8,20,20,0,0,1-1.54,8,17.82,17.82,0,0,1-4.22,6,18.73,18.73,0,0,1-6.24,3.8,21.62,21.62,0,0,1-7.56,1.32,23,23,0,0,1-4.46-.42,24.59,24.59,0,0,1-4-1.12,23.24,23.24,0,0,1-3.44-1.62,22,22,0,0,1-2.78-1.88l1.16-1.56a1.21,1.21,0,0,1,1.12-.6,3.35,3.35,0,0,1,1.5.6,25.35,25.35,0,0,0,2.52,1.32,23.85,23.85,0,0,0,3.66,1.32,18.1,18.1,0,0,0,4.92.6,17.34,17.34,0,0,0,6.12-1.06,14.3,14.3,0,0,0,4.92-3.06,14.06,14.06,0,0,0,3.26-4.94,17.89,17.89,0,0,0,1.18-6.66,16.78,16.78,0,0,0-.9-5.6,11.48,11.48,0,0,0-2.72-4.38,12.59,12.59,0,0,0-4.6-2.84,19,19,0,0,0-6.54-1,34.75,34.75,0,0,0-4.84.36,43,43,0,0,0-5.44,1.16l-2.44-.76,4.4-25.08h25.48v1.64a1.82,1.82,0,0,1-.54,1.34,2.33,2.33,0,0,1-1.7.54H228.56Z"/><path d="M145.72,337.41H133l-2.46,8.29H120.15l13.91-42.65h5.31v0l0,0h5.31l13.94,42.65H148.21Zm-10.4-7.62h8.12l-4-13.24h-.17Z"/><path d="M177.63,336.8a2.61,2.61,0,0,0-1.34-2.1,14.53,14.53,0,0,0-4.84-1.65c-3.7-.73-6.48-1.84-8.35-3.36a7.58,7.58,0,0,1-2.82-6.25,8.94,8.94,0,0,1,3.52-7.11q3.51-2.91,9.52-2.91,6.33,0,10.08,2.83a8.29,8.29,0,0,1,3.57,7.3l-.06.18H177.3a3.93,3.93,0,0,0-.93-2.84,4.14,4.14,0,0,0-3.08-1,4.09,4.09,0,0,0-2.61.85,2.68,2.68,0,0,0-1.05,2.17,2.58,2.58,0,0,0,1.21,2.14,13.93,13.93,0,0,0,4.91,1.58q5.83,1.14,8.62,3.41a7.85,7.85,0,0,1,2.78,6.43,8.4,8.4,0,0,1-3.8,7.05q-3.79,2.77-10,2.77-6.48,0-10.24-3.28c-2.51-2.19-3.7-4.63-3.59-7.33l.06-.17h9a4,4,0,0,0,1.36,3.25,6,6,0,0,0,3.7,1,4.93,4.93,0,0,0,3-.78A2.6,2.6,0,0,0,177.63,336.8Z"/><path d="M203.5,333.11h-1.79V345.7h-9.9V300h9.9v25.63h1.41L209.79,314h11.34l-9.75,14.3,11.36,17.4H211.46Z"/><path d="M235,306.65H225V300H235Zm0,39.05H225V314H235Z"/><path d="M250.14,314l.38,4.46a11.42,11.42,0,0,1,3.84-3.71,9.89,9.89,0,0,1,5.09-1.33,8.92,8.92,0,0,1,7.28,3.16q2.63,3.17,2.63,10.05V345.7h-9.91V326.6a7.3,7.3,0,0,0-1-4.29,3.33,3.33,0,0,0-2.82-1.27,7,7,0,0,0-2.84.55,5.73,5.73,0,0,0-2.11,1.58V345.7h-9.87V314Z"/><path d="M273.4,329.91q0-7.41,3.24-12a10.53,10.53,0,0,1,9.12-4.54,8.16,8.16,0,0,1,4.4,1.18,10.55,10.55,0,0,1,3.28,3.36l.64-4h8.73v31.35q0,6.27-4.29,9.71t-11.82,3.45a21.29,21.29,0,0,1-5.16-.68,29.09,29.09,0,0,1-5.15-1.81l1.7-7.33a22.65,22.65,0,0,0,4.08,1.39,19.38,19.38,0,0,0,4.47.46,7.31,7.31,0,0,0,4.7-1.26,4.85,4.85,0,0,0,1.54-4v-2.46a9.16,9.16,0,0,1-3.12,2.61,9,9,0,0,1-4.06.88,10.67,10.67,0,0,1-9.08-4.34q-3.22-4.34-3.22-11.45Zm9.87.62a13.19,13.19,0,0,0,1.13,6,4,4,0,0,0,3.82,2.15,6.82,6.82,0,0,0,2.77-.5,4.55,4.55,0,0,0,1.89-1.49V323.38a4.94,4.94,0,0,0-1.87-1.74,5.82,5.82,0,0,0-2.73-.6,4,4,0,0,0-3.82,2.44,14.85,14.85,0,0,0-1.19,6.43Z"/><path d="M325.55,345.7V320.86H321V314h4.57v-3.28q0-5.45,3.28-8.39t9.29-2.95a16.4,16.4,0,0,1,2.3.17c.77.1,1.63.26,2.59.45l-.73,7.29c-.55-.09-1-.17-1.44-.21a12.49,12.49,0,0,0-1.49-.08,4,4,0,0,0-2.88,1,3.66,3.66,0,0,0-1,2.75V314h6.27v6.86h-6.27V345.7Z"/><path d="M343.59,329.56q0-7.15,4.05-11.64t11.28-4.5q7.26,0,11.3,4.5t4,11.64v.62q0,7.17-4,11.66T359,346.32q-7.29,0-11.33-4.48t-4.05-11.66Zm9.91.62a13.1,13.1,0,0,0,1.24,6.25A4.43,4.43,0,0,0,359,338.7a4.37,4.37,0,0,0,4.16-2.28,13,13,0,0,0,1.26-6.24v-.62a13.07,13.07,0,0,0-1.26-6.2,4.4,4.4,0,0,0-4.21-2.32,4.35,4.35,0,0,0-4.18,2.34,13.17,13.17,0,0,0-1.24,6.18Z"/><path d="M396.15,322.44l-3.22,0a5.47,5.47,0,0,0-2.78.63,3.84,3.84,0,0,0-1.61,1.77V345.7h-9.91V314H388l.35,4.66a9.49,9.49,0,0,1,2.64-3.87,5.81,5.81,0,0,1,3.84-1.37,7.56,7.56,0,0,1,2.31.35Z"/><path d="M415.43,328.36q0-11.4,4.34-19.32T430,298.86h.18l1.78,4.66q-3.75,2.75-6.18,8.9t-2.43,15.88v.94q0,9.75,2.43,15.89t6.18,8.89l-1.78,4.66H430q-5.86-2.25-10.19-10.16t-4.34-19.34Z"/><path d="M465.38,330.53q0,7.23-3.1,11.51t-9.2,4.28a8.93,8.93,0,0,1-4.52-1.11,10,10,0,0,1-3.31-3.23l-.58,3.72H436V300h9.9v17.08a9.54,9.54,0,0,1,3.06-2.71,8.3,8.3,0,0,1,4-.95q6.12,0,9.24,4.48t3.12,12Zm-9.87-.62a16.21,16.21,0,0,0-1.06-6.55,3.91,3.91,0,0,0-3.92-2.32,5.93,5.93,0,0,0-2.77.6,4.51,4.51,0,0,0-1.83,1.74v13.33a4.34,4.34,0,0,0,1.86,1.49,6.91,6.91,0,0,0,2.8.5c2,0,3.26-.68,3.92-2a14.48,14.48,0,0,0,1-6.14Z"/><path d="M480.12,345.7h-9.93V300h9.93Z"/><path d="M505.28,341a10.38,10.38,0,0,1-3.64,4,9.7,9.7,0,0,1-5.18,1.39,9.35,9.35,0,0,1-7.71-3.46q-2.81-3.45-2.8-10.69V314h9.87v18.23q0,3.72.95,5.09a3.34,3.34,0,0,0,3,1.38,8.15,8.15,0,0,0,2.78-.44,5.33,5.33,0,0,0,2.05-1.32V314h9.9v31.7h-8Z"/><path d="M529,314l.38,4.46a11.6,11.6,0,0,1,3.84-3.71,10,10,0,0,1,5.1-1.33,8.93,8.93,0,0,1,7.28,3.16q2.63,3.17,2.62,10.05V345.7h-9.9V326.6a7.22,7.22,0,0,0-1-4.29,3.3,3.3,0,0,0-2.81-1.27,7,7,0,0,0-2.84.55,5.73,5.73,0,0,0-2.11,1.58V345.7h-9.87V314Z"/><path d="M565,306.12V314h5v6.86h-5v14.53a3.57,3.57,0,0,0,.69,2.45,2.43,2.43,0,0,0,1.86.74c.51,0,.91,0,1.21-.05a10.07,10.07,0,0,0,1.16-.24l.68,7.33a25.7,25.7,0,0,1-2.7.54,23.11,23.11,0,0,1-2.84.16q-4.89,0-7.43-2.61t-2.53-8.26V320.86h-4.43V314h4.43v-7.88Z"/><path d="M590.45,329.18a38.27,38.27,0,0,1-4.6,19.12q-4.61,8.15-10.61,10.38h-.17L573.28,354q3.69-2.77,6.15-8.92t2.46-15.86v-.94q0-9.72-2.46-15.88t-6.15-8.9l1.79-4.66h.17q6,2.22,10.61,10.4a38.25,38.25,0,0,1,4.6,19.1Z"/><path d="M125,417.7V392.86h-4.57V386H125v-3.28q0-5.45,3.28-8.39t9.29-2.95a16.29,16.29,0,0,1,2.3.17c.77.1,1.64.25,2.59.45l-.73,7.29c-.55-.09-1-.17-1.44-.21a12.37,12.37,0,0,0-1.49-.08,3.93,3.93,0,0,0-2.87,1,3.63,3.63,0,0,0-1,2.75V386h6.27v6.86h-6.27V417.7Z"/><path d="M157.68,418.32q-7.22,0-11.3-4.37a15.54,15.54,0,0,1-4.09-11v-1.12q0-7.26,3.86-11.83t11.14-4.54q6.42,0,10,3.84t3.53,10.51V405H152.61l-.06.17a6.18,6.18,0,0,0,1.84,4A6.44,6.44,0,0,0,159,410.7a20.08,20.08,0,0,0,4.73-.47,30.32,30.32,0,0,0,4.33-1.49l2.37,6a17.93,17.93,0,0,1-5.51,2.52A25.18,25.18,0,0,1,157.68,418.32ZM157.29,393a4.11,4.11,0,0,0-3.5,1.5,7.63,7.63,0,0,0-1.3,4.09l.06.15h8.55V398a6.68,6.68,0,0,0-.86-3.73A3.34,3.34,0,0,0,157.29,393Z"/><path d="M189,418.32q-7.2,0-11.29-4.37a15.5,15.5,0,0,1-4.09-11v-1.12q0-7.26,3.86-11.83t11.14-4.54q6.42,0,10,3.84t3.53,10.51V405H184l-.06.17a6.13,6.13,0,0,0,1.84,4,6.44,6.44,0,0,0,4.63,1.54,20.14,20.14,0,0,0,4.73-.47,29.82,29.82,0,0,0,4.32-1.49l2.38,6a18,18,0,0,1-5.51,2.52A25.25,25.25,0,0,1,189,418.32ZM188.64,393a4.09,4.09,0,0,0-3.5,1.5,7.63,7.63,0,0,0-1.3,4.09l.06.15h8.55V398a6.68,6.68,0,0,0-.86-3.73A3.34,3.34,0,0,0,188.64,393Z"/><path d="M205,401.91q0-7.41,3.24-12a10.55,10.55,0,0,1,9.12-4.54,7.79,7.79,0,0,1,4,1,10.48,10.48,0,0,1,3.18,2.88V372h9.9v45.7h-8.67l-.67-3.86a10.72,10.72,0,0,1-3.36,3.32,8.39,8.39,0,0,1-4.41,1.16,10.67,10.67,0,0,1-9.08-4.34Q205,409.65,205,402.53Zm9.9.62a13.19,13.19,0,0,0,1.13,6,4,4,0,0,0,3.79,2.15,6.24,6.24,0,0,0,2.74-.57,4.93,4.93,0,0,0,1.95-1.68V395.64a5.41,5.41,0,0,0-1.93-1.93,5.3,5.3,0,0,0-2.7-.67,4,4,0,0,0-3.81,2.43,15,15,0,0,0-1.17,6.44Z"/><path d="M269.38,402.53q0,7.23-3.1,11.51t-9.2,4.28a8.9,8.9,0,0,1-4.51-1.11,9.88,9.88,0,0,1-3.31-3.23l-.59,3.72H240V372h9.9v17.08a9.54,9.54,0,0,1,3.06-2.71,8.33,8.33,0,0,1,4-.95q6.12,0,9.24,4.48t3.12,12Zm-9.87-.62a16.41,16.41,0,0,0-1.05-6.55,3.92,3.92,0,0,0-3.93-2.32,6,6,0,0,0-2.77.6,4.51,4.51,0,0,0-1.83,1.74v13.33a4.34,4.34,0,0,0,1.86,1.49,6.94,6.94,0,0,0,2.8.5c2,0,3.26-.68,3.93-2a14.66,14.66,0,0,0,1-6.14Z"/><path d="M292.06,417.67a11.62,11.62,0,0,1-.95-2.25,15.87,15.87,0,0,1-.6-2.64,12.17,12.17,0,0,1-3.18,4,7.66,7.66,0,0,1-4.94,1.51q-5,0-7.75-2.57a9,9,0,0,1-2.76-7,8.45,8.45,0,0,1,3.54-7.28q3.54-2.57,10.75-2.57h4.07v-2.25a4.56,4.56,0,0,0-1-3.11,3.78,3.78,0,0,0-3-1.08,3.63,3.63,0,0,0-2.57.8,3.39,3.39,0,0,0-.83,2.51l-9.61,0-.06-.18a8.29,8.29,0,0,1,3.62-7.25q3.83-2.91,10.09-2.91a14.72,14.72,0,0,1,9.54,2.93q3.64,2.92,3.65,8.38v11.95a23.32,23.32,0,0,0,1.7,9Zm-7-6.41a6.11,6.11,0,0,0,3.21-.85,4.91,4.91,0,0,0,1.94-2V404.2h-4a4.5,4.5,0,0,0-3.43,1.14,4.12,4.12,0,0,0-1.05,2.9,2.77,2.77,0,0,0,.92,2.18A3.42,3.42,0,0,0,285.09,411.26Z"/><path d="M319.13,410.7a3.89,3.89,0,0,0,3-1.1,4.59,4.59,0,0,0,1-3.18h9l.06.18a10.43,10.43,0,0,1-3.59,8.45,13.84,13.84,0,0,1-9.51,3.27q-7.23,0-11.15-4.47t-3.91-11.64v-.68q0-7.14,3.9-11.63t11.1-4.48c4,0,7.24,1.12,9.66,3.35s3.57,5.3,3.5,9.19l-.06.17h-9a6.13,6.13,0,0,0-1-3.67,3.51,3.51,0,0,0-3.05-1.42,4.07,4.07,0,0,0-4,2.29,14.29,14.29,0,0,0-1.12,6.2v.68a14.24,14.24,0,0,0,1.12,6.24A4.14,4.14,0,0,0,319.13,410.7Z"/><path d="M348,405.11h-1.79V417.7h-9.9V372h9.9v25.63h1.41L354.26,386H365.6l-9.76,14.3,11.37,17.4H355.93Z"/><g id="_005_draw" data-name="005_draw"><path d="M777,309.05a55.25,55.25,0,0,1,.35,8.82c-.13,3-.55,6-.9,9.05a2,2,0,0,0,.25.93,2,2,0,0,0,1.12.89,1.89,1.89,0,0,0,2.3-1.34A48.68,48.68,0,0,0,781,321a58.83,58.83,0,0,0,.13-6.63,52.22,52.22,0,0,0-1.12-9l-.88-.23c-1-.25-2.05-.53-3.05-.86a44.66,44.66,0,0,1,.93,4.77Z" style="fill:#161616"/><path d="M807.48,312.12c-.88.08-1.77.13-2.65.13a92.65,92.65,0,0,0,.68,19.69,2.39,2.39,0,0,0,.64,1.11,2.46,2.46,0,0,0,4.2-1.77c-.32-3.65-.62-7.31-.7-11q-.07-4.27.25-8.5c-.8.13-1.6.23-2.42.3Z" style="fill:#161616"/><path d="M786.8,338.36l.07.11-.07-.11Zm-.18-.22a.31.31,0,0,1,.1.12.31.31,0,0,0-.1-.12ZM776,321.85a1.57,1.57,0,0,0-.89.71,1.48,1.48,0,0,0-.15,1.18,58.42,58.42,0,0,0,4.22,9,75.51,75.51,0,0,0,5.72,8.49c2.09,2.78,4.32,5.47,6.61,8.12,1.08,1.24,2.18,2.5,3.3,3.73s2.3,2.57,3.5,3.81a1.75,1.75,0,0,0,2.45,0,1.93,1.93,0,0,0,.49-1.24,1.86,1.86,0,0,0-.49-1.23c-1.13-1.34-2.28-2.6-3.45-3.88s-2.47-2.73-3.7-4.09c-2.37-2.67-4.67-5.37-6.84-8.17a65.91,65.91,0,0,1-8.27-13.81c-.22-.53-.42-1-.62-1.56a1.67,1.67,0,0,0-.7-.94,1.7,1.7,0,0,0-.78-.2,3.35,3.35,0,0,0-.4.05Z" style="fill:#161616"/><path d="M768.24,323.87c-.07,6.78-.25,13.54-.07,20.32.07,3.38.22,6.73.45,10.11.12,1.71.27,3.45.47,5.17s.43,3.52.8,5.26a1.29,1.29,0,0,0,1.25,1,1.36,1.36,0,0,0,.92-.38,1.42,1.42,0,0,0,.38-.93c-.13-1-.25-2-.38-3.05a2.47,2.47,0,0,0,.05.38c-.07-.43-.12-.86-.17-1.29,0,.13,0,.25,0,.38l-.15-1.06c-.38-2.92-.7-5.87-1-8.82s-.4-6-.52-9c-.23-6-.3-12-.28-18.05a.93.93,0,1,0-1.85,0Z" style="fill:#161616"/><path d="M786.85,357.85a.44.44,0,0,0-.2,0,.44.44,0,0,1,.2,0Zm-1-3a26.64,26.64,0,0,0-7.91,2.6,31.16,31.16,0,0,0-7.17,5.12,1.54,1.54,0,0,0,0,2.11,1.5,1.5,0,0,0,2.1,0c.65-.63,1.35-1.23,2-1.79a28.24,28.24,0,0,1,5.81-3.42,24.5,24.5,0,0,1,5.85-1.64,23,23,0,0,1,5.24,0,20.53,20.53,0,0,1,4.9,1.33,22.41,22.41,0,0,1,3.75,2.12,1.57,1.57,0,0,0,2.14-.58,1.44,1.44,0,0,0,.15-1.21,1.62,1.62,0,0,0-.72-1,21,21,0,0,0-7.79-3.5,22.07,22.07,0,0,0-4.2-.48h-.45a27.61,27.61,0,0,0-3.75.3Z" style="fill:#161616"/><path d="M806.18,329.54a1.48,1.48,0,0,0-.45,1.09,61.61,61.61,0,0,1-.05,15.47,59.85,59.85,0,0,1-1.12,6c-.48,2-1,4-1.65,6a1.59,1.59,0,0,0,2.35,1.81A1.72,1.72,0,0,0,806,359a49.76,49.76,0,0,0,1.92-6.89,69.1,69.1,0,0,0,1.1-7.18,60.44,60.44,0,0,0-.2-14.29c0-.13,0-.28,0-.41a1.35,1.35,0,0,0-.4-.68,1.44,1.44,0,0,0-1.07-.45,1.5,1.5,0,0,0-1.1.45Z" style="fill:#161616"/><path d="M830.66,358.38l.22.18h0l-.22-.18ZM813,324.73a1.76,1.76,0,0,0-.82,1.08,1.7,1.7,0,0,0,.17,1.39c5.9,8.22,11.64,16.64,16,25.79-.63-.31-1.25-.58-1.9-.86a33.71,33.71,0,0,0-3.42-1.19,27.65,27.65,0,0,0-3.7-.68,19.73,19.73,0,0,0-7.17.46,18.57,18.57,0,0,0-6.76,3.25,1.69,1.69,0,0,0-.73.93,1.63,1.63,0,0,0,.18,1.24,1.61,1.61,0,0,0,.92.73,1.5,1.5,0,0,0,1.22-.18,19.84,19.84,0,0,1,3.5-2,17.54,17.54,0,0,1,4.07-1.11,19.77,19.77,0,0,1,4.8,0,24.73,24.73,0,0,1,5.77,1.63,32.3,32.3,0,0,1,5.82,3.38,1.87,1.87,0,0,0,.72.43,1.92,1.92,0,0,0,1.35-.18,2.19,2.19,0,0,0,.62-.63,1.83,1.83,0,0,0,.18-1.36,84.22,84.22,0,0,0-3.6-8.14c-1.37-2.75-2.9-5.42-4.49-8-3.18-5.24-6.67-10.29-10.24-15.28a2,2,0,0,0-1.08-.85,2.5,2.5,0,0,0-.47,0,1.69,1.69,0,0,0-.93.25" style="fill:#161616"/><path d="M800.74,312.2c1.32.81,2.64,1.64,4,2.39a.92.92,0,0,0,.93-1.58l-1.23-.79a32,32,0,0,1-4.14-.3l.45.28Z" style="fill:#161616"/><path d="M792.32,312.05c3.69,2.34,7.47,4.56,11.21,6.78a1.24,1.24,0,0,0,1.7-.43,1.21,1.21,0,0,0,.13-1,1.17,1.17,0,0,0-.55-.73c-2.78-1.9-5.65-3.66-8.47-5.45a43.12,43.12,0,0,1-8.07-2.44c-.77-.33-1.57-.69-2.35-1,2.08,1.51,4.23,2.93,6.4,4.29Z" style="fill:#161616"/><path d="M787.4,311.54a.81.81,0,0,0-.28.63.89.89,0,0,0,.28.63c2.65,2.1,5.37,4.14,8.14,6.08a.86.86,0,0,0,1.17-.33.9.9,0,0,0,.1-.68.83.83,0,0,0-.4-.5q-3.4-2.46-6.74-5a1.67,1.67,0,0,0,.2.13c-.42-.31-.82-.63-1.22-.94a.92.92,0,0,0-.63-.27.86.86,0,0,0-.62.27Z" style="fill:#161616"/><path d="M767.07,326.44c-3.9,1.34-7.79,2.72-11.69,4.06.2,1.34.37,2.67.55,4,4-1.51,8-3.05,12.11-4.46a2.09,2.09,0,0,0,1.1-.86,1.86,1.86,0,0,0-1.57-2.79,1.59,1.59,0,0,0-.5.07Z" style="fill:#161616"/><path d="M813.62,327a2.05,2.05,0,0,0,.73,2.79c5.47,3.31,10.89,6.68,16.48,9.76,2.8,1.56,5.62,3,8.52,4.36a65.26,65.26,0,0,0,9.06,3.56,2,2,0,0,0,2.4-1.39,2,2,0,0,0-.17-1.54,2.13,2.13,0,0,1-.33-.4,2,2,0,0,0-.85-.51c-1.52-.63-3.07-1.26-4.59-1.91a149.88,149.88,0,0,1-14.19-7.06c-4.82-2.7-9.54-5.57-14.29-8.4a2.17,2.17,0,0,0-1-.27,2.07,2.07,0,0,0-1.78,1Z" style="fill:#161616"/><path d="M849.29,346.84a1.89,1.89,0,0,0-1.3,2.29c1.5,6.28,2.65,12.63,3.72,19,.5,3.08,1,6.15,1.42,9.23.28-.28.55-.56.85-.81.25-.6.53-1.21.78-1.84a11.76,11.76,0,0,1,1.67-2.24c-1-5.9-2.12-11.78-3.37-17.62-.5-2.25-1-4.47-1.53-6.68a1.82,1.82,0,0,0-1.79-1.36,2.3,2.3,0,0,0-.45,0Z" style="fill:#161616"/><path d="M1038.7,204.38a7.15,7.15,0,0,0-2.07,1.64,8.51,8.51,0,0,0-1.48,2.17,12.79,12.79,0,0,0-.85,2.67,18.46,18.46,0,0,0-.25,3,28,28,0,0,0,.9,6.58,48.53,48.53,0,0,0,2.25,7,86.91,86.91,0,0,0,7.42,14.5,76.32,76.32,0,0,0,5.87,8.11,31.79,31.79,0,0,0,5.69,5.55,1.47,1.47,0,0,0,1.83-.23,1.49,1.49,0,0,0,.42-1.06,1.52,1.52,0,0,0-.42-1.06,35.35,35.35,0,0,1-5.85-6.25,86,86,0,0,1-5.87-8.82,90,90,0,0,1-5-10,47.26,47.26,0,0,1-3.37-11.42,19,19,0,0,1-.1-4.46,12.11,12.11,0,0,1,.55-2.09A9.39,9.39,0,0,1,1039,209a8.76,8.76,0,0,1,.8-.81,6.91,6.91,0,0,1,1.08-.63,9.15,9.15,0,0,1,1.85-.48,15.43,15.43,0,0,1,3.72.05,34.38,34.38,0,0,1,6,1.52,2,2,0,0,0,2.42-1.39,2.08,2.08,0,0,0-.2-1.51,2,2,0,0,0-1.17-.91,30.51,30.51,0,0,0-8.62-1.74l-.6,0a12,12,0,0,0-5.59,1.29Z" style="fill:#161616"/><path d="M1058.85,225.86a1.3,1.3,0,0,0-.32.78,32.33,32.33,0,0,0,.17,8.34,42.56,42.56,0,0,0,2.18,8.62,61.85,61.85,0,0,0,9.16,16.57,53.33,53.33,0,0,0,6.77,7.31c1.18,1.06,2.45,2.07,3.72,3,.63.43,1.28.85,1.93,1.23s1.29.71,1.94,1.06a1.36,1.36,0,0,0,1.38-2.34c-.48-.25-.93-.53-1.38-.81l-1.34-.86c-.88-.6-1.75-1.21-2.6-1.86a53.62,53.62,0,0,1-9-9.2,60.87,60.87,0,0,1-7.55-13,45.5,45.5,0,0,1-3.07-10.92,28.75,28.75,0,0,1-.07-7.18,1.18,1.18,0,0,0-1.13-1.14,1.12,1.12,0,0,0-.8.36Z" style="fill:#161616"/><path d="M1080.48,234.5a34.94,34.94,0,0,0-.7,7.84,40.79,40.79,0,0,0,1,7.95,44.61,44.61,0,0,0,2.55,7.76,49.86,49.86,0,0,0,3.75,7.26,53.49,53.49,0,0,0,6.81,8.8,46.93,46.93,0,0,0,3.95,3.63c.7.58,1.45,1.16,2.2,1.71a26.57,26.57,0,0,0,2.32,1.46,1.22,1.22,0,0,0,1.7-.45,1.28,1.28,0,0,0-.45-1.71c-1.32-.89-2.65-1.82-3.9-2.78a49.83,49.83,0,0,1-8.46-8.59,50.5,50.5,0,0,1-6.4-11,45.33,45.33,0,0,1-3-10.74,35,35,0,0,1-.05-8.8c.08-.63.2-1.26.3-1.89a.87.87,0,0,0-.6-1.06.4.4,0,0,0-.2,0,.85.85,0,0,0-.85.63Z" style="fill:#161616"/><path d="M1098.67,254.9v0Zm0-.2v0Zm-1.12-11.88c-1.9,5.73-1.58,12-.08,17.73a45.89,45.89,0,0,0,3.4,9,49.91,49.91,0,0,0,5.12,8.14,41.1,41.1,0,0,0,5.09,5.47,28.48,28.48,0,0,0,5.92,4.11,1.65,1.65,0,0,0,1.25.17,1.46,1.46,0,0,0,1-.75,1.65,1.65,0,0,0-.57-2.25,34.9,34.9,0,0,1-4.84-3.1,41.58,41.58,0,0,1-6.75-6.9,45.45,45.45,0,0,1-5.64-9.81,41.22,41.22,0,0,1-2.75-9.78,30.44,30.44,0,0,1-.05-7.51,27.3,27.3,0,0,1,.9-4,1.07,1.07,0,0,0-.72-1.29,1.23,1.23,0,0,0-.28,0,1,1,0,0,0-1,.75Z" style="fill:#161616"/><path d="M1105,339.9l-.18.08.18-.08Zm.27-.12-.17.07.17-.07Zm7.25-70.26a1.8,1.8,0,0,0-1.23,2.17c3.47,11,7.27,22.08,8.84,33.6a57.77,57.77,0,0,1,.25,14.27,33.33,33.33,0,0,1-2,7.61,25.81,25.81,0,0,1-2.9,5,23,23,0,0,1-4,4,30.85,30.85,0,0,1-6.45,3.71l-2.17.88a1.79,1.79,0,0,0-1.27,2.24,1.8,1.8,0,0,0,2.22,1.26,28.57,28.57,0,0,0,5.52-2.11,24.47,24.47,0,0,0,4.32-2.68,28.31,28.31,0,0,0,3.7-3.4,25.33,25.33,0,0,0,2.84-3.91,28.62,28.62,0,0,0,3.35-8.72,44,44,0,0,0,1-9.83,74.35,74.35,0,0,0-1-10.41c-.53-3.43-1.28-6.86-2.13-10.21-1.62-6.38-3.67-12.61-5.69-18.83-.38-1.14-.73-2.27-1.1-3.41a1.77,1.77,0,0,0-1.67-1.28,2.3,2.3,0,0,0-.45,0Z" style="fill:#161616"/><path d="M1112.53,343.94a.39.39,0,0,1-.15,0,.39.39,0,0,0,.15,0Zm19.33-28.72s0,0,0,.1,0-.07,0-.1Zm-.4-20.21a1.21,1.21,0,0,0-.83,1.51,29.38,29.38,0,0,1,1.35,5.72,50.61,50.61,0,0,1-.1,12.78,55.44,55.44,0,0,1-3.62,13.72,36.29,36.29,0,0,1-4.49,8,24.39,24.39,0,0,1-4,4.06,17.69,17.69,0,0,1-3.57,2.14,16.69,16.69,0,0,1-4,1.09,4.57,4.57,0,0,1-.52.05,1.75,1.75,0,0,0-1.13.48,1.71,1.71,0,0,0-.45,1.13,1.6,1.6,0,0,0,1.58,1.59,16.32,16.32,0,0,0,3.64-.63,16.83,16.83,0,0,0,3.35-1.41,19.88,19.88,0,0,0,3-2,22,22,0,0,0,2.52-2.4,37.81,37.81,0,0,0,7.62-13.63,60,60,0,0,0,3-16.14,49.76,49.76,0,0,0-.2-7.53,34,34,0,0,0-1.34-6.71l-.3-.91a1.43,1.43,0,0,0-.58-.73,1.26,1.26,0,0,0-.6-.17,1.19,1.19,0,0,0-.32.05Z" style="fill:#161616"/><path d="M1140.67,331.89c0,.05-.07.07-.1.12s.08-.07.1-.12Zm4.9-33.81a1.09,1.09,0,0,0-.75,1.34,55.05,55.05,0,0,1,1.55,7.21,43.14,43.14,0,0,1,.05,10.89,34.15,34.15,0,0,1-2.22,8.22,30.24,30.24,0,0,1-3.7,6.37,33.21,33.21,0,0,1-5.3,5.3l-1.49,1.11a1.44,1.44,0,0,0-.65.85,1.57,1.57,0,0,0,.12,1.11,1.59,1.59,0,0,0,.85.66,1.55,1.55,0,0,0,1.1-.15,33.37,33.37,0,0,0,6.87-6.51,30.92,30.92,0,0,0,4.52-7.81,34.72,34.72,0,0,0,2.22-8.52,41.87,41.87,0,0,0,.18-8.88,51.76,51.76,0,0,0-2.05-10.43,1,1,0,0,0-1-.78,1.1,1.1,0,0,0-.27,0Z" style="fill:#161616"/><path d="M1124.16,220.19l.15.2a1.15,1.15,0,0,0-.15-.2Zm-32-20.6a94.32,94.32,0,0,0-14,1.31c-5.07.78-10.11,1.72-15.18,2.55a1.48,1.48,0,0,0-1,.75,1.66,1.66,0,0,0,.58,2.27,1.71,1.71,0,0,0,1.27.15c5.62-.9,11.21-1.94,16.86-2.72l-.45.08a68.52,68.52,0,0,1,18-.56,35.73,35.73,0,0,1,8.87,2.4,34.94,34.94,0,0,1,7.51,4.46,43,43,0,0,1,4.82,4.41,64.81,64.81,0,0,1,4.85,5.72c.1.15.22.28.32.43l.25.33a1.69,1.69,0,0,0,.73.43,1.58,1.58,0,0,0,1.25-.18,1.65,1.65,0,0,0,.57-2.24c-4.29-6.33-9.89-12.05-16.73-15.56a35,35,0,0,0-9-3.15,46.19,46.19,0,0,0-9.29-.88Z" style="fill:#161616"/><path d="M1155.11,334.68c0,.08-.13.13-.18.21,0-.08.13-.13.18-.21Zm14.68-59.87a.27.27,0,0,0,0,.15.27.27,0,0,1,0-.15Zm-5.14-19.11a.25.25,0,0,1,0,.13.25.25,0,0,0,0-.13ZM1126,219.08a1.84,1.84,0,0,0,1.25,2.24,60.2,60.2,0,0,1,6.57,2.32,56.06,56.06,0,0,1,12.34,7.29,59.37,59.37,0,0,1,10.16,10.31,66.49,66.49,0,0,1,8.27,14.34,79.29,79.29,0,0,1,5.24,19.61,87.55,87.55,0,0,1,0,22.41,85.34,85.34,0,0,1-5.74,21.35,73.77,73.77,0,0,1-9.2,16,67.24,67.24,0,0,1-11.38,11.55,72.78,72.78,0,0,1-10.29,6.55,1.93,1.93,0,0,0-.68,2.6,1.88,1.88,0,0,0,1.13.88,1.91,1.91,0,0,0,1.44-.2,61.55,61.55,0,0,0,16.59-11.52,71.76,71.76,0,0,0,12.11-15.71,80.63,80.63,0,0,0,7.67-18.45,88.18,88.18,0,0,0,3.12-19.91,89.1,89.1,0,0,0-1.4-20,78.9,78.9,0,0,0-5.92-18.68,67.44,67.44,0,0,0-10.39-16.16,59.88,59.88,0,0,0-14.88-12.3,62.45,62.45,0,0,0-13.76-5.85,3.91,3.91,0,0,0-.48,0,1.83,1.83,0,0,0-1.75,1.34Z" style="fill:#161616"/><path d="M1051.09,249a1.43,1.43,0,0,0-.8.61,73.23,73.23,0,0,0-3.87,10.18,80,80,0,0,0-2.33,11,93.42,93.42,0,0,0-.87,11.45c0,1.81,0,3.63.12,5.44s.3,3.88.58,5.8a1.89,1.89,0,0,0,.42.73,1.73,1.73,0,0,0,1.18.48,1.66,1.66,0,0,0,1.15-.48,1.51,1.51,0,0,0,.47-1.16c-.27-3.78-.52-7.56-.52-11.34a95.74,95.74,0,0,1,.72-11.58c.4-2.94,1-5.89,1.67-8.82a61.89,61.89,0,0,1,2.8-8.65c.23-.57.48-1.15.75-1.73a1.41,1.41,0,0,0,.13-1,1.19,1.19,0,0,0-.6-.78,1.24,1.24,0,0,0-.68-.21,1.77,1.77,0,0,0-.32.05Z" style="fill:#161616"/><path d="M1042.42,296.42a18.69,18.69,0,0,0-4.32,5.32,14.25,14.25,0,0,0-1.35,9.07,15.63,15.63,0,0,0,.75,2.78,25.3,25.3,0,0,0,3.07,5.79,49.28,49.28,0,0,0,11.07,10.79,80.45,80.45,0,0,0,14.51,8.57,78,78,0,0,0,15.81,5.5,55.16,55.16,0,0,0,7.56,1.13,31.29,31.29,0,0,0,6.7-.17,17.26,17.26,0,0,0,5.67-1.77,1.53,1.53,0,0,0,.55-2.11,1.59,1.59,0,0,0-.9-.71,1.56,1.56,0,0,0-1.18.15l-.27.13a16.77,16.77,0,0,1-3.8,1,31.53,31.53,0,0,1-8.06-.15,61.4,61.4,0,0,1-8.8-1.94,85,85,0,0,1-9.34-3.33A84.07,84.07,0,0,1,1051.91,326a47.42,47.42,0,0,1-8-7.84,26.57,26.57,0,0,1-3-5,17.88,17.88,0,0,1-1-3.55,13.59,13.59,0,0,1,0-2.85,13.13,13.13,0,0,1,.72-2.6,15.07,15.07,0,0,1,1.6-2.75,24,24,0,0,1,2.52-2.62,1.68,1.68,0,0,0,0-2.39,1.61,1.61,0,0,0-1.17-.51,1.81,1.81,0,0,0-1.2.51Z" style="fill:#161616"/><path d="M1052,259.23a11.29,11.29,0,0,0-2.7,2.6,13.81,13.81,0,0,0-1.84,3.48,1.29,1.29,0,0,0,.12,1,1.4,1.4,0,0,0,.75.58,1.43,1.43,0,0,0,1-.13,1.33,1.33,0,0,0,.57-.76c0-.1.08-.2.13-.32a11.49,11.49,0,0,1,1.4-2.45,9,9,0,0,1,1.52-1.56,8.25,8.25,0,0,1,1.72-1,9.27,9.27,0,0,1,2.2-.58,14.75,14.75,0,0,1,2.1-.08,1.17,1.17,0,0,0,1.15-1.16,1.14,1.14,0,0,0-.35-.81,1.17,1.17,0,0,0-.8-.32,9.67,9.67,0,0,0-1.2-.08,10.29,10.29,0,0,0-5.72,1.66Z" style="fill:#161616"/><path d="M1056.46,270.48a5.89,5.89,0,0,0-3,1,9.91,9.91,0,0,0-2.42,2.37,14.37,14.37,0,0,0-1.68,2.92,24.24,24.24,0,0,0-1.32,3.66,25.3,25.3,0,0,0-.77,3.7,23.67,23.67,0,0,0-.33,3.76c0,.53,0,1,0,1.56a1.48,1.48,0,0,0,.4,1,1.34,1.34,0,0,0,2.29-1,23.26,23.26,0,0,1,.18-4.41,28,28,0,0,1,1.72-6.53,15.55,15.55,0,0,1,1.78-3.15,9.61,9.61,0,0,1,1.24-1.31,7.63,7.63,0,0,1,.95-.56,4.89,4.89,0,0,1,.85-.25,4.61,4.61,0,0,1,.83,0,5.05,5.05,0,0,1,1,.27,10.91,10.91,0,0,1,1.67,1c.4.33.77.68,1.15,1a1.29,1.29,0,0,0,1.85,0,1.37,1.37,0,0,0,0-1.86c-1.6-1.71-3.75-3.28-6.17-3.28a1.34,1.34,0,0,0-.35,0Z" style="fill:#161616"/><path d="M1050.51,280.81a3.9,3.9,0,1,0,3.9-3.93,4,4,0,0,0-3.9,3.93Z" style="fill:#161616"/><path d="M1093.32,279.15s.08,0,.1.05-.07,0-.1-.05Zm-6.62-3.91a16.75,16.75,0,0,0-2.47.58,1.61,1.61,0,0,0,.85,3.1,17,17,0,0,1,2.42-.58,14.54,14.54,0,0,1,3,0,12.94,12.94,0,0,1,2.72.76,12.5,12.5,0,0,1,2.62,1.56,17.56,17.56,0,0,1,2.7,2.75,23.4,23.4,0,0,1,2.55,4.46,25,25,0,0,1,1.82,9.53,1.26,1.26,0,0,0,1.25,1.26,1.13,1.13,0,0,0,.87-.38,1.31,1.31,0,0,0,.38-.88,24.07,24.07,0,0,0-1-8.77,27.2,27.2,0,0,0-1.69-4.21,22,22,0,0,0-2.55-3.81,16.08,16.08,0,0,0-3.1-2.9,15,15,0,0,0-3.69-1.94,14.31,14.31,0,0,0-4.25-.73h-.18a16.5,16.5,0,0,0-2.22.2Z" style="fill:#161616"/><path d="M1084.33,285.88a4.51,4.51,0,1,0,4.49-4.56,4.56,4.56,0,0,0-4.49,4.56Z" style="fill:#161616"/><path d="M1110.15,281.77a2.14,2.14,0,0,1-.32.28,6.83,6.83,0,0,1-1.27.75,7.37,7.37,0,0,1-1.3.36,6.84,6.84,0,0,1-1.43,0,8.4,8.4,0,0,1-2-.56,1.24,1.24,0,0,0-1.08.13,1.48,1.48,0,0,0-.65.86,1.46,1.46,0,0,0,.13,1.08,1.64,1.64,0,0,0,.85.66,11.32,11.32,0,0,0,2.42.63l1,.07a12.3,12.3,0,0,0,1.35-.12,6.91,6.91,0,0,0,2.12-.76,6.19,6.19,0,0,0,1.08-.76,7,7,0,0,0,.87-.85,1.29,1.29,0,0,0,0-1.77,1.22,1.22,0,0,0-.87-.35,1.29,1.29,0,0,0-.88.35Z" style="fill:#161616"/><path d="M1110.73,290.17h0Zm-6.3-.1a1,1,0,0,0-.5.63,1.06,1.06,0,0,0,.75,1.28,22,22,0,0,0,3.45.43,21.08,21.08,0,0,0,3.45-.25,1.07,1.07,0,0,0,.62-.48,1.05,1.05,0,0,0,.1-.83,1.14,1.14,0,0,0-.47-.63,1.2,1.2,0,0,0-.83-.1l-.17,0a17.33,17.33,0,0,1-4.55,0c-.35-.05-.7-.1-1-.18a1.57,1.57,0,0,0-.3,0,.85.85,0,0,0-.5.16Z" style="fill:#161616"/><path d="M1044.27,270.93a.69.69,0,0,0,0,.13.69.69,0,0,1,0-.13Zm-1.15-1a.78.78,0,0,0-.55,1,13.25,13.25,0,0,0,1.22,2.55,8.86,8.86,0,0,0,1.78,2,8.21,8.21,0,0,0,2.37,1.46,10.51,10.51,0,0,0,2.75.66.75.75,0,0,0,.72-.56.83.83,0,0,0-.07-.6.62.62,0,0,0-.45-.33,11,11,0,0,1-2.33-.63,9.33,9.33,0,0,1-1.69-1,8.64,8.64,0,0,1-1.38-1.39,10.28,10.28,0,0,1-1.17-2,4.43,4.43,0,0,1-.2-.58.92.92,0,0,0-.38-.48.84.84,0,0,0-.4-.12.63.63,0,0,0-.22.05Z" style="fill:#161616"/><path d="M1041.07,277.86a1,1,0,0,0-.45.61,1.13,1.13,0,0,0,.08.75,10.54,10.54,0,0,0,1.35,2.15,8.78,8.78,0,0,0,1.84,1.76,9,9,0,0,0,4.67,1.62,1,1,0,0,0,1-1,1,1,0,0,0-.28-.7,1.14,1.14,0,0,0-.7-.31l-.29,0a9.37,9.37,0,0,1-2-.53,9.49,9.49,0,0,1-1.53-.91,9.22,9.22,0,0,1-1.32-1.33,11.17,11.17,0,0,1-1-1.74,1.08,1.08,0,0,0-.58-.46,1,1,0,0,0-.25,0,1.23,1.23,0,0,0-.5.12Z" style="fill:#161616"/><path d="M1067.75,323.09a1.41,1.41,0,0,0-.93.4,1.35,1.35,0,0,0,0,1.92,1.22,1.22,0,0,0,.93.38,47,47,0,0,1,10.34.22c1.62.23,3.19.53,4.79.91s3.45.93,5.17,1.44a1.38,1.38,0,0,0,1.67-1,1.44,1.44,0,0,0-.12-1.06l-.23-.3a1.81,1.81,0,0,0-.6-.36,33.14,33.14,0,0,0-4.87-1.53,45.34,45.34,0,0,0-5.41-.94,51.43,51.43,0,0,0-5.8-.35c-1.65,0-3.3.08-4.94.23Z" style="fill:#161616"/><path d="M1088.75,343.56a1.2,1.2,0,0,0-.82,1.44,33.71,33.71,0,0,1,.72,3.6,32.54,32.54,0,0,1,0,7.89c-.1.73-.22,1.44-.35,2.14a1.31,1.31,0,0,0,.1.91,1.35,1.35,0,0,0,.7.53,1.18,1.18,0,0,0,1.45-.83,31.73,31.73,0,0,0-.38-14.85,1.16,1.16,0,0,0-1.12-.88,1,1,0,0,0-.3.05Z" style="fill:#161616"/><path d="M1108.91,344.42c-.13,2.57-.18,5.16-.13,7.76s.17,5.19.42,7.76a1.8,1.8,0,0,0,.45,1.11,1.52,1.52,0,0,0,2.18,0,1.64,1.64,0,0,0,.45-1.11c-.3-2.57-.53-5.16-.65-7.76s-.1-5.19,0-7.76a1.37,1.37,0,1,0-2.74,0Z" style="fill:#161616"/><path d="M1112.18,358.83a209.3,209.3,0,0,0-14.49,26.55,146.6,146.6,0,0,0-5.57,14.34,91.82,91.82,0,0,0-3.67,14.65c-.2,1.34-.32,2.7-.42,4.06a1.59,1.59,0,0,0,1.17,1.54,1.62,1.62,0,0,0,2-1.11c.58-2.55,1.13-5.09,1.7-7.62s1.25-5.09,2-7.61a138.77,138.77,0,0,1,5.27-14.95,198.61,198.61,0,0,1,14.81-28.23,1.65,1.65,0,0,0-.57-2.2,1.53,1.53,0,0,0-.8-.22,1.61,1.61,0,0,0-1.37.8Z" style="fill:#161616"/><path d="M1109.2,404.14a.15.15,0,0,0-.12.05.15.15,0,0,1,.12-.05Zm2.85-4a32.82,32.82,0,0,0-7.57,2.85,43.61,43.61,0,0,0-6.59,4.26,50.8,50.8,0,0,0-6,5.4,62.14,62.14,0,0,0-5.17,6.27,1.43,1.43,0,0,0-.12,1.11,1.47,1.47,0,0,0,.65.86,1.43,1.43,0,0,0,1.07.13,1.5,1.5,0,0,0,.85-.66l.9-1.21a50.89,50.89,0,0,1,8.91-9.05,46.88,46.88,0,0,1,10-5.85c1.25-.53,2.52-1,3.8-1.46a1.47,1.47,0,0,0,.82-.63,1.41,1.41,0,0,0,.13-1.06,1.34,1.34,0,0,0-1.33-1,2.11,2.11,0,0,0-.35,0Z" style="fill:#161616"/><path d="M1107.31,392.06a1.45,1.45,0,0,0-.63.81,1.48,1.48,0,0,1,0,.35,1.69,1.69,0,0,0,.2.68,43.65,43.65,0,0,0,4.25,7.76,1.16,1.16,0,0,0,.77.61,1.26,1.26,0,0,0,1-.13,1.33,1.33,0,0,0,.48-1.81,47.2,47.2,0,0,1-4.23-7.79,1.19,1.19,0,0,0-.77-.61,2.45,2.45,0,0,0-.35-.05,1.18,1.18,0,0,0-.67.18Z" style="fill:#161616"/><path d="M1120.09,386.72a41.08,41.08,0,0,0-12.26,2.89,1.56,1.56,0,0,0-.87.71,1.48,1.48,0,0,0,.52,2,1.48,1.48,0,0,0,1.13.15,47.3,47.3,0,0,1,5.71-1.82c2-.53,4.08-.9,6.12-1.28a1.34,1.34,0,0,0,1-1.31,1.37,1.37,0,0,0-1.3-1.36Z" style="fill:#161616"/><path d="M1122.07,360.57v0Zm-.35,17.78c0,.07,0,.12,0,.2,0-.08,0-.13,0-.2Zm-2.3-18.73a51.34,51.34,0,0,0-.9,7,57.81,57.81,0,0,0,0,7.21,55.15,55.15,0,0,0,2.79,14.22,1.26,1.26,0,1,0,2.43-.68,50.83,50.83,0,0,1-2-9.07,57.27,57.27,0,0,1-.48-7.94,71.07,71.07,0,0,1,.63-8.25c0-.3.07-.6.1-.91a2.32,2.32,0,0,1,0,.38l.15-1v-.12a.15.15,0,0,0,0-.1c0-.13,0-.25.05-.36a1.37,1.37,0,0,0-.17-.7,1.46,1.46,0,0,0-.85-.66,1.88,1.88,0,0,0-.33-.05,1.4,1.4,0,0,0-1.37,1Z" style="fill:#161616"/><path d="M1086.4,360.12c-1.72,3.78-3.37,7.64-4.92,11.52s-2.94,7.64-4.29,11.52-2.48,7.77-3.53,11.67-1.87,8-2.52,12c-.32,2-.6,4.11-.8,6.17s-.35,4.06-.35,6.08a1.77,1.77,0,0,0,1.75,1.76,1.65,1.65,0,0,0,1.23-.53,1.56,1.56,0,0,0,.27-.35,1.53,1.53,0,0,0,.25-.88c.25-2.19.45-4.39.67-6.56s.48-4.36.75-6.52c.45-3.33,1-6.61,1.63-9.89s1.5-6.83,2.39-10.21,1.88-6.6,3-9.83,2.47-6.68,3.85-10a2.14,2.14,0,0,0-.1.22c.75-1.79,1.52-3.55,2.32-5.32a1.08,1.08,0,0,0,.08-.73.84.84,0,0,0-.43-.55.85.85,0,0,0-.45-.1.88.88,0,0,0-.8.45Z" style="fill:#161616"/><path d="M1061.75,390.6a44.8,44.8,0,0,0,.83,7.74q.63,3.74,1.64,7.41c.68,2.44,1.5,4.86,2.35,7.26s1.75,4.79,2.7,7.13a1.3,1.3,0,0,0,.57.73,1.27,1.27,0,0,0,.93.13,1.34,1.34,0,0,0,.72-.55,1.21,1.21,0,0,0,.13-1c-.8-2-1.55-3.94-2.23-5.95s-1.24-4-1.77-6.1a116.79,116.79,0,0,1-2.47-12.46c-.2-1.58-.38-3.2-.63-4.76a1.2,1.2,0,0,0-.35-.63,1.36,1.36,0,0,0-1-.43,1.45,1.45,0,0,0-1.43,1.44Z" style="fill:#161616"/><path d="M1069.72,380.29c-2.87,2.37-5.6,4.91-8.29,7.46a1.44,1.44,0,0,0,2,2c2.7-2.54,5.49-5,8.22-7.54a1.39,1.39,0,0,0-1-2.37,1.48,1.48,0,0,0-1,.41Z" style="fill:#161616"/><path d="M1067.17,372.8a1.55,1.55,0,0,0-.55,2.12,45,45,0,0,1,2.8,5.32c.27.65.52,1.33.75,2a1.81,1.81,0,0,0,.72.94,1.56,1.56,0,0,0,2.28-1.77,35.45,35.45,0,0,0-3.88-8.06,1.75,1.75,0,0,0-.92-.74,3,3,0,0,0-.42-.05,1.48,1.48,0,0,0-.78.23Z" style="fill:#161616"/><path d="M1086.4,355.68c-7.09,5.83-14.28,11.68-20,18.94a1.82,1.82,0,0,1-.27.35,1.89,1.89,0,0,0-.23.91,1.73,1.73,0,0,0,2.63,1.51,1.51,1.51,0,0,0,.62-.63c1.37-1.77,2.8-3.48,4.32-5.12s3.17-3.25,4.82-4.81c3.32-3.13,6.82-6.05,10.32-8.95a1.56,1.56,0,0,0,.44-1.09,1.52,1.52,0,0,0-1.54-1.56,1.64,1.64,0,0,0-1.08.45Z" style="fill:#161616"/><path d="M1097.44,384.83l-.15.07.15-.07Zm.65-.28-.27.12.27-.12Zm-20.45-.23a1.49,1.49,0,0,0,.52,2,24.23,24.23,0,0,0,5.07,2.4,21.68,21.68,0,0,0,5.59,1,21,21,0,0,0,5.42-.53,15,15,0,0,0,2.58-.84,14.29,14.29,0,0,0,2.82-1.41,1.47,1.47,0,0,0,.5-1.94,1.39,1.39,0,0,0-.85-.65,2.47,2.47,0,0,1-.38-.05,1.34,1.34,0,0,0-.69.2c-.15.07-.3.12-.45.2l-.23.07.1,0a27.35,27.35,0,0,1-5.94,1.74,20.28,20.28,0,0,1-4.8,0,19.62,19.62,0,0,1-4.57-1.26,29.17,29.17,0,0,1-2.7-1.44,1.25,1.25,0,0,0-.72-.2,1.51,1.51,0,0,0-1.27.73Z" style="fill:#161616"/><path d="M1120.77,360.9a1.47,1.47,0,0,0-.88.68,1.57,1.57,0,0,0-.12,1.11,1.36,1.36,0,0,0,.65.86c4.47,1.91,8.79,4.13,13.11,6.38,2.12,1.08,4.22,2.22,6.34,3.32s4.38,2.32,6.67,3.31l.35.15a1.67,1.67,0,0,0,.83,0,1.59,1.59,0,0,0,.9-.71,1.55,1.55,0,0,0-.55-2.12c-2.08-1.15-4.22-2.19-6.35-3.27l-6.64-3.33c-4.37-2.19-8.74-4.31-13.21-6.23l-.35-.15a2.47,2.47,0,0,0-.38,0,2.35,2.35,0,0,0-.37,0Z" style="fill:#161616"/><path d="M1149,379c0,.5.08,1,.1,1.51l.9-1.29c.4-.55.8-1.11,1.22-1.66a1.44,1.44,0,0,0-.65-.15A1.59,1.59,0,0,0,1149,379Z" style="fill:#161616"/><path d="M1071,408.24a145.64,145.64,0,0,0,.8,19.47q.53,4.83,1.2,9.68c.43,3.25.87,6.55,1.42,9.8a1.65,1.65,0,0,0,.78,1,1.66,1.66,0,0,0,2.3-.6,3.56,3.56,0,0,0,.17-.41,1.76,1.76,0,0,0,0-.91c-.5-3.63-1.2-7.23-1.85-10.84s-1.22-7.21-1.7-10.81a3.27,3.27,0,0,1,.05.35c-.35-2.72-.64-5.47-.84-8.22s-.23-5.69-.13-8.52a1.1,1.1,0,1,0-2.2,0Z" style="fill:#161616"/><path d="M1085.88,426.4c0,.05-.05.12-.08.17s.08-.15.1-.2,0,0,0,0Zm4-16.39c-.75,1.34-1.35,2.75-2,4.16s-1.3,2.95-2,4.44c-1.3,3-2.57,6-3.82,9a155.11,155.11,0,0,0-6.37,18.4,1.53,1.53,0,0,0,1,1.84,1.5,1.5,0,0,0,1.84-1,158.29,158.29,0,0,1,7.17-20.27.69.69,0,0,1,0,.13c0-.1.08-.2.13-.3a.13.13,0,0,1,0-.06v0c1-2.52,2.13-5,3.17-7.54.53-1.26,1-2.52,1.53-3.78s1.07-2.7,1.45-4.08a1.24,1.24,0,0,0-.55-1.39,1.33,1.33,0,0,0-.6-.15,1.19,1.19,0,0,0-1.05.58Z" style="fill:#161616"/><path d="M1083.51,358c-6,2.37-12.22,4.31-18.46,6.08-1.9.55-3.82,1.08-5.72,1.59a12.28,12.28,0,0,1,.1,3.58c2.07-.56,4.14-1.14,6.22-1.72,6.34-1.84,12.61-3.83,18.75-6.25a1.94,1.94,0,0,0,1-.78,1.7,1.7,0,0,0,.18-1.31,1.76,1.76,0,0,0-.78-1,1.78,1.78,0,0,0-.9-.25,1.07,1.07,0,0,0-.39.07Z" style="fill:#161616"/><path d="M1100.44,343.91s.07,0,.1.08-.08-.05-.1-.08Zm-3.12-1.46a1,1,0,0,0,0,1.36,46,46,0,0,0,4.49,3.48,32.08,32.08,0,0,0,5,2.85.92.92,0,0,0,.67.1,1,1,0,0,0,.55-.43,1,1,0,0,0-.32-1.24c-1.25-.68-2.5-1.38-3.7-2.14s-2.32-1.56-3.45-2.42c-.65-.5-1.27-1-1.89-1.56a1,1,0,0,0-.68-.28.93.93,0,0,0-.67.28Z" style="fill:#161616"/><path d="M1090.67,344.24a.66.66,0,0,0-.07.58.83.83,0,0,0,.35.48c2.12,1.49,4.27,2.95,6.44,4.41s4.42,3,6.69,4.31a.73.73,0,0,0,1-.28.71.71,0,0,0,.08-.55.69.69,0,0,0-.35-.43c-2.15-1.49-4.35-2.87-6.52-4.31s-4.4-3-6.59-4.49a.62.62,0,0,0-.35-.1.79.79,0,0,0-.68.38Z" style="fill:#161616"/><path d="M1090.25,349a.66.66,0,0,0-.08.53.75.75,0,0,0,.33.41q4.95,3.48,10,6.85a.68.68,0,0,0,.88-.22.74.74,0,0,0,.05-.51.81.81,0,0,0-.28-.38c-3.32-2.29-6.64-4.58-9.94-6.93a.53.53,0,0,0-.32-.1.7.7,0,0,0-.6.35Z" style="fill:#161616"/><path d="M1046,323.79a44.17,44.17,0,0,0,2.22,13,31.84,31.84,0,0,0,6.67,11.55,1,1,0,0,0,1.42,0,1.09,1.09,0,0,0,.28-.73,1,1,0,0,0-.28-.71c-.4-.45-.75-.93-1.12-1.39a37.15,37.15,0,0,1-2.3-3.42,35.56,35.56,0,0,1-4.57-13.77,40.62,40.62,0,0,1-.35-4.54,1,1,0,0,0-2,0Z" style="fill:#161616"/><path d="M1058.5,335.84a1,1,0,0,0-.57.43,1.09,1.09,0,0,0-.1.73,28.05,28.05,0,0,0,2.35,6.91,23.9,23.9,0,0,0,4.27,6,1,1,0,1,0,1.35-1.37c-.55-.6-1-1.23-1.55-1.86a24.33,24.33,0,0,1-4.6-10.21.92.92,0,0,0-.92-.71,1,1,0,0,0-.23,0Z" style="fill:#161616"/><path d="M1067.92,337.91a1.29,1.29,0,0,0-.87,1.54,33.84,33.84,0,0,0,3.49,7.46,1.22,1.22,0,0,0,1.68.45,1.24,1.24,0,0,0,.42-1.68,46,46,0,0,1-2.37-4.64c-.3-.76-.58-1.49-.83-2.25a1.23,1.23,0,0,0-.57-.75,1.35,1.35,0,0,0-.62-.15,1.83,1.83,0,0,0-.33,0Z" style="fill:#161616"/><path d="M907.58,97.06q.45,6.36.77,12.74c.13,2.11.23,4.23.35,6.35s.2,4.26.38,6.38a1.72,1.72,0,0,0,.47,1.18,1.68,1.68,0,0,0,1.18.48,1.65,1.65,0,0,0,1.64-1.66c0-2.12-.15-4.24-.3-6.38s-.29-4.24-.44-6.35c-.35-4.26-.73-8.5-1-12.74a1.6,1.6,0,0,0-.45-1,1.38,1.38,0,0,0-1-.46,1.51,1.51,0,0,0-1.5,1.51Z" style="fill:#161616"/><path d="M916.72,92.48a15.53,15.53,0,0,0-2.62.27,25.3,25.3,0,0,0-5.5,1.67,3.29,3.29,0,0,0-.42.2,1.71,1.71,0,0,0-.65.63,1.87,1.87,0,0,0-.18,1.41,1.77,1.77,0,0,0,.83,1.06,1.62,1.62,0,0,0,1.37.2,24.62,24.62,0,0,1,5.82-1.71,14,14,0,0,1,2.75,0,6.21,6.21,0,0,1,1.35.38,3.36,3.36,0,0,1,.67.37,3,3,0,0,1,.35.36,1.16,1.16,0,0,1,.18.33,1.56,1.56,0,0,1,.12.4v.53c-.07.3-.15.58-.25.88a8.68,8.68,0,0,1-.77,1.26,11.87,11.87,0,0,1-1.88,1.87,21.8,21.8,0,0,1-4.39,2.52l-.45.17a2.29,2.29,0,0,0-.88.51,2,2,0,0,0,0,2.82c.13.1.28.2.4.3a2,2,0,0,0,1,.28.44.44,0,0,1,.2,0,23.08,23.08,0,0,1,5.87,1.53,13.67,13.67,0,0,1,2.65,1.52,7.33,7.33,0,0,1,1.2,1.16,7.55,7.55,0,0,1,.55,1,4.62,4.62,0,0,1,.22.76v.68a3.5,3.5,0,0,1-.2.68,4.27,4.27,0,0,1-.42.71,5.57,5.57,0,0,1-.83.85,11.48,11.48,0,0,1-1.69,1,14.83,14.83,0,0,1-3.13.8,24.44,24.44,0,0,1-5.92-.07c-.24,0-.49-.08-.74-.1l-.5-.08a2,2,0,0,0-1,.28A1.94,1.94,0,0,0,909,121a1.91,1.91,0,0,0,.2,1.51,1.79,1.79,0,0,0,1.15.88,23.92,23.92,0,0,0,10.94-.12,10.34,10.34,0,0,0,6.24-4.44,6.81,6.81,0,0,0,.9-3.35,7.3,7.3,0,0,0-.9-3.48,10.55,10.55,0,0,0-1.07-1.54,8.59,8.59,0,0,0-1.3-1.26,14.21,14.21,0,0,0-1.85-1.28,16.69,16.69,0,0,0-2.42-1.14,12.57,12.57,0,0,0-1.5-.53,15.6,15.6,0,0,0,3.17-2.95,9.27,9.27,0,0,0,1.8-3.43,5.88,5.88,0,0,0-.07-3.3,5.47,5.47,0,0,0-.7-1.36,4.74,4.74,0,0,0-.65-.76,6.9,6.9,0,0,0-.8-.65,7,7,0,0,0-1.52-.76,6.53,6.53,0,0,0-1.68-.4,12.77,12.77,0,0,0-1.94-.15Z" style="fill:#161616"/><path d="M935.3,105.08c0,.08,0,.15,0,.23,0-.08,0-.15,0-.23Zm-1.57-9.5a56,56,0,0,0-2.1,8.54,36.4,36.4,0,0,0-.47,4.42,24.49,24.49,0,0,0,.27,4.28,10.39,10.39,0,0,0,3.37,6.43,9.37,9.37,0,0,0,3.75,1.89,13.44,13.44,0,0,0,4.77.23l.52-.08a2,2,0,0,0,1.43-1.89,2,2,0,0,0-1.95-2,14.24,14.24,0,0,1-2.77-.05,5.75,5.75,0,0,1-3.08-1.16,7,7,0,0,1-.84-.88,7.38,7.38,0,0,1-.8-1.38,12.27,12.27,0,0,1-.68-2.63,26.48,26.48,0,0,1,.1-5.9,53.91,53.91,0,0,1,2.1-8.84,1.93,1.93,0,0,0-1.3-2.35,1.77,1.77,0,0,0-.5,0,2,2,0,0,0-1.82,1.39Z" style="fill:#161616"/><path d="M945.09,105c-.37,0-.75.1-1.15.17.2-.05.43-.07.63-.1-.3,0-.6.1-.93.13a34,34,0,0,1-6.84.22,2.52,2.52,0,0,0-1.72.74,2.48,2.48,0,0,0,0,3.45,2.62,2.62,0,0,0,1.72.71,27.08,27.08,0,0,0,9.52-.86,2.34,2.34,0,0,0,1.59-2.85,2.28,2.28,0,0,0-1-1.39l-.55-.22a2.47,2.47,0,0,0-.6-.08,2.94,2.94,0,0,0-.63.08Z" style="fill:#161616"/><path d="M936,93.28a2.33,2.33,0,0,0-1.55.66,2.23,2.23,0,0,0-.63,1.56A2.21,2.21,0,0,0,936,97.7c4.29-.26,8.56-.21,12.86-.18A2,2,0,0,0,950.31,94a2.25,2.25,0,0,0-1.42-.6,67.41,67.41,0,0,0-6.82-.33c-2,0-4.05.07-6,.17Z" style="fill:#161616"/><path d="M892.79,136.27a1.81,1.81,0,0,0-.55,1.36c.3,3.65.53,7.33.68,11s.1,7.62.25,11.42a1.94,1.94,0,0,0,1.9,1.92,1.82,1.82,0,0,0,1.32-.58,2,2,0,0,0,.55-1.34,107.11,107.11,0,0,0-.13-11q-.25-5.72-.79-11.39a2.08,2.08,0,0,0-.55-1.36,1.9,1.9,0,0,0-1.35-.56,1.85,1.85,0,0,0-1.33.56Z" style="fill:#161616"/><path d="M903.06,134.53c-2.07.2-4.07.8-6.1,1.13a1.48,1.48,0,0,0-.89.71,1.53,1.53,0,0,0,.52,2.06,1.7,1.7,0,0,0,1.15.15c1.7-.3,3.35-.75,5-1a11.81,11.81,0,0,1,2.3,0,4.48,4.48,0,0,1,.55.1c-.45.81-.83,1.69-1.2,2.52a29.66,29.66,0,0,1-2.9,5.35,10.62,10.62,0,0,1-1.3,1.38,1.75,1.75,0,0,0-.45,1.69,1.9,1.9,0,0,0,1.23,1.24c.7.22,1.39.53,2.09.8a24.19,24.19,0,0,1,4.75,2.65,8.72,8.72,0,0,1,1.47,1.44,4.64,4.64,0,0,1,.55.93,4.24,4.24,0,0,1,.2.66v.53c0,.17-.1.35-.15.5a3.06,3.06,0,0,1-.37.63,7.18,7.18,0,0,1-.78.78,10.44,10.44,0,0,1-1.62.93,12.78,12.78,0,0,1-2.9.76,17.19,17.19,0,0,1-4.24,0,22.16,22.16,0,0,1-5.3-1.54,2,2,0,0,0-1,0,1.94,1.94,0,0,0-1.1.85,1.91,1.91,0,0,0-.2,1.44,1.81,1.81,0,0,0,.85,1.11,21,21,0,0,0,5,1.74,19.14,19.14,0,0,0,4.77.43,15.82,15.82,0,0,0,4.22-.66,11.5,11.5,0,0,0,3.37-1.56,8.33,8.33,0,0,0,2.45-2.6,5.87,5.87,0,0,0,.82-3.22,6.66,6.66,0,0,0-1.15-3.41,11.69,11.69,0,0,0-3.19-3.12,22.07,22.07,0,0,0-5.2-2.62,26.74,26.74,0,0,0,2.18-4c.42-1,.82-2,1.27-2.95a12.81,12.81,0,0,1,1.22-2.32,0,0,0,0,0,0,0,1.63,1.63,0,0,0,.45-1.1,1.58,1.58,0,0,0-.75-1.34,10.88,10.88,0,0,0-2.92-.91,9.3,9.3,0,0,0-1.68-.12,8.4,8.4,0,0,0-1.12.05Z" style="fill:#161616"/><path d="M916.77,137.25c-.62,3.1-1.2,6.2-1.52,9.35a27.32,27.32,0,0,0,.17,8.7,9.21,9.21,0,0,0,1.35,3.3,5.91,5.91,0,0,0,1.15,1.34,6.87,6.87,0,0,0,5.74,1.53,13.24,13.24,0,0,0,2.45-.53,21,21,0,0,0,2.92-1.18,1.88,1.88,0,0,0,.85-2.14,1.77,1.77,0,0,0-.85-1.14,1.74,1.74,0,0,0-1.45-.2,20.41,20.41,0,0,1-4.22,1.31,7.9,7.9,0,0,1-1.54,0,5.14,5.14,0,0,1-.83-.23,5.57,5.57,0,0,1-.57-.33l-.53-.53a6.36,6.36,0,0,1-.57-1,13.76,13.76,0,0,1-.63-2.47,35.77,35.77,0,0,1,.25-8.14c.33-2.25.73-4.49,1.18-6.71a1.78,1.78,0,0,0-1.2-2.17,1.38,1.38,0,0,0-.45,0,1.73,1.73,0,0,0-1.7,1.29Z" style="fill:#161616"/><path d="M934.58,151.26l0,.13a.5.5,0,0,1,0-.13Zm-4-13.89a34.79,34.79,0,0,0-1.15,6.48,24.83,24.83,0,0,0,.2,5.45,13.37,13.37,0,0,0,3.52,7.38,8.22,8.22,0,0,0,6.32,2.48,8.61,8.61,0,0,0,3.57-1.14,10.67,10.67,0,0,0,3-2.8,12.57,12.57,0,0,0,1.52-2.7,19.62,19.62,0,0,0,1.22-4,26.58,26.58,0,0,0,.45-4.87,34.53,34.53,0,0,0-.45-5.65,2,2,0,0,0-3.39-.9,1.94,1.94,0,0,0-.58,1.43,40.08,40.08,0,0,1-.07,7.59,19.45,19.45,0,0,1-1.1,4.24,12.24,12.24,0,0,1-1.25,2.24,7.88,7.88,0,0,1-1.15,1.16,6.37,6.37,0,0,1-1,.63,7,7,0,0,1-1,.25,4.51,4.51,0,0,1-.9,0,5.52,5.52,0,0,1-.93-.25,7.43,7.43,0,0,1-.94-.55,7.53,7.53,0,0,1-1-1,9.91,9.91,0,0,1-1-1.79,15.24,15.24,0,0,1-.82-3.17,23,23,0,0,1,.07-5.37,32.19,32.19,0,0,1,.85-4,2.12,2.12,0,0,0-1.45-2.57,2,2,0,0,0-.55-.07,2.07,2.07,0,0,0-2,1.53Z" style="fill:#161616"/><path d="M951.64,138a105.08,105.08,0,0,1-.63,20.22c-.17,1.21-.35,2.42-.55,3.63a1.94,1.94,0,0,0,.18,1.34,1.7,1.7,0,0,0,2.34.63,1.66,1.66,0,0,0,.78-1A100.78,100.78,0,0,0,955,138a1.67,1.67,0,0,0-.5-1.18,1.61,1.61,0,0,0-1.18-.5,1.69,1.69,0,0,0-1.69,1.68Z" style="fill:#161616"/><path d="M952.53,137.32a1.91,1.91,0,0,0-.57,1.37,2.07,2.07,0,0,0,.57,1.38c2.65,3.18,5.3,6.41,8,9.53a122.94,122.94,0,0,0,8.54,9.13,2,2,0,0,0,3.25-.89,40.46,40.46,0,0,0,.44-17.89,1.73,1.73,0,0,0-3.19-.41,2.44,2.44,0,0,0-.18.41,1.48,1.48,0,0,0,0,.93,6.93,6.93,0,0,0,.1.7,44.55,44.55,0,0,1,0,10.64c-.08.41-.13.83-.2,1.24-5-5.12-9.47-10.67-14.06-16.14a1.84,1.84,0,0,0-1.35-.58,1.89,1.89,0,0,0-1.38.58Z" style="fill:#161616"/><path d="M974.54,137.75a2.08,2.08,0,0,0,0,2.88,2,2,0,0,0,1.42.58c2.77.2,5.55.37,8.32.48a64.21,64.21,0,0,0,8.32-.06,1.82,1.82,0,0,0,1.27-.52,1.86,1.86,0,0,0,0-2.58,2,2,0,0,0-1.27-.53c-2.78-.25-5.55-.27-8.32-.37s-5.55-.28-8.32-.46a.1.1,0,0,0-.07,0,2.07,2.07,0,0,0-1.35.6Z" style="fill:#161616"/><path d="M982.21,164.45c0,.07,0,.15,0,.2s0-.13,0-.2Zm0-.3a1.64,1.64,0,0,0,0,.27,1.64,1.64,0,0,1,0-.27Zm1.27-23.78a169.37,169.37,0,0,1-1.32,24c-.1.84-.23,1.67-.35,2.5,0,.18-.05.35-.08.55a2,2,0,0,0,.28,1,2.08,2.08,0,0,0,1.22,1,2,2,0,0,0,1.55-.23,1.75,1.75,0,0,0,.72-.73,1.79,1.79,0,0,0,.28-1c.45-4.43.67-8.9.8-13.36s.12-9.15,0-13.74a1.54,1.54,0,0,0-3.07,0Z" style="fill:#161616"/><path d="M894.62,71.53c-.08,0-.15.12-.23.18.08-.06.15-.13.23-.18Zm4.69-8.32A75.4,75.4,0,0,0,889,70.6a91,91,0,0,0-9.64,9.6,94.23,94.23,0,0,0-15.51,24.2,71.74,71.74,0,0,0-4.45,13.51,53.59,53.59,0,0,0-1.25,13.67,41.12,41.12,0,0,0,2.68,13.11,38.32,38.32,0,0,0,3.09,6.3,40.92,40.92,0,0,0,4.42,5.8c.2.22.4.42.6.63a2.16,2.16,0,0,0,3,0,2.2,2.2,0,0,0,.62-1.54,2.42,2.42,0,0,0-.62-1.54c-.45-.5-.85-1-1.27-1.56a41.74,41.74,0,0,1-5-8.57,40.2,40.2,0,0,1-2.52-9.43,48.19,48.19,0,0,1,0-11.88,65.39,65.39,0,0,1,4.52-16.1,91.51,91.51,0,0,1,27-35.35,66.66,66.66,0,0,1,6.72-4.56,2.12,2.12,0,0,0-1.08-4,2.23,2.23,0,0,0-1.05.28" style="fill:#161616"/><path d="M871.07,171.18a.25.25,0,0,0,0,.13.25.25,0,0,1,0-.13Zm-2.25-15.25a48,48,0,0,0-1.73,13.84,33.71,33.71,0,0,0,.78,6.12,26.57,26.57,0,0,0,1.87,5.47,23,23,0,0,0,3,4.72,21.37,21.37,0,0,0,3.62,3.68,24.4,24.4,0,0,0,4.9,3.1A29.93,29.93,0,0,0,887,195a38.36,38.36,0,0,0,14.79.73,2.57,2.57,0,0,0,1.05-.63,2.51,2.51,0,0,0,.72-1.74,2.45,2.45,0,0,0-2.42-2.42,77.42,77.42,0,0,1-9.37-.43,33.75,33.75,0,0,1-8-2.14,26,26,0,0,1-5.17-3,20.82,20.82,0,0,1-3.4-3.43,21.54,21.54,0,0,1-2.52-4.41,25.64,25.64,0,0,1-1.57-6,35.34,35.34,0,0,1,.07-8.9,50.91,50.91,0,0,1,1.15-5.7,1.88,1.88,0,0,0-1.27-2.27,3.91,3.91,0,0,0-.48,0,1.82,1.82,0,0,0-1.77,1.34Z" style="fill:#161616"/><path d="M900.21,191.55a2,2,0,0,0-1.27,1,60.51,60.51,0,0,0-3,7.79c-.82,2.7-1.5,5.42-2.27,8.12a2.29,2.29,0,0,0,.57,2.17,2.23,2.23,0,0,0,1,.58A2,2,0,0,0,897,211a73.76,73.76,0,0,0,15.51-15.5,2.23,2.23,0,0,0-.82-3.08,2.18,2.18,0,0,0-1.72-.23l-.53.23a2.22,2.22,0,0,0-.8.81c-.17.25-.37.48-.55.73a69,69,0,0,1-6.26,7c-.68.68-1.35,1.31-2,1.94a69.76,69.76,0,0,1,2.35-7l.52-1.14a2.23,2.23,0,0,0,.2-1.66,2.16,2.16,0,0,0-1-1.29,2.06,2.06,0,0,0-1.1-.3,2.15,2.15,0,0,0-.55.08Z" style="fill:#161616"/><path d="M987.4,187.06a1.18,1.18,0,0,1-.25.1,1.18,1.18,0,0,0,.25-.1Zm33.07-46.46a59.52,59.52,0,0,1-.5,7.29,52.2,52.2,0,0,1-3.27,12.1,47.71,47.71,0,0,1-5.6,9.68,53.44,53.44,0,0,1-8.76,8.77A70.33,70.33,0,0,1,987.53,187a100.61,100.61,0,0,1-13.14,4.46,118.17,118.17,0,0,1-14.26,2.8,144.56,144.56,0,0,1-37.92,0c-2.92-.41-5.81-.91-8.69-1.54a2.52,2.52,0,0,0-1.87.23,2.45,2.45,0,0,0-1.12,1.46,2.5,2.5,0,0,0,1.69,3,136,136,0,0,0,20.38,2.83,149.7,149.7,0,0,0,22.31-.21,132.12,132.12,0,0,0,22.85-3.88A90.15,90.15,0,0,0,998.49,188a66.34,66.34,0,0,0,9-6.15,49.82,49.82,0,0,0,7.19-7.11,46.58,46.58,0,0,0,5.82-9,42.76,42.76,0,0,0,3.57-10.51,55.46,55.46,0,0,0,1-7.19c.08-1.18.1-2.37.08-3.53,0-1.33-.1-2.62-.2-3.93a2.29,2.29,0,0,0-.65-1.61,2.32,2.32,0,0,0-1.57-.66,2.28,2.28,0,0,0-2.25,2.27" style="fill:#161616"/><path d="M993.77,68l.17.13-.17-.13ZM942.62,46.75a71.31,71.31,0,0,0-20,4.11,70.52,70.52,0,0,0-18.76,10.36l-.42.35a1.93,1.93,0,0,0-.55.93,2.29,2.29,0,0,0,.2,1.69,2.27,2.27,0,0,0,1.3,1,2,2,0,0,0,1.65-.21,65.12,65.12,0,0,1,14-8.29A69.15,69.15,0,0,1,937.13,52a72.11,72.11,0,0,1,18.68,0,85.13,85.13,0,0,1,20.55,5.69,82.59,82.59,0,0,1,17.76,10.49,79.4,79.4,0,0,1,13.51,13.54A64.85,64.85,0,0,1,1015.27,95a63.21,63.21,0,0,1,4.07,15.18,73.34,73.34,0,0,1-.17,18.25c-.4,2.87-1,5.7-1.62,8.55a2.94,2.94,0,0,0,.27,2.09,2.67,2.67,0,0,0,1.62,1.23,2.74,2.74,0,0,0,2.08-.25c.17-.15.37-.3.55-.43a3,3,0,0,0,.7-1.21,56.5,56.5,0,0,0,3.24-12.95,54.27,54.27,0,0,0,.28-12,60.88,60.88,0,0,0-2.18-12,66.6,66.6,0,0,0-4.34-11,72.58,72.58,0,0,0-5.75-9.68,79.42,79.42,0,0,0-7.51-9.15A80.94,80.94,0,0,0,988,57.41a92.07,92.07,0,0,0-10.86-5.14,85.67,85.67,0,0,0-11-3.48,82.65,82.65,0,0,0-11.89-1.89c-2.22-.2-4.47-.3-6.72-.3-1.59,0-3.22,0-4.84.15" style="fill:#161616"/><path d="M766.72,326.47a2,2,0,0,0-.58,1.41c-.25,3.12-.35,6.28-.37,9.43s.15,6.35.37,9.5.6,6.48,1.1,9.71a37.84,37.84,0,0,0,2.33,9.37,2.32,2.32,0,0,0,.87.86,2.35,2.35,0,0,0,1.85.25,2.28,2.28,0,0,0,1.05-.63,2.32,2.32,0,0,0,.7-1.71,40.8,40.8,0,0,0-.85-4.49c-.33-1.41-.65-2.82-1-4.23-.62-2.85-1.15-5.7-1.55-8.6a99.71,99.71,0,0,1-.62-19.46,2,2,0,0,0-1.95-2,1.93,1.93,0,0,0-1.37.58Z" style="fill:#161616"/><path d="M786.15,353a16.82,16.82,0,0,0-4.17,1,17.91,17.91,0,0,0-3.82,2,19.52,19.52,0,0,0-6,7,2,2,0,0,0,.68,2.6,1.9,1.9,0,0,0,2.57-.68,18.63,18.63,0,0,1,1.65-2.63,16.09,16.09,0,0,1,2.37-2.44,17,17,0,0,1,3-1.74,18.3,18.3,0,0,1,3.82-1,20.72,20.72,0,0,1,5.22.05,31.23,31.23,0,0,1,7.25,2.06l2.2,1a1.8,1.8,0,0,0,1.34.18,1.87,1.87,0,0,0,1.08-.81,1.84,1.84,0,0,0,.17-1.36,1.94,1.94,0,0,0-.82-1.08,21.85,21.85,0,0,0-3.6-2,27,27,0,0,0-4.32-1.51,25.65,25.65,0,0,0-4.44-.7c-.48,0-.93-.05-1.38-.05a19.15,19.15,0,0,0-2.72.2Z" style="fill:#161616"/><path d="M766.24,326.29c-7,2.92-14.23,5.32-21.37,8C737.57,337,730.33,340,724,344.64a1.7,1.7,0,0,0-.75,1.84,1.58,1.58,0,0,0,.75,1,1.53,1.53,0,0,0,1.24.17q10.46-4.27,21-8.44c7.1-2.8,14.24-5.47,21.26-8.42l.55-.23a2.18,2.18,0,0,0,.82-.83,2.42,2.42,0,0,0,.25-1.82,2.35,2.35,0,0,0-1.07-1.38,2.67,2.67,0,0,0-1.23-.33,1.28,1.28,0,0,0-.55.1Z" style="fill:#161616"/><path d="M771.86,319.23a25,25,0,0,0-3,3.15,40.36,40.36,0,0,0-2.7,3.61,1.67,1.67,0,0,0,.6,2.29,1.64,1.64,0,0,0,1.28.18,1.78,1.78,0,0,0,1-.78c.42-.61.85-1.21,1.3-1.79,1.19-1.54,2.49-2.95,3.77-4.39a1.66,1.66,0,0,0,.47-1.13,1.61,1.61,0,0,0-.47-1.14,1.57,1.57,0,0,0-1.13-.45,1.6,1.6,0,0,0-1.1.45Z" style="fill:#161616"/><path d="M717.42,397.91c0,.07,0,.15,0,.2a1.78,1.78,0,0,0,.05-.28.12.12,0,0,0,0,.08ZM724,344.79c-7.07,23.5-10.76,47.85-13.24,72.23-2.52,24.9-3.62,49.94-4.89,74.94-.48,9.63-1,19.26-1.6,28.89a2.19,2.19,0,0,0,2.17,2.22,2.15,2.15,0,0,0,1.55-.65,2.37,2.37,0,0,0,.65-1.57c.9-12.07,1.6-24.17,2.22-36.27.65-12.48,1.25-25,2-37.46,1-16.36,2.37-32.72,4.52-49,0,.08,0,.13,0,.18a2.47,2.47,0,0,0,0-.38.9.9,0,0,0,0-.23v.15A333.5,333.5,0,0,1,728.18,346a2.22,2.22,0,0,0-1.52-2.72,1.49,1.49,0,0,0-.58-.11,2.26,2.26,0,0,0-2.12,1.64" style="fill:#161616"/><path d="M705.23,522.94a2,2,0,0,0,.6,1.44,2.07,2.07,0,0,0,1.4.61c2.67.2,5.34.48,8,.83q5.35.75,10.64,2,2.73.62,5.39,1.29c1.8.45,3.6,1,5.4,1.39a2.19,2.19,0,0,0,2.45-3.23,2.3,2.3,0,0,0-1.3-1c-2.4-.8-4.85-1.38-7.3-1.94s-5.17-1.06-7.76-1.49c-5.15-.85-10.32-1.48-15.51-1.86h-.1a2,2,0,0,0-1.9,2Z" style="fill:#161616"/><path d="M746,392.64c-1,3.25-1.72,6.55-2.45,9.88s-1.32,6.63-1.87,10c-1.13,6.71-2,13.46-2.72,20.22-1.5,13.26-2.33,26.57-3,39.9-.85,18.33-1,36.66-1,55a1.73,1.73,0,0,0,1.72,1.74,1.71,1.71,0,0,0,1.7-1.74c0-13.51.18-27.05.7-40.56s1.45-26.72,2.92-40c.53-4.74,1.1-9.45,1.73-14.19.87-6.48,1.87-12.93,2.92-19.39.52-3.35,1.07-6.68,1.6-10s1.12-6.83,1.52-10.26a2.09,2.09,0,0,0-.27-1,1.9,1.9,0,0,0-1.18-.91,1.86,1.86,0,0,0-.52-.07,2,2,0,0,0-1.9,1.46Z" style="fill:#161616"/><path d="M735.27,527a1.31,1.31,0,0,0-.89,1.56c1.37,6.61,3.17,13.11,4.09,19.79a44.94,44.94,0,0,1,.23,11,24,24,0,0,1-1.45,5.55c-.23.5-.45,1-.7,1.46-.1-.23-.23-.45-.33-.68-2.52-6.23-3.39-12.93-5.57-19.29a1.86,1.86,0,0,0-.74-1,1.65,1.65,0,0,0-1.28-.18,1.71,1.71,0,0,0-1.17,2.07c1.15,3.91,2,7.89,3,11.85.53,2,1.1,4,1.8,5.9a32.58,32.58,0,0,0,2.63,5.57,1.73,1.73,0,0,0,1.47.83,1.74,1.74,0,0,0,1.45-.83,22.46,22.46,0,0,0,3.67-9.73,43.22,43.22,0,0,0-.1-11.19,105.8,105.8,0,0,0-2.12-11.45c-.8-3.45-1.7-6.88-2.43-10.36a1.24,1.24,0,0,0-1.22-.93,1.09,1.09,0,0,0-.33.05Z" style="fill:#161616"/><path d="M721.14,556.32a51.37,51.37,0,0,0,1.05,9.66,50.33,50.33,0,0,0,2.25,8.11,32.63,32.63,0,0,0,1.52,3.53,15.92,15.92,0,0,0,1.47,2.42c1,1.31,2.28,2.75,4.05,2.78a2.82,2.82,0,0,0,1.47-.43,3.63,3.63,0,0,0,1.18-1.19,6.66,6.66,0,0,0,.62-1.43,10.44,10.44,0,0,0,.4-1.74,33.6,33.6,0,0,0,.37-5.47c0-2.75-.17-5.5-.39-8.22a1.65,1.65,0,0,0-.45-1.11,1.53,1.53,0,0,0-2.23,0,1.41,1.41,0,0,0-.45,1.11c.18,2.37.3,4.74.33,7.13a39.74,39.74,0,0,1-.25,4.89,12.51,12.51,0,0,1-.6,2.52.81.81,0,0,1-.1.18,2.64,2.64,0,0,1-.35-.4,12.73,12.73,0,0,1-1-1.72,25.3,25.3,0,0,1-1.1-2.29,58.29,58.29,0,0,1-3.68-14.24c-.17-1.37-.29-2.73-.39-4.09a1.94,1.94,0,0,0-.55-1.31,1.84,1.84,0,0,0-3.15,1.31Z" style="fill:#161616"/><path d="M713,555.21a1.73,1.73,0,0,0-.47,1.19,26.9,26.9,0,0,0,.77,7.89,33.24,33.24,0,0,0,2.65,7.28,38.72,38.72,0,0,0,9.56,11.93,1.56,1.56,0,0,0,1.05.43,1.49,1.49,0,0,0,1-.43,1.51,1.51,0,0,0,0-2.1,33,33,0,0,1-4.49-4.74,38.36,38.36,0,0,1-4.4-7.61,40,40,0,0,1-2.55-9.6c-.15-1-.25-2-.35-3.05a1.82,1.82,0,0,0-.5-1.19,1.64,1.64,0,0,0-1.14-.48,1.68,1.68,0,0,0-1.18.48Z" style="fill:#161616"/><path d="M707.23,554.76a3.87,3.87,0,0,1-.33.4,2.29,2.29,0,0,0-.27,1.06,26.68,26.68,0,0,0,.3,6.91,27.35,27.35,0,0,0,2,6.86,31.1,31.1,0,0,0,8.27,11,1.83,1.83,0,0,0,2.57-2.6,22.87,22.87,0,0,1-2.9-3,28.77,28.77,0,0,1-3.14-5.54,41.13,41.13,0,0,1-2.58-9.58c-.17-1.36-.27-2.7-.4-4.06a2.19,2.19,0,0,0-.6-1.46,2,2,0,0,0-1.44-.61,2,2,0,0,0-1.45.61Z" style="fill:#161616"/><path d="M707.2,518.94a1.59,1.59,0,0,0-1,.78c-.3.7-.7,1.36-1,2q-.58,1.32-1.14,2.67c-.68,1.69-1.25,3.41-1.75,5.12a76.36,76.36,0,0,0-2.43,11.77,66,66,0,0,0-.52,11.93,42.74,42.74,0,0,0,2.12,11.42,29.43,29.43,0,0,0,3.72,7.41,23.05,23.05,0,0,0,6.17,6,1.67,1.67,0,0,0,2.28-.6,1.7,1.7,0,0,0,.15-1.29,1.91,1.91,0,0,0-.75-1,9.15,9.15,0,0,1-1.1-.78,18.8,18.8,0,0,1-3.32-3.35,23.77,23.77,0,0,1-2.8-4.87,35.39,35.39,0,0,1-2.17-8.47,59.71,59.71,0,0,1,.2-15.4,88.72,88.72,0,0,1,2.27-11.19c.47-1.77,1-3.48,1.55-5.22.47-1.51,1-3,1.52-4.51a1.7,1.7,0,0,0-.65-2.25,1.66,1.66,0,0,0-.85-.22,1.38,1.38,0,0,0-.45.05Z" style="fill:#161616"/><path d="M760.28,542.05a.27.27,0,0,1-.15,0Zm27-6.6c-2.19.38-4.37,1-6.52,1.59-2.32.65-4.62,1.33-6.94,2A108.32,108.32,0,0,1,760,542.1c-2.28.31-4.55.53-6.82.63a45.15,45.15,0,0,1-7.17-.35,42.21,42.21,0,0,1-5-1,1.76,1.76,0,0,0-.92,3.4,53.69,53.69,0,0,0,12,1.79c2,.1,4,.08,6,0,2.2-.1,4.39-.4,6.59-.71A115.69,115.69,0,0,0,777,543.34c1.95-.51,3.89-1.06,5.82-1.69a53.12,53.12,0,0,0,6.14-2.27,2,2,0,0,0,.78-.76,2.28,2.28,0,0,0,.2-1.66,2.14,2.14,0,0,0-1-1.28,1.91,1.91,0,0,0-1-.28,4.41,4.41,0,0,0-.6.05Z" style="fill:#161616"/><path d="M778.86,539.36a1.79,1.79,0,0,0-.75,1,1.72,1.72,0,0,0,.17,1.26,1.53,1.53,0,0,0,1,.73C787.15,543.62,795,545,803,546c3.9.47,7.82.9,11.74,1.23,2,.18,4,.3,6,.4s4,.13,6,0a2.19,2.19,0,0,0,1.6-.68,2.29,2.29,0,0,0,.67-1.61,2.27,2.27,0,0,0-2.27-2.27c-3.27-.17-6.54-.2-9.82-.33s-6.81-.27-10.24-.52-6.81-.58-10.21-.94c-3.25-.33-6.52-.68-9.77-1.13q-3.33-.45-6.66-1a3,3,0,0,0-.48-.06,1.44,1.44,0,0,0-.77.21Z" style="fill:#161616"/><path d="M837.52,387c-.12.15-.25.31-.37.48a2.58,2.58,0,0,0-.33,1.21,285.91,285.91,0,0,0-1.77,38.6c.2,13.16,1.08,26.31,2.22,39.45.93,10.44,2.05,20.85,3.13,31.26.42,4.28.94,8.57,1.27,12.88a48.37,48.37,0,0,1,0,9.55,26.25,26.25,0,0,1-1.54,5.83,36.3,36.3,0,0,1-4.05,6.78c-1.2,1.49-2.45,2.92-3.72,4.36a2.56,2.56,0,0,0-.75,1.82,2.48,2.48,0,0,0,.75,1.81,2.53,2.53,0,0,0,1.8.76,2.6,2.6,0,0,0,1.8-.76,48.62,48.62,0,0,0,5.41-5.7,31,31,0,0,0,3.8-5.8,27,27,0,0,0,2.15-5.87,33.67,33.67,0,0,0,.75-6.25,59.94,59.94,0,0,0-.25-6.28c-.23-2.42-.53-4.81-.83-7.21-.79-6.17-1.57-12.35-2.32-18.5-3.07-26-5.67-52.23-4.54-78.45.27-6.1.75-12.2,1.49-18.28a2.29,2.29,0,0,0-.69-1.69,2.39,2.39,0,0,0-3.38,0Z" style="fill:#161616"/><path d="M762.87,551.28h0ZM740.77,548a1.69,1.69,0,0,0,1.15,2,147.11,147.11,0,0,0,17.28,4.36c3,.55,6,1.06,9,1.51s6.22.81,9.34,1.11a221.56,221.56,0,0,0,36.79.48c2.52-.18,5-.43,7.51-.71,1.4-.17,2.8-.37,4.2-.58a28.89,28.89,0,0,0,3.72-.78,2.22,2.22,0,0,0,1-3.7,2.21,2.21,0,0,0-1.55-.66,32.46,32.46,0,0,0-3.82,0c-1.3,0-2.58.13-3.88.2-2.74.16-5.49.36-8.24.53-5.62.36-11.24.68-16.86.86s-11.33.23-17,0c-2.82-.13-5.62-.33-8.44-.53s-5.42-.48-8.12-.84a122.18,122.18,0,0,1-20-4.46,2.82,2.82,0,0,0-.43,0,1.68,1.68,0,0,0-1.57,1.21Z" style="fill:#161616"/><path d="M828.63,544.57a2.1,2.1,0,0,0-.62,1.52c.2,2.06.32,4.13.52,6.2a2.28,2.28,0,0,0,.6,1.51,2.11,2.11,0,0,0,3.62-1.51c-.07-2.07-.27-4.14-.5-6.2,0-.18,0-.38-.07-.56a2.3,2.3,0,0,0-.55-1,2.18,2.18,0,0,0-3,0Z" style="fill:#161616"/><path d="M780.33,540.39c-.12,2.39-.17,4.81-.12,7.21a60.09,60.09,0,0,0,.52,7.34,1.64,1.64,0,0,0,.45.75,1.73,1.73,0,0,0,1.2.48,1.78,1.78,0,0,0,1.2-.48,1.92,1.92,0,0,0,.5-1.21c-.13-1.16-.3-2.29-.43-3.43s-.22-2.29-.3-3.45a69.31,69.31,0,0,1-.07-7.21,1.46,1.46,0,0,0-1.48-1.46,1.49,1.49,0,0,0-1.47,1.46Z" style="fill:#161616"/><path d="M801.88,545.2c0,1.42,0,2.85,0,4.27s-.23,2.84-.35,4.25a1.79,1.79,0,0,0,.55,1.34,1.87,1.87,0,0,0,1.32.56,1.93,1.93,0,0,0,1.33-.56,2.4,2.4,0,0,0,.27-.38,1.79,1.79,0,0,0,.28-1c.15-1.41.17-2.82.2-4.25s0-2.85-.05-4.27a1.77,1.77,0,0,0-3.53,0Z" style="fill:#161616"/><path d="M756,544.05a1.55,1.55,0,0,0-.5,1.15c.18,2.22.43,4.47.8,6.69a1.62,1.62,0,0,0,.78,1,1.56,1.56,0,0,0,1.25.15,1.59,1.59,0,0,0,1-.76l.18-.37a1.91,1.91,0,0,0,0-.89c-.13-.75-.23-1.48-.33-2.24-.15-1.19-.27-2.37-.37-3.56a1.74,1.74,0,0,0-.48-1.15,1.6,1.6,0,0,0-1.15-.48,1.57,1.57,0,0,0-1.15.48Z" style="fill:#161616"/><path d="M761.3,543.41c.17,3.28.32,6.56.5,9.81a1.63,1.63,0,0,0,.47,1.14,1.55,1.55,0,0,0,1.1.45,1.6,1.6,0,0,0,1.6-1.59c-.22-3.25-.45-6.53-.65-9.81a1.5,1.5,0,0,0-1.5-1.51,1.52,1.52,0,0,0-1.52,1.51Z" style="fill:#161616"/><path d="M827.23,550.07c.15,6.83.38,13.64.63,20.44l.45,10c.17,3.58.37,7.16.87,10.69a2.69,2.69,0,0,0,.68,1.18,2.64,2.64,0,0,0,1.87.78,2.68,2.68,0,0,0,2.65-2.67c-.2-3.33-.65-6.66-1-10s-.65-6.66-.92-10c-.53-6.8-.83-13.61-1-20.44a2.16,2.16,0,0,0-2.1-2.12,2.13,2.13,0,0,0-2.1,2.12Z" style="fill:#161616"/><path d="M719.87,578.25a2.11,2.11,0,0,0-.63,1.54c.28,2.9.58,5.77.87,8.67.13,1.36.28,2.75.43,4.11a47,47,0,0,0,.65,4.74,2.28,2.28,0,0,0,2.22,1.69,2.3,2.3,0,0,0,2.3-2.32c-.15-1.86-.48-3.7-.75-5.54s-.47-3.46-.72-5.2c-.25-2-.5-4.08-.73-6.15a2.25,2.25,0,0,0-.62-1.54,2.15,2.15,0,0,0-1.5-.63,2.12,2.12,0,0,0-1.52.63Z" style="fill:#161616"/><path d="M849.16,346.18a2.23,2.23,0,0,0-1.37,1.06c-.08.18-.15.38-.23.55a2.18,2.18,0,0,0,0,1.24,355.31,355.31,0,0,0,7.3,36.55A362.9,362.9,0,0,0,865.92,422c.9,2.42,1.82,4.84,2.82,7.23a51.68,51.68,0,0,0,3.32,7.16,2.36,2.36,0,0,0,2.63,1.09,2.39,2.39,0,0,0,1.62-2.9,83.49,83.49,0,0,0-2.9-8.55c-1.07-2.9-2.12-5.82-3.17-8.72q-3.22-9-6.09-18a339,339,0,0,1-9.62-36.8c-1-4.9-1.82-9.79-2.52-14.73a2.37,2.37,0,0,0-2.25-1.71,1.58,1.58,0,0,0-.6.1Z" style="fill:#161616"/><path d="M836.85,437.59a1.85,1.85,0,0,0-.82,1.08,1.82,1.82,0,0,0,.17,1.39c2.12,4.59,4.37,9.1,6.82,13.53s5.27,8.93,8.19,13.21c1.4,2.05,2.85,4,4.32,6,1.6,2.15,3.25,4.26,5,6.28s3.47,3.83,5.32,5.62c.92.89,1.89,1.74,2.89,2.57a24.11,24.11,0,0,0,3.37,2.37,2.35,2.35,0,0,0,2.83-.35,2.39,2.39,0,0,0,.67-1.66,2.47,2.47,0,0,0-.67-1.64,30.52,30.52,0,0,0-2.43-2.52c-.85-.83-1.69-1.62-2.54-2.42-1.8-1.69-3.55-3.41-5.27-5.17s-3.42-3.55-5.05-5.39-3.1-3.66-4.57-5.58a134.18,134.18,0,0,1-8.42-12.65,157.1,157.1,0,0,1-7.36-14,1.71,1.71,0,0,0-1.08-.83,1.45,1.45,0,0,0-.47-.07,1.84,1.84,0,0,0-.9.25Z" style="fill:#161616"/><path d="M925.56,413.66c-2.17,2.63-4.17,5.45-6.14,8.27s-3.75,5.5-5.55,8.3q-5.43,8.28-11.16,16.41-11.46,16.19-23.45,32c-1.93,2.57-3.85,5.12-5.8,7.67a2.35,2.35,0,0,0-.32,1.16,2.3,2.3,0,0,0,.67,1.63,2.25,2.25,0,0,0,1.63.68,2.19,2.19,0,0,0,1.64-.68c8.12-10.58,16.34-21.1,24.33-31.78q6-7.95,11.76-16c3.92-5.37,7.9-10.72,11.44-16.34a83,83,0,0,0,4.75-8.37,2.62,2.62,0,0,0,.32-1.23,2.39,2.39,0,0,0-2.42-2.42,2.35,2.35,0,0,0-1.7.7Z" style="fill:#161616"/><path d="M912,394.18a13.92,13.92,0,0,0-2.75,2.34c-.87.93-1.72,1.89-2.54,2.88-1.7,1.94-3.38,3.88-5.07,5.79-3.43,3.86-6.92,7.62-10.44,11.35-7,7.36-14.12,14.59-21,22.11a2.32,2.32,0,0,0,0,3.22,2.26,2.26,0,0,0,3.2,0c6.84-7.51,14.11-14.57,21.3-21.75,3.62-3.63,7.24-7.26,10.77-11,1.74-1.86,3.49-3.75,5.14-5.7.9-1,1.77-2.16,2.6-3.27a12.84,12.84,0,0,0,2-3.48,2.24,2.24,0,0,0-.55-2.14,2.29,2.29,0,0,0-1.58-.63,2,2,0,0,0-1.07.3Z" style="fill:#161616"/><path d="M913.12,393.93a2.26,2.26,0,0,0-.62,1.56,2.33,2.33,0,0,0,.62,1.54c.75.93,1.48,1.86,2.2,2.82q2.45,3.18,4.7,6.5c1.52,2.3,2.94,4.64,4.32,7a2.4,2.4,0,1,0,4.14-2.44c-1.72-2.93-3.69-5.73-5.69-8.47-2.12-2.9-4.32-5.73-6.59-8.52a2,2,0,0,0-1.53-.63,2.24,2.24,0,0,0-1.55.63Z" style="fill:#161616"/><path d="M913.1,391.83v0s0,0,0,0,0,0,0-.05Zm0-.15s0,.08,0,.1,0-.07,0-.1Zm17.66-43.76a18.48,18.48,0,0,0-7.77,7.91,40,40,0,0,0-2.5,5.7c-.7,2-1.25,4-1.77,6.05-1,4.19-1.8,8.45-2.65,12.68a69.26,69.26,0,0,1-2.82,11c-.13.31-.23.61-.35.91v0a2.07,2.07,0,0,1-.08.2,2.28,2.28,0,0,0,0,1.16,2.23,2.23,0,0,0,1,1.33,2.2,2.2,0,0,0,1.68.21,2,2,0,0,0,1.3-1c2.09-5,3-10.36,4.09-15.63,1.17-5.72,2.32-11.52,4.55-16.94a27.77,27.77,0,0,1,3-5.47,21.82,21.82,0,0,1,2-2.1,3.66,3.66,0,0,1,.1.56,33.2,33.2,0,0,1-.12,7.59c-.53,3.6-1.43,7.11-2.15,10.69a2.2,2.2,0,0,0,1.5,2.67,2.17,2.17,0,0,0,2.67-1.52,77.73,77.73,0,0,0,2.8-12.35,28,28,0,0,0-.88-12.2,2.46,2.46,0,0,0-1.12-1.46,2.38,2.38,0,0,0-1.25-.35,2.33,2.33,0,0,0-1.22.35Z" style="fill:#161616"/><path d="M929.51,370.48a2.22,2.22,0,0,0-.9,1.19,2.14,2.14,0,0,0,.2,1.53c.22.46.42.94.62,1.39a40.27,40.27,0,0,1,2.5,9.35c.15,1.36.27,2.7.35,4.06a2.09,2.09,0,0,0,.6,1.46,2,2,0,0,0,1.42.61,2.05,2.05,0,0,0,2-2.07,40.09,40.09,0,0,0-4.13-16.79,1.88,1.88,0,0,0-1.17-.9,1.57,1.57,0,0,0-.52-.08,2,2,0,0,0-1,.25Z" style="fill:#161616"/><path d="M971,390.14a.39.39,0,0,1,.15,0,.39.39,0,0,0-.15,0Zm9-14.62a56.82,56.82,0,0,0-8.22,1.24c-2.75.6-5.47,1.33-8.19,2.14a106.09,106.09,0,0,0-11.41,4,2,2,0,0,0-.9,2.22,1.94,1.94,0,0,0,2.39,1.36c1.13-.38,2.28-.71,3.43-1.06,2-.61,3.94-1.16,5.91-1.71,2.38-.66,4.77-1.26,7.17-1.82s4.65-1,7-1.31a26,26,0,0,1,6.29-.25,7.09,7.09,0,0,1,1.3.33,2.28,2.28,0,0,1,.3.17s0,0,0,0v0a1.21,1.21,0,0,1,0,.27,3.93,3.93,0,0,1-.28,1c-.05.13-.12.23-.17.36s-.2.17-.28.25a11.32,11.32,0,0,1-1.4.78,30.44,30.44,0,0,1-4.82,1.39c-1.89.42-3.82.73-5.74,1-1.67.28-3.37.53-5,.86-.6.1-1.2.22-1.78.37-1,.28-2,.74-3,1.11-11.18,4.54-21.15,11.47-30.79,18.68l-5.12,3.89a1.79,1.79,0,0,0-.8,1.05,1.58,1.58,0,0,0,.18,1.34,1.74,1.74,0,0,0,1,.83,1.8,1.8,0,0,0,1.35-.17c10.44-7.92,21-15.89,33.12-21.1,1.22-.51,2.47-1,3.72-1.47.62-.2,1.22-.4,1.87-.55,1.27-.28,2.57-.43,3.85-.61h0l.2,0h0l.1,0a88.92,88.92,0,0,0,11.21-1.89,21.8,21.8,0,0,0,2.2-.73,10.11,10.11,0,0,0,2.17-1.11,6.24,6.24,0,0,0,1.75-1.76c.12-.23.25-.48.35-.73a11.21,11.21,0,0,0,.47-1.26,5.29,5.29,0,0,0,0-3.36,5.08,5.08,0,0,0-1-1.71,5,5,0,0,0-1.29-1,10.39,10.39,0,0,0-3.58-1,16.61,16.61,0,0,0-1.87-.1c-.55,0-1.12,0-1.67,0Z" style="fill:#161616"/><path d="M962.8,370.68c-2.77.46-5.54,1.11-8.27,1.82a2,2,0,0,0-.47,3.73,2,2,0,0,0,1.55.2c3.62-.83,7.24-1.71,10.91-2.22a34.9,34.9,0,0,1,8.42-.17,19,19,0,0,1,4.24,1.13,14.56,14.56,0,0,1,2.53,1.46,11.31,11.31,0,0,1,1.77,1.82c.2.25.37.53.55.8a1.79,1.79,0,0,0,3.1-1.81,15.37,15.37,0,0,0-2.88-3.4,13.69,13.69,0,0,0-3.57-2.32,22.24,22.24,0,0,0-8.66-1.84h-1a50.52,50.52,0,0,0-8.22.8Z" style="fill:#161616"/><path d="M962.45,362.84a53.91,53.91,0,0,0-8.94,1.54,38,38,0,0,0-3.92,1.26,4.28,4.28,0,0,1-.43.2,1.65,1.65,0,0,0-.65.66,1.9,1.9,0,0,0-.2,1.41,1.87,1.87,0,0,0,2.25,1.31c1.82-.45,3.62-1,5.45-1.39s4-.85,6-1.13a33.81,33.81,0,0,1,8.59-.18,19.2,19.2,0,0,1,4.19,1.11,13.05,13.05,0,0,1,2.23,1.29,9.36,9.36,0,0,1,1.42,1.46,10.9,10.9,0,0,1,1.07,1.84,12.58,12.58,0,0,1,.65,2.35,1.35,1.35,0,0,0,1.63.93,1.37,1.37,0,0,0,.77-.63,1.33,1.33,0,0,0,.13-1,14.49,14.49,0,0,0-1.4-4.16,11.4,11.4,0,0,0-2.48-3.08,15.2,15.2,0,0,0-7.36-3.42,29.29,29.29,0,0,0-5.6-.48c-1.12,0-2.25,0-3.37.12Z" style="fill:#161616"/><path d="M959.05,356.24a35.69,35.69,0,0,0-5.84.7,46.34,46.34,0,0,0-10.89,3.76,57.3,57.3,0,0,0-9.74,5.9c-.15.13-.33.25-.47.38a2,2,0,0,0-.6,1,2.31,2.31,0,0,0,.22,1.82,2.35,2.35,0,0,0,3.22.85,84,84,0,0,1,12.56-7,39.61,39.61,0,0,1,9.4-2.75,27.06,27.06,0,0,1,6.36,0,23,23,0,0,1,5,1.36,21.91,21.91,0,0,1,4.44,2.65,1.86,1.86,0,0,0,1.6.2,2,2,0,0,0,1.25-1,2.11,2.11,0,0,0,.2-1.61l-.2-.5a2.18,2.18,0,0,0-.75-.76,23.9,23.9,0,0,0-10.26-4.56,27.86,27.86,0,0,0-4.82-.43Z" style="fill:#161616"/><path d="M940.42,372.07a2.12,2.12,0,0,0,0,2.95,42.26,42.26,0,0,1,4.32,4.74,40.42,40.42,0,0,1,2.57,3.86c.85,1.41,1.58,2.87,2.35,4.33a2.1,2.1,0,0,0,2.33,1,2.17,2.17,0,0,0,1.24-1,2,2,0,0,0,.2-1.61,35.38,35.38,0,0,0-4.19-7.51,45.32,45.32,0,0,0-5.9-6.76,2.29,2.29,0,0,0-1.49-.61,2.05,2.05,0,0,0-1.43.61Z" style="fill:#161616"/><path d="M1060.35,309a.72.72,0,0,1,.1.22.72.72,0,0,0-.1-.22Zm2.93-8.55a15.26,15.26,0,0,0-3.6,1.39,7.65,7.65,0,0,0-2.65,2.44,7.53,7.53,0,0,0-.65,1.47,5,5,0,0,0-.17,1.81,7.45,7.45,0,0,0,1.3,3.73,1.78,1.78,0,0,0,2.42.66,1.87,1.87,0,0,0,.82-1.09,1.89,1.89,0,0,0-.17-1.38.24.24,0,0,1,0-.13,6.42,6.42,0,0,1-.43-1.46c0-.23,0-.46,0-.71a3,3,0,0,1,.15-.48,2.46,2.46,0,0,1,.25-.45c.17-.2.37-.38.55-.56a8.2,8.2,0,0,1,1.45-.8,17.23,17.23,0,0,1,1.84-.61,2,2,0,0,0-.55-3.9,1.57,1.57,0,0,0-.49.07Z" style="fill:#161616"/><path d="M1119.37,362.09a2.23,2.23,0,0,0,1.52,2.72,69.37,69.37,0,0,1,7.55,2.62,105.27,105.27,0,0,1,10.93,5.62c1.83,1.09,3.63,2.22,5.42,3.36s3.78,2.39,5.77,3.45a2.45,2.45,0,0,0,2.88-.38,2.54,2.54,0,0,0,.7-1.71,2.39,2.39,0,0,0-.7-1.69,52.64,52.64,0,0,0-7.25-5.07c-2.47-1.46-5-2.82-7.59-4.08a95.54,95.54,0,0,0-16.53-6.38,2.32,2.32,0,0,0-.58-.08,2.2,2.2,0,0,0-2.12,1.62Z" style="fill:#161616"/><path d="M1157.56,415.2c0,.15,0,.3,0,.46a2.49,2.49,0,0,1,0-.46Zm-6.87-39a2.28,2.28,0,0,0-1.37,1.08,2.25,2.25,0,0,0-.23,1.79,135.58,135.58,0,0,1,5.05,17.09c1.44,6.23,2.52,12.53,3.39,18.89a291.51,291.51,0,0,1,2.3,31.94c.22,10.91,0,21.85-.75,32.74q-.82,13-2.52,25.87c-.55,4-1.15,7.94-1.78,11.92-.3,1.92-.62,3.86-.92,5.77-.17,1-.32,2-.5,3s-.27,1.92-.5,2.88a2.51,2.51,0,1,0,4.85,1.33c.22-1,.57-2,.87-3s.6-2.27.88-3.4c.57-2.27,1-4.54,1.49-6.83,1-5,1.73-10.09,2.38-15.15a317.69,317.69,0,0,0,2.37-31.72q.45-16.36-.65-32.77a274.75,274.75,0,0,0-3.9-31.69,164.41,164.41,0,0,0-7.61-28,2.46,2.46,0,0,0-1-1.39,2.25,2.25,0,0,0-1.18-.33,2.51,2.51,0,0,0-.62.08Z" style="fill:#161616"/><path d="M1125.44,421.58a2,2,0,0,0-1.4,2.5,150.1,150.1,0,0,1,6.19,27.32,243.92,243.92,0,0,1,1.65,37.24c-.15,6.25-.5,12.47-.87,18.7s-1,12.5-1.1,18.78a2.77,2.77,0,0,0,2.75,2.77,2.7,2.7,0,0,0,1.94-.8l.43-.56a2.75,2.75,0,0,0,.37-1.41c.75-6.23,1-12.5,1.3-18.78s.4-12.7.38-19.08A264.47,264.47,0,0,0,1134.4,450a159.68,159.68,0,0,0-6.46-27,2.12,2.12,0,0,0-2-1.49,2.22,2.22,0,0,0-.55.08Z" style="fill:#161616"/><path d="M1131.21,527.13a2.17,2.17,0,0,0-1,.6,2.26,2.26,0,0,0-.68,1.62,2.33,2.33,0,0,0,.68,1.61,2.11,2.11,0,0,0,1.6.66,41.92,41.92,0,0,1,10.56-.15,33.87,33.87,0,0,1,8.12,2.29,2.28,2.28,0,0,0,1.32,0,2.51,2.51,0,0,0,1.45-1.13,2.45,2.45,0,0,0,.25-1.92,2.38,2.38,0,0,0-1.12-1.49,29.27,29.27,0,0,0-5.17-1.79,38.6,38.6,0,0,0-5.37-.78,29.5,29.5,0,0,0-2.95-.13,56.66,56.66,0,0,0-7.69.61Z" style="fill:#161616"/><path d="M1128.79,528.72c-.18.12-.33.25-.5.38a2.68,2.68,0,0,0-.65,1.1,1.89,1.89,0,0,1-.13.33c-1.12,2.62-2.47,5.15-3.77,7.69a89.78,89.78,0,0,0-4.22,9.2,28.38,28.38,0,0,0-2,9.3,16.83,16.83,0,0,0,.58,4.74,17.17,17.17,0,0,0,.87,2.27,11.73,11.73,0,0,0,1.25,2l.4.51a2.25,2.25,0,0,0,1.07.63,2.21,2.21,0,0,0,1.3,0,2.29,2.29,0,0,0,1.1-.63,26.88,26.88,0,0,0,2.65-2.37,26.22,26.22,0,0,0,2.74-3.3,21.78,21.78,0,0,0,3.6-7.54,2,2,0,0,0-.87-2.19,1.95,1.95,0,0,0-2.63.7,33.31,33.31,0,0,1-3.62,6.15,25.61,25.61,0,0,1-2.79,3,16,16,0,0,1-.5-2,16.35,16.35,0,0,1,.05-3.7,33.72,33.72,0,0,1,2.29-7.79c1.18-2.73,2.5-5.37,3.85-8s2.57-5.05,3.62-7.67a2.47,2.47,0,0,0-1.75-3.07,1.74,1.74,0,0,0-.65-.11,2.41,2.41,0,0,0-1.24.36Z" style="fill:#161616"/><path d="M1125.39,559.6a1.89,1.89,0,0,0-.55,1.33c0,.33,0,.66-.1,1-.4,2.85-1,5.67-1.35,8.49a55.68,55.68,0,0,0-.8,10.69c.05.83.15,1.64.28,2.45a7.87,7.87,0,0,0,.5,1.81c.15.38.3.73.47,1.09a9.64,9.64,0,0,0,.67.93,3.63,3.63,0,0,0,.48.48,5.34,5.34,0,0,0,1,.68,5.93,5.93,0,0,0,2.25.53,5.6,5.6,0,0,0,2.32-.58,4.56,4.56,0,0,0,.57-.35c.33-.26.65-.51.95-.79a8,8,0,0,0,1.35-1.76,17.09,17.09,0,0,0,1.32-2.72,26.37,26.37,0,0,0,1-2.8,56,56,0,0,0,1.35-6.4c.33-2.15.58-4.29.73-6.46,0-.81.1-1.61.12-2.42,0-.6,0-1.21,0-1.81a1.88,1.88,0,0,0-1.85-1.89,1.86,1.86,0,0,0-1.32.55,2,2,0,0,0-.55,1.34.74.74,0,0,1,0,.25c-.42,2.7-.74,5.37-1.19,8.07a48.86,48.86,0,0,1-2.55,10.08,12.41,12.41,0,0,1-1.23,2.27,4.61,4.61,0,0,1-.62.63,1,1,0,0,1-.27.17.32.32,0,0,1-.18,0h-.2a.88.88,0,0,1-.15,0l-.07,0a1,1,0,0,0-.15-.18,4.48,4.48,0,0,1-.35-.6,12.63,12.63,0,0,1-.53-2.14,34.92,34.92,0,0,1-.07-5.6c.12-2.12.37-4.21.65-6.3.22-1.64.47-3.26.75-4.89.17-1.26.4-2.52.5-3.79a1.87,1.87,0,0,0-1.85-1.86,1.83,1.83,0,0,0-1.3.53Z" style="fill:#161616"/><path d="M1142.25,561.51a2.26,2.26,0,0,0-.6,1.52c-.1,1.48-.18,3-.38,4.48a29.75,29.75,0,0,1-1.85,7.06,20.58,20.58,0,0,1-2.42,4.29,19,19,0,0,1-2.75,2.77,16.8,16.8,0,0,1-3.14,1.87l-.88.32a2.19,2.19,0,0,0-1.47,2.63,2.13,2.13,0,0,0,2.6,1.48,22,22,0,0,0,3.64-1.64,18.34,18.34,0,0,0,3.13-2.29,18.06,18.06,0,0,0,2.42-2.6,22.67,22.67,0,0,0,2.12-3.25,25.26,25.26,0,0,0,2.62-7.16,27.1,27.1,0,0,0,.58-4,18,18,0,0,0,0-4c0-.2,0-.38-.08-.58a2.29,2.29,0,0,0-.52-.94,2.14,2.14,0,0,0-3,0Z" style="fill:#161616"/><path d="M1149,563.73c-.42,2-.72,4.06-1.17,6.08a37.11,37.11,0,0,1-1.73,5.67,21.44,21.44,0,0,1-2,3.63,13.8,13.8,0,0,1-2,2,14,14,0,0,1-1.95,1.14,10.23,10.23,0,0,1-1.22.4,2.36,2.36,0,0,0-1.6,2.85,2.28,2.28,0,0,0,2.79,1.59,16.58,16.58,0,0,0,3.25-1.26,14.61,14.61,0,0,0,3-2.12,17.85,17.85,0,0,0,2.27-2.57,20.43,20.43,0,0,0,1.77-2.9,28.75,28.75,0,0,0,2.4-6.81,30.42,30.42,0,0,0,.63-3.68,21.88,21.88,0,0,0,.22-3.43,2.38,2.38,0,0,0-1.7-2.29,2.47,2.47,0,0,0-.6-.08,2.29,2.29,0,0,0-2.27,1.74Z" style="fill:#161616"/><path d="M1153,527.53a2,2,0,0,0-1.1.89,1.8,1.8,0,0,0-.2,1.43,22.3,22.3,0,0,1,.6,2.27c.2.86.43,1.69.65,2.52.53,2,1,3.91,1.5,5.88,1,4.28,2,8.59,2.55,12.93a55.78,55.78,0,0,1,.27,13.66,28.32,28.32,0,0,1-1.57,6.18,20.49,20.49,0,0,1-2,3.4,14.5,14.5,0,0,1-2.17,2.19,16.47,16.47,0,0,1-2.82,1.67c-.5.2-1,.38-1.55.53a2.38,2.38,0,0,0-1.63,2.87,2.34,2.34,0,0,0,2.85,1.61,18.56,18.56,0,0,0,5-2.29,16.58,16.58,0,0,0,3.79-3.45,19.17,19.17,0,0,0,2.7-4.44,27.69,27.69,0,0,0,1.7-5.22,45.42,45.42,0,0,0,.8-11.57,80.83,80.83,0,0,0-1.55-12.23,83.51,83.51,0,0,0-2.5-9.63,61.64,61.64,0,0,0-3.05-7.81.12.12,0,0,1,0-.08,2.19,2.19,0,0,0-.85-1.11,1.9,1.9,0,0,0-1-.25,4.45,4.45,0,0,0-.5,0Z" style="fill:#161616"/><path d="M1051.69,388.61a75.89,75.89,0,0,0-7.82,17.87,72.33,72.33,0,0,0-2.62,17.62,95.82,95.82,0,0,0,1.32,17.5,161.88,161.88,0,0,0,3.82,17.31c1.53,5.68,3.22,11.27,4.9,16.89.85,2.88,1.72,5.78,2.52,8.68a68.74,68.74,0,0,1,1.87,9,78.79,78.79,0,0,1-.15,19.59,178.84,178.84,0,0,1-4.62,21.45c-1,3.63-1.92,7.26-2.84,10.92-1,3.9-1.88,7.81-2.6,11.77a2.23,2.23,0,0,0,.2,1.66,2.15,2.15,0,0,0,1.3,1,2.19,2.19,0,0,0,2.67-1.51c1.5-6,3.27-12,5-17.95,1.67-5.7,3.32-11.42,4.59-17.22a99.12,99.12,0,0,0,2.43-17.74,71.32,71.32,0,0,0-1.73-18.61c-.47-2.17-1.1-4.31-1.77-6.43s-1.32-4.26-2-6.38c-1.33-4.2-2.68-8.39-4-12.63a167.23,167.23,0,0,1-5.72-24.45,80.14,80.14,0,0,1-.17-20.47,67.26,67.26,0,0,1,4.42-16.31,76.12,76.12,0,0,1,4.77-9.35,2.27,2.27,0,0,0-.8-3.05,2.22,2.22,0,0,0-1.1-.3,2.25,2.25,0,0,0-1.92,1.11Z" style="fill:#161616"/><path d="M1047.34,559.17a2,2,0,0,0-1.37.56,1.94,1.94,0,0,0-.58,1.38,1.88,1.88,0,0,0,.58,1.39,1.76,1.76,0,0,0,1.37.58c7.79-.66,15.59.38,23.3,1.43l-.65-.1c1.83.26,3.65.48,5.47.68a43,43,0,0,0,5.17.38,2.24,2.24,0,0,0,2.2-1.66,2.32,2.32,0,0,0-1.6-2.85c-1.37-.28-2.77-.48-4.17-.68s-3-.38-4.42-.53c-2.8-.3-5.62-.53-8.44-.73-2.57-.18-5.17-.28-7.77-.28-3,0-6.07.15-9.09.43Z" style="fill:#161616"/><path d="M1082,535.85a2,2,0,0,0-.92,1.21c-.38,2.15-.63,4.34-.88,6.53s-.45,4.31-.6,6.48c-.35,4.44-.55,8.87-.62,13.34a2.19,2.19,0,0,0,2.15,2.16,2.16,2.16,0,0,0,2.12-2.16c0-4.32.23-8.65.5-13,.12-1.72.25-3.41.4-5.12.77,2.19,1.42,4.41,2,6.66,1,3.58,1.87,7.21,2.72,10.81a2,2,0,1,0,3.77-1c-1.17-4.29-2.15-8.6-3.37-12.83q-.93-3.18-2-6.28c-.77-2.07-1.67-4.09-2.57-6.08a2,2,0,0,0-.7-.73,2.16,2.16,0,0,0-1-.28,2,2,0,0,0-1,.28Z" style="fill:#161616"/><path d="M1116.72,560.63c-1.77.23-3.52.66-5.29,1-1.58.33-3.15.63-4.75.86a53.66,53.66,0,0,1-13.46,0c-.55-.08-1.07-.15-1.6-.25a1.83,1.83,0,0,0-2.2,1.28,1.71,1.71,0,0,0,.18,1.39,1.69,1.69,0,0,0,1.07.83,59.68,59.68,0,0,0,13.34.86,57.28,57.28,0,0,0,6.79-.73,26.19,26.19,0,0,0,6.85-1.92,1.72,1.72,0,0,0,.62-.66,1.66,1.66,0,0,0,.18-1.38,1.61,1.61,0,0,0-.45-.78,1.71,1.71,0,0,0-1.15-.56Z" style="fill:#161616"/><path d="M1084.28,356.67c-6.79,2.69-13.84,4.76-20.83,6.88-3.45,1-6.87,2.14-10.19,3.5-1.85.76-3.67,1.57-5.44,2.5a28.74,28.74,0,0,0-4.87,3.15,2.51,2.51,0,0,0-.4,3.13,2.56,2.56,0,0,0,.89.9,2.48,2.48,0,0,0,2,.28c2.87-1.06,5.67-2.39,8.46-3.65s5.37-2.4,8.1-3.56c3.82-1.61,7.69-3.18,11.61-4.64s7.87-3,11.76-4.54a2.26,2.26,0,0,0,1.23-.93,2.09,2.09,0,0,0-.73-2.82,2.53,2.53,0,0,0-1.07-.28,1.59,1.59,0,0,0-.5.08Z" style="fill:#161616"/><path d="M1042.8,374.09a1.74,1.74,0,0,0-.85,1.11q-3.08,19.8-5.27,39.72-2.17,20.13-3.67,40.29c-.5,6.6-.85,13.21-1.18,19.81s-.6,13.21-.8,19.79-.3,13.14-.22,19.69.27,13,.77,19.54a2.28,2.28,0,0,0,.6,1.51,2.15,2.15,0,0,0,1.5.63,2.11,2.11,0,0,0,1.5-.63,2.3,2.3,0,0,0,.62-1.51c.75-13.31.85-26.67,1-40s.6-26.95,1.22-40.42c.52-10.89,1.2-21.78,2.12-32.67s2.13-21.55,3.55-32.26q.83-6.24,1.8-12.48a2.13,2.13,0,0,0-.2-1.44,2.06,2.06,0,0,0-1.1-.86,3.91,3.91,0,0,0-.48-.05,1.81,1.81,0,0,0-.94.26Z" style="fill:#161616"/><path d="M1032.68,534.92a1.85,1.85,0,0,0,1.25,2.24c2.45.61,4.92,1.11,7.39,1.52,1.25.2,2.47.35,3.72.5a29.38,29.38,0,0,0,4,.18,1.91,1.91,0,0,0,1.85-1.89,1.86,1.86,0,0,0-.52-1.34,4.63,4.63,0,0,1-.4-.3,1.7,1.7,0,0,0-.93-.26c-1.32-.15-2.64-.22-4-.32s-2.67-.23-4-.41a53.47,53.47,0,0,1-6.15-1.21,3.75,3.75,0,0,0-.47,0,1.8,1.8,0,0,0-1.75,1.34Z" style="fill:#161616"/><path d="M1031,535.27a85.11,85.11,0,0,0-4,8.75,64.24,64.24,0,0,0-3,9.76,39.66,39.66,0,0,0-.95,10.13,21.51,21.51,0,0,0,2.35,9.33,2.36,2.36,0,0,0,1.42,1.08,2.16,2.16,0,0,0,1.82-.23,15.27,15.27,0,0,0,3.13-2.87,17.81,17.81,0,0,0,2.37-3.91,21.2,21.2,0,0,0,1.47-4.46,20.68,20.68,0,0,0,.48-4.76,1.84,1.84,0,0,0-1.3-1.74,1.87,1.87,0,0,0-1.38.17,1.83,1.83,0,0,0-.82,1.09A37.91,37.91,0,0,1,1031,564a19.14,19.14,0,0,1-1.9,3.32c-.2.23-.38.46-.58.68a23.2,23.2,0,0,1-.62-2.84,33.15,33.15,0,0,1,.13-7.9,61.82,61.82,0,0,1,4.14-14.57c.78-1.79,1.62-3.58,2.55-5.29a2.19,2.19,0,0,0-.78-2.92,1.83,1.83,0,0,0-1-.28,2,2,0,0,0-1.83,1Z" style="fill:#161616"/><path d="M1041.75,549.06a1.69,1.69,0,0,0-1.1.86,31.83,31.83,0,0,1-2.9,4.91,26.86,26.86,0,0,1-3.1,3.21,1.92,1.92,0,0,0,0,2.69,1.84,1.84,0,0,0,1.35.58,1.92,1.92,0,0,0,1.35-.58,23.6,23.6,0,0,0,2-1.89c.67-.7,1.27-1.48,1.87-2.24a20.83,20.83,0,0,0,2.8-5.27,1.9,1.9,0,0,0-.85-2.09,2.14,2.14,0,0,0-1-.25,1.53,1.53,0,0,0-.47.07Z" style="fill:#161616"/><path d="M1037.18,565a1.62,1.62,0,0,0-.5,1.19,49.73,49.73,0,0,1,.2,11.24,16.89,16.89,0,0,1-.8,3.28,6.41,6.41,0,0,1-.45.81c-.05.05-.08.1-.13.12a.1.1,0,0,1-.07,0,2.13,2.13,0,0,1-.45-.45,8.43,8.43,0,0,1-1-1.79,29.29,29.29,0,0,1-1.67-6.88c-.22-1.62-.35-3.21-.42-4.82a1.5,1.5,0,0,0-1.48-1.49,1.53,1.53,0,0,0-1.5,1.49,63.66,63.66,0,0,0,.63,6.58,31.41,31.41,0,0,0,1,4.79,15,15,0,0,0,1.43,3.43,5.85,5.85,0,0,0,1.92,2.09,3.19,3.19,0,0,0,2.57.33,4.5,4.5,0,0,0,2.2-1.89,10.12,10.12,0,0,0,.67-1.41,9.13,9.13,0,0,0,.5-1.62,28.42,28.42,0,0,0,.6-4.59,51.27,51.27,0,0,0-.47-9.17,2.1,2.1,0,0,1,0-.43,1.9,1.9,0,0,0-.45-.76,1.67,1.67,0,0,0-2.32,0Z" style="fill:#161616"/><path d="M1041.67,566.71a45,45,0,0,1,0,8,16.46,16.46,0,0,1-.85,3.35,10.78,10.78,0,0,1-1.07,1.87,9.47,9.47,0,0,1-1.3,1.31c-.18.12-.35.25-.52.35a1.9,1.9,0,0,0-.65,2.57,1.85,1.85,0,0,0,2.52.68,12,12,0,0,0,2-1.53,12.16,12.16,0,0,0,1.57-1.87,10.09,10.09,0,0,0,1-1.94,16.1,16.1,0,0,0,.87-2.62,21.71,21.71,0,0,0,.5-5.27,31.15,31.15,0,0,0-.52-5.45,2,2,0,0,0-.48-.83,1.86,1.86,0,0,0-1.32-.55,1.89,1.89,0,0,0-1.85,1.89Z" style="fill:#161616"/><path d="M1047.32,566.71a1.89,1.89,0,0,0-1.13.86A2,2,0,0,0,1046,569c0,.32.1.68.15,1a19,19,0,0,1,.07,4.46,13.29,13.29,0,0,1-.8,3,15.46,15.46,0,0,1-1.37,2.4,14.27,14.27,0,0,1-1.92,1.89.12.12,0,0,0-.05,0c-.13.1-.25.2-.4.3a2,2,0,0,0,2.39,3.13,18,18,0,0,0,2-1.64,16.84,16.84,0,0,0,1.6-1.89,13.3,13.3,0,0,0,2.07-4.14,15.29,15.29,0,0,0,.68-4.66,17,17,0,0,0-.23-2.57,12.48,12.48,0,0,0-.57-2.32,1.94,1.94,0,0,0-.85-1.14,2,2,0,0,0-1-.25,1.55,1.55,0,0,0-.47.08Z" style="fill:#161616"/><path d="M1037.63,563.66a1.34,1.34,0,0,0-.63.8,1.29,1.29,0,0,0,.15,1,1.19,1.19,0,0,0,.78.6,27.35,27.35,0,0,0,6.76.38,1.45,1.45,0,0,0,.93-.38,1.43,1.43,0,0,0,.37-.93,1.33,1.33,0,0,0-1.3-1.31,37.74,37.74,0,0,1-5.52-.28l-.52-.07c-.15,0-.28,0-.4,0a1.09,1.09,0,0,0-.62.18Z" style="fill:#161616"/><path d="M1048.49,560a2.14,2.14,0,0,0-.6,1.46,107.35,107.35,0,0,0,.23,17.29c.24,2.93.59,5.88,1,8.8.2,1.39.45,2.8.75,4.18a28.53,28.53,0,0,0,1.2,4.37,2,2,0,0,0,.6,1,2.21,2.21,0,0,0,3.19,0,2.19,2.19,0,0,0,.68-1.61,77.7,77.7,0,0,0-1.4-8.55c-.53-2.82-1.05-5.62-1.45-8.46a88.09,88.09,0,0,1-.72-17,2,2,0,0,0-3.5-1.46Z" style="fill:#161616"/><path d="M1153.81,577a2.23,2.23,0,0,0-1.3,1,2.08,2.08,0,0,0-.22,1.72c.42,1.08.82,2.16,1.17,3.27s.73,2.47,1,3.73c.6,2.37,1.15,4.79,1.93,7.11a2.51,2.51,0,0,0,2.37,1.84,2.48,2.48,0,0,0,1.75-.73,2.34,2.34,0,0,0,.72-1.76,31.2,31.2,0,0,0-1.87-7.82c-.47-1.28-1-2.54-1.55-3.8s-1-2.37-1.52-3.56a2.3,2.3,0,0,0-.8-.81,2.17,2.17,0,0,0-1.1-.3,2.47,2.47,0,0,0-.6.08Z" style="fill:#161616"/><path d="M1118.52,425.49a.44.44,0,0,1,.1.15.44.44,0,0,0-.1-.15Zm-4-4.09a1,1,0,0,0-.35,1.36,79.24,79.24,0,0,0,7,9.23c1.27,1.44,2.6,2.82,3.94,4.19s2.78,2.67,4.27,3.88a1.26,1.26,0,0,0,.78.33,1.09,1.09,0,0,0,.77-.33,1.15,1.15,0,0,0,0-1.59c-1.1-1-2.22-2-3.29-3s-2.18-2-3.2-3.12a74.25,74.25,0,0,1-5.82-6.68q-1.45-1.89-2.8-3.93a1,1,0,0,0-.85-.48.94.94,0,0,0-.5.12Z" style="fill:#161616"/><path d="M1112.88,428.84a1.12,1.12,0,0,0-.38,1.51c3.92,6.48,9.37,11.78,15,16.77a1.35,1.35,0,0,0,.9.37,1.16,1.16,0,0,0,.89-.37,1.25,1.25,0,0,0,.38-.91,1.21,1.21,0,0,0-.38-.91c-2.22-1.89-4.42-3.8-6.51-5.85a65,65,0,0,1-5.87-6.55c-.9-1.19-1.73-2.4-2.5-3.66a1.18,1.18,0,0,0-1-.55,1.11,1.11,0,0,0-.55.15Z" style="fill:#161616"/><path d="M794.47,219.53l.17.05-.17-.05Zm31.94-4.89a1.6,1.6,0,0,0-1,.63,1.65,1.65,0,0,0-.27,1.24,1.55,1.55,0,0,0,.62,1,51.38,51.38,0,0,1,9.37,7.06,93.14,93.14,0,0,1,7.21,7.79c.53.61,1,1.21,1.53,1.82-1.55-.73-3.1-1.47-4.65-2.17q-6-2.69-12.06-5.12a223.63,223.63,0,0,0-24.9-8.17q-9.15-2.37-18.51-3.85a154.5,154.5,0,0,0-19.08-1.79,1.21,1.21,0,0,0-1.32,1.11,1.22,1.22,0,0,0,1.1,1.33,156.76,156.76,0,0,1,30.37,4.09c16.88,4,33.11,10.51,48.62,18.27,2.1,1.06,4.22,2.12,6.3,3.23a1.8,1.8,0,0,0,1,.1,1.85,1.85,0,0,0,1.07-3c-1.67-2.16-3.39-4.28-5.14-6.4s-3.77-4.43-5.79-6.55a70.64,70.64,0,0,0-6.35-5.9,39.51,39.51,0,0,0-7.24-4.66,2.26,2.26,0,0,0-.43-.11,2.13,2.13,0,0,0-.42,0Z" style="fill:#161616"/><path d="M858.85,222l.18.08-.18-.08Zm-27.2-5.37h0Zm-2.42-24.7a1.8,1.8,0,0,0-.72,3.25c1.75,1.23,3.52,2.42,5.27,3.63s3.59,2.54,5.37,3.86a115.25,115.25,0,0,1,9.71,8.06c1.78,1.67,3.47,3.41,5.12,5.2.2.25.43.5.65.73l-1.55-.46a72.25,72.25,0,0,0-8.91-1.86,67.17,67.17,0,0,0-17.69-.18A1.46,1.46,0,0,0,827,217c1.58-.2,3.18-.32,4.77-.4a63.78,63.78,0,0,1,16.34,1.51,46.67,46.67,0,0,1,11,4l.2.12a1.82,1.82,0,0,0,2.22-.07,1.66,1.66,0,0,0,.55-.76,1.81,1.81,0,0,0-.05-1.44,45.56,45.56,0,0,0-3.27-4.43q-1.65-2-3.44-4a90.59,90.59,0,0,0-7.62-7.31,97.47,97.47,0,0,0-8.19-6.35,102.33,102.33,0,0,0-8.89-5.7l-.43-.23a3.25,3.25,0,0,0-.47-.1,1.61,1.61,0,0,0-.48,0" style="fill:#161616"/><path d="M829.58,188.4a.23.23,0,0,0-.12.12Zm16.19-35a2.29,2.29,0,0,0-1.35.85c-.53.63-1,1.26-1.6,1.87a60.35,60.35,0,0,1-6.07,5.57,80.82,80.82,0,0,1-7.42,5.32A124.08,124.08,0,0,1,814,175.26c-2.78,1.26-5.62,2.42-8.47,3.51s-5.74,2.11-8.67,3a127.34,127.34,0,0,1-15,3.8,97.53,97.53,0,0,1-14.13,1.72,56.27,56.27,0,0,1-11.44-.66,1.2,1.2,0,0,0-1.3,1.09,1.24,1.24,0,0,0,.28.88,1.23,1.23,0,0,0,.79.45,68.47,68.47,0,0,0,17.86.36,126.15,126.15,0,0,0,20.46-3.86c3.57-1,7.14-2,10.64-3.23s6.84-2.54,10.19-4a124.25,124.25,0,0,0,18.6-9.83,76.48,76.48,0,0,0,7.72-5.59c.35-.31.72-.61,1.07-.91a77.37,77.37,0,0,1-6.27,16.69,49,49,0,0,1-6.66,9.58,23,23,0,0,1-3.13,2.87,1.72,1.72,0,0,0,2.18,2.65c.67-.51,1.35-1,2-1.52s1.29-1.08,1.89-1.68a33,33,0,0,0,3.77-4.24,51.46,51.46,0,0,0,5.7-9.76,72,72,0,0,0,3.82-10.41,87.25,87.25,0,0,0,2.37-10.48,2.07,2.07,0,0,0-.17-1.11,2.28,2.28,0,0,0-1.18-1.11,2.35,2.35,0,0,0-.57-.13,1.6,1.6,0,0,0-.57,0Z" style="fill:#161616"/><path d="M739,194.45l-.07.07.07-.07Zm10.69-7.16a26,26,0,0,0-8.34,2.24,15.34,15.34,0,0,0-7.54,7.39,16.12,16.12,0,0,0-1.2,3.05,25.92,25.92,0,0,0-1,7.23,52.88,52.88,0,0,0,2.65,16.06,95,95,0,0,0,6.21,15.4c.58,1.11,1.18,2.22,1.83,3.28a32,32,0,0,0,2,3.15,1.74,1.74,0,0,0,2.09.48,1.77,1.77,0,0,0,.88-1,1.87,1.87,0,0,0,0-1.36c-.63-1.74-1.43-3.41-2.2-5.1-.9-1.91-1.77-3.8-2.65-5.72a120,120,0,0,1-4.92-12.63,53,53,0,0,1-2.52-12.6,26.18,26.18,0,0,1,.5-6.05,17.25,17.25,0,0,1,1.35-3.76,14.7,14.7,0,0,1,2-2.75,14.44,14.44,0,0,1,2.5-2.09,18.88,18.88,0,0,1,4-1.81,26.58,26.58,0,0,1,4.8-1,1.22,1.22,0,0,0,1-1.43,1.19,1.19,0,0,0-1.12-1,.51.51,0,0,0-.3,0Z" style="fill:#161616"/><path d="M762.82,215.4c-.42,6.5-1.12,13-1.75,19.46-.32,3.27-.6,6.55-.82,9.83-.12,1.59-.22,3.2-.27,4.79,0,.93,0,1.86,0,2.8a12.9,12.9,0,0,0,.25,2.49,1.68,1.68,0,0,0,1.49,1.39,1.59,1.59,0,0,0,1.23-.38,1.82,1.82,0,0,0,.6-1.13,16.66,16.66,0,0,0,.17-2.25c.05-.85.05-1.71.05-2.54,0-1.62-.05-3.23-.07-4.84,0-3.31.07-6.61.2-9.91.22-6.5.67-13,1.07-19.51a1.1,1.1,0,0,0-2.2-.2Z" style="fill:#161616"/><path d="M746.09,250.31a.69.69,0,0,0-.05.13.69.69,0,0,1,.05-.13Zm1.62-5.72a10.86,10.86,0,0,0-3.77,3.7,18.71,18.71,0,0,0-2.45,12.23,20.11,20.11,0,0,0,2.1,6.61,20.38,20.38,0,0,0,5.07,6,19,19,0,0,0,3.07,2.07c.13.08.25.13.38.2a1.7,1.7,0,0,0,.87.08,1.6,1.6,0,0,0,1-.66,1.63,1.63,0,0,0,.28-1.26,1.5,1.5,0,0,0-.35-.78,1.81,1.81,0,0,0-.65-.48,17.17,17.17,0,0,1-6.57-6,18.81,18.81,0,0,1-1.67-3.65,17.62,17.62,0,0,1-.75-4.34,19.68,19.68,0,0,1,.4-4.38,16.41,16.41,0,0,1,1.27-3.43,13,13,0,0,1,1.5-2.2,9.63,9.63,0,0,1,1.35-1.13,6.05,6.05,0,0,1,1.2-.58,5.68,5.68,0,0,1,1.14-.2,5,5,0,0,1,2.65.68,11,11,0,0,1,1.87,1.36,20,20,0,0,1,2.7,3.4,30.37,30.37,0,0,1,1.68,3,1.37,1.37,0,0,0,1.82.68,1.42,1.42,0,0,0,.65-1.84,33.25,33.25,0,0,0-2.4-4.18,15.76,15.76,0,0,0-2.35-2.87,11.81,11.81,0,0,0-2.49-2,13.77,13.77,0,0,0-1.35-.63,10.14,10.14,0,0,0-1.45-.4l-.58-.08a7.45,7.45,0,0,0-4.22,1Z" style="fill:#161616"/><path d="M839.62,290.82v0Zm0-.48c0,.13,0,.25,0,.41,0-.16,0-.28,0-.41Zm-5.4-59.16a1.48,1.48,0,0,0-.9.58,1.64,1.64,0,0,0-.25,1.06c.55,4.81,1.13,9.6,1.83,14.39S836.3,257,837,261.88s1.17,9.56,1.62,14.37.85,9.66,1,14.5c.08,2,.13,3.95.18,5.92,0,1.06.05,2.12.1,3.18a29,29,0,0,0,.2,3.37,1.8,1.8,0,0,0,1.59,1.47,1.56,1.56,0,0,0,.9-.16,1.69,1.69,0,0,0,.93-1,22.9,22.9,0,0,0,.67-3.93c.13-1.36.2-2.72.25-4.11.1-2.72,0-5.47-.15-8.19a139.36,139.36,0,0,0-1.8-15.58c-.85-5.17-1.84-10.34-2.82-15.48s-1.85-10.34-2.67-15.5c-.45-2.8-.85-5.63-1.17-8.42a1.42,1.42,0,0,0-1.28-1.19,1.5,1.5,0,0,0-.35,0Z" style="fill:#161616"/><path d="M789.9,307.64l.12,0-.12,0Zm39.08-2a.53.53,0,0,1-.2.05.53.53,0,0,0,.2-.05ZM757.1,275.29a1.61,1.61,0,0,0-1,.66,2,2,0,0,0-.2.38,1.67,1.67,0,0,0-.1.85,41.31,41.31,0,0,0,.57,5,37,37,0,0,0,1.3,4.86,34.31,34.31,0,0,0,4.15,8.22,33.44,33.44,0,0,0,5.89,6.56,40.29,40.29,0,0,0,7.3,4.89,44.24,44.24,0,0,0,7.89,3.25,64.14,64.14,0,0,0,8.91,2,76,76,0,0,0,18.51.43,82.16,82.16,0,0,0,16.23-3.08,77.68,77.68,0,0,0,14.67-5.89,1.37,1.37,0,0,0,.62-1.77,1.27,1.27,0,0,0-1.72-.63A68.89,68.89,0,0,1,829,305.67a82,82,0,0,1-20.63,3.63,70.23,70.23,0,0,1-18.13-1.59,50.53,50.53,0,0,1-11.86-4.41,41.67,41.67,0,0,1-8.17-5.82,38.82,38.82,0,0,1-5.77-7,44.69,44.69,0,0,1-2.32-4.39,46.22,46.22,0,0,1-2-5.22c-.43-1.41-.8-2.84-1.13-4.31a1.66,1.66,0,0,0-1.45-1.33,1.36,1.36,0,0,0-.45,0" style="fill:#161616"/><path d="M774.89,229.21l-.15.15.15-.15Zm3.82-3.2s-.05,0-.05.05,0,0,.05-.05Zm10.86-5.09a20.67,20.67,0,0,0-6.32.45,17.5,17.5,0,0,0-5.39,2.29,27.57,27.57,0,0,0-8.54,9,1.2,1.2,0,0,0,.27,1.66,1.18,1.18,0,0,0,1.65-.25,32.46,32.46,0,0,1,3.45-4.64,22.29,22.29,0,0,1,3.89-3.3,14.55,14.55,0,0,1,7.47-2.42,17.63,17.63,0,0,1,3.25.2,1.49,1.49,0,0,0,.3-3Z" style="fill:#161616"/><path d="M773.89,251.27l0,0Zm16.85-11.45a23.93,23.93,0,0,0-3.79.46,25.13,25.13,0,0,0-3.65,1.08,29.4,29.4,0,0,0-6.62,3.58,32.48,32.48,0,0,0-5.47,4.87,1.5,1.5,0,0,0-.25,1.13,1.56,1.56,0,0,0,.6,1,1.46,1.46,0,0,0,1.13.25,1.57,1.57,0,0,0,.92-.6l.08-.08a28.68,28.68,0,0,1,5.19-4.34,26.29,26.29,0,0,1,5.8-2.74,20.48,20.48,0,0,1,4.94-.91,17.36,17.36,0,0,1,4,.35,15.86,15.86,0,0,1,3,1.11,1.87,1.87,0,0,0,1.52-.05,2.05,2.05,0,0,0,1-1.11,1.92,1.92,0,0,0-.05-1.54,2,2,0,0,0-1.07-1,16.72,16.72,0,0,0-5.17-1.34c-.7-.05-1.4-.08-2.08-.08Z" style="fill:#161616"/><path d="M785.28,247a4.37,4.37,0,1,0,4.74-4,4.44,4.44,0,0,0-4.74,4Z" style="fill:#161616"/><path d="M820.92,237.93a15.11,15.11,0,0,0-9.5,3.89,1.09,1.09,0,0,0-.12,1.48,1,1,0,0,0,1.45.13,12.67,12.67,0,0,1,1.75-1.34,13.15,13.15,0,0,1,2.79-1.31,13.57,13.57,0,0,1,3.45-.6,14.75,14.75,0,0,1,3.8.35,16.11,16.11,0,0,1,3.49,1.34,11.22,11.22,0,0,1,1.43.88,1.3,1.3,0,0,0,1.84-.3,1.34,1.34,0,0,0,.23-1,1.32,1.32,0,0,0-.52-.86,18.21,18.21,0,0,0-4.83-2.07,18.66,18.66,0,0,0-2.84-.53,21.62,21.62,0,0,0-2.42,0Z" style="fill:#161616"/><path d="M819.57,243.28a4.37,4.37,0,1,0,4.74-4,4.4,4.4,0,0,0-4.74,4Z" style="fill:#161616"/><path d="M820.87,236.34a15.65,15.65,0,0,0-5.42,1.47,17.49,17.49,0,0,0-2.45,1.41,18.62,18.62,0,0,0-2.4,1.84,1.63,1.63,0,0,0-.2,2.22,1.57,1.57,0,0,0,2.22.2,19.78,19.78,0,0,1,2-1.54,15,15,0,0,1,3-1.39,14.57,14.57,0,0,1,3.4-.63,16.94,16.94,0,0,1,3.2.31,20.07,20.07,0,0,1,4,1.61l1.55.86a1.58,1.58,0,0,0,.83.07,1.51,1.51,0,0,0,1-.63,1.64,1.64,0,0,0-.07-1.94,11,11,0,0,0-4.82-3.17,13.74,13.74,0,0,0-2.77-.63l-.43-.06a18.65,18.65,0,0,0-2.59,0Z" style="fill:#161616"/><path d="M807.88,252.91a18.73,18.73,0,0,0,.65,5.82,17.94,17.94,0,0,0,1,2.77,21.46,21.46,0,0,0,1.42,2.57,19.75,19.75,0,0,0,3.77,4.34,16,16,0,0,0,2.27,1.64,9.52,9.52,0,0,0,3.1,1.28,1.22,1.22,0,0,0,1.3-.8,1.27,1.27,0,0,0-.45-1.46,12.24,12.24,0,0,0-1.5-.91c-.52-.3-1-.61-1.52-.93a20.53,20.53,0,0,1-2.75-2.15,16.06,16.06,0,0,1-4.34-6.88,19.19,19.19,0,0,1-.7-4c0-.36,0-.73,0-1.09a1.21,1.21,0,0,0-1-1.26,1.14,1.14,0,0,0-1.22,1Z" style="fill:#161616"/><path d="M820.07,269.14a1.55,1.55,0,0,0-.93.61c-.22.22-.42.48-.65.7-1.22,1.31-2.52,2.57-3.87,3.76a1.52,1.52,0,0,0-.17,2.12,1.46,1.46,0,0,0,2.09.2,66.06,66.06,0,0,0,5-5.07,1.34,1.34,0,0,0,.25-1.11,1.57,1.57,0,0,0-.57-1,1.51,1.51,0,0,0-.72-.27,2.61,2.61,0,0,0-.4,0Z" style="fill:#161616"/><path d="M807.08,287.82s.07,0,.12,0-.1,0-.12,0ZM795.24,286a1.6,1.6,0,0,0,0,1.16c.08.1.13.22.2.32a1.25,1.25,0,0,0,.62.43,23.78,23.78,0,0,0,4.87,1.74,53.54,53.54,0,0,0,5.25,1.16,51.5,51.5,0,0,0,10.59.78,1.3,1.3,0,0,0,.95-.3,1.25,1.25,0,0,0,.47-.88,1.26,1.26,0,0,0-.3-1,1.24,1.24,0,0,0-.87-.48A41.14,41.14,0,0,1,807,287.8c-1.62-.38-3.22-.81-4.82-1.29-.87-.28-1.74-.53-2.62-.78s-1.85-.5-2.8-.68h-.07a1.52,1.52,0,0,0-1.45,1Z" style="fill:#161616"/><path d="M795.29,285.15a1.49,1.49,0,0,0-.52,1c-.13.8-.23,1.61-.28,2.42s0,1.69,0,2.54a12.75,12.75,0,0,0,.78,3.86,8.65,8.65,0,0,0,1.59,2.8,8.36,8.36,0,0,0,2.63,1.94,7.32,7.32,0,0,0,1.2.45,9.92,9.92,0,0,0,5,.1,16.63,16.63,0,0,0,3.42-1.1,18.86,18.86,0,0,0,3.32-2,17.32,17.32,0,0,0,2.38-2.07,14.77,14.77,0,0,0,2.17-2.8,1.55,1.55,0,0,0,.27-.75,1.46,1.46,0,0,0-1.34-1.64,1.41,1.41,0,0,0-1.1.35c-.83.83-1.68,1.64-2.58,2.42a24.55,24.55,0,0,1-2.62,2,17.19,17.19,0,0,1-3.77,1.81,11.3,11.3,0,0,1-2.65.51,8.68,8.68,0,0,1-1.75-.15,6.53,6.53,0,0,1-1.19-.46,5.31,5.31,0,0,1-.93-.65,6.3,6.3,0,0,1-.8-1,11.19,11.19,0,0,1-.7-1.53,14.13,14.13,0,0,1-.45-2.9,23,23,0,0,1,.25-3.89,1.47,1.47,0,0,0-1.32-1.61,1.49,1.49,0,0,0-1.05.33Z" style="fill:#161616"/></g></g><g id="CareerPlaybook"><path d="M142.73,144.92h-6.28l-2.62,16h-7.78l2.62-16H120v-7.15h9.84l1.72-10.31h-8.63v-7.15h9.8l2.7-16.25h7.73l-2.65,16.25h6.29l2.69-16.25h7.78l-2.7,16.25h9v7.15H153.4l-1.72,10.31h8.94v7.15H150.51l-2.62,16h-7.77Zm-5.11-7.15h6.29l1.71-10.31h-6.28Z" style="fill:#da2222"/><path d="M213.24,141.76l.08.23q.15,9.73-5.49,14.75t-16,5q-10.56,0-16.94-6.45t-6.38-16.87V126.56q0-10.38,6.15-16.85t16.27-6.47q10.81,0,16.74,5t5.76,14.65l-.12.23H200.47q0-5.23-2.23-7.5c-1.48-1.51-3.92-2.26-7.3-2.26A7.73,7.73,0,0,0,184.1,117q-2.39,3.59-2.38,9.51v12q0,6,2.62,9.57a8.72,8.72,0,0,0,7.5,3.59q4.53,0,6.54-2.26t2-7.58Z" style="fill:#da2222"/><path d="M244.26,160.9a15.65,15.65,0,0,1-1.27-3,23,23,0,0,1-.8-3.51,16.18,16.18,0,0,1-4.24,5.37,10.23,10.23,0,0,1-6.58,2q-6.65,0-10.33-3.42t-3.7-9.32a11.27,11.27,0,0,1,4.73-9.7q4.73-3.42,14.34-3.42h5.43v-3a6,6,0,0,0-1.29-4.14,5,5,0,0,0-4-1.45,4.76,4.76,0,0,0-3.42,1.08,4.47,4.47,0,0,0-1.11,3.34l-12.81,0-.08-.23q-.27-5.79,4.82-9.67t13.46-3.89c5.24,0,9.47,1.3,12.72,3.91S255,128.12,255,133v15.94a32.33,32.33,0,0,0,.57,6.25,33.46,33.46,0,0,0,1.69,5.78Zm-9.3-8.56a8,8,0,0,0,4.28-1.13,6.54,6.54,0,0,0,2.6-2.69v-5.59h-5.32q-3.17,0-4.57,1.52a5.53,5.53,0,0,0-1.4,3.87,3.73,3.73,0,0,0,1.23,2.91A4.57,4.57,0,0,0,235,152.34Z" style="fill:#da2222"/><path d="M285.62,129.92l-4.29,0a7.3,7.3,0,0,0-3.71.84,5.15,5.15,0,0,0-2.15,2.37v27.85h-13.2V118.67h12.42l.47,6.21a12.64,12.64,0,0,1,3.51-5.15,7.7,7.7,0,0,1,5.12-1.84,9.57,9.57,0,0,1,1.6.12,12.17,12.17,0,0,1,1.49.35Z" style="fill:#da2222"/><path d="M308.48,161.76q-9.62,0-15.06-5.82A20.71,20.71,0,0,1,288,141.21v-1.48q0-9.69,5.14-15.78T308,117.89q8.55,0,13.26,5.12t4.71,14V144H301.72l-.08.23a8.24,8.24,0,0,0,2.46,5.37,8.58,8.58,0,0,0,6.17,2,27.13,27.13,0,0,0,6.31-.62,39.19,39.19,0,0,0,5.76-2l3.17,8.05a24.12,24.12,0,0,1-7.35,3.36A33.9,33.9,0,0,1,308.48,161.76ZM308,128.05a5.45,5.45,0,0,0-4.67,2,10.15,10.15,0,0,0-1.74,5.45l.08.19h11.41v-1a8.76,8.76,0,0,0-1.16-5A4.39,4.39,0,0,0,308,128.05Z" style="fill:#da2222"/><path d="M350.27,161.76q-9.6,0-15.06-5.82t-5.44-14.73v-1.48q0-9.69,5.13-15.78t14.87-6.06q8.55,0,13.26,5.12t4.7,14V144H343.52l-.08.23a8.24,8.24,0,0,0,2.46,5.37,8.58,8.58,0,0,0,6.17,2,27.13,27.13,0,0,0,6.31-.62,39.19,39.19,0,0,0,5.76-2L367.3,157a24.06,24.06,0,0,1-7.34,3.36A33.92,33.92,0,0,1,350.27,161.76Zm-.5-33.71a5.45,5.45,0,0,0-4.67,2,10.07,10.07,0,0,0-1.74,5.45l.08.19h11.4v-1a8.76,8.76,0,0,0-1.15-5A4.42,4.42,0,0,0,349.77,128.05Z" style="fill:#da2222"/><path d="M396.68,129.92l-4.3,0a7.3,7.3,0,0,0-3.71.84,5.21,5.21,0,0,0-2.15,2.37v27.85h-13.2V118.67h12.42l.47,6.21a12.75,12.75,0,0,1,3.52-5.15,7.66,7.66,0,0,1,5.11-1.84,9.7,9.7,0,0,1,1.61.12,12,12,0,0,1,1.48.35Z" style="fill:#da2222"/><path d="M415.51,141.45v19.49H402.3V104.06H424q10.13,0,16.06,5.16a18.41,18.41,0,0,1,0,27.09q-5.94,5.13-16.06,5.14Zm0-10.16H424q4.31,0,6.57-2.36a8.43,8.43,0,0,0,2.26-6.08,8.82,8.82,0,0,0-2.24-6.21q-2.25-2.42-6.59-2.42h-8.51Z" style="fill:#da2222"/><path d="M466.37,160.94H453.12V100h13.25Z" style="fill:#da2222"/><path d="M498.87,160.9a15.65,15.65,0,0,1-1.27-3,23,23,0,0,1-.8-3.51,16.18,16.18,0,0,1-4.24,5.37,10.25,10.25,0,0,1-6.58,2q-6.64,0-10.34-3.42A12.08,12.08,0,0,1,472,149a11.27,11.27,0,0,1,4.73-9.7q4.72-3.42,14.34-3.42h5.43v-3a6,6,0,0,0-1.29-4.14,5,5,0,0,0-4-1.45,4.76,4.76,0,0,0-3.42,1.08,4.47,4.47,0,0,0-1.11,3.34l-12.81,0-.08-.23q-.27-5.79,4.82-9.67t13.46-3.89q7.85,0,12.72,3.91T509.65,133v15.94a33.17,33.17,0,0,0,.56,6.25,34.42,34.42,0,0,0,1.7,5.78Zm-9.3-8.56a8,8,0,0,0,4.28-1.13,6.54,6.54,0,0,0,2.6-2.69v-5.59h-5.32q-3.17,0-4.57,1.52a5.48,5.48,0,0,0-1.4,3.87,3.73,3.73,0,0,0,1.23,2.91A4.57,4.57,0,0,0,489.57,152.34Z" style="fill:#da2222"/><path d="M532.66,142.3l0,.32h.23l7-24H554l-16.83,48.56a23.23,23.23,0,0,1-5,7.73q-3.09,3-9.81,3a14.46,14.46,0,0,1-2.81-.22c-.73-.14-1.87-.41-3.44-.8l1.61-9.41.82.17a3.31,3.31,0,0,0,.7.06,8.69,8.69,0,0,0,4.57-.92,5.47,5.47,0,0,0,2.15-2.75l1.05-2.73-14.61-42.74h14Z" style="fill:#da2222"/><path d="M596.56,140.7q0,9.66-4.14,15.35t-12.26,5.71a11.84,11.84,0,0,1-6-1.49,13.05,13.05,0,0,1-4.41-4.29l-.78,5H557.42V100h13.2v22.77a12.9,12.9,0,0,1,4.09-3.61,11,11,0,0,1,5.37-1.27q8.16,0,12.32,6t4.16,16Zm-13.16-.82a21.67,21.67,0,0,0-1.41-8.73,5.22,5.22,0,0,0-5.23-3.1,7.82,7.82,0,0,0-3.69.8,6,6,0,0,0-2.45,2.32V149a5.82,5.82,0,0,0,2.49,2,9.43,9.43,0,0,0,3.73.66q3.9,0,5.23-2.71t1.33-8.19Z" style="fill:#da2222"/><path d="M600.62,139.41q0-9.53,5.4-15.52t15-6q9.69,0,15.08,6t5.39,15.52v.82q0,9.59-5.39,15.55t-15,6q-9.72,0-15.11-6t-5.4-15.55Zm13.21.82a17.39,17.39,0,0,0,1.66,8.34c1.1,2,3,3,5.64,3a5.83,5.83,0,0,0,5.55-3,17.3,17.3,0,0,0,1.68-8.32v-.82a17.4,17.4,0,0,0-1.68-8.26,5.89,5.89,0,0,0-5.63-3.1,5.79,5.79,0,0,0-5.56,3.12,17.56,17.56,0,0,0-1.66,8.24Z" style="fill:#da2222"/><path d="M645.59,139.41q0-9.53,5.39-15.52t15-6q9.68,0,15.07,6t5.39,15.52v.82q0,9.59-5.39,15.55t-15,6q-9.72,0-15.11-6t-5.39-15.55Zm13.2.82a17.39,17.39,0,0,0,1.66,8.34,5.91,5.91,0,0,0,5.64,3,5.83,5.83,0,0,0,5.55-3,17.3,17.3,0,0,0,1.68-8.32v-.82a17.4,17.4,0,0,0-1.68-8.26,5.87,5.87,0,0,0-5.62-3.1,5.81,5.81,0,0,0-5.57,3.12,17.56,17.56,0,0,0-1.66,8.24Z" style="fill:#da2222"/><path d="M707.89,144.14h-2.38v16.8H692.3V100h13.21v34.18h1.87l8.91-15.51h15.12l-13,19.06,15.15,23.21h-15Z" style="fill:#da2222"/></g></svg>