<svg id="Layer_1" data-name="Layer 1" xmlns="http://www.w3.org/2000/svg" viewBox="0 0 1400 600"><title>CP000_blog</title><rect id="White" width="1400" height="600" style="fill:#fff"/><g id="_000" data-name="000"><g id="_000_WriteByTree" data-name="000_WriteByTree"><path d="M990.08,227.85a5.93,5.93,0,0,0-2.12.59,6.11,6.11,0,0,0-1.56,1.05A7.79,7.79,0,0,0,985,231.1a9.83,9.83,0,0,0-1.46,4.36,1.18,1.18,0,0,0,.36.86,1.21,1.21,0,0,0,1.7,0,1.33,1.33,0,0,0,.36-.86.38.38,0,0,1,0-.1,9.28,9.28,0,0,1,.46-1.74,7.93,7.93,0,0,1,.74-1.3,6.59,6.59,0,0,1,.92-.91,6.4,6.4,0,0,1,1-.6,5,5,0,0,1,.94-.26,5.29,5.29,0,0,1,.89,0,6.17,6.17,0,0,1,1,.26,8.37,8.37,0,0,1,1.22.73c.29.25.56.5.83.77a1.3,1.3,0,0,0,1.8,0,1.28,1.28,0,0,0,.37-.9,1.42,1.42,0,0,0-.37-.9,7.07,7.07,0,0,0-3.67-2.51,5.82,5.82,0,0,0-1.45-.19,5.63,5.63,0,0,0-.58,0" style="fill:#161616"/><path d="M995,241a11.28,11.28,0,0,0-4.07,1.52,12.18,12.18,0,0,0-3.48,3.23,1.19,1.19,0,0,0,.43,1.63,1.16,1.16,0,0,0,.91.12,1.27,1.27,0,0,0,.72-.55v0a9,9,0,0,1,3.73-2.85,11.51,11.51,0,0,1,2.51-.68,11.65,11.65,0,0,1,2.64,0,13,13,0,0,1,3,.81c.4.18.79.37,1.19.57a1,1,0,0,0,1.2-.16,1,1,0,0,0,0-1.4,9.58,9.58,0,0,0-4-2.08,10.54,10.54,0,0,0-2.61-.32A13.39,13.39,0,0,0,995,241m-5.3,5.7-.16.21.16-.21" style="fill:#161616"/><path d="M991.61,247.34a2.72,2.72,0,1,0,2.71-2.71,2.74,2.74,0,0,0-2.71,2.71" style="fill:#161616"/><path d="M1019.79,236.08a12.18,12.18,0,0,0-4.66,1.52,11.66,11.66,0,0,0-3.75,3.48,1.1,1.1,0,0,0,.39,1.48,1.14,1.14,0,0,0,.83.11,1.16,1.16,0,0,0,.65-.5l.21-.29a10.09,10.09,0,0,1,1.6-1.6,10.86,10.86,0,0,1,2.06-1.2,11.45,11.45,0,0,1,2.5-.69,11.74,11.74,0,0,1,3,0,13.11,13.11,0,0,1,2.82.78,18.76,18.76,0,0,1,2.26,1.2.92.92,0,0,0,1.11-.14.93.93,0,0,0,0-1.29,10,10,0,0,0-4.29-2.46,12,12,0,0,0-2.45-.45c-.3,0-.6,0-.9,0a13,13,0,0,0-1.4.09" style="fill:#161616"/><path d="M1015,242.33a2.93,2.93,0,1,0,2.93-2.93,3,3,0,0,0-2.93,2.93" style="fill:#161616"/><path d="M1003.79,250.82a1,1,0,0,0-.29.69c0,.31-.06.62-.1.92-.18,1.23-.42,2.44-.6,3.66-.1.69-.19,1.38-.23,2.08a10.38,10.38,0,0,0,.08,2,3.88,3.88,0,0,0,1.81,2.9,4.27,4.27,0,0,0,1.95.52,6,6,0,0,0,1-.05,9.75,9.75,0,0,0,1.52-.31,1,1,0,0,0,.68-1.19.94.94,0,0,0-.45-.58,1.08,1.08,0,0,0-.75-.1l-.4.07.13,0-.14,0-.12,0,.12,0a7.6,7.6,0,0,1-1.72,0,2.91,2.91,0,0,1-.58-.15l-.36-.2a2.83,2.83,0,0,1-.24-.25,2.46,2.46,0,0,1-.22-.39,4.43,4.43,0,0,1-.25-.95,15.13,15.13,0,0,1,.15-3.49c.22-1.51.51-3,.63-4.54a1,1,0,0,0-1-1,1,1,0,0,0-.69.28m4.25,10.62Z" style="fill:#161616"/><path d="M1020.13,263.26a1,1,0,0,0-.6.47l-.6.81a16.79,16.79,0,0,1-2.78,2.87,12.1,12.1,0,0,1-2.19,1.29,10.94,10.94,0,0,1-2.37.64,11.56,11.56,0,0,1-1.86,0,1.29,1.29,0,0,0-.92,2.2,1.32,1.32,0,0,0,.92.38,11.54,11.54,0,0,0,6.93-1.76,12.12,12.12,0,0,0,2.72-2.33,11.35,11.35,0,0,0,1.16-1.59,12.41,12.41,0,0,0,.85-1.76,1,1,0,0,0-.47-1.15,1.06,1.06,0,0,0-.51-.14,1.26,1.26,0,0,0-.28,0" style="fill:#161616"/><path d="M1013.16,222.2a6.11,6.11,0,0,0-1.53,1.14,7.8,7.8,0,0,0-1.29,1.73,1,1,0,0,0,.36,1.36,1,1,0,0,0,1.36-.35,9.1,9.1,0,0,1,.51-.8,4.17,4.17,0,0,1,1.67-1.32,5.62,5.62,0,0,1,1.07-.28,6.65,6.65,0,0,1,1.41,0,9.71,9.71,0,0,1,2,.59,20.07,20.07,0,0,1,3.75,2.3,1,1,0,0,0,1.17-.15,1,1,0,0,0,0-1.38,12.61,12.61,0,0,0-5-3.12,10.34,10.34,0,0,0-1.9-.39c-.23,0-.47,0-.7,0a6.41,6.41,0,0,0-2.88.7" style="fill:#161616"/><path d="M1000.47,313.21a.66.66,0,0,0-.29.38.59.59,0,0,0,.07.48l2.17,2.94c.76,1,1.5,2.08,2.26,3.11a.74.74,0,0,0,.38.29.64.64,0,0,0,.72-.94c-.69-1-1.42-2-2.15-3s-1.53-2.05-2.3-3.08a.65.65,0,0,0-.37-.28l-.17,0a.62.62,0,0,0-.32.09" style="fill:#161616"/><path d="M964.33,184.72a17.14,17.14,0,0,0-.43,2.76,14.24,14.24,0,0,0,.16,2.79,17.9,17.9,0,0,0,1.75,5.37,21,21,0,0,0,3.17,4.57,18.89,18.89,0,0,0,2.67,2.45,47,47,0,0,0-7.72,4.25c-1,.7-2.07,1.46-3.1,2.27l-.56.54a2.26,2.26,0,0,1-.48.35,1.75,1.75,0,0,1-.29.18l-.85.72-.21.17-.9.85a1.93,1.93,0,0,1-.36.28c-1.18,1.09-2.24,2.14-3.19,3.21a1.26,1.26,0,0,0-.19,1.51,1.29,1.29,0,0,0,1.07.63,1,1,0,0,0,.34-.06,47,47,0,0,1,5.13-1.53,52.29,52.29,0,0,1,5.58-1.06,48,48,0,0,1,6.07-.41,41.18,41.18,0,0,1,4.48.25c-1.08.9-2.23,2-3.51,3.22-1.71,1.68-3.42,3.52-5.09,5.48s-3.15,3.89-4.67,6.06-3.05,4.67-4.25,6.67a1.82,1.82,0,0,0,.28,2.18,1.76,1.76,0,0,0,.79.46,1.91,1.91,0,0,0,.52.07,1.48,1.48,0,0,0,.88-.25l1.19-.93.09-.07-.11,0,.16-.07,0,0,0,0c1.5-1.12,3.06-2.21,4.66-3.24a12.48,12.48,0,0,1,2.5-1.69,3,3,0,0,1,.61-.23l.65-.37c2.34-1.34,4.83-2.59,7.62-3.84a49.39,49.39,0,0,0,.45,5.75,3,3,0,0,1,.18.81c0,.3,0,.6.08.91a78.66,78.66,0,0,0,2.15,9.41c.85,3,1.9,6.08,3.21,9.5a2.18,2.18,0,0,1,.28.62c0,.15.09.3.13.46,1.28,3.26,2.67,6.38,4.12,9.28A74.19,74.19,0,0,0,996,275.8a39.57,39.57,0,0,0,7.85,8.3l.1.1.1.1a1.37,1.37,0,0,0,.51.31,1.41,1.41,0,0,0,1.19.68,37.74,37.74,0,0,0,13.94-2.66,29.66,29.66,0,0,0,3.44-1.67l0,.24c.06.33.12.65.17,1,0,.07,0,.11,0,.16a1.27,1.27,0,0,0-.52.15c-2.08,1-4.33,2-6.62,3l-.08.06c-2.72,1.11-5.14,2-7.38,2.69a75.86,75.86,0,0,1-8.47,2,1.14,1.14,0,0,0-.84,1.11,1,1,0,0,0,.1.46,72.67,72.67,0,0,0-7.73,6.88l-.57.6a2.35,2.35,0,0,1-.37.52,29.28,29.28,0,0,0-2.16,2.43l-.1.14a3.9,3.9,0,0,1-.5.56l0,.06a31.49,31.49,0,0,0-2.88,4.25c-.35-.75-.72-1.5-1.09-2.24a1.4,1.4,0,0,0-1.89-.5,1.27,1.27,0,0,0-.56.61,28.35,28.35,0,0,0-3.08-.92l-1.05-.26h0l.07,0a1.1,1.1,0,0,0,.5-.65,8.32,8.32,0,0,0,.08-2.14,6.35,6.35,0,0,0-.5-2,4.32,4.32,0,0,0-2.13-2.22,4.87,4.87,0,0,0-1.68-.4h-.23a5.4,5.4,0,0,0-1.42.22,6.48,6.48,0,0,0-1.13.41l-.4-.95-.13-.3-.23-.52A1.7,1.7,0,0,1,970,295a19,19,0,0,1-1.45-3,16.93,16.93,0,0,1-.72-2.26c-.14-.31-.27-.63-.41-.95-1.51-3.58-2.7-6.59-3.77-9.48a1.62,1.62,0,0,0-.72-.93l-.09,0a.85.85,0,0,0,.09-.38,1,1,0,0,0-.72-1,12.67,12.67,0,0,0-1.28-1.59,5.58,5.58,0,0,0-1.5-1.1,3.13,3.13,0,0,0-1.35-.34H958a2.48,2.48,0,0,0-1.5.59,3.63,3.63,0,0,0-1,2.8,6.94,6.94,0,0,0,.31,1.85,2.78,2.78,0,0,0,.12.38,8.31,8.31,0,0,0-.36,2.05,8.14,8.14,0,0,0,.15,1.66,10.36,10.36,0,0,0,.46,1.69,21.71,21.71,0,0,0,1.56,3.36q.47.81,1,1.59a14.35,14.35,0,0,0,1.12,1.57,1,1,0,0,0,.81.34,1.19,1.19,0,0,0,.6-.16,1.14,1.14,0,0,0,.53-1.31,15.14,15.14,0,0,0-1.5-2.88l-.37-.59a26.06,26.06,0,0,1-1.74-3.21l-.08-.15-.09-.26-.13-.37c.7,1.21,1.43,2.34,2.21,3.47.55,1.3,1.15,2.64,1.82,4.1.74,1.61,1.45,3.09,2.16,4.52l.12.23.12.23a.7.7,0,0,0-.23-.15,5.45,5.45,0,0,0-2-.56h-.18a3.27,3.27,0,0,0-1.68.48,4.21,4.21,0,0,0-1.43,1.63,10.43,10.43,0,0,0-.95,3,1,1,0,0,0,.08.69l-.32-.07-3.23-.62a1.11,1.11,0,0,0-.15-.75,1.3,1.3,0,0,0-.74-.57,7.33,7.33,0,0,0-2.53-.5,4.57,4.57,0,0,0-2.14.51,3.75,3.75,0,0,0-1.37,1.37,4.56,4.56,0,0,0-.59,2,5.88,5.88,0,0,0,.19,2,6.88,6.88,0,0,0,.87,2,6.36,6.36,0,0,0,.6.84,4.26,4.26,0,0,0-.36.95,4.57,4.57,0,0,0-.15,1.38,4.35,4.35,0,0,0,.36,1.45,4.51,4.51,0,0,0,2.44,2.31,6,6,0,0,0,.24,3.38,5.22,5.22,0,0,0,.7,1.26,5,5,0,0,0,.57.66,7.15,7.15,0,0,0,.7.56,4.21,4.21,0,0,0,.85.45,4.18,4.18,0,0,0,0,1,102.35,102.35,0,0,0-2.7,14.59c-.27,3-.43,7.54,1.39,11.46a10.12,10.12,0,0,0,2.73,3.55,12.36,12.36,0,0,0,4.65,2.29,20.12,20.12,0,0,0,5,.56l1.32,0a40.91,40.91,0,0,0,8.26-1.3,1.34,1.34,0,0,0,.79-.61,1.36,1.36,0,0,0,.14-1,1.31,1.31,0,0,0-.61-.79,1.22,1.22,0,0,0-.65-.17,1.67,1.67,0,0,0-.37,0c-1.49.26-2.69.45-3.8.6h.19a45,45,0,0,1-5.1.34,26.13,26.13,0,0,1-2.87-.16,15.23,15.23,0,0,1-3.34-.87,11,11,0,0,1-1.9-1.09,8.79,8.79,0,0,1-1.43-1.43,9.42,9.42,0,0,1-1.1-1.91,15,15,0,0,1-.9-3.41,36.75,36.75,0,0,1,.24-9.14l0-.17v0c.36-2.51.86-5.17,1.59-8.37a4.12,4.12,0,0,0,.78.65,4.58,4.58,0,0,0,.69.39.92.92,0,0,0-.09.25,5.48,5.48,0,0,0,0,3.16,5.08,5.08,0,0,0,1.88,2.49,5.62,5.62,0,0,0,1.33.7s0,.1,0,.15a5.12,5.12,0,0,0,.6,2.8,4.94,4.94,0,0,0,2,1.95c.2.11.42.21.63.3a4.13,4.13,0,0,0-.22.65,4.72,4.72,0,0,0,.25,3.11,3.76,3.76,0,0,0,.8,1.11,4,4,0,0,0,1.39.88,4.91,4.91,0,0,0,1.44.36,4.13,4.13,0,0,0,.33,3.21,3.54,3.54,0,0,0,.72.86,4.36,4.36,0,0,0,1.29.77,6.07,6.07,0,0,0,2.32.42l.6,0a1.15,1.15,0,0,0,.94-.55c.91.3,1.87.66,3,1.14l.1,0,.1,0,.37.16.17.07a1.12,1.12,0,0,0,.27,0l.27,0a1,1,0,0,0,.61-.47,1.15,1.15,0,0,0,.13-.34l.24.26a22.26,22.26,0,0,0,5.9,3.69,26.57,26.57,0,0,0,7,2,23.78,23.78,0,0,0,3.31.24,18.3,18.3,0,0,0,3.76-.37,11.12,11.12,0,0,0,1.77-.53,9.94,9.94,0,0,0,1-.45,1,1,0,0,0,.17.23,1.79,1.79,0,0,0,1.18.49l.64.07a5.9,5.9,0,0,1-.48,1.59,67.77,67.77,0,0,1-6.7,11.19c-.69,1-1.37,2-2,3a43.5,43.5,0,0,0-3.87,6.82,21.54,21.54,0,0,0-1.28,3.77,17.44,17.44,0,0,0-.47,4,20.09,20.09,0,0,0,1.91,8.29c-4.91-2.58-10.09-5-15.38-7.27a202.27,202.27,0,0,0-22.25-8,110.67,110.67,0,0,0-13.71-3.1,83.84,83.84,0,0,0-13.24-1.13h-.38a1.3,1.3,0,0,0-.92,2.23,1.4,1.4,0,0,0,.92.38c1.61.15,3.36.35,5.68.66a194.45,194.45,0,0,1,22.14,4.48,177.59,177.59,0,0,1,22.29,7.37c1,.4,2,.82,3,1.23a163.49,163.49,0,0,1,15,7.26,1.34,1.34,0,0,0,1,.86l3.34.67a42.66,42.66,0,0,0-4.85,10.26l0,.14,0,.12c-1.42-1.65-2.74-3.23-3.91-4.69-.46-.57-.91-1.15-1.36-1.73l-.15-.2L987,401a.64.64,0,0,0-.32-.24l-.14,0a.57.57,0,0,0-.27.07.6.6,0,0,0-.26.39.37.37,0,0,0,.07.34c2,2.59,4,5.13,6.12,7.56a40.33,40.33,0,0,0-1,4.36c0,.21-.07.42-.11.63l-1.75-2.18-.11-.1h0a.78.78,0,0,0-.47-.38.66.66,0,0,0-.21,0,.8.8,0,0,0-.4.11.74.74,0,0,0-.37.48.79.79,0,0,0,.08.62c1,1.29,2,2.51,2.94,3.64a24.81,24.81,0,0,0-.14,3.51,1.19,1.19,0,0,0,1.16,1.15,1.16,1.16,0,0,0,1.16-1.15l0-.55,0-.55.58.63a.8.8,0,0,0,.59.25.84.84,0,0,0,.6-1.43c-.54-.55-1.08-1.11-1.6-1.68,0-.53.11-1.08.18-1.63.17-1.21.39-2.42.67-3.6.81.94,1.7,1.91,2.7,3l.44.46c-.4,1.85-.73,3.85-1,5.93a51.84,51.84,0,0,0-.39,7.72c0,.7.07,1.39.13,2.08,0,.14,0,.27,0,.41-.62-.52-1.28-1-1.94-1.52l-.15-.11-.19-.14c-1.74-1.29-3.55-2.52-5.1-3.57-3.35-2.26-7-4.54-10.87-6.78a148.63,148.63,0,0,0-23.45-11.09,86.87,86.87,0,0,0-16.38-4.29l.36-.48c.28-.4.57-.79.86-1.18a1.52,1.52,0,0,0,.16-1.19,1.57,1.57,0,0,0-.71-.92,1.53,1.53,0,0,0-.78-.2,1.25,1.25,0,0,0-.4.05,1.63,1.63,0,0,0-.92.7l-.07.1-.07.09a92.56,92.56,0,0,0-10.49,17.93c-1.37,2.95-2.71,6.18-4.34,10.49-1.35,3.55-2.59,7.17-3.7,10.76a156.65,156.65,0,0,0-4.52,18.51,105.69,105.69,0,0,0-1.8,17.07,1.2,1.2,0,0,0,.08.42l-.46-.06c-1.52-.14-3-.26-4.37-.45a70.63,70.63,0,0,1-8.37-1.71,62.39,62.39,0,0,1-8.16-2.82c-1.15-.49-2.31-1-3.43-1.57a6.13,6.13,0,0,0,.34-.57l.15-.29c.36-.67.69-1.36,1-2.06.61-1.29,1.21-2.68,1.87-4.36,1-2.51,1.93-5.26,2.94-8.67.86-2.87,1.68-5.9,2.44-9,.4-1.64.78-3.29,1.17-4.95l.06-.27c.31-1.33.62-2.67.94-4l.21-.87.06-.26c1.35-5.69,2.76-11.57,4.39-17.29a153.24,153.24,0,0,1,6-17.58,78.49,78.49,0,0,1,9.84-17.25,60.48,60.48,0,0,1,4.68-5.36,1,1,0,0,0,0-1.44,1,1,0,0,0-1.44,0,68.79,68.79,0,0,0-10.78,14.41,107.69,107.69,0,0,0-7.54,16.76c-2.18,6.07-4,12.24-5.54,18q-.82,3-1.63,6l-.09.33c-1.07,3.94-2.18,8-3.34,12-1.39,4.8-2.66,9.13-4.1,13.56-.72,2.18-1.44,4.37-2.19,6.54-.37,1.07-.74,2.14-1.12,3.21l-.12.36c-.3.84-.64,1.79-.92,2.73l0,.1a1.35,1.35,0,0,0-.12,1,1.22,1.22,0,0,0,.58.75l.16.08a.8.8,0,0,0,.21.15c.75.38,1.5.75,2.26,1.11a14.24,14.24,0,0,1-2,1.94,36.38,36.38,0,0,1-4.1,2.62c-1.82,1-3.67,1.94-5.39,2.78q-2.08,1-4.18,2c-2.62,1.23-5.26,2.48-7.8,3.8a62.24,62.24,0,0,0-5.5,3.16,32.79,32.79,0,0,0-4.68,3.63c-1.68,1.59-4.43,4.86-4,8.92a10.6,10.6,0,0,0,.45,2.13,13.17,13.17,0,0,0,1,2.26,20.14,20.14,0,0,0,3.62,4.48,1.48,1.48,0,0,0,.39.28,1.14,1.14,0,0,0,1.1.85h.72a40,40,0,0,0,14.51-2.9,88.94,88.94,0,0,0,13.66-7c1.11-.65,2.2-1.32,3.29-2l.09-.06h0A123.58,123.58,0,0,1,904,489.91l.06,0,.06,0a46.93,46.93,0,0,1,8.55-2.65,1.46,1.46,0,0,0,.71.48,1.34,1.34,0,0,0,.35,0,1.36,1.36,0,0,0,1.36-1,18.81,18.81,0,0,0-.68-9.29,1.19,1.19,0,0,0-.08-.2,1.06,1.06,0,0,0,.12-.5,1.25,1.25,0,0,0-.35-.86,1.13,1.13,0,0,0-.56-.3,1,1,0,0,0,.2-.58,98.85,98.85,0,0,1,.83-10.49l0-.3a142.81,142.81,0,0,1,3.75-18.07,153.07,153.07,0,0,1,6.38-18.69l-.11.18a153.54,153.54,0,0,1,6.72-13.81c1.12-2,2.35-4.07,3.77-6.31.36-.57.73-1.13,1.1-1.69a.73.73,0,0,0,.43.21A90,90,0,0,1,958,412.24a162.7,162.7,0,0,1,20.34,10.54c3,1.8,6.16,3.81,9.69,6.16l2,1.35.82.55,1.67,1.12,2.22,1.46c.4.26.8.52,1.21.77l.45.28a7.17,7.17,0,0,1,.75.46V435l-.06.07c-2.47,3.19-4.91,6.4-7.35,9.61s-4.88,6.42-7.34,9.61l.14-.16c-6.12,7.89-11,13.82-15.72,19.19A196.92,196.92,0,0,1,949.29,491c-2.86,2.52-5.82,5-8.68,7.41-3.17,2.68-6.45,5.44-9.6,8.24A123.82,123.82,0,0,0,914.39,524c-1,1.28-1.9,2.56-2.73,3.81a1.21,1.21,0,0,0-.16.94,1.42,1.42,0,0,0,.64.88,1.31,1.31,0,0,0,.68.19,1.33,1.33,0,0,0,.34-.05,1.49,1.49,0,0,0,.8-.61c.68-.94,1.37-1.86,2.07-2.77a109.13,109.13,0,0,1,7.72-8.86c2.5-2.58,5.32-5.26,8.64-8.21s6.55-5.69,9.79-8.42c2.78-2.35,5.66-4.78,8.45-7.23,3.12-2.75,6.1-5.54,8.86-8.31s5.59-5.8,8.5-9.08c4.7-5.31,9.52-11.2,15.64-19.12l.13-.18.08-.09c2.78-3.61,5.58-7.3,8.28-10.87l3.06-4c.89-1.18,1.79-2.35,2.69-3.53l.06-.09h0l1.32-1.72.15-.19.61-.79a1.3,1.3,0,0,0,.15-.2l2.69-3.45a1.45,1.45,0,0,0,.4-1,1.32,1.32,0,0,0-.4-.94,1.35,1.35,0,0,0-1-.4,1.28,1.28,0,0,0-.94.4L998.71,433a1.12,1.12,0,0,0-.22-.21l-.53-.48c0-.73,0-1.51,0-2.19,0-.36,0-.67,0-1,0-1.13,0-2.25,0-3.33a61.64,61.64,0,0,1,.53-6.86c.12-.86.26-1.77.43-2.69,2.85,2.92,6.08,6,9.85,9.29l.54.48c.66.59,1.25,1.12,1.9,1.61a.82.82,0,0,0,.43.12.83.83,0,0,0,.61-.26.9.9,0,0,0,.25-.65.76.76,0,0,0-.26-.56c-.35-.32-.73-.62-1.11-.91l-.44-.35-1.68-1.36c-1.1-.92-2.16-1.83-3.15-2.7-2.08-1.83-4.11-3.72-6-5.62-.21-.19-.41-.39-.61-.59a60.31,60.31,0,0,1,3.24-10.63l0-.1,0-.11a47.71,47.71,0,0,1,2.3-4.64.76.76,0,0,0,.11-.32l4.14,1.1a129,129,0,0,1,15.94,5.41,69.91,69.91,0,0,1,15.22,8.53c1.13.88,2.25,1.83,3.31,2.82.6.56,1.38,1.3,2.15,2.11,0,.06-.05.12-.08.19-.72,2.16-1.54,4.34-2.44,6.48a104.46,104.46,0,0,1-13.46,22.55c-7.84,10.13-17.08,19.18-26.65,28.32l-3.62,3.45c-8.08,7.69-16.45,15.64-23.86,24.23-2.16,2.5-4.23,5.15-6.23,7.7l-.18.24c-2.65,3.39-5.29,6.67-7.84,9.75s-5.27,6.32-8,9.55c-1,1.22-2.08,2.45-3.12,3.67l-5,5.85-1.86,2.16-2.73,3.18-.36.42c-1.19,1.37-2.43,2.8-3.61,4.22l-.11-.08a36.9,36.9,0,0,1-5.52-3.56l.27.23A99.05,99.05,0,0,1,923,540l-2-2a69,69,0,0,0-5.16-4.61,31.27,31.27,0,0,0-5.84-3.82,1.16,1.16,0,0,0-.51-.12,1,1,0,0,0-.84.48.82.82,0,0,0-.1.24l-.22-.22a78,78,0,0,0-8.86-6.94,35.77,35.77,0,0,0-4.57-2.61,20.49,20.49,0,0,0-4.71-1.6,13.5,13.5,0,0,0-2.57-.26,11.59,11.59,0,0,0-2.14.19,10,10,0,0,0-4.25,2,13.89,13.89,0,0,0-3.17,3.67,25.21,25.21,0,0,0-2.46,5.41h0a1.17,1.17,0,0,0-.61.17,1.26,1.26,0,0,0-.45,1.71c2.76,5.23,8,8.51,11.78,10.52,1.38.75,2.81,1.45,4.2,2.13.91.45,1.83.9,2.74,1.37,1.38.7,2.51,1.32,3.54,2a39.63,39.63,0,0,1,3.46,2.4,84.25,84.25,0,0,1,8.66,8.33l.09.11c1.43,1.51,2.83,3,4.31,4.43a60.89,60.89,0,0,0,5.09,4.42,1.16,1.16,0,0,0,.57.15,1.17,1.17,0,0,0,.75-.29,1.19,1.19,0,0,0,.18.54,1.56,1.56,0,0,0,.93.72,1.9,1.9,0,0,0,.4,0,1.84,1.84,0,0,0,.82-.21,18.35,18.35,0,0,0,4.26-2.92,24.87,24.87,0,0,0,7.66-12.91c.39.24.8.47,1.22.69a1.42,1.42,0,0,0,.41.14,1.22,1.22,0,0,0,.27.41,1.27,1.27,0,0,0,.9.38,1.38,1.38,0,0,0,.93-.38c1.54-1.42,3-2.92,4.5-4.45s2.92-3,4.35-4.52c2.56-2.71,5.57-5.93,8.43-9.21,2.72-3.11,5.43-6.31,8-9.52,2.32-2.85,4.75-6,7.87-10,.66-.86,1.3-1.72,1.94-2.59s1.42-1.89,2.14-2.83c7.66-9.87,16.45-18.68,26.32-28.35l2.29-2.24c8.41-8.22,17.1-16.73,24.68-26a125.51,125.51,0,0,0,11.17-15.84,95.09,95.09,0,0,0,8.13-17.61h.06a1.13,1.13,0,0,0,.64-.16,1.21,1.21,0,0,0,.57-.72,1.45,1.45,0,0,0,.76-.54,14.17,14.17,0,0,0,1.25-2.44,17.27,17.27,0,0,0,.87-2.71,1,1,0,0,0-.05-.62,15.69,15.69,0,0,0,3.57-2,20.46,20.46,0,0,0,3-2.76,23.59,23.59,0,0,0,2.46-3.34,27.94,27.94,0,0,0,1.89-3.81,40.45,40.45,0,0,0,2.34-8,87.75,87.75,0,0,0,1.26-8.84c.14-1.38.26-2.76.37-4.14-.55-.17-1.1-.36-1.63-.58s-.75-.32-1.11-.5c-.19,2.13-.4,4.28-.67,6.41a55.94,55.94,0,0,1-3.5,14.08,29.83,29.83,0,0,1-3.46,6.07,21.88,21.88,0,0,1-3.55,3.58c-.6.45-1.27.9-2.12,1.43a1.5,1.5,0,0,0-.53.59l-.18-.21c-.49-.47-1-.95-1.64-1.47-1-.89-2.2-1.79-3.52-2.74a71,71,0,0,0-7.74-4.81,100.64,100.64,0,0,0-17.69-7.42,95.86,95.86,0,0,0-13.62-3.23,68.66,68.66,0,0,0-10.88-.92c-.63,0-1.25,0-1.88,0a.85.85,0,0,0-.29,0,1.15,1.15,0,0,0-.06-.17,24.05,24.05,0,0,1-1.29-4.83,19.15,19.15,0,0,1,0-4.54,22.43,22.43,0,0,1,1.49-5.27,58.6,58.6,0,0,1,5.41-9.14l1.21-1.79c1.05-1.58,2.41-3.66,3.58-5.82a38.35,38.35,0,0,0,2.63-6c9,1.35,17.82,4.14,26.36,6.84l.73.23c4.84,1.53,9.23,2.89,13.74,4.07a10.74,10.74,0,0,1-1.11-3.21c0-.22-.07-.43-.11-.66-3.83-1.07-7.53-2.22-11-3.31l-1.39-.44c-8.69-2.7-17.62-5.47-26.74-6.77-.79-.12-1.57-.22-2.36-.31a7.65,7.65,0,0,0,.61-.75,15.78,15.78,0,0,0,1.15-1.88,17.88,17.88,0,0,0,1.59-4.37,16.29,16.29,0,0,0,0-6.78,50,50,0,0,0,6,2.49.25.25,0,0,0,0,.17,20,20,0,0,1-.12,3,21.79,21.79,0,0,1-.51,2.45c-.25.91-.59,1.8-.91,2.63a1.06,1.06,0,0,0,.48,1.2,1.08,1.08,0,0,0,.53.14,1.06,1.06,0,0,0,.92-.52,15,15,0,0,0,1.57-4.19,18.12,18.12,0,0,0,.41-4.14,101,101,0,0,0,10.13,2.52A162.44,162.44,0,0,0,1045,344.2a21.47,21.47,0,0,1,.47-3.2l-.71-.07-1.82-.17c-5.17-.49-9.17-.94-13-1.44-5.84-.79-13.44-2.08-20.43-5a4,4,0,0,0,.58-1.33,11.79,11.79,0,0,0,.3-1.4,29.43,29.43,0,0,0,.35-3.16,44.86,44.86,0,0,0,0-5.89,59.12,59.12,0,0,0-2-11.72,1.46,1.46,0,0,0-1.78-1,1.45,1.45,0,0,0-1,1.78c.4,1.48.75,3.05,1,4.65-.36-.6-.76-1.19-1.17-1.77-1.4-2-2.92-3.91-4.09-5.37a.83.83,0,0,0-.63-.27.94.94,0,0,0-.64.26.93.93,0,0,0-.26.64,1,1,0,0,0,.26.63l.5.64c1.35,1.74,2.5,3.32,3.53,4.85.55.8,1.07,1.62,1.58,2.45l.56.93c.32.55.64,1.09,1,1.62l.06.78a.66.66,0,0,0-.24.15c-1.14,1-2.19,2-3.45,3.2s-2.23,2.19-3.33,3.3l-.08-.12a23.09,23.09,0,0,0-5.62-4.69,1.58,1.58,0,0,0-.71-.17,1.35,1.35,0,0,0-1.19.67l-.07.13c-.75-1.76-1.58-3.67-2.64-6-1.35-3-2.78-6.09-4.24-9.09a.36.36,0,0,0,.12-.09c.5-.61,1-1.23,1.48-1.85l.13-.15c.54-.69,1.08-1.38,1.65-2.05,1.17-1.39,2.41-2.77,3.68-4.09a76.69,76.69,0,0,1,8-7.09l.11-.09.44-.33a1.36,1.36,0,0,0,.58-.76l0-.16a37.84,37.84,0,0,0,10.51-2.37c1.69-.62,3.47-1.36,5.61-2.33a28.82,28.82,0,0,0-2.89,4.35,30.51,30.51,0,0,0-2.61,6.29,25,25,0,0,0-.65,3.28c-.06.51-.1,1-.13,1.6s0,1,.05,1.39l0,.17a1.16,1.16,0,0,0,.15.51.37.37,0,0,0,0,.11,1.3,1.3,0,0,0,1.3,1.29,1.25,1.25,0,0,0,.91-.38,13.12,13.12,0,0,1,2.07-2.08,16.69,16.69,0,0,1,3.26-1.88,24.53,24.53,0,0,1,6.22-1.61l.82-.1q.15.21.33.42a1,1,0,0,0,.81.34,1.09,1.09,0,0,0,.59-.16,1,1,0,0,0,.4-.4,1,1,0,0,0,.46.26,1.24,1.24,0,0,0,.33,0,1.72,1.72,0,0,0,.69-.18l.1,0,.1,0c.64-.25,1.27-.48,1.92-.68-.14-.24-.28-.48-.41-.73a14.32,14.32,0,0,1-1-1.56,15.47,15.47,0,0,1-.86-1.73c-.59.87-1.18,1.78-1.79,2.74-.47-.84-.8-1.46-1.08-2.06a13.41,13.41,0,0,1-.81-2.95c-.06-.54-.09-1.07-.1-1.57a1.13,1.13,0,1,0-2.25,0,15.26,15.26,0,0,0,.66,4.47,13.57,13.57,0,0,0,.67,1.78,16.31,16.31,0,0,0-2.41.24,19.35,19.35,0,0,0-3.88,1,16.42,16.42,0,0,0-4.85,2.77c.16-.62.32-1.31.52-2.1a33.89,33.89,0,0,1,1.49-4.38,33.51,33.51,0,0,1,4.09-7.06,24.45,24.45,0,0,1,2.9-3.13c0,.52-.11,1.06-.16,1.59s-.07.75-.09,1.12a1.18,1.18,0,0,0,.87,1.15,1,1,0,0,0,.3,0,1.19,1.19,0,0,0,1.16-.87,13.05,13.05,0,0,0,.32-2.51,18.44,18.44,0,0,0,0-2.43v-.2a1.35,1.35,0,0,0-.11-1.07,26.44,26.44,0,0,0-.61-3.07,1.75,1.75,0,0,0,.25-.16,25.17,25.17,0,0,0,4.21-3.81,10,10,0,0,1,.38-2.31,18.35,18.35,0,0,1,2-4.43,26,26,0,0,1,2-2.79c.3-.51.61-1,1-1.48a27.42,27.42,0,0,0,0-10.32.83.83,0,0,0-.79-.6.81.81,0,0,0-.58.25.78.78,0,0,0-.23.57v.53c0,.92,0,1.86,0,2.8s-.1,1.87-.22,2.91a27.82,27.82,0,0,1-1.74,6.63,24.25,24.25,0,0,1-3,5.17,25.22,25.22,0,0,1-4.08,4.05,27.67,27.67,0,0,1-5.68,3.28,33,33,0,0,1-8,2.15,39.78,39.78,0,0,1-4.45.33,6.36,6.36,0,0,1-.69-.8l-.13-.15-.37-.46-.38-.48c-.5-.62-1-1.25-1.49-1.88a133.13,133.13,0,0,1-8.28-12.18,113.73,113.73,0,0,1-7.36-14.24l-.09-.21a78.37,78.37,0,0,1-5.48-19.21l0-.17,0-.16a42.81,42.81,0,0,1-.35-5.39,136.45,136.45,0,0,1,33.7-8.63h0c3.76-.5,7.55-.87,11.27-1.11a47.42,47.42,0,0,0,1.1,10.61,54.2,54.2,0,0,0,1.53,5.72,29.1,29.1,0,0,0,2.08,4.88,1.09,1.09,0,0,0,.34.71,1.18,1.18,0,0,0,.84.35,1.81,1.81,0,0,0,.38,0,1.16,1.16,0,0,0,.82-1.25,11,11,0,0,1,.71-2.59,12.92,12.92,0,0,1,1.49-2.53,12.19,12.19,0,0,1,1.76-1.76,9.1,9.1,0,0,1,1.59-.94,6.94,6.94,0,0,1,1.27-.36l.5,0a4.58,4.58,0,0,1,.53,0,4.72,4.72,0,0,1,.83.23,5.25,5.25,0,0,1,.85.5,7.45,7.45,0,0,1,1,1,11.58,11.58,0,0,1,1.13,2,9.65,9.65,0,0,1,.57,2.05,10,10,0,0,1,0,2,11.52,11.52,0,0,1-.67,2.39,16.31,16.31,0,0,1-1.8,3,22.71,22.71,0,0,1-3.84,3.81,24.38,24.38,0,0,1-4.46,2.69,1.35,1.35,0,0,0-.63,1.54,1.49,1.49,0,0,0,.7.85c.91,3.23,1.73,6.5,2.44,9.78a5.67,5.67,0,0,1,.95-.61,7.32,7.32,0,0,1,1.43-.56l.13,0c-.65-3-1.41-6.1-2.29-9.2.6-.28,1.2-.6,1.79-.95a10.9,10.9,0,0,1,1.23-.79,27.33,27.33,0,0,0,2.4-1.9,17.72,17.72,0,0,0,5-7.18,11.14,11.14,0,0,0,.66-4.18,11,11,0,0,0-1.19-4.48,11.35,11.35,0,0,0-1.29-2,8.34,8.34,0,0,0-1.62-1.54,15.34,15.34,0,0,0,1-2.28c.26-.77.5-1.61.76-2.71a36.92,36.92,0,0,0,.89-6,26.36,26.36,0,0,0-.24-5.84,13.88,13.88,0,0,0-1.7-5,9.59,9.59,0,0,0-1.92-2.35,9.3,9.3,0,0,0-1.34-1,9.7,9.7,0,0,0-1.63-.79,11.44,11.44,0,0,0-3.47-.69c-.31,0-.63,0-.94,0a20.23,20.23,0,0,0-3.17.28,1,1,0,0,0-.44-.54,27.05,27.05,0,0,0-6.65-2.84,42.67,42.67,0,0,0-7.48-1.41,91.63,91.63,0,0,0-10.08-.46c-1.56,0-3.12,0-4.68,0h-2.27l-3.78,0a89.37,89.37,0,0,1-11.13-.57,35.7,35.7,0,0,1-8.74-2.26,23.81,23.81,0,0,1-4.61-2.67,22.39,22.39,0,0,1-3.7-3.71c-.39-.52-.77-1.07-1.13-1.62s-.54-.9-.79-1.35l-.34-.59a1.47,1.47,0,0,0-2.68.35m10.32,16.63c-.46-.28-.9-.58-1.34-.91a19.48,19.48,0,0,1-3.23-3.25,19.89,19.89,0,0,1-2.22-3.78,16.09,16.09,0,0,1-1-3.57v-.23a19.11,19.11,0,0,0,2.16,2.57,23,23,0,0,0,5.76,4.18c3.79,2,8.31,3.11,14.22,3.61,2.37.2,4.95.3,8.1.3,2,0,3.91,0,5.86-.07l1.61,0c1.69,0,3.38-.06,5.08-.06a89.9,89.9,0,0,1,10.43.51l.83.1a38.08,38.08,0,0,1,9.39,2.42c.36.15.71.3,1,.46l.22.09a.63.63,0,0,0,0,.29,1.3,1.3,0,0,0,.6.78,1.22,1.22,0,0,0,.64.17,2.46,2.46,0,0,0,.37,0l.55-.08a16.69,16.69,0,0,1,2.15-.14,13.3,13.3,0,0,1,1.55.09,9.89,9.89,0,0,1,2.14.56,8.64,8.64,0,0,1,1.43.83,8.12,8.12,0,0,1,1.14,1.13,10.79,10.79,0,0,1,1,1.84,14.54,14.54,0,0,1,.86,3.28,30.49,30.49,0,0,1-.16,7.8c-.17,1.22-.39,2.54-.69,4.05l-.12.62c-.19,1-.38,1.92-.5,2.87a5.5,5.5,0,0,0-1.46-.25h-.25a7.48,7.48,0,0,0-3.36.91,10.57,10.57,0,0,0-3,2.41,13.67,13.67,0,0,0-2.27,3.42l-.15.33c-.53-1.64-.92-2.88-1.24-4a57.06,57.06,0,0,1-1.77-8.18,36.88,36.88,0,0,1-.31-5.86.94.94,0,0,0-.09-.47,1.47,1.47,0,0,0,0-.32,1.63,1.63,0,0,0-1.52-1.6,177.76,177.76,0,0,0-25.15,3.33,127.27,127.27,0,0,0-25,7.83,85,85,0,0,0-9.28,4.72l-1,.58c1-1.41,1.88-2.55,2.66-3.56,1.66-2.11,3.38-4.11,5.14-6s3.37-3.35,5.06-4.95l1.17-1.1a1.47,1.47,0,0,0,.42-1,1.55,1.55,0,0,0-.42-1.08,1.52,1.52,0,0,0-1-.42,1.5,1.5,0,0,0-1,.39,38.38,38.38,0,0,0-7-.62,46.58,46.58,0,0,0-4.78.25,54.9,54.9,0,0,0-6.43,1c-.47.09-1,.2-1.41.32,1.15-1,2.32-2,3.58-3l.07-.07.12-.09a58.85,58.85,0,0,1,5.51-3.69,54.17,54.17,0,0,1,6.1-3c.61-.26,1.21-.5,1.81-.72a1.26,1.26,0,0,0,.67-.52,1.12,1.12,0,0,0,.11-.86,1.16,1.16,0,0,0-1.08-.83.76.76,0,0,0-.3.05c-.31.09-.62.2-.94.31a.39.39,0,0,0-.1-.08m-7,100.68-.29,0-2.76-.45c-1.79-.28-3.59-.57-5.38-.88a.58.58,0,0,0,.28-.42,10.43,10.43,0,0,1,.57-2,4.44,4.44,0,0,1,.47-.82,3.41,3.41,0,0,1,.37-.39l.28-.16.29-.08h.41a3.62,3.62,0,0,1,.62.18,7.61,7.61,0,0,1,1.35.83,21.08,21.08,0,0,1,2.51,2.46c.34.39.66.78,1,1.17l.08.11.48.58Zm7.23,1.3-1.73-.35a15.12,15.12,0,0,0-1-3.34l-.2-.49.08,0,.09,0a5.34,5.34,0,0,1,1-.29,2.68,2.68,0,0,1,.4,0,2.06,2.06,0,0,1,.35,0,3.34,3.34,0,0,1,.52.14,2.22,2.22,0,0,1,.42.25,3.59,3.59,0,0,1,.39.39,4.13,4.13,0,0,1,.33.58,6.35,6.35,0,0,1,.34,1.27c0,.44.06.91.06,1.52a1,1,0,0,0,.22.65l-1.32-.27m-25.55-.58a5,5,0,0,1,0-.95q.06-.29.15-.57c.06-.11.12-.22.19-.33l.2-.2.27-.16.45-.11.31,0h.1a1,1,0,0,0,.77,1c4.35,1,8.81,1.69,13.12,2.4l.17,0,1.74.29c3.1.52,5.41.93,7.51,1.33,1.25.24,2.49.49,3.74.75l1,.21,1.4.29h-.1a.55.55,0,0,0-.18,0,1,1,0,0,0-.58.44,1,1,0,0,0-.1.76c1.23,3.12,2.61,6.22,3.95,9.23l.1.21c.93,2.09,1.88,4.21,2.77,6.32v-.13c.3.82.63,1.62,1,2.43l.32.77c.26.61.51,1.22.76,1.83s.52,1.22.79,1.83c-.62-.38-1.27-.74-1.92-1.09a49,49,0,0,0-7.15-3.38,12.77,12.77,0,0,0-3.17-.69h-.34a6.15,6.15,0,0,0-2.42.55,3.53,3.53,0,0,0-.91.61,2.6,2.6,0,0,0-.65,1,1.84,1.84,0,0,0-.11.86,3.24,3.24,0,0,0,.34,1.17,4.41,4.41,0,0,0,.63,1,6.17,6.17,0,0,0-.65,2.56,5.14,5.14,0,0,0,.42,2.25c.08.18.16.35.25.52a.58.58,0,0,0-.06.28,9.19,9.19,0,0,0,.26,2.13,10.21,10.21,0,0,0,.76,2,9.93,9.93,0,0,0,.51.9.9.9,0,0,0-.31.33,1.12,1.12,0,0,0-.12.91,13,13,0,0,0,1.54,2.8c.18.24.37.48.56.71a22.88,22.88,0,0,0-2.89-1.11c-.51-1.26-1.11-2.52-1.7-3.74l-.1-.22-.52-1.07c-.86-1.81-1.73-3.62-2.61-5.41-2-4.08-3.68-7.42-5.28-10.54a204.31,204.31,0,0,0-10.75-18.92,90.43,90.43,0,0,1,11.71,2.75c.67.19,1.35.39,2,.6l.61.18,3.4,1c1.17.32,2.14.58,3.06.8a22.26,22.26,0,0,0,3.25.54,1.23,1.23,0,0,0,1.06-1.84,1.37,1.37,0,0,0-.73-.56,25.9,25.9,0,0,0-2.91-.95l-.12,0c-1.09-.31-2.18-.59-3.27-.87q-3.16-.79-6.33-1.55a109.32,109.32,0,0,0-13-2.38h0a.93.93,0,0,0-.45.1,1.05,1.05,0,0,0-.34-.14,1.29,1.29,0,0,0-.4-.06,1.46,1.46,0,0,0-.77.21.78.78,0,0,0-.2.14Zm32.32,5.37-.29-.72a1.07,1.07,0,0,0-.45-.59l-.13-.06c.33.08.66.14,1,.19l.26,0c1.45,3,2.92,6.2,4.5,9.92.86,2.05,1.71,4.16,2.56,6.27l.58,1.44.13.32c.26.65.53,1.3.8,1.95a1,1,0,0,1-.07-.15c-.79-1.66-1.67-3.37-2.37-4.74l-.54-1.05c-2.22-4.34-4.06-8.25-5.62-11.95v0Zm-30.85,2.29a3.78,3.78,0,0,1-.49-.49,2.78,2.78,0,0,1-.28-.47,4.91,4.91,0,0,1-.15-.51c0-.21,0-.41,0-.62s0-.2.06-.28a6.58,6.58,0,0,0,1.5.76l.23.05.2.32.25.43a.74.74,0,0,0-.48.4c-.13.24-.24.47-.35.72a3.66,3.66,0,0,1-.49-.31m2.62,2.95a1,1,0,0,0,.73-.35l.57,1.06.37.67.12.22.22.39a.93.93,0,0,0-.33.33,8.39,8.39,0,0,0-.73,1.18l-.41-.28a3.75,3.75,0,0,1-.63-.63,4.61,4.61,0,0,1-.41-.7,4.43,4.43,0,0,1-.24-.92,5.16,5.16,0,0,1,0-1,3.54,3.54,0,0,0,.73.07Zm2.79,6.25a1.06,1.06,0,0,0,1-.78l0-.12.58,1.22.61,1.21a.44.44,0,0,0-.12.1l-.56.76c-.2-.13-.41-.26-.62-.41a4.39,4.39,0,0,1-.65-.64,3.16,3.16,0,0,1-.35-.59c0-.13-.09-.27-.13-.41a1.16,1.16,0,0,0,0-.37l.17,0Zm49.38,12.85a16,16,0,0,1-1.64-1.08c-.48-.39-1-.82-1.51-1.34,1.17-1.16,2.24-2.25,3.26-3.33s1.57-1.69,2.18-2.41v.81c0,.41,0,.82,0,1.24,0,1.33-.06,2.63-.12,3.75l0,.63,0,.42c0,.27,0,.54,0,.81v.18a7.29,7.29,0,0,0,0,1.4,5.18,5.18,0,0,0-.62-.33l-.11-.06a1.4,1.4,0,0,0-.63-.16l-.2,0a1.38,1.38,0,0,0-.52-.55m-45.21-4.41a5,5,0,0,1-.61-.61,3.3,3.3,0,0,1-.32-.55,4.37,4.37,0,0,1-.17-.62,4.82,4.82,0,0,1,0-.76,5.77,5.77,0,0,1,.21-.79.93.93,0,0,0,.6-.3l.16.41.2.4,1,2a1,1,0,0,0-.48.45,5.12,5.12,0,0,0-.3.57l-.25-.17m34.91,4.42a1.08,1.08,0,0,0,.31-.83,10.64,10.64,0,0,0-.81-3l-.15-.4c-.27-.75-.56-1.49-.86-2.22.4.28.83.57,1.33.94a42,42,0,0,1,3.45,3.2l.77.76a24.33,24.33,0,0,0,4.89,3.91,8.53,8.53,0,0,1,.45,1.78,15.79,15.79,0,0,1,0,3.57,17.47,17.47,0,0,1-1.13,4,27.4,27.4,0,0,1-1.26,2.46c-.2.34-.41.68-.62,1-.33.52-.68,1.06-1,1.6a1.32,1.32,0,0,0-.14.8c-1.2.29-2.13.49-3,.63a23.22,23.22,0,0,1-2.79.17,24.72,24.72,0,0,1-3.27-.22,26.78,26.78,0,0,1-6.54-1.79,21.63,21.63,0,0,1-4.55-2.63c-.24-.19-.46-.38-.69-.58a13.16,13.16,0,0,0,5.78,2,1,1,0,0,0,.81-1.48.83.83,0,0,0-.55-.41,20.57,20.57,0,0,1-3.39-1.05,16.88,16.88,0,0,1-3.53-2,13.58,13.58,0,0,1-2.25-2.23,10,10,0,0,1-1.09-1.86,4.24,4.24,0,0,1-.18-.5,8.47,8.47,0,0,0,1.18,1,21.76,21.76,0,0,0,4.87,2.67,21.08,21.08,0,0,0,4.77,1.36c.3.05.61.09.91.11a1,1,0,0,0,1-.74,1,1,0,0,0-.11-.77.94.94,0,0,0-.6-.46,30.06,30.06,0,0,1-6.51-1.93,18.1,18.1,0,0,1-3.66-2.08,10.25,10.25,0,0,1-1.7-1.63,6,6,0,0,1-.74-1.22,5,5,0,0,1-.29-1.07,4.35,4.35,0,0,1,0-1,5.28,5.28,0,0,1,.19-.76,6.07,6.07,0,0,0,.69.64,34.5,34.5,0,0,0,4.29,3c1.41.84,2.89,1.63,4.4,2.34.63.3,1.28.58,2,.86a11,11,0,0,0,1.44.49l.2,0a.79.79,0,0,0,.23-1.56c-.3-.09-.58-.2-.86-.31a40.35,40.35,0,0,1-4.31-2.22,43.67,43.67,0,0,1-4.89-3.23l0,0,0,0a17.4,17.4,0,0,1-2.53-2.41,6.82,6.82,0,0,1-.41-.68l-.07-.25a1.35,1.35,0,0,1,.22-.14,4.8,4.8,0,0,1,.87-.22h.29l.51,0a12.62,12.62,0,0,1,2.33.72c1.08.47,2.1,1,3.31,1.67s2.51,1.41,3.87,2.22c1.15.68,2.39,1.4,3.61,2.05a19.05,19.05,0,0,0,3.18,1.43,1.48,1.48,0,0,0,.46.08,1.8,1.8,0,0,0,1.68-1.29,1.71,1.71,0,0,0-.85-2h.06a1.28,1.28,0,0,0,.95-.43m-2.08,0-.47-.21A16.7,16.7,0,0,0,992,330l.24.53.06.12a8.47,8.47,0,0,0,1.13,1.87l-.19-.08m-29.73.94a3.91,3.91,0,0,1-.58-.57,3.65,3.65,0,0,1-.32-.54,4,4,0,0,1-.18-.66,4.85,4.85,0,0,1,0-.66,1.11,1.11,0,0,0,.56-.69c.5,1,1,2.11,1.57,3.17a.51.51,0,0,0-.12.13l-.2.26a5.33,5.33,0,0,1-.72-.44m4,6.34v0a6,6,0,0,1-1-.26,6.38,6.38,0,0,1-.57-.32c-.1-.09-.2-.2-.3-.31a1.71,1.71,0,0,1-.21-.35,2.7,2.7,0,0,1-.11-.43,3.31,3.31,0,0,1,0-.63,6.46,6.46,0,0,1,.28-1l0-.1a.94.94,0,0,0,.37-.07c.55,1.08,1.15,2.18,1.79,3.28a.49.49,0,0,0-.15.19Zm2.7,4.84a4,4,0,0,1-.57-.32l-.25-.25c0-.08-.1-.16-.14-.24s-.07-.25-.1-.37a5.47,5.47,0,0,1,0-.57,6.17,6.17,0,0,1,.19-.74c.62,1.06,1.19,1.94,1.78,2.77a6.68,6.68,0,0,1-.92-.28m21.35,47.64a1.18,1.18,0,0,0,.25-.1,1,1,0,0,0,1,.77c.64,0,1.25,0,1.86,0,1.42,0,2.88.06,4.34.17a8.14,8.14,0,0,0-.75,1.36c-1.09-.23-2.21-.46-3.32-.67a2,2,0,0,0-.41,0,1.37,1.37,0,0,0-.47.07l-2.77-1.51.07,0,.22,0m8.63,2.56c.24-.42.47-.81.72-1.19a.83.83,0,0,0,.13-.41l2.13.28-.13-.06c2.94.44,5.88,1,8.75,1.7-.1.4-.2.8-.29,1.2l-.08.36-.19.82c-3.46-1-7.07-1.85-11-2.7m24.48,7.2c-3-1.21-6.21-2.33-9.77-3.43l-1.68-.5c.26-.8.46-1.64.63-2.38a92.7,92.7,0,0,1,12.73,4.3c2.13.91,4.22,1.88,6.21,2.89-.19.76-.41,1.55-.69,2.46-2.19-1.11-4.62-2.2-7.43-3.34m-30.29,7.83a46.41,46.41,0,0,1,1.87-5.55,41.91,41.91,0,0,1,3.48-6.5l3.33.78a53.7,53.7,0,0,0-5.42,14.05l0,.2-.08.33c-1.11-1.13-2.16-2.25-3.13-3.31m39.73-3.42-.09,0-.09-.05a17.28,17.28,0,0,0,.78-2.46l2.47,1.4-.12.26-.1.27a19.38,19.38,0,0,1-.89,1.75c-.64-.39-1.3-.76-2-1.12M1048,417.82c-.24-.33-.49-.65-.74-1-.48-.62-1-1.23-1.53-1.79a34.37,34.37,0,0,0-3.4-3.14,55.62,55.62,0,0,0-4.58-3.32,10.81,10.81,0,0,0,1.2-2.31c2.36,1.47,4.61,3,6.68,4.59.67.52,1.34,1.05,2,1.58l.67.56.36.3.29.24c.25.2.48.4.71.61a15.09,15.09,0,0,1-.53,1.51,20.29,20.29,0,0,1-1.1,2.18Z" style="fill:#161616"/><path d="M1059.8,313.6c0,1.76-.12,3.8-.26,6a25.59,25.59,0,0,1,2.4-1.36c.08-1.6.13-3.14.17-4.6a1.1,1.1,0,0,0-.32-.8,1.19,1.19,0,0,0-.84-.36,1.16,1.16,0,0,0-1.15,1.15" style="fill:#161616"/><path d="M996,273.53a16,16,0,0,0-1.57.5l1.38,1.75c.09.11.17.23.25.34l.6-.17a1.26,1.26,0,0,0-.34-2.47,1.19,1.19,0,0,0-.32,0" style="fill:#161616"/><path d="M989,301.82a1.18,1.18,0,0,0,1.59-1.62l-.07-.1c-.53.55-1,1.13-1.52,1.72" style="fill:#161616"/><path d="M986,257.79c.18.47.36.94.56,1.41,0,.11.09.22.14.33.2-.29.39-.58.6-.87a.8.8,0,0,0-.28-1.08.81.81,0,0,0-.39-.1.87.87,0,0,0-.63.31" style="fill:#161616"/><path d="M962.67,207.49c-.83.72-1.64,1.46-2.42,2.23a2,2,0,0,1-.44.33c.65-.14,1.3-.27,2-.36,1.14-.15,2.29-.18,3.41-.37a.81.81,0,0,0,.6-.79.82.82,0,0,0-.6-.79,8.21,8.21,0,0,0-2.15-.25h-.36" style="fill:#161616"/><path d="M967.24,233.49a9,9,0,0,0,0,1,16.26,16.26,0,0,1,1.68-1.29.86.86,0,0,0-1.68.25" style="fill:#161616"/><path d="M979.56,235.79c.06.59.13,1.17.2,1.75s.16,1.14.25,1.7c0,.12.07.24.11.36a7.64,7.64,0,0,0,.67-2.9,1,1,0,0,0-.7-.92l-.24,0a1,1,0,0,0-.29,0" style="fill:#161616"/><path d="M1012.83,282.9a.83.83,0,0,0,0,1.18,7.57,7.57,0,0,1,.88.91,7.66,7.66,0,0,1,.74,1.27c.08.2.15.42.22.63a.87.87,0,0,0,1.67-.46,7.74,7.74,0,0,0-2.33-3.53.89.89,0,0,0-.59-.24.85.85,0,0,0-.59.24" style="fill:#161616"/><path d="M987.73,261.79l0,.08a1.72,1.72,0,0,0,.29-.93,1.57,1.57,0,0,0-.46-1.11,1.6,1.6,0,0,0-.94-.45c.35.8.71,1.61,1.08,2.41" style="fill:#161616"/><path d="M967.83,294.54c0,.35.07.69.12,1a.94.94,0,0,0,.92.71,1,1,0,0,0,.93-.71c0-.25.08-.49.11-.74a20.92,20.92,0,0,1-1.38-2.91c-.19-.51-.37-1-.53-1.54a27.52,27.52,0,0,0-.17,4.16" style="fill:#161616"/><path d="M1039.46,248a1.39,1.39,0,0,0-.84.64,1.44,1.44,0,0,0-.14,1.09,1.46,1.46,0,0,0,.64.84l.27.2a2.4,2.4,0,0,1,.81-.56,3.49,3.49,0,0,1,.72-.37l.41-.16.67-.44c-.47-.37-1-.74-1.45-1.1a1.18,1.18,0,0,0-.69-.19,1.25,1.25,0,0,0-.4.05" style="fill:#161616"/><path d="M1090.17,381.25a19.14,19.14,0,0,1-2.25.75,12.55,12.55,0,0,0,2.12-.38,6.31,6.31,0,0,0,2.23-1.11,3.58,3.58,0,0,0,.56-.54,23.24,23.24,0,0,1-2.66,1.28" style="fill:#161616"/><path d="M964.94,422c-3.46.36-6.9.92-10.31,1.59-6.77,1.35-13.43,3.2-20.07,5.1-3,.87-6.08,1.76-9.13,2.62a1.19,1.19,0,1,0,.63,2.29c12.25-3.46,24.46-7.23,37.1-9,4-.53,8.05-.85,12.09-1a.94.94,0,1,0,0-1.88c-1.06-.07-2.13-.1-3.19-.1a70.45,70.45,0,0,0-7.12.39" style="fill:#161616"/><path d="M1054.39,415.59a1.18,1.18,0,0,0,0,2.36,203.52,203.52,0,0,1,23.17-.1c6.43.32,12.84.93,19.23,1.71-.4-.84-.79-1.69-1.14-2.55q-3.2-.37-6.4-.69c-7.44-.72-14.92-1.13-22.4-1.13q-6.24,0-12.46.4" style="fill:#161616"/><path d="M1105.68,418.41q.71.7,1.47,1.35a1.61,1.61,0,0,1,.37,0,2.28,2.28,0,0,1,1.52.6c.3.28.61.54.92.8l.55.39c8,1.26,15.87,2.69,23.8,4.15a1,1,0,0,0,.79-.1,1,1,0,0,0,.47-.61,1,1,0,0,0-.72-1.27c-9.69-2-19.42-3.85-29.21-5.31,0,0,0,0,0,0" style="fill:#161616"/><path d="M1137,399.46a1,1,0,0,0-.59.45,1,1,0,0,0-.1.76c1.64,4,3.22,8.11,4.55,12.26.66,2.1,1.26,4.22,1.77,6.35.27,1.13.51,2.27.72,3.41-2.14-2.17-4.23-4.4-6.39-6.56-1.47-1.47-3-2.91-4.53-4.3-.77-.68-1.56-1.35-2.36-2s-1.61-1.3-2.47-1.88a.82.82,0,0,0-1,.13.83.83,0,0,0,0,1.18,30.09,30.09,0,0,1,2.91,3.26l-.09-.12c2.84,3.69,4.94,7.87,7.39,11.81a.81.81,0,0,0,1.11.29.8.8,0,0,0,.28-1.1c-1.61-2.6-3.07-5.29-4.68-7.89l-.48-.77q1.59,1.53,3.14,3.11c2.67,2.71,5.26,5.51,7.92,8.24a.93.93,0,0,0,.91.23,1,1,0,0,0,.42-.23,1,1,0,0,0,.28-.67,72.45,72.45,0,0,0-2.92-12.83c-.42-1.34-.86-2.67-1.33-4q1.68,2.63,3.27,5.29c1.31,2.21,2.57,4.45,3.74,6.74s2.31,4.71,3.35,7.12a.89.89,0,0,0,.31.3.84.84,0,0,0,1.23-.95,71.21,71.21,0,0,0-3.16-7.09c-1.17-2.35-2.44-4.64-3.77-6.91-2.63-4.49-5.48-8.83-8.32-13.19a1,1,0,0,0-.85-.49,1.09,1.09,0,0,0-.25,0m-7.47,13.11,0-.05,0,.05" style="fill:#161616"/><path d="M1161.06,413.93a17,17,0,0,0-3.74,5.21c-1,2.07-1.69,4.25-2.49,6.38a.91.91,0,0,0,1.33,1,.93.93,0,0,0,.41-.54c.61-1.65,1.18-3.31,1.86-4.94a20.1,20.1,0,0,1,2.15-3.91c0,1,0,1.92,0,2.87a40,40,0,0,1-.11,5.79,1.06,1.06,0,0,0,0,.5.94.94,0,0,0,.44.56.92.92,0,0,0,1.14-.15,33.22,33.22,0,0,1,4.8-4.53l1.72-1.42c-.09.31-.17.62-.25.93a43.12,43.12,0,0,1-1.61,5.1c-.07.17-.15.34-.23.51a1,1,0,0,0,.15,1.18,1.1,1.1,0,0,0,.43.25.94.94,0,0,0,.75-.1,39,39,0,0,1,4-2.62c1.35-.77,2.73-1.47,4.13-2.13,2.82-1.35,5.7-2.56,8.5-4a.9.9,0,0,0-.21-1.63,1,1,0,0,0-.69.09c-2.81,1.37-5.71,2.57-8.54,3.9a55.67,55.67,0,0,0-5.66,3c.25-.77.47-1.56.69-2.34a40,40,0,0,1,1.49-4.93.64.64,0,0,0,0-.07,1,1,0,0,0,.14-.49,1,1,0,0,0-1.67-.69,20,20,0,0,1-2,1.94c-.83.73-1.69,1.42-2.54,2.12-1,.84-2,1.7-3,2.62,0-1,0-2,0-3s0-2,0-2.94a20.76,20.76,0,0,1,.12-2.49,1.42,1.42,0,0,1,0-.2,1,1,0,0,0,0-.49,1,1,0,0,0-.42-.54.86.86,0,0,0-.45-.13,1,1,0,0,0-.66.27m-.54,11.76s0,.05,0,.07v-.07m0,.1v0h0v0" style="fill:#161616"/><path d="M1183.63,426.51a71.12,71.12,0,0,0-7.63,2.55.94.94,0,0,0-.53.41.86.86,0,0,0-.09.68.89.89,0,0,0,.41.54.88.88,0,0,0,.69.09q3.74-1.48,7.61-2.6a.86.86,0,0,0-.23-1.7.91.91,0,0,0-.23,0" style="fill:#161616"/><path d="M1051.07,423.58c-1.39,0-2.77,0-4.15,0a.76.76,0,0,0,0,1.52c2.82.06,5.66.05,8.49.05a174.21,174.21,0,0,1,22.95,1l.21,0,1.35.2a2,2,0,0,1,1.16-.36,14.66,14.66,0,0,0,2-.1,15.47,15.47,0,0,0,2.12-.48,72.07,72.07,0,0,0-7.3-1.19c-3-.34-5.93-.52-8.91-.61-2.19-.06-4.39-.09-6.58-.09-3.78,0-7.56.07-11.33.08" style="fill:#161616"/><path d="M1078.57,426.13h0" style="fill:#161616"/><path d="M1045.12,429.84a.79.79,0,0,0,.78.77l8.25.41c2.75.13,5.5.26,8.26.33a.76.76,0,0,0,.75-.76.76.76,0,0,0-.75-.75c-2.76-.15-5.51-.25-8.26-.38l-8.25-.39h0a.79.79,0,0,0-.74.77" style="fill:#161616"/><path d="M1046.23,435.59a.41.41,0,0,0,.14.31.44.44,0,0,0,.31.13q4.13.32,8.24.8a.4.4,0,0,0,.29-.12.41.41,0,0,0,0-.6.45.45,0,0,0-.29-.12q-4.11-.53-8.24-.84h0a.45.45,0,0,0-.42.44" style="fill:#161616"/><path d="M1063.89,404.82a.48.48,0,0,0,0,.68c3.42,3.39,7,6.65,10.7,9.69a.53.53,0,0,0,.35.15.43.43,0,0,0,.33-.15.46.46,0,0,0,0-.67c-1.84-1.55-3.66-3.12-5.45-4.73s-3.53-3.28-5.24-5a.47.47,0,0,0-.34-.14.47.47,0,0,0-.35.14" style="fill:#161616"/><path d="M1063.32,389.23a.6.6,0,0,0-.18.42.64.64,0,0,0,.18.41q4.54,5.79,9.51,11.22,2.52,2.75,5.14,5.38c1.74,1.76,3.52,3.49,5.36,5.15a.62.62,0,0,0,.84,0,.61.61,0,0,0,0-.84c-1.75-1.67-3.51-3.34-5.22-5.05s-3.47-3.55-5.15-5.37c-3.36-3.64-6.57-7.43-9.65-11.32a.54.54,0,0,0-.41-.18.6.6,0,0,0-.42.18" style="fill:#161616"/><path d="M1074,388.46c2.36,2.67,4.79,5.29,7.31,7.82a.63.63,0,0,0,.89-.89c-2.49-2.48-4.92-5-7.27-7.62q-2.85-3.16-5.53-6.48l-.62-.32c-.43-.08-.86-.17-1.28-.28q3.15,4,6.5,7.77" style="fill:#161616"/><path d="M1078.72,382.68a57.15,57.15,0,0,0,6,5.91.62.62,0,0,0,.43.18.61.61,0,0,0,.42-1,57,57,0,0,1-5.36-5.18l-1.53.12" style="fill:#161616"/><path d="M997.65,42.12a1.31,1.31,0,0,0,0,1.81c2.5,2.76,5.17,5.36,7.85,7.94s5.38,5.07,8.06,7.61a141.84,141.84,0,0,1,14.65,15.57l-.09-.11.19.24.1.13-.06-.08A65.65,65.65,0,0,1,1036.51,89a57.58,57.58,0,0,1,2.94,9.11c.83,3.57,1.47,7.18,2,10.8l0-.24c2.5,18.94,1.57,38.11.38,57.11-.76,12.2-1.72,24.41-1.92,36.64a1.06,1.06,0,0,0,2.12,0c.32-18.91,2.49-37.72,3.36-56.6a269.58,269.58,0,0,0,0-28.57c-.28-4.66-.8-9.3-1.5-13.91-.33-2.22-.71-4.44-1.18-6.63a52.38,52.38,0,0,0-1.62-5.89,57.92,57.92,0,0,0-5-10.8,75.43,75.43,0,0,0-6.74-9.52A150.54,150.54,0,0,0,1013,54.07c-2.24-2-4.5-4-6.75-5.94s-4.51-4-6.76-6a1.4,1.4,0,0,0-.94-.36,1.23,1.23,0,0,0-.88.36m30.7,33.11,0,0a1.13,1.13,0,0,1-.1-.13l.14.18" style="fill:#161616"/><path d="M996.42,21.71a1.19,1.19,0,0,0-.42,1.6c.23.46.45.93.65,1.4a23.8,23.8,0,0,1,1.63,5.87,19.74,19.74,0,0,1,0,4.48,17.1,17.1,0,0,1-1.07,4,16.11,16.11,0,0,1-1.72,3,14.45,14.45,0,0,1-2.35,2.34,14.74,14.74,0,0,1-3,1.75,18.25,18.25,0,0,1-4,1.07h0a1.3,1.3,0,0,0-.85.35,1.21,1.21,0,0,0,0,1.68,1.13,1.13,0,0,0,.85.35,20.49,20.49,0,0,0,4.09-.91A17.07,17.07,0,0,0,993.63,47,15.77,15.77,0,0,0,998.72,42a16.61,16.61,0,0,0,2.35-6.83,19.58,19.58,0,0,0-3.05-13,1.24,1.24,0,0,0-1-.58,1.13,1.13,0,0,0-.58.16M990.36,46l-.08,0,.08,0" style="fill:#161616"/><path d="M1020.55.86c0,.48-.07,1-.13,1.46a17.68,17.68,0,0,1-1.08,4.05,16.56,16.56,0,0,1-1.86,3.21,18.39,18.39,0,0,1-2.93,2.92,24.43,24.43,0,0,1-5.16,2.95,38.82,38.82,0,0,1-9.6,2.51l.34-.05a48.26,48.26,0,0,1-12.42,0q-.93-.14-1.86-.3a1.24,1.24,0,0,0-.94.12,1.25,1.25,0,0,0-.56.73A1.22,1.22,0,0,0,985.2,20a49.11,49.11,0,0,0,14.62.49,35.16,35.16,0,0,0,14.51-4.53,19.38,19.38,0,0,0,6.29-6.06,16.48,16.48,0,0,0,2.43-9,1.25,1.25,0,0,0-2.5,0m-1.24,5.6a1,1,0,0,1-.07.15,1,1,0,0,0,.07-.15m-1.72,3-.07.09.07-.09" style="fill:#161616"/><path d="M1009.1,17a1.43,1.43,0,0,0-.65.85,1.35,1.35,0,0,0,.15,1.09,104.3,104.3,0,0,0,14.69,16.3,72.78,72.78,0,0,0,8.88,6.77,52.22,52.22,0,0,0,4.72,2.69,37.84,37.84,0,0,0,5,2.15l.61.19a1.14,1.14,0,0,0,1.3-.53,1.15,1.15,0,0,0-.41-1.58A82.91,82.91,0,0,1,1036,41a71.91,71.91,0,0,1-6.76-4.61,94.67,94.67,0,0,1-16.63-16.84l.08.12-.13-.18-.09-.11,0,0q-.75-1-1.47-2a1.53,1.53,0,0,0-.85-.65,1.2,1.2,0,0,0-.38-.05,1.41,1.41,0,0,0-.72.19M1029,36.2l.27.21Zm-16.4-16.69,0,.06a.64.64,0,0,1-.1-.13.18.18,0,0,0,.05.07" style="fill:#161616"/><path d="M1042.22-2c0,1,.12,2,.21,3s.19,2.15.28,3.23q.3,3.12.54,6.24.48,6.27.63,12.57a203.71,203.71,0,0,1-.91,25.07c0,.41-.09.82-.13,1.24a1.11,1.11,0,0,0,.35.84,1.2,1.2,0,0,0,1.67,0,1.22,1.22,0,0,0,.35-.84,216.11,216.11,0,0,0,1.17-25q-.06-6.3-.45-12.58c-.26-4.18-.61-8.38-1.25-12.52-.08-.49-.17-1-.28-1.46a1.1,1.1,0,0,0-1.07-.81A1.12,1.12,0,0,0,1042.22-2" style="fill:#161616"/><path d="M1141.52-2.14c-3.38,54.49-7.06,109-9.77,163.49-2.34,47.2-3.93,94.45-3.88,141.71.8.53,1.63,1,2.47,1.5l.5.13q0-36.54,1-73.06c1.41-54.52,4.3-109,7.57-163.41q2.12-35.17,4.34-70.36a1.11,1.11,0,0,0-1.09-1.09,1.11,1.11,0,0,0-1.1,1.09" style="fill:#161616"/><path d="M1127.89,311.25l0,4.89,1.67.41a2,2,0,0,1,1.3,1.06l0-4.1c0-1.1,0-2.21,0-3.31-1,.33-2,.68-3,1.05" style="fill:#161616"/><path d="M1130.31,320.21a4,4,0,0,1-.49.42l-.52.34a1.94,1.94,0,0,1-.34.47l-1,.92c0,.88,0,1.76,0,2.64q.06,5.25.17,10.5c.21-.28.42-.56.64-.83a15.13,15.13,0,0,1,1.3-2,12.2,12.2,0,0,1,.89-1q-.07-6.1-.12-12.2a2,2,0,0,1-.59.7" style="fill:#161616"/><path d="M1128.76,368.37c.2,7,.6,14,1.43,21a82.94,82.94,0,0,0,4.64,20.53,1.07,1.07,0,0,0,.47.61,1,1,0,0,0,1.5-1.15c-.3-1.44-.64-2.87-.94-4.31-.36-1.68-.69-3.37-1-5.06-.61-3.17-1.13-6.34-1.56-9.53,0,.13,0,.26,0,.39-1.6-12.23-1.85-24.56-2-36.88a14.83,14.83,0,0,1-1.26-1.12,12.64,12.64,0,0,1-1.61-1.49c.07,5.67.12,11.34.28,17" style="fill:#161616"/><path d="M1038.13,90.84a22.32,22.32,0,0,1-1.49,2.24,19.7,19.7,0,0,1-7.84,6,21.1,21.1,0,0,1-5,1.38,19.61,19.61,0,0,1-4.72,0,19,19,0,0,1-4.31-1.17,18.46,18.46,0,0,1-3.6-2.09,20.22,20.22,0,0,1-3.53-3.57l0,.06a1.3,1.3,0,0,0-.72-.53,1.27,1.27,0,0,0-1.43,1.86,20,20,0,0,0,3,3.39,18.62,18.62,0,0,0,3.45,2.48,19.26,19.26,0,0,0,7.83,2.32,20.54,20.54,0,0,0,7.9-.94,22.48,22.48,0,0,0,7.28-4,22.75,22.75,0,0,0,5.28-6.2,1.25,1.25,0,0,0-.44-1.69,1.27,1.27,0,0,0-.62-.16,1.24,1.24,0,0,0-1.08.6m-1.32,2-.12.15Z" style="fill:#161616"/><path d="M977.7,92.51a1.26,1.26,0,0,0-.44,1.69,14.24,14.24,0,0,0,5,5.58,13.07,13.07,0,0,0,6.41,1.86,17.45,17.45,0,0,0,6.66-1.19,25,25,0,0,0,6.31-3.5,27.69,27.69,0,0,0,3.26-2.86,1,1,0,0,0-1.37-1.37,25.75,25.75,0,0,1-2.59,2.31,24,24,0,0,1-4.87,2.86,19.41,19.41,0,0,1-4.55,1.3,14.62,14.62,0,0,1-3.62,0,12.82,12.82,0,0,1-2.73-.74,12,12,0,0,1-2.32-1.36,13.44,13.44,0,0,1-2.21-2.25A18.7,18.7,0,0,1,979.39,93a1.22,1.22,0,0,0-1.07-.6,1.25,1.25,0,0,0-.62.16m23.42,2.39L1001,95l.17-.12m-9.6,4.29-.3,0,.3,0" style="fill:#161616"/><path d="M932.23,68.38a26.25,26.25,0,0,0,1,9.28,21.41,21.41,0,0,0,4.08,7.52,23.58,23.58,0,0,0,6.15,5.24,29.21,29.21,0,0,0,7.67,3.16,37.51,37.51,0,0,0,27.51-3.76,1.53,1.53,0,0,0-1.54-2.64,34.54,34.54,0,0,1-3.38,1.71,35.66,35.66,0,0,1-8.67,2.34,36.22,36.22,0,0,1-9,0,32.13,32.13,0,0,1-7.59-2A25.8,25.8,0,0,1,943,86.05a22.45,22.45,0,0,1-3.71-3.71,21.93,21.93,0,0,1-2.55-4.4,24.56,24.56,0,0,1-1.53-5.66,30,30,0,0,1-.21-3.9,1.4,1.4,0,1,0-2.8,0m4.61,9.73a.69.69,0,0,0,0,.1.69.69,0,0,1,0-.1m2.55,4.32.07.1-.07-.1m34.33,6.46-.24.11.24-.11m-25.54.19.1,0-.1,0" style="fill:#161616"/><path d="M910.76,43.88a17.23,17.23,0,0,0,3.66,16.2A20.66,20.66,0,0,0,920.8,65,25.19,25.19,0,0,0,929,67.41a26.67,26.67,0,0,0,4.19.19,1.09,1.09,0,0,0,1.06-1.07,1.08,1.08,0,0,0-1.06-1.07,24.45,24.45,0,0,1-3.92-.18,23.44,23.44,0,0,1-5.45-1.5,22,22,0,0,1-4.38-2.54,19.25,19.25,0,0,1-3.07-3.05,17.93,17.93,0,0,1-2.15-3.66,18.7,18.7,0,0,1-1.12-4.21,25.41,25.41,0,0,1,.14-6.1,1.22,1.22,0,0,0-.18-.65,1.24,1.24,0,0,0-.76-.58,1.26,1.26,0,0,0-.33-.05,1.3,1.3,0,0,0-1.24.94m2.34,6.24s0,.07,0,.1,0-.07,0-.1m0,.28v0m10.75,13.4.2.08-.2-.08" style="fill:#161616"/><path d="M896-7.54a18.58,18.58,0,0,0-3.19,2.46A18.23,18.23,0,0,0,890.37-2a19.21,19.21,0,0,0-2.69,7.16,32.11,32.11,0,0,0,1.87,16.48,40.63,40.63,0,0,0,9.06,14.45,28,28,0,0,0,6.27,4.81,21.89,21.89,0,0,0,3.55,1.54,18.67,18.67,0,0,0,3.69.79,16.66,16.66,0,0,0,5.5-.31,1.42,1.42,0,1,0-.75-2.74c-.36.07-.71.14-1.07.19a15,15,0,0,1-3.54,0,17.16,17.16,0,0,1-4-1.1,22.78,22.78,0,0,1-4.54-2.68,30.72,30.72,0,0,1-5.35-5.46,39.37,39.37,0,0,1-4.73-8.2,39,39,0,0,1-2.59-9.43A29.24,29.24,0,0,1,891,6.36a22.25,22.25,0,0,1,1.39-5.19,18.09,18.09,0,0,1,2.06-3.53,18.24,18.24,0,0,1,3-3l0,0A1.28,1.28,0,0,0,898-6a1.33,1.33,0,0,0-.13-1,1.39,1.39,0,0,0-1.17-.66,1.28,1.28,0,0,0-.66.18m-1.64,5.3-.08.1.08-.1m-2,3.57-.06.14.06-.14m1.4,21.77.06.14-.06-.14M912,40.32l.24,0-.24,0" style="fill:#161616"/><path d="M1018.11,13.21a.88.88,0,0,0-.31,1.2c2.47,3.49,4.82,7.07,7.17,10.65,1.16,1.76,2.32,3.51,3.5,5.25s2.4,3.56,3.72,5.24a1,1,0,0,0,.39.23.89.89,0,0,0,.68-.09.89.89,0,0,0,.32-1.21c-.58-.85-1.18-1.68-1.77-2.52s-1.19-1.7-1.77-2.56q-1.79-2.61-3.52-5.25c-2.37-3.56-4.73-7.14-7.21-10.62a.89.89,0,0,0-.52-.41.91.91,0,0,0-.23,0,.89.89,0,0,0-.45.12" style="fill:#161616"/><path d="M1025.37,8.61a.8.8,0,0,0-.29,1.1q2.57,5,5.28,9.86,1.35,2.45,2.75,4.87c.48.83,1,1.65,1.46,2.48s1,1.65,1.51,2.44a.87.87,0,1,0,1.5-.87c-.44-.78-.92-1.55-1.38-2.31l-1.49-2.47c-1-1.6-1.88-3.22-2.81-4.83q-2.79-4.95-5.43-10a.79.79,0,0,0-.7-.4.71.71,0,0,0-.4.11" style="fill:#161616"/><path d="M1031.66,5.83a.79.79,0,0,0-.28,1.07c2.69,4.8,5.45,9.58,8.33,14.27a.82.82,0,1,0,1.41-.82c-1.42-2.33-2.84-4.65-4.23-7s-2.8-4.81-4.17-7.24a.79.79,0,0,0-1.06-.28" style="fill:#161616"/><path d="M1176.67,73.11a37,37,0,0,1-1.64,5,30.54,30.54,0,0,1-3.7,6.35,28.78,28.78,0,0,1-4.69,4.67,26.83,26.83,0,0,1-5.4,3.17,24.17,24.17,0,0,1-12.91,1.76,27.34,27.34,0,0,1-6.52-1.81,30.07,30.07,0,0,1-4.2-2.22,1.36,1.36,0,0,0-1.37,2.35,31,31,0,0,0,8.89,3.87,27.26,27.26,0,0,0,8.95.75,27.44,27.44,0,0,0,16-6.93,29.64,29.64,0,0,0,9.27-16.21,1.48,1.48,0,0,0-.14-1.09,1.46,1.46,0,0,0-.84-.64,1.49,1.49,0,0,0-.36,0,1.41,1.41,0,0,0-1.37,1m-5.17,11.13-.14.18.14-.18M1148.15,94l.15,0-.15,0m.23,0,.14,0-.14,0" style="fill:#161616"/><path d="M1204.55,64.69a24.43,24.43,0,0,1-1.62,2.43,21.53,21.53,0,0,1-3.58,3.56,19.59,19.59,0,0,1-4,2.34,20.91,20.91,0,0,1-4.87,1.33,23.85,23.85,0,0,1-5.91,0l.18,0-.2,0h0a26.45,26.45,0,0,1-5.67-1.48,1.08,1.08,0,0,0-1.33.76,1.05,1.05,0,0,0,.11.83,1.18,1.18,0,0,0,.64.5,25.2,25.2,0,0,0,16,1,21.11,21.11,0,0,0,7.1-3.65,20.8,20.8,0,0,0,5.35-6.34,1.25,1.25,0,0,0-.44-1.69,1.29,1.29,0,0,0-.62-.17,1.25,1.25,0,0,0-1.08.61m-5,5.83-.15.11.15-.11m-15.06,3.84h0" style="fill:#161616"/><path d="M1255,18.12a1.41,1.41,0,0,0-.83.64,1.56,1.56,0,0,0-.14,1.06l.06.37a38.28,38.28,0,0,1,0,9.86,44.91,44.91,0,0,1-3,10.71,46.51,46.51,0,0,1-5.82,10A42.39,42.39,0,0,1,1238,58a34.49,34.49,0,0,1-7.33,4.33,29,29,0,0,1-6.89,1.91,26.84,26.84,0,0,1-6.52,0,27.73,27.73,0,0,1-7-1.93l-.78-.36a1.39,1.39,0,0,0-1-.13,1.27,1.27,0,0,0-.3,2.31,34.07,34.07,0,0,0,4.47,1.72,27.3,27.3,0,0,0,4.47.93,28.18,28.18,0,0,0,8.55-.23A33.56,33.56,0,0,0,1241,59.13a45.74,45.74,0,0,0,11.09-13.75,44.06,44.06,0,0,0,5.16-17,31.56,31.56,0,0,0-.56-9.25,1.37,1.37,0,0,0-1.36-1,1.32,1.32,0,0,0-.34,0m-17.06,40-.08.06.08-.06" style="fill:#161616"/><path d="M1277.8-14a1.18,1.18,0,0,0-.73.56,1.3,1.3,0,0,0-.12.93c.1.49.19,1,.25,1.49a24.51,24.51,0,0,1,0,6.23,24.44,24.44,0,0,1-1.6,5.87,27.16,27.16,0,0,1-3.34,5.67,29.56,29.56,0,0,1-5,5,31.77,31.77,0,0,1-7,4,30.44,30.44,0,0,1-7.12,2,1,1,0,0,0-.62.47,1,1,0,0,0,.37,1.41,1.14,1.14,0,0,0,.79.1,32.73,32.73,0,0,0,14.64-6,30.81,30.81,0,0,0,5.71-5.41,30.78,30.78,0,0,0,2.29-3.26,27.62,27.62,0,0,0,1.78-3.57,24.56,24.56,0,0,0,1.72-7,23.23,23.23,0,0,0-.56-7.7,1.2,1.2,0,0,0-1.18-.88,1,1,0,0,0-.3,0m-17.46,29.81,0,0,0,0" style="fill:#161616"/><path d="M1134.8,401.59a1.2,1.2,0,0,0,1.19,1.19,159.1,159.1,0,0,1,18.24,1.41l-.32,0c16.1,2.18,31.82,6.53,47.16,11.79s30.19,11.49,45.07,17.75l4.3,1.8,0,0,.06,0,.14.06-.12-.06.13.06a1.25,1.25,0,0,0,.89.12,1.18,1.18,0,0,0,.7-.54,1.15,1.15,0,0,0,.11-.89,1.09,1.09,0,0,0-.53-.69c-3.6-1.56-7.19-3.13-10.79-4.67s-7.41-3.14-11.14-4.67c-7.53-3.11-15.11-6.07-22.77-8.82-15.31-5.5-31-10.12-47.06-12.76a165.3,165.3,0,0,0-24-2.24h0a1.2,1.2,0,0,0-1.17,1.19m115.67,33.91h0" style="fill:#161616"/><path d="M1252.06,406.56a.91.91,0,0,0-.33,1.23c1.71,3.42,3.34,6.87,4.83,10.39l-.09-.21a123.14,123.14,0,0,1,5.3,15.16c-2.2-2-4.34-4-6.48-6.09-3-2.84-5.92-5.71-9.06-8.36a.89.89,0,0,0-1.26,0,.89.89,0,0,0-.26.63,1,1,0,0,0,.26.63l.1.14-.1-.14a46.46,46.46,0,0,1,4.68,7.77c1.35,2.73,2.57,5.53,3.95,8.24a.88.88,0,0,0,1.2.32.89.89,0,0,0,.32-1.21c-1.38-2.71-2.61-5.5-3.95-8.24-.4-.81-.81-1.61-1.24-2.4q2,1.88,4,3.77c2.91,2.79,5.82,5.59,8.86,8.23a1,1,0,0,0,1.11.15.93.93,0,0,0,.41-1,110.6,110.6,0,0,0-4.6-14.51c-.64-1.64-1.31-3.26-2-4.88l2.9,4.14c2.94,4.23,5.8,8.52,8.5,12.92a.84.84,0,0,0,1.45-.84c-2.62-4.38-5.45-8.62-8.34-12.82s-6-8.42-8.88-12.66a1,1,0,0,0-.54-.42l-.24,0a.81.81,0,0,0-.45.13m-7.12,13.34,0,0Z" style="fill:#161616"/><path d="M1279.19,422.54a19.34,19.34,0,0,0-2,2.92,18.09,18.09,0,0,0-1.41,3.33,18.36,18.36,0,0,0-.68,7.22.72.72,0,0,0,.2.47.63.63,0,0,0,.47.2.66.66,0,0,0,.66-.67,18.88,18.88,0,0,1,.06-4.25,17.69,17.69,0,0,1,1.13-4.1,19.24,19.24,0,0,1,2.33-4l0,0,.2-.24a.73.73,0,0,0,.19-.47.7.7,0,0,0-.19-.47.73.73,0,0,0-.49-.19.58.58,0,0,0-.45.19" style="fill:#161616"/><path d="M1290.57,426.1a35.13,35.13,0,0,0-9.31,9.31.72.72,0,0,0,.25,1,.74.74,0,0,0,1-.26c.37-.54.75-1.06,1.15-1.58l-.06.07.07-.09,0-.06,0,0a35.67,35.67,0,0,1,6.21-6.19c.46-.35.92-.69,1.39-1a.78.78,0,0,0,.32-.42.69.69,0,0,0-.07-.53.73.73,0,0,0-.62-.35.56.56,0,0,0-.33.1m-6.92,8.43v0l0-.05,0,0" style="fill:#161616"/><path d="M1298.26,430.79a85.79,85.79,0,0,0-12.61,7.6.84.84,0,0,0-.37.48.77.77,0,0,0,.08.61.81.81,0,0,0,1.09.29c2.34-1.63,4.71-3.23,7.16-4.69-1.23,1.25-2.44,2.51-3.76,3.67a.82.82,0,0,0,.8,1.36c5.85-1.76,12-2.28,17.81-4.2a.74.74,0,0,0,.51-.9.73.73,0,0,0-.9-.51c-4.83,1.51-9.87,2.12-14.8,3.25a66.7,66.7,0,0,1,6-5.69.82.82,0,0,0,.21-.36.8.8,0,0,0-.08-.62.84.84,0,0,0-.48-.37l-.21,0a1,1,0,0,0-.41.1" style="fill:#161616"/><path d="M841.87,401.42a.93.93,0,0,0-.28.67,1,1,0,0,0,.28.66c2.69,3.22,5.34,6.48,7.91,9.8A147.21,147.21,0,0,1,862,430.74c-3.95-1.74-7.93-3.42-12-4.77a48.33,48.33,0,0,0-15.88-2.73.94.94,0,0,0-.9.69.92.92,0,0,0,.43,1.05c7.49,3.18,15,6.6,21.49,11.55,1.26,1,2.48,2,3.64,3.1a.92.92,0,1,0,1.3-1.3c-6.05-5.69-13.39-9.57-20.91-13l.48.06a71.34,71.34,0,0,1,17.72,5.34h0c2.12.9,4.22,1.83,6.32,2.77a.91.91,0,0,0,.48.13.92.92,0,0,0,.66-.28,1,1,0,0,0,.15-1.14,127.17,127.17,0,0,0-10-15.93q-1.34-1.85-2.73-3.66A164.39,164.39,0,0,1,865,427.16l-.14-.18q2.52,3.27,4.85,6.69a.9.9,0,1,0,1.56-.91c-7-10.46-15.62-19.71-24.76-28.29q-1.65-1.53-3.31-3.05a1,1,0,0,0-.67-.27.91.91,0,0,0-.65.27" style="fill:#161616"/><path d="M877.88,419.76a.91.91,0,0,0-.39.51,68.64,68.64,0,0,0-4,14.07,1,1,0,0,0,.09.69.9.9,0,0,0,.53.41.88.88,0,0,0,.69-.09.87.87,0,0,0,.41-.53,77.6,77.6,0,0,1,3.91-14.1.86.86,0,0,0-.6-1.05.85.85,0,0,0-.66.09" style="fill:#161616"/><path d="M884.47,425.73q-3.09,3.93-5.79,8.15a1,1,0,1,0,1.77,1q2.63-4.11,5.57-8a1,1,0,0,0,.14-.5,1,1,0,0,0-.29-.7,1,1,0,0,0-.7-.29,1,1,0,0,0-.7.29" style="fill:#161616"/><path d="M978.77,428.8c-5.81.2-11.62.41-17.42.76s-11.63.87-17.39,1.79a100.69,100.69,0,0,0-13.73,3.13.72.72,0,0,0-.5.88.71.71,0,0,0,.87.49,105.21,105.21,0,0,1,16.85-3.57l-.19,0c5.2-.69,10.43-1.1,15.66-1.4s10.57-.48,15.85-.8a.66.66,0,0,0,0-1.31h0" style="fill:#161616"/><path d="M949.19,435.6a.76.76,0,1,0,0,1.52c3.6-.16,7.21-.18,10.81-.07a.71.71,0,0,0,.72-.71.73.73,0,0,0-.72-.72c-1.87-.09-3.74-.14-5.61-.14s-3.47,0-5.2.12" style="fill:#161616"/><path d="M1175.33,458.93a1,1,0,0,0-.28.68,1,1,0,0,0,.28.68c1.38,1.73,2.77,3.45,4.12,5.19l-.16-.19a68.45,68.45,0,0,1,8.35,13.08c-2.29-1-4.63-1.91-7-2.74-1.55-.55-3.12-1.07-4.69-1.58s-3.11-1-4.67-1.48a.87.87,0,0,0-.67,1.6c2.51,1.28,4.9,2.79,7.3,4.27s4.81,3,7.33,4.26a.84.84,0,0,0,.84-1.45c-2.51-1.29-4.92-2.77-7.32-4.26l-.35-.22c2.36.81,4.7,1.67,7,2.64l-.22-.09q1.92.81,3.78,1.74a.94.94,0,0,0,1.38-1.06,51.62,51.62,0,0,0-6-11.05c-1.29-1.87-2.66-3.69-4.06-5.49.56.4,1.12.81,1.66,1.22l0,0,.14.12,0,0h0A79.34,79.34,0,0,1,1194.39,477a.85.85,0,0,0,.63.25.87.87,0,0,0,.88-.88.92.92,0,0,0-.26-.63c-5.33-6.68-11.64-12.77-19.14-17a1,1,0,0,0-.49-.13,1,1,0,0,0-.68.28m6.77,5.86,0,0-.11-.09.14.11" style="fill:#161616"/><path d="M1204.72,472.89a26.8,26.8,0,0,0-3.74,8.17.87.87,0,0,0,1.67.46,28.2,28.2,0,0,1,1.22-3.56,29.82,29.82,0,0,1,2.26-4.25.81.81,0,0,0-.29-1.11.77.77,0,0,0-.4-.12.89.89,0,0,0-.72.41" style="fill:#161616"/><path d="M1213,476.84q-3.68,2-7.17,4.27a.82.82,0,0,0-.29,1.09.81.81,0,0,0,1.09.28c2.33-1.52,4.71-3,7.14-4.31a.77.77,0,0,0,.28-1.05.75.75,0,0,0-.66-.38.87.87,0,0,0-.39.1" style="fill:#161616"/><path d="M1054.39,40.36q.4,18.53.5,37.07t0,37.08c0,6.11-.12,12.23-.11,18.35a.9.9,0,0,0,1.79,0c.18-6.18.2-12.36.23-18.54s0-12.36,0-18.54q-.15-18.54-.54-37.08l-.39-18.34a.71.71,0,1,0-1.41,0" style="fill:#161616"/><path d="M1055.36,143.87c.12,4,.14,8.07.09,12.11a.67.67,0,1,0,1.34,0q0-6.06-.16-12.11a.64.64,0,1,0-1.27,0" style="fill:#161616"/><path d="M1121.24,11.87a.83.83,0,0,0-.23.55c-.67,6.3-1.26,12.6-1.72,18.92s-.82,12.67-1.11,19c-.58,12.69-.9,25.4-1,38.1-.05,4.94-.11,9.88,0,14.81a1.07,1.07,0,1,0,2.14,0c.1-3.16.12-6.32.16-9.49s0-6.33.08-9.5q.08-9.52.22-19c.09-6.36.28-12.71.53-19.06s.59-12.67,1-19c.35-4.93.76-9.84,1.27-14.75a.79.79,0,0,0-.78-.78.75.75,0,0,0-.55.23" style="fill:#161616"/><path d="M1099.49,146.6c-.47,13-.33,26-.09,39s.61,26,.7,39c0,4.62,0,9.23,0,13.84a1,1,0,1,0,2,0c.19-6.49.17-13,.09-19.49s-.26-13-.45-19.52c-.37-13-.79-26-.72-39,0-4.62.1-9.24.27-13.85a.88.88,0,0,0-.88-.87.89.89,0,0,0-.88.87" style="fill:#161616"/><path d="M1109.07,188.89c1,17.49.67,35,.11,52.54s-1.36,35.12-1.12,52.69q.09,7.35.48,14.7.06,1.24.15,2.49c.35-.1.7-.21,1-.34l.66-.33v-.25c-.23-4.37-.38-8.74-.48-13.12-.19-8.77-.13-17.54,0-26.31.34-17.57,1.12-35.13,1.23-52.71.07-9.79-.1-19.59-.67-29.36a.72.72,0,0,0-1.44,0" style="fill:#161616"/><path d="M1109.12,317c.09.92.19,1.84.32,2.75.08.6.2,1.2.29,1.8s.22,1.36.33,2a.46.46,0,0,0,.91-.12c0-1.05-.07-2.09-.07-3.14s-.08-2.26-.14-3.4c0-.22,0-.44,0-.65-.52.26-1,.5-1.6.71" style="fill:#161616"/><path d="M1111.27,363.38c0,.83,0,1.67,0,2.51q.06,3.66,0,7.34,0,1.86-.06,3.72c0,1.23-.1,2.45-.1,3.68a.89.89,0,0,0,.88.88.85.85,0,0,0,.62-.26.9.9,0,0,0,.26-.62c.12-1.16.14-2.33.17-3.5s.06-2.48.07-3.72c0-2.45,0-4.9-.09-7.34q-.06-2.37-.15-4.74a9.93,9.93,0,0,1-1.67,2.05" style="fill:#161616"/><path d="M1098.72-11.7c.59,13.5,1.14,27,1.41,40.51s.23,27.26-.26,40.89q-.22,6.08-.57,12.15c-.23,4-.52,8-.77,12a.81.81,0,0,0,1.38.57.87.87,0,0,0,.24-.57c.82-6.68,1.24-13.4,1.55-20.12s.44-13.59.46-20.38c0-13.64-.37-27.28-.9-40.9-.31-8.06-.68-16.12-1-24.18a.77.77,0,0,0-.76-.76.76.76,0,0,0-.75.76" style="fill:#161616"/><path d="M1089.18,47.15q.35,5.77.55,11.56.11,2.94.14,5.88c0,1,0,2,0,2.94s0,2,0,2.94a.77.77,0,0,0,1.31.54.85.85,0,0,0,.23-.54c.1-.92.12-1.84.14-2.76s0-2,0-2.94q0-2.94-.15-5.87c-.17-3.92-.43-7.84-.68-11.75a.81.81,0,1,0-1.62,0" style="fill:#161616"/><path d="M1057.84,254.89a41.76,41.76,0,0,0-5.59.37,14.58,14.58,0,0,0-5.3,1.89.63.63,0,0,0,.63,1.08c.32-.16.63-.31,1-.45a14.37,14.37,0,0,1,3.21-.86,39.15,39.15,0,0,1,5.52-.14,42,42,0,0,1,4.75.37l-.28,0a38.43,38.43,0,0,1,9.58,2.61,36.21,36.21,0,0,1,7.73,4.5,33.84,33.84,0,0,1,5.73,5.68l0,0a29.59,29.59,0,0,1,3.81,6.46,25.72,25.72,0,0,1,1.68,6.09.34.34,0,0,0,0-.1l0,.13s0,.07,0,.1v-.06a25.14,25.14,0,0,1,0,6.25,1,1,0,0,1,0-.16l0,.21v0a25.58,25.58,0,0,1-1.75,6.29l.09-.2a30.54,30.54,0,0,1-3.81,6.48,32.53,32.53,0,0,1-5.44,5.56,28.68,28.68,0,0,1-6,3.51,31.05,31.05,0,0,1-7.4,2,36.07,36.07,0,0,1-9.11,0,37.12,37.12,0,0,1-9.32-2.55,36.18,36.18,0,0,1-7.61-4.43,31.54,31.54,0,0,1-5.27-5.25,23.56,23.56,0,0,1-3-5.16,29.3,29.3,0,0,1-1.91-7.18,33.74,33.74,0,0,1,0-8.46,32.83,32.83,0,0,1,2.17-7.9,27.83,27.83,0,0,1,3.42-5.84,23.89,23.89,0,0,1,3.86-3.86,21.26,21.26,0,0,1,4.64-2.69,1.31,1.31,0,0,0,.46-1.78,1.32,1.32,0,0,0-.77-.6l-.35-.05a1.28,1.28,0,0,0-.66.18,23,23,0,0,0-5.34,3.24,24.78,24.78,0,0,0-4.26,4.48,26.06,26.06,0,0,0-3,5.2,32.87,32.87,0,0,0-2,6,35.78,35.78,0,0,0-.86,6.35,34,34,0,0,0,.33,6.38,28.14,28.14,0,0,0,4.18,11.37,28.58,28.58,0,0,0,4.22,5,33.5,33.5,0,0,0,5.38,4.19,37.39,37.39,0,0,0,12.57,5c8.77,1.78,18.38.44,25.74-4.86a31.11,31.11,0,0,0,5.24-4.89,34.77,34.77,0,0,0,4.22-6.06,26.34,26.34,0,0,0,.88-24.17,31.19,31.19,0,0,0-7.27-9.89,36,36,0,0,0-11.1-6.91,35.46,35.46,0,0,0-13-2.45h-.47m-23.34,45.22.07.1-.07-.1m5.47,5.44.07.06-.07-.06m39.37,1.39-.17.13.17-.13m10.91-18.13h0v0m0-6.3v-.07a.15.15,0,0,1,0,.07" style="fill:#161616"/><path d="M1055.4,250.53a21.39,21.39,0,0,0-.15,5.48c.1,1.9.27,3.8.36,5.7a1.5,1.5,0,1,0,3,0c-.09-1.8-.17-3.61-.26-5.42,0-1-.1-1.9-.16-2.85a16.64,16.64,0,0,0-.34-2.91,1.27,1.27,0,0,0-2.45,0" style="fill:#161616"/><path d="M1052,250.92a4.3,4.3,0,1,0,4.3-4.3,4.35,4.35,0,0,0-4.3,4.3" style="fill:#161616"/><path d="M1055.54,242.48a9.54,9.54,0,0,0-3.25,1.58,12.19,12.19,0,0,0-2.69,2.77.87.87,0,0,0,1,1.28.93.93,0,0,0,.51-.4l.19-.25a10.46,10.46,0,0,1,1.55-1.57,8.46,8.46,0,0,1,1.81-1.07,7.73,7.73,0,0,1,1.81-.5,6.11,6.11,0,0,1,3.23.44,12.06,12.06,0,0,1,1.7,1,1,1,0,0,0,1.17-.16,1,1,0,0,0,0-1.37,7.05,7.05,0,0,0-3.32-1.79,7.14,7.14,0,0,0-1.65-.19,8.76,8.76,0,0,0-2,.25m.83,1.84h0" style="fill:#161616"/><path d="M1054.67,239.07a10.5,10.5,0,0,0-3.94,1.46,10.32,10.32,0,0,0-3.29,3.35,1.52,1.52,0,1,0,2.62,1.53c.14-.23.29-.46.46-.69a8.24,8.24,0,0,1,1.32-1.32,9.36,9.36,0,0,1,1.7-1,11,11,0,0,1,2.37-.65,11.74,11.74,0,0,1,2.65,0,15.7,15.7,0,0,1,3.61,1,1.11,1.11,0,0,0,1.36-1.36,1.22,1.22,0,0,0-.51-.67,10.43,10.43,0,0,0-3.91-1.61,14.93,14.93,0,0,0-2.22-.25h-.27a14.12,14.12,0,0,0-1.95.17" style="fill:#161616"/><path d="M1053.47,234.83a15.18,15.18,0,0,0-2.84,1,13,13,0,0,0-2.37,1.36,11.92,11.92,0,0,0-3.75,4.23,1.64,1.64,0,0,0-.15,1.21,1.55,1.55,0,0,0,.72.94,1.58,1.58,0,0,0,2.15-.56,9.17,9.17,0,0,1,.8-1.31,10.79,10.79,0,0,1,1.62-1.62,13.34,13.34,0,0,1,2.66-1.54,14.81,14.81,0,0,1,3.19-.88,12.78,12.78,0,0,1,2.9,0,10.77,10.77,0,0,1,2.14.58,9.81,9.81,0,0,1,1.79,1.06l-.07,0a1.26,1.26,0,0,0,1.72-1.83,8.92,8.92,0,0,0-4.65-2.66,11.59,11.59,0,0,0-2.63-.29,15.31,15.31,0,0,0-3.23.37" style="fill:#161616"/><path d="M1030.46,276.9c-1.66.54-2.44,2.3-2.81,3.87a.88.88,0,0,0,0,.51,1.2,1.2,0,0,0-.48.69,11,11,0,0,0-.12,3.24,9.71,9.71,0,0,0,.29,1.52,10.09,10.09,0,0,0,.56,1.47,8.18,8.18,0,0,0,1.47,2.13,6.32,6.32,0,0,0,1.87,1.37,5.14,5.14,0,0,0,2.28.51,4.2,4.2,0,0,0,2.17-.7,6.94,6.94,0,0,0,2.63-5,9.81,9.81,0,0,0,.12-1.33,7.4,7.4,0,0,0-.14-1.32,8.74,8.74,0,0,0-.84-2.41,10,10,0,0,0-3.19-3.75,5,5,0,0,0-2.83-1,3.29,3.29,0,0,0-1,.16m1.22,1.52a4.1,4.1,0,0,1,.66.19,5.64,5.64,0,0,1,1,.6,8.36,8.36,0,0,1,1.32,1.34,10.26,10.26,0,0,1,1.17,2,8.54,8.54,0,0,1,.51,1.86,6.28,6.28,0,0,1,0,1.3,9.86,9.86,0,0,1-.58,2.21,6,6,0,0,1-.56,1,4.34,4.34,0,0,1-.52.53,4,4,0,0,1-.45.26,2.85,2.85,0,0,1-.48.13,2.53,2.53,0,0,1-.55,0,3.93,3.93,0,0,1-.67-.19,5.4,5.4,0,0,1-.8-.47,6.75,6.75,0,0,1-.84-.85,7.84,7.84,0,0,1-.81-1.4,8.27,8.27,0,0,1-.5-1.83,10.11,10.11,0,0,1,0-2.2,2.17,2.17,0,0,1,0-.25,1.36,1.36,0,0,0-.13-1,1.24,1.24,0,0,0-.4-.42.19.19,0,0,1,0-.07,8.1,8.1,0,0,1,.34-1.09,5.19,5.19,0,0,1,.52-.92,4.07,4.07,0,0,1,.41-.42,2.26,2.26,0,0,1,.37-.22,2.85,2.85,0,0,1,.39-.11,3,3,0,0,1,.52,0m4.11,4,0,.07,0-.07m0,.11s0,.08.05.13a1.12,1.12,0,0,1-.05-.13" style="fill:#161616"/><path d="M1055.31,284a8.24,8.24,0,0,0-2.25,2.52,6.49,6.49,0,0,0-.84,3.16,6.06,6.06,0,0,0,1.26,3.61l.33.4a6.2,6.2,0,0,0,.91,1.3,6.53,6.53,0,0,0,2.09,1.52c3.18,1.5,7.62.86,9.63-2.22a6.1,6.1,0,0,0,.91-2.75,9,9,0,0,0-.46-3.49,9.44,9.44,0,0,0-2.16-3.79,6.47,6.47,0,0,0-3.07-1.74,6.79,6.79,0,0,0-1.56-.18,8.08,8.08,0,0,0-4.79,1.66m5.53.09a6.28,6.28,0,0,1,1.22.33,5.78,5.78,0,0,1,1.07.63,7.27,7.27,0,0,1,1,1,9.26,9.26,0,0,1,1.07,1.86l0-.08,0,.09,0,.1a.3.3,0,0,1,0-.08,10,10,0,0,1,.65,2.27,7,7,0,0,1,0,1.65,6.09,6.09,0,0,1-.34,1.25,6,6,0,0,1-.59,1,5.23,5.23,0,0,1-.89.87,6.29,6.29,0,0,1-1.31.74,7.19,7.19,0,0,1-1.71.45,7.87,7.87,0,0,1-1.94,0h.06l-.34-.05a.39.39,0,0,0-.27-.33l-.52-.19a9,9,0,0,1-1.37-.82,10.37,10.37,0,0,1-1.67-1.64,7.41,7.41,0,0,1-.88-1.48,4.48,4.48,0,0,1-.2-.62,8.28,8.28,0,0,1,0-1.65s0,.07,0,.11a11.14,11.14,0,0,1,.52-2.14,6,6,0,0,1,.39-.59,8.12,8.12,0,0,1,1.31-1.31,8.7,8.7,0,0,1,1.56-.91,7.32,7.32,0,0,1,1.66-.47,6.48,6.48,0,0,1,1.46,0m-3,.41-.13.06.13-.06m-3,2.21v0m11,3.57s0,.07,0,.1,0-.07,0-.1m-11.73,1.45v.05s0,0,0-.05m2.43,3,.08.06Zm7.58.2-.09.06.09-.06m-6.11.69.07,0-.07,0m7.17-7.67v0h0v0" style="fill:#161616"/><path d="M1059,297.05a25.46,25.46,0,0,0,1.28,6.81,18.06,18.06,0,0,0,1.46,3.16,13.13,13.13,0,0,0,2.21,2.78.55.55,0,0,0,.78,0,.56.56,0,0,0,0-.77c-.13-.16-.27-.32-.39-.48a18,18,0,0,1-2.1-3.6,23.47,23.47,0,0,1-1.51-5.65q-.15-1.12-.21-2.25a.78.78,0,0,0-.76-.76.77.77,0,0,0-.76.76m1.7,2.06,0,.16,0-.16" style="fill:#161616"/><path d="M1071.51,261.74a21.41,21.41,0,0,0-4.67,3.21,22,22,0,0,0-3.68,4.37c-.52.8-1,1.64-1.45,2.49s-.86,1.79-1.23,2.71a37.2,37.2,0,0,0-1.72,5.46c-.14.58-.26,1.16-.38,1.74a1,1,0,0,0,.09.66.84.84,0,0,0,.52.4.88.88,0,0,0,.67-.09.84.84,0,0,0,.39-.51c.29-1.52.64-3,1.06-4.5a40.62,40.62,0,0,1,1.57-4.46,29.54,29.54,0,0,1,1.53-3.15,24.93,24.93,0,0,1,1.89-2.87,18.4,18.4,0,0,1,3.21-3.27,15.37,15.37,0,0,1,2.57-1.57.36.36,0,0,0-.18-.67.45.45,0,0,0-.19.05m-5.42,5.46,0,0,0,0" style="fill:#161616"/><path d="M1082.57,309.5c-1,.33-1.92.75-2.87,1.16l-2.92,1.34c-1.91.88-3.82,1.76-5.76,2.58a74.49,74.49,0,0,1-15.29,4.77,1.05,1.05,0,0,0-.64.49,1.14,1.14,0,0,0-.11.83,1.11,1.11,0,0,0,.5.64,1.13,1.13,0,0,0,.83.11,72.7,72.7,0,0,0,13.85-4c2.23-.88,4.43-1.84,6.6-2.86,1.08-.5,2.15-1,3.2-1.57a34.39,34.39,0,0,0,3.29-1.87.88.88,0,0,0-.44-1.64.67.67,0,0,0-.24,0m-11.3,5-.12,0,.12,0" style="fill:#161616"/><path d="M1054.54,319.84c-3.59,3.57-6,8.22-7.69,12.93a56.55,56.55,0,0,0-3.29,16.82,48,48,0,0,0,.35,8.39,35.27,35.27,0,0,0,1.85,7.73,29.1,29.1,0,0,0,1.57,3.46,22.21,22.21,0,0,0,2,3.05,24.06,24.06,0,0,0,6.07,5.3,40.54,40.54,0,0,0,8,3.86,52.86,52.86,0,0,0,8.81,2.3,42.7,42.7,0,0,0,17.26-.23,38.13,38.13,0,0,0,8.88-3.42,42,42,0,0,0,7.8-5.43,39.25,39.25,0,0,0,6.28-7,34,34,0,0,0,5.71-14.64c.17-1.12.29-2.25.36-3.38s0-2.34,0-3.51a1,1,0,0,0-1.9,0,27.35,27.35,0,0,1-.29,4.14,1.25,1.25,0,0,1,0-.19,1.43,1.43,0,0,0,0,.22v0a27.16,27.16,0,0,1-.77,3.69,32.62,32.62,0,0,1-1.34,3.74,39.82,39.82,0,0,1-21.12,20.95,38.28,38.28,0,0,1-9.08,2.58,44.29,44.29,0,0,1-11.21-.22l.38.06a50,50,0,0,1-12.43-3.31,32.14,32.14,0,0,1-6.65-3.78,20.73,20.73,0,0,1-3.63-3.56,22.5,22.5,0,0,1-2.61-4.58,33.1,33.1,0,0,1-2.11-8v.05s0-.07,0-.1a.77.77,0,0,1,0-.15.38.38,0,0,0,0,.1,51,51,0,0,1,.11-13.12,54.44,54.44,0,0,1,3.66-13.56l-.09.23a35.76,35.76,0,0,1,4.37-7.74l0,0a24.22,24.22,0,0,1,2.06-2.35.94.94,0,0,0,0-1.33.93.93,0,0,0-.66-.27,1,1,0,0,0-.67.27m-.59,3.49,0,.05,0-.05m-8,21.28s0,.05,0,.07Zm63.31,21.56-.08.11.08-.11m-63.41-8.45v-.05a.11.11,0,0,0,0,.05m70.57-7.51h0v0" style="fill:#161616"/><path d="M1082.81,318.28a1.2,1.2,0,0,0-.83.34,1.17,1.17,0,0,0,.83,2,58.84,58.84,0,0,1,12.3.38,76.37,76.37,0,0,1,19,5.33l-.3-.12a82,82,0,0,1,7.67,3.71c1.22.67,2.41,1.38,3.59,2.11l1.82,1.14c.6.38,1.21.74,1.79,1.13a1,1,0,0,0,1.22-.16,1,1,0,0,0,.29-.71,1,1,0,0,0-.29-.7c-.58-.47-1.14-.94-1.73-1.39s-1.26-.91-1.9-1.35c-1.26-.84-2.56-1.62-3.88-2.36a74.84,74.84,0,0,0-26.49-8.95,63.2,63.2,0,0,0-8.57-.6c-1.52,0-3,.06-4.54.19M1094.9,321h0" style="fill:#161616"/><path d="M1086.22,326.41a1.22,1.22,0,1,0,0,2.43,64.16,64.16,0,0,1,9.39.57,79.43,79.43,0,0,1,19.71,5.48c1.77.75,3.52,1.54,5.24,2.39.83.41,1.65.85,2.46,1.29s1.72.93,2.55,1.42a.87.87,0,1,0,.88-1.49c-1.19-.82-2.38-1.61-3.63-2.33s-2.54-1.44-3.84-2.1a69.25,69.25,0,0,0-8.34-3.49,74.2,74.2,0,0,0-17.53-3.88,59.86,59.86,0,0,0-6-.3h-.91" style="fill:#161616"/><path d="M1127.09,332.92a9.76,9.76,0,0,0-2.41,6.25,1.55,1.55,0,0,0,1.55,1.55,1.57,1.57,0,0,0,1.55-1.55c0-.18,0-.35,0-.52a8.46,8.46,0,0,1,.42-1.57,8.65,8.65,0,0,1,.85-1.44l.32-.39a1.7,1.7,0,0,0,.49-1.17,1.65,1.65,0,0,0-.49-1.16,1.7,1.7,0,0,0-1.19-.48,1.48,1.48,0,0,0-1.13.48" style="fill:#161616"/><path d="M1125.12,342.6a17.71,17.71,0,0,0,1.32,7,14.05,14.05,0,0,0,3.8,5.42,10.86,10.86,0,0,0,2.64,1.71,11.54,11.54,0,0,0,1.49.54,10,10,0,0,0,1.7.31,9.82,9.82,0,0,0,3.24-.23,11.21,11.21,0,0,0,3.3-1.4,13.49,13.49,0,0,0,2.57-2.07.83.83,0,0,0,.12-1,.81.81,0,0,0-1.12-.29,19.09,19.09,0,0,1-3.39,2,11,11,0,0,1-2.51.7,9,9,0,0,1-2.2,0,9.92,9.92,0,0,1-1.92-.52,10.39,10.39,0,0,1-2.13-1.26,12.78,12.78,0,0,1-1.93-2,14.52,14.52,0,0,1-1.66-2.85,15.83,15.83,0,0,1-1-3.81,18.41,18.41,0,0,1-.13-2.23,1.08,1.08,0,0,0-2.15,0m15.64,11.95-.11,0,.11,0m-2.54.69-.13,0,.13,0" style="fill:#161616"/><path d="M1137.29,343.27a1.28,1.28,0,0,0-.58.75,1.22,1.22,0,0,0,.13,1c1.71,2.26,3.65,4.33,5.4,6.56.45.6.89,1.22,1.32,1.84a1.14,1.14,0,0,0,1.53.4,1.13,1.13,0,0,0,.4-1.53c-1-1.48-2-2.92-3.13-4.35s-2.31-3-3.54-4.44a1.09,1.09,0,0,0-.87-.37,1.35,1.35,0,0,0-.66.17m4.83,8.12.09.13-.09-.13" style="fill:#161616"/><path d="M1137.5,342.71a1.29,1.29,0,0,0-1.26,1.25,1.26,1.26,0,0,0,1.26,1.25,51.52,51.52,0,0,1,10,.5c1.77.24,3.54.55,5.32.74a1.15,1.15,0,0,0,1.11-.85,1.14,1.14,0,0,0-.8-1.4c-1.21-.28-2.44-.48-3.67-.67s-2.69-.41-4-.57a49.15,49.15,0,0,0-5.43-.33c-.83,0-1.66,0-2.49.08" style="fill:#161616"/><path d="M1139.92,325.17a13,13,0,0,0-4.49.87,17,17,0,0,0-4.82,2.84,1.25,1.25,0,0,0-.2,1.54,1.27,1.27,0,0,0,1.73.45,20.45,20.45,0,0,1,3.44-1.95,13.64,13.64,0,0,1,3.06-.85,12.55,12.55,0,0,1,2.74,0,12.1,12.1,0,0,1,2.57.71,13.35,13.35,0,0,1,2.58,1.52,15.42,15.42,0,0,1,2.32,2.32,17.9,17.9,0,0,1,2,3.49,16.77,16.77,0,0,1,1.19,8.46,1.32,1.32,0,0,0,.39.94,1.33,1.33,0,0,0,.94.39,1.31,1.31,0,0,0,.93-.39,1.42,1.42,0,0,0,.39-.94,19.74,19.74,0,0,0-1.33-9.37,18.57,18.57,0,0,0-2.16-3.93,16.38,16.38,0,0,0-3.26-3.34,13.06,13.06,0,0,0-8-2.75Z" style="fill:#161616"/><path d="M1085.7,309.26a.93.93,0,0,0,.91.92c.71,0,1.42.11,2.12.2a31.06,31.06,0,0,1,7.44,2.08,42.54,42.54,0,0,1,9.17,5.47l-.24-.17c1.26,1,2.48,2,3.68,3.06s2.31,2.13,3.5,3.16a.86.86,0,0,0,1,.13.85.85,0,0,0,.31-1.16,28.09,28.09,0,0,0-5.29-5.6,42.11,42.11,0,0,0-6.5-4.43,36,36,0,0,0-14.76-4.55l-.46,0h0a.93.93,0,0,0-.87.92m2.8,1.09h0" style="fill:#161616"/><path d="M1113.87,332.3a1.23,1.23,0,0,0-.44,1.66c.31.58.6,1.18.86,1.79a30.24,30.24,0,0,1,2,7.48,34.38,34.38,0,0,1,.17,7.38.63.63,0,0,0,1.24.17,23.83,23.83,0,0,0,.6-9,25.32,25.32,0,0,0-2.74-9,1.18,1.18,0,0,0-1-.6,1.29,1.29,0,0,0-.61.16" style="fill:#161616"/><path d="M1071.94,314.74a1.4,1.4,0,0,0-.78.61,53.34,53.34,0,0,0-7.79,16.53,59.09,59.09,0,0,0-1.66,8.84,62.09,62.09,0,0,0-.41,9.25.86.86,0,0,0,1.71,0c.13-2.57.31-5.13.65-7.67a63.82,63.82,0,0,1,1.54-7.86,60.27,60.27,0,0,1,2.51-7.48,55.62,55.62,0,0,1,5.73-10.28,1.33,1.33,0,0,0-.48-1.81,1.43,1.43,0,0,0-.67-.18,1.41,1.41,0,0,0-.35.05m-4.14,12-.09.22.09-.22" style="fill:#161616"/><path d="M1055,349.77a39.44,39.44,0,0,1-8.28,2l-1.5.18a1.11,1.11,0,0,0-.73.3,1,1,0,0,0,0,1.46,1,1,0,0,0,.73.3,35.93,35.93,0,0,0,5.26-.91,35.09,35.09,0,0,0,5-1.67,1,1,0,0,0,.52-.4.9.9,0,0,0,.09-.68.92.92,0,0,0-.84-.65.59.59,0,0,0-.23,0" style="fill:#161616"/><path d="M1083.78,381.78a1.22,1.22,0,0,0-.85,1.49c1,2.51,1.81,5.08,2.58,7.67s1.52,5.36,2.24,8.06,1.47,5.38,2.32,8c.43,1.33.89,2.65,1.39,4,.26.69.55,1.37.84,2a18.64,18.64,0,0,0,.89,1.86,1.29,1.29,0,0,0,1.45.59,1.31,1.31,0,0,0,.9-1.58c-.3-1.26-.72-2.5-1.11-3.74s-.84-2.66-1.25-4c-.83-2.66-1.65-5.33-2.49-8s-1.63-5.16-2.51-7.72-1.88-5.25-2.91-7.85a1.32,1.32,0,0,0-.55-.72,1.23,1.23,0,0,0-.62-.17,1.19,1.19,0,0,0-.32,0" style="fill:#161616"/><path d="M1092.84,379.68a1.44,1.44,0,0,0-1,1.74q2.16,8.4,4.62,16.72c.83,2.82,1.72,5.63,2.59,8.44s1.77,5.59,2.81,8.34a1.12,1.12,0,0,0,.49.64,1.05,1.05,0,0,0,.83.11,1.08,1.08,0,0,0,.75-1.32c-.68-2.77-1.47-5.49-2.27-8.22s-1.63-5.65-2.44-8.48c-1.61-5.64-3.19-11.3-4.65-17a1.44,1.44,0,0,0-1.38-1,1.57,1.57,0,0,0-.37.05" style="fill:#161616"/><path d="M1103,416.89l-.6.49a9.31,9.31,0,0,1-1.49.89,7.73,7.73,0,0,1-1.25.35,6.47,6.47,0,0,1-1.32,0,7.24,7.24,0,0,1-1.45-.4l-.3-.15a1.53,1.53,0,0,0-1.11-.14,1.48,1.48,0,0,0-.87.66,1.44,1.44,0,0,0,.52,2,9.57,9.57,0,0,0,2.46.9,7.92,7.92,0,0,0,2.91.07,7.34,7.34,0,0,0,2.55-.9,6.75,6.75,0,0,0,2.15-2,1.38,1.38,0,0,0-.22-1.69,1.41,1.41,0,0,0-1-.41,1.45,1.45,0,0,0-1,.41" style="fill:#161616"/><path d="M1099.07,408.78a7.55,7.55,0,0,1-.59.54,8.77,8.77,0,0,1-1.21.72,7.23,7.23,0,0,1-1.38.38,8.47,8.47,0,0,1-1.67,0,1.22,1.22,0,0,0-.9.38,1.25,1.25,0,0,0-.37.9,1.28,1.28,0,0,0,.37.9,1.42,1.42,0,0,0,.9.37,8.46,8.46,0,0,0,3.6-.37,6.82,6.82,0,0,0,3-2.05,1.31,1.31,0,0,0,.36-.87,1.23,1.23,0,0,0-1.24-1.24,1.2,1.2,0,0,0-.87.36" style="fill:#161616"/><path d="M1096.5,398.52a15.54,15.54,0,0,1-2.22,1.24,12.55,12.55,0,0,1-2.76.76c-.42.05-.84.07-1.26.08a1.13,1.13,0,0,0,0,2.26,12.61,12.61,0,0,0,7.36-2.42,1.18,1.18,0,0,0,.51-.67,1.09,1.09,0,0,0-.11-.85,1.16,1.16,0,0,0-1-.56,1,1,0,0,0-.54.16" style="fill:#161616"/><path d="M1092.39,389.05a20.06,20.06,0,0,1-4.3,1.14l-.87.09a1.47,1.47,0,0,0-1,.4,1.39,1.39,0,0,0,1,2.36,20.53,20.53,0,0,0,5.89-1.36,1.47,1.47,0,0,0,.82-.63,1.37,1.37,0,0,0-.49-1.86,1.44,1.44,0,0,0-.72-.2.92.92,0,0,0-.33.06M1088,390.2l-.18,0,.18,0" style="fill:#161616"/><path d="M1081.89,318.65a9.67,9.67,0,0,0-.91,1.29,9,9,0,0,0-.61,1.39,6.83,6.83,0,0,0-.32,2.87,7,7,0,0,0,.86,2.69,7.41,7.41,0,0,0,2.11,2.21,1,1,0,0,0,1.22-.15,1,1,0,0,0,0-1.43,7.27,7.27,0,0,1-.72-.75,5.62,5.62,0,0,1-.63-1.09,5.45,5.45,0,0,1-.29-1.05,6.47,6.47,0,0,1,0-1.32,5.91,5.91,0,0,1,.34-1.23,8.08,8.08,0,0,1,.8-1.36l.09-.11a1.45,1.45,0,0,0,.41-1,1.38,1.38,0,0,0-1.38-1.38,1.32,1.32,0,0,0-1,.4" style="fill:#161616"/><path d="M1094.27,319a11.25,11.25,0,0,0-1,2.05,8.69,8.69,0,0,0-.46,2.31,7.14,7.14,0,0,0,1.25,4.46,1,1,0,1,0,1.64-1c-.11-.2-.22-.41-.32-.63a8.9,8.9,0,0,1-.48-1.75,8.17,8.17,0,0,1,0-1.64,8.75,8.75,0,0,1,.5-1.8,11.42,11.42,0,0,1,.54-1,1,1,0,0,0-.36-1.36,1,1,0,0,0-.49-.13,1,1,0,0,0-.87.49" style="fill:#161616"/><path d="M1106.08,322a7.42,7.42,0,0,0-2.39,3.6,6.3,6.3,0,0,0-.21,2.08,6.93,6.93,0,0,0,.62,2.36,1,1,0,0,0,.35.35,1,1,0,0,0,.76.1,1,1,0,0,0,.69-1.21,6.45,6.45,0,0,1-.32-1.22,5.35,5.35,0,0,1,0-1.2,6.4,6.4,0,0,1,.31-1.14,6.86,6.86,0,0,1,.65-1.11,8.48,8.48,0,0,1,1.08-1.08,1,1,0,0,0,.32-.76,1.09,1.09,0,0,0-1.09-1.09,1.16,1.16,0,0,0-.76.32" style="fill:#161616"/><path d="M1115.58,326.58a7.55,7.55,0,0,0-1,2.49,7.85,7.85,0,0,0,0,2.9.86.86,0,0,0,1.69-.23,7,7,0,0,1,0-1.21,8,8,0,0,1,.43-1.6,9.59,9.59,0,0,1,.7-1.3,1,1,0,0,0-.37-1.42,1,1,0,0,0-.51-.14,1.08,1.08,0,0,0-.91.51" style="fill:#161616"/><path d="M1093.47,418.18a77.7,77.7,0,0,1-10.37,5.07c-1.82.79-3.63,1.58-5.41,2.44a31.22,31.22,0,0,0-5.1,3,1.63,1.63,0,0,0-.69.9,1.51,1.51,0,0,0,2.21,1.7c1.69-.81,3.36-1.68,5.06-2.48s3.61-1.61,5.43-2.4a77.19,77.19,0,0,0,10.55-5.32,1.67,1.67,0,0,0-.86-3.1,1.5,1.5,0,0,0-.82.23" style="fill:#161616"/><path d="M1070.86,430.5a.78.78,0,0,0-.44.34.8.8,0,0,0-.07.57l.06.47v0a20.41,20.41,0,0,0,.29,2.06.72.72,0,0,0,.68.52.71.71,0,0,0,.71-.71,8.67,8.67,0,0,0-.12-1.25c-.06-.49-.13-1-.2-1.45a.74.74,0,0,0-.71-.54.65.65,0,0,0-.2,0" style="fill:#161616"/><path d="M1132.23,430.21l-.27.13a103.4,103.4,0,0,1-24.28,6.34l.29,0a89.87,89.87,0,0,1-23.74.29l.27,0a48.37,48.37,0,0,1-12.26-3.14l-.13-.05a1.08,1.08,0,0,0-.77-.1,1,1,0,0,0-.61.46,1.06,1.06,0,0,0-.1.78,1,1,0,0,0,.47.6,43.3,43.3,0,0,0,6.53,2.22,59.36,59.36,0,0,0,7.35,1.35,85.54,85.54,0,0,0,15.84.41,104.87,104.87,0,0,0,16.16-2.23,69.07,69.07,0,0,0,14.22-4.61c.64-.3,1.27-.63,1.92-.93a.89.89,0,0,0,.32-1.2.9.9,0,0,0-.53-.41l-.22,0a1.12,1.12,0,0,0-.46.12m-60,3.63.21.09-.21-.09" style="fill:#161616"/><path d="M1104.9,416.13a1.32,1.32,0,0,0-.91,1.59,1.42,1.42,0,0,0,.6.78c4.22,3,9.24,4.69,14.24,5.88,2.58.61,5.19,1.09,7.81,1.51,1.36.21,2.72.4,4.09.57l1.81.2c.65.06,1.3.09,2,.16a1,1,0,0,0,.92-.71,1,1,0,0,0-.66-1.18l-1.37-.38c-.47-.13-.94-.24-1.42-.35-1-.22-2-.4-2.92-.58-2-.38-4-.73-6.07-1.12a60.07,60.07,0,0,1-11.84-3.34,28.69,28.69,0,0,1-5.23-2.9,1.13,1.13,0,0,0-.63-.18,1.44,1.44,0,0,0-.37.05" style="fill:#161616"/><path d="M1133.63,426.69c0,.68.06,1.37.1,2.05a1.46,1.46,0,0,0,.42,1,1.38,1.38,0,0,0,1,.42,1.42,1.42,0,0,0,1.41-1.41c0-.68,0-1.37,0-2.05a1.45,1.45,0,0,0-2.89,0" style="fill:#161616"/><path d="M1070.85,430.05a1.11,1.11,0,0,0,.41,1.52,31.47,31.47,0,0,0,10.63,3.79,61,61,0,0,0,12.37.88,82.45,82.45,0,0,0,9.42-.74c1.52-.21,3-.48,4.54-.73.69-.12,1.37-.24,2-.38s1.37-.3,2.06-.43a.51.51,0,0,0,.36-.63.53.53,0,0,0-.64-.36l-1,.16h0l-1.1.14h.11l-.76.1.16,0-.67.09h0c-1.86.25-3.74.4-5.61.54s-4,.27-6,.33a75.55,75.55,0,0,1-11.94-.51h.11a39.12,39.12,0,0,1-9.92-2.54,27.65,27.65,0,0,1-3.11-1.6,1.08,1.08,0,0,0-.55-.15,1.14,1.14,0,0,0-1,.55m39.22,3.2h0" style="fill:#161616"/><path d="M1103.91,309.41c-1.84.14-3.67.42-5.49.67l.24,0-.91.11a1,1,0,0,0-.64.27.91.91,0,0,0,.64,1.55c1.87-.24,3.74-.5,5.62-.66a28.3,28.3,0,0,1,5.82.09.92.92,0,0,0,.49-.13A1,1,0,0,0,1110,310a.9.9,0,0,0-.57-.44,22.16,22.16,0,0,0-2.81-.22h-.29c-.81,0-1.62.05-2.44.11" style="fill:#161616"/><path d="M1117.59,300.88a15.71,15.71,0,0,0-5.82,3.73,17.54,17.54,0,0,0-3,4.2.89.89,0,1,0,1.54.9,17.28,17.28,0,0,1,1.51-2.37,15.41,15.41,0,0,1,2.45-2.46,13.37,13.37,0,0,1,2.71-1.59,13.12,13.12,0,0,1,2.9-.8,14.48,14.48,0,0,1,3.29,0,14.71,14.71,0,0,1,3.43,1,16,16,0,0,1,3.16,1.86,26.18,26.18,0,0,1,4.13,4.35,1.21,1.21,0,0,0,.58.33,1.3,1.3,0,0,0,1-.12,1.31,1.31,0,0,0,.47-1.79,14.32,14.32,0,0,0-5.18-5.71,15.67,15.67,0,0,0-3.24-1.58,14.74,14.74,0,0,0-3.41-.75,14.13,14.13,0,0,0-1.46-.08,14.7,14.7,0,0,0-5.05.92" style="fill:#161616"/><path d="M1134.15,307.57l-.08,0c-1.57.65-3.16,1.23-4.76,1.8a32.17,32.17,0,0,0-5,2,1.6,1.6,0,0,0,1.23,2.93,19.8,19.8,0,0,0,2.37-.76c.88-.32,1.75-.66,2.63-1,1.78-.69,3.55-1.4,5.31-2.17a1.6,1.6,0,0,0,.76-1,1.7,1.7,0,0,0-.17-1.27,1.64,1.64,0,0,0-1-.76,1.44,1.44,0,0,0-.4-.06,2.17,2.17,0,0,0-.87.23m-.18.07-.11.05.11-.05" style="fill:#161616"/><path d="M1123.79,311.81a1.44,1.44,0,0,0-.87.66,1.53,1.53,0,0,0-.15,1.13,1.65,1.65,0,0,0,.67.87,36.57,36.57,0,0,0,3.58,2.33,30.9,30.9,0,0,0,3.92,1.92,1.26,1.26,0,0,0,1.44-.58,1.29,1.29,0,0,0-.45-1.74c-1.11-.76-2.3-1.4-3.45-2.09s-2.42-1.51-3.57-2.36a1.2,1.2,0,0,0-.7-.2,1.42,1.42,0,0,0-.42.06" style="fill:#161616"/><path d="M1108.78,315.59a.88.88,0,0,0-.4.52,1,1,0,0,0,.09.68,15.37,15.37,0,0,0,7.55,7.73,13.22,13.22,0,0,0,5.17,1.21,11.16,11.16,0,0,0,5.11-1.13,10,10,0,0,0,2.57-1.81,11.37,11.37,0,0,0,1.16-1.34,9,9,0,0,0,.92-1.51.63.63,0,0,0-.09-.74.62.62,0,0,0-.87,0c-.39.44-.77.89-1.18,1.31a16.66,16.66,0,0,1-1.26,1.11,11.61,11.61,0,0,1-2.41,1.41,10.2,10.2,0,0,1-2.36.65,11.82,11.82,0,0,1-2.85,0,13.61,13.61,0,0,1-3-.82,13.26,13.26,0,0,1-7-7,.78.78,0,0,0-.52-.4.91.91,0,0,0-.23,0,.89.89,0,0,0-.45.12m11,8.08.11,0Zm.17,0h0" style="fill:#161616"/></g><path d="M260.56,231.46a45.78,45.78,0,0,1-1.6,12.88,27,27,0,0,1-4.36,9,17.57,17.57,0,0,1-6.46,5.3,18.76,18.76,0,0,1-15.78,0,17.68,17.68,0,0,1-6.44-5.3,26.58,26.58,0,0,1-4.34-9,53.29,53.29,0,0,1,0-25.76,26.77,26.77,0,0,1,4.34-9,17.78,17.78,0,0,1,6.44-5.3,18.76,18.76,0,0,1,15.78,0,17.67,17.67,0,0,1,6.46,5.3,27.16,27.16,0,0,1,4.36,9A45.82,45.82,0,0,1,260.56,231.46Zm-4,0a45.61,45.61,0,0,0-1.32-11.76,24.8,24.8,0,0,0-3.54-8,13.85,13.85,0,0,0-5.2-4.54,14.21,14.21,0,0,0-6.26-1.44,13.69,13.69,0,0,0-11.44,6,24.6,24.6,0,0,0-3.56,8,53.13,53.13,0,0,0,0,23.54,24.48,24.48,0,0,0,3.56,8,13.75,13.75,0,0,0,5.2,4.52,14.18,14.18,0,0,0,6.24,1.42,14.33,14.33,0,0,0,6.26-1.42,13.53,13.53,0,0,0,5.2-4.52,24.68,24.68,0,0,0,3.54-8A45.45,45.45,0,0,0,256.56,231.46Z"/><path d="M307,231.46a45.78,45.78,0,0,1-1.6,12.88,27,27,0,0,1-4.36,9,17.57,17.57,0,0,1-6.46,5.3,18.76,18.76,0,0,1-15.78,0,17.68,17.68,0,0,1-6.44-5.3,26.58,26.58,0,0,1-4.34-9,53.29,53.29,0,0,1,0-25.76,26.77,26.77,0,0,1,4.34-9,17.78,17.78,0,0,1,6.44-5.3,18.76,18.76,0,0,1,15.78,0,17.67,17.67,0,0,1,6.46,5.3,27.16,27.16,0,0,1,4.36,9A45.82,45.82,0,0,1,307,231.46Zm-4,0a45.61,45.61,0,0,0-1.32-11.76,24.8,24.8,0,0,0-3.54-8,13.85,13.85,0,0,0-5.2-4.54,14.21,14.21,0,0,0-6.26-1.44,13.69,13.69,0,0,0-11.44,6,24.6,24.6,0,0,0-3.56,8,53.13,53.13,0,0,0,0,23.54,24.48,24.48,0,0,0,3.56,8,13.75,13.75,0,0,0,5.2,4.52,14.18,14.18,0,0,0,6.24,1.42,14.33,14.33,0,0,0,6.26-1.42,13.53,13.53,0,0,0,5.2-4.52,24.68,24.68,0,0,0,3.54-8A45.45,45.45,0,0,0,303,231.46Z"/><path d="M353.36,231.46a46.14,46.14,0,0,1-1.6,12.88,27,27,0,0,1-4.36,9,17.65,17.65,0,0,1-6.46,5.3,18.76,18.76,0,0,1-15.78,0,17.59,17.59,0,0,1-6.44-5.3,26.58,26.58,0,0,1-4.34-9,53.29,53.29,0,0,1,0-25.76,26.77,26.77,0,0,1,4.34-9,17.69,17.69,0,0,1,6.44-5.3,18.76,18.76,0,0,1,15.78,0,17.75,17.75,0,0,1,6.46,5.3,27.16,27.16,0,0,1,4.36,9A46.19,46.19,0,0,1,353.36,231.46Zm-4,0A45.61,45.61,0,0,0,348,219.7a24.8,24.8,0,0,0-3.54-8,13.92,13.92,0,0,0-5.2-4.54,14.24,14.24,0,0,0-6.26-1.44,13.69,13.69,0,0,0-11.44,6,24.39,24.39,0,0,0-3.56,8,53.13,53.13,0,0,0,0,23.54,24.27,24.27,0,0,0,3.56,8,13.67,13.67,0,0,0,5.2,4.52,14.18,14.18,0,0,0,6.24,1.42,14.36,14.36,0,0,0,6.26-1.42,13.6,13.6,0,0,0,5.2-4.52,24.68,24.68,0,0,0,3.54-8A45.45,45.45,0,0,0,349.36,231.46Z"/><path d="M231,347.21h-9.88V304.55H231Z"/><path d="M246.9,315.51l.39,4.45a11.48,11.48,0,0,1,3.83-3.71,10.05,10.05,0,0,1,5.1-1.33,8.94,8.94,0,0,1,7.28,3.17q2.63,3.15,2.62,10v19.08h-9.9v-19.1a7.23,7.23,0,0,0-1-4.3,3.3,3.3,0,0,0-2.81-1.27,6.83,6.83,0,0,0-2.84.56,5.62,5.62,0,0,0-2.11,1.58v22.53h-9.87v-31.7Z"/><path d="M282.88,307.63v7.88h5v6.85h-5v14.53a3.55,3.55,0,0,0,.69,2.45,2.4,2.4,0,0,0,1.86.75,9.85,9.85,0,0,0,1.22-.06,10.42,10.42,0,0,0,1.15-.24l.68,7.33a25.7,25.7,0,0,1-2.7.54,21.29,21.29,0,0,1-2.84.16q-4.89,0-7.43-2.61c-1.69-1.73-2.53-4.49-2.53-8.26V322.36h-4.43v-6.85H273v-7.88Z"/><path d="M310.21,323.94l-3.22,0a5.47,5.47,0,0,0-2.78.63,3.89,3.89,0,0,0-1.61,1.77v20.89h-9.9v-31.7H302l.35,4.66A9.69,9.69,0,0,1,305,316.3a5.77,5.77,0,0,1,3.84-1.38,7.16,7.16,0,0,1,1.2.09,11,11,0,0,1,1.11.26Z"/><path d="M311.94,331.06q0-7.14,4.05-11.64t11.28-4.5q7.26,0,11.3,4.5t4.05,11.64v.62q0,7.17-4.05,11.66t-11.25,4.48q-7.29,0-11.33-4.48t-4.05-11.66Zm9.91.62a13.07,13.07,0,0,0,1.24,6.25,5,5,0,0,0,8.39,0,13,13,0,0,0,1.26-6.24v-.62a13,13,0,0,0-1.26-6.19,4.41,4.41,0,0,0-4.21-2.33,4.35,4.35,0,0,0-4.18,2.34,13.2,13.2,0,0,0-1.24,6.18Z"/><path d="M345.66,331.42q0-7.43,3.24-12a10.58,10.58,0,0,1,9.13-4.54,8,8,0,0,1,4,1,10.65,10.65,0,0,1,3.18,2.89V301.5h9.9v45.71h-8.67l-.68-3.87a10.59,10.59,0,0,1-3.35,3.32,8.3,8.3,0,0,1-4.41,1.16,10.65,10.65,0,0,1-9.08-4.33q-3.22-4.33-3.23-11.46Zm9.91.61a13.18,13.18,0,0,0,1.12,6,4,4,0,0,0,3.8,2.15,6.27,6.27,0,0,0,2.74-.57,4.93,4.93,0,0,0,1.95-1.68v-12.8a5.46,5.46,0,0,0-1.94-1.94,5.29,5.29,0,0,0-2.69-.67,4,4,0,0,0-3.81,2.43,15,15,0,0,0-1.17,6.45Z"/><path d="M399.8,342.46a10.38,10.38,0,0,1-3.64,4,9.6,9.6,0,0,1-5.17,1.39,9.37,9.37,0,0,1-7.72-3.46q-2.81-3.45-2.8-10.69V315.51h9.87v18.22q0,3.72,1,5.1a3.34,3.34,0,0,0,2.95,1.37,8.16,8.16,0,0,0,2.78-.43,5.49,5.49,0,0,0,2.05-1.32V315.51H409v31.7h-8Z"/><path d="M428,340.2a3.89,3.89,0,0,0,3-1.09,4.62,4.62,0,0,0,1-3.18h9l.05.17a10.41,10.41,0,0,1-3.58,8.46,13.9,13.9,0,0,1-9.51,3.26q-7.25,0-11.15-4.47c-2.61-3-3.91-6.86-3.91-11.64V331q0-7.14,3.9-11.63t11.1-4.48q6,0,9.65,3.36t3.5,9.18l-.05.18h-9a6.16,6.16,0,0,0-1-3.68,3.52,3.52,0,0,0-3.05-1.42,4.08,4.08,0,0,0-4,2.3A14.23,14.23,0,0,0,422.8,331v.68a14.23,14.23,0,0,0,1.13,6.24A4.14,4.14,0,0,0,428,340.2Z"/><path d="M456.49,307.63v7.88h5v6.85h-5v14.53a3.55,3.55,0,0,0,.69,2.45,2.4,2.4,0,0,0,1.86.75,9.74,9.74,0,0,0,1.22-.06,10.52,10.52,0,0,0,1.16-.24l.67,7.33a25.2,25.2,0,0,1-2.7.54,21.18,21.18,0,0,1-2.84.16c-3.26,0-5.74-.87-7.42-2.61s-2.54-4.49-2.54-8.26V322.36h-4.42v-6.85h4.42v-7.88Z"/><path d="M476.68,308.15h-9.93V301.5h9.93Zm0,39.06h-9.93v-31.7h9.93Z"/><path d="M481.43,331.06q0-7.14,4-11.64t11.28-4.5q7.26,0,11.31,4.5t4,11.64v.62q0,7.17-4,11.66t-11.25,4.48q-7.31,0-11.34-4.48t-4-11.66Zm9.9.62a13.07,13.07,0,0,0,1.24,6.25,5,5,0,0,0,8.4,0,13,13,0,0,0,1.26-6.24v-.62a13,13,0,0,0-1.26-6.19,4.42,4.42,0,0,0-4.22-2.33,4.35,4.35,0,0,0-4.18,2.34,13.2,13.2,0,0,0-1.24,6.18Z"/><path d="M525.58,315.51,526,320a11.48,11.48,0,0,1,3.83-3.71,10.05,10.05,0,0,1,5.1-1.33,8.94,8.94,0,0,1,7.28,3.17q2.63,3.15,2.62,10v19.08h-9.9v-19.1a7.32,7.32,0,0,0-1-4.3,3.33,3.33,0,0,0-2.82-1.27,6.83,6.83,0,0,0-2.84.56,5.62,5.62,0,0,0-2.11,1.58v22.53h-9.87v-31.7Z"/></g><g id="CareerPlaybook"><path d="M242.73,144.92h-6.28l-2.62,16h-7.78l2.62-16H220v-7.15h9.84l1.72-10.31h-8.63v-7.15h9.8l2.7-16.25h7.73l-2.65,16.25h6.29l2.69-16.25h7.78l-2.7,16.25h9v7.15H253.4l-1.72,10.31h8.94v7.15H250.51l-2.62,16h-7.77Zm-5.11-7.15h6.29l1.71-10.31h-6.28Z" style="fill:#da2222"/><path d="M313.24,141.76l.08.23q.15,9.73-5.49,14.75t-16,5q-10.56,0-16.94-6.45t-6.38-16.87V126.56q0-10.38,6.15-16.85t16.27-6.47q10.81,0,16.74,5t5.76,14.65l-.12.23H300.47q0-5.23-2.23-7.5c-1.48-1.51-3.92-2.26-7.3-2.26A7.73,7.73,0,0,0,284.1,117q-2.39,3.59-2.38,9.51v12q0,6,2.62,9.57a8.72,8.72,0,0,0,7.5,3.59q4.53,0,6.54-2.26t2-7.58Z" style="fill:#da2222"/><path d="M344.26,160.9a15.65,15.65,0,0,1-1.27-3,23,23,0,0,1-.8-3.51,16.18,16.18,0,0,1-4.24,5.37,10.23,10.23,0,0,1-6.58,2q-6.64,0-10.33-3.42t-3.7-9.32a11.27,11.27,0,0,1,4.73-9.7q4.73-3.42,14.34-3.42h5.43v-3a6,6,0,0,0-1.29-4.14,5,5,0,0,0-3.95-1.45,4.76,4.76,0,0,0-3.42,1.08,4.47,4.47,0,0,0-1.11,3.34l-12.81,0-.08-.23q-.27-5.79,4.82-9.67t13.46-3.89c5.24,0,9.47,1.3,12.72,3.91S355,128.12,355,133v15.94a32.33,32.33,0,0,0,.57,6.25,33.46,33.46,0,0,0,1.69,5.78Zm-9.3-8.56a8,8,0,0,0,4.28-1.13,6.54,6.54,0,0,0,2.6-2.69v-5.59h-5.32q-3.16,0-4.57,1.52a5.53,5.53,0,0,0-1.4,3.87,3.73,3.73,0,0,0,1.23,2.91A4.57,4.57,0,0,0,335,152.34Z" style="fill:#da2222"/><path d="M385.62,129.92l-4.29,0a7.3,7.3,0,0,0-3.71.84,5.15,5.15,0,0,0-2.15,2.37v27.85h-13.2V118.67h12.42l.47,6.21a12.64,12.64,0,0,1,3.51-5.15,7.7,7.7,0,0,1,5.12-1.84,9.57,9.57,0,0,1,1.6.12,12.17,12.17,0,0,1,1.49.35Z" style="fill:#da2222"/><path d="M408.48,161.76q-9.62,0-15.06-5.82A20.71,20.71,0,0,1,388,141.21v-1.48q0-9.69,5.14-15.78T408,117.89q8.55,0,13.26,5.12t4.71,14V144H401.72l-.08.23a8.24,8.24,0,0,0,2.46,5.37,8.58,8.58,0,0,0,6.17,2,27.13,27.13,0,0,0,6.31-.62,39.19,39.19,0,0,0,5.76-2l3.17,8.05a24.12,24.12,0,0,1-7.35,3.36A33.9,33.9,0,0,1,408.48,161.76ZM408,128.05a5.45,5.45,0,0,0-4.67,2,10.15,10.15,0,0,0-1.74,5.45l.08.19h11.41v-1a8.76,8.76,0,0,0-1.16-5A4.39,4.39,0,0,0,408,128.05Z" style="fill:#da2222"/><path d="M450.27,161.76q-9.6,0-15.06-5.82t-5.44-14.73v-1.48q0-9.69,5.13-15.78t14.87-6.06q8.55,0,13.26,5.12t4.7,14V144H443.52l-.08.23a8.24,8.24,0,0,0,2.46,5.37,8.58,8.58,0,0,0,6.17,2,27.13,27.13,0,0,0,6.31-.62,39.19,39.19,0,0,0,5.76-2L467.3,157a24.06,24.06,0,0,1-7.34,3.36A33.92,33.92,0,0,1,450.27,161.76Zm-.5-33.71a5.45,5.45,0,0,0-4.67,2,10.07,10.07,0,0,0-1.74,5.45l.08.19h11.4v-1a8.76,8.76,0,0,0-1.15-5A4.42,4.42,0,0,0,449.77,128.05Z" style="fill:#da2222"/><path d="M496.68,129.92l-4.3,0a7.3,7.3,0,0,0-3.71.84,5.21,5.21,0,0,0-2.15,2.37v27.85h-13.2V118.67h12.42l.47,6.21a12.75,12.75,0,0,1,3.52-5.15,7.66,7.66,0,0,1,5.11-1.84,9.7,9.7,0,0,1,1.61.12,12,12,0,0,1,1.48.35Z" style="fill:#da2222"/><path d="M515.51,141.45v19.49H502.3V104.06H524q10.13,0,16.06,5.16a18.41,18.41,0,0,1,0,27.09q-5.94,5.13-16.06,5.14Zm0-10.16H524q4.31,0,6.57-2.36a8.43,8.43,0,0,0,2.26-6.08,8.82,8.82,0,0,0-2.24-6.21q-2.25-2.42-6.59-2.42h-8.51Z" style="fill:#da2222"/><path d="M566.37,160.94H553.12V100h13.25Z" style="fill:#da2222"/><path d="M598.87,160.9a15.65,15.65,0,0,1-1.27-3,23,23,0,0,1-.8-3.51,16.18,16.18,0,0,1-4.24,5.37,10.25,10.25,0,0,1-6.58,2q-6.65,0-10.34-3.42A12.08,12.08,0,0,1,572,149a11.27,11.27,0,0,1,4.73-9.7q4.73-3.42,14.34-3.42h5.43v-3a6,6,0,0,0-1.29-4.14,5,5,0,0,0-3.95-1.45,4.76,4.76,0,0,0-3.42,1.08,4.47,4.47,0,0,0-1.11,3.34l-12.81,0-.08-.23q-.27-5.79,4.82-9.67t13.46-3.89q7.84,0,12.72,3.91T609.65,133v15.94a33.17,33.17,0,0,0,.56,6.25,34.42,34.42,0,0,0,1.7,5.78Zm-9.3-8.56a8,8,0,0,0,4.28-1.13,6.54,6.54,0,0,0,2.6-2.69v-5.59h-5.32q-3.17,0-4.57,1.52a5.48,5.48,0,0,0-1.4,3.87,3.73,3.73,0,0,0,1.23,2.91A4.57,4.57,0,0,0,589.57,152.34Z" style="fill:#da2222"/><path d="M632.66,142.3l0,.32h.23l7-24H654l-16.83,48.56a23.23,23.23,0,0,1-5,7.73q-3.09,3-9.81,3a14.46,14.46,0,0,1-2.81-.22c-.73-.14-1.87-.41-3.44-.8l1.61-9.41.82.17a3.31,3.31,0,0,0,.7.06,8.69,8.69,0,0,0,4.57-.92,5.47,5.47,0,0,0,2.15-2.75l1.05-2.73-14.61-42.74h14Z" style="fill:#da2222"/><path d="M696.56,140.7q0,9.66-4.14,15.35t-12.26,5.71a11.84,11.84,0,0,1-6-1.49,13.05,13.05,0,0,1-4.41-4.29l-.78,5H657.42V100h13.2v22.77a12.9,12.9,0,0,1,4.09-3.61,11,11,0,0,1,5.37-1.27q8.16,0,12.32,6t4.16,16Zm-13.16-.82a21.67,21.67,0,0,0-1.41-8.73,5.22,5.22,0,0,0-5.23-3.1,7.82,7.82,0,0,0-3.69.8,6,6,0,0,0-2.45,2.32V149a5.82,5.82,0,0,0,2.49,2,9.43,9.43,0,0,0,3.73.66q3.9,0,5.23-2.71t1.33-8.19Z" style="fill:#da2222"/><path d="M700.62,139.41q0-9.53,5.4-15.52t15-6q9.69,0,15.08,6t5.39,15.52v.82q0,9.59-5.39,15.55t-15,6q-9.72,0-15.11-6t-5.4-15.55Zm13.21.82a17.39,17.39,0,0,0,1.66,8.34c1.1,2,3,3,5.64,3a5.83,5.83,0,0,0,5.55-3,17.3,17.3,0,0,0,1.68-8.32v-.82a17.4,17.4,0,0,0-1.68-8.26,5.89,5.89,0,0,0-5.63-3.1,5.79,5.79,0,0,0-5.56,3.12,17.56,17.56,0,0,0-1.66,8.24Z" style="fill:#da2222"/><path d="M745.59,139.41q0-9.53,5.39-15.52t15-6q9.68,0,15.07,6t5.39,15.52v.82q0,9.59-5.39,15.55t-15,6q-9.72,0-15.11-6t-5.39-15.55Zm13.2.82a17.39,17.39,0,0,0,1.66,8.34,5.91,5.91,0,0,0,5.64,3,5.83,5.83,0,0,0,5.55-3,17.3,17.3,0,0,0,1.68-8.32v-.82a17.4,17.4,0,0,0-1.68-8.26,5.87,5.87,0,0,0-5.62-3.1,5.81,5.81,0,0,0-5.57,3.12,17.56,17.56,0,0,0-1.66,8.24Z" style="fill:#da2222"/><path d="M807.89,144.14h-2.38v16.8H792.3V100h13.21v34.18h1.87l8.91-15.51h15.12l-13,19.06,15.15,23.21h-15Z" style="fill:#da2222"/></g></svg>