<svg id="Layer_1" data-name="Layer 1" xmlns="http://www.w3.org/2000/svg" viewBox="0 0 1200 628"><title>CP004_blog</title><rect id="White" width="1200" height="628" style="fill:#fff"/><g id="_004" data-name="004"><path d="M163.48,230a45.82,45.82,0,0,1-1.6,12.88,27,27,0,0,1-4.36,9,17.67,17.67,0,0,1-6.46,5.3,18.76,18.76,0,0,1-15.78,0,17.78,17.78,0,0,1-6.44-5.3,26.58,26.58,0,0,1-4.34-9,53.29,53.29,0,0,1,0-25.76,26.58,26.58,0,0,1,4.34-9,17.78,17.78,0,0,1,6.44-5.3,18.76,18.76,0,0,1,15.78,0,17.67,17.67,0,0,1,6.46,5.3,27,27,0,0,1,4.36,9A45.82,45.82,0,0,1,163.48,230Zm-4,0a45.5,45.5,0,0,0-1.32-11.76,24.8,24.8,0,0,0-3.54-8,13.76,13.76,0,0,0-5.2-4.54,14.21,14.21,0,0,0-6.26-1.44,13.69,13.69,0,0,0-11.44,6,24.6,24.6,0,0,0-3.56,8,53.13,53.13,0,0,0,0,23.54,24.57,24.57,0,0,0,3.56,8,13.83,13.83,0,0,0,5.2,4.52,14.18,14.18,0,0,0,6.24,1.42,14.33,14.33,0,0,0,6.26-1.42,13.61,13.61,0,0,0,5.2-4.52,24.78,24.78,0,0,0,3.54-8A45.51,45.51,0,0,0,159.48,230Z"/><path d="M209.88,230a45.82,45.82,0,0,1-1.6,12.88,27,27,0,0,1-4.36,9,17.67,17.67,0,0,1-6.46,5.3,18.76,18.76,0,0,1-15.78,0,17.78,17.78,0,0,1-6.44-5.3,26.58,26.58,0,0,1-4.34-9,53.29,53.29,0,0,1,0-25.76,26.58,26.58,0,0,1,4.34-9,17.78,17.78,0,0,1,6.44-5.3,18.76,18.76,0,0,1,15.78,0,17.67,17.67,0,0,1,6.46,5.3,27,27,0,0,1,4.36,9A45.82,45.82,0,0,1,209.88,230Zm-4,0a45.5,45.5,0,0,0-1.32-11.76,24.8,24.8,0,0,0-3.54-8,13.76,13.76,0,0,0-5.2-4.54,14.21,14.21,0,0,0-6.26-1.44,13.69,13.69,0,0,0-11.44,6,24.39,24.39,0,0,0-3.56,8,53.13,53.13,0,0,0,0,23.54,24.36,24.36,0,0,0,3.56,8,13.83,13.83,0,0,0,5.2,4.52,14.18,14.18,0,0,0,6.24,1.42,14.33,14.33,0,0,0,6.26-1.42,13.61,13.61,0,0,0,5.2-4.52,24.78,24.78,0,0,0,3.54-8A45.51,45.51,0,0,0,205.88,230Z"/><path d="M256.64,239v2.08a1,1,0,0,1-.26.7,1.15,1.15,0,0,1-.82.26h-9.28v16.24h-3.36V242H216.16a1.44,1.44,0,0,1-.92-.26,1.28,1.28,0,0,1-.44-.7l-.36-1.88,28.44-37.6h3.4V239Zm-13.72,0V209.36c0-.45,0-1,.06-1.48s.08-1.08.14-1.64L218.64,239Z"/><path d="M153.08,310.66H141.8v35h-9.91v-35H120.82v-7.61h32.26Z"/><path d="M166.11,317.93a10.66,10.66,0,0,1,3.5-3.33,9,9,0,0,1,4.56-1.18,9.44,9.44,0,0,1,7.73,3.43q2.82,3.42,2.82,10.63V345.7h-9.91V327.42q0-3.63-.93-5A3.21,3.21,0,0,0,171,321a8,8,0,0,0-2.91.48,5.19,5.19,0,0,0-2,1.36V345.7h-9.9V300h9.9Z"/><path d="M204.29,346.32q-7.22,0-11.3-4.37a15.53,15.53,0,0,1-4.08-11v-1.12q0-7.26,3.85-11.83t11.15-4.54q6.41,0,9.94,3.84t3.53,10.51V333H199.22l-.06.17a6.14,6.14,0,0,0,1.85,4,6.4,6.4,0,0,0,4.62,1.54,20.24,20.24,0,0,0,4.74-.47,29.82,29.82,0,0,0,4.32-1.49l2.37,6a17.93,17.93,0,0,1-5.51,2.52A25.13,25.13,0,0,1,204.29,346.32ZM203.91,321a4.08,4.08,0,0,0-3.5,1.5,7.55,7.55,0,0,0-1.31,4.09l.06.15h8.55V326a6.59,6.59,0,0,0-.86-3.73A3.34,3.34,0,0,0,203.91,321Z"/><path d="M140.27,375.05h9.91v29q0,6.54-4,10.42a14.19,14.19,0,0,1-10.28,3.88q-7.22,0-11.41-3.46t-4.06-10.05l.09-.17h9.67a6,6,0,0,0,1.58,4.6,5.85,5.85,0,0,0,4.13,1.46,3.71,3.71,0,0,0,3.16-1.77,8.51,8.51,0,0,0,1.23-4.91Z"/><path d="M170.39,418.32q-7.2,0-11.29-4.37a15.5,15.5,0,0,1-4.09-11v-1.12q0-7.26,3.85-11.83T170,385.42q6.42,0,10,3.84t3.53,10.51V405H165.32l-.06.17a6.19,6.19,0,0,0,1.85,4,6.42,6.42,0,0,0,4.63,1.54,20.2,20.2,0,0,0,4.73-.47,29.82,29.82,0,0,0,4.32-1.49l2.37,6a17.86,17.86,0,0,1-5.5,2.52A25.25,25.25,0,0,1,170.39,418.32ZM170,393a4.09,4.09,0,0,0-3.5,1.5,7.55,7.55,0,0,0-1.3,4.09l0,.15h8.56V398a6.59,6.59,0,0,0-.87-3.73A3.31,3.31,0,0,0,170,393Z"/><path d="M205.2,394.44l-3.23,0a5.47,5.47,0,0,0-2.78.63,3.89,3.89,0,0,0-1.61,1.77V417.7h-9.9V386H197l.35,4.66a9.69,9.69,0,0,1,2.64-3.87,5.81,5.81,0,0,1,3.84-1.37,7.16,7.16,0,0,1,1.2.09,7.34,7.34,0,0,1,1.11.26Z"/><path d="M226.35,394.44l-3.23,0a5.47,5.47,0,0,0-2.78.63,3.89,3.89,0,0,0-1.61,1.77V417.7h-9.9V386h9.31l.36,4.66a9.57,9.57,0,0,1,2.63-3.87,5.85,5.85,0,0,1,3.84-1.37,7.16,7.16,0,0,1,1.2.09,7.74,7.74,0,0,1,1.12.26Z"/><path d="M242.78,403.73l0,.23H243l5.24-18h10.55l-12.63,36.42a17.26,17.26,0,0,1-3.78,5.8c-1.54,1.52-4,2.29-7.35,2.29a11,11,0,0,1-2.11-.17q-.82-.15-2.58-.6l1.2-7.06.62.14a3.48,3.48,0,0,0,.53,0,6.53,6.53,0,0,0,3.42-.69,4.06,4.06,0,0,0,1.61-2.06l.8-2.06-11-32.05h10.52Z"/><path d="M299.41,404.9h.18l9.64-29.85h13.09V417.7h-9.9V390.22l-.17,0-9.41,27.51h-6.65L287,390.6l-.17,0V417.7h-9.91V375.05h13Z"/><path d="M346.85,417.67a11.63,11.63,0,0,1-1-2.25,18.15,18.15,0,0,1-.6-2.64,12.17,12.17,0,0,1-3.18,4,7.63,7.63,0,0,1-4.93,1.51c-3.32,0-5.91-.86-7.75-2.57a9,9,0,0,1-2.77-7,8.43,8.43,0,0,1,3.55-7.28q3.54-2.57,10.75-2.57H345v-2.25a4.51,4.51,0,0,0-1-3.11,3.77,3.77,0,0,0-3-1.08,3.6,3.6,0,0,0-2.56.8,3.35,3.35,0,0,0-.83,2.51l-9.61,0-.06-.18a8.27,8.27,0,0,1,3.62-7.25q3.81-2.91,10.09-2.91a14.71,14.71,0,0,1,9.53,2.93q3.66,2.92,3.65,8.38v11.95a23.9,23.9,0,0,0,.43,4.69,24.44,24.44,0,0,0,1.27,4.33Zm-7-6.41a6.11,6.11,0,0,0,3.21-.85,4.87,4.87,0,0,0,1.95-2V404.2h-4a4.46,4.46,0,0,0-3.42,1.14,4.08,4.08,0,0,0-1.06,2.9,2.78,2.78,0,0,0,.93,2.18A3.39,3.39,0,0,0,339.87,411.26Z"/><path d="M359,401.91q0-7.41,3.24-12a10.55,10.55,0,0,1,9.13-4.54,8.13,8.13,0,0,1,4.39,1.18A10.55,10.55,0,0,1,379,390l.65-4h8.73v31.35q0,6.27-4.29,9.71t-11.83,3.45a21.21,21.21,0,0,1-5.15-.68A28.91,28.91,0,0,1,362,428l1.7-7.33a23,23,0,0,0,4.09,1.39,19.38,19.38,0,0,0,4.47.46,7.33,7.33,0,0,0,4.7-1.26,4.88,4.88,0,0,0,1.54-4v-2.46a9.16,9.16,0,0,1-3.12,2.61,9,9,0,0,1-4.06.88,10.65,10.65,0,0,1-9.08-4.34Q359,409.65,359,402.53Zm9.88.62a13.2,13.2,0,0,0,1.12,6,4,4,0,0,0,3.83,2.15,6.89,6.89,0,0,0,2.77-.5,4.55,4.55,0,0,0,1.89-1.49V395.38a5,5,0,0,0-1.88-1.74,5.78,5.78,0,0,0-2.72-.6,4,4,0,0,0-3.83,2.44,14.86,14.86,0,0,0-1.18,6.43Z"/><path d="M413.17,413a10.38,10.38,0,0,1-3.64,4,9.69,9.69,0,0,1-5.17,1.39,9.36,9.36,0,0,1-7.72-3.46q-2.81-3.45-2.8-10.69V386h9.87v18.23q0,3.72,1,5.09a3.34,3.34,0,0,0,2.95,1.38,8.15,8.15,0,0,0,2.78-.44,5.33,5.33,0,0,0,2.05-1.32V386h9.9v31.7h-8Z"/><path d="M438.16,378.65h-9.93V372h9.93Zm0,39.05h-9.93V386h9.93Z"/><path d="M461.75,394.44l-3.22,0a5.49,5.49,0,0,0-2.79.63,3.89,3.89,0,0,0-1.61,1.77V417.7h-9.9V386h9.31l.36,4.66a9.57,9.57,0,0,1,2.63-3.87,5.85,5.85,0,0,1,3.84-1.37,7.16,7.16,0,0,1,1.2.09,7.74,7.74,0,0,1,1.12.26Z"/><path d="M478.89,418.32q-7.22,0-11.3-4.37a15.53,15.53,0,0,1-4.08-11v-1.12q0-7.26,3.85-11.83t11.15-4.54q6.4,0,9.94,3.84T492,399.77V405H473.82l-.06.17a6.14,6.14,0,0,0,1.85,4,6.4,6.4,0,0,0,4.62,1.54,20.24,20.24,0,0,0,4.74-.47,29.82,29.82,0,0,0,4.32-1.49l2.37,6a17.93,17.93,0,0,1-5.51,2.52A25.13,25.13,0,0,1,478.89,418.32ZM478.51,393a4.11,4.11,0,0,0-3.51,1.5,7.63,7.63,0,0,0-1.3,4.09l.06.15h8.55V398a6.59,6.59,0,0,0-.86-3.73A3.34,3.34,0,0,0,478.51,393Z"/><path d="M133.3,475.08V489.7h-9.9V447.05h16.29q7.59,0,12,3.86a13.82,13.82,0,0,1,0,20.32q-4.46,3.86-12,3.85Zm0-7.61h6.39a6.46,6.46,0,0,0,4.92-1.78,6.32,6.32,0,0,0,1.7-4.55,6.55,6.55,0,0,0-1.69-4.66,6.39,6.39,0,0,0-4.93-1.82H133.3Z"/><path d="M171.45,489.7h-9.94V444h9.94Z"/><path d="M195.82,489.67a11.62,11.62,0,0,1-.95-2.25,15.87,15.87,0,0,1-.6-2.64,12.17,12.17,0,0,1-3.18,4,7.66,7.66,0,0,1-4.94,1.51q-5,0-7.75-2.57a9,9,0,0,1-2.77-7,8.46,8.46,0,0,1,3.55-7.28q3.54-2.57,10.75-2.57H194v-2.25a4.56,4.56,0,0,0-1-3.11,3.78,3.78,0,0,0-3-1.08,3.63,3.63,0,0,0-2.57.8,3.39,3.39,0,0,0-.83,2.51l-9.61,0-.06-.18a8.29,8.29,0,0,1,3.62-7.25q3.83-2.91,10.09-2.91a14.72,14.72,0,0,1,9.54,2.93q3.65,2.92,3.65,8.38v11.95a23.32,23.32,0,0,0,1.7,9Zm-7-6.41a6.11,6.11,0,0,0,3.21-.85,4.91,4.91,0,0,0,1.94-2V476.2h-4a4.49,4.49,0,0,0-3.43,1.14,4.12,4.12,0,0,0-1.05,2.9,2.77,2.77,0,0,0,.92,2.18A3.42,3.42,0,0,0,188.85,483.26Z"/><path d="M221.16,475.73l0,.23h.18l5.24-18h10.55l-12.63,36.42a17.57,17.57,0,0,1-3.78,5.8c-1.54,1.52-4,2.29-7.35,2.29a11,11,0,0,1-2.11-.17q-.82-.15-2.58-.6l1.2-7.06.62.14a3.44,3.44,0,0,0,.52,0,6.55,6.55,0,0,0,3.43-.69,4.11,4.11,0,0,0,1.61-2.06l.79-2.06L205.93,458h10.52Z"/><g id="_004_draw" data-name="004_draw"><path d="M899.36,419.78a2.37,2.37,0,0,0,2,.29.79.79,0,0,0-.41-.1,10.37,10.37,0,0,1-1.55-.67c-.1,0-.2-.09-.3-.09a.59.59,0,0,1-.42-.19,1.9,1.9,0,0,0,.72.76Z" style="fill:#161616"/><path d="M884.23,414a2.8,2.8,0,0,0,1.33,2.39,3.62,3.62,0,0,0,1.34.38,2.3,2.3,0,0,1,.72-.09,17.37,17.37,0,0,0,3.4-1,5.24,5.24,0,0,1-1.23-.19,6.91,6.91,0,0,1-2.89-1.82,13.33,13.33,0,0,1-.92-1.24,5.3,5.3,0,0,1-1.65-.86c0,.76-.1,1.53-.1,2.39Z" style="fill:#161616"/><path d="M832.63,328.76a1.74,1.74,0,0,0-.93.77,1.84,1.84,0,0,0-.2.86c.93,7.85,2.37,15.7,3.91,23.45q2.16,10.47,4.64,21c1.64,6.89,3.29,13.88,5,20.77,3.5,13.68,7.11,27.37,10.92,41.06a2.3,2.3,0,0,0,2.88,1.62,2.44,2.44,0,0,0,1.65-3c-2.06-7.47-4.12-14.93-6.08-22.4-3.6-13.78-7.1-27.66-10.29-41.54-.42-1.62-.73-3.16-1.14-4.78a85.69,85.69,0,0,1-3-12.54,4.47,4.47,0,0,1-.21-2,6.48,6.48,0,0,1-.41-1.53c-.41-1.92-.83-3.83-1.24-5.74-1.65-2-3.29-4.12-4.84-6.32a6.92,6.92,0,0,1-.62-5.17,6.74,6.74,0,0,1,2-3.25v-.1a1.68,1.68,0,0,0-1.54-1.24,1.06,1.06,0,0,0-.52.09Z" style="fill:#161616"/><path d="M820.69,321.49ZM696.08,273.06c3.08.86,6.07,1.91,9.16,2.87s6.18,2,9.27,3c6.08,2,12.25,4.11,18.43,6.22s12.26,4.21,18.44,6.32,12.36,4.3,18.53,6.5l15.76,5.75c5.46,2,10.71,4.11,16.07,6.22,10.6,4.21,21,8.8,31.3,13.78a1.54,1.54,0,0,1,.52,2.1,1.45,1.45,0,0,1-.93.77,1.58,1.58,0,0,1-1.13-.19q-5.41-2.58-10.81-4.88a.36.36,0,0,1,.2.09.36.36,0,0,0-.2-.09c-.11,0-.11,0-.11-.1v.1c-11.74-5.17-23.79-9.57-35.94-13.69-6.18-2.1-12.36-4.11-18.54-6.12s-12.46-3.83-18.74-5.84c-8.86-2.78-17.82-5.55-26.67-8.62-4.43-1.53-8.86-3.15-13.18-4.88-2.17-.86-4.33-1.72-6.49-2.68s-4.33-1.82-6.49-2.87a2,2,0,0,1-.93-2.29,2,2,0,0,1,2-1.44Z" style="fill:#161616"/><path d="M691.75,277.08c.31,7.27,1,14.64,2,21.92s2.16,14.64,3.7,21.91,3.3,14.46,5.26,21.54c3.81,14.26,8.44,28.33,13.07,42.4,2.58,7.75,5.15,15.5,7.11,23.45a3.23,3.23,0,0,1-2.16,3.92,2.89,2.89,0,0,1-2.37-.29,3.94,3.94,0,0,1-1.44-1.91c-2.47-7.18-4.53-14.45-6.59-21.73-1-3.63-2-7.18-3-10.81s-2-7.18-2.88-10.72c-1.86-7.18-3.71-14.26-5.46-21.44s-3.19-14.45-4.64-21.63c-1.44-7.56-2.67-15.12-3.6-22.68-1-7.95-1.75-15.89-2.16-23.93a1.57,1.57,0,0,1,1.54-1.63,1.65,1.65,0,0,1,1.65,1.63Z" style="fill:#161616"/><path d="M929.64,414.23a.1.1,0,0,1-.1.1.1.1,0,0,0,.1-.1Zm3.5-1a2.65,2.65,0,0,1,1.45,1.06,2.47,2.47,0,0,1,.2,1.91,2.17,2.17,0,0,1-1,1.44q-8.19,3.72-16.68,6.6c-5.56,1.91-11.12,3.64-16.79,5.26s-11.33,3.26-17,5c-2.68.86-5.46,1.72-8.14,2.68-1.44.48-2.88,1-4.32,1.34a12.15,12.15,0,0,1-4.53.86,2.09,2.09,0,0,1-1.44-3.64,7,7,0,0,1,1.64-1.24,20.54,20.54,0,0,1,2.17-1c1.23-.48,2.47-1,3.81-1.44,2.67-1,5.45-1.82,8.23-2.58,5.46-1.63,11-3.07,16.59-4.6,10.81-2.87,21.62-5.93,32-10.43.62-.29,1.34-.57,2.06-1a1.1,1.1,0,0,0,.52-.19,1.46,1.46,0,0,1,.62-.09,1.44,1.44,0,0,1,.61.09Z" style="fill:#161616"/><path d="M946.53,409.64a2.35,2.35,0,0,1,1.13.86,22.86,22.86,0,0,1,1.45,2.68,10.74,10.74,0,0,1,.92,3.44,10.28,10.28,0,0,1-1.13,6.32,1.67,1.67,0,0,1-2,.86,1.5,1.5,0,0,1-1-.86,1.28,1.28,0,0,1-.2-1.34,26.56,26.56,0,0,0,.82-2.78v-2a20,20,0,0,0-.62-2.1,13.33,13.33,0,0,0-1.34-2.39,1.62,1.62,0,0,1-.2-1.34,1.87,1.87,0,0,1,.82-1.15,3.08,3.08,0,0,1,.93-.19Z" style="fill:#161616"/><path d="M949.11,420.36a2.53,2.53,0,0,1-.93,3.34c-11.74,7.57-24.61,13.21-37.59,18.29-6.49,2.58-13.08,5-19.67,7.46s-13.08,5.07-19.57,7.66c-2.88,1.15-5.87,2.39-8.75,3.44a2.36,2.36,0,0,1-2.78-1.15,2.64,2.64,0,0,1,.82-3.44c2.37-1.25,4.74-2.39,7.11-3.45,2.57-1.15,5.25-2.2,7.93-3.25q7.88-3,15.76-5.74c10.5-3.64,20.9-7.37,31.1-11.78a172.34,172.34,0,0,0,23.37-12.25,2.22,2.22,0,0,1,1.14-.28,2.64,2.64,0,0,1,2.06,1.15Z" style="fill:#161616"/><path d="M861,442.08a2.32,2.32,0,0,1,1.55,2.68c-.31,1.24-.62,2.49-.83,3.73a34.72,34.72,0,0,0,.11,8.71,5.3,5.3,0,0,1-.31,1.15,2.21,2.21,0,0,1-1.34,1,2.06,2.06,0,0,1-1.65-.19,1.88,1.88,0,0,1-.93-1.34c-.2-1.15-.31-2.2-.41-3.35s0-2.49.1-3.73a41.78,41.78,0,0,1,1-7.09,2.27,2.27,0,0,1,2.17-1.62,1.23,1.23,0,0,1,.51.09Z" style="fill:#161616"/><path d="M727.07,402.55c1.44.39,3,.77,4.43,1.15s3.09,1,4.64,1.34c3.09,1,6.07,1.82,9.06,2.68l18.12,5.46q18.24,5.31,36.46,10.33c19.36,5.36,38.93,10.34,58.39,15.32a1.75,1.75,0,0,1,1.13,2.2,1.6,1.6,0,0,1-2.06,1.24c-12.15-3.06-24.4-6.12-36.55-9.09-6.08-1.53-12.26-3-18.34-4.5l-18.43-4.59c-9.78-2.49-19.57-5.17-29.25-7.95-4.84-1.34-9.68-2.77-14.41-4.3-2.48-.86-4.85-1.63-7.21-2.4-2.58-.95-5.15-1.81-7.62-2.87a2.16,2.16,0,0,1-.73-.86,2.27,2.27,0,0,1-.2-1.63,2.13,2.13,0,0,1,.93-1.33,2.38,2.38,0,0,1,1.13-.29,5,5,0,0,0,.51.09Z" style="fill:#161616"/><path d="M729.75,405.33a2.07,2.07,0,0,1,1.44,1.15,2,2,0,0,1,.21,1.91,20.76,20.76,0,0,0-1.13,4.4,14.82,14.82,0,0,0,0,4.31,27.73,27.73,0,0,0,.92,4,2.55,2.55,0,0,1-1.75,3.16,2.09,2.09,0,0,1-1.85-.29,2.46,2.46,0,0,1-1.13-1.53,17.89,17.89,0,0,1-1.24-7.75,21.79,21.79,0,0,1,1.54-7.66c.11-.19.21-.38.31-.57a2.52,2.52,0,0,1,.83-1,2.91,2.91,0,0,1,1.23-.29,1.35,1.35,0,0,1,.62.1Z" style="fill:#161616"/><path d="M737,418.73c9.68,3.06,19.36,6.32,29,9.57,10,3.35,20,6.6,30.07,9.67s20.19,6.12,30.38,8.61c9.89,2.49,19.88,4.69,29.87,6.22,1.44.29,3,.48,4.43.67s2.67.38,4,.48a2.08,2.08,0,0,1,.93.48,1.25,1.25,0,0,1,.31.86,1.37,1.37,0,0,1-.31,1,1,1,0,0,1-.93.38c-20.39-2.39-40.37-7.28-60-12.92-10.19-2.87-20.28-5.94-30.38-9.19-9.88-3.06-19.67-6.22-29.45-9.47-3-.87-5.87-1.82-8.86-2.78a1.92,1.92,0,0,1-1.23-2.3,1.83,1.83,0,0,1,1.75-1.34c.1,0,.31.1.41.1Z" style="fill:#161616"/><path d="M895.35,417.29a1.8,1.8,0,0,1-.1.77,1.43,1.43,0,0,1-.62.48,115.35,115.35,0,0,1-16,4.49,133.59,133.59,0,0,0-16.17,4.41,1.21,1.21,0,0,1-1.55-.86,1.35,1.35,0,0,1,.93-1.53,147.26,147.26,0,0,1,16.06-4,106,106,0,0,0,16.17-4.41.36.36,0,0,1,.21-.09,1.22,1.22,0,0,1,1,.76Z" style="fill:#161616"/><path d="M870,413.66c-4.32,1.24-8.75,2.39-13.07,3.63a1.43,1.43,0,0,0-1,1.73,1.58,1.58,0,0,0,1.75,1.05c4.53-1.05,9-2.3,13.38-3.64s8.65-2.49,13-3.83a1.35,1.35,0,0,0,.82-.67,5.46,5.46,0,0,1-2-2L870,413.66Z" style="fill:#161616"/><path d="M863.42,417.48c3.3,1.06,6.59,2,9.89,2.88a82.68,82.68,0,0,0,9.78,2l2,.29a1.34,1.34,0,0,1,.93.38,1.38,1.38,0,0,1,.41,1.06,1.09,1.09,0,0,1-.41,1,1.28,1.28,0,0,1-.93.47,100.1,100.1,0,0,1-22.35-5.45,1.39,1.39,0,0,1-.72-.58,1.26,1.26,0,0,1-.1-1.05,1.21,1.21,0,0,1,1.23-1Z" style="fill:#161616"/><path d="M860.85,408c3.4.67,6.8,1.43,10.19,2.2s7,1.34,10.51,1.91a2.12,2.12,0,0,1,1.34,2.49,1.92,1.92,0,0,1-.83,1.15c-.2.1-.31.1-.51.19a1.8,1.8,0,0,1-1,0c-3.4-.48-6.8-1.15-10.2-1.82s-7-1.34-10.5-2.29a2,2,0,0,1-.41-3.64,1.77,1.77,0,0,1,.92-.29,4.86,4.86,0,0,0,.52.1Z" style="fill:#161616"/><path d="M1083,422.75a6.24,6.24,0,0,1-.92,1.34c.31.09.62.19,1,.29,6.59,2.2,13.08,4.49,19.67,6.79l19.67,6.89a2,2,0,0,0,2.47-1.43,2.22,2.22,0,0,0-.21-1.63,3,3,0,0,0-1.23-1c-7.62-3.06-15.35-5.93-23.07-8.61-5.46-2-11-3.93-16.48-5.75a8,8,0,0,1-.93,3.07Z" style="fill:#161616"/><path d="M1125.21,439.59a1.41,1.41,0,0,1-.52,1.82q-36.15,17.8-72.5,35.61c-12.15,5.93-24.2,11.86-36.25,17.89-6.07,3-12.05,6-18.12,9.09l-17.92,9.19c-10.09,5.17-20.08,10.43-30.18,15.7-4.94,2.68-10,5.26-15,7.94s-10,5.17-15.14,7.76a2.5,2.5,0,0,1-1.85.19,2.14,2.14,0,0,1-1.45-1.15,2.55,2.55,0,0,1,.83-3.45c5.87-3.35,11.84-6.51,17.81-9.66s12-6.13,18-9.1c12.05-6,24.2-12.06,36.35-17.8l36.46-17.51c12.25-5.84,24.4-11.68,36.55-17.52,20.4-9.76,40.89-19.43,61.18-29.38a.79.79,0,0,1,.62-.19,1.32,1.32,0,0,1,1.13.57Z" style="fill:#161616"/><path d="M528.21,426.1c2.78.67,5.56,1.43,8.34,2.2,3,.86,6,1.63,9.07,2.49,2.78.76,5.56,1.62,8.23,2.49,3,.86,5.87,1.81,8.76,2.87q16.36,5.6,32.75,11.48c22.14,7.85,44.18,16.18,66.22,24.31,44.28,16.56,88.66,33.12,134,46.42,33.88,9.95,68.28,18.19,103.19,23.07,2.57.38,5,.67,7.51,1.05a1.46,1.46,0,0,1,.62.09,1.91,1.91,0,0,1,.93.58,2.1,2.1,0,0,1,.62,1.53,2.19,2.19,0,0,1-.62,1.63,1.94,1.94,0,0,1-1.55.67,639.79,639.79,0,0,1-68.38-12.64C815,528.79,792.57,522.19,770.12,515c-45-14.55-89.08-31.77-133.47-48.33-17.92-6.7-35.94-13.4-54.06-19.62-9-3.16-17.92-6.13-27-9-4.64-1.53-9.27-2.58-14-3.73S531.82,432,527,430.5a2.31,2.31,0,0,1-1.55-2.78,2.16,2.16,0,0,1,2.16-1.72,1.33,1.33,0,0,1,.62.1Z" style="fill:#161616"/><path d="M700.5,367.52a2.55,2.55,0,0,1-1.64,3c-14.11,4.79-28.53,9-42.85,12.83-14.52,3.92-29.14,7.65-43.66,11.48s-29,7.85-43.36,12.35c-7.1,2.2-14.21,4.59-21.21,7-3.61,1.25-7.11,2.4-10.61,3.64l-4.94,1.72c-1.86.58-3.71,1.25-5.46,1.82-.21.1-.31.1-.41.19a2.19,2.19,0,0,1-2.47-1.05,2.26,2.26,0,0,1,.82-3,95,95,0,0,1,9.89-5.07c3.4-1.63,7-3.06,10.5-4.5,7-2.68,14.11-5.07,21.22-7.27,14.31-4.4,28.93-8.14,43.45-11.68,14.73-3.44,29.36-6.79,44-10.53,14.42-3.63,28.83-7.56,43-12.25a7,7,0,0,1,.82-.28,1.35,1.35,0,0,1,.62-.1,2.48,2.48,0,0,1,2.26,1.72Z" style="fill:#161616"/><path d="M1126.44,440.93a3.92,3.92,0,0,1,.72,1.82c.42,4.69.73,9.38.83,14.17a2.53,2.53,0,0,1-2.47,2.58,2.7,2.7,0,0,1-2.58-2.58c-.2-4.79-.41-9.48-.92-14.17a2.69,2.69,0,0,1,.82-1.82,2.41,2.41,0,0,1,1.75-.76,2.64,2.64,0,0,1,1.85.76Z" style="fill:#161616"/><path d="M1124.18,461.32a2.37,2.37,0,0,1,1.44,1.15,2.47,2.47,0,0,1,.21,1.91,2,2,0,0,1-1.14,1.44c-14.52,7.27-28.94,14.83-43.15,22.68-7.21,3.92-14.31,7.94-21.42,12s-14.31,8-21.42,12.06c-28.52,16-57.05,32.16-86.71,45.94-5.77,2.68-11.53,5.27-17.4,7.66-2.79,1.15-5.67,2.2-8.55,3.25s-5.77,2.11-8.76,3a2.26,2.26,0,0,1-2.57-1.15,2.43,2.43,0,0,1,.82-3.25,51.64,51.64,0,0,1,5.15-2.59c1.86-1,3.81-1.91,5.67-2.77,3.6-1.82,7.31-3.54,10.91-5.36,7.42-3.45,14.73-7,22-10.53,14.73-7.18,29.25-14.55,43.77-22.2s29-15.32,43.46-23.17,28.73-15.5,43.25-23.16c10.71-5.64,21.63-11.19,32.54-16.65a3,3,0,0,1,1.24-.29,1.35,1.35,0,0,1,.62.1Z" style="fill:#161616"/><path d="M914.81,544.78a2.49,2.49,0,0,1,1.65,3,68.34,68.34,0,0,0-1.65,8,59.58,59.58,0,0,0,.11,15.5,2.38,2.38,0,0,1-.83,1.92,2.41,2.41,0,0,1-1.75.76,2.64,2.64,0,0,1-1.85-.76,3.13,3.13,0,0,1-.72-1.92A67.33,67.33,0,0,1,912,546.4a2.28,2.28,0,0,1,2.27-1.72,1.12,1.12,0,0,1,.51.1Z" style="fill:#161616"/><path d="M520.69,426.77a94.33,94.33,0,0,0,.42,12.15c.3,4.21.82,8.33,1.23,12.54a3.66,3.66,0,0,1-.51,1.72,3.06,3.06,0,0,1-2,1.53,3.29,3.29,0,0,1-4-2.39,88.6,88.6,0,0,1-1.64-12.92c-.21-4.11-.21-8.42-.21-12.63a3.47,3.47,0,0,1,3.4-3.35,3.38,3.38,0,0,1,3.29,3.35Z" style="fill:#161616"/><path d="M519.46,458c3,.76,5.87,1.63,8.85,2.39,3.2.86,6.39,1.72,9.58,2.68,6.08,1.63,12.26,3.35,18.33,5.17s12.16,3.73,18.13,5.84,11.94,4.5,17.81,6.79c23.38,8.9,47.07,17.23,70.86,25.08,47.06,15.41,94.85,28.62,143,40.39q53.91,13.07,108.34,24a2.55,2.55,0,0,1,.52,4.59,2.06,2.06,0,0,1-1.86.2c-48.81-10-97.52-20.87-145.82-33.5-48-12.44-95.57-26.7-142.43-43.17-8.75-3.15-17.51-6.31-26.26-9.57-4.22-1.53-8.45-3.16-12.67-4.78-4.53-1.73-9.06-3.45-13.69-5.08-8.86-3.06-17.92-5.45-27.09-7.84-4.32-1.25-8.75-2.4-13.18-3.64a141.12,141.12,0,0,1-13.9-4.31,2.42,2.42,0,0,1-1.55-1.24,2.52,2.52,0,0,1-.31-2.11,2.67,2.67,0,0,1,2.58-2c.31,0,.51.1.72.1Z" style="fill:#161616"/><path d="M594,459.31a.82.82,0,0,1,.31.57.7.7,0,0,1-.31.58c-4.33,3.44-8.65,6.79-13.18,10-2.17,1.53-4.43,3.06-6.7,4.59s-4.63,3-7,4.41a1,1,0,0,1-1.34-.39,1,1,0,0,1,.41-1.34c2.27-1.34,4.53-2.77,6.8-4.21s4.63-3,6.8-4.49q6.8-4.74,13.28-9.77a.57.57,0,0,1,.41-.19.58.58,0,0,1,.52.29Z" style="fill:#161616"/><path d="M585.06,452.42c0,.09,0,.09-.1.09.1,0,.1-.09.2-.09Zm6.18-3.74a1.54,1.54,0,0,1,.31.87,1.14,1.14,0,0,1-.31.86A199,199,0,0,1,575.07,463l-8.34,5.74-8.65,5.74a1.27,1.27,0,0,1-1.65-.38,1.53,1.53,0,0,1-.1-1,1.25,1.25,0,0,1,.61-.77c2.27-1.62,4.64-3.25,7-4.78s4.84-3.25,7.21-5c4.73-3.16,9.37-6.51,13.8-10.05v.1c0-.1.1-.1.1-.19h.1c1.44-1.25,3-2.4,4.43-3.74a1.22,1.22,0,0,1,.82-.28,1.25,1.25,0,0,1,.83.28Z" style="fill:#161616"/><path d="M576.1,447.15a1.71,1.71,0,0,1-.62,2.2c-5.46,3.64-11,7.18-16.48,10.92s-11,7.56-16.47,11.48a1.39,1.39,0,0,1-2-.57,1.26,1.26,0,0,1-.21-1.06,2.57,2.57,0,0,1,.72-.95c5.26-4,10.71-7.76,16.17-11.49s11.13-7.46,16.69-11.1a1.15,1.15,0,0,1,.72-.29,1.77,1.77,0,0,1,1.44.86Z" style="fill:#161616"/><path d="M562.51,442.66a1.48,1.48,0,0,1,1,.86,1.77,1.77,0,0,1,.2,1.43,1.68,1.68,0,0,1-.82,1.05c-4.64,3.45-9.37,6.9-14.11,10.25s-9.68,6.79-14.63,10.05a1.58,1.58,0,0,1-2.26-.58,1.54,1.54,0,0,1-.21-1.34,1.76,1.76,0,0,1,.83-1.05l14.21-10.05c4.84-3.45,9.58-7,14.31-10.43a1.77,1.77,0,0,1,.93-.29,1,1,0,0,1,.52.1Z" style="fill:#161616"/><path d="M549.53,441.7a2.37,2.37,0,0,1-.72,3c-7.11,4.49-14,9.18-20.8,14.06a2,2,0,0,1-2.78-.76,1.92,1.92,0,0,1-.11-1.53,2.13,2.13,0,0,1,.83-1.25c6.79-5,13.69-9.76,20.7-14.26a2.08,2.08,0,0,1,1-.28,2.19,2.19,0,0,1,1.85,1.05Z" style="fill:#161616"/><path d="M540.36,433.47a2,2,0,0,1,0,2.77A127.55,127.55,0,0,1,524,449.93a2,2,0,0,1-2.78-2.3,1.71,1.71,0,0,1,.93-1.15c2-1.43,4-3,6-4.49-.1.09-.31.19-.41.28a120.43,120.43,0,0,0,10-8.8,1.69,1.69,0,0,1,1.34-.58,1.84,1.84,0,0,1,1.33.58Z" style="fill:#161616"/><path d="M1112.75,470.12a1.94,1.94,0,0,1,.61,1.63c-1.85,16.65-2.88,33.5-3.5,50.34-.41,8.43-.61,16.75-.82,25.18s-.52,16.84-.93,25.26c-.1,1.25-.2,2.39-.2,3.54a2.79,2.79,0,0,1-.83,1.82,2.26,2.26,0,0,1-1.75.77,2.54,2.54,0,0,1-2.47-2.59c-.1-4.21,0-8.42.1-12.63s.21-8.42.31-12.63c.41-8.43.83-16.85,1.24-25.18s1.13-16.84,1.85-25.17,1.44-16.84,2.37-25.26c.1-1.15.31-2.3.41-3.45a3,3,0,0,1,.62-1.63,2.2,2.2,0,0,1,1.55-.57,2.14,2.14,0,0,1,1.44.57Z" style="fill:#161616"/><path d="M537.89,467.92c.21,13.69,1.24,27.28,2.58,40.87.61,6.89,1.44,13.78,2.26,20.67s1.75,13.59,2.37,20.48a3,3,0,0,1-.41,1.63,3.32,3.32,0,0,1-1.85,1.44,3.23,3.23,0,0,1-2.48-.29,3.15,3.15,0,0,1-1.44-1.91c-1.13-6.89-1.85-13.88-2.57-20.87s-1.24-13.78-1.75-20.67c-1-13.78-1.55-27.57-1.75-41.35a2.6,2.6,0,0,1,2.47-2.58,2.69,2.69,0,0,1,2.57,2.58Z" style="fill:#161616"/><path d="M915.64,574.16c-.11,3.92-.11,7.85-.11,11.77V597.8a2.34,2.34,0,0,1-2.16,2.2,2.19,2.19,0,0,1-2.16-2.2c-.11-3.93,0-7.94,0-11.87s.1-7.85.2-11.77a2.18,2.18,0,0,1,2.06-2.2,2.27,2.27,0,0,1,2.17,2.2Z" style="fill:#161616"/><path d="M1104.71,497.5a1.36,1.36,0,0,1,.42.86,1.64,1.64,0,0,1-.42,1q-6.63,8-13.59,15.79c-2.37,2.58-4.63,5.16-7,7.75s-4.64,5.17-7,7.75a1.24,1.24,0,0,1-1.75,0,1.58,1.58,0,0,1-.31-1,1.54,1.54,0,0,1,.31-.86c2.27-2.68,4.64-5.26,6.9-7.84s4.64-5.17,7-7.76c4.63-5.17,9.16-10.43,13.59-15.69a1.26,1.26,0,0,1,.93-.48,1.22,1.22,0,0,1,.92.48Z" style="fill:#161616"/><path d="M1101.62,487.06a.55.55,0,0,1,0,.77c-3.08,3.06-6.07,6.12-9.06,9.28s-6,6.22-9,9.38c-2.26,2.4-4.43,4.88-6.69,7.28l-6.59,7.27a.74.74,0,1,1-1-1c2.88-3.16,5.87-6.32,8.75-9.48s6-6.31,9-9.38c4.53-4.78,9.17-9.47,13.8-14.07a.85.85,0,0,1,.41-.19.81.81,0,0,1,.41.19Z" style="fill:#161616"/><path d="M1080.72,494.72a2,2,0,0,1,.41,1,2.34,2.34,0,0,1-.41,1.06c-5,6-10,12.06-15,18a1.21,1.21,0,0,1-1.85,0,1.07,1.07,0,0,1-.41-1,1.16,1.16,0,0,1,.41-1c4.84-6.13,9.89-12.16,14.83-18.19a1.52,1.52,0,0,1,1-.38,1.37,1.37,0,0,1,1,.38Z" style="fill:#161616"/><path d="M1078.66,407.82c-.1.57-.31,1.15-.41,1.82.41.57.72,1.14,1.13,1.72a8.09,8.09,0,0,0,1.34,1.34c-.1-2.49-.31-5.07-.62-7.56-.51.86-.93,1.82-1.44,2.68Z" style="fill:#161616"/><path d="M1024.7,438.16a2,2,0,0,1,.51,1.24,2,2,0,0,1-.51,1.25,1.8,1.8,0,0,1-1.24.47c-8.86.87-17.71,1.92-26.47,3.16a.71.71,0,0,0,.42-.09Q966,448.63,935.1,455.67c-6.49,1.44-12.87,3.06-19.26,4.69s-12.36,3.35-18.53,5.07a1.89,1.89,0,0,1-1-3.63c4.73-1.53,9.37-2.87,14.1-4.21q7.43-2,14.83-3.74c10.3-2.49,20.6-4.69,31-6.6s20.91-3.64,31.41-5.17c10-1.53,20.08-2.77,30.18-3.83l5.66-.57h.1a1.7,1.7,0,0,1,1.14.48Z" style="fill:#161616"/><path d="M1023.05,437.3a1.64,1.64,0,0,1,1.23,2,94.26,94.26,0,0,0-1.85,10.52,148.19,148.19,0,0,0-1.13,17.9,177.51,177.51,0,0,0,1.34,18.09,2.12,2.12,0,0,1-.31,1.05,2,2,0,0,1-1.14.86,2.15,2.15,0,0,1-1.33-.19,2,2,0,0,1-.93-1.15c-.62-4-1-8-1.24-12s-.1-7.94.11-12a145.14,145.14,0,0,1,3.29-24,1.52,1.52,0,0,1,1.55-1.24c.2,0,.31,0,.41.1Z" style="fill:#161616"/><path d="M1022.12,490.7a2,2,0,0,1-.62,1.53,1.91,1.91,0,0,1-1.44.58c-5.77.38-11.64.95-17.4,1.72h.31c-27,3.73-53.14,11.68-79.3,19.33-10.2,3.07-20.49,6-30.9,8.62a2.21,2.21,0,0,1-2.67-1.63,2.29,2.29,0,0,1,1.54-2.87c13.08-3.45,26.16-7.18,39.13-10.91,13.19-3.74,26.27-7.47,39.55-10.63,16.37-3.82,33-6.79,49.74-7.84h.1a2.07,2.07,0,0,1,2,2.1Z" style="fill:#161616"/><path d="M896.89,492.23v0Zm3.92-31.39a1.81,1.81,0,0,1,.82.67,2.24,2.24,0,0,1,.21,1.15c-.93,4.88-1.86,9.76-2.68,14.64s-1.65,9.86-2.27,14.84a210.32,210.32,0,0,0-1.75,21.05,2,2,0,1,1-3.91,0c.51-8.71,1.65-17.32,3-25.84s3.09-17,4.73-25.46a1.51,1.51,0,0,1,1.44-1.15c.11,0,.31.1.42.1Z" style="fill:#161616"/><path d="M919.45,462.47a1.4,1.4,0,0,1,.92.76,1.73,1.73,0,0,1,.21,1.25,104.45,104.45,0,0,0-1.85,11.1c-.42,2.77-.62,5.55-.93,8.33s-.31,5.64-.41,8.51a1.66,1.66,0,0,1-1.65,1.63,1.59,1.59,0,0,1-1.65-1.63,113.36,113.36,0,0,1,1-14.45,140.23,140.23,0,0,1,2.37-14.35,1.51,1.51,0,0,1,1.54-1.25.82.82,0,0,1,.42.1Z" style="fill:#161616"/><path d="M933.45,463.52a2.86,2.86,0,0,1,.62,1.53c-.62,6.89-1.44,13.69-2.47,20.48a1.76,1.76,0,0,1-.93,1.25,2.45,2.45,0,0,1-1.65.28,2.2,2.2,0,0,1-1.13-.95,1.34,1.34,0,0,1-.2-.58,1.71,1.71,0,0,1,0-1c.2-1.53.41-3.06.61-4.59a1.15,1.15,0,0,0-.1.57c.62-5.17,1.24-10.24,1.65-15.41a2.81,2.81,0,0,1,.62-1.53,2.1,2.1,0,0,1,1.44-.57,2.17,2.17,0,0,1,1.54.57Z" style="fill:#161616"/><path d="M946.22,463a1.4,1.4,0,0,1,.93,1.82c-1.75,5.55-3.4,11.2-4.74,16.94a1.48,1.48,0,0,1-1.75,1.05,1.5,1.5,0,0,1-1-1.82c1.34-5.74,3-11.38,4.74-17a1.75,1.75,0,0,1,1.44-1.05.86.86,0,0,1,.41.09Z" style="fill:#161616"/><path d="M755.19,430.5a1.92,1.92,0,0,1-1.24,2.2c-11.12,2.87-22.14,6.61-33.06,10.34s-21.93,7.56-33,10.81a171.63,171.63,0,0,1-19.57,4.6,1.06,1.06,0,0,0-.52.09,1.75,1.75,0,0,1-.92-.28,2.7,2.7,0,0,1-.93-1.15,2,2,0,0,1,1.34-2.4c5.66-1.43,11.22-2.68,16.89-4.21s11.12-3.15,16.58-4.88c11-3.44,22-7.27,33.06-10.81,6.38-2,12.87-3.93,19.36-5.55.1,0,.2-.1.41-.1a1.81,1.81,0,0,1,1.65,1.34Z" style="fill:#161616"/><path d="M657.56,391.64a1.86,1.86,0,0,1,.82,1.25c.93,2.39,1.75,5,2.47,7.46s1.34,5,2.06,7.47c1.45,5.07,2.68,10.14,3.81,15.21a119.78,119.78,0,0,1,3.4,31.49,2.28,2.28,0,0,1-2.26,2.2,2.14,2.14,0,0,1-2.17-2.2A91.81,91.81,0,0,0,665,439.4,164.24,164.24,0,0,0,660,417c-1-3.74-2.06-7.47-3.09-11.3a81.65,81.65,0,0,1-2.37-12.35,2.13,2.13,0,0,1,1.44-1.91,4.83,4.83,0,0,0,.52-.09,1.85,1.85,0,0,1,1,.28Z" style="fill:#161616"/><path d="M703.49,380.64a1.88,1.88,0,0,1,.82,1.14,1.92,1.92,0,0,1-1.34,2.4c-3.6,1.15-7.41,2.1-11.22,3s-7.52,1.92-11.33,2.88-7.52,1.91-11.22,3c-3.92,1.06-7.73,2.2-11.54,3.45a2,2,0,0,1-2.47-1.44,2,2,0,0,1,1.34-2.49c7.62-2.48,15.14-4.78,22.76-7,3.71-1,7.52-2,11.22-2.87a102.42,102.42,0,0,1,12-2.3,1.69,1.69,0,0,1,.93.29Z" style="fill:#161616"/><path d="M668.17,426.67a1.93,1.93,0,0,1-.62,2.39c-4.74,3.07-9.48,6-14.11,9.19s-9.17,6.51-13.49,10l.31-.29a6,6,0,0,1-.83.67l-.2.19-.31.29a3.42,3.42,0,0,1-.93.19,2,2,0,0,1-1.23-.48,2.18,2.18,0,0,1-.52-1.34,1.92,1.92,0,0,1,.52-1.24,144.44,144.44,0,0,1,14.11-10.53c4.94-3.26,9.88-6.41,14.93-9.57a1.21,1.21,0,0,1,.82-.29,1.74,1.74,0,0,1,1.55.86Z" style="fill:#161616"/><path d="M578.67,424.18a70.42,70.42,0,0,1,7.42,1.73l7.21,2.29c4.84,1.73,9.68,3.64,14.52,5.55,9.58,3.93,18.95,8.14,28.32,12.45a1.8,1.8,0,0,1,1,1.34,2.2,2.2,0,0,1-.21,1.62,2.08,2.08,0,0,1-1.34,1.06c-.2,0-.31.09-.51.09A2.38,2.38,0,0,1,634,450c-2.17-1-4.33-2-6.49-3-8.14-3.45-16.27-6.89-24.51-10-4.12-1.53-8.34-3-12.67-4.4-2.06-.76-4.22-1.43-6.38-2.1s-4.33-1.44-6.39-2.3a2.33,2.33,0,0,1-1.23-1,2,2,0,0,1-.21-1.72,1.84,1.84,0,0,1,.93-1.24,2,2,0,0,1,1-.29,1.44,1.44,0,0,1,.61.09Z" style="fill:#161616"/><path d="M618.63,398.53a2.88,2.88,0,0,1,.21,1.63,2.7,2.7,0,0,1-.93,1.15,220.69,220.69,0,0,1-20.39,12.44c-6.9,3.83-14,7.56-20.91,11.49a1.81,1.81,0,0,1-2.47-.77,1.85,1.85,0,0,1,.62-2.58c6.9-3.93,13.9-7.76,20.8-11.58,3.4-2,6.8-3.93,10.1-5.94,3.5-2.1,6.79-4.31,10.19-6.6a1.86,1.86,0,0,1,1-.29,2.43,2.43,0,0,1,1.75,1Z" style="fill:#161616"/><path d="M631.61,394.61c4.43,1,8.85,2.2,13.28,3.45s9,2.39,13.39,3.73a2.1,2.1,0,0,1,1.34,2.39,2.06,2.06,0,0,1-2.37,1.44c-4.43-1.25-8.86-2.49-13.39-3.74s-8.85-2.29-13.28-3.63a1.93,1.93,0,0,1-.41-3.45,1.72,1.72,0,0,1,.92-.29,4.86,4.86,0,0,0,.52.1Z" style="fill:#161616"/><path d="M1260.73,418.15a2,2,0,0,1-.61,2.59c-11,7.18-22.35,13.78-33.89,20.1s-23.58,12.34-35.42,18.28c-6.39,3.25-12.87,6.31-19.26,9.47s-12.87,6.51-19.46,9.38c-.21.1-.31.19-.52.29a3.36,3.36,0,0,1-1.34,0,2.76,2.76,0,0,1-1.44-1.15,2.53,2.53,0,0,1,.93-3.35c5.77-3.06,11.74-5.84,17.61-8.61s11.94-5.65,17.92-8.52,12-5.65,18-8.61,12-5.94,17.82-9c12.66-6.7,25.12-13.69,37.17-21.54a3.42,3.42,0,0,1,.93-.19,1.71,1.71,0,0,1,1.54.86Z" style="fill:#161616"/><path d="M1252,509.75c-.1,0-.1,0-.21-.1a.33.33,0,0,1-.2-.09.85.85,0,0,0,.41.19Zm-99-33.88a169.9,169.9,0,0,1,20.6,3.92q10.2,2.58,20.08,6c11.43,3.92,22.66,8.52,33.78,13.21.1.09.31.19.41.29l5.56,2.29c6.08,2.68,12,5.36,18.13,7.95h-.1c.1,0,.2.09.3.09a.4.4,0,0,0,.31.1h-.1a1.6,1.6,0,0,1,.72.38c0-.1,0-.1-.1-.1,4.43,1.92,8.75,3.83,13.18,5.75a2.84,2.84,0,0,1,.82.76,2.27,2.27,0,0,1,.21,1.82,2.14,2.14,0,0,1-1,1.44,2.3,2.3,0,0,1-1.75.19c-6.59-2.49-13-5.27-19.46-8-3.2-1.44-6.49-2.87-9.68-4.21-1.55-.77-3.09-1.44-4.64-2.11a18.26,18.26,0,0,1-2.37-1.05,4.14,4.14,0,0,1-1.13-.48,4.05,4.05,0,0,1-.93-.38c-.31-.1-.61-.29-.92-.39-3.2-1.43-6.49-2.77-9.79-4.21-6.49-2.77-13.18-5.36-19.77-7.75-13.7-5-27.7-9.09-42.12-11.1H1153a1.31,1.31,0,0,0-.61-.1,2.35,2.35,0,0,1-.93-.57,2.1,2.1,0,0,1-.62-1.53,2.5,2.5,0,0,1,.62-1.63,2.09,2.09,0,0,1,1.34-.57Z" style="fill:#161616"/><path d="M1150.54,534.63a98.46,98.46,0,0,1,10.4,1.63c3.4.76,6.7,1.53,10.1,2.39q10.18,2.73,20.08,6.32a213.06,213.06,0,0,1,38.1,17.8c1.13.67,2.37,1.44,3.5,2.1a2.56,2.56,0,0,1,.83,3.26,2.29,2.29,0,0,1-3.2.86,194.09,194.09,0,0,0-24.4-12.82,258.25,258.25,0,0,0-27.4-9.77q-7.1-2-14.21-3.73c-4.84-1.15-9.68-2.2-14.42-3.54a2.24,2.24,0,0,1-1.64-2.2,2.49,2.49,0,0,1,.61-1.63,2.3,2.3,0,0,1,1.55-.67Z" style="fill:#161616"/><path d="M1194.82,496.44a2.15,2.15,0,0,1,.62,1.63,2.29,2.29,0,0,1-.62,1.63c-2.67,2.2-5.35,4.21-8,6.31.11-.09.31-.19.41-.28-5.66,4.5-11.22,9.28-16.68,14.26a210,210,0,0,0-15.34,15.79,1.69,1.69,0,0,1-2.48,0,2,2,0,0,1-.51-1.24,2,2,0,0,1,.51-1.34,266.16,266.16,0,0,1,18.64-19.34c3.3-3.06,6.6-5.93,10-8.9s7-6.12,10.71-8.9a2.57,2.57,0,0,1,1.14-.29,2.13,2.13,0,0,1,1.64.67Z" style="fill:#161616"/><path d="M1132.31,351.25c3.51.1,7,.39,10.51.58s7,.48,10.61.67c7.1.28,14.21.48,21.31.67s14.32.19,21.42.38c7.32.19,14.52.38,21.84.77a3.15,3.15,0,0,1,1.75.76,2.85,2.85,0,0,1,.72,1.92,2.54,2.54,0,0,1-2.47,2.58c-7.11-.38-14.22-.48-21.32-.48-7.31-.09-14.63-.09-21.94-.19-7.1-.1-14.21-.29-21.31-.67-3.61-.19-7.11-.38-10.61-.77a107.48,107.48,0,0,1-11.12-1.62,2.41,2.41,0,0,1-1.65-2.3,2.29,2.29,0,0,1,2.16-2.3Z" style="fill:#161616"/><path d="M1126.13,350.49a2.75,2.75,0,0,1,1.14,1.43,3.13,3.13,0,0,1-.21,1.92c-3.71,8.42-9.16,15.89-15,22.78-2.89,3.54-6,6.79-9.07,10.14-1.54,1.72-3,3.35-4.53,5.07s-3.19,3.55-4.84,5.27a2.32,2.32,0,0,1-3.29,0,2.6,2.6,0,0,1-.72-1.72,1.21,1.21,0,0,0,.1-.58,2.54,2.54,0,0,1,.62-1.15c1.75-2.29,3.7-4.4,5.66-6.6s4.22-4.5,6.28-6.8c4-4.4,8-9,11.64-13.78a76.41,76.41,0,0,0,9.06-15.12,2.17,2.17,0,0,1,1.44-1.15c.21,0,.42-.09.62-.09a2.24,2.24,0,0,1,1.13.38Z" style="fill:#161616"/><path d="M1221.09,354.6a1.43,1.43,0,0,1,.51,2,281.33,281.33,0,0,1-15.55,26c-5.66,8.51-11.53,16.84-17.1,25.26-2.16,3.35-4.32,6.7-6.48,10a1.5,1.5,0,0,1-1,.86,1.55,1.55,0,0,1-1.44-.19,2,2,0,0,1-.73-2.59c2.68-4.3,5.67-8.42,8.55-12.63s5.87-8.33,8.76-12.44c5.87-8.33,11.53-16.75,16.78-25.46q3.09-5,5.87-10.34a1.21,1.21,0,0,1,1.13-.67,1.7,1.7,0,0,1,.73.19Z" style="fill:#161616"/><path d="M1111.92,409.35c3.3.29,6.59.67,9.89,1,6.8.67,13.59,1.63,20.39,2.49,6.59.77,13.29,1.63,19.88,2.39,6.79.77,13.59,1.44,20.39,1.82a1.92,1.92,0,0,1,2,2,2,2,0,0,1-2,2.11c-6.7-.39-13.29-.86-20-1.44s-13.49-1.43-20.29-2.2-13.28-1.44-19.88-2.11c-3.39-.28-6.69-.67-10-1-3.5-.29-7-.58-10.4-1a1.31,1.31,0,0,0-.61-.1,3.4,3.4,0,0,1-1-.67,2.11,2.11,0,0,1-.62-1.62,2.31,2.31,0,0,1,2.26-2.3h.21c3.3,0,6.49.19,9.78.48Z" style="fill:#161616"/><path d="M670.54,321.68a2.72,2.72,0,0,1,2.67,2.68,2.75,2.75,0,0,1-2.67,2.78c-14.63-.1-29.25.28-43.88.47-7.41.2-14.83.29-22.24.39-3.71.09-7.31.09-11,.09s-7.41-.09-11.12-.38a2.12,2.12,0,0,1-1.65-.67,2.43,2.43,0,0,1,0-3.45,2.15,2.15,0,0,1,1.65-.67c3.5-.28,7-.38,10.61-.38s7.41-.1,11-.19l22.25-.29c12.46-.19,24.92-.38,37.38-.38Z" style="fill:#161616"/><path d="M533,369.44c-.1.09-.21.19-.31.19.1,0,.21-.1.31-.19ZM585.88,322a2.08,2.08,0,0,1,.62,1.53,2.9,2.9,0,0,1-.62,1.63,344.17,344.17,0,0,1-28.94,29.95,412.22,412.22,0,0,1-32.13,26.61c-1.75,1.24-3.5,2.58-5.35,3.83a2.27,2.27,0,0,1-3.09-.86,3.22,3.22,0,0,1-.21-1.73,3.17,3.17,0,0,1,1-1.43c5.15-3.93,10.4-7.85,15.45-11.87,0,.1-.1.1-.21.19.21-.09.31-.29.52-.38h0A357.72,357.72,0,0,0,582.69,322a2,2,0,0,1,1.54-.67,2.12,2.12,0,0,1,1.65.67Z" style="fill:#161616"/><path d="M681.14,324.17a1.32,1.32,0,0,1,0,1.91c-.72,1-1.34,1.92-2.06,2.78h0c-5.35,7.18-10.19,14.74-14.93,22.49L657,362.83c-2.36,3.83-4.73,7.66-7.31,11.3-.1.09-.1.19-.2.28a1.4,1.4,0,0,1-.83.67,1.5,1.5,0,0,1-1.13-.19,1.56,1.56,0,0,1-.62-2.1c2.47-3.73,4.95-7.47,7.42-11.3s4.73-7.65,7.21-11.48c4.73-7.66,9.68-15.22,15.13-22.4.83-1.15,1.75-2.29,2.58-3.44a1.14,1.14,0,0,1,.93-.38,1,1,0,0,1,.92.38Z" style="fill:#161616"/><path d="M568.27,380.54c14.63.57,29.25,1.53,44,2.11,6.28.19,12.66.38,19,.38a2.1,2.1,0,0,1,2.06,2.1,2.13,2.13,0,0,1-2.06,2.21c-14.73,0-29.35-.67-44.08-1.34s-29.25-1.25-44-1.15c-6.28.09-12.56.28-18.94.48a2.18,2.18,0,0,1-2.06-2.21,2.1,2.1,0,0,1,.61-1.53,2.27,2.27,0,0,1,1.45-.67,213.6,213.6,0,0,1,22-.95h.42c7.2,0,14.41.28,21.62.57Z" style="fill:#161616"/><path d="M816.57,265.12c-1,.19-2.06.28-3.09.47v-.09c0,.09-.11.09-.11.09h-.1c-2.78.39-5.66.77-8.55,1.25-2.57.38-5.15.76-7.62,1.34a1.88,1.88,0,0,0-1.23,2.3,1.7,1.7,0,0,0,1.64,1.34c2.48-.1,5-.39,7.42-.67s4.94-.48,7.41-.87c5-.57,10-1.24,15-1.91q6.79-1,13.59-2.3a16.76,16.76,0,0,1-2-2.58,12.88,12.88,0,0,1-1.75-1.53c-6.9,1.24-13.8,2.2-20.7,3.16Z" style="fill:#161616"/><path d="M793.5,270.76a1.67,1.67,0,0,1,1,.77,2.23,2.23,0,0,1,.2,1.43c-1.85,4.69-3.91,9.38-6.18,14-1.13,2.29-2.26,4.5-3.5,6.79s-2.47,4.41-3.81,6.51a2,2,0,0,1-1,.77,1.74,1.74,0,0,1-1.34-.19,1.82,1.82,0,0,1-.61-2.4l3.39-6c1.14-2,2.17-4,3.3-6.12,2.06-4.12,4-8.33,5.77-12.54a11.44,11.44,0,0,1,.72-1.72,1.4,1.4,0,0,1,.72-1.06,1.76,1.76,0,0,1,.93-.28.7.7,0,0,1,.41.09Z" style="fill:#161616"/><path d="M765.59,238.13a1.8,1.8,0,0,0-1.24,3.06,2.43,2.43,0,0,0,1.24.57c5.56.58,11.12.86,16.58,1.25s10.81.76,16.27,1.05c9,.57,17.92,1.15,26.88,1.34-.31-.67-.52-1.34-.82-2-.31-.38-.52-.77-.83-1.15-8.44-.38-16.89-1.05-25.23-1.72-5.56-.48-11-1.05-16.58-1.53-5.35-.39-10.81-.86-16.27-.86Z" style="fill:#161616"/><path d="M750.14,250l-.1.1c.1,0,.1,0,.1-.1Zm15.24-11a1.94,1.94,0,0,1,0,2.77,186.6,186.6,0,0,1-15,13.11,171.73,171.73,0,0,1-16.48,11.49,2,2,0,0,1-2.68-.67,2.14,2.14,0,0,1,.72-2.78c3.2-2,6.29-4.11,9.37-6.22s5.87-4.3,8.76-6.5q6.65-5.33,12.67-11.2a2,2,0,0,1,1.33-.58,1.69,1.69,0,0,1,1.34.58" style="fill:#161616"/><path d="M825.42,253.06c-2.88,2.58-5.87,5.07-8.75,7.56a1,1,0,0,0-.41.86,1.16,1.16,0,0,0,.41.86.94.94,0,0,0,.82.38,1.16,1.16,0,0,0,.93-.38c3-2.49,6-5.07,8.86-7.75l2.06-1.92c-.42-.67-.93-1.34-1.34-2l-2.58,2.4Z" style="fill:#161616"/><path d="M730.68,267.8a53.61,53.61,0,0,1,6.79.57c2.37.29,4.64.67,7,1.15,4.43.76,8.85,1.72,13.28,2.77s8.76,2.21,13.08,3.45l13.6,3.73a2.27,2.27,0,0,1,1.54,2.78,2.22,2.22,0,0,1-2.68,1.53c-4.43-1.25-8.75-2.39-13.18-3.35s-8.86-2-13.28-3-8.86-1.72-13.39-2.58l-6.7-1.15c-2.16-.38-4.42-.77-6.59-1.24a2.5,2.5,0,0,1-1.75-2.3,2.39,2.39,0,0,1,2.27-2.39Z" style="fill:#161616"/><path d="M688.66,252.1a1.62,1.62,0,0,1,.82.57,1.5,1.5,0,0,1,.11,1.15,1.74,1.74,0,0,1-.62.86c-7.11,5.55-14.42,10.91-21.83,16.18-3.61,2.58-7.32,5.17-11,7.75s-7.42,5.36-11.23,7.85a1.48,1.48,0,0,1-2.06-.48,1.77,1.77,0,0,1-.2-1.24,2.15,2.15,0,0,1,.72-1c3.6-2.59,7.31-5.07,11-7.66s7.51-5.17,11.32-7.85q11.13-7.74,21.94-16.07a1.11,1.11,0,0,1,.62-.2c.2,0,.31,0,.41.1Z" style="fill:#161616"/><path d="M654.06,240.23a89.94,89.94,0,0,1,18.12,3.93c6,1.81,11.85,4.21,17.61,6.6a1.1,1.1,0,0,0,.52.19,2.48,2.48,0,0,1,.62.77,1.63,1.63,0,0,1,.2,1.53,1.9,1.9,0,0,1-.82,1.15,1.78,1.78,0,0,1-1.55.19q-8.49-3.59-17.3-6.32c-2.88-.86-5.77-1.63-8.75-2.3s-6.08-1.34-9.06-2a1.8,1.8,0,0,1-1.45-1.81,2.11,2.11,0,0,1,1.75-1.92Z" style="fill:#161616"/><path d="M651.9,241.19a2.09,2.09,0,0,1,.61,1.53,2.34,2.34,0,0,1-.61,1.63c-7.93,6.31-16.17,12.25-24.52,18-4.11,2.68-8.34,5.46-12.46,8-4.32,2.78-8.65,5.55-13.07,8a2.21,2.21,0,0,1-3-.77,2.46,2.46,0,0,1,.72-3.15c4.12-2.59,8.24-5.08,12.36-7.66s8.34-5.27,12.46-8c8-5.26,16-10.82,23.48-16.85a10.62,10.62,0,0,1,1-.76l.41-.38a1.78,1.78,0,0,1,1-.29,2.3,2.3,0,0,1,1.55.67Z" style="fill:#161616"/><path d="M600.4,274.4c3.3,1,6.49,2.11,9.79,3.25s6.48,2.21,9.78,3.35a176,176,0,0,0,19.77,5.36,2.54,2.54,0,0,1,1.75,3.07,2.58,2.58,0,0,1-1.13,1.53,2.55,2.55,0,0,1-1.85.28,193.71,193.71,0,0,1-19.88-5.16l-9.89-3.16c-3.19-1.15-6.48-2.2-9.68-3.45a2.18,2.18,0,0,1-1.54-1.24,2.76,2.76,0,0,1-.31-2,2.7,2.7,0,0,1,2.58-1.92,1.31,1.31,0,0,1,.61.1Z" style="fill:#161616"/><path d="M844.37,371.64a2.92,2.92,0,0,0,.93,1c-.41-1.06-.83-2-1.24-3.07a3.57,3.57,0,0,0,.31,2.11Z" style="fill:#161616"/><path d="M687.84,274.21c.92,18.47,3.91,36.75,7.93,54.84,2,9.09,4.12,18.18,6.59,27.18s5.15,17.9,8.13,26.7c1.44,4.21,3,8.33,4.53,12.54s3.4,8.61,5.36,12.83a3,3,0,0,0,3.4,1.34,3,3,0,0,0,2.06-3.74c-1-4.4-2.27-8.8-3.61-13.11s-2.78-8.71-4.22-13.11c-3-8.81-6-17.61-8.86-26.51s-5.66-17.8-7.93-26.9c-2.36-8.9-4.22-18-5.76-27.18-.41-2.77-.83-5.64-1.24-8.52-.72-5.45-1.23-10.91-1.44-16.36a2.59,2.59,0,0,0-2.47-2.49,2.45,2.45,0,0,0-2.47,2.49Z" style="fill:#161616"/><path d="M831.09,325.89a2.21,2.21,0,0,0-1.55,2.68c4.74,18.57,9.68,37,14.63,55.61,1.23,4.59,2.47,9.28,3.7,13.88s2.68,9.18,3.92,13.87,2.26,9.29,3.5,13.88a53.15,53.15,0,0,0,2,6.6c.42,1.25.93,2.49,1.45,3.74a13.07,13.07,0,0,0,2.16,3.63,12.51,12.51,0,0,0,1.23,1.15,3.08,3.08,0,0,0,2.27.29,3.13,3.13,0,0,0,2.06-2.11,8.22,8.22,0,0,0,.21-3.54,25.66,25.66,0,0,0-.62-3.83,54.49,54.49,0,0,0-2.06-7.17c-1.65-4.5-3.4-9-5.05-13.5s-3-9.09-4.43-13.69-3-9.09-4.53-13.68c-.31-1.15-.72-2.39-1.13-3.54A84.63,84.63,0,0,1,840.05,354a7,7,0,0,1-.11-3.25c-.51-1.92-1.13-3.93-1.64-5.84-1.65-2.11-3.3-4.31-4.95-6.51a6.92,6.92,0,0,1-.62-5.17,7.8,7.8,0,0,1,1.65-3c-.1-.57-.31-1.15-.41-1.82-.1-.28-.21-.66-.31-1.05a2.13,2.13,0,0,0-2.06-1.63.78.78,0,0,0-.51.1Z" style="fill:#161616"/><path d="M1127.16,352.5a67,67,0,0,0-6.28,5.55c-2.06,2.1-4,4.31-6,6.6-3.81,4.5-7.52,9.29-11.33,13.88-7.41,9.19-15,18.38-23.48,26.61,0,.09-.1.09-.1.19l-.62,1.15a3.29,3.29,0,0,0,.72,3.06,3,3,0,0,0,4.22,0c8.45-8.33,16.17-17.32,23.79-26.32q5.88-6.89,11.43-13.78c2-2.39,3.81-4.88,5.67-7.28s3.4-4.78,4.94-7.27a2.25,2.25,0,0,0-.31-2.39,1.84,1.84,0,0,0-1.34-.58,2.14,2.14,0,0,0-1.34.58Z" style="fill:#161616"/><path d="M1080.41,408.68a3,3,0,0,0-1.24,1.82.54.54,0,0,0-.1.38,2.22,2.22,0,0,0,.31.48,12.37,12.37,0,0,0,1.54,1.53,4.55,4.55,0,0,1,1,1.34,479.59,479.59,0,0,0,49.44,6.7c8.44.77,16.78,1.34,25.23,1.72,8.65.48,17.2.86,25.85,1a2.43,2.43,0,0,0,2.37-2.49,2.51,2.51,0,0,0-2.37-2.49c-6.39-.48-12.88-.76-19.26-1.15s-12.77-.86-19.16-1.34c-12.87-.95-25.64-2.2-38.41-3.92a.39.39,0,0,1,.31.1,1.35,1.35,0,0,0-.62-.1h-.1v-.1h0c-7.62-1.05-15.14-2.2-22.55-3.73-.31,0-.62-.09-.83-.09a2.69,2.69,0,0,0-1.44.38Z" style="fill:#161616"/><path d="M1144.16,426.1Zm-56.44-10.34a1.8,1.8,0,0,0,1.13,2.11c5.57,1.81,11.13,3.44,16.79,4.88s11.33,2.77,17,3.92c11.43,2.49,23.07,4.21,34.61,5.84,4.73.77,9.37,1.34,14.1,2l6.9.86c2.37.19,4.64.48,6.9.58a2,2,0,0,0,2-1.54,2.09,2.09,0,0,0-1.44-2.58,96.33,96.33,0,0,0-10.51-1.72c-3.39-.48-6.89-1-10.4-1.34-6.79-.86-13.69-1.73-20.59-2.68h0a1.33,1.33,0,0,1-.62-.1c.1.1.1.1.2.1-9.06-1.25-18-2.68-27-4.4a260.87,260.87,0,0,1-27-7.09.86.86,0,0,0-.41-.09,1.84,1.84,0,0,0-1.65,1.24Z" style="fill:#161616"/><path d="M1187.31,432.41c-.11.1-.11.29-.21.39.1-.1.1-.29.21-.39Zm9.27-15.6c-.11,0-.11.1-.21.1.1,0,.1-.1.21-.1Zm34.08-40.58c-2.16,1.73-4.32,3.64-6.48,5.55s-4.43,3.93-6.7,5.94c-4.43,4-8.86,8.23-13.08,12.63a135.22,135.22,0,0,0-12.05,14,78.76,78.76,0,0,0-8.85,14.93,23.68,23.68,0,0,0-1,2.48,2.5,2.5,0,0,0,.2,1.92,2.24,2.24,0,0,0,1.44,1,2.53,2.53,0,0,0,1.86-.19c.1-.19.31-.29.41-.38a2.21,2.21,0,0,0,.62-1.06c0-.09,0-.19.1-.19a76.71,76.71,0,0,1,9.17-15.79,161.32,161.32,0,0,1,18.12-19.62c3.19-3.06,6.49-6.12,9.79-9.19s6.38-5.93,9.26-9.19a2.06,2.06,0,0,0,0-2.87,1.81,1.81,0,0,0-1.34-.67,2.06,2.06,0,0,0-1.44.67Z" style="fill:#161616"/><path d="M1196.88,492.52a1.71,1.71,0,0,0-.82.57,1.46,1.46,0,0,0-.1,1.15,1.68,1.68,0,0,0,.62.86c10.81,4.88,22,8.71,33.05,13.12a1.34,1.34,0,0,0,1-.2,1.19,1.19,0,0,0,.72-.86,2.08,2.08,0,0,0-.1-1.15,1.3,1.3,0,0,0-.93-.67c-10-3.92-20.08-7.37-30-11.67a17.68,17.68,0,0,1-2.37-1.05,2.52,2.52,0,0,0-.83-.2.4.4,0,0,0-.31.1Z" style="fill:#161616"/><path d="M1195.85,503.05a1.62,1.62,0,0,0-.72.86,1.78,1.78,0,0,0,.21,1.24,2.68,2.68,0,0,0,.82.67c8.76,3.54,17.51,6.89,26.16,10.63-.1-.1-.2-.1-.41-.2,2,.87,3.91,1.73,5.77,2.59a1.85,1.85,0,0,0,1.23.19,4.17,4.17,0,0,0,1-.76,2,2,0,0,0,.11-1.34,1.78,1.78,0,0,0-.73-1c-5.35-2.39-10.71-4.6-16.16-6.7s-10.82-4.21-16.17-6.41c-.11,0-.31-.1-.41-.1a1.19,1.19,0,0,0-.73.29Z" style="fill:#161616"/><path d="M1190.4,511.47a1.32,1.32,0,0,0,.92,1.72,95.72,95.72,0,0,1,13.49,4.5c1,.48,2,1,3,1.44a1.92,1.92,0,0,0,1,.09,1.33,1.33,0,0,0,1-1.72,1.61,1.61,0,0,0-.62-1,91.38,91.38,0,0,0-17.2-6h-.3a1.41,1.41,0,0,0-1.34,1Z" style="fill:#161616"/><path d="M1189.16,517.31a1.73,1.73,0,0,0,1.13,2,109.53,109.53,0,0,1,15.86,5.26c.31.19.83,0,1.24-.19a1.72,1.72,0,0,0,.72-1,1.69,1.69,0,0,0-.21-1.24,1.55,1.55,0,0,0-.92-.86,132.83,132.83,0,0,0-15.86-5.17h-.41a1.51,1.51,0,0,0-1.55,1.15Z" style="fill:#161616"/><path d="M854.15,277.27c-.82.1-1.64.29-2.47.38-1,3.74-2.06,7.37-3.09,11.11-1.33,4.59-2.67,9.18-4,13.68-1.34,4.79-2.68,9.48-3.61,14.36a3.64,3.64,0,0,0,.21,2.1,3,3,0,0,0,1.65,1.25,2.65,2.65,0,0,0,3.19-1.92c1.34-4.59,2.47-9.18,3.71-13.78,1.23-4.78,2.47-9.57,3.6-14.35,1.13-4.12,2.06-8.33,3-12.54a6.1,6.1,0,0,0-.83-.48c-.1,0-.2-.1-.31-.1-.3.1-.61.19-1,.29Z" style="fill:#161616"/><path d="M821.51,253.34c-4.22,4-8.34,8.23-12.36,12.45a2.87,2.87,0,0,0,0,3.92,2.66,2.66,0,0,0,3.71,0c3.91-4.21,8-8.23,12.15-12.06,1.55-1.53,3.19-3,4.74-4.4l-.11-.29a26.86,26.86,0,0,1-2.88-4.5c-1.75,1.53-3.5,3.26-5.25,4.88Z" style="fill:#161616"/><path d="M686.91,249.9c-4,2.39-7.83,5.07-11.64,7.85s-7.82,5.74-11.74,8.61c-7.82,5.74-15.75,11.39-24,16.56a3.09,3.09,0,0,0-1,4.11,2.87,2.87,0,0,0,4,1.06c8.24-5.17,16.07-10.82,23.9-16.56,4-2.87,7.93-5.74,11.74-8.71s7.93-5.84,11.74-8.9a2.56,2.56,0,0,0,.31-3.06,2.21,2.21,0,0,0-2.06-1.25,2.61,2.61,0,0,0-1.24.29Z" style="fill:#161616"/><path d="M681.66,324a117.59,117.59,0,0,0-10.1,13.2c-3.19,4.5-6.17,9.19-9.16,13.79-6,9.28-11.74,18.66-18.23,27.66a2.21,2.21,0,0,0-.2,1.62,2.26,2.26,0,0,0,1,1.34,1.7,1.7,0,0,0,1.54.19,2.58,2.58,0,0,0,1.34-.95c6.28-8.9,12.15-18.09,18-27.28,3-4.59,6-9.28,9.17-13.78s6.38-8.9,9.68-13.4a3.29,3.29,0,0,0,.2-1,2.22,2.22,0,0,0-.51-1.43,2.09,2.09,0,0,0-1.44-.58,1.69,1.69,0,0,0-1.34.58Z" style="fill:#161616"/><path d="M796.38,208.46c0,.09,0,.19-.1.19.1,0,.1-.1.1-.19Zm.41-19.24Zm75.28-38.95a202.89,202.89,0,0,0-43.25,22.3A154,154,0,0,0,809,188.64c-3,3-6,6-8.76,9.19a124.18,124.18,0,0,0-7.62,10c0-1.15.1-2.3.21-3.45a75.77,75.77,0,0,1,4-15.22c1.86-5,4.12-9.76,6.39-14.54,1.13-2.3,2.37-4.5,3.5-6.8.51-1.05,1-2,1.54-3.06s1-2.11,1.55-3.16a1.51,1.51,0,0,0-.41-2,1.26,1.26,0,0,0-1.86.48c-.41.76-.82,1.43-1.23,2.1s-.93,1.53-1.34,2.4c-.93,1.62-1.85,3.35-2.78,5-2,3.74-3.81,7.47-5.56,11.3a123.17,123.17,0,0,0-4.74,12.06,60.07,60.07,0,0,0-2.57,12,32.41,32.41,0,0,0,.3,8.9,1.6,1.6,0,0,0,1.24,1.34,1.57,1.57,0,0,0,2-.86c1.13-1.82,2.26-3.64,3.5-5.46a121.4,121.4,0,0,1,21-23.35h0a178.52,178.52,0,0,1,40.06-25.94h-.21c5.15-2.39,10.3-4.59,15.55-6.6a1.31,1.31,0,0,0,.83-1.63,1.18,1.18,0,0,0-1.14-.95h-.31" style="fill:#161616"/><path d="M782.58,150.46c-.1.09-.2.09-.2.19,0-.1.1-.1.2-.19ZM795.35,136a197.15,197.15,0,0,0-16.79,13.21A79,79,0,0,0,764,166a41.07,41.07,0,0,0-4.32,9.29,1.73,1.73,0,0,0,.41,1.72,1.38,1.38,0,0,0,1.55.48l11.12-4.88q5.25-2.44,10.5-4.6A110.9,110.9,0,0,1,794,164.05a95.1,95.1,0,0,1,11.54-2.68c-.11,0-.21.09-.31.09,1.13-.19,2.26-.38,3.5-.48a1.07,1.07,0,0,0,.82-.38,1.49,1.49,0,0,0,.31-.95,1.3,1.3,0,0,0-1.13-1.35,98.09,98.09,0,0,0-12,2.11,111.46,111.46,0,0,0-10.92,3.45c-7.21,2.68-14.31,5.93-21.42,8.8.21-.57.52-1,.72-1.63.93-1.62,2-3.25,3-4.88a85,85,0,0,1,14.32-15.5c2.36-2,4.73-4,7.2-6s4.84-3.83,7.21-5.84c.31-.29.62-.48.72-1a1.77,1.77,0,0,0-.2-1.24,1.35,1.35,0,0,0-1.24-.77,1.19,1.19,0,0,0-.72.19Z" style="fill:#161616"/><path d="M865.79,108.92ZM778,125.38l.1.1-.1-.1Zm90.42-21.72a63.64,63.64,0,0,0-7.52.67,144.45,144.45,0,0,0-15.55,3c-5,1.15-10.09,2.59-15,3.93s-10,2.58-15,3.63c-2.37.48-4.84,1.06-7.31,1.44a81.49,81.49,0,0,1-23.07.29,62.78,62.78,0,0,1-16.27-5c-1.34-.67-2.58-1.34-3.92-2a1.21,1.21,0,0,0-.82-.29,1.65,1.65,0,0,0-1.24.58,2.07,2.07,0,0,0-.41,1.34,1.92,1.92,0,0,0,.41,1.34,10.85,10.85,0,0,1,1.44,1.72c.52.76,1,1.43,1.55,2.1,1.13,1.44,2.26,2.78,3.4,4.12a85.86,85.86,0,0,0,8,7.85,44.47,44.47,0,0,0,9,5.84,20.79,20.79,0,0,0,9.27,2.39,1.41,1.41,0,0,0,1.23-1.44,1.32,1.32,0,0,0-1.23-1.34,13.12,13.12,0,0,1-2.06-.19,26.24,26.24,0,0,1-6.08-1.91,45.47,45.47,0,0,1-9-6.13,77.14,77.14,0,0,1-8.75-9.19,3.5,3.5,0,0,1,1,.48,59.17,59.17,0,0,0,7.41,2.68,66.38,66.38,0,0,0,15,2.4,98.2,98.2,0,0,0,14.93-.67c5.15-.67,10.2-1.63,15.24-2.68,7.21-1.63,14.32-3.45,21.53-5.17,7-1.72,14.11-3.35,21.21-4.5l-.1.09.1-.09h.11c3.29-.48,6.69-.77,10.09-1.24a1.52,1.52,0,0,0,1.23-.58,2,2,0,0,0,0-2.68,1.83,1.83,0,0,0-1.23-.57,45,45,0,0,0-5-.29,23,23,0,0,0-2.57.1Z" style="fill:#161616"/><path d="M878.87,155.24a.1.1,0,0,1,.1.1.1.1,0,0,0-.1-.1Zm-.1-.09h0Zm-4.64-5.55a1.77,1.77,0,0,0,.42,2.2,49.45,49.45,0,0,1,4.32,3.35,109,109,0,0,1,11.43,12.06c1.86,2.2,3.61,4.4,5.25,6.7s3.3,4.49,5.05,6.69a1.42,1.42,0,0,0,2,.29,1.66,1.66,0,0,0,.72-1,2.33,2.33,0,0,0-.1-1.44c-2-2.77-3.92-5.36-6-7.94s-4.32-5.36-6.59-7.85A105.7,105.7,0,0,0,876,149a1.65,1.65,0,0,0-.72-.19,1.32,1.32,0,0,0-1.14.77Z" style="fill:#161616"/><path d="M908.63,162.32a8.33,8.33,0,0,0-4.73,4.6,20.15,20.15,0,0,0-1.55,9.28c.1,1.44.31,2.87.52,4.31a1.11,1.11,0,0,0,.61.86,1,1,0,0,0,.93.19,1.35,1.35,0,0,0,.82-.67,1.49,1.49,0,0,0,.11-1.15c0-.38-.11-.76-.11-1.05a32.31,32.31,0,0,1-.1-6.22,31,31,0,0,1,.72-3.25c.31-.67.62-1.25.93-1.82a5.18,5.18,0,0,1,1-1.06,6.75,6.75,0,0,1,.93-.67,5.57,5.57,0,0,1,1.13-.38h1.44c.62.19,1.13.38,1.75.58a9.88,9.88,0,0,1,2.06,1.43,16,16,0,0,1,2.37,2.68,25.47,25.47,0,0,1,2.37,4.69,44.47,44.47,0,0,1,2.16,9.19,32.23,32.23,0,0,1,0,7.08,20.42,20.42,0,0,1-1,4.4,19.18,19.18,0,0,1-1.65,3.26,16.27,16.27,0,0,1-2.47,2.77,20.22,20.22,0,0,1-4.74,3,2.32,2.32,0,0,0-.61.77,2.2,2.2,0,0,0-.21,1.62,1.66,1.66,0,0,0,.82,1.15,1.52,1.52,0,0,0,1.45.19,18.77,18.77,0,0,0,7.1-4.78,20.76,20.76,0,0,0,1.86-2.3,26.51,26.51,0,0,0,2.26-4.78,32.63,32.63,0,0,0,.93-10.92,41.37,41.37,0,0,0-1-6.12,33.66,33.66,0,0,0-4-10.34,15.33,15.33,0,0,0-5.76-5.74,8.86,8.86,0,0,0-4.12-1.15,5.92,5.92,0,0,0-2.17.38Z" style="fill:#161616"/><path d="M879.9,103.56a1.45,1.45,0,0,0-.93.77,1.82,1.82,0,0,0-.2,1.43c.2.86,1.13,1.63,2,1.25a32.84,32.84,0,0,1,6.7-2,17.37,17.37,0,0,1,5,0,16.15,16.15,0,0,1,3.51,1,11.46,11.46,0,0,1,2.88,1.91,20.91,20.91,0,0,1,2.78,3.16,32.94,32.94,0,0,1,2.88,5.65,70.78,70.78,0,0,1,3.2,14.83c.61,5.27.92,10.63,1,16,.1,2.58.1,5.07.2,7.65,0,1.15,0,2.39.11,3.54s.1,2.2.2,3.35a2.72,2.72,0,0,0,.52,1.25,1.41,1.41,0,0,0,2.26,0,1.69,1.69,0,0,0,.41-1.25,22.59,22.59,0,0,0,.31-3.83c.11-1.33.11-2.77.11-4.11.1-3,0-6,0-9a133.4,133.4,0,0,0-1.86-19,47.78,47.78,0,0,0-2.06-8.43,33.44,33.44,0,0,0-3.29-7.56,34,34,0,0,0-2.27-3.15,21.77,21.77,0,0,0-2.68-2.59,15.07,15.07,0,0,0-6.28-3,16.64,16.64,0,0,0-3.71-.38,28.17,28.17,0,0,0-10.81,2.49Z" style="fill:#161616"/><path d="M823.88,243.29c2.06,3.83,4.32,7.47,6.59,11s4.74,7.27,7.31,10.62c1.75,2.3,3.5,4.5,5.36,6.51.1,0,.1-.09.1-.19a2.94,2.94,0,0,1,.93-1.53,13.82,13.82,0,0,1-1-1.34l-.21-.19a27.13,27.13,0,0,1-6.08-8.52,4.56,4.56,0,0,1-.41-1.05c-.62-.77-1.34-1.53-2-2.3a63,63,0,0,1-4.85-6.7h-.1a2.66,2.66,0,0,1-1.23-.76c-.21-.2-.31-.48-.52-.67-2.06-2.88-4.12-5.84-6.07-8.91l2.16,4Z" style="fill:#161616"/><path d="M854.15,277.27a18.86,18.86,0,0,1-4,.48l2.16,1.44c.52.19.93.47,1.44.67a4.05,4.05,0,0,0,.93.38l.1.09a1.82,1.82,0,0,0,2.58-.76,2.14,2.14,0,0,0-.72-2.78v-.09l-.21-.19a15.9,15.9,0,0,1-2.27.76Z" style="fill:#161616"/><path d="M905.23,222.62v0Zm.31-12.06c.11,2,.11,4,.11,6.13a52.76,52.76,0,0,1-.42,5.74,57,57,0,0,1-1,6.12,54.87,54.87,0,0,1-1.86,6.13,66.63,66.63,0,0,1-7.1,13.3,85.45,85.45,0,0,1-5.26,6.8,72.42,72.42,0,0,1-6.28,6.12c-1.34,1.15-2.57,2.11-3.91,3.16s-3,2.2-4.53,3.26a100.75,100.75,0,0,1-9,5.07c-2.37,1.05-4.74,2.11-7.21,3-.21.09-.31.19-.52.19a21.12,21.12,0,0,1-4.12,1.62,1.91,1.91,0,0,0-.31,1.82,1.71,1.71,0,0,0,2.17,1.34,86.88,86.88,0,0,0,12.77-4.59,107.55,107.55,0,0,0,12.77-7c2.06-1.34,4-2.87,6-4.4a69.33,69.33,0,0,0,5.77-5.07,61.85,61.85,0,0,0,9.47-11.77,38.07,38.07,0,0,0,4-8.14,41.9,41.9,0,0,0,2.68-9.38,45.67,45.67,0,0,0,.72-9.86A47.6,47.6,0,0,0,908.84,210a1.8,1.8,0,0,0-1.65-1.34,1.72,1.72,0,0,0-1.65,1.91Z" style="fill:#161616"/><path d="M907.4,217.26a1.65,1.65,0,0,0,.51,2.2c3.61,2.3,7.21,4.5,10.82,6.7s7.51,4.31,11.32,6.13a1.22,1.22,0,0,0,1.24.19,1.41,1.41,0,0,0,1-.77,1.69,1.69,0,0,0-.62-2.29q-5.57-2.88-11.12-6c-3.71-2.11-7.42-4.41-11-6.7a2,2,0,0,0-.82-.19,1.61,1.61,0,0,0-1.34.76Z" style="fill:#161616"/><path d="M895.76,253a.09.09,0,0,0-.1-.09h0l.1.09Zm-2.06-2.49a1.35,1.35,0,0,0-.31,1,1.53,1.53,0,0,0,.31,1,1.34,1.34,0,0,0,.93.38c.41,0,.72.1,1,.1h0a.41.41,0,0,0,.31.09h-.21a44.61,44.61,0,0,1,5.15.86c1.85.38,3.71.86,5.56,1.34a1.4,1.4,0,0,0,1.65-1,1.38,1.38,0,0,0-.93-1.72c-2.06-.57-4-1-6.07-1.43s-4.33-.77-6.49-1h0a1.61,1.61,0,0,0-.93.38Z" style="fill:#161616"/><path d="M903.28,276.7c0,.09.1.09.1.19,0-.1-.1-.1-.1-.19Zm-7.62-21.16a1.4,1.4,0,0,0-.83.67,1.29,1.29,0,0,0-.1,1.06,80.16,80.16,0,0,0,3.6,14.55q2.48,7.32,5.57,14.35a1.8,1.8,0,0,0,1,.67,1.49,1.49,0,0,0,1.13-.09,1.64,1.64,0,0,0,.72-1,1.77,1.77,0,0,0-.1-1.25c-1.14-2.68-2.37-5.35-3.4-8a90,90,0,0,1-6-20,1.26,1.26,0,0,0-.62-.86,1.53,1.53,0,0,0-.72-.19c-.11,0-.21.09-.31.09Z" style="fill:#161616"/><path d="M915.22,273h0Zm-6.07-.28a14,14,0,0,0-3.19,5.45,12.35,12.35,0,0,0-.73,3.26,19.76,19.76,0,0,0,0,3.44,1.61,1.61,0,0,0,.42,1.15,1.7,1.7,0,0,0,1.13.48,1.59,1.59,0,0,0,1.65-1.63c0-1.05,0-2.1.1-3.16a11.52,11.52,0,0,1,.72-2.68,9.41,9.41,0,0,1,1.34-2.39,13.35,13.35,0,0,1,2-2,17.13,17.13,0,0,1,2.88-1.72,15.61,15.61,0,0,1,4.33-1.15c.3-.1.61-.1,1-.19a1.56,1.56,0,0,0,1.23-.48,2.18,2.18,0,0,0,.52-1.34,1.76,1.76,0,0,0-1.75-1.72c-.21,0-.31-.1-.52-.1a15.38,15.38,0,0,0-11.12,4.79Z" style="fill:#161616"/><path d="M910.59,255.45Zm-2.88-.86a1.25,1.25,0,0,0-.31.86,1.73,1.73,0,0,0,.31,1c2.37,1.91,4.73,3.63,7.1,5.36,1.24.86,2.37,1.62,3.61,2.39s2.57,1.53,3.91,2.2a1.33,1.33,0,0,0,1,.19,1.17,1.17,0,0,0,.72-.67,1.31,1.31,0,0,0-.41-1.82c-1-.67-2.16-1.24-3.3-1.91s-2.26-1.44-3.39-2.2a67.82,67.82,0,0,1-6.39-4.5l.21.19-.21-.19h0a9.81,9.81,0,0,0-1.13-.86,1,1,0,0,0-.83-.39,1.29,1.29,0,0,0-.92.39Z" style="fill:#161616"/><path d="M930.26,232.1a125.24,125.24,0,0,1-.72,16.46,58.73,58.73,0,0,1-3.09,12.63,31.5,31.5,0,0,1-1.85,3.73c-.31.58-.73,1.15-1,1.82a15.59,15.59,0,0,0-1.14,1.73,1.9,1.9,0,0,0,.21,2.2,1.69,1.69,0,0,0,2.47,0,8.4,8.4,0,0,0,1.55-2.11,14.53,14.53,0,0,0,1.13-2.1c.72-1.44,1.34-3.07,2-4.6a58.75,58.75,0,0,0,2.27-9.57,110.08,110.08,0,0,0,.82-20.19,1.31,1.31,0,0,0-1.23-1.34,1.4,1.4,0,0,0-1.34,1.34Z" style="fill:#161616"/><path d="M942.31,257.17a22.12,22.12,0,0,0-9.27,2.59,24.18,24.18,0,0,0-4.22,2.77,25.5,25.5,0,0,0-3.71,3.64,2.32,2.32,0,0,0,0,3.16,2.49,2.49,0,0,0,1.55.67,2.28,2.28,0,0,0,1.54-.67,25.3,25.3,0,0,1,3.6-3.64,31.28,31.28,0,0,1,4.43-2.68,26.26,26.26,0,0,1,4.64-1.34,23.63,23.63,0,0,1,4.53,0,18.57,18.57,0,0,1,8.75,3.92,21.61,21.61,0,0,1,2.68,2.49,2.08,2.08,0,0,0,2.88,0,2.19,2.19,0,0,0,0-3.06,24.07,24.07,0,0,0-8.13-5.93,18.58,18.58,0,0,0-4.64-1.44,18.93,18.93,0,0,0-4-.48Z" style="fill:#161616"/><path d="M953.53,248.85v0Zm-9-20.77a1.91,1.91,0,0,0-.61,2.39c1.75,3,3.5,5.84,5.15,8.9s3,6.13,4.32,9.28a124,124,0,0,1,6.08,19.24,1.61,1.61,0,0,0,2.06,1.25A1.84,1.84,0,0,0,962.7,267a134.33,134.33,0,0,0-6.08-20.1c-1.34-3.35-2.78-6.6-4.42-9.76a50.46,50.46,0,0,0-5.67-8.81,1.38,1.38,0,0,0-1.13-.47,3.19,3.19,0,0,0-.83.19Z" style="fill:#161616"/><path d="M921.51,223.48a1.29,1.29,0,0,0,1.23,1.25c2,.09,3.92.28,6,.57a.4.4,0,0,0-.31-.1,72.87,72.87,0,0,1,11.84,2.69,1.27,1.27,0,0,0,1.65-1,1.33,1.33,0,0,0-.93-1.63,84.23,84.23,0,0,0-18.23-3.06h-.1a1.2,1.2,0,0,0-1.13,1.24Z" style="fill:#161616"/><path d="M830.57,324.36a1.87,1.87,0,0,0-1.23,2.3c4.22,15.79,8,31.68,11.74,47.56,1.95,7.95,3.81,15.89,5.76,23.74s4.33,15.79,6.9,23.54c.72,2.11,1.44,4.31,2.27,6.42s1.75,4.49,2.88,6.6a2.65,2.65,0,0,0,3,1.24,3,3,0,0,0,1.65-1.24,2.39,2.39,0,0,0,.2-.67,1.93,1.93,0,0,0,0-1.53,58.15,58.15,0,0,0-1.23-5.74c-.52-2-1-4.12-1.55-6.13-1.13-3.92-2.26-7.85-3.5-11.77-2.37-7.75-4.84-15.6-7.31-23.35S845.4,369.73,843,362q-1.85-5.88-3.4-11.77l-3.39-11.77c-1.14-4.21-2.37-8.52-3.51-12.73a1.72,1.72,0,0,0-1.75-1.34Z" style="fill:#161616"/><path d="M959.51,222.91h0Zm-25.75-5.17A67.93,67.93,0,0,0,918,221a2.06,2.06,0,0,0-1.44,2.59A2,2,0,0,0,919,225a65.65,65.65,0,0,1,11.23-2.58,117.06,117.06,0,0,1,14.11-.77,126.42,126.42,0,0,1,14.73,1.15,181.18,181.18,0,0,1,26.87,6c4.12,1.34,8.24,2.68,12.26,4.21,3.6,1.44,7.21,3,10.81,4.41a.5.5,0,0,1,.31.19,1.84,1.84,0,0,0,2.47-.67,2,2,0,0,0-.61-2.59,5.91,5.91,0,0,1-1.34-.86c-.42-.29-.93-.57-1.34-.86-1-.67-2.06-1.34-3.09-1.91-2.27-1.15-4.64-2.21-7-3.26a132.41,132.41,0,0,0-14.63-5.07,155.22,155.22,0,0,0-32.54-5.07c-2.06-.19-4.22-.19-6.39-.19a107.66,107.66,0,0,0-11.12.57Z" style="fill:#161616"/><path d="M1033.24,314.5l.11.67c0-.19-.11-.48-.11-.67Zm-20.39-72.26a1.53,1.53,0,0,0-.41,1.92c1.44,3.35,2.88,6.6,4.33,10,1.85,4.69,3.7,9.47,5.35,14.16,1.75,5.08,3.19,10.15,4.64,15.32s2.78,10.43,3.91,15.69,2,10.53,2.68,15.89c.82,6.22,1.44,12.54,1.75,18.86.1,3.15.2,6.31.2,9.47,0,1.53,0,3.06-.1,4.59v4.6a2.4,2.4,0,0,0,1.75,2.39,2.14,2.14,0,0,0,1.85-.29c.42-.28,1-.86,1-1.43s.31-1.25.42-1.92l.31-2.29.3-4.31a76.63,76.63,0,0,0,.11-8.42,129.16,129.16,0,0,0-1.65-17.8c-.41-2.87-1-5.84-1.55-8.71s-1.33-5.84-2-8.71c-1.45-5.84-3.09-11.58-5-17.33-1.13-3.63-2.37-7.17-3.71-10.81-1.23-3.45-2.57-7-3.91-10.43q-3.85-10-8.34-19.81a1.35,1.35,0,0,0-1.24-.77,2.2,2.2,0,0,0-.72.19Z" style="fill:#161616"/><path d="M1036.54,354.89v0Zm1.34-1.05c-.52.09-.83.48-1.24,1h0c.1-.09.1-.19.21-.19a66.91,66.91,0,0,1-10.92,11,110.21,110.21,0,0,1-24.2,14.17,213.12,213.12,0,0,1-30.38,10.33c-4.94,1.34-10,2.59-15,3.73-2.36.58-4.73,1.15-7.1,1.63-1,.19-2.16.48-3.19.67s-2.27.57-3.4.77a2.07,2.07,0,0,0-1.44,1.15,2.15,2.15,0,0,0-.21,1.81,2.4,2.4,0,0,0,1,1.44,1.48,1.48,0,0,1,.62.19,2.16,2.16,0,0,0,1.13,0l2.88-.29,4-.57c2.37-.29,4.74-.77,7.21-1.24,5-1,10.09-2.21,15-3.64a190.39,190.39,0,0,0,30.89-11.58,128.68,128.68,0,0,0,20.39-11.77A90.37,90.37,0,0,0,1033,365a62.31,62.31,0,0,0,7.21-8.14,2.17,2.17,0,0,0,.2-1.63,2,2,0,0,0-.92-1.24,2.15,2.15,0,0,0-1-.29,1.33,1.33,0,0,0-.62.1Z" style="fill:#161616"/><path d="M942.93,398.82a.8.8,0,0,0,.82.86.87.87,0,0,0,.82-.86.85.85,0,0,0-.82-.76.78.78,0,0,0-.82.76Z" style="fill:#161616"/><path d="M928.1,374.7a1.44,1.44,0,0,0-.52,1.25,1.92,1.92,0,0,0,.52,1.24c1.13,1.34,2.37,2.59,3.6,3.92S934,383.7,935,385a47.32,47.32,0,0,1,5.56,9.86c.41,1.15.82,2.29,1.23,3.35a1.47,1.47,0,0,0,1.86,1.15,1.63,1.63,0,0,0,1.13-1.92A61.19,61.19,0,0,0,939,384.94a47.12,47.12,0,0,0-4-5.64,21.1,21.1,0,0,0-5-4.89,1,1,0,0,0-.72-.19,1.76,1.76,0,0,0-1.23.48Z" style="fill:#161616"/><path d="M956.11,365.32h0ZM996.68,338c-.72.86-1.54,1.63-2.26,2.39s-1.55,1.53-2.37,2.3c-1.75,1.63-3.5,3.16-5.36,4.59A115.58,115.58,0,0,1,972.38,357,145.61,145.61,0,0,1,956,365.32a138.65,138.65,0,0,1-13.29,5,93,93,0,0,1-12.67,3.25,2,2,0,0,0-1.13.86,2.67,2.67,0,0,0-.2,1.54,2.43,2.43,0,0,0,.92,1.24,1.9,1.9,0,0,0,1.44.19c9.89-1.62,19.47-5,28.63-8.9,5.15-2.2,10.3-4.69,15.35-7.46a135.28,135.28,0,0,0,13.59-8.81,64.07,64.07,0,0,0,6.28-5.26c.93-.86,1.75-1.73,2.68-2.59s1.65-1.91,2.47-3a2.59,2.59,0,0,0,.62-1.73,2.56,2.56,0,0,0-.62-1.72,2.49,2.49,0,0,0-1.75-.67,2.13,2.13,0,0,0-1.65.67Z" style="fill:#161616"/><path d="M984.74,291.34a2.2,2.2,0,0,0-.72,2.87c2.37,4.4,4.84,9,6.79,13.69a88.38,88.38,0,0,1,3.51,10.33,106.72,106.72,0,0,1,2.26,11.11,73.22,73.22,0,0,1,.52,9.47,1.86,1.86,0,0,0,1.85,1.82,1.93,1.93,0,0,0,1.85-1.82,97.42,97.42,0,0,0-3.19-24.4,77.77,77.77,0,0,0-4.22-11.87,48.12,48.12,0,0,0-2.68-5.65,59,59,0,0,0-3.6-5.26,2.27,2.27,0,0,0-.83-.48,1.12,1.12,0,0,0-.51-.1,1.86,1.86,0,0,0-1,.29Z" style="fill:#161616"/><path d="M941,397.48a13.68,13.68,0,0,1-1,1.53,12.47,12.47,0,0,1-2,2,15.61,15.61,0,0,1-3.09,1.82,19.56,19.56,0,0,1-4.63,1.24,25.24,25.24,0,0,1-6.08,0,24.05,24.05,0,0,1-5.87-1.62l-1.23-.58a1.56,1.56,0,0,0-1.44-.19,2.24,2.24,0,0,0-1.24.86,2.13,2.13,0,0,0,.72,2.78,19.57,19.57,0,0,0,7.21,2.58,30,30,0,0,0,4.12.29,21,21,0,0,0,4.32-.48,17.64,17.64,0,0,0,3.71-1.05,18.49,18.49,0,0,0,3.71-1.82,16.75,16.75,0,0,0,5.25-5.93,1.45,1.45,0,0,0-.51-2,2,2,0,0,0-.72-.2,1.35,1.35,0,0,0-1.24.77Z" style="fill:#161616"/><path d="M908.84,391.64a2.35,2.35,0,0,0-.93.77c-.62,1-1.34,2.1-2.06,3.16-.72,1.24-1.54,2.39-2.37,3.54-1.64,2.49-3.19,5.07-4.63,7.65a36.48,36.48,0,0,0-3.4,7.85,19.15,19.15,0,0,0-.72,4.12,18,18,0,0,0,.21,4.11,1.79,1.79,0,0,0,.92,1.15,1.52,1.52,0,0,0,1.45.19,26.58,26.58,0,0,0,12-7.94,31.67,31.67,0,0,0,7-13.11,1.72,1.72,0,0,0-3.3-1,18.85,18.85,0,0,1-1.13,3.35,27.71,27.71,0,0,1-3.61,6.32,26.74,26.74,0,0,1-4.63,4.88,23.17,23.17,0,0,1-4.63,2.87c-.21.09-.42.09-.62.19a9,9,0,0,1,.1-1.63,30.78,30.78,0,0,1,1.44-5.26,89.57,89.57,0,0,1,5.25-9.67c1-1.53,2-3.06,2.89-4.59a33.56,33.56,0,0,0,2.47-4.59,1.81,1.81,0,0,0,.21-1.25,1.89,1.89,0,0,0-.72-1,2.77,2.77,0,0,0-.83-.19Z" style="fill:#161616"/><path d="M901.84,387.24c-1.45,1.53-3,3.06-4.53,4.59-2,2-3.92,4-5.77,6.13a45.9,45.9,0,0,0-5.25,6.51,16.05,16.05,0,0,0-1.55,3,8.55,8.55,0,0,0-.82,3.16,9.07,9.07,0,0,0,.2,1.53,7.78,7.78,0,0,0,.52,1.63,4,4,0,0,0,1.75,2.11,3.34,3.34,0,0,0,2.37.57,6.7,6.7,0,0,0,2.68-.86,10,10,0,0,0,2.47-1.44c.92-.67,1.75-1.34,2.67-2.1a43,43,0,0,0,4.23-4.21,1.11,1.11,0,0,0,0-1.53,1,1,0,0,0-1.55,0,33.64,33.64,0,0,1-4.74,4.49,16.3,16.3,0,0,1-3.91,2.49,4.57,4.57,0,0,1-1.54.48,2.41,2.41,0,0,1-1-.09.32.32,0,0,1-.21-.1c0-.1-.1-.1-.21-.19a1.53,1.53,0,0,1-.2-.48,3.12,3.12,0,0,1-.31-1.34,3.74,3.74,0,0,1-.1-1.05c.1-.48.31-1,.41-1.44a28.19,28.19,0,0,1,2.26-3.64,95.77,95.77,0,0,1,7.83-8.71c1.34-1.33,2.58-2.58,3.91-3.92a26.26,26.26,0,0,0,2.89-3.64,1.49,1.49,0,0,0-.21-1.91,1.57,1.57,0,0,0-2.26,0Z" style="fill:#161616"/><path d="M889.17,387.05ZM901,378.82a90.87,90.87,0,0,0-17.09,6.51,33.58,33.58,0,0,0-7.62,5.26,18.51,18.51,0,0,0-2.89,3.45,16.77,16.77,0,0,0-2.16,4.21,1.53,1.53,0,0,0,0,.95,1.72,1.72,0,0,0,.82,1.06,19.76,19.76,0,0,0,3.09,1.05,21.08,21.08,0,0,0,3.4.48,24.68,24.68,0,0,0,6.9-.86,30.11,30.11,0,0,0,6.28-2.78,29.26,29.26,0,0,0,5.67-4.21,1.65,1.65,0,0,0,0-2.11,1.55,1.55,0,0,0-2.06,0,20.93,20.93,0,0,1-1.65,1.53,26.28,26.28,0,0,1-5.56,3.26,25.91,25.91,0,0,1-6.08,1.82,22.27,22.27,0,0,1-4.32,0l-2.47-.58A7.78,7.78,0,0,1,876.5,396a22.41,22.41,0,0,1,3.71-3.83,38.88,38.88,0,0,1,9-5.07.42.42,0,0,0-.31.09.42.42,0,0,1,.31-.09c0-.1.1-.1.21-.1-.11,0-.21,0-.21.1,4.12-1.82,8.44-3.16,12.77-4.69a1.78,1.78,0,0,0,1-.86,2,2,0,0,0,.21-1.34,1.74,1.74,0,0,0-1.76-1.34Z" style="fill:#161616"/><path d="M884.74,376.71l.1.1Zm-6-3.35c.1,0,.1,0,.2.1-.1-.1-.1-.1-.2-.1ZM890,369.73a.41.41,0,0,0,.21.09Zm-.31,0h0Zm-6.17-4a30.81,30.81,0,0,0-5,.47,9.57,9.57,0,0,0-3.09,1.15,4,4,0,0,0-1,.77,4,4,0,0,0-.82,1.43,3.17,3.17,0,0,0-.11,1.06,4.65,4.65,0,0,0,.21,1.24,5.89,5.89,0,0,0,.62,1.15,4,4,0,0,0,.82,1,13.39,13.39,0,0,0,2.16,1.92A28.14,28.14,0,0,0,883,379.2a37.57,37.57,0,0,0,7,2.39,20.79,20.79,0,0,0,3.5.58,17.72,17.72,0,0,0,3.09,0,1.71,1.71,0,0,0,.93-.48,1.38,1.38,0,0,0,.41-1.05,1.18,1.18,0,0,0-.41-1,1.24,1.24,0,0,0-.93-.48,16.74,16.74,0,0,1-3.81,0,30.65,30.65,0,0,1-7.72-2.3,24.75,24.75,0,0,1-6.28-3.63,9.54,9.54,0,0,1-1.75-1.73,1.43,1.43,0,0,1-.41-.67c0-.09-.11-.19-.11-.28h0v-.1c.11,0,.11-.09.21-.09a2,2,0,0,1,.51-.29,9.19,9.19,0,0,1,2.17-.58,32.87,32.87,0,0,1,4.32-.19,60.24,60.24,0,0,1,6.18.39c4.74.67,9.37,1.91,14,2.87a54.86,54.86,0,0,0,14.72,1.34,1.84,1.84,0,0,0,1.24-.58,1.4,1.4,0,0,0,.51-1.24,1.77,1.77,0,0,0-1.75-1.82,44.61,44.61,0,0,1-7.93-.48c-4.53-.67-9-1.72-13.49-2.58-2.37-.48-4.63-.86-7-1.15a39.91,39.91,0,0,0-5.87-.38Z" style="fill:#161616"/><path d="M917,370.11a1.6,1.6,0,0,0-.42,1.15,1.67,1.67,0,0,0,.42,1.24c1.95,1.53,3.81,3.06,5.87,4.59A66.49,66.49,0,0,0,929,381.4a1.55,1.55,0,0,0,2.17-.57,2.05,2.05,0,0,0,.2-1.34,1.46,1.46,0,0,0-.72-1c-1.65-1.24-3.29-2.3-4.94-3.54s-3.19-2.39-4.74-3.64l.31.29c-.62-.48-1.24-1.05-2-1.53a1.58,1.58,0,0,0-1.13-.58,1.65,1.65,0,0,0-1.23.58Z" style="fill:#161616"/><path d="M913.47,348.57h0Zm-4.73-1.24h0Zm-3.92-2.87a1.12,1.12,0,0,0-.92.38,1.39,1.39,0,0,0-.42,1.05,1.33,1.33,0,0,0,1.34,1.34,21.39,21.39,0,0,1,4.23.1,18.15,18.15,0,0,1,8.23,3.45,20.3,20.3,0,0,1,2.48,2.58,14.17,14.17,0,0,1,1.64,3,19.57,19.57,0,0,1,.93,3.73,5.62,5.62,0,0,1,.1,1.34,1.38,1.38,0,0,0,1.24,1.24,1.22,1.22,0,0,0,1.23-1.24,15.65,15.65,0,0,0-6.28-13,19.78,19.78,0,0,0-12.15-4c-.51,0-1,.1-1.65.1Z" style="fill:#161616"/><path d="M928.1,354.13v0ZM917.8,341.2h0Zm-3.61-2.68a1.58,1.58,0,0,0,.93,1.73,11.67,11.67,0,0,1,2.58.86,19.34,19.34,0,0,1,4.42,2.68,14.22,14.22,0,0,1,3,3.06,16.28,16.28,0,0,1,2,3.35,16.67,16.67,0,0,1,1,3.83c0,.48.1.86.1,1.34a1.26,1.26,0,0,0,1.24,1.34,1.33,1.33,0,0,0,1.33-1.34,17.17,17.17,0,0,0-1.33-6,15.77,15.77,0,0,0-1.45-2.87,14.47,14.47,0,0,0-1.85-2.49,18.7,18.7,0,0,0-4.53-3.83,25.67,25.67,0,0,0-5.77-2.49.41.41,0,0,0-.31-.09,1.42,1.42,0,0,0-1.34.95Z" style="fill:#161616"/><path d="M937.67,348.19h0v0ZM921.4,302.44c0,.1.11.1.11.19,0-.09-.11-.09-.11-.19Zm-10.09-14.26a1.66,1.66,0,0,0-1.13.86,2.27,2.27,0,0,0-.21,1.44,2.43,2.43,0,0,0,.93,1v.1l-.21-.19a60.87,60.87,0,0,1,10.61,10.91,72.69,72.69,0,0,1,9,16c3.91,9.48,6.08,19.62,7.41,29.76v.1a215.64,215.64,0,0,1,1.65,21.63,1.88,1.88,0,0,0,1.75,1.92,2,2,0,0,0,1.86-1.92A132.44,132.44,0,0,0,941,340a120.75,120.75,0,0,0-3.71-14.55,87.77,87.77,0,0,0-5.87-14A75.91,75.91,0,0,0,923.46,299a68.29,68.29,0,0,0-10.71-10.72,3.08,3.08,0,0,0-.92-.19.87.87,0,0,0-.52.09Z" style="fill:#161616"/><path d="M1030.57,277.75c0-.1-.11-.19-.11-.29,0,.1.11.19.11.29Zm-8-14.55a1.5,1.5,0,0,0-.82,1.05,2,2,0,0,0,.21,1.34c.41,1.15.92,2.3,1.44,3.45-.11-.19-.21-.29-.21-.48,2.58,6.41,5.15,12.73,7.52,19.14s4.63,12.92,6.8,19.43,4.12,13,6,19.53,3.6,13.2,5.15,19.9c2.57,11,4.63,22.21,6.18,33.41.61,5,1.13,9.85,1.54,14.83.52,5.26.83,10.62,1.13,15.89a2.07,2.07,0,0,0,2,2,2.35,2.35,0,0,0,1.34-.58,1.92,1.92,0,0,0,.52-1.43,142.41,142.41,0,0,0,.2-20.87A178,178,0,0,0,1059.2,369a264.44,264.44,0,0,0-9.48-39.82c-2.68-8.7-5.77-17.32-9.06-25.93-1.55-4.31-3.19-8.42-4.94-12.64s-3.4-8.61-5.15-12.82a.3.3,0,0,0,.1.19l-5.87-14.07a1.32,1.32,0,0,0-1-.86h-.41a1.2,1.2,0,0,0-.83.19Z" style="fill:#161616"/><path d="M981.13,390.88a1.92,1.92,0,0,0,1.24,2.29c13.08,2.78,26,6.32,38.72,10.34,6.49,2,12.77,4.12,19.16,6.32,3.19,1.15,6.38,2.2,9.47,3.35s6.39,2.39,9.48,3.63c4.84,2,9.68,3.93,14.62,5.65,2.47.86,4.84,1.63,7.31,2.39,1.24.39,2.58.67,3.81,1a28.56,28.56,0,0,0,4.12.67,1.69,1.69,0,0,0,1.65-1.34,1.76,1.76,0,0,0-.83-2.11,38.94,38.94,0,0,0-4.11-2.29c-1.65-.77-3.3-1.53-5-2.2-3.09-1.25-6.28-2.4-9.37-3.54s-6.39-2-9.58-3.07-6.39-1.91-9.58-3c-6.49-2-12.77-4.12-19.26-6.13s-12.77-3.92-19.25-5.74c-10-2.78-20.19-5.36-30.38-7.47-.11,0-.21-.09-.42-.09a1.73,1.73,0,0,0-1.75,1.34Z" style="fill:#161616"/><path d="M865.9,273.82a1.52,1.52,0,0,0-.52,1.25l-.31,2.68c-.62,4.5-1.54,9.09-2.37,13.59s-2,9.09-3,13.69c-.62,2.29-1.24,4.49-1.86,6.79s-1.13,4.5-1.65,6.8-1,4.5-1.44,6.79a24.39,24.39,0,0,0-.62,3.73,17.5,17.5,0,0,0-.41,3.93,2.53,2.53,0,0,0,.31,1.24,2,2,0,0,0,1.44,1.06,1.42,1.42,0,0,0,1.24,0,1.83,1.83,0,0,0,1.34-1.06,6,6,0,0,0,.62-1.72c.2-.67.31-1.34.51-2,.21-1.24.52-2.49.72-3.64.41-2.48.93-4.88,1.34-7.37s.93-4.88,1.44-7.27.83-4.88,1.34-7.37c.93-4.88,2-9.67,2.78-14.55.83-5.07,1.44-10.24,2-15.31a1.74,1.74,0,0,0-.41-1.25,1.87,1.87,0,0,0-1.24-.57,1.5,1.5,0,0,0-1.23.57Z" style="fill:#161616"/><path d="M855.18,330.58c-1.75,1-3.5,2-5.25,2.87-1.85,1.05-3.81,1.92-5.66,2.87s-3.81,1.82-5.77,2.78a46.18,46.18,0,0,0-5.46,3.25,4.51,4.51,0,0,0-.61.67,1.55,1.55,0,0,0-.11,1.34,1.71,1.71,0,0,0,2.06,1.34c1.13-.38,2.06-.86,3.09-1.24s2-1,2.89-1.44a61.64,61.64,0,0,0,5.56-3l5.56-3.16c1.85-1.06,3.6-2.11,5.46-3.26a1.83,1.83,0,0,0,.61-2.49,1.72,1.72,0,0,0-1.54-.86,1.25,1.25,0,0,0-.83.29Z" style="fill:#161616"/><path d="M877.43,358.05A60.22,60.22,0,0,0,869.5,362L862,366.38a164.05,164.05,0,0,0-14.93,9.95,3,3,0,0,0-.93,1.24,2.22,2.22,0,0,0,.21,1.63,2.55,2.55,0,0,0,1.23,1.05,2,2,0,0,0,1.65-.28,128.86,128.86,0,0,1,14.73-9.29c2.57-1.43,5.15-2.77,7.72-4.21a44.28,44.28,0,0,0,7.62-5.07,2,2,0,0,0-1.34-3.45,1,1,0,0,0-.51.1Z" style="fill:#161616"/><path d="M909.25,286.65a1.8,1.8,0,0,0-1.13,1c-1.55,3.44-2.89,7.08-4.12,10.62s-2.68,7.18-4,10.82c-2.67,7.37-5.46,14.74-8.44,22,.1-.19.1-.38.2-.58-3.6,8.71-7.31,17.42-11.43,25.85a2.3,2.3,0,0,0,.72,3,2,2,0,0,0,2.78-.76c2.68-5.55,5.36-11.1,7.83-16.75s5.05-11.49,7.42-17.32,4.73-11.78,6.9-17.71c1-2.87,2.06-5.84,3.09-8.81s1.85-5.83,2.57-8.8a2.17,2.17,0,0,0-.82-2.3,2.12,2.12,0,0,0-1-.29c-.21,0-.31.1-.52.1Z" style="fill:#161616"/><path d="M889.38,275.64Zm-4.23-2.2a1.17,1.17,0,0,0,0,1.73,86.69,86.69,0,0,0,10.71,8c1.86,1.25,3.71,2.4,5.56,3.55.93.67,2,1.24,2.89,1.81s2,1.25,3,1.82a1.29,1.29,0,0,0,1.76-.38,1.82,1.82,0,0,0,.1-1.05,1.48,1.48,0,0,0-.62-.77c-.72-.48-1.65-1.05-2.37-1.53l-2.47-1.44c-1.65-1-3.3-2-4.94-3.06a97.42,97.42,0,0,1-9.37-6.51.1.1,0,0,1,.1.1.1.1,0,0,0-.1-.1l-.11-.09.11.09c-.93-.76-1.76-1.43-2.58-2.2-.31-.19-.51-.38-.82-.38a1.34,1.34,0,0,0-.83.38Z" style="fill:#161616"/><path d="M888.76,282.25a1.14,1.14,0,0,0,.41,1.62c4.32,2.4,8.55,5.08,12.67,7.85a1.06,1.06,0,0,0,1.54-.48,1.17,1.17,0,0,0-.41-1.62q-6.18-4.17-12.67-7.76a1.59,1.59,0,0,0-.62-.19,1,1,0,0,0-.92.58Z" style="fill:#161616"/><path d="M913.06,217.36a.85.85,0,0,0-.72.57,17.94,17.94,0,0,0-1.13,3.26l-.93,3.15c-.62,2.11-1.23,4.31-1.85,6.42a112.54,112.54,0,0,1-4.12,12.53c0-.09.1-.19.1-.28a70.21,70.21,0,0,1-3.81,7.85,1.2,1.2,0,1,0,2.06,1.24,77.05,77.05,0,0,0,6.9-16.08c.93-2.87,1.75-5.65,2.57-8.42.42-1.44.83-2.87,1.24-4.31.21-.76.41-1.43.62-2.1a22.45,22.45,0,0,0,.62-2.3,1.34,1.34,0,0,0-.62-1.44,1.2,1.2,0,0,0-.62-.19.39.39,0,0,0-.31.1Z" style="fill:#161616"/><path d="M913.16,230.09c-1,4-2.16,7.94-3.5,11.77s-2.67,7.75-4.12,11.58a1.46,1.46,0,0,0,.11,1,1.19,1.19,0,0,0,.82.57,1,1,0,0,0,.93-.1,1,1,0,0,0,.51-.76c1.44-3.83,2.89-7.66,4.12-11.58a77,77,0,0,0,3.3-11.77,1.07,1.07,0,0,0-.11-1,.74.74,0,0,0-.61-.48.4.4,0,0,0-.31-.1,1.21,1.21,0,0,0-1.14.87Z" style="fill:#161616"/><path d="M914.5,237.26c-1,3.45-2.16,6.7-3.4,10.05-.1.1,0,.39,0,.48a.57.57,0,0,0,.42.29.46.46,0,0,0,.51,0c.21-.1.21-.29.31-.48a82.09,82.09,0,0,0,3.4-9.95.6.6,0,0,0-.52-.77c0-.09-.1-.09-.1-.09-.31,0-.62.19-.62.47Z" style="fill:#161616"/><path d="M1076.7,408a1.72,1.72,0,0,0-.72,1,1.78,1.78,0,0,0,.21,1.24,1.11,1.11,0,0,0,.92.67c7.63,1.05,15.25,2.39,22.87,3.45,3.91.47,7.72.95,11.63,1.05a79.35,79.35,0,0,0,11.64-.19,1.8,1.8,0,0,0,1.13-.58,1.68,1.68,0,0,0,.52-1.15,1.76,1.76,0,0,0-.52-1.24,1.35,1.35,0,0,0-1.13-.48c-3.81-.48-7.52-.76-11.33-1.05s-7.51-.48-11.33-.67c-7.51-.48-14.93-1.15-22.45-2.11,0,0-.1,0-.1-.09h-.62a1.05,1.05,0,0,0-.72.19Z" style="fill:#161616"/><path d="M1090.4,394.9a52.18,52.18,0,0,0-3.91,4.3,50.93,50.93,0,0,1-4.12,3.83,22.79,22.79,0,0,1-4.64,2.87c-.2.1-.51.19-.72.29a2.52,2.52,0,0,0-1.13.86,2.65,2.65,0,0,0-.21,1.53,2,2,0,0,0,.93,1.06,1.36,1.36,0,0,0,1.34.19,23.48,23.48,0,0,0,8.44-5.27,26.24,26.24,0,0,0,3.2-3.54,21.08,21.08,0,0,0,2.88-4.5,1.21,1.21,0,0,0-.21-1.62,1.22,1.22,0,0,0-.92-.48,1.26,1.26,0,0,0-.93.48Z" style="fill:#161616"/><path d="M1100.49,384.08c-1,.67-2.16,1.44-3.19,2.11-.52.38-1,.76-1.65,1.24a21.12,21.12,0,0,0-1.65,1.34,78,78,0,0,0-5.76,5.74c-3.81,4-7.32,8.24-11,12.35a1.62,1.62,0,0,0,0,2.11,1.45,1.45,0,0,0,2.06,0c3.6-4,7.1-8.24,10.81-12.16,1.85-2,3.71-4,5.66-5.84,1-1,1.86-1.82,2.79-2.77s2-1.82,3-2.68a.85.85,0,0,0,.21-1.06,1.09,1.09,0,0,0-.83-.47c-.1,0-.31.09-.41.09Z" style="fill:#161616"/><path d="M1078.45,411.84a1.83,1.83,0,0,0,1.65,1.72c5.67.38,11.33,1.05,17,1.91a.68.68,0,0,0-.41-.09c2.47.38,4.94.67,7.42,1,1.13.19,2.26.28,3.39.47l3.82.29a1.83,1.83,0,0,0,1.75-1.34,1.81,1.81,0,0,0-1.24-2.2,28.6,28.6,0,0,0-3.91-.57c-1.34-.2-2.58-.39-3.81-.48l-8-.86c-5.25-.58-10.6-1.15-16-1.44h-.1a1.64,1.64,0,0,0-1.55,1.63Z" style="fill:#161616"/><path d="M1078.14,411.17a1.32,1.32,0,0,0,.93,1.62c3.19.77,6.49,1.54,9.78,2.21,1.65.28,3.3.57,4.84.86a33.69,33.69,0,0,0,5.36.57,1.19,1.19,0,0,0,1.24-1,1.34,1.34,0,0,0-.93-1.72,39.41,39.41,0,0,0-4.84-.76c-1.65-.29-3.3-.48-4.84-.77-3.4-.57-6.7-1.15-10-1.91-.1,0-.21-.1-.31-.1a1.39,1.39,0,0,0-1.24,1Z" style="fill:#161616"/><path d="M1084.74,411.65a1.53,1.53,0,0,0,0,2.2c.72.76,1.44,1.43,2.16,2.2a14.44,14.44,0,0,0,1.23,1.24,5.45,5.45,0,0,0,1.45,1.15,1.5,1.5,0,0,0,.72.19,1.56,1.56,0,0,0,.92-.38,2.47,2.47,0,0,0,.42-.67,1.55,1.55,0,0,0-.21-1.15,7.9,7.9,0,0,0-2.06-2.39c-.93-.77-1.75-1.63-2.57-2.39a1.47,1.47,0,0,0-1-.48,1.43,1.43,0,0,0-1,.48Z" style="fill:#161616"/><path d="M736.34,237.07v0Zm15.14-19a13.81,13.81,0,0,0-4.33,1.62,20.88,20.88,0,0,0-3.91,2.59,26.81,26.81,0,0,0-3.4,3.25,42.9,42.9,0,0,0-5.46,8.33,49.78,49.78,0,0,0-3.5,9.38,35.18,35.18,0,0,0-1,5.65,2.77,2.77,0,0,0,.21.86,1.62,1.62,0,0,0,1,.76,1.79,1.79,0,0,0,1.24-.19,1.48,1.48,0,0,0,.82-1.05,47.76,47.76,0,0,1,3.09-11.87,42.84,42.84,0,0,1,4.84-8.71,29,29,0,0,1,4.53-4.69,25,25,0,0,1,4.22-2.58,18.6,18.6,0,0,1,3.92-1.06,22.62,22.62,0,0,1,2.47-.19,1.29,1.29,0,0,0,1.23-1.24,1.31,1.31,0,0,0-1.23-1.34h-.52a20.13,20.13,0,0,0-4.22.48Z" style="fill:#161616"/><path d="M722.85,226.64ZM735,210.18c0,.09-.1.09-.1.09s.1,0,.1-.09Zm.31-3.06a41.81,41.81,0,0,0-12.15,13.49,51.08,51.08,0,0,0-3.81,8.61,45.22,45.22,0,0,0-1.85,9.1,39.11,39.11,0,0,0,.3,10.43,2.6,2.6,0,0,0,.62.77,1.38,1.38,0,0,0,1,.19,1.22,1.22,0,0,0,.72-.67,1.77,1.77,0,0,0,.21-1.06c-.1-.47-.21-1-.31-1.62a36.69,36.69,0,0,1,0-9.48,43.43,43.43,0,0,1,2.78-10.24.31.31,0,0,1-.1.19c0-.09.1-.09.1-.19v0a45.44,45.44,0,0,1,5.36-9.47,37.45,37.45,0,0,1,6.79-7c.52-.38,1-.77,1.44-1.05a.87.87,0,0,0,.52-.77.89.89,0,0,0-.1-.86,1.13,1.13,0,0,0-.93-.58.78.78,0,0,0-.62.2Z" style="fill:#161616"/><path d="M1062.59,235.25c.11.1.11.1.11.2,0-.1,0-.1-.11-.2Zm-13.38-17.61h0Zm-7.11-6.12a1.26,1.26,0,0,0,.41,1.72,62.69,62.69,0,0,1,6.8,4.4,44.52,44.52,0,0,1,7.93,8.24,43.38,43.38,0,0,1,5.46,9.66,46.18,46.18,0,0,1,3,11.2,53.81,53.81,0,0,1,.42,7,1.37,1.37,0,0,0,1.44,1.43,1.36,1.36,0,0,0,1.34-1.43,42.56,42.56,0,0,0-.93-10.15,50.06,50.06,0,0,0-2.78-9.38,48,48,0,0,0-10.92-15.69,50.66,50.66,0,0,0-10.4-7.47,1.93,1.93,0,0,0-.72-.19,1.08,1.08,0,0,0-1,.67Z" style="fill:#161616"/><path d="M1069.7,226.26a1.22,1.22,0,0,0,0,1.43,20.91,20.91,0,0,1,2.78,3.16,30.62,30.62,0,0,1,3.6,6.41,34.23,34.23,0,0,1,2.17,7.85c0,.29.31.58.51.77a1.32,1.32,0,0,0,1.75-.48,1.07,1.07,0,0,0,.11-1,35.47,35.47,0,0,0-3.3-9.76,32.77,32.77,0,0,0-6.18-8.42,1,1,0,0,0-.72-.29,1.17,1.17,0,0,0-.72.29Z" style="fill:#161616"/><path d="M833.46,255.35c0,.1.1.19.2.29-.1-.1-.2-.19-.2-.29Zm-.21-.28c0,.09.1.19.21.28Zm-29.76-61.16a1.88,1.88,0,0,0-.62,1.43c-.72,8.71.93,17.42,3.71,25.75A91.21,91.21,0,0,0,812,234.2a101.87,101.87,0,0,0,7.42,12.25,154.61,154.61,0,0,0,15.76,18.86c1.33,1.34,2.78,2.77,4.12,4.11s2.67,2.68,4.11,4a48.89,48.89,0,0,0,4,3.83c.82.67,1.75,1.34,2.68,2a10.49,10.49,0,0,0,2.37,1.24A2.31,2.31,0,0,0,854,281a2.5,2.5,0,0,0,1.65-.67,2.18,2.18,0,0,0,.72-1.53,2.38,2.38,0,0,0-.72-1.53h-.11c0-.1-.1-.19-.1-.29-.31-.38-.62-.67-.93-1.05a14.32,14.32,0,0,0-1.23-1.24c-.93-.87-1.86-1.73-2.89-2.59-2-1.62-4-3.25-6-5.07s-3.81-3.73-5.66-5.74-3.61-3.93-5.25-5.94A154.4,154.4,0,0,1,822.13,240c-1.75-2.68-3.5-5.45-5.15-8.23-1.44-2.68-2.89-5.36-4.12-8.14a65.2,65.2,0,0,1-5.36-17.32,50.1,50.1,0,0,1-.31-11,2.57,2.57,0,0,0-.61-1.43,2.41,2.41,0,0,0-1.55-.58,2.18,2.18,0,0,0-1.54.58Z" style="fill:#161616"/><path d="M851.37,204.05a4.79,4.79,0,1,0,4.74-5,4.94,4.94,0,0,0-4.74,5Z" style="fill:#161616"/><path d="M815.54,217.36a4.93,4.93,0,0,0,5.45,4.21,4.81,4.81,0,0,0,4-5.55,5.1,5.1,0,0,0-5.56-4.21,4.7,4.7,0,0,0-3.91,5.55Z" style="fill:#161616"/><path d="M838.19,224.63a1.82,1.82,0,0,0-.62,2.39l.93,2a25.61,25.61,0,0,1,1.34,4.79,29.57,29.57,0,0,1,0,4.21,24.26,24.26,0,0,1-1,3.83c-.31.67-.62,1.34-.93,1.91-.41.77-.92,1.44-1.34,2.11a1.78,1.78,0,0,0,.21,2.1,1.65,1.65,0,0,0,2.37,0,13.44,13.44,0,0,0,1.85-2.39,22.86,22.86,0,0,0,1.34-2.77,19.59,19.59,0,0,0,1.13-5.94,21.19,21.19,0,0,0-.61-5.74,22.87,22.87,0,0,0-2.37-5.84,1.58,1.58,0,0,0-1.44-.86,2.21,2.21,0,0,0-.83.19Z" style="fill:#161616"/><path d="M837.78,245.3a1.73,1.73,0,0,0,0,3.45,39,39,0,0,1,7.52.48,10.41,10.41,0,0,1,1.75.19.63.63,0,0,0,.41.1,1.68,1.68,0,0,0,1.65-1.25,1.73,1.73,0,0,0-1.24-2.1,50.42,50.42,0,0,0-9.37-.87Z" style="fill:#161616"/><path d="M853.43,253.44a13.49,13.49,0,0,0-1.23,2,19,19,0,0,0-.83,2.1A22.29,22.29,0,0,0,851,260a20.66,20.66,0,0,0,0,2.49,2,2,0,0,0,.52,1.14,1.57,1.57,0,0,0,2.26,0c.21-.28.52-.76.41-1.14a18.79,18.79,0,0,1,.11-2.49,9.67,9.67,0,0,1,.62-2.49,17,17,0,0,1,1-2,1.64,1.64,0,0,0-.21-2,1.58,1.58,0,0,0-2.27,0Z" style="fill:#161616"/><path d="M869.91,233.72a1.39,1.39,0,0,0-.72.58,15.26,15.26,0,0,0-1.54,2.87c-.62,1.05-1.14,2.2-1.75,3.25a38.83,38.83,0,0,1-3.61,5.94,26.43,26.43,0,0,1-3.91,4.11,14.86,14.86,0,0,1-3.4,2,12.79,12.79,0,0,1-3.3,1,15.94,15.94,0,0,1-3,.1,1.54,1.54,0,0,0-1.55,1.53,2,2,0,0,0,.41,1.05,2.38,2.38,0,0,0,1.14.48,15.8,15.8,0,0,0,4.22-.29,11.64,11.64,0,0,0,4-1.34,14.8,14.8,0,0,0,3.39-2,21.92,21.92,0,0,0,3.2-2.87,32,32,0,0,0,4.84-7.08,28.62,28.62,0,0,0,1.85-4,14.69,14.69,0,0,0,.72-2,6.88,6.88,0,0,0,.41-2.11,1.15,1.15,0,0,0-.1-.57,1.39,1.39,0,0,0-.72-.58.58.58,0,0,0-.62,0Z" style="fill:#161616"/><path d="M869.5,233.91a1.44,1.44,0,0,0,1,1.73l1.54.57a9.15,9.15,0,0,1,1.65,1,8.56,8.56,0,0,1,.93,1,2.89,2.89,0,0,1,.51,1,10.76,10.76,0,0,1,.31,1.06v1.34a9.57,9.57,0,0,1-.51,1.81,13.32,13.32,0,0,1-1.65,2.88,24.42,24.42,0,0,1-3.5,3.54,15,15,0,0,1-3.4,2.1c-.1,0-.21.1-.31.1a2.15,2.15,0,0,0-.82.48,2,2,0,0,0-.52,1.34,1.76,1.76,0,0,0,.52,1.24,1.65,1.65,0,0,0,1.23.57,12.57,12.57,0,0,0,2.06-.38,21.6,21.6,0,0,0,2.17-.76,12.52,12.52,0,0,0,3.5-2.4,17.1,17.1,0,0,0,2.78-3.25,17.9,17.9,0,0,0,1.65-3.73l.3-2a9.63,9.63,0,0,0,.11-1.82,9.31,9.31,0,0,0-1-3.64,8,8,0,0,0-2.68-2.77,14.06,14.06,0,0,0-1.65-1c-.82-.38-1.65-.67-2.47-1h-.41a1.38,1.38,0,0,0-1.34,1Z" style="fill:#161616"/><path d="M856.21,252.39a1.38,1.38,0,0,0,.93,1.72,27.36,27.36,0,0,0,5.67.76c.92,0,1.85,0,2.78-.09a10.51,10.51,0,0,0,3-.67,1.24,1.24,0,0,0,.93-1.15,1,1,0,0,0-.41-.86.84.84,0,0,0-.83-.29c-1.34.1-2.67.29-4.12.29a26.9,26.9,0,0,1-4-.1c-.72-.19-1.55-.28-2.27-.48-.1-.09-.2-.09-.41-.09a1.39,1.39,0,0,0-1.24,1Z" style="fill:#161616"/><path d="M865,243.77a1,1,0,0,0-.31.77c0,.29.1.67.31.76,1.13.87,2.16,1.82,3.19,2.78a1.05,1.05,0,0,0,1.44,0,1.1,1.1,0,0,0,0-1.53,39,39,0,0,0-3.09-2.78.36.36,0,0,1-.2-.09,1.67,1.67,0,0,0-.52-.19,1.2,1.2,0,0,0-.82.28Z" style="fill:#161616"/><path d="M868.78,238.7a1.09,1.09,0,0,0,0,1.44c1,1,2.06,1.91,3.09,3a1,1,0,0,0,1.44,0,1.22,1.22,0,0,0,0-1.53l-3.09-2.87a1,1,0,0,0-.72-.29,1.15,1.15,0,0,0-.72.29Z" style="fill:#161616"/><path d="M870.22,252a24.58,24.58,0,0,1-6.49,1.73,58.05,58.05,0,0,1-9.06.19,1.17,1.17,0,0,0-1,1.15,1.1,1.1,0,0,0,1,1.14,77.34,77.34,0,0,0,8.34,0,17.78,17.78,0,0,0,4-.67,13.11,13.11,0,0,0,3.91-1.81,1.09,1.09,0,0,0,.41-1.06.65.65,0,0,0-.41-.57.79.79,0,0,0-.51-.19.34.34,0,0,0-.21.09Z" style="fill:#161616"/><path d="M858.27,257.84a.86.86,0,0,0-.51.77,1.1,1.1,0,0,0,.1.95,27,27,0,0,0,2.47,4c.21.1.31.29.52.29a1.06,1.06,0,0,0,.93-.09,1.25,1.25,0,0,0,.41-1.63,29.21,29.21,0,0,1-2.27-3.83,1.07,1.07,0,0,0-1-.67,1.7,1.7,0,0,0-.62.19Z" style="fill:#161616"/><path d="M839.81,190.69c17.28-21,33.38-6.67,33.38-6.67" style="fill:none;stroke:#161616;stroke-linecap:round;stroke-width:3.56832145753231px"/><path d="M846,204.1c8.44-17.41,28.42-10.24,28.42-10.24" style="fill:none;stroke:#161616;stroke-linecap:round;stroke-width:4.638817894792px"/><path d="M831.05,211.13c-16.06-6.5-19,1.44-22.45,4.79" style="fill:none;stroke:#161616;stroke-linecap:round;stroke-width:3.92515360328554px"/><path d="M805.75,204.34c6.18-12.73,19-7.66,19-7.66" style="fill:none;stroke:#161616;stroke-linecap:round;stroke-width:2.85465716602585px"/></g></g><g id="CareerPlaybook"><path d="M142.73,144.92h-6.28l-2.62,16h-7.78l2.62-16H120v-7.15h9.84l1.72-10.31h-8.63v-7.15h9.8l2.7-16.25h7.73l-2.65,16.25h6.29l2.69-16.25h7.78l-2.7,16.25h9v7.15H153.4l-1.72,10.31h8.94v7.15H150.51l-2.62,16h-7.77Zm-5.11-7.15h6.29l1.71-10.31h-6.28Z" style="fill:#da2222"/><path d="M213.24,141.76l.08.23q.15,9.73-5.49,14.75t-16,5q-10.56,0-16.94-6.45t-6.38-16.87V126.56q0-10.38,6.15-16.85t16.27-6.47q10.81,0,16.74,5t5.76,14.65l-.12.23H200.47q0-5.23-2.23-7.5c-1.48-1.51-3.92-2.26-7.3-2.26A7.73,7.73,0,0,0,184.1,117q-2.39,3.59-2.38,9.51v12q0,6,2.62,9.57a8.72,8.72,0,0,0,7.5,3.59q4.53,0,6.54-2.26t2-7.58Z" style="fill:#da2222"/><path d="M244.26,160.9a15.65,15.65,0,0,1-1.27-3,23,23,0,0,1-.8-3.51,16.18,16.18,0,0,1-4.24,5.37,10.23,10.23,0,0,1-6.58,2q-6.65,0-10.33-3.42t-3.7-9.32a11.27,11.27,0,0,1,4.73-9.7q4.73-3.42,14.34-3.42h5.43v-3a6,6,0,0,0-1.29-4.14,5,5,0,0,0-4-1.45,4.76,4.76,0,0,0-3.42,1.08,4.47,4.47,0,0,0-1.11,3.34l-12.81,0-.08-.23q-.27-5.79,4.82-9.67t13.46-3.89c5.24,0,9.47,1.3,12.72,3.91S255,128.12,255,133v15.94a32.33,32.33,0,0,0,.57,6.25,33.46,33.46,0,0,0,1.69,5.78Zm-9.3-8.56a8,8,0,0,0,4.28-1.13,6.54,6.54,0,0,0,2.6-2.69v-5.59h-5.32q-3.17,0-4.57,1.52a5.53,5.53,0,0,0-1.4,3.87,3.73,3.73,0,0,0,1.23,2.91A4.57,4.57,0,0,0,235,152.34Z" style="fill:#da2222"/><path d="M285.62,129.92l-4.29,0a7.3,7.3,0,0,0-3.71.84,5.15,5.15,0,0,0-2.15,2.37v27.85h-13.2V118.67h12.42l.47,6.21a12.64,12.64,0,0,1,3.51-5.15,7.7,7.7,0,0,1,5.12-1.84,9.57,9.57,0,0,1,1.6.12,12.17,12.17,0,0,1,1.49.35Z" style="fill:#da2222"/><path d="M308.48,161.76q-9.62,0-15.06-5.82A20.71,20.71,0,0,1,288,141.21v-1.48q0-9.69,5.14-15.78T308,117.89q8.55,0,13.26,5.12t4.71,14V144H301.72l-.08.23a8.24,8.24,0,0,0,2.46,5.37,8.58,8.58,0,0,0,6.17,2,27.13,27.13,0,0,0,6.31-.62,39.19,39.19,0,0,0,5.76-2l3.17,8.05a24.12,24.12,0,0,1-7.35,3.36A33.9,33.9,0,0,1,308.48,161.76ZM308,128.05a5.45,5.45,0,0,0-4.67,2,10.15,10.15,0,0,0-1.74,5.45l.08.19h11.41v-1a8.76,8.76,0,0,0-1.16-5A4.39,4.39,0,0,0,308,128.05Z" style="fill:#da2222"/><path d="M350.27,161.76q-9.6,0-15.06-5.82t-5.44-14.73v-1.48q0-9.69,5.13-15.78t14.87-6.06q8.55,0,13.26,5.12t4.7,14V144H343.52l-.08.23a8.24,8.24,0,0,0,2.46,5.37,8.58,8.58,0,0,0,6.17,2,27.13,27.13,0,0,0,6.31-.62,39.19,39.19,0,0,0,5.76-2L367.3,157a24.06,24.06,0,0,1-7.34,3.36A33.92,33.92,0,0,1,350.27,161.76Zm-.5-33.71a5.45,5.45,0,0,0-4.67,2,10.07,10.07,0,0,0-1.74,5.45l.08.19h11.4v-1a8.76,8.76,0,0,0-1.15-5A4.42,4.42,0,0,0,349.77,128.05Z" style="fill:#da2222"/><path d="M396.68,129.92l-4.3,0a7.3,7.3,0,0,0-3.71.84,5.21,5.21,0,0,0-2.15,2.37v27.85h-13.2V118.67h12.42l.47,6.21a12.75,12.75,0,0,1,3.52-5.15,7.66,7.66,0,0,1,5.11-1.84,9.7,9.7,0,0,1,1.61.12,12,12,0,0,1,1.48.35Z" style="fill:#da2222"/><path d="M415.51,141.45v19.49H402.3V104.06H424q10.13,0,16.06,5.16a18.41,18.41,0,0,1,0,27.09q-5.94,5.13-16.06,5.14Zm0-10.16H424q4.31,0,6.57-2.36a8.43,8.43,0,0,0,2.26-6.08,8.82,8.82,0,0,0-2.24-6.21q-2.25-2.42-6.59-2.42h-8.51Z" style="fill:#da2222"/><path d="M466.37,160.94H453.12V100h13.25Z" style="fill:#da2222"/><path d="M498.87,160.9a15.65,15.65,0,0,1-1.27-3,23,23,0,0,1-.8-3.51,16.18,16.18,0,0,1-4.24,5.37,10.25,10.25,0,0,1-6.58,2q-6.64,0-10.34-3.42A12.08,12.08,0,0,1,472,149a11.27,11.27,0,0,1,4.73-9.7q4.72-3.42,14.34-3.42h5.43v-3a6,6,0,0,0-1.29-4.14,5,5,0,0,0-4-1.45,4.76,4.76,0,0,0-3.42,1.08,4.47,4.47,0,0,0-1.11,3.34l-12.81,0-.08-.23q-.27-5.79,4.82-9.67t13.46-3.89q7.85,0,12.72,3.91T509.65,133v15.94a33.17,33.17,0,0,0,.56,6.25,34.42,34.42,0,0,0,1.7,5.78Zm-9.3-8.56a8,8,0,0,0,4.28-1.13,6.54,6.54,0,0,0,2.6-2.69v-5.59h-5.32q-3.17,0-4.57,1.52a5.48,5.48,0,0,0-1.4,3.87,3.73,3.73,0,0,0,1.23,2.91A4.57,4.57,0,0,0,489.57,152.34Z" style="fill:#da2222"/><path d="M532.66,142.3l0,.32h.23l7-24H554l-16.83,48.56a23.23,23.23,0,0,1-5,7.73q-3.09,3-9.81,3a14.46,14.46,0,0,1-2.81-.22c-.73-.14-1.87-.41-3.44-.8l1.61-9.41.82.17a3.31,3.31,0,0,0,.7.06,8.69,8.69,0,0,0,4.57-.92,5.47,5.47,0,0,0,2.15-2.75l1.05-2.73-14.61-42.74h14Z" style="fill:#da2222"/><path d="M596.56,140.7q0,9.66-4.14,15.35t-12.26,5.71a11.84,11.84,0,0,1-6-1.49,13.05,13.05,0,0,1-4.41-4.29l-.78,5H557.42V100h13.2v22.77a12.9,12.9,0,0,1,4.09-3.61,11,11,0,0,1,5.37-1.27q8.16,0,12.32,6t4.16,16Zm-13.16-.82a21.67,21.67,0,0,0-1.41-8.73,5.22,5.22,0,0,0-5.23-3.1,7.82,7.82,0,0,0-3.69.8,6,6,0,0,0-2.45,2.32V149a5.82,5.82,0,0,0,2.49,2,9.43,9.43,0,0,0,3.73.66q3.9,0,5.23-2.71t1.33-8.19Z" style="fill:#da2222"/><path d="M600.62,139.41q0-9.53,5.4-15.52t15-6q9.69,0,15.08,6t5.39,15.52v.82q0,9.59-5.39,15.55t-15,6q-9.72,0-15.11-6t-5.4-15.55Zm13.21.82a17.39,17.39,0,0,0,1.66,8.34c1.1,2,3,3,5.64,3a5.83,5.83,0,0,0,5.55-3,17.3,17.3,0,0,0,1.68-8.32v-.82a17.4,17.4,0,0,0-1.68-8.26,5.89,5.89,0,0,0-5.63-3.1,5.79,5.79,0,0,0-5.56,3.12,17.56,17.56,0,0,0-1.66,8.24Z" style="fill:#da2222"/><path d="M645.59,139.41q0-9.53,5.39-15.52t15-6q9.68,0,15.07,6t5.39,15.52v.82q0,9.59-5.39,15.55t-15,6q-9.72,0-15.11-6t-5.39-15.55Zm13.2.82a17.39,17.39,0,0,0,1.66,8.34,5.91,5.91,0,0,0,5.64,3,5.83,5.83,0,0,0,5.55-3,17.3,17.3,0,0,0,1.68-8.32v-.82a17.4,17.4,0,0,0-1.68-8.26,5.87,5.87,0,0,0-5.62-3.1,5.81,5.81,0,0,0-5.57,3.12,17.56,17.56,0,0,0-1.66,8.24Z" style="fill:#da2222"/><path d="M707.89,144.14h-2.38v16.8H692.3V100h13.21v34.18h1.87l8.91-15.51h15.12l-13,19.06,15.15,23.21h-15Z" style="fill:#da2222"/></g></svg>