<svg id="Layer_1" data-name="Layer 1" xmlns="http://www.w3.org/2000/svg" viewBox="0 0 1200 628"><title>CP001_blog</title><rect id="White" width="1200" height="628" fill="#fff"/><g id="_001_draw" data-name="001_draw"><path d="M815,38.64a16,16,0,0,0-3.3,1.12,12.45,12.45,0,0,0-2.51,1.48,15,15,0,0,0-2.4,2.17,17.24,17.24,0,0,0-1.93,2.67,22.45,22.45,0,0,0-1.46,3.1,24.69,24.69,0,0,0-1,3.06,39.44,39.44,0,0,0-1,7.26,72.8,72.8,0,0,0,1.09,15.87,116.6,116.6,0,0,0,2.73,12.15c1,3.58,2.13,7.12,3.43,10.59a1.72,1.72,0,0,0,.75,1,1.63,1.63,0,0,0,2.23-.59,1.59,1.59,0,0,0,.17-1.26,113.48,113.48,0,0,1-6-23.87,64.54,64.54,0,0,1-.37-16.31,29.23,29.23,0,0,1,1.78-6.89,17.85,17.85,0,0,1,2-3.57,14.11,14.11,0,0,1,2.18-2.19A13.22,13.22,0,0,1,814,43a16.59,16.59,0,0,1,3.55-.94,25.08,25.08,0,0,1,6.06.09A53.75,53.75,0,0,1,831.52,44a1.59,1.59,0,0,0,1.79-2.32,1.77,1.77,0,0,0-.95-.73,44.66,44.66,0,0,0-4.94-1.64,37.8,37.8,0,0,0-4.72-.91,23.1,23.1,0,0,0-3.11-.21,21.89,21.89,0,0,0-4.57.48" fill="#161616"/><path d="M826.31,106.47a25.08,25.08,0,0,0-2.44,5.22,19.56,19.56,0,0,0-1,5.36,16.31,16.31,0,0,0,.68,5.29,16,16,0,0,0,1.07,2.6,13.81,13.81,0,0,0,1.6,2.41,1.51,1.51,0,0,0,.66.38,1.47,1.47,0,0,0,1.14-.15,1.5,1.5,0,0,0,.54-2,20.81,20.81,0,0,1-1.6-2.93,16.82,16.82,0,0,1-1-3.61,16.19,16.19,0,0,1,0-3.81,19.49,19.49,0,0,1,1.22-4.36,24.76,24.76,0,0,1,1.54-2.93,1.43,1.43,0,0,0-.51-1.94,1.37,1.37,0,0,0-.7-.19,1.45,1.45,0,0,0-1.24.7" fill="#161616"/><path d="M886.48,90.2a13.91,13.91,0,0,0-2.91.65,16.25,16.25,0,0,0-5.06,3,22.2,22.2,0,0,0-4.1,4.76,2,2,0,0,0,2.22,2.89,2.05,2.05,0,0,0,1.18-.9c.28-.43.57-.85.88-1.25a20,20,0,0,1,3-3.08,15,15,0,0,1,2.65-1.56A12.9,12.9,0,0,1,887,94a13.7,13.7,0,0,1,2.64,0,16.06,16.06,0,0,1,3.52,1l.44.18a2,2,0,0,0,1,0,1.82,1.82,0,0,0,.43-3.32,19.24,19.24,0,0,0-2.83-1.14,14.94,14.94,0,0,0-3.11-.57c-.31,0-.63,0-.94,0a12,12,0,0,0-1.58.1" fill="#161616"/><path d="M881.11,105.61a12.78,12.78,0,0,0-3.28,2.28,22.52,22.52,0,0,0-2.81,3.2,33.24,33.24,0,0,0-2.37,3.63,50,50,0,0,0-3.59,7.93,1.47,1.47,0,0,0,1,1.8,1.47,1.47,0,0,0,1.8-1c.31-.88.65-1.74,1-2.59a40,40,0,0,1,4.8-8.51,19,19,0,0,1,3-3.13,10.85,10.85,0,0,1,2-1.18,8,8,0,0,1,1.5-.42,6.47,6.47,0,0,1,1.32,0,7.15,7.15,0,0,1,1.44.4,9.25,9.25,0,0,1,1.71,1,14.21,14.21,0,0,1,1.65,1.55,1.41,1.41,0,0,0,2-2,13.88,13.88,0,0,0-3.67-2.89,8.64,8.64,0,0,0-3.83-1h0a8.81,8.81,0,0,0-3.63.88m-8.24,15.24-.14.33.14-.33" fill="#161616"/><path d="M886.53,119.61a2.06,2.06,0,0,0-1,1.28c-.26,1.47-.56,2.94-.9,4.4s-.73,2.91-1.1,4.37a2.18,2.18,0,1,0,4.2,1.16,83.16,83.16,0,0,0,1.92-8.8,2.28,2.28,0,0,0-.21-1.64,2.19,2.19,0,0,0-1.28-1,2.1,2.1,0,0,0-.56-.07,2.13,2.13,0,0,0-1.08.29" fill="#161616"/><path d="M870.54,156.67a20.69,20.69,0,0,0,3.88,12.1,20.52,20.52,0,0,0,4.58,4.66,22.51,22.51,0,0,0,5.79,3.17,1.3,1.3,0,0,0,1-.13,1.33,1.33,0,0,0,.48-1.82,1.39,1.39,0,0,0-.79-.6l-.54-.22a20.46,20.46,0,0,1-4.13-2.39,19.62,19.62,0,0,1-3.16-3.15,20.73,20.73,0,0,1-2.48-4.24,23.41,23.41,0,0,1-1.47-5.5c-.08-.63-.14-1.25-.18-1.88a1.5,1.5,0,0,0-3,0" fill="#161616"/><path d="M969.53,195.29a60.77,60.77,0,0,0-4.72,5.3c-1.58,1.94-3.1,3.93-4.6,5.93-2.91,3.88-5.73,7.83-8.68,11.67l.1-.13-.13.17-.11.14.05-.07c-1.74,2.24-3.52,4.44-5.4,6.57a1.56,1.56,0,0,0-.45,1.08A1.51,1.51,0,0,0,946,227a1.53,1.53,0,0,0,2.17,0c5.8-6.56,10.77-13.79,16.12-20.71l-.25.32q1.83-2.35,3.72-4.65c1.28-1.54,2.59-3,3.86-4.57a1.56,1.56,0,0,0,.44-1.06,1.54,1.54,0,0,0-.44-1.07,1.48,1.48,0,0,0-1-.43,1.59,1.59,0,0,0-1.08.43m-18.09,23,.06-.07,0,0-.09.11" fill="#161616"/><path d="M879.93,233.76c-1.8,0-3.61.15-5.41.32a1.38,1.38,0,0,0-.92.38,1.3,1.3,0,0,0,.92,2.22,68.81,68.81,0,0,1,14.84.2,46.86,46.86,0,0,1,11.39,3,35.86,35.86,0,0,1,7.44,4.31A34.36,34.36,0,0,1,914,250c.41.54.8,1.09,1.18,1.64a1.69,1.69,0,0,0,1,.75,1.61,1.61,0,0,0,1.25-.16,1.65,1.65,0,0,0,.75-1A1.59,1.59,0,0,0,918,250a39.94,39.94,0,0,0-3.67-4.43,35.75,35.75,0,0,0-4.15-3.62,37.76,37.76,0,0,0-9.23-5,46,46,0,0,0-10.14-2.56,66.08,66.08,0,0,0-9.11-.62l-1.73,0m9.2,3.09.22,0-.22,0" fill="#161616"/><path d="M878.53,239.36l-.84.1a1.43,1.43,0,0,0-.92.38,1.31,1.31,0,0,0-.39.93,1.27,1.27,0,0,0,.39.92,1.25,1.25,0,0,0,.92.39,31.72,31.72,0,0,1,7.91,0,41.34,41.34,0,0,1,10.06,2.81A49.28,49.28,0,0,1,906,251a47.45,47.45,0,0,1,8.14,8.07l.31.4a1.72,1.72,0,0,0,.93.73,1.59,1.59,0,0,0,1.21-.16,1.61,1.61,0,0,0,.72-.94,1.67,1.67,0,0,0,0-.83,1.72,1.72,0,0,0-.4-.69,45.86,45.86,0,0,0-7.57-7.62,53.59,53.59,0,0,0-9.49-6.13,41.24,41.24,0,0,0-18.21-4.62c-1,0-2.09,0-3.14.15M906.08,251l.14.1-.14-.1" fill="#161616"/><path d="M891.34,208.49a.94.94,0,0,0-.64.26.91.91,0,0,0-.27.65.89.89,0,0,0,.27.63.85.85,0,0,0,.64.27,27.39,27.39,0,0,1,6.27.1,34.55,34.55,0,0,1,8.39,2.4,62.68,62.68,0,0,1,11.83,6.94,1,1,0,0,0,.81.11,1.06,1.06,0,0,0,.63-.49,1,1,0,0,0,.1-.81,1.12,1.12,0,0,0-.48-.63,65.77,65.77,0,0,0-13-7.2,32.45,32.45,0,0,0-11.82-2.37,25.51,25.51,0,0,0-2.76.14" fill="#161616"/><path d="M901.33,199.84a1.15,1.15,0,0,0,0,2.3,27.84,27.84,0,0,1,12,2.17,33.69,33.69,0,0,1,4.59,2.45,1.12,1.12,0,0,0,1.53-.4,1.11,1.11,0,0,0,.12-.87,1.16,1.16,0,0,0-.52-.67,28.13,28.13,0,0,0-8.41-3.89,30.31,30.31,0,0,0-8.2-1.11l-1.07,0" fill="#161616"/><path d="M909.33,193.25a1.46,1.46,0,0,0-.52,2,1.38,1.38,0,0,0,.87.66,58.93,58.93,0,0,1,6.15,1.29c2,.54,4,1.21,6,1.93a1.38,1.38,0,0,0,1.54-.63,1.4,1.4,0,0,0,.14-1.06,1.33,1.33,0,0,0-.63-.82,49,49,0,0,0-12.4-3.5l-.42,0a1.29,1.29,0,0,0-.7.18" fill="#161616"/><path d="M911.62,182.13a1.64,1.64,0,1,0,.87,3.17c.7-.17,1.41-.3,2.12-.41a24.94,24.94,0,0,1,5.92,0,29.67,29.67,0,0,1,6.75,1.88,37.65,37.65,0,0,1,7.67,4.57c1.29,1,2.52,2.09,3.71,3.22a1.63,1.63,0,1,0,2.31-2.31,36.68,36.68,0,0,0-13.42-9,28.68,28.68,0,0,0-7.81-1.78c-.69-.06-1.39-.09-2.08-.09a26.67,26.67,0,0,0-6,.72M927,186.66l.17.07-.17-.07" fill="#161616"/><path d="M921.09,175.41A25.22,25.22,0,0,0,918,176a.91.91,0,1,0,.49,1.75,23.76,23.76,0,0,1,9.7-.53,35.14,35.14,0,0,1,8.58,2.42l-.24-.1a41.25,41.25,0,0,1,8.85,5.17c.81.63,1.6,1.28,2.36,2a1.05,1.05,0,0,0,.71.29,1,1,0,0,0,.71-.29,1,1,0,0,0,0-1.41,40.18,40.18,0,0,0-13-7.95,33.54,33.54,0,0,0-7.37-1.89,29.24,29.24,0,0,0-3.86-.3h-.18a27.72,27.72,0,0,0-3.64.26m.34,1.78h0Zm6.76.07.18,0-.18,0m17.25,7.52.13.1-.13-.1" fill="#161616"/><path d="M921.94,169.88a1.23,1.23,0,0,0-.77.59,1.3,1.3,0,0,0,.47,1.76,1.41,1.41,0,0,0,1,.13l.23,0a40.13,40.13,0,0,1,10.33,0,45.57,45.57,0,0,1,11.11,3.06c1.55.66,3.06,1.4,4.55,2.19a1.32,1.32,0,0,0,1.78-.47,1.31,1.31,0,0,0-.47-1.78,43.78,43.78,0,0,0-13.58-5.11,44.61,44.61,0,0,0-7.18-.82h-1.18a42.63,42.63,0,0,0-6.28.48" fill="#161616"/><path d="M844.56,196.55a.92.92,0,0,0,.9.91c1,.06,1.93.14,2.89.26a33.31,33.31,0,0,1,8,2.14,25.94,25.94,0,0,1,5.45,3.15,23.45,23.45,0,0,1,3.92,3.92c.33.43.64.86.93,1.31a1,1,0,1,0,1.78-1,22.8,22.8,0,0,0-4.42-4.93,25.32,25.32,0,0,0-5.59-3.55,34.91,34.91,0,0,0-13-3.07h0a.91.91,0,0,0-.86.9m3.89,1.19h0" fill="#161616"/><path d="M850.61,190.26a1.17,1.17,0,0,0-.34.83,1.15,1.15,0,0,0,.34.82,1.22,1.22,0,0,0,.82.35c.39,0,.78.08,1.17.12a32.93,32.93,0,0,1,7.91,2.18,34.12,34.12,0,0,1,7.18,4.23l-.11-.09.13.1.12.09-.11-.08c.93.73,1.82,1.5,2.68,2.3a1.21,1.21,0,0,0,1.71-1.71,33.52,33.52,0,0,0-9.47-6.51,32.9,32.9,0,0,0-11.21-3h-.06a1.16,1.16,0,0,0-.76.34m17.11,8.55h0l0,0" fill="#161616"/><path d="M1098.31,351.38a1.89,1.89,0,0,0-1.12.86,2,2,0,0,0-.19,1.44q.7,4.17,1.28,8.35c.17,1.32.33,2.64.47,4a2.15,2.15,0,0,0,.58,1.4,2,2,0,0,0,2.8,0,2.13,2.13,0,0,0,.51-.87,2.08,2.08,0,0,0,0-1c-.69-4.27-1.32-8.54-2-12.8a1.81,1.81,0,0,0-.86-1.11,1.89,1.89,0,0,0-1-.26,1.66,1.66,0,0,0-.49.07m0,10.47a.78.78,0,0,0,0,.14.78.78,0,0,1,0-.14m0,.19c0,.1,0,.21,0,.31,0-.1,0-.21,0-.31" fill="#161616"/><path d="M1228.43,303.18c-12.11,3.28-23.85,7.73-35.51,12.34-11.84,4.68-23.56,9.65-35.4,14.34-9.4,3.72-18.88,7.27-28.5,10.37a249.22,249.22,0,0,1-29.16,7.69,1.68,1.68,0,0,0-1.17,2.06,1.64,1.64,0,0,0,.76,1,1.77,1.77,0,0,0,1.29.17q9.12-1.74,18.09-4.16c6.05-1.62,12-3.47,18-5.43,12-4,23.9-8.45,35.71-13,9.47-3.66,18.92-7.37,28.42-10.95s19-7,28.65-10.24a2.19,2.19,0,0,0,1.28-1,2.16,2.16,0,0,0-2.43-3.16" fill="#161616"/><path d="M1237.33,319.54c-2.84.54-5.64,1.36-8.42,2.16s-5.57,1.68-8.33,2.58c-5.56,1.81-11.06,3.79-16.53,5.82-11,4.1-21.9,8.47-32.85,12.72-21.72,8.43-43.68,16.51-66.5,21.44-.91.2-1.81.39-2.72.57a1.78,1.78,0,0,0-1.24,2.19,1.75,1.75,0,0,0,.82,1.06,1.82,1.82,0,0,0,1.37.18c22.85-4.64,44.91-12.41,66.71-20.54,11-4.1,22-8.27,33-12.26q8.25-3,16.54-5.82c5.5-1.88,11-3.68,16.55-5.53.88-.3,1.75-.6,2.62-.94a2,2,0,0,0,1.13-.86,1.87,1.87,0,0,0,.19-1.46,1.84,1.84,0,0,0-.87-1.12,1.73,1.73,0,0,0-.92-.25,2.46,2.46,0,0,0-.53.06" fill="#161616"/><path d="M1091.4,377.12c1.25,25.55,1.84,51.14,2,76.73s-.07,51.2-.29,76.8c-.06,6.52-.11,13.05-.1,19.58s0,13,.36,19.57a1.35,1.35,0,0,0,2.7,0c.39-6.39.51-12.79.6-19.19s.13-12.79.15-19.2q0-19.2-.12-38.4c-.18-25.59-.55-51.19-1.31-76.78q-.59-19.56-1.54-39.11a1.27,1.27,0,0,0-1.25-1.25,1.25,1.25,0,0,0-1.24,1.25" fill="#161616"/><path d="M1113.16,561.38c-3.71,1.61-7.25,3.59-10.83,5.46s-7.21,3.61-10.9,5.24a1.84,1.84,0,0,0-.91,1.18,2,2,0,0,0,.2,1.52,2,2,0,0,0,1.18.91l.52.07a2.05,2.05,0,0,0,1-.27q5.57-2.41,11.09-4.92a76.1,76.1,0,0,0,10.74-5.61,2.12,2.12,0,0,0,.75-2.84,2.18,2.18,0,0,0-1.24-1l-.55-.07a2,2,0,0,0-1,.28" fill="#161616"/><path d="M1118.36,376c-1.1,24-1.3,48-1.35,72.06s0,48.07-.47,72.1q-.18,8.82-.42,17.65c-.16,6-.38,12-.55,18a1.58,1.58,0,0,0,1.57,1.57,1.6,1.6,0,0,0,1.57-1.57c.84-12,1.17-24,1.35-36s.15-24,.11-36c-.08-24-.36-48.06,0-72.09.16-11.89.47-23.78,1-35.66a1.39,1.39,0,0,0-1.39-1.39,1.41,1.41,0,0,0-1.39,1.39" fill="#161616"/><path d="M872.16,336a.92.92,0,0,0,0,1.26c7.36,7.7,15.1,15,22.9,22.28,3.47,3.22,7,6.45,10.45,9.64a.78.78,0,0,0,1.09,0,.77.77,0,0,0,0-1.08c-3.83-3.7-7.74-7.33-11.62-11s-7.75-7.31-11.56-11c-3.38-3.31-6.73-6.67-10-10.1a.88.88,0,0,0-.62-.25.91.91,0,0,0-.64.25" fill="#161616"/><path d="M886.35,336.3a.54.54,0,0,0-.37.65.6.6,0,0,0,.25.32l2.61,2-.08-.06c5.38,4.16,10.55,8.58,15.63,13.1s10.08,9.16,15.16,13.71l1.29,1.16a.54.54,0,0,0,.74,0,.53.53,0,0,0,0-.74c-5.05-4.58-10.06-9.19-15.14-13.73s-10.23-9-15.59-13.21q-2-1.59-4.09-3.13a.41.41,0,0,0-.25-.07.41.41,0,0,0-.16,0m2.41,2.89,0,0,0,0" fill="#161616"/><path d="M908.75,339.6a.79.79,0,0,0,0,1.09c6.79,6.74,13.35,13.71,19.91,20.68l1.18,1.25a.7.7,0,0,0,1,0,.71.71,0,0,0,0-1c-6.49-7-13-14-19.78-20.82l-1.21-1.22a.79.79,0,0,0-1.09,0" fill="#161616"/><path d="M923.81,342.35a.22.22,0,0,0,0,.32q5.4,5.88,10.56,12a.22.22,0,0,0,.32,0,.24.24,0,0,0,.07-.16.26.26,0,0,0-.07-.16q-5.15-6.1-10.56-12a.22.22,0,0,0-.32,0" fill="#161616"/><path d="M1204.6,501.87c-1.32.47-2.61,1-3.89,1.61s-2.68,1.24-4,1.89c-2.53,1.24-5,2.56-7.51,3.89-4.93,2.66-9.79,5.44-14.64,8.24-9.65,5.58-19.27,11.2-29.25,16.17q-5.43,2.7-11,5.08c-5,2.11-10.11,4-15.3,5.61a2,2,0,0,0-1.39,2.45,2,2,0,0,0,2.45,1.38,223.58,223.58,0,0,0,31.67-12.79c10-4.89,19.75-10.35,29.42-15.9,4.09-2.34,8.15-4.72,12.22-7.08l6.14-3.59c1.07-.62,2.14-1.27,3.21-1.91s2.14-1.29,3.16-2a1.71,1.71,0,0,0,.77-1.88,1.73,1.73,0,0,0-1.6-1.24,1.41,1.41,0,0,0-.45.07" fill="#161616"/><path d="M1190.36,517.38a2.06,2.06,0,0,0,1.42,2.5c4.42,1.33,8.82,2.71,13.17,4.25a2,2,0,0,0,2.41-1.37,1.94,1.94,0,0,0-.2-1.51,2,2,0,0,0-1.17-.9c-4.34-1.55-8.71-3.06-13.13-4.4a1.88,1.88,0,0,0-.53-.07,2.07,2.07,0,0,0-2,1.5" fill="#161616"/><path d="M1192.7,507.85a1,1,0,0,0-.43.56.9.9,0,0,0,.1.72,39.48,39.48,0,0,0,3.87,4.59,36,36,0,0,0,4.56,3.89.91.91,0,0,0,.7.1,1,1,0,0,0,.55-.42.94.94,0,0,0,.09-.71,1,1,0,0,0-.42-.55l-.31-.23.11.08-.15-.11,0,0,0,0a38.67,38.67,0,0,1-6.77-6.76l-.61-.81a1,1,0,0,0-.56-.43l-.24,0a1,1,0,0,0-.48.12m1.81,1,0,.06,0-.06m.09.12.06.07-.06-.07m6.77,6.75,0,0-.05,0h0" fill="#161616"/><path d="M1196.09,507.39a1,1,0,0,0,.36,1.38c2.43,1.44,4.84,2.91,7.26,4.37a1,1,0,1,0,1-1.7c-2.38-1.51-4.8-3-7.23-4.41a.9.9,0,0,0-.5-.14,1,1,0,0,0-.88.5" fill="#161616"/><path d="M1135,373.62a.85.85,0,0,0,0,1.19,128.62,128.62,0,0,0,13.11,11,.7.7,0,0,0,.58.08.77.77,0,0,0,.45-.34.79.79,0,0,0,.07-.58.85.85,0,0,0-.34-.45l-1-.72.16.12a141.87,141.87,0,0,1-11.89-10.29.86.86,0,0,0-.6-.24.84.84,0,0,0-.59.24" fill="#161616"/><path d="M1141.27,368.22a.71.71,0,0,0-.21.5.68.68,0,0,0,.21.51Q1147,374,1153,378.57a.67.67,0,0,0,1-.59.63.63,0,0,0-.2-.48q-5.82-4.56-11.52-9.28a.73.73,0,0,0-.5-.21.69.69,0,0,0-.51.21" fill="#161616"/><path d="M1152.24,365.24a.33.33,0,0,0,0,.47l5.31,5.7a.34.34,0,0,0,.47,0,.33.33,0,0,0,0-.46l-5.31-5.71a.3.3,0,0,0-.23-.1.31.31,0,0,0-.24.1" fill="#161616"/><path d="M1090.52,296.66a1.6,1.6,0,0,0-1,.74,1.67,1.67,0,0,0-.16,1.22c.16.91.3,1.83.42,2.74.25,1.92.43,3.83.56,5.76a1.69,1.69,0,0,0,.47,1.14,1.66,1.66,0,0,0,1.14.47,1.62,1.62,0,0,0,1.61-1.61,83.82,83.82,0,0,0-1.13-9.34,1.52,1.52,0,0,0-.73-.95,1.57,1.57,0,0,0-.81-.22,2,2,0,0,0-.42.05" fill="#161616"/><path d="M1095.48,303.1a1.12,1.12,0,0,0,.77,1.36c7.77,2,15.68,3.26,23.59,4.49,4,.61,7.92,1.21,11.87,1.9,1.93.33,3.86.7,5.78,1.06s4,.81,6,1.17a1.53,1.53,0,0,0,1.09-.14,1.5,1.5,0,0,0,.65-.85,1.43,1.43,0,0,0-1-1.74,115.52,115.52,0,0,0-11.83-2.17c-4-.59-8-1.13-11.93-1.68a228,228,0,0,1-23.67-4.17l-.28,0a1.11,1.11,0,0,0-1.08.8" fill="#161616"/><path d="M1087.55,286.14a1.69,1.69,0,0,0-1.16,2.05,48.43,48.43,0,0,0,2.71,8.21c.05.13.11.26.17.39a1.62,1.62,0,0,0,.59.6,1.67,1.67,0,0,0,1.29.17,1.64,1.64,0,0,0,1-.77,1.6,1.6,0,0,0,.17-1.28c-.53-1.29-1-2.59-1.45-3.9s-.86-2.86-1.27-4.3a1.69,1.69,0,0,0-1.62-1.23,1.65,1.65,0,0,0-.43.06" fill="#161616"/><path d="M1099.92,287.11c-1.1,0-2.21.05-3.32.1a1,1,0,0,0,0,2,154.48,154.48,0,0,1,26,1.32l-.15,0q5.16.69,10.27,1.65c1.74.33,3.46.68,5.19,1s3.46.75,5.21,1a1.28,1.28,0,0,0,.94-.12,1.21,1.21,0,0,0,.56-.73,1.24,1.24,0,0,0-.85-1.51c-1.77-.51-3.58-.88-5.38-1.24s-3.62-.67-5.43-1q-5.49-.92-11-1.52a170.35,170.35,0,0,0-18.9-1.06q-1.54,0-3.09,0" fill="#161616"/><path d="M1107.17,292.47a1.18,1.18,0,0,0-.36.85,1.21,1.21,0,0,0,.36.85,1.33,1.33,0,0,0,.85.35c7.24.82,14.55,1,21.78,2q3.39.47,6.73,1.16a1.41,1.41,0,0,0,1-.13,1.26,1.26,0,0,0,.6-.79,1.32,1.32,0,0,0-.91-1.61,92.67,92.67,0,0,0-14.49-1.88c-4.91-.36-9.83-.57-14.72-1.12H1108a1.17,1.17,0,0,0-.78.36m22.32,4,.13,0-.13,0" fill="#161616"/><path d="M1098.94,267.22a.89.89,0,0,0,.62,1.09,93.76,93.76,0,0,0,10.36,1.88c3.52.44,7.06.7,10.6.88,7.12.35,14.25.37,21.36.72,2,.1,3.92.24,5.88.32a1.38,1.38,0,0,0,1.37-1.37,1.34,1.34,0,0,0-.4-1,1.47,1.47,0,0,0-1-.41c-1.67-.17-3.35-.24-5-.29s-3.4-.08-5.09-.09c-3.49,0-7,0-10.48-.05a164.68,164.68,0,0,1-20.35-1.1h0l-.21,0h.09c-2.23-.31-4.44-.7-6.64-1.21a.78.78,0,0,0-.22,0,.89.89,0,0,0-.87.64m7.85.61h0l-.14,0,.12,0" fill="#161616"/><path d="M1102.59,273.05a1.09,1.09,0,0,0-.32.76,1.12,1.12,0,0,0,.32.77,1.18,1.18,0,0,0,.76.31c6.06.78,12.13,1.54,18.2,2.24,3,.34,6,.68,9,1s6.16.63,9.24.86a1.23,1.23,0,0,0,.88-2.1,1.31,1.31,0,0,0-.88-.36c-3-.28-6-.52-9-.79s-6.16-.58-9.23-.9q-9.12-.94-18.2-2.09h-.07a1.11,1.11,0,0,0-.69.32" fill="#161616"/><path d="M1100.76,252.75a.85.85,0,0,0,.26.62.91.91,0,0,0,.62.26c3.71.36,7.42.57,11.14.67s7.44.08,11.16.08,7.45,0,11.17.08c1.86,0,3.73.11,5.59.21s3.72.24,5.58.37c.74.05,1.48.11,2.23.15a1.32,1.32,0,0,0,1.28-1,1.3,1.3,0,0,0-.13-1,1.26,1.26,0,0,0-.8-.61,85.21,85.21,0,0,0-11.29-.66c-3.72,0-7.45.05-11.17.14-7.44.17-14.88.38-22.31,0-.82,0-1.63-.1-2.45-.17h-.05a.89.89,0,0,0-.83.89" fill="#161616"/><path d="M1204.92,283.57a76.91,76.91,0,0,0-9.84,2.22c-3.26.9-6.48,1.92-9.7,2.91a126.39,126.39,0,0,1-19.61,4.81,57.89,57.89,0,0,1-6,.48,1.12,1.12,0,1,0,0,2.23,69.87,69.87,0,0,0,11.44-1.24c3.75-.7,7.45-1.67,11.12-2.7s7.37-2.13,11.07-3.14c1.84-.51,3.7-1,5.56-1.43s3.73-.81,5.61-1.18l1.12-.22a1.4,1.4,0,0,0,.85-.66,1.42,1.42,0,0,0,.14-1.09,1.5,1.5,0,0,0-.65-.85l-.34-.14a1.65,1.65,0,0,0-.38-.05,1.57,1.57,0,0,0-.37.05" fill="#161616"/><path d="M1207.51,263.38c-3.06.54-6.07,1.31-9.06,2.12s-6,1.7-9,2.54a135,135,0,0,1-18.08,4.08c-2.1.28-4.22.45-6.33.52a1.09,1.09,0,1,0,0,2.17,97.92,97.92,0,0,0,21.76-3.5c3.54-.9,7.06-1.88,10.6-2.79s7.21-1.76,10.85-2.52a1.36,1.36,0,0,0,.32-2.48,1.25,1.25,0,0,0-.66-.17l-.39,0" fill="#161616"/><path d="M1199.34,270.73c-4.69,1.08-9.31,2.5-14,3.74s-9.33,2.39-14.07,3.27a1.15,1.15,0,0,0-.27,2.1,1.22,1.22,0,0,0,.88.11c4.74-.86,9.44-1.93,14.12-3.09l7-1.76c2.34-.59,4.67-1.18,7-1.82a1.32,1.32,0,0,0-.38-2.59,1.24,1.24,0,0,0-.33,0" fill="#161616"/><path d="M1186.88,277.72c-2.83,1-5.64,2-8.45,3.07a1,1,0,0,0-.56.44.93.93,0,0,0-.1.73.94.94,0,0,0,.44.56.87.87,0,0,0,.72.09q4.21-1.56,8.45-3.09a1,1,0,0,0,.56-.43,1,1,0,0,0,.09-.72,1,1,0,0,0-.9-.7.74.74,0,0,0-.25.05" fill="#161616"/><path d="M1205,249.44c-2.92.29-5.83.68-8.73,1.1s-5.85.88-8.77,1.36c-5.79,1-11.55,2-17.33,3.08a.9.9,0,0,0-.53.41.88.88,0,0,0-.09.69.89.89,0,0,0,.41.54,1,1,0,0,0,.69.09c4.35-.76,8.71-1.52,13.07-2.24s8.63-1.4,13-2c2.76-.37,5.53-.69,8.31-1a1.09,1.09,0,0,0,.72-.3,1,1,0,0,0,0-1.43,1.06,1.06,0,0,0-.67-.3h0m-8.2,3h0m-.18,0h0Z" fill="#161616"/><path d="M1196.1,254.1q-9.33,2.11-18.77,3.75a1.18,1.18,0,0,0-.77.59,1.28,1.28,0,0,0-.14,1,1.26,1.26,0,0,0,.6.77,1.32,1.32,0,0,0,1,.13q9.42-1.63,18.71-4a1.18,1.18,0,0,0,.81-1.43,1.16,1.16,0,0,0-1.14-.84,1.43,1.43,0,0,0-.29,0" fill="#161616"/><path d="M1203.39,235.12c-4.1,1.16-8.19,2.37-12.32,3.44s-8.45,2.05-12.72,2.82a1.22,1.22,0,0,0-.75.58,1.26,1.26,0,0,0-.13,1,1.28,1.28,0,0,0,.58.75,1.36,1.36,0,0,0,1,.13c4.2-.74,8.37-1.63,12.51-2.62s8.44-2.14,12.58-3.47a1.35,1.35,0,0,0-.37-2.65,1.41,1.41,0,0,0-.35.05" fill="#161616"/><path d="M1201.68,226.91a110.46,110.46,0,0,0-14.53,2.66c-4.76,1.11-9.52,2.27-14.35,3.09a1.05,1.05,0,0,0-.64.49,1.14,1.14,0,0,0-.11.83,1.11,1.11,0,0,0,.49.63,1.14,1.14,0,0,0,.83.11c4.76-.8,9.46-1.88,14.18-2.9,2.39-.52,4.79-1,7.19-1.47s4.83-.84,7.25-1.19a1.18,1.18,0,0,0,.84-1.11,1.17,1.17,0,0,0-1.09-1.15h-.06" fill="#161616"/><path d="M925.44,15a2.08,2.08,0,0,0-1.05.29,152.09,152.09,0,0,1-14,9.37A131.53,131.53,0,0,1,895.57,32a137.25,137.25,0,0,1-16.7,5.73,140.4,140.4,0,0,1-17.75,3.54,164.94,164.94,0,0,1-21.26,1.33h-.41a1.66,1.66,0,0,0-1.64,1.64,1.68,1.68,0,0,0,1.64,1.65H840a172.72,172.72,0,0,0,29.78-2.48,131.37,131.37,0,0,0,28.05-8.16,130.77,130.77,0,0,0,14.55-7.16c3.89-2.22,7.64-4.61,11.15-7.1l0,.06v.06c0,.23,0,.45-.07.67a25.67,25.67,0,0,1-1.66,5.85,45.73,45.73,0,0,1-5.78,9.6,81.66,81.66,0,0,1-7.46,8.25,1.75,1.75,0,0,0-.52,1.25,1.77,1.77,0,0,0,2.68,1.58,2,2,0,0,0,.39.19,38.09,38.09,0,0,0,14.17,2.57c1.43,0,3-.08,4.51-.22a55.3,55.3,0,0,0,9.6-1.78l.63-.17c-1.86,1.78-3.85,3.51-5.89,5.11a69.12,69.12,0,0,1-7.61,5,76.73,76.73,0,0,1-8.09,4l-.8.33-.46.2a2.07,2.07,0,0,0-.71.7,2,2,0,0,0-.24,1.24,1.46,1.46,0,0,0-.19.25,1.86,1.86,0,0,0,.66,2.52c1.88,1.22,3.71,2.5,5.45,3.82a69.88,69.88,0,0,1,12.22,12.06,52.61,52.61,0,0,1,4.76,7.45c-.65-.28-1.33-.54-2-.8l-.64-.24-.57-.21-5.24-2-2.68-1-2-.77c-4.08-1.58-9.15-3.56-14.08-5.31-12.85-4.56-23.45-7-33.36-7.82-1.93-.14-3.87-.22-5.76-.22-2.12,0-4.28.1-6.41.29a61,61,0,0,0-12.47,2.45,2,2,0,0,0-1.35,2.38,1.91,1.91,0,0,0,.88,1.16,1.88,1.88,0,0,0,1,.25,4,4,0,0,0,.55,0c2-.41,3.79-.71,5.51-1a80.4,80.4,0,0,1,10.26-.65,88.15,88.15,0,0,1,11.28.74c8.28,1.15,16.84,3.31,27.77,7a84.39,84.39,0,0,1-.51,15.92,99,99,0,0,1-6.61,24.11,1.87,1.87,0,0,0,.19,1.48,1.92,1.92,0,0,0,1.15.88,1.81,1.81,0,0,0,.51.08,1.87,1.87,0,0,0,1-.27,2,2,0,0,0,.88-1.14c1.34-3.72,2.42-7.12,3.29-10.4A98.78,98.78,0,0,0,911.74,106a95.32,95.32,0,0,0,.86-19.18c5,1.77,10.1,3.68,14.61,5.36l.12,0,.13,0,.16.06C930,93.17,932.35,94,935,95l1.11.39.36.13.33.11a2.71,2.71,0,0,0-.14.72l0,.37,0,.37h0l0,0a1.21,1.21,0,0,0-.59.77c-1.35,8.85-2.29,17.89-2.8,26.89-.26,4.58-.42,9.25-.48,13.9-.07,4.93,0,9.4.2,13.68.08,1.83.17,3.22.31,4.53.08.81.19,1.58.32,2.28a11.48,11.48,0,0,0,.39,1.53,54.34,54.34,0,0,0-6.37,1.11,61.39,61.39,0,0,0-12.77,4.51,1.21,1.21,0,0,0-.57,1.38,1.28,1.28,0,0,0,1.18.92.92.92,0,0,0,.33-.06,80.51,80.51,0,0,1,17.1-4.48,61.38,61.38,0,0,1,7.85-.53,49.15,49.15,0,0,1,6.31.39,39.78,39.78,0,0,1,9.69,2.58,33.15,33.15,0,0,1,6.92,4,31.87,31.87,0,0,1,5.3,5.34l.18.24.08.1h0a.43.43,0,0,0-.25.17c-1.34,1.49-2.63,3.12-3.77,4.56l-.1.13-.05.06c-1.12,1.43-2.46,3.14-4,5.11s-2.85,3.75-4.27,5.62l-.26.35-.25.34-2.76,3.64c-1.88,2.49-3.78,5-5.67,7.43l-.22.28-.32.41-.23.31c-2.75,3.58-5.85,7.63-8.76,11.55a307.33,307.33,0,0,0-18.34,27.25,28.57,28.57,0,0,0-6.27-8.28,32.38,32.38,0,0,0-8.91-5.85,46.92,46.92,0,0,0-19.29-3.75c-.67,0-1.33,0-2,0A77.15,77.15,0,0,0,871.16,227a68.92,68.92,0,0,0-4.32-6.28,42.8,42.8,0,0,0-5.29-5.77,28,28,0,0,0-6.52-4.42,23.42,23.42,0,0,0-3.81-1.44,23.16,23.16,0,0,0-4.12-.73H847a1.45,1.45,0,0,0-1.15,2.16,1.39,1.39,0,0,0,.87.67,26.58,26.58,0,0,1,6,1.66,30.3,30.3,0,0,1,6.15,3.61,41.11,41.11,0,0,1,7,7.09,58.87,58.87,0,0,1,3.42,5,1.31,1.31,0,0,0,.54.48.08.08,0,0,0,0,.07,1.65,1.65,0,0,0,.77,1,1.55,1.55,0,0,0,.82.22,2.09,2.09,0,0,0,.47-.05c1.58-.3,3.08-.56,4.49-.75a68.46,68.46,0,0,1,8.68-.57,56.66,56.66,0,0,1,6.88.41,42.36,42.36,0,0,1,10.38,2.74,34.47,34.47,0,0,1,7,4.07,33.82,33.82,0,0,1,5.65,5.69,46.66,46.66,0,0,1,2.69,4,1.55,1.55,0,0,0,.54.54,1,1,0,0,0,.42,1.33c.15,2.68.27,5.4.38,7.94a1.31,1.31,0,0,0,1.3,1.31,1.33,1.33,0,0,0,1-.41,1.25,1.25,0,0,0,.36-.9c0-.48,0-1,0-1.43a.66.66,0,0,0,.46.13,1.29,1.29,0,0,0,1-.43,58.5,58.5,0,0,0,8.09-11.27,1.28,1.28,0,0,0-.46-1.73,1.23,1.23,0,0,0-.62-.17,1.3,1.3,0,0,0-1.11.63c-1.33,2.11-2.75,4.15-4.22,6.06-1.07,1.37-2.19,2.71-3.35,4,0-1.12-.06-2.41-.27-5.29,0-.15,0-.29-.08-.43a280.21,280.21,0,0,1,20.72-30.11c2.19-2.83,4.51-5.78,7.12-9,2.25-2.81,4.6-5.64,6.49-7.92l.12-.14.3-.36.19-.23.55-.66,2.06-2.47.19-.23.12-.14.14-.17c1.5-1.81,3.38-4.05,5.13-6.23,1.39-1.73,2.63-3.32,3.81-4.88s2.23-3,3.15-4.39a.85.85,0,0,0-.06.69c.38,1.47.76,3,1.13,4.62a.68.68,0,0,0-.47-.14,1.34,1.34,0,0,0-1,.45c-.9,1-1.8,2.14-2.71,3.26l0,.06-.09.11-.49.61-2.83,3.51-.65.8c-2.75,3.42-4.88,6.1-6.9,8.71-5.29,6.82-9.33,12.51-12.72,17.91a1.39,1.39,0,0,0-.16,1.08,1.48,1.48,0,0,0,.69.94,1.39,1.39,0,0,0,.73.2,1.52,1.52,0,0,0,1.29-.73c3-4.8,6.47-9.67,10.83-15.32h0l.06-.06c2.21-2.84,4.67-5.94,7.53-9.45l2-2.5.71-.87,1.1-1.34.35-.43.08-.1.05,0,.14-.17c1-1.3,2.14-2.63,3.15-4,.71,3.69,1.27,6.59,1.73,9.15-.89,1.12-1.78,2.31-2.61,3.44l-.1.13-.11.15-.18.24c-.73,1-1.45,2-2.17,3l-.19.24-.14.2-.49.66-.48.66-.44.59q-3.81,5.2-7.62,10.42c-4.48,6.15-9.24,12.74-14.14,19.57a48.16,48.16,0,0,0-.88-6.7,22.39,22.39,0,0,0-.86-3.16,11.12,11.12,0,0,0-1.13-2.35,4.61,4.61,0,0,0-1.54-1.54,2.65,2.65,0,0,0-.84-.34,3.08,3.08,0,0,0-.62-.07,4.86,4.86,0,0,0-.66,0,3.22,3.22,0,0,0-.82.3,4.22,4.22,0,0,0-.76.53l-.08.07a6.32,6.32,0,0,0-1.25,1.51,13,13,0,0,0-.93,1.77,27.07,27.07,0,0,0-1,2.57,42,42,0,0,0-1.45,6,61.17,61.17,0,0,0-.9,13.34,1.45,1.45,0,0,0-.73.25,2,2,0,0,0-1.16.89,1.15,1.15,0,0,0-.12.25c-1.79,1.72-3.44,3.6-5,5.41l-.05,0,0,.05-.72.81,0,.06-1.9,2.16-.28.33-.18.2-.19.21c-1.45,1.66-2.67,3-3.89,4.4a109.53,109.53,0,0,1-14.07,13.49,62.82,62.82,0,0,1-9.09,5.8l-.44-1.07c-.16-.37-.32-.73-.49-1.09-.41-.89-.83-1.78-1.25-2.66-.83-1.77-1.67-3.52-2.52-5.28-1.48-3.08-3.43-7.12-5.41-11.06A188.45,188.45,0,0,0,871.76,238,79.49,79.49,0,0,0,855,219.53a51.63,51.63,0,0,0-10.32-6.29,46.41,46.41,0,0,0-5.77-2.2l-.84-.25a1.31,1.31,0,0,0,.55-.55,2.46,2.46,0,0,0-.86-3.29,71.07,71.07,0,0,0-8.73-4.62c-3-1.39-6.27-2.68-9.84-3.94-4.7-1.65-10-3.18-16.59-4.8l.48-.79.06-.11.07-.13.11-.21,0-.06c1.62-3,3.46-6.36,5.3-9.59l0,0c1.52.95,3.1,1.87,4.85,2.89l0,0a160.61,160.61,0,0,1,16.94,10.84,58.09,58.09,0,0,1,10.22,10.06l.06.08.29.37a1.74,1.74,0,0,0,.82.47,1.62,1.62,0,0,0,.49.08,1.87,1.87,0,0,0,1.79-1.36,1.89,1.89,0,0,0,0-1,1.74,1.74,0,0,0-.48-.81,50.76,50.76,0,0,0-6.52-6.86h.05a1.73,1.73,0,0,0,.93-.25,2.24,2.24,0,0,0,1.07-1.38c.4-2.45.81-4.44,1.29-6.29a46.28,46.28,0,0,1,2-5.85c.52-1.23,1.14-2.51,1.83-3.8a31.34,31.34,0,0,0,3.38,2.77,50.64,50.64,0,0,0,9.22,5.2c8.14,3.65,16.91,5.87,25.2,7.83a1.41,1.41,0,0,0,.47.07,2,2,0,0,0,.64-.11,1.92,1.92,0,0,0,.52.07,2.28,2.28,0,0,0,2-1.11,199.11,199.11,0,0,0,10.53-19.93,68.59,68.59,0,0,0,4.6-13.6c0,.05.06.09.09.12,1.51,1,2.87,1.83,4.23,2.86a26.37,26.37,0,0,1,4.2,4.18c.31.4.61.82.92,1.29-.06,0-.11.08-.18.18-5.59,7.46-11,15.07-16.23,22.44l-.13.18-.28.4-.16.23-.1.14c-2.61,3.67-5.31,7.46-8.11,11.29-2.56,3.51-5.37,7.25-8.59,11.42-.75,1-1.51,1.94-2.26,2.92l0,.06q-1.5,1.92-3,3.85a2,2,0,0,0-.26,1,1.89,1.89,0,0,0,1.9,1.9,1.86,1.86,0,0,0,1.35-.56c3.55-4.21,6.8-8.62,9.78-12.75,3.1-4.29,6-8.44,9.16-13L897,193.5l.28-.41,0,0,.09-.12.08-.13c4.43-6.43,9-13.08,13.91-19.73l.91-1.23.18-.24.23-.31a1.33,1.33,0,0,0,.22-.87,1.51,1.51,0,0,0,.36-2,32.1,32.1,0,0,0-4.77-5.87,25.82,25.82,0,0,0-2.89-2.37,17.19,17.19,0,0,0-3.5-1.88,1.42,1.42,0,0,0-.43-.07,1.83,1.83,0,0,0-.42.06,36.35,36.35,0,0,0,.46-4.61,13,13,0,0,0,2.44.21l1,0a8.89,8.89,0,0,0,4.28-1.24,5.84,5.84,0,0,0,1.38-1.19,8,8,0,0,0,.63-.89,5.83,5.83,0,0,0,.42-.89l.08-.2a5.55,5.55,0,0,0,.35-1.42,11.44,11.44,0,0,0,.12-2.09,25.25,25.25,0,0,0-2.17-8.19c-1.14-2.79-2.44-5.47-3.79-8.2l-.15-.29-.06-.14a1.51,1.51,0,0,0-1.38-.78,1.59,1.59,0,0,0-.8.21,1.61,1.61,0,0,0-.57,2.17c1,2,1.83,3.75,2.62,5.6l0,.07a35,35,0,0,1,2.41,7.92,11.37,11.37,0,0,1,0,2.52,6.14,6.14,0,0,1-.28,1.08,5.32,5.32,0,0,1-.33.56,5.72,5.72,0,0,1-.43.43,5,5,0,0,1-.63.36,7.15,7.15,0,0,1-1.27.32,11.39,11.39,0,0,1-1.21.06,16,16,0,0,1-2.12-.14c-.62-.09-1.26-.2-1.94-.35a3.66,3.66,0,0,0-.59-.06,2,2,0,0,0-1.06.29,2.15,2.15,0,0,0-1,1.27,2.28,2.28,0,0,0,.38,1.9s0,0,0,.11a36.27,36.27,0,0,1-.26,3.89,54.07,54.07,0,0,1-3.83,13.06,158.08,158.08,0,0,1-9.3,17.58l-.06.09-.15.26-.12.2c-.79,1.36-1.59,2.72-2.37,4.08a141.48,141.48,0,0,1-20.44-6.35,56.22,56.22,0,0,1-12.19-6.89,35.27,35.27,0,0,1-5.91-5.86,29.41,29.41,0,0,1-3.52-6,30.75,30.75,0,0,1-1.89-7.09,42.41,42.41,0,0,1-.31-5.8,1.69,1.69,0,0,0-.5-1.2,1.71,1.71,0,0,0-2.44,0,1.84,1.84,0,0,0-.5,1.22,33.18,33.18,0,0,0,1,11.86,28.77,28.77,0,0,0,4.59,9.46c.36.49.73,1,1.08,1.39a47.6,47.6,0,0,0-6.36,18.65,1.79,1.79,0,0,0,0,.23,77.29,77.29,0,0,0-7.26-5.32c-3.54-2.33-7.21-4.47-10.68-6.47a1.59,1.59,0,0,0,.77-1.08c.15-.65.29-1.29.43-1.94l.22-1v0l0-.11c.44-2,1-4.72,1.67-7.29.82-3.29,1.77-6.75,2.93-10.55a206.46,206.46,0,0,1,7.25-20.22c.62-1.45,1.26-2.93,2-4.51a1.76,1.76,0,0,0,.16-1.26,1.68,1.68,0,0,0-.28-.57,2,2,0,0,0-1-.67l-.23-.09-.33-.14-.25-.1a27.76,27.76,0,0,1-5.56-3.18,20.52,20.52,0,0,1-3.24-3.21,18.39,18.39,0,0,1-2.11-3.59,19.64,19.64,0,0,1-1.21-4.45,22.59,22.59,0,0,1,0-5.51,26,26,0,0,1,1.64-6,23.54,23.54,0,0,1,2.7-4.69,15.82,15.82,0,0,1,2.49-2.54,10.4,10.4,0,0,1,1.87-1.12,7.85,7.85,0,0,1,1.46-.41l.63,0a5.72,5.72,0,0,1,.59,0,6,6,0,0,1,1.17.32,7.62,7.62,0,0,1,1.27.76,10,10,0,0,1,1.53,1.57,17.92,17.92,0,0,1,2.13,3.78,35.33,35.33,0,0,1,1.69,5.46c-.25.41-.5.84-.76,1.28a1.82,1.82,0,0,0,.65,2.46,1.71,1.71,0,0,0,.9.24,1.69,1.69,0,0,0,1.55-.89l.67-1.29a1.59,1.59,0,0,0,.21-.27,1.63,1.63,0,0,0,.18-.46c.91-1.72,1.93-3.57,3.2-5.82l.1-.17c1.29-2.27,2.9-5.11,4.31-7.9a66.66,66.66,0,0,0,3.57-8.23,47,47,0,0,0,2.15-8.9,1.35,1.35,0,0,0-.13-.94,1.23,1.23,0,0,0-.73-.57,1.13,1.13,0,0,0-.32,0,1.15,1.15,0,0,0-.62.18,1.12,1.12,0,0,0-.57.74,37,37,0,0,1-1.09,5.09,48.78,48.78,0,0,1-1.78,4.94,98.58,98.58,0,0,1-5.73,11c-.74,1.26-1.53,2.55-2.22,3.68l-.3.49-.15.25-.06.09-.16.26-.59,1a24.52,24.52,0,0,0-1.63-4.44,17.77,17.77,0,0,0-1.63-2.8,12.61,12.61,0,0,0-2-2.22,8.63,8.63,0,0,0-2.18-1.44,8.29,8.29,0,0,0-1.28-.49,10,10,0,0,0-1.36-.25,7.41,7.41,0,0,0-.75,0A9.07,9.07,0,0,0,827,96a10,10,0,0,0-2.37.81,10.35,10.35,0,0,0-2,1.18,17.73,17.73,0,0,0-2.16,1.86,21.34,21.34,0,0,0-3.44,4.71A26.55,26.55,0,0,0,813.81,117a20.88,20.88,0,0,0,3.58,12.1,21.11,21.11,0,0,0,2.25,2.72,21.45,21.45,0,0,0,3,2.48,23.66,23.66,0,0,0,5.77,2.94A214.06,214.06,0,0,0,820.09,158c-1.22,3.53-2.4,7.28-3.61,11.46l0,.13c-1,3.41-2.22,7.64-3.19,11.81,0,.1,0,.19,0,.28l-.69-.46c-1.12-.66-2.36-1.38-3.59-2.13a1.62,1.62,0,0,0-2.22.59,1,1,0,0,0-.11.23,1.8,1.8,0,0,0-1.26.88l-1.61,2.79-.19.32-.1.17-.18.31-.07.12c-1.29,2.24-3.06,5.3-4.65,8.12a1.3,1.3,0,0,1-.08.17,2.06,2.06,0,0,0-1.89,1.54,2.23,2.23,0,0,0,1.05,2.5,37.57,37.57,0,0,0-5.34,6.41,51.41,51.41,0,0,0-5,9.74,59.89,59.89,0,0,0-3.09,10.4c-.23,1.08-.43,2.15-.58,3.16-3.7-1.07-7.39-2-11.27-2.73a136.3,136.3,0,0,0-16.66-2.24.55.55,0,0,0,0-.45,1.21,1.21,0,0,0-1.2-.88l-.29,0a26.28,26.28,0,0,0-3.6,1,18.93,18.93,0,0,0-3.38,1.63,20.6,20.6,0,0,0-5.46,5.14A27.77,27.77,0,0,0,738,234.8a41.43,41.43,0,0,0-2.21,7.84,73.26,73.26,0,0,0-1,18,102.73,102.73,0,0,0,2.59,17.85,76.51,76.51,0,0,0,2.79,9.3,45.72,45.72,0,0,0,2.49,5.68.59.59,0,0,0-.24.27,1.69,1.69,0,0,0,.61,2.32c.48.23,1,.5,1.3.7l.06,0,0,0,.08,0,.73.42c.84.46,1.69.9,2.53,1.34,1.62.85,3.32,1.7,5.2,2.59,3.75,1.78,7.73,3.5,11.84,5.1,2.11.83,4.32,1.65,6.57,2.43.58,4,1.13,8,1.75,12.58l.07-.13c1.59,12.53,3,24.84,4.23,37.64l.78,8,0,.43,0,.26c.82,8.48,1.84,19,3,29.13.16,1.38.32,2.77.5,4.15a26.28,26.28,0,0,0-9.66,5.7,31.93,31.93,0,0,0-3.86,4.16,35.31,35.31,0,0,0-3.28,5,33.06,33.06,0,0,0-2.31,5.52,27.34,27.34,0,0,0-1.1,5.77,22.27,22.27,0,0,0,.27,5.74,19.93,19.93,0,0,0,1.84,5.45,17.75,17.75,0,0,0,2.75,4A21.16,21.16,0,0,0,769.6,445a33.26,33.26,0,0,0,7.86,4.07,61.49,61.49,0,0,0,9.4,2.71c3.19.69,6.63,1.25,10.84,1.77,5.47.67,11.42,1.09,18.74,1.33-.06.75-.09,1.51-.11,2.29l0,.54v.1a1.19,1.19,0,0,0,0,.29.89.89,0,0,0,0,.22c-.26,7.11-.49,14.68-.71,23.13q-.24,9.09-.51,18.19c-.1,3.52-.22,7-.34,10.54l-.07,2c-.06,1.89-.13,3.78-.19,5.67s-.11,4.19-.16,6.91v.48c0,1.56,0,3,0,4.19-11.18,2.75-20.83,5.09-29.48,7.17-5.31,1.28-11.18,2.64-15.9,3.73l-7.94,1.86-1.22.29h-.06c-2,.48-4.38,1-6.59,1.75a2.12,2.12,0,0,0-1.53,2,2,2,0,0,0,.09.58s0,.11,0,.17c-.12,2.3-.28,4.58-.48,6.79h0a1,1,0,0,0-.45.14,24.37,24.37,0,0,0-10.81,11.91,22.72,22.72,0,0,0-1.83,7.38,15.05,15.05,0,0,0,.91,6.53,13,13,0,0,0,.71,1.54,11.67,11.67,0,0,0,1,1.49,10.2,10.2,0,0,0,2.37,2.18,10.67,10.67,0,0,0,3.11,1.44,14.38,14.38,0,0,0,3.87.55h.31a22.8,22.8,0,0,0,4.3-.47,26.49,26.49,0,0,0,5.27-1.64,18.78,18.78,0,0,0,2.29-1.14,21.25,21.25,0,0,0,2.37-1.64,17.27,17.27,0,0,0,3.41-3.67,14.43,14.43,0,0,0,2.36-5.44,14.07,14.07,0,0,0-.1-6.09,14.75,14.75,0,0,0-1.1-2.93,15.79,15.79,0,0,0-1.82-2.71A14.75,14.75,0,0,0,765,558.9a20.73,20.73,0,0,0-2.5-1.7c7.13-1.19,14.44-2.26,20.9-3.21h0l.16,0L790,553c6.12-.92,10.77-1.67,15.06-2.41,4-.71,8.34-1.5,12.62-2.5a1.74,1.74,0,0,0,1.11.78c4.29.91,8.78,2.05,14.57,3.71,2.86.82,5.15,1.5,7.22,2.14,1.59.49,3.17,1,4.75,1.5l.4.13,2.44.78,6.26,2,1,.31,7.54,2.43c2.3.73,4.72,1.47,7.2,2.21,1.17.35,2.35.68,3.62,1a38.21,38.21,0,0,0,4.07.91,2.24,2.24,0,0,0,.57.08,2.3,2.3,0,0,0,.57-.08l.26-.1,0,.12.06.14c.45,1.1.88,2.26,1.26,3.46a18.25,18.25,0,0,0-6.82,4.4,13.53,13.53,0,0,0-3.5,6.8,16.08,16.08,0,0,0,4.46,13.9,17,17,0,0,0,10.88,5.15c.5.05,1,.07,1.4.07a21.35,21.35,0,0,0,3.16-.26,20.09,20.09,0,0,0,4.61-1.31,19.39,19.39,0,0,0,4.35-2.44,19.13,19.13,0,0,0,3.41-3.29,18.14,18.14,0,0,0,4-10.62,18,18,0,0,0-.24-3.4,14.47,14.47,0,0,0-.84-3,15,15,0,0,0-3.95-5.65,17.35,17.35,0,0,0-6.05-3.42c-.31-1.12-.68-2.35-1.1-3.65-.21-.63-.42-1.26-.64-1.89a2.24,2.24,0,0,0,1.3-1,2.44,2.44,0,0,0,.24-1.85l-.24-.57a2.44,2.44,0,0,0-.86-.86,24.33,24.33,0,0,0-4.4-2.55c-1.47-.72-3.19-1.46-5.41-2.33-2.92-1.14-5.9-2.1-8.54-2.95l-2-.66-1.84-.6-.11,0c-5.74-1.87-11.68-3.81-17.39-6.1A139.77,139.77,0,0,0,878.53,544c1.35,0,2.59,0,3.69,0,4.36,0,8.82-.18,13.24-.53a135.8,135.8,0,0,0,16.56-2.3c1.31-.27,2.65-.59,4-.94l.66-.18a29.71,29.71,0,0,0-1.44,7.21,25.88,25.88,0,0,0,0,4A19.47,19.47,0,0,0,916,556a2.15,2.15,0,0,0,2,1.56h.21a1.79,1.79,0,0,0,1,.67c10.75,1.91,21.38,5.08,31.66,8.15l.1,0,.07,0,.47.14c5,1.5,10.29,3.07,15.66,4.41a160.7,160.7,0,0,0,15.86,3.19,108.44,108.44,0,0,0,15.65,1.21l1.46,0a81.56,81.56,0,0,0,8.51-.6A58.15,58.15,0,0,0,1018,573a1.86,1.86,0,0,0,1.27-2.4,32.83,32.83,0,0,0,2-4.88,22.69,22.69,0,0,0,.91-5,16.91,16.91,0,0,0-.31-4.57,16.1,16.1,0,0,0-1.41-4,17.31,17.31,0,0,0-2.39-3.53,19.16,19.16,0,0,0-2.9-2.73,28.47,28.47,0,0,0-3.88-2.56,36.36,36.36,0,0,0-4.48-2,48.61,48.61,0,0,0-9.26-2.47,70.89,70.89,0,0,0-10.27-1l-1.5,0a62,62,0,0,0-7.89.5c-1.36.19-2.59.38-3.76.61-1.51-.76-3-1.53-4.32-2.28l-.52-.29a12.8,12.8,0,0,0,2.34-.65,2.19,2.19,0,0,0,1.12-3.51l.23-.22.22-.29a2.7,2.7,0,0,0,.36-1.29c.35-2.3.54-4.69.72-6.81v-.15c0-.52.09-1,.13-1.56.25-2.9.48-5.8.71-8.7.48-6.15.88-12.16,1.21-17.88.78-14,1-25.62.56-36.62-1-28.27-6.36-50.85-16.3-69-.42-.76-.87-1.55-1.39-2.43a1.83,1.83,0,0,0-1.59-.91,1.8,1.8,0,0,0-.91.25A1.84,1.84,0,0,0,956,389a103.55,103.55,0,0,1,5.5,11.06A120.43,120.43,0,0,1,967,416.32a150.66,150.66,0,0,1,3.29,17.09c3.19,23.92,1.7,48-.25,72.55l-.11,1.38c-.29,3.65-.58,7.3-.85,10.95-.15,2-.3,3.9-.43,5.86-.06,1-.13,2-.18,3.06,0,.62,0,1.24-.06,1.87,0,.4,0,.79,0,1.17a2.36,2.36,0,0,0,.4,1.39,13.37,13.37,0,0,0-1.4.17h-.1l-.15,0-.14,0c-1,.16-2.05.33-3.08.47a72.76,72.76,0,0,1-9.39.64,57.64,57.64,0,0,1-7.34-.45,43.66,43.66,0,0,1-10.34-2.73,28.75,28.75,0,0,1-5.63-3.24,22.94,22.94,0,0,1-2.32-2.08c.48-1.34.85-2.77,1.16-4,.36-1.42.69-2.91,1-4.68.64-3.19,1.17-6.37,1.61-9.07,1-6.23,1.85-12.41,2.54-18.38a243.7,243.7,0,0,0,1.61-36.4,210.39,210.39,0,0,0-2.81-27.4,4.85,4.85,0,0,0,.87,0H935a2.54,2.54,0,0,0,1.77-4.34,2.64,2.64,0,0,0-1.79-.74c-2-.17-4.09-.25-6.43-.25-1.36,0-2.74,0-3.74.05H924c-2.6.07-5.09.18-8.33.33h-.39l-2.68.13c-4.12.19-7.62.31-11.35.31-1.44,0-2.59,0-3.52,0l0-.08-.66-1a12,12,0,0,0-.94-1.17,2,2,0,0,0-.3-1.06l-.34-.45a2.28,2.28,0,0,0-.93-.56A52.72,52.72,0,0,0,880.48,412a98.59,98.59,0,0,0-13.72-.95l-2,0a107.71,107.71,0,0,0-15.56,1.48,85.11,85.11,0,0,0-14,3.52c-1.55-.54-3.22-1.08-5-1.61-3.93-1.19-7.47-2.1-10.82-2.76a76.57,76.57,0,0,0-11.16-1.38c-.93,0-1.78-.06-2.51-.06s-1.67,0-2.64.06a55.54,55.54,0,0,0-.4-6.33v-.2c-.29-2.79-.63-5.38-1-8.22-.6-4.31-1.35-8.86-1.94-12.52l0-.17,0-.27-.46-2.86q-.49-3-1-6.08l-.13-.79c-.49-3-1-6-1.46-9-.74-4.64-1.48-9.76-2.28-15.66a305.2,305.2,0,0,1-2.82-33.75,111.72,111.72,0,0,0,11.33,2,85.5,85.5,0,0,0,10.92.74H815a58,58,0,0,0,11.5-1.28,40.63,40.63,0,0,0,9.27-3.18,1.57,1.57,0,0,0,.77.18,2,2,0,0,0,1.39-.58l.19-.25.11-.14a2,2,0,0,0,.27-1c.3-2.5.39-5.12.46-7v-.05c.09-2.54.14-5,.14-7.34,0-5.08-.19-10-.59-14.63a95.83,95.83,0,0,0-2.3-14.56,67,67,0,0,0-5-13.6c-.52-1-1.1-2.13-1.73-3.2a.78.78,0,0,0,.31-.35,1.9,1.9,0,0,0-.68-2.62l-.06,0a55.47,55.47,0,0,0-5.87-4.17c-1.93-1.23-4.06-2.46-6.49-3.77a150.58,150.58,0,0,0-14.32-6.7,156.45,156.45,0,0,0-14.9-5.3l-.18-.05-.17-.06a68.2,68.2,0,0,1,4.06-14.17,49.18,49.18,0,0,1,5.88-10.26,36.82,36.82,0,0,1,4.69-4.94,1.54,1.54,0,0,0,.17-.19c2.95.8,5.89,1.64,8.74,2.51,4.39,1.35,8.6,2.87,12.53,4.51,2,.85,4,1.77,5.87,2.73,1.22.62,2.44,1.27,3.84,2.06a28.28,28.28,0,0,0-3.87-.58H829a1.81,1.81,0,0,0-1.71,1.81,1.84,1.84,0,0,0,.52,1.27,1.93,1.93,0,0,0,1.27.53c.58.05,1.15.11,1.72.18a41.54,41.54,0,0,1,9.84,2.75,46.35,46.35,0,0,1,9.53,5.68,73.05,73.05,0,0,1,12.38,12.69A159.81,159.81,0,0,1,876,255.41c2.3,4.23,4.64,8.83,6.19,11.87l.15.28.18.37,0,.09c1.38,2.71,3.1,6.09,4.82,9.3.51,1,1.09,2,1.76,3.2.41.71.86,1.45,1.25,2.09l.11.18.1.15.19.31.29.47a2.15,2.15,0,0,0,1.54,1,1.8,1.8,0,0,0,1.13.86,1.74,1.74,0,0,0,.5.08,2.33,2.33,0,0,0,1-.27,64.08,64.08,0,0,0,11.21-6.92,96.77,96.77,0,0,0,9.83-8.72c3-3,5.83-6.12,8.9-9.52l0-.06.64-.72.15-.16.62-.69,2.93-3.24,1-1.08c.82-.9,1.56-1.71,2.3-2.55a38.6,38.6,0,0,1,3.62,2.42,35.24,35.24,0,0,1,5.78,5.8,50.45,50.45,0,0,1,4.69,7.84,2,2,0,0,0,.17.27h0a2,2,0,0,0-1.43.56c-1.36,1.3-2.5,2.39-3.63,3.55-.63.65-1.25,1.31-1.88,2l-.27.29-1.66,1.74c-2.45,2.55-5,5.12-7.65,7.63a216.05,216.05,0,0,1-16.5,14.25,179.55,179.55,0,0,1-30.42,19.15.94.94,0,0,0-.16-.53c-1.27-2.59-2.81-5.15-4.17-7.4l0-.07-.06-.09-.06-.1c-1.59-2.63-3.26-5.24-4.68-7.45-3.49-5.48-7.19-11-9.63-14.71l-.07-.11-.11-.16-.08-.12c-6.34-9.57-12.88-19.44-18.72-29.57-2.42-4.2-4.66-8.39-6.65-12.44a1.5,1.5,0,0,0-1.38-.79,1.54,1.54,0,0,0-.8.21,1.61,1.61,0,0,0-.73.95,1.7,1.7,0,0,0,.15,1.23c5.52,11.27,11.89,21.85,17.39,30.71,2.25,3.61,4.58,7.31,6.13,9.75l.65,1,3.25,5.15h0a.33.33,0,0,0-.19.06,1.27,1.27,0,0,0-.58.76l-.51,3.54-.08.52,0,.19c-.51,3.54-1.16,7.93-1.71,12.37-.72,5.85-1.23,11.32-1.54,16.74a146.78,146.78,0,0,0,1.46,33.58,51,51,0,0,0,2.22,8.83,2.7,2.7,0,0,0,.36.72c-.7,1.15-1.35,2.19-2,3.09-1,1.49-2.08,3-2.89,4.07l0,.05,0,.07,0,.05a2,2,0,0,0-.26,1,2,2,0,0,0,.56,1.37l.06,0-.81.59-.27.21-.42.33-.59.47a76.44,76.44,0,0,1-16.8,9.79A77,77,0,0,1,829,394.75a1,1,0,0,0-.13-1,25.14,25.14,0,0,1-2.29-4.12c-.26-.65-.49-1.3-.69-1.94,1.15-.12,2.33-.28,3.94-.53s4.16-.68,6.69-1.21c2.23-.47,4.46-1,6.64-1.61,2.35-.65,4.51-1.32,6.6-2.05a53.76,53.76,0,0,0,6.71-2.8,2.05,2.05,0,0,0,0-3.55,2.14,2.14,0,0,0-1.06-.29,1.5,1.5,0,0,0-.52.09c-1.43.5-2.89,1.06-4.18,1.55l-.18.07-.28.11-.05,0-.27.1-.24.09c-1.16.45-2.26.87-3.37,1.27-2.7,1-5.58,1.9-8.8,2.81a125.13,125.13,0,0,1-17.3,3.53,149.53,149.53,0,0,1-17.73,1.22,1.33,1.33,0,0,0,0,2.65c5.43-.05,10.27-.24,14.81-.57a1.17,1.17,0,0,0,0,1.17,56.3,56.3,0,0,0,4.14,6.41c-2.14.18-4.11.27-5.86.27a43,43,0,0,1-5.54-.34,37.08,37.08,0,0,1-3.86-.74,2,2,0,0,0-.38-.05,1.49,1.49,0,0,0-1.3,2.26,1.41,1.41,0,0,0,.89.68,45.74,45.74,0,0,0,11.07,1.31,63,63,0,0,0,15.22-2A77.62,77.62,0,0,0,845,392.83a80.33,80.33,0,0,0,11.66-6.53,44.72,44.72,0,0,0,5.74-4.5,1.85,1.85,0,0,0,.58-1.36v-.13a212.94,212.94,0,0,0,22,2.74c7.62.57,15.28.92,22.48,1.22,8,.33,15.23.65,22.46,1.15,3.62.24,7.38.55,11.17.91l3.37.33.14,0h.16l.16,0c2.35.23,4.79.47,7.25.65.48,0,1.06.06,1.77.08a2.34,2.34,0,0,0,.62-4.59,36.77,36.77,0,0,0-4.75-1.16c-1.84-.35-3.7-.61-5.6-.86-3.83-.5-7.73-.78-10.71-1-7-.42-14.15-.5-21.05-.58H912l-2.11,0c-13.39-.15-27.21-.3-40.67-2.08-2-.27-3.75-.55-5.49-.86,1.12-1.64,2.2-3.43,3.31-5.45a1.93,1.93,0,0,0,.2-1.39,2.47,2.47,0,0,0,.06-1.39c-.33-1.56-.69-3.09-1.07-4.66l0-.12-.05-.22c-.32-1.35-.67-2.8-1-4.2-.65-3-1.19-6.05-1.61-9.06-.18-1.35-.33-2.7-.46-4,6.83,6.41,12.66,11.77,18.35,16.87,4,3.53,7.82,7,11.81,10.31a.69.69,0,0,0,.45.19.66.66,0,0,0,.46-.19.71.71,0,0,0,.19-.49.66.66,0,0,0-.19-.43l-3.16-2.76-.38-.34c-2-1.77-4-3.53-6-5.3-3-2.66-6.18-5.53-9.47-8.53-3.75-3.41-7.52-6.89-11.52-10.63a.71.71,0,0,0-.48-.19l-.18,0c-.31-3.88-.48-7.88-.49-11.87a1.41,1.41,0,0,0,1.12.56c22,.78,45.36,2.86,71.49,6.36,30.35,4.1,60.29,9.55,88.13,14.83,6,1.13,12,2.29,18,3.44l.4.08,1.74.33.35.07q10.24,2,20.49,3.93a1.06,1.06,0,0,0-.11.58c2.45,23.11,3.73,47.78,4.06,77.67.23,22.32-.13,44.79-.48,66.52v.21l0,3,0,2.33q-.06,3.39-.11,6.8c-.13,8.93-.23,16.46-.27,24.23,0,1.53,0,3.06,0,4.58a1.2,1.2,0,0,0-.3-.15c-1.38-.46-2.84-.85-3.91-1.14l-.13,0-4.38-1.15c-2.69-.7-5.48-1.41-8.52-2.16-5.15-1.29-10.49-2.58-15.19-3.72l-.07,0-.32-.08-1.45-.35c-10.33-2.5-20.79-5-30.91-7.33l-.44-.11-.19,0-2.59-.61-6.42-1.5-.09,0-1.76-.41-.09,0-9.05-2.11a1.65,1.65,0,0,0-.38,0,1.49,1.49,0,0,0-1.46,1.09,1.51,1.51,0,0,0,.17,1.19,1.36,1.36,0,0,0,.88.66c16.83,4,33.81,8.48,50.23,12.83l.1,0,.42.11.58.16,1,.27q7.76,2.05,15.51,4.09l8.49,2.18,3.85.94.58.14.06,0c1.27.31,2.84.69,4.39,1a4,4,0,0,0,.56.05,1.86,1.86,0,0,0,.82-.18c0,1.29,0,2.6,0,3.91v1.18c0,3.07,0,7.27.27,11.11a1.9,1.9,0,0,0-.53.87,2,2,0,0,0,.2,1.53,2.15,2.15,0,0,0,1.18.9c3.25,1.32,6.45,2.52,9.51,3.55a63.83,63.83,0,0,0,9.79,2.63,3.06,3.06,0,0,0,.56.06,1.72,1.72,0,0,0,1-.26,2,2,0,0,0,.91-1.17,2,2,0,0,0-1.38-2.43c-1.82-.57-3.72-1.11-5.24-1.54s-3-.86-4.48-1.3c-3.14-1-6.18-2-9.06-3.15.23-2.78.31-5.61.39-8.34l0-.93q.12-4,.23-8V550l0-1.52c.16-5.94.32-12.32.49-19.5.34-15,.57-27.51.73-39.32.4-31.61.17-55.9-.77-78.77-.71-17.38-1.83-33.14-3.42-48.2,10.13,1.94,18.92,3.55,27.65,5.08a3.28,3.28,0,0,0,.48,0,1.62,1.62,0,0,0,.84-.22,1.74,1.74,0,0,0,.78-1,1.78,1.78,0,0,0-.23-1.41,1.47,1.47,0,0,0-1-.7l-14.76-2.86-.48-.09-.17,0c-23.51-4.56-47.83-9.28-72-13.66-26.2-4.73-47.63-8.18-67.45-10.85l-.43-.05c-28.48-3.82-53.75-6.09-77.26-6.94a1.47,1.47,0,0,0-1.16.55c.06-2.7.13-5.16.23-7.31.17-3.9.49-8.16,1-13.39s1-9.29,1.48-13.16l0-.26.2-1.43c3.56,5.86,5.42,8.95,7.09,11.81,1.23,2.08,2.41,4.14,3.53,6.1l.8,1.4.09.16,0,.07c.78,1.39,1.67,3,2.61,4.47a2.34,2.34,0,0,0,2,1.13,2,2,0,0,0,.6-.08,1,1,0,0,0,.18.52,2.15,2.15,0,0,0,.35.46c-3.74-.3-7.79-.55-12-.76h-.06a1.56,1.56,0,0,0,.06,3.12c19.17,1,39.91,3,63.42,6.12l-.13-.06c4.4.62,8.3,1.17,11.9,1.7,18.75,2.71,37.38,5.8,55.39,8.78L1019.9,343c28.05,4.57,51.64,8.1,75.58,10.47h.09a1.62,1.62,0,0,0,1.06-.48,1.62,1.62,0,0,0,0-2.3,1.76,1.76,0,0,0-1.14-.48c-7.22-.79-14.49-1.66-21.64-2.6h-.07l-2.52-.34-1.3-.17-.15,0h-.12a4.35,4.35,0,0,0-.52-.06l-.92-.13-5.61-.77c-15.1-2.1-30.28-4.5-43.14-6.57q-8.84-1.41-17.67-2.86l-.16,0c-22.4-3.65-45.57-7.42-68.48-10.45-17.16-2.26-32.7-3.89-47.5-5A187.79,187.79,0,0,0,919.37,300c5.14-4,10.32-8.44,15.37-13.17,2.38-2.22,4.77-4.58,7.13-7a75.55,75.55,0,0,0,6.58-7.59l.39-.55.28-.39a2.09,2.09,0,0,0,.3-1.1,2.25,2.25,0,0,0-.51-1.42.13.13,0,0,0,.1,0,1.24,1.24,0,0,0,.31-.05,2.08,2.08,0,0,0,1.24-.95,2,2,0,0,0,.21-1.6l0-.09,0-.07-.09-.23h0a1.52,1.52,0,0,0,1.16-.5,53.64,53.64,0,0,0,6.22-9.51,51.25,51.25,0,0,0,4-10.72A52.39,52.39,0,0,0,963.47,234a51.06,51.06,0,0,0-.19-5.69,38.52,38.52,0,0,0-1-5.86,1.57,1.57,0,0,0-.42-.71c5.6.2,11.22.36,16.84.53l6,.18.67,0,4.24.13,4.54.14q0,3.27.05,6.54v.31a80.37,80.37,0,0,0,.44,8.75l0,.14,0,.15c-3.88,1.26-7.79,2.57-11.14,3.69-2,.69-4.12,1.41-6.15,2.14-1,.37-2,.76-3,1.15l-.19.08a18.5,18.5,0,0,0-2.9,1.33,2,2,0,0,0-1,2,3.27,3.27,0,0,0-.06.42c-.08,1.75-.1,3.17-.08,4.47a2,2,0,0,0,.2.87,1.58,1.58,0,0,0-.13.63,1.72,1.72,0,0,0,.51,1.23,1.82,1.82,0,0,0,1.22.51c8.65.63,17.61.94,26.65.94,1.88,0,3.8,0,5.71,0a325.56,325.56,0,0,0,32.56-2l3.11-.38.41-.06a1.65,1.65,0,0,0,.81-.45,1.75,1.75,0,0,0,.51-1.22,1.31,1.31,0,0,0,1.07.52,1.44,1.44,0,0,0,1-.44,1.31,1.31,0,0,0,.38-.95c0-1.27-.15-2.38-.29-3.39a.76.76,0,0,0,.18-.09,2,2,0,0,0-.48-3.7c-2-.55-4.08-1-6.08-1.37l-1-.21-5.65-1.13-1.48-.3c-4.69-.93-9.47-1.83-14.1-2.7l-.55-.11-.42-.05c0-2.05,0-4.09-.1-5.64-.06-2.19-.16-4.41-.26-6.57-.07-1.5-.14-3-.2-4.52,6.37.18,11.91.32,17,.43,9.75.21,18.45.36,26.6.44,2.91,0,5.41,0,7.64,0,1.82,0,3.64,0,5.45,0,2.72,0,4.85-.08,6.72-.16,1,0,2-.12,3.18-.22l.24,0h.12c.6-.06,1.21-.11,1.81-.2a.94.94,0,0,0,.59.4c.49.09,1,.17,1.48.23.16,2.4.42,4.78.75,7.09a1.34,1.34,0,0,0,.66.86,1.4,1.4,0,0,0,.73.21,1.32,1.32,0,0,0,.39-.06,1.49,1.49,0,0,0,.73-.48.75.75,0,0,0,.26,0,1.22,1.22,0,0,0,.86-.36,1.17,1.17,0,0,0,.34-.84v-.16c0-2.2,0-4.37,0-6.55a203.41,203.41,0,0,0,28,3.08c8.13.41,16.38.59,24.37.76l7.21.17,7.49.17h.76c1.48,0,3,.06,4.52.06.71,0,1.42,0,2.12,0a1.72,1.72,0,0,0,1.58-1.07c0,1.1,0,2.2.06,3.3l0,.48V231l0,.63a1.57,1.57,0,0,0,2.71,1.1,1.53,1.53,0,0,0,.45-1.1c0-1.71-.1-3.42-.15-4.71.49,0,1,0,1.51,0,1.93,0,4-.05,6.14-.13,3.67-.16,7.55-.47,12.59-1,4.38-.47,8.68-1.06,12.71-1.62,3.72-.52,8-1.14,12.36-1.85l.71-.12a14.55,14.55,0,0,0-1.9,7.79,1.49,1.49,0,0,0,.14.57.94.94,0,0,0-.76-.36h0a89.93,89.93,0,0,0-9.24,1.12c-3.23.54-6.36,1.17-9,1.71l-1.47.3-1.15.24c-4.71,1-10,2.09-15.2,2.8-1,.14-2,.25-2.9.35a1.21,1.21,0,0,0-.61-.83,1.35,1.35,0,0,0-.71-.19,1.44,1.44,0,0,0-.82.25,1.78,1.78,0,0,0-1.2-.52c-.68,0-1.38-.07-2.07-.11l-1.46-.09-3.88-.21c-2.47-.14-4.95-.3-7.58-.48-4.11-.28-8.45-.63-11.93-.92l-3.56-.29-1-.07h-.24c-9.84-.79-20-1.6-30-1.6h-.12a122.06,122.06,0,0,0-23,2l.16-.61.08-.41A1.33,1.33,0,0,0,1084,231a1.26,1.26,0,0,0-.33,0,1.31,1.31,0,0,0-1.29,1c-.17.77-.33,1.54-.46,2.3a3.83,3.83,0,0,0-.42.08,1.65,1.65,0,0,0-1.21,1.44,1.28,1.28,0,0,0-.45,1c.06,2.54.18,5.55.5,8.6a1.58,1.58,0,0,0,.42,1,1.5,1.5,0,0,0,1,.43h.07v.06a.93.93,0,0,0-.49.15,1.47,1.47,0,0,0-.68.88,1.49,1.49,0,0,0,.15,1.13,1.47,1.47,0,0,0,.88.69,24.07,24.07,0,0,0,3.92.34,48.68,48.68,0,0,0,.68,13.72,1.39,1.39,0,0,0,.62.87,29.78,29.78,0,0,0-1,7.14,39.59,39.59,0,0,0,.91,9.17,1.78,1.78,0,0,0-.6,1.33,1.84,1.84,0,0,0,1.79,1.81c12.33.72,24.24,1.65,35.4,2.77,5.21.51,11,1.17,17.6,2l3,.37,5,.64.81.1,1.27.16.2,0,.18,0c1.53.2,3.44.44,5.23.63a15.69,15.69,0,0,0-1.09,1.84,17.66,17.66,0,0,0-1.67,5,16.34,16.34,0,0,0,0,5.36,11,11,0,0,0,.23,1.23c-3.12-.57-6.38-1-9.46-1.4-3.84-.49-7.65-.94-11.23-1.36-6.89-.8-14.89-1.74-22.76-2.8l.2.07c-6.89-1-11.91-1.74-16.28-2.48a3.51,3.51,0,0,0-.41,0,1.26,1.26,0,0,0-.69.19,1.43,1.43,0,0,0-.51,1.95,1.39,1.39,0,0,0,.85.66c11.76,2,21.46,3.63,30.53,5,5.63.87,10.69,1.62,15.46,2.3l.74.1.09,0h.11c4.85.68,9.86,1.39,14.8,1.76h.14a1.7,1.7,0,0,0,.6.56,25.41,25.41,0,0,0-.18,4.79,30.83,30.83,0,0,0,.38,3.42,1.68,1.68,0,0,0-.66.5c-1.4-.39-2.84-.67-4.06-.89-2.16-.39-4.35-.68-6.21-.91-1.28-.15-2.49-.29-3.7-.41l0,0a1.23,1.23,0,0,0-.13-1,1.13,1.13,0,0,0-.73-.56c-4.62-1.12-9.49-2.1-14.49-2.93s-10-1.39-14.73-1.69h-.06a1,1,0,0,0,.06,2.05c2.73.19,5.55.48,8.4.86,3.28.45,6.65,1,10,1.72,1.35.28,2.8.6,4.43,1l-1.08-.08-8.52-.61-3.49-.25c-4.22-.3-8.32-.72-12.21-1.24a116,116,0,0,1-17.29-3.56,1.29,1.29,0,0,0-.43-.07,1.62,1.62,0,0,0-.43,3.17,124.82,124.82,0,0,0,14,3.33c4.7.83,9.48,1.43,14.37,2,3.19.38,6.43.71,9.55,1l.28,0,.32,0,4.19.44c5.38.56,9.74,1.07,13.74,1.61h.17l.38.05.31,0,.36.05,0,0,.06,0,.62.09.48.06.33,0,1.24.17.23,0,.13,0c1.62.22,3.43.47,5.18.6h.1a1.8,1.8,0,0,0,1.46-.87.15.15,0,0,0,.1,0,1.41,1.41,0,0,0,.45-.07,1.37,1.37,0,0,0,.38-.15c10.87-2.32,21.12-6.62,28.84-10.11,4.51-2,9.32-4.37,15.14-7.33,2.4-1.21,4.78-2.46,7.09-3.71,2.09-1.13,4.56-2.49,7-4.06a2.13,2.13,0,0,0,1-2.37,2.1,2.1,0,0,0-1-1.26l-.17-.08a1.73,1.73,0,0,0-.2-.62c-.18-.31-.33-.62-.48-.93a9.92,9.92,0,0,1-.52-1.9,8.82,8.82,0,0,1,0-1.78,11.07,11.07,0,0,1,.66-2.28l0-.09a1.83,1.83,0,0,0,.19-1.32,1.72,1.72,0,0,0-.76-1,1.64,1.64,0,0,0-.82-.23,1.79,1.79,0,0,0-1.46.82,9.32,9.32,0,0,0-1.44,4.81,1.34,1.34,0,0,0-1.19-.69,1.64,1.64,0,0,0-.37,0c-2,.54-4,1.25-5.75,1.88s-3.47,1.29-5.62,2.13c-3.29,1.3-6.83,2.78-11.12,4.65-3.92,1.72-8,3.58-11,4.94l-.16.07-.3.14c-3.19,1.44-6.81,3.08-10.34,4.62-1.31.58-2.63,1.14-3.95,1.71l-2.86,1.18-.18.08a1.31,1.31,0,0,0-.21-.76,1.74,1.74,0,0,0-.46-.52,2.34,2.34,0,0,0-.19-.5c-.31-.58-.56-1.09-.77-1.57a16,16,0,0,1-.94-3.36,14.24,14.24,0,0,1,0-3.13,16.73,16.73,0,0,1,1-3.53,19.59,19.59,0,0,1,2.16-3.66l.39-.49a2,2,0,0,0,.4-.67c3.74-.76,8.69-1.77,13.77-2.93,4.92-1.12,10-2.35,15.08-3.68,4.81-1.26,9.74-2.61,14.65-4,2.33-.67,4.7-1.38,7.26-2.17s5-1.55,7.47-2.57l.24-.1.24-.1a2.07,2.07,0,0,0,.72-.72l.06-.11.06.07a1,1,0,0,0,.77.33,1.07,1.07,0,0,0,.75-.32,1.09,1.09,0,0,0,.32-.76,1.16,1.16,0,0,0-.32-.76l-.12-.15a10.72,10.72,0,0,1-1.23-2.09,10.16,10.16,0,0,1-.61-2.29,11.6,11.6,0,0,1,0-2.29.91.91,0,0,0-.25-.69,1.13,1.13,0,0,0-.8-.37,1.1,1.1,0,0,0-.75.31,1.21,1.21,0,0,0-.3.75,10.32,10.32,0,0,0,.37,4.31,9.55,9.55,0,0,0,.38,1.07.22.22,0,0,0-.11,0,1.35,1.35,0,0,0-.44.07c-2.17.62-4.36,1.39-6.28,2.06l-.91.32c-2.51.87-4.93,1.69-7.19,2.43-4.86,1.6-9.85,3.14-14.84,4.56-4.77,1.35-9.71,2.66-14.67,3.9-5.54,1.38-10.33,2.48-14.64,3.38a1.79,1.79,0,0,0-.6-.26c-.52-.11-1-.21-1.57-.3l-.21-.47a17.52,17.52,0,0,1-1.09-3.94,18.92,18.92,0,0,1,0-4.32,25.84,25.84,0,0,1,1.72-6.08c.17-.4.37-.84.65-1.41,9-2.39,18.3-4,27-5.39l7.06-1.13.33-.06,6.73-1.08h.08c4.32-.7,9.22-1.5,14-2.52,1-.21,2-.45,3.07-.72a1.79,1.79,0,0,0,1.08-.83,1.81,1.81,0,0,0-.64-2.51,2,2,0,0,0-.51-.2,18.24,18.24,0,0,1-.57-2.41,12.58,12.58,0,0,1,0-2.81,12.13,12.13,0,0,1,.69-2.51,12.88,12.88,0,0,1,1.45-2.47,16.09,16.09,0,0,1,2.33-2.34,1.17,1.17,0,0,0,.36-.86,1.24,1.24,0,0,0-.16-.59h.13a1.22,1.22,0,0,0,.74-.57,1.23,1.23,0,0,0,.13-1,1.22,1.22,0,0,0-.58-.74,11,11,0,0,1-1.78-1,9.26,9.26,0,0,1-1.09-1.08,8.42,8.42,0,0,1-.74-1.27,7.81,7.81,0,0,1-.4-1.51,10.44,10.44,0,0,1,0-2.23,1.16,1.16,0,0,0-.18-.63,1.22,1.22,0,0,0-.75-.58,1,1,0,0,0-.33,0,1.27,1.27,0,0,0-.63.17,1.21,1.21,0,0,0-.58.76,11.87,11.87,0,0,0-.18,1.56,8.83,8.83,0,0,0,1,4.19,8,8,0,0,0,1.8,2.19,10.15,10.15,0,0,0,.87.69.83.83,0,0,0-.44-.12h-.1c-2.53.34-5.12.88-7.4,1.35l-.44.09q-3.84.81-7.7,1.57c-5.13,1-10.32,1.9-15.43,2.59a197.19,197.19,0,0,1-22.37,1.79,1.13,1.13,0,0,0-.78.31,1.14,1.14,0,0,0-.29-1.17l-.06-.06v-.08c1.12.12,2.36.19,3.7.23a.94.94,0,1,0,0-1.87c-2.5-.09-4.92-.29-7.17-.59-.51-.07-1-.14-1.59-.23l-.26,0a.87.87,0,0,0-.45.12c-3.4-.51-7.07-.87-11.22-1.11-3.45-.19-7-.29-11-.29-1.48,0-3,0-4.84,0-7.68.14-15.4.55-22.86,1l-1,0c-2.62.14-5.25.28-7.87.4-4.45.21-7.81.34-10.9.4a1.54,1.54,0,0,0-1.51,1.52,1.27,1.27,0,0,0,0,.28.33.33,0,0,0-.14.09h-1.14c-.22-2.42-.54-4.88-.86-7.26v-.11l0-.26,0-.27-.13-1-.13-1v-.09c1.89-.37,3.78-.68,5.61-.93a126.31,126.31,0,0,1,16.46-1c4.15,0,8.63.16,13.7.48,6.14.37,12.23.95,18.13,1.51h.07l.21,0c3.73.35,8.38.79,12.84,1.14,3.34.26,6.34.44,9.15.56,1.35.05,2.82.08,4.5.1h.32c1.2,0,2.41,0,3.58-.09h.58a11.38,11.38,0,0,0-.53,2.05,12.7,12.7,0,0,0,.2,5.15,1.47,1.47,0,0,0,1.43,1.08,1.65,1.65,0,0,0,.38,0,1.51,1.51,0,0,0,1-1.81c-.08-.35-.14-.7-.2-1.05a12.78,12.78,0,0,1,0-2.9,13,13,0,0,1,.73-2.65l0-.07c5.46-.49,10.92-1.45,16-2.41l2.58-.49h.1c4.27-.82,8.69-1.66,13.11-2.26,2.83-.38,5.59-.63,7.67-.8a1.29,1.29,0,0,0,.87-.36,1.25,1.25,0,0,0,.36-.88,1.27,1.27,0,0,0-.12-.52,1,1,0,0,0,.87.4,1.35,1.35,0,0,0,1-.44,1.16,1.16,0,0,0,.34-.88,15,15,0,0,1,.07-2.6,13.67,13.67,0,0,1,.81-3,15.12,15.12,0,0,1,1.73-2.93,1.18,1.18,0,0,0,.13-.95,1.23,1.23,0,0,0-1.18-.89h-.19a1.27,1.27,0,0,0-.51-.49l-.37-.16a1.5,1.5,0,0,0-.84,0c-2.78.4-5.56.89-8.25,1.36l-.29,0-.12,0-3.57.62c-4.44.76-8.43,1.37-12.18,1.88-4.58.62-9.07,1.08-13.34,1.37-3.17.22-6.06.32-8.85.32h-.28a.22.22,0,0,0-.08-.09,1.39,1.39,0,0,0,.78-1.65c-.19-.78-.34-1.59-.46-2.41a28.18,28.18,0,0,1-.08-6.23c2.11,0,4.22-.1,6.18-.16,6.37-.2,13.2-.43,20-.75l-.16,0c-3.68.71-6.77,1.27-9.89,1.69a66.27,66.27,0,0,1-8.65.61c-1.28,0-2.53-.05-3.72-.14h-.08a1.21,1.21,0,0,0-.88.42,1.38,1.38,0,0,0-.36.91,1.33,1.33,0,0,0,.39.94,1.35,1.35,0,0,0,.93.39c1.2.09,2.44.13,3.69.13a77.51,77.51,0,0,0,12.77-1.22c2.65-.45,5.35-1,8.1-1.56l.75-.16c2.43-.5,4.86-1,7.29-1.48a1.18,1.18,0,0,0,.86-1.2c2.27-.13,4.33-.29,6.29-.48a2.05,2.05,0,0,0,1.3-.54,1.87,1.87,0,0,0,.53-1.3v-.08h.08l.33,0L1214,212l.12,1.39c.06.76.13,1.51.19,2.27a1.78,1.78,0,0,0,.49,1.18,1.67,1.67,0,0,0,1.17.48,1.73,1.73,0,0,0,1.24-.55,1.5,1.5,0,0,0,.43-1.11c-.12-2-.3-4-.47-5.69.71-.05,1.51-.14,2.45-.26l1.64-.22a1.34,1.34,0,0,0,1-1.26,1.55,1.55,0,0,0,0-.29,1.34,1.34,0,0,0,.58-1.12c0-2.7-.23-5.45-.43-8a1.48,1.48,0,0,0-.41-1,1.44,1.44,0,0,0-1-.4,1.5,1.5,0,0,0-1,.47,1.18,1.18,0,0,0-.34.92c.19,2.59.27,5.28.34,7.65l0,.36a2,2,0,0,0,0,.25c-3.82.45-7,.79-9.86,1-3.76.33-7.56.53-10.83.69l-5.79.28h-.34c-5.08.23-10.34.47-15.56.92l-.65,0-.65.06a1,1,0,0,0-.47.14l-.41,0-.24,0c-6.79.41-14.5.89-22,1.25-17.33.85-33.25,1.27-48.69,1.27-3.33,0-6.62,0-9.79-.06l-3.77-.06c.14-2,.27-3.73.42-5.58a2,2,0,0,0,.92-.53,2.31,2.31,0,0,0,.65-1.4c3.14.06,6.58.08,10.21.08,6.47,0,13.34-.07,20.42-.22,11.68-.25,23.63-.71,33.79-1.13q6.09-.24,12.18-.52c-.06.77-.11,1.67-.16,2.83a1.23,1.23,0,0,0,.34.87,1.28,1.28,0,0,0,2.23-.87c0-1,.09-2,.14-3,1.54-.05,3.1-.12,4.66-.2a1.25,1.25,0,0,0,.16,1.05,1.15,1.15,0,0,0,.75.55,77.24,77.24,0,0,0,14.86,1.4h1.63c2.61-.05,5.29-.23,8.2-.53s5.78-.74,8.49-1.26a1.07,1.07,0,0,0,.68-.5,1.22,1.22,0,0,0,.16-1,1.19,1.19,0,0,0-.55-.71,1.13,1.13,0,0,0-.57-.15l-.35,0h-.12l-.29,0-.22,0-.24,0-.4.06-.23,0-.27,0a127.67,127.67,0,0,1-13.09,1.19c-.89,0-1.86.05-2.88.05a77.82,77.82,0,0,1-10-.63l-.14,0-.14,0c1.68,0,3.4-.12,4.92-.2,4.4-.23,9.11-.48,14.83-.8l7.4-.43.4,0h.26c2.22-.14,4.7-.29,7.07-.5a1.69,1.69,0,0,0,1.09-.45,1.54,1.54,0,0,0-1.09-2.63h-.16c-2.49,0-5.1.08-7.41.16h-.36l-.47,0c-2.59.09-5.26.19-8.42.33-5.73.26-11.49.55-16.86.84l-11,.61c-7.43.41-15.1.83-22.77,1.2-18.37.87-33.65,1.27-48.07,1.27-4,0-7.89,0-11.62-.09a1.36,1.36,0,0,0-.29,0c0-.24,0-.49,0-.74,0-1.45,0-2.9,0-4.36,3.32.33,6.8.56,10.31.69,2.15.08,4.38.12,6.64.12s4.72,0,7.41-.13c4.4-.14,9-.4,14.06-.79,4.84-.38,9.63-.87,13.85-1.31l.22,0c4.36-.45,8.4-.92,14.07-1.59,4.55-.54,9.15-1.06,14.05-1.58l3.26-.35.3,0c3.57-.39,7-.77,10.49-1.1,4.76-.48,9.47-.9,14-1.25,4.73-.37,9-.67,13.09-.92a61.05,61.05,0,0,1,1.45,6.16,1.67,1.67,0,0,0,.81,1,1.69,1.69,0,0,0,.88.24,1.73,1.73,0,0,0,1.52-.87,1.88,1.88,0,0,0,.18-1.35c-.15-.77-.33-1.56-.52-2.34a1.08,1.08,0,0,0,.67-.37c2-2.2,3.85-4.53,5.51-6.59l.1-.12.25-.3a1.63,1.63,0,0,0,.44-1.06,1.5,1.5,0,0,0-1.5-1.5,1.45,1.45,0,0,0-1.06.44l-1,1.17c-1.49-.19-2.95-.29-5-.41s-4-.17-6.39-.21c-1.24,0-2.47,0-3.71,0-2.85,0-5.92,0-9.13.16-4.21.14-8.56.36-12.92.65-4.15.29-8.36.65-12.07,1l-.3,0-.6,0-18.37,1.64-.88.08-1.08.1-5.68.51c-8.26.75-17.12,1.53-26,2.12-6.9.47-13.06.77-18.86.93a25.5,25.5,0,0,0,4.25-4.95,32.72,32.72,0,0,0,2.81-5,2.18,2.18,0,0,0,.54-.86,21.41,21.41,0,0,0,.81-3.72c.18-1.17.33-2.43.49-4.11.23-2.38.41-4.87.57-8.08.24-4.59.4-9.74.51-15.74s.14-11,.13-15.76-.12-9.67-.33-15.84a1.76,1.76,0,0,0-1.13-1.61,1.58,1.58,0,0,0-.11-2.16,37.63,37.63,0,0,0-5.83-4.19,1.55,1.55,0,0,0-.84-.24,1.79,1.79,0,0,0-1.25.52c0-1.06,0-2.14-.07-3.1-.13-3.46-.31-7.24-.55-11.21a1.93,1.93,0,0,0-1.45-1.82,1.79,1.79,0,0,0-.25-.33,2,2,0,0,0-1.28-.53c-12.78-1.51-26.17-2.57-39.81-3.15-9.34-.39-18.92-.58-29.28-.58-2.82,0-6.16,0-9.91,0-19.12.21-38.44,1-57.12,1.75h-.37q-7.73.31-15.44.61a2.13,2.13,0,0,0-.56.1c-.68-1.26-1.5-2.59-2.49-4.07A66.53,66.53,0,0,0,934,78a76.48,76.48,0,0,0-13.42-11.47,46.63,46.63,0,0,0,7.06-3,61.14,61.14,0,0,0,8.12-5.05,70.88,70.88,0,0,0,7.54-6.34c1.07-1,2.14-2.16,3.29-3.44.48-.53,1-1.1,1.55-1.8s1.11-1.35,1.62-2.11a2.3,2.3,0,0,0-.35-2.78,2.33,2.33,0,0,0-1.64-.67,2.24,2.24,0,0,0-1.14.31,32.51,32.51,0,0,1-3.89,1.91A52.81,52.81,0,0,1,930.09,47a44.43,44.43,0,0,1-5.51.35,39.42,39.42,0,0,1-5-.31,34.4,34.4,0,0,1-6-1.41c1.17-1.12,2.38-2.39,3.59-3.79A56.49,56.49,0,0,0,923,34.06a36.32,36.32,0,0,0,3.73-8.27,27.17,27.17,0,0,0,.87-4.51,17.87,17.87,0,0,0,0-4.2,2.09,2.09,0,0,0-1-1.79,2.08,2.08,0,0,0-1-.29m19.82,95.89v-.26c.35-2.51.75-5.07,1.21-7.61,22.12-.61,47.78-1.27,72.25-1.27h1.71c9.92,0,20.32.15,30.92.43,4.31.11,9.12.25,15.59.47l4.71.16h.45c3.39.12,6.9.25,10.37.3h.06a330.3,330.3,0,0,1,2.23,39c0,13.35-.65,26.87-1.32,39.94v.42c-.15,2.95-.27,5.41-.36,7.74a1.41,1.41,0,0,0-.41.46l-.17.39a1.72,1.72,0,0,0,0,.9l0,.13,0,.14a64.79,64.79,0,0,1,.53,7.74c0,1.22,0,2.56-.1,4.08,0,.46,0,.92-.08,1.38l0,.7s0,0-.07,0c-2.64,0-5.31.07-7.9.12h-.39l-2,0-2.79.06-2.81.05h-.12l-4.54.09c-8,.16-14.32.27-20.46.35-12.11.17-25.46.25-40.82.26h-3.52c-9.17,0-18.13,0-27.4,0l.18-.2.33-.44.23-.32q1.59-2.14,3.18-4.32l.26-.35c1.14-1.54,2.42-3.28,3.57-5a1.53,1.53,0,0,0-.24-1.85l-.06-.06c-.83-4.71-2-9.77-3.58-15.9a1.51,1.51,0,0,0-1-1,1.21,1.21,0,0,0-.08-1.23,34.86,34.86,0,0,0-6.28-7.33,32.84,32.84,0,0,0-7.61-5,40.92,40.92,0,0,0-16.24-3.83,12,12,0,0,0,.11-1.22c.06-1,.08-1.94.1-3.3,0-1.6,0-3.2,0-4.8v-1.73c0-4.1.09-8.51.24-12.94.31-9.07,1-17.36,2-25.33Zm269.49,77.49c-.22-.75-.5-1.6-.83-2.55a2.12,2.12,0,0,0,.45,0h2.55l-.58.62-1.55,1.84Zm-110.83,6.72c-2.71,0-5.32,0-7.74-.16l-.13-.3c-.18-.43-.37-.85-.55-1.28a.87.87,0,0,0,.3-.22,1.89,1.89,0,0,0,.51-1.07c16.65-.32,33.66-1.74,48.66-3h.06l2.35-.2c7.75-.65,15.76-1.32,23.7-1.8,4.39-.27,8.71-.46,12.35-.62-4.33.45-9.08,1.05-14.11,1.79l-6.55,1-7.44,1.12c-4.63.67-9,1.29-13.32,1.88H1142l-.24,0c-10.28,1.36-19.37,2.22-27.81,2.6-3.39.16-6.75.24-10,.24m11.58,20h.21c8.66,0,18-.11,29.25-.35,7.39-.16,14-.32,20.35-.49a27.24,27.24,0,0,0-.16,3.72,31.2,31.2,0,0,0,.68,5.59,1.22,1.22,0,0,0,.32.6,1.33,1.33,0,0,0-.57.36h-.1l-1.79-.07a1.13,1.13,0,0,0-.6.17c-2.41-.29-4.85-.43-7.13-.53-2.44-.1-5-.16-7.8-.2-3.73,0-7.56-.05-11.27-.05h-4.51c-9.39,0-20.47-.21-31.41-1.33-1.66-.17-3.41-.38-5.2-.62-2.49-.33-4.74-.69-6.88-1.09a1.15,1.15,0,0,0-.88-.41,1.18,1.18,0,0,0-.55.14l-.18,0-.2,0a2.48,2.48,0,0,0-.42-.05,1.47,1.47,0,0,0-.74.2,1.65,1.65,0,0,0-.41.34,1.47,1.47,0,0,0-.77.42s0-.09,0-.16v-.14h.06a.28.28,0,0,0,.13,0,1.16,1.16,0,0,0,.71-.55,1.26,1.26,0,0,0,.13-.92l-.09-.59c-.1-.85-.18-1.69-.24-2.5l2.65,0h.86a1.5,1.5,0,0,0,1.48-1.48,1,1,0,0,0,0-.17c8.23.22,16.68.33,25.13.33m-169.33,23.5h0a1.32,1.32,0,0,0,.39-.06,1.55,1.55,0,0,0,.91-.7c3.89-5.4,8-11,11.88-16.28a1.36,1.36,0,0,0,.43.1s-.11.05-.17.11a1.36,1.36,0,0,0-.39,1l.07,1V224c.15,2.11.32,4.5.34,6.88a60.6,60.6,0,0,1-.49,7.95,53.28,53.28,0,0,1-3.43,12.73,48.63,48.63,0,0,1-6,10.28l-.65.81-.05.07a17.06,17.06,0,0,0-1.33-2.31,40,40,0,0,0-4.25-5.33,35,35,0,0,0-8.94-6.81,58.29,58.29,0,0,1,.4-10.85,39.44,39.44,0,0,1,2.53-10.1,13,13,0,0,1,1.48-2.68,5.15,5.15,0,0,1,.61-.62l.23-.15.05,0,.21.23a7,7,0,0,1,.61,1.11,19,19,0,0,1,.85,2.82c.29,1.21.52,2.49.75,4.15.25,2,.45,4.09.62,6.63a1.77,1.77,0,0,0,.47,1.17,1.66,1.66,0,0,0,2.39-.06,1.5,1.5,0,0,0,.43-1.11v-.22l0,0m273.25,2.88a2.11,2.11,0,0,0-.26-.35l0,0a3.32,3.32,0,0,0,.49.31h0a.4.4,0,0,0-.18.07m-54.73,8.91h0c4.3-.06,8.83-.26,13.45-.58,4-.28,8.32-.71,13.5-1.36,4.89-.62,9.33-1.26,13.59-2,2.56-.43,4.74-.82,6.67-1.2,1.69-.33,3.21-.64,4.77-1a2.61,2.61,0,0,0-.42.49,13.27,13.27,0,0,0-1.92,3.73,12.59,12.59,0,0,0-.62,4.12,13.71,13.71,0,0,0,.57,3.75l-2.59.58-.17,0-.22.05c-3,.7-6.09,1.41-9.13,2-4.21.87-8.48,1.64-12.6,2.39l-1.43.25c-10,1.81-19,3.5-27.81,5.83l.19-.26c.23-.36.47-.72.71-1.08a1.07,1.07,0,0,0,.14-.84,1.29,1.29,0,0,0-.56-.8,1.27,1.27,0,0,0-.59-.16l-.19,0a1.8,1.8,0,0,0-.54-1.33,1.89,1.89,0,0,0-1.15-.54,19.43,19.43,0,0,1,.07-3.82,17.37,17.37,0,0,1,1.1-4,18.37,18.37,0,0,1,2.07-3.55,21.33,21.33,0,0,1,2-2.19.43.43,0,0,0-.07.28,1.17,1.17,0,0,0,1.15,1.16M1089,261.5l0-.36,0-.2a47.28,47.28,0,0,1-.36-6,49,49,0,0,1,.32-5.23,7.68,7.68,0,0,0,1-.18,1.39,1.39,0,0,0,1-1.39c4.76-.1,9.62-.3,14.33-.49h.22l.49,0,.47,0c4-.17,8.72-.37,13.25-.5,4-.12,7.54-.18,11-.18,7.62,0,14.4.3,20.73.9,2.86.27,5.7.62,9.1,1.06a18,18,0,0,0-1.65,2.05,19.06,19.06,0,0,0-2.22,4.37,17.52,17.52,0,0,0-1,7c-5.19-.44-10.26-.69-14.54-.88q-3.21-.13-6.43-.24a.44.44,0,0,0,.06-.25,1.2,1.2,0,0,0-1.2-1.2c-3.37-.28-7-.41-11.15-.41l-3.5,0c-4.31.07-9,.29-14.65.69a1.17,1.17,0,0,0-.74.31,1,1,0,0,0-.3.65c-4.38.1-8.94.29-13.54.56a1.56,1.56,0,0,0-.46-.07Zm65.09,24.5-3.68-.51-.11,0c-2.82-.38-5.79-.74-8.81-1.06-6-.64-12-1.15-17.6-1.61-11.86-.95-23.66-1.66-33.65-2.23a1.56,1.56,0,0,0,0-.56c-.18-.83-.33-1.68-.45-2.52a37.15,37.15,0,0,1-.26-4.8,38,38,0,0,1,.36-4.65c.12-.9.29-1.89.5-3,6.62-.35,13.6-.53,20.76-.53,4.12,0,8.31.06,12.44.17,5.11.13,10.7.38,17.07.74l5.89.35.32,0,.38,0h.09c3.56.21,7.23.43,10.84.59h.18a20.33,20.33,0,0,0-1.22,2,1.12,1.12,0,0,0-.69.54,1.09,1.09,0,0,0-.11.88s0,.06,0,.09c-.09.18-.19.38-.28.58a28.38,28.38,0,0,0-2,5.92,21.66,21.66,0,0,0-.47,6.13,18.91,18.91,0,0,0,.49,3.17c0,.08,0,.17.06.26m6.31,24.14a.65.65,0,0,0,.29-.06c5.77-2.34,11.53-4.88,17.09-7.34l.09,0,.08,0,.42-.18c3.71-1.64,7.92-3.5,12-5.22,3.81-1.61,7.3-3,10.66-4.25,1.67-.62,3.45-1.24,5.43-1.91l1.76-.58.43-.14c1.08-.35,2.22-.72,3.32-1.11a1.47,1.47,0,0,0,.85-.65l0-.09a10.5,10.5,0,0,0,1.26,3.9c-2.43,1.08-4.81,2.3-6.81,3.36l-2.84,1.49-.46.25-1,.53-4.86,2.56c-7.12,3.71-13.15,6.6-19,9.08a122.54,122.54,0,0,1-19.16,6.47l0-.36,0-.22a31.84,31.84,0,0,1-.17-5.66,1.15,1.15,0,0,0,.63.21M785.62,332.65a1,1,0,0,0,.71-.29,1,1,0,0,0,0-1.42,128.44,128.44,0,0,1-9.83-11.21l-.18-1.18L776,316.1q-.47-3.11-1-6.21c.73.3,1.66.6,3.08,1,1.7,2,3.47,4.05,5.27,6s3.39,3.62,4.95,5.17c.05,1.29.12,2.79.21,4.45-.78-1.15-1.59-2.21-2.72-3.69-.66-.86-1.32-1.71-2-2.57-2-2.67-4-5.22-5.72-7.59a1.2,1.2,0,0,0-.69-.52.86.86,0,0,0-.3-.05,1.21,1.21,0,0,0-.59.16,1.15,1.15,0,0,0-.53.69,1.11,1.11,0,0,0,.12.9c1.91,2.56,3.86,5.13,5.79,7.63,1.78,2.31,3.87,5,6,7.6a1,1,0,0,0,.72.3c.35,5.5.81,11.12,1.4,17.18s1.34,12.31,2.12,18.65,1.63,12.81,2.51,19.31v-.69l.12,1.5.09.71,0,.32,0,.27,0,.14c.52,3.86,1.11,8.24,1.75,12.47.34,2.27.66,4.28,1,6.33l0,.07c.22,1.34.4,2.32.59,3.26,0,0-.07,0-.11,0a2.08,2.08,0,0,0-.4.05c-.94.23-1.88.41-2.79.54a25.28,25.28,0,0,1-3,.18,22.6,22.6,0,0,1-2.78-.16c-.67-.09-1.38-.23-2.11-.4,0,0,0-.09,0-.22-.14-2.9-.44-5.82-.73-8.65v-.13l-.08-.74c-.3-2.95-.62-5.85-1-8.8l-.08-.67c-.71-6.34-1.44-12.71-2.18-19-.64-5.41-1.35-11-2-16l0-.36v-.1l-.08-.59-.08-.67,0-.24,0-.23-.09-.74c-.91-7.18-1.69-13.21-2.47-19-.41-3.09-.84-6.15-1.3-9.39a93.09,93.09,0,0,0,7.85,8.68,1,1,0,0,0,.71.29m2.54-13.81c-1.2-1.25-2.19-2.31-3.12-3.32s-2.14-2.35-3.18-3.55c1.68.56,3.78,1.13,6.22,1.72,0,1.25,0,2.75.08,5.15m36.24,76.87a.81.81,0,0,0-.14-.31,61.48,61.48,0,0,1-4.61-7,.09.09,0,0,0,0-.05c.9,0,2-.11,3.48-.28a.53.53,0,0,0,0,.41,24.91,24.91,0,0,0,3.26,6.74l.11.14-.17,0-1.91.36M904.67,425c2.34,0,4.87,0,8-.13l3.18-.09h.77c2.28-.07,4.7-.14,7-.17,1.08,0,2.16,0,3.23,0q2.26,0,4.53,0c.31,2,.56,3.72.76,5.15a191.9,191.9,0,0,1,1.52,27.72,237.75,237.75,0,0,1-2.1,27.85c-.87,6.38-2,12.8-3.33,19.07-.55,2.59-1.18,5.34-1.6,7.16l-.06.26,0,.11,0,.08L926,514l-.1.41c-.24,1-.59,2.6-.93,4.19a28.88,28.88,0,0,0-3.77-4.94,28.44,28.44,0,0,0-4.77-4,24.19,24.19,0,0,0-5.29-2.64,25,25,0,0,0-5.61-1.27,23.63,23.63,0,0,0-2.76-.17c-.83,0-1.74,0-2.71.14a29,29,0,0,0-5.91,1.25,34.9,34.9,0,0,0-5.85,2.55c-.58.32-1.21.68-1.87,1.09.27-1.78.51-3.54.76-5.49l0-.2c1.13-8.57,2.31-17.43,2.86-26.25a126.39,126.39,0,0,0,0-17.08c-.06-.9-.14-1.81-.23-2.7,8,8,16.41,15.86,22.83,21.78l.42.39.09.08c2.26,2.09,4.82,4.46,7.35,6.68a.89.89,0,0,0,.58.24.84.84,0,0,0,.83-.85.76.76,0,0,0-.24-.56c-1.82-1.74-3.84-3.59-5.31-4.94l-.68-.62-6-5.53c-4.33-4-8.22-7.65-11.9-11.19-2.52-2.42-5.08-4.92-7.6-7.43a.83.83,0,0,0-.59-.24,72.5,72.5,0,0,0-1.77-9.13c.49-.2,1-.47,1.64-.77a30.81,30.81,0,0,0,3.77-2.26c6.33,5,12.41,10.48,18.28,15.82l.06.05,2.24,2c3.83,3.47,7.29,6.58,10.86,9.53a.78.78,0,0,0,.53.22.77.77,0,0,0,.53-.22.79.79,0,0,0,.22-.59.59.59,0,0,0-.22-.48c-3.26-2.78-6.71-5.81-10.52-9.26l-2.44-2.21,0,0-.43-.39c-2.45-2.21-5-4.5-7.52-6.73-3.81-3.35-7.2-6.19-10.36-8.67a18.5,18.5,0,0,0,4.61-5.13,15.56,15.56,0,0,0,1.31-2.83A15.18,15.18,0,0,0,901,433l.85.81,0,.05c7.73,6.91,15.71,14.05,24,20.58a1.15,1.15,0,0,0,.76.32,1.09,1.09,0,0,0,1.08-1.08,1,1,0,0,0-.32-.76c-8.3-6.71-16.36-13.94-24.14-20.94l-2.16-1.93a18.37,18.37,0,0,0-.65-3.89c-.12-.43-.26-.87-.42-1.34,1.18.08,2.64.11,4.6.11M870,515.17a55.39,55.39,0,0,1-7.11-.45,58.46,58.46,0,0,1-12-3c.71-2.32,1.24-4.76,1.71-7.07s.92-4.8,1.38-7.65c.87-5.42,1.56-10.87,2.05-16.22.5-5.53.74-10.92.7-16,0-3.42-.2-6.89-.53-10.31.71,0,1.49-.1,2.61-.21a131.92,131.92,0,0,0,16.36-2.49,68.23,68.23,0,0,0,9-2.59c.41,2.19.76,4.24,1,6.1,2.28,17.31,0,34.9-2.12,51.91l-.19,1.52-.45,3.64a1.51,1.51,0,0,0,.25,1c-.28.2-.58.44-.83.64-1.46.28-3,.57-4.57.79a56.07,56.07,0,0,1-7.24.47Zm-32.24-60h0c4.8,0,9.28-.12,13.69-.38a141.44,141.44,0,0,1-1.16,30.54c-.59,4.33-1.3,8.59-2,12.93-.4,2.32-.72,4.27-1,6.32-.35,2.26-.71,4.59-.9,6.91a1.9,1.9,0,0,0,.42,1.32,42,42,0,0,0-2.28,5.73,37.27,37.27,0,0,0-1.38,6.43,34.67,34.67,0,0,0-.27,6.33,26.91,26.91,0,0,0,.75,5.16,62.59,62.59,0,0,1-6.14-4c.11-1.4.19-2.8.27-4.34l0-.37c.16-3,.28-6.17.4-10.3.16-6.12.26-12.67.29-20.63.06-15-.21-28.49-.81-41.24v-.45Zm-5.24,19.42a1.09,1.09,0,0,0,.76-.32,1.08,1.08,0,0,0,.31-.75,1,1,0,0,0-.31-.76,97.77,97.77,0,0,1-14.21-14.1c0-.89,0-1.76.06-2.63l0-1.12.24,0,1,0c1.75,2.08,3.72,4.19,5.85,6.27,1.52,1.48,3.14,3,5,4.53,1,.9,2.1,1.79,3.16,2.65.13,7.51.13,15.12,0,22.64-.11,6.05-.33,12.6-.7,20.64-.12,2.55-.25,5.11-.38,7.66l-.26.1-.34.16a18.37,18.37,0,0,1-9.33,1.27,23.55,23.55,0,0,1-3.94-1l-.14,0c0-1.47,0-3.29,0-6.08q0-5.56-.1-11.15V502q0-3.19-.06-6.34c-.07-7.21-.14-16.76-.08-26.74a91.41,91.41,0,0,0,10.2,10.56,1,1,0,0,0,.72.31,1,1,0,0,0,.74-.31,1.06,1.06,0,0,0,.3-.76,1,1,0,0,0-.3-.71c-2.27-2.12-4.23-4.06-6-5.94s-3.8-4.17-5.64-6.45l0-1.25,0-2.39v-.06a96.81,96.81,0,0,0,12.73,12.39,1.15,1.15,0,0,0,.75.32m1.72-9-.09-.07,0,0c-.4-.34-.79-.67-1.17-1-1.64-1.4-3.22-2.84-4.71-4.26-1.8-1.72-3.52-3.49-5.11-5.26,1.12.07,2.25.09,3.46.11A69.42,69.42,0,0,0,834,462.3a1.43,1.43,0,0,0,.24.16v.75l.06,2.38m-.16-5.53c-1.74-1.58-3.27-3.07-4.68-4.54l-.45-.47.52.06h.56l2.64,0h1.21l.08,1.54.12,3.36" fill="#161616"/><path d="M946.3,274.91a1.32,1.32,0,0,0-1.3,1.3,1.31,1.31,0,0,0,1.3,1.3,610.16,610.16,0,0,1,63.26,2.76c9.33.82,18.65,1.79,28,2.75,4.61.47,9.23.94,13.85,1.38s9.11.89,13.69,1.07a1.57,1.57,0,0,0,1.51-1.15,1.55,1.55,0,0,0-.16-1.21,1.51,1.51,0,0,0-.93-.73c-2.61-.47-5.24-.83-7.87-1.17s-5.21-.65-7.81-.94q-7.87-.9-15.76-1.61-15.9-1.43-31.83-2.35c-15.42-.89-30.86-1.47-46.3-1.47-3.21,0-6.41,0-9.62.07" fill="#161616"/><path d="M1068.11,285a1.75,1.75,0,0,0-.53,1.27c.1,1.11.19,2.21.27,3.32a1.92,1.92,0,0,0,.53,1.28,1.81,1.81,0,0,0,2.56,0,1.73,1.73,0,0,0,.53-1.28c-.09-1.1-.18-2.21-.28-3.32a1.88,1.88,0,0,0-.52-1.27,1.81,1.81,0,0,0-2.56,0" fill="#161616"/><path d="M1069.87,292.25l-1.15.9a258.9,258.9,0,0,1-26.11,17c-4.49,2.66-9,5.25-13.45,8s-8.83,5.57-13,8.73c-.62.48-1.24,1-1.85,1.45a1.94,1.94,0,0,0-.47.81,1.84,1.84,0,0,0,1.28,2.24,1.77,1.77,0,0,0,1.4-.19c4.29-3,8.55-6,12.91-8.82s8.78-5.65,13.21-8.4c8.88-5.52,17.8-11.05,26.15-17.37,1-.77,2-1.55,3-2.35a1.34,1.34,0,0,0,.41-1,1.4,1.4,0,0,0-1.4-1.4,1.5,1.5,0,0,0-1,.41" fill="#161616"/><path d="M909.34,306.79a1.69,1.69,0,0,0-.75,1,1.63,1.63,0,0,0,.17,1.24,1.54,1.54,0,0,0,1,.75q19,2.76,38,6c6.29,1.08,12.57,2.25,18.84,3.42s12.56,2.36,18.83,3.57l16.21,3.16c5.42,1.06,10.85,2.14,16.31,3l.55.08a2.11,2.11,0,0,0,1-.29A2.06,2.06,0,0,0,1019,325c-3.12-.78-6.26-1.44-9.4-2.1s-6.28-1.27-9.43-1.86c-6.3-1.19-12.6-2.3-18.91-3.4-12.61-2.19-25.26-4.15-37.91-6.08Q927,309,910.58,306.63a3.89,3.89,0,0,0-.47,0,1.48,1.48,0,0,0-.77.2" fill="#161616"/><path d="M922.22,300.18a1.29,1.29,0,0,0,.31,2.36c5.33,1,10.65,2,16,3s10.65,2,16,3,10.65,2,16,2.92,10.68,1.77,16,2.51c3.83.52,7.68,1,11.53,1.38s7.55.68,11.33.77a1.85,1.85,0,0,0,1.31-3.17l-.37-.29a1.81,1.81,0,0,0-.94-.25c-5.06-.62-10.14-1.1-15.21-1.67s-10.33-1.21-15.48-1.9l.53.07-1.5-.2.53.07-2.07-.28.13,0-2.77-.38.51.07c-8.51-1.14-17-2.47-25.46-3.88-4.18-.7-8.35-1.43-12.53-2.13s-8.56-1.45-12.83-2.2a2.46,2.46,0,0,0-.37,0,1.25,1.25,0,0,0-.63.17" fill="#161616"/><path d="M1063.11,283.66c-1.64.78-3.21,1.7-4.78,2.63s-3.09,1.9-4.62,2.88c-3.07,1.95-6.1,4-9.14,6-6.07,4-12.1,8.08-18.22,12a1.68,1.68,0,0,0-.59,2.26,1.66,1.66,0,0,0,2.26.59c6.12-3.92,12.23-7.86,18.36-11.76q4.61-2.92,9.25-5.78l4.63-2.87c1.55-1,3.09-1.93,4.56-3a1.83,1.83,0,0,0,.78-1,1.7,1.7,0,0,0-1.18-2.09,1.64,1.64,0,0,0-.42-.06,2,2,0,0,0-.89.23" fill="#161616"/><path d="M945.58,278.7q-2.4,0-4.8.12a1.27,1.27,0,0,0,0,2.53c8.15-.28,16.3-.14,24.45.22,8.41.38,16.81,1,25.2,1.84s16.86,1.81,25.27,2.85c8.22,1,16.43,2.1,24.66,3,1.52.17,3,.33,4.56.47a1.21,1.21,0,0,0,1.17-.89,1.28,1.28,0,0,0-.12-.94,1.21,1.21,0,0,0-.73-.56c-4-.68-8-1.26-12-1.82s-8.33-1.13-12.5-1.65q-12.59-1.59-25.21-2.81c-14.82-1.43-29.7-2.43-44.6-2.43-1.77,0-3.55,0-5.32.05" fill="#161616"/><path d="M929.72,295.14a1.17,1.17,0,0,0-.34.81,1.19,1.19,0,0,0,.34.82,1.31,1.31,0,0,0,.82.34c4.5.51,9,1,13.5,1.48l13.5,1.36q13.51,1.33,27,2.74c2.16.22,4.31.44,6.47.61a1.51,1.51,0,0,0,1.48-1.12,1.53,1.53,0,0,0-.16-1.18,1.46,1.46,0,0,0-.91-.7c-4.52-.68-9.08-1.1-13.63-1.52s-9-.75-13.51-1.1c-9-.7-18-1.38-27-2.2q-3.37-.3-6.74-.68h-.07a1.13,1.13,0,0,0-.75.35" fill="#161616"/><path d="M971.63,301.19l-4.92,4.88a1,1,0,0,0,1.48,1.48q2.46-2.44,4.9-4.9a1,1,0,0,0,0-1.46,1,1,0,0,0-.73-.3,1,1,0,0,0-.73.3" fill="#161616"/><path d="M1002,288.87a78.41,78.41,0,0,0-6.38,4.62c-2,1.6-4,3.26-6,5-3.95,3.47-7.74,7.13-11.57,10.73a1.12,1.12,0,0,0,0,1.57,1.13,1.13,0,0,0,1.58,0c5.59-5.22,11.24-10.39,17.3-15.08,2.07-1.59,4.2-3.09,6.33-4.6a1.4,1.4,0,0,0,.59-.76,1.32,1.32,0,0,0-.13-1,1.34,1.34,0,0,0-1.13-.64,1.17,1.17,0,0,0-.62.18" fill="#161616"/><path d="M1015.86,291a56.69,56.69,0,0,0-12.45,8.53c-3.81,3.27-7.32,6.84-10.89,10.36a1.19,1.19,0,0,0,1.68,1.68,162,162,0,0,1,13.48-12.19,80.9,80.9,0,0,1,9.45-6.2,1.27,1.27,0,0,0,.45-1.73,1.28,1.28,0,0,0-.75-.58,1.22,1.22,0,0,0-.32,0,1.4,1.4,0,0,0-.65.17" fill="#161616"/><path d="M1022.35,294c-1.77,1.23-3.48,2.55-5.18,3.88s-3.34,2.64-5,4q-4.93,4.06-9.69,8.33a1.16,1.16,0,1,0,1.64,1.64c3.12-2.79,6.32-5.49,9.58-8.13q2.47-2,5-4c1.67-1.32,3.35-2.62,5-4a1.1,1.1,0,0,0,.17-1.35,1.17,1.17,0,0,0-1-.56.92.92,0,0,0-.53.16" fill="#161616"/><path d="M986.07,286.49a41.37,41.37,0,0,1-6.31,6.1h0c-.76.58-1.55,1.14-2.35,1.66a.75.75,0,0,0-.27,1,.74.74,0,0,0,1,.27,37.72,37.72,0,0,0,8.94-8,.8.8,0,0,0,.21-.51.75.75,0,0,0-.21-.51.81.81,0,0,0-.54-.21.6.6,0,0,0-.48.21" fill="#161616"/><path d="M976.41,281.72c-2.59,2.2-5.19,4.38-7.87,6.45l.22-.17c-3,2.27-6,4.43-9.12,6.43a1.06,1.06,0,0,0,1.07,1.83q4.54-2.88,8.84-6.13c2.88-2.18,5.7-4.46,8.37-6.89a1.07,1.07,0,0,0-.76-1.83,1.1,1.1,0,0,0-.75.31" fill="#161616"/><path d="M962.77,283.72c-1.7,1.77-3.34,3.6-5,5.41s-3.46,3.68-5.22,5.49a1,1,0,1,0,1.45,1.45c1.72-1.76,3.43-3.53,5.11-5.33s3.44-3.7,5-5.64a1.07,1.07,0,0,0,.29-.69.94.94,0,0,0-.29-.69,1,1,0,0,0-.7-.29.94.94,0,0,0-.68.29" fill="#161616"/><path d="M954,284.17c-3.41,2.88-6.65,6-9.86,9.09a1.19,1.19,0,0,0,0,1.67,1.2,1.2,0,0,0,1.68,0c1.6-1.56,3.22-3.09,4.86-4.61s3.28-3,4.9-4.57a1.13,1.13,0,0,0,0-1.58,1.11,1.11,0,0,0-.79-.33,1.19,1.19,0,0,0-.79.33" fill="#161616"/><path d="M945.27,282.84c-2,1.84-3.91,3.72-5.9,5.54s-4.12,3.67-6.25,5.43a.92.92,0,0,0-.27.67.92.92,0,0,0,.94.94,1,1,0,0,0,.67-.27c2.09-1.71,4.14-3.47,6.15-5.26s4.1-3.7,6-5.68a1,1,0,0,0,0-1.37.92.92,0,0,0-.67-.28,1,1,0,0,0-.69.28" fill="#161616"/><path d="M936.43,288.85a.78.78,0,0,0-.53.23.75.75,0,0,0-.22.53.76.76,0,0,0,.75.76,85.72,85.72,0,0,1,18.25.68h0c10.39,1.4,20.58,4,31,5.33,1,.13,2,.24,3,.34s2.1.22,3.15.23a.89.89,0,0,0,.88-.88.85.85,0,0,0-.26-.62.94.94,0,0,0-.62-.26c-.62-.08-1.26-.13-1.89-.18l-2-.2c-1.31-.14-2.61-.3-3.91-.47l.24,0c-10.38-1.4-20.58-3.91-31-5.12a94.47,94.47,0,0,0-10.63-.64c-2,0-4,.07-6.08.24" fill="#161616"/><path d="M948.47,284.87a.94.94,0,0,0,.92.93c4.25.3,8.48.78,12.7,1.34l-.26,0c5.25.7,10.49,1.52,15.72,2.34,2.65.41,5.3.82,8,1.19s5.42.72,8.14.93a1.16,1.16,0,0,0,.86-.36,1.22,1.22,0,0,0,.36-.86,1.2,1.2,0,0,0-.36-.86,1.26,1.26,0,0,0-.86-.36c-2.68-.3-5.35-.57-8-.88s-5.19-.63-7.78-1l.09,0-.29,0h0c-4.62-.63-9.24-1.3-13.86-1.89-4.78-.6-9.58-1.1-14.39-1.41h0a.93.93,0,0,0-.87.92m29.17,2.38.2,0-.2,0h0" fill="#161616"/><path d="M1004.54,289.72a1,1,0,0,0-.44.56,1,1,0,0,0,.66,1.16c4.63.92,9.27,1.84,13.91,2.7s9.3,1.72,14,2.37l.26,0a1,1,0,0,0,.5-.13,1,1,0,0,0-.23-1.82c-2.29-.44-4.59-.83-6.88-1.22l-7.08-1.21c-4.66-.81-9.32-1.63-14-2.54l-.26,0a.86.86,0,0,0-.46.12" fill="#161616"/><path d="M996.17,295a1.22,1.22,0,0,0,.84,1.48,128.22,128.22,0,0,0,12.94,3.26c4.36.89,8.76,1.64,13.17,2.27l.35.05a1.25,1.25,0,0,0,.65-.18,1.3,1.3,0,0,0,.47-1.78,1.27,1.27,0,0,0-.78-.6c-4.38-.78-8.8-1.4-13.18-2.21a111,111,0,0,1-13-3.13.86.86,0,0,0-.32-.05,1.23,1.23,0,0,0-1.16.89" fill="#161616"/><path d="M993.28,302.06a1.23,1.23,0,0,0-.58.76,1.29,1.29,0,0,0,.12,1,1.27,1.27,0,0,0,.76.58q5.14.75,10.26,1.61c3.5.58,7,1.23,10.51,1.74a1.34,1.34,0,0,0,1-.13,1.29,1.29,0,0,0-.31-2.37c-3.4-.67-6.83-1.19-10.25-1.72s-7-1.07-10.53-1.57a2.58,2.58,0,0,0-.38,0,1.13,1.13,0,0,0-.6.16" fill="#161616"/><path d="M1067.38,254.65a17,17,0,0,0-5.74,2.81,24.93,24.93,0,0,0-4.38,4.33c-1.94,2.41-3.62,5-5.51,7.46a29.16,29.16,0,0,1-4.75,4.93,20.25,20.25,0,0,1-4.29,2.51,23.19,23.19,0,0,1-5.49,1.46c-.76.1-1.51.16-2.27.2a1.52,1.52,0,0,0-1.49,1.49,1.49,1.49,0,0,0,1.49,1.49,27.33,27.33,0,0,0,8.25-1.61,21.66,21.66,0,0,0,3.37-1.6,23.46,23.46,0,0,0,2.9-2c3.32-2.65,5.78-6.16,8.32-9.53l.44-.58a30.77,30.77,0,0,1,5.07-5.38,16.35,16.35,0,0,1,3.25-1.92,17.07,17.07,0,0,1,3.86-1,26.1,26.1,0,0,1,6.43.1,54.33,54.33,0,0,1,8,1.85,1.66,1.66,0,0,0,2-1.14,1.7,1.7,0,0,0-.17-1.27,1.73,1.73,0,0,0-1-.75,45.11,45.11,0,0,0-10.51-2.38c-.76-.07-1.53-.1-2.3-.1a21.26,21.26,0,0,0-5.5.69m-8.94,11.06-.19.26.19-.26" fill="#161616"/><path d="M969.9,256.88q-5.05.14-10.1.35a1.16,1.16,0,1,0,0,2.32c18.77-.77,37.58-.52,56.35.31,9.42.42,18.84.95,28.25,1.52s18.77,1.19,28.15,1.71c3.36.18,6.73.36,10.09.42a1.48,1.48,0,0,0,1.47-1.47,1.44,1.44,0,0,0-.43-1,1.55,1.55,0,0,0-1-.43c-4.66-.53-9.34-.86-14-1.18s-9.38-.62-14.07-.89q-14.1-.81-28.23-1.29t-28.25-.58l-7.55,0q-10.32,0-20.62.27" fill="#161616"/><path d="M1039.91,249.87a1.58,1.58,0,0,0-1.55,1.55,1.56,1.56,0,0,0,1.55,1.55,206.69,206.69,0,0,1,21.84.42c3.68.26,7.35.63,11,1s7.35.92,11,1.28a1.93,1.93,0,0,0,.88-.24,1.82,1.82,0,0,0,.81-1.05,1.78,1.78,0,0,0-.18-1.35,1.66,1.66,0,0,0-1-.8c-3.69-.61-7.44-1-11.17-1.32s-7.33-.6-11-.8c-4.77-.27-9.54-.42-14.31-.42q-3.93,0-7.86.14" fill="#161616"/><path d="M966.79,262.43q-5.06.1-10.11.31a1.09,1.09,0,1,0,0,2.17c18-.72,36.07-.25,54.07.77s35.83,2.69,53.75,4c3.35.25,6.7.48,10,.67a1.48,1.48,0,0,0,1.47-1.46,1.5,1.5,0,0,0-.43-1,1.54,1.54,0,0,0-1-.42c-9-.79-18-1.43-27-2.05s-17.88-1.2-26.83-1.71c-14.41-.8-28.85-1.35-43.29-1.35q-5.29,0-10.59.1" fill="#161616"/><path d="M1076.76,269.63c0,3.82.11,7.64.16,11.46,0,1.85,0,3.7.08,5.55,0,.92,0,1.84.06,2.77a19.46,19.46,0,0,0,.26,3.23,1.73,1.73,0,0,0,1.67,1.27,1.68,1.68,0,0,0,.87-.24,1.66,1.66,0,0,0,.8-1,10.72,10.72,0,0,0,.14-1.5c0-.46,0-.92,0-1.39,0-.92,0-1.84-.09-2.77-.08-2-.18-3.93-.27-5.89-.18-3.82-.34-7.64-.43-11.46a1.64,1.64,0,0,0-1.62-1.62,1.62,1.62,0,0,0-1.62,1.62" fill="#161616"/><path d="M951.4,268.91a.83.83,0,0,0-.23.56.76.76,0,0,0,.23.55c2.49,2.06,5,4,7.69,5.86a.75.75,0,0,0,1-.26.76.76,0,0,0,.08-.57.83.83,0,0,0-.34-.44c-1.16-.84-2.3-1.7-3.43-2.57q-2-1.53-3.9-3.13a.87.87,0,0,0-.56-.22.82.82,0,0,0-.55.22" fill="#161616"/><path d="M955.4,265.23a.88.88,0,0,0,.31,1.19c4.25,2.45,8.36,5.13,12.38,7.94a.76.76,0,0,0,.77-1.31,119.14,119.14,0,0,0-12.28-8.13.81.81,0,0,0-.43-.11.87.87,0,0,0-.75.42" fill="#161616"/><path d="M963.37,264.4a.54.54,0,0,0,.19.73q3.54,1.83,6.91,3.94c2.28,1.43,4.49,3,6.64,4.57a.52.52,0,0,0,.73-.19.52.52,0,0,0,.06-.42.6.6,0,0,0-.25-.32,91,91,0,0,0-13.56-8.5.63.63,0,0,0-.27-.06.51.51,0,0,0-.45.25" fill="#161616"/><path d="M973.67,264.36a.62.62,0,0,0-.07.48.69.69,0,0,0,.29.38q6.4,4.36,12.91,8.58a.59.59,0,0,0,.81-.21.6.6,0,0,0-.21-.8q-6.46-4.29-12.88-8.66a.52.52,0,0,0-.29-.09.66.66,0,0,0-.56.32" fill="#161616"/><path d="M982.63,265.42A1.12,1.12,0,0,0,983,267c4.91,3.23,9.73,6.58,14.55,9.95a1,1,0,0,0,1.41-.37,1,1,0,0,0,.1-.79,1.08,1.08,0,0,0-.47-.62c-4.7-3.53-9.55-6.87-14.46-10.11a1,1,0,0,0-.54-.16,1.17,1.17,0,0,0-1,.57" fill="#161616"/><path d="M993.64,266.2a1,1,0,0,0,.34,1.3c3.86,2.37,7.62,4.89,11.34,7.49a.87.87,0,0,0,1.2-.31.89.89,0,0,0,.09-.68,1,1,0,0,0-.41-.52c-3.63-2.72-7.41-5.23-11.27-7.62a.94.94,0,0,0-.46-.13,1,1,0,0,0-.83.47" fill="#161616"/><path d="M1002.93,263.62a.82.82,0,0,0-.25.59.84.84,0,0,0,.25.6c3.53,2.91,7.14,5.73,10.87,8.37a.83.83,0,0,0,1.14-.3.84.84,0,0,0,.08-.64.94.94,0,0,0-.38-.5c-1.89-1.37-3.76-2.76-5.6-4.19l.05.05q-2.51-2-5-4a.88.88,0,0,0-.59-.25.84.84,0,0,0-.6.25" fill="#161616"/><path d="M1010.67,264.13a1.1,1.1,0,0,0,.39,1.48,87.41,87.41,0,0,1,8.17,5.6L1019,271c.92.72,1.83,1.45,2.74,2.19a1.09,1.09,0,0,0,.72.3,1,1,0,0,0,.72-1.74,74,74,0,0,0-11.05-8.05,1,1,0,0,0-.53-.15,1.11,1.11,0,0,0-1,.54" fill="#161616"/><path d="M1022.62,267.54a.9.9,0,0,0-.26.62.82.82,0,0,0,.26.61c2.28,1.85,4.49,3.77,6.66,5.73a.83.83,0,0,0,1.17-1.17c-2.12-2-4.33-3.94-6.6-5.79a.92.92,0,0,0-.61-.26.9.9,0,0,0-.62.26" fill="#161616"/><path d="M972.41,129.8a31.58,31.58,0,0,0-.87,5.55,23.06,23.06,0,0,0,.24,4.77,12.43,12.43,0,0,0,2.85,6.52,6,6,0,0,0,2.5,1.61,4.15,4.15,0,0,0,2.74-.06,6,6,0,0,0,.82-.37,6.76,6.76,0,0,0,.74-.55,6.19,6.19,0,0,0,1.1-1.24,6.46,6.46,0,0,0,.69-1.23,14.53,14.53,0,0,0,.76-2.09,22.2,22.2,0,0,0,.66-4.36,34.88,34.88,0,0,0-.11-5.78,1.77,1.77,0,0,0-.49-1.19,1.66,1.66,0,0,0-1.19-.49,1.68,1.68,0,0,0-1.68,1.68A43.25,43.25,0,0,1,981,139a16.79,16.79,0,0,1-.92,3.71,7.91,7.91,0,0,1-.71,1.27,6.09,6.09,0,0,1-.44.44l-.24.15-.15,0h-.15l-.24-.07-.39-.23a6.25,6.25,0,0,1-.62-.64,8.56,8.56,0,0,1-.88-1.56,15.1,15.1,0,0,1-.83-3.17,22.36,22.36,0,0,1,.06-5.36c.14-.94.32-1.88.55-2.8a1.88,1.88,0,0,0-1.3-2.29,1.49,1.49,0,0,0-.47-.07,1.85,1.85,0,0,0-1.81,1.37" fill="#161616"/><path d="M988.35,139.5a3.66,3.66,0,0,0-2,3.18,4.06,4.06,0,0,0,.48,1.84,5,5,0,0,0,.59.85,4.86,4.86,0,0,0,.68.68,8.05,8.05,0,0,0,1,.68,8.58,8.58,0,0,0,1.15.54,9.6,9.6,0,0,0,2.75.6,1.24,1.24,0,0,0,1.21-.92,1.27,1.27,0,0,0-.13-1,1.17,1.17,0,0,0-.75-.57,11.83,11.83,0,0,1-2-.56,7.57,7.57,0,0,1-1.21-.69,5.66,5.66,0,0,1-.6-.6,3.35,3.35,0,0,1-.27-.45c0-.11-.07-.22-.1-.33v-.23l0-.17.1-.18.22-.21a4.83,4.83,0,0,1,.45-.26,5.42,5.42,0,0,1,1-.25,10.13,10.13,0,0,1,2.46.06,1.31,1.31,0,0,0,1-.39,1.36,1.36,0,0,0,.39-1,1.34,1.34,0,0,0-.39-.95l-.27-.21a1.36,1.36,0,0,0-.68-.18,11.07,11.07,0,0,0-1.63-.12,7.15,7.15,0,0,0-3.4.76" fill="#161616"/><path d="M992.57,133.05a1.7,1.7,0,0,0-.45,1.1,50.59,50.59,0,0,0-.17,6.16c0,1,.11,2,.22,3.06a22.84,22.84,0,0,0,.61,3.48,1.67,1.67,0,0,0,1.59,1.21,1.69,1.69,0,0,0,1.17-.48,1.61,1.61,0,0,0,.48-1.17c-.17-1.25-.38-2.49-.56-3.73a42.69,42.69,0,0,1-.24-8.53,1.56,1.56,0,0,0-2.65-1.1m2.84,9.27c0,.1,0,.2,0,.3,0-.1,0-.2,0-.3" fill="#161616"/><path d="M1001.05,138.47a4.51,4.51,0,0,0-1.13.36,4.7,4.7,0,0,0-1,.62,3.8,3.8,0,0,0-1.13,1.68,3.87,3.87,0,0,0-.15,2,4.5,4.5,0,0,0,2.19,3.15,5.84,5.84,0,0,0,5,.12,1.14,1.14,0,0,0,.62-.48,1.09,1.09,0,0,0,.11-.81,1,1,0,0,0-.48-.62,1,1,0,0,0-.81-.11,7.35,7.35,0,0,1-1.39.39,5.13,5.13,0,0,1-1,0,4.23,4.23,0,0,1-.7-.18,3.55,3.55,0,0,1-.53-.32,3.25,3.25,0,0,1-.42-.41c-.08-.12-.15-.24-.22-.36a1.24,1.24,0,0,0,.27,0,1.27,1.27,0,0,0,.87-.36l0,0a2.86,2.86,0,0,1,.42-.24,14.07,14.07,0,0,0,1.75-.63,3,3,0,0,0,1-.91,3.14,3.14,0,0,0,.3-.61,4.66,4.66,0,0,0,.23-.75,1.21,1.21,0,0,0-.12-.91,1.19,1.19,0,0,0-.7-.54,10.36,10.36,0,0,0-1.57-.19h-.23a7.32,7.32,0,0,0-1.23.12m.36,4.53-.06,0,.06,0" fill="#161616"/><path d="M1007,139c0,1.23,0,2.45,0,3.67s.05,2.61.19,3.91a1.35,1.35,0,0,0,.37.89,1.25,1.25,0,0,0,2.13-.89c0-1.22-.12-2.44-.18-3.66s-.08-2.61-.08-3.92a1.22,1.22,0,1,0-2.44,0" fill="#161616"/><path d="M1010.79,139a8.13,8.13,0,0,0-1.66.5.72.72,0,0,0-.39.3.62.62,0,0,0-.06.5.65.65,0,0,0,.8.46,7.55,7.55,0,0,1,1.59-.45,4.33,4.33,0,0,1,.88,0,4.58,4.58,0,0,1,.53.14c.14.07.26.15.39.23l.37.37a3.84,3.84,0,0,1,.33.59,5.85,5.85,0,0,1,.34,1.29,13.86,13.86,0,0,1,0,2.88.9.9,0,0,0,.91.91.93.93,0,0,0,.92-.91,14.08,14.08,0,0,0-.2-3.37,5.07,5.07,0,0,0-1.15-2.48,3.22,3.22,0,0,0-.94-.69,3.72,3.72,0,0,0-1.28-.33,1.94,1.94,0,0,0-.34,0,6.91,6.91,0,0,0-1,.1m3.12,3.95s0,.06,0,.09,0-.06,0-.09" fill="#161616"/><path d="M1017.75,138.36a8.12,8.12,0,0,0-3.71,1.28,1.13,1.13,0,0,0,1.14,2,9.48,9.48,0,0,1,1-.52,6.46,6.46,0,0,1,1.21-.36,3.86,3.86,0,0,1,.68,0,3.39,3.39,0,0,1,.43.11l.36.21a2.65,2.65,0,0,1,.37.38,4.44,4.44,0,0,1,.42.73,9.57,9.57,0,0,1,.45,1.75,17.63,17.63,0,0,1,.1,2.3,1.33,1.33,0,0,0,2.66,0,13.16,13.16,0,0,0-.46-4,6,6,0,0,0-1.67-2.82,4.2,4.2,0,0,0-2.79-1h-.19" fill="#161616"/><path d="M1008.92,139.57a1.16,1.16,0,0,0-.42,1.59,1.18,1.18,0,0,0,1.59.42l.41-.21a4.63,4.63,0,0,1,.83-.23,4,4,0,0,1,.6,0,4.24,4.24,0,0,1,.61.17,4.08,4.08,0,0,1,.57.34l.32.27a1.19,1.19,0,0,0,1.68-1.68,5.42,5.42,0,0,0-1.3-1,4.46,4.46,0,0,0-1.6-.46l-.47,0a5.9,5.9,0,0,0-2.82.81" fill="#161616"/><path d="M1024.74,139.34a13.62,13.62,0,0,0-.53,3.8,5.31,5.31,0,0,0,.87,3,3.92,3.92,0,0,0,2.75,1.65,7.58,7.58,0,0,0,3.93-.56,1.42,1.42,0,0,0,.77-.59,1.27,1.27,0,0,0-1.45-1.87c-.52.13-1,.25-1.58.34a6.53,6.53,0,0,1-1.25,0,3.58,3.58,0,0,1-.54-.14l-.3-.17a2.72,2.72,0,0,1-.24-.24,3.26,3.26,0,0,1-.24-.4,4.46,4.46,0,0,1-.2-.8,8.52,8.52,0,0,1,0-1.82,14.13,14.13,0,0,1,.33-1.57,1.25,1.25,0,0,0-.85-1.5,1.17,1.17,0,0,0-.32,0,1.22,1.22,0,0,0-1.18.89" fill="#161616"/><path d="M1031.51,138.77a1.22,1.22,0,0,0-.37.9c.17,1.79.45,3.57.64,5.36a24.37,24.37,0,0,1,.12,5.33,8.84,8.84,0,0,1-.49,1.9,3.8,3.8,0,0,1-1.17,1.57,5.51,5.51,0,0,1-.85.49,8.53,8.53,0,0,1-1.58.41c-.47.05-.94.07-1.41.08a1.55,1.55,0,0,0-1.52,1.53,1.53,1.53,0,0,0,.45,1.07,1.6,1.6,0,0,0,1.07.45,10.9,10.9,0,0,0,3.22-.28,8.45,8.45,0,0,0,1.4-.54,6,6,0,0,0,1.26-.83,5.77,5.77,0,0,0,1.47-1.86,8.39,8.39,0,0,0,.8-2.45,19.46,19.46,0,0,0,0-5.39c-.19-1.84-.51-3.67-.77-5.51-.06-.44-.11-.89-.15-1.33a1.37,1.37,0,0,0-.37-.9,1.27,1.27,0,0,0-1.79,0" fill="#161616"/><path d="M973.19,160.73a1.11,1.11,0,0,0,1.11,1.1c13.92.62,27.83,1.46,41.77,1.75q5.53.12,11.07.09c3.65,0,7.3-.09,10.95-.28a.94.94,0,0,0,0-1.88c-6.93.05-13.84,0-20.77-.12s-14-.43-21-.74c-7.34-.33-14.67-.7-22-1h0a1.12,1.12,0,0,0-1.06,1.11" fill="#161616"/><path d="M973.47,159.48a1.15,1.15,0,0,0-.68.52,1.23,1.23,0,0,0-.12.88c.06.37.12.74.17,1.11.16,1.24.25,2.48.32,3.72a1.16,1.16,0,1,0,2.31,0,41.18,41.18,0,0,0-.6-5.43,1.13,1.13,0,0,0-.52-.69,1.19,1.19,0,0,0-.58-.15,1,1,0,0,0-.3,0" fill="#161616"/><path d="M975.07,167.73a1.2,1.2,0,0,0-.81.33,1.14,1.14,0,0,0-.33.81,1.15,1.15,0,0,0,.33.8,1.12,1.12,0,0,0,.81.33c15.6-1.44,31.21.82,46.79,1.52,4.91.22,9.83.28,14.74,0a1,1,0,1,0,0-2.09c-15.65.7-31.2-1.73-46.82-2.13-1.31,0-2.62,0-3.93,0-3.6,0-7.2.13-10.78.46" fill="#161616"/><path d="M1038.3,161.92c0,1.08.06,2.15.09,3.23s.06,2.16.1,3.24a.82.82,0,0,0,.81.8.81.81,0,0,0,.57-.23.78.78,0,0,0,.23-.57c-.14-1.08-.27-2.16-.36-3.24s-.14-2.15-.17-3.23a.64.64,0,0,0-.63-.64.65.65,0,0,0-.64.64" fill="#161616"/><path d="M984,172.76c-1,0-2,0-3,.08-2.06.08-4.12.2-6.18.24a1,1,0,0,0,0,2c2,0,4,.06,6,.11,1,0,2,.06,3,.07s2.14,0,3.2-.06a1.22,1.22,0,0,0,.81-.33,1.15,1.15,0,0,0,.34-.82,1.13,1.13,0,0,0-.34-.81,1.26,1.26,0,0,0-.81-.34,25.12,25.12,0,0,0-2.6-.11H984" fill="#161616"/><path d="M1033.22,174.18c-1.38,0-2.76.13-4.13.19a58.58,58.58,0,0,1-7.95-.1,1.35,1.35,0,0,0-1,.41,1.42,1.42,0,0,0-.42,1,1.38,1.38,0,0,0,.42,1,1.45,1.45,0,0,0,1,.41c2.64.28,5.29.44,7.95.5a49.82,49.82,0,0,0,8.37-.36,1.5,1.5,0,0,0,.69-.4,1.56,1.56,0,0,0,0-2.21,1.61,1.61,0,0,0-1.1-.46c-.47,0-.93,0-1.39,0-.82,0-1.63,0-2.44.07" fill="#161616"/><path d="M945.94,106.31a1.21,1.21,0,0,0-.54.71,1.18,1.18,0,0,0,.12.9,1.11,1.11,0,0,0,.7.54c16.21,2.56,32.7,1.88,49,1.14,8.13-.37,16.27-.77,24.41-.81,2.35,0,4.69,0,7,0h5.86l13-.06,15.91-.09,15.92,0a.89.89,0,0,0,.88-.88.9.9,0,0,0-.88-.89c-8.7-.21-17.4-.23-26.1-.25s-17.39,0-26.09,0c-2.1,0-4.2,0-6.31,0s-4,0-6,.08c-4.08.09-8.15.25-12.23.43-8.25.35-16.5.76-24.76.87a185.77,185.77,0,0,1-26.36-1.3c-.9-.12-1.8-.25-2.7-.4l-.31,0a1.25,1.25,0,0,0-.6.16" fill="#161616"/><path d="M951.73,101.57a27.42,27.42,0,0,0,.09,4.88,1.27,1.27,0,0,0,.33.8,1.14,1.14,0,0,0,.8.33,1.15,1.15,0,0,0,1.14-1.13c0-.82-.06-1.63-.08-2.44s0-1.63,0-2.44a1.15,1.15,0,0,0-1.15-1.15,1.17,1.17,0,0,0-1.15,1.15" fill="#161616"/><path d="M976.82,101.76a32.39,32.39,0,0,0-.76,5,1.31,1.31,0,1,0,2.61,0c0-.75.07-1.5.16-2.25s.23-1.38.39-2.07a1.27,1.27,0,0,0-.87-1.53,1.12,1.12,0,0,0-.32,0,1.24,1.24,0,0,0-1.21.91" fill="#161616"/><path d="M981,102.28a33.16,33.16,0,0,0,.92,6.19,1.36,1.36,0,0,0,1.66.94,1.34,1.34,0,0,0,.8-.62,1.4,1.4,0,0,0,.14-1c-.24-1.23-.48-2.45-.66-3.68-.08-.6-.14-1.19-.19-1.79a1.34,1.34,0,0,0-2.67,0" fill="#161616"/><path d="M1005.93,100.62a61,61,0,0,0,.16,6.2,1.33,1.33,0,0,0,.37.89,1.24,1.24,0,0,0,.89.37,1.26,1.26,0,0,0,1.25-1.26c-.08-1-.16-2.06-.22-3.1s-.07-2.07-.06-3.1a1.2,1.2,0,1,0-2.39,0" fill="#161616"/></g><path d="M153.33,230a45.82,45.82,0,0,1-1.6,12.88,26.78,26.78,0,0,1-4.36,9,17.67,17.67,0,0,1-6.46,5.3,18.76,18.76,0,0,1-15.78,0,17.78,17.78,0,0,1-6.44-5.3,26.77,26.77,0,0,1-4.34-9,53.29,53.29,0,0,1,0-25.76,26.77,26.77,0,0,1,4.34-9,17.78,17.78,0,0,1,6.44-5.3,18.76,18.76,0,0,1,15.78,0,17.67,17.67,0,0,1,6.46,5.3,26.78,26.78,0,0,1,4.36,9A45.82,45.82,0,0,1,153.33,230Zm-4,0A45.5,45.5,0,0,0,148,218.2a24.8,24.8,0,0,0-3.54-8,13.76,13.76,0,0,0-5.2-4.54,13.89,13.89,0,0,0-17.7,4.54,24.6,24.6,0,0,0-3.56,8,53.13,53.13,0,0,0,0,23.54,24.57,24.57,0,0,0,3.56,8,13.91,13.91,0,0,0,5.2,4.52,14.46,14.46,0,0,0,12.5,0,13.61,13.61,0,0,0,5.2-4.52,24.78,24.78,0,0,0,3.54-8A45.51,45.51,0,0,0,149.33,230Z"/><path d="M199.73,230a45.82,45.82,0,0,1-1.6,12.88,26.78,26.78,0,0,1-4.36,9,17.67,17.67,0,0,1-6.46,5.3,18.76,18.76,0,0,1-15.78,0,17.78,17.78,0,0,1-6.44-5.3,26.77,26.77,0,0,1-4.34-9,53.29,53.29,0,0,1,0-25.76,26.77,26.77,0,0,1,4.34-9,17.78,17.78,0,0,1,6.44-5.3,18.76,18.76,0,0,1,15.78,0,17.67,17.67,0,0,1,6.46,5.3,26.78,26.78,0,0,1,4.36,9A45.82,45.82,0,0,1,199.73,230Zm-4,0a45.5,45.5,0,0,0-1.32-11.76,24.8,24.8,0,0,0-3.54-8,13.76,13.76,0,0,0-5.2-4.54,13.89,13.89,0,0,0-17.7,4.54,24.6,24.6,0,0,0-3.56,8,53.13,53.13,0,0,0,0,23.54,24.57,24.57,0,0,0,3.56,8,13.91,13.91,0,0,0,5.2,4.52,14.46,14.46,0,0,0,12.5,0,13.61,13.61,0,0,0,5.2-4.52,24.78,24.78,0,0,0,3.54-8A45.51,45.51,0,0,0,195.73,230Z"/><path d="M242.53,255.32v3h-29.2v-3h13V209.4q0-1.36.12-2.88L214,217.6a1.28,1.28,0,0,1-1.12.36,1.58,1.58,0,0,1-.88-.48l-1.16-1.6,16.36-14.44h3v53.88Z"/><path d="M135.58,337.41H122.89l-2.46,8.29H110l13.92-42.65h5.3v0l0,0h5.3L148.5,345.7H138.07Zm-10.4-7.62h8.11l-4-13.24h-.18Z"/><path d="M161.33,345.7H151.4V300h9.93Z"/><path d="M194.61,331.73h.18L197.92,314h9.43l-7.44,31.7h-8.38l-5.15-16.23h-.18L181,345.7h-8.35L165.2,314h9.43l3.16,17.85H178L183.15,314h6.24Z"/><path d="M229.21,345.67a11.62,11.62,0,0,1-1-2.25,15.87,15.87,0,0,1-.6-2.64,12.17,12.17,0,0,1-3.18,4,7.66,7.66,0,0,1-4.94,1.51q-5,0-7.75-2.57a9,9,0,0,1-2.77-7,8.46,8.46,0,0,1,3.55-7.28q3.54-2.57,10.75-2.57h4.07v-2.25a4.56,4.56,0,0,0-1-3.11,3.79,3.79,0,0,0-3-1.08,3.61,3.61,0,0,0-2.57.8,3.39,3.39,0,0,0-.83,2.51l-9.61,0-.06-.18a8.27,8.27,0,0,1,3.62-7.25q3.82-2.91,10.09-2.91a14.78,14.78,0,0,1,9.54,2.93q3.65,2.92,3.64,8.38v11.95a24.69,24.69,0,0,0,.43,4.69A25.31,25.31,0,0,0,239,345.7Zm-7-6.41a6,6,0,0,0,3.2-.85,4.87,4.87,0,0,0,1.95-2V332.2h-4a4.49,4.49,0,0,0-3.43,1.14,4.12,4.12,0,0,0-1,2.9,2.77,2.77,0,0,0,.92,2.18A3.4,3.4,0,0,0,222.24,339.26Z"/><path d="M254.55,331.73l0,.23h.18L260,314h10.55l-12.63,36.42a17.57,17.57,0,0,1-3.78,5.8c-1.54,1.52-4,2.29-7.35,2.29a10.93,10.93,0,0,1-2.11-.17q-.83-.15-2.58-.6l1.2-7.06.62.14a3.44,3.44,0,0,0,.52,0,6.55,6.55,0,0,0,3.43-.69,4.11,4.11,0,0,0,1.61-2.06l.79-2.06-11-32.05h10.51Z"/><path d="M289.65,336.8a2.62,2.62,0,0,0-1.33-2.1,14.61,14.61,0,0,0-4.85-1.65c-3.69-.73-6.48-1.84-8.35-3.36a7.58,7.58,0,0,1-2.82-6.25,8.94,8.94,0,0,1,3.52-7.11q3.51-2.91,9.52-2.91,6.33,0,10.08,2.83a8.29,8.29,0,0,1,3.57,7.3l-.05.18h-9.61a3.94,3.94,0,0,0-.94-2.84,4.14,4.14,0,0,0-3.08-1,4,4,0,0,0-2.6.85,2.66,2.66,0,0,0-1.06,2.17,2.59,2.59,0,0,0,1.22,2.14,13.86,13.86,0,0,0,4.9,1.58q5.84,1.14,8.62,3.41a7.85,7.85,0,0,1,2.78,6.43,8.39,8.39,0,0,1-3.79,7.05q-3.79,2.77-10,2.77-6.48,0-10.24-3.28c-2.51-2.19-3.7-4.63-3.59-7.33l.06-.17h9a4,4,0,0,0,1.36,3.25,6,6,0,0,0,3.71,1,4.91,4.91,0,0,0,3-.78A2.6,2.6,0,0,0,289.65,336.8Z"/><path d="M113.25,417.7V375.05h14q7.94,0,12.37,2.94a9.84,9.84,0,0,1,4.44,8.78,10.4,10.4,0,0,1-1.4,5.4,8.7,8.7,0,0,1-4.4,3.56,8.87,8.87,0,0,1,5.64,3.4,10,10,0,0,1,1.83,5.95q0,6.24-4.19,9.43t-12,3.19Zm9.9-24.87h3.9a9.18,9.18,0,0,0,5.33-1.25,4.24,4.24,0,0,0,1.76-3.7,4.59,4.59,0,0,0-1.7-4,8.83,8.83,0,0,0-5.21-1.25h-4.08Zm0,6.56v10.7h6.36a7.61,7.61,0,0,0,4.75-1.25,4.57,4.57,0,0,0,1.58-3.82,5.61,5.61,0,0,0-1.39-4.13q-1.39-1.41-4.59-1.5h-6.71Z"/><path d="M165,418.32q-7.2,0-11.29-4.37a15.5,15.5,0,0,1-4.09-11v-1.12q0-7.26,3.85-11.83t11.15-4.54q6.42,0,9.95,3.84t3.53,10.51V405H159.92l-.06.17a6.14,6.14,0,0,0,1.85,4,6.42,6.42,0,0,0,4.63,1.54,20.2,20.2,0,0,0,4.73-.47,29.82,29.82,0,0,0,4.32-1.49l2.37,6a17.86,17.86,0,0,1-5.5,2.52A25.25,25.25,0,0,1,165,418.32ZM164.61,393a4.09,4.09,0,0,0-3.5,1.5,7.63,7.63,0,0,0-1.31,4.09l.06.15h8.56V398a6.59,6.59,0,0,0-.87-3.73A3.31,3.31,0,0,0,164.61,393Z"/><path d="M123.15,482.09h18.31v7.61H113.25V447.05h9.9Z"/><path d="M160.24,490.32q-7.2,0-11.29-4.37a15.54,15.54,0,0,1-4.09-11v-1.12q0-7.26,3.86-11.83t11.14-4.54q6.42,0,9.95,3.84t3.53,10.51V477H155.18l-.06.17a6.13,6.13,0,0,0,1.84,4,6.44,6.44,0,0,0,4.63,1.54,20.14,20.14,0,0,0,4.73-.47,29.82,29.82,0,0,0,4.32-1.49l2.38,6a18,18,0,0,1-5.51,2.52A25.2,25.2,0,0,1,160.24,490.32ZM159.86,465a4.09,4.09,0,0,0-3.5,1.5,7.63,7.63,0,0,0-1.3,4.09l.06.15h8.55V470a6.68,6.68,0,0,0-.86-3.73A3.34,3.34,0,0,0,159.86,465Z"/><path d="M195.84,489.67a11.62,11.62,0,0,1-1-2.25,15.87,15.87,0,0,1-.6-2.64,12.17,12.17,0,0,1-3.18,4,7.66,7.66,0,0,1-4.94,1.51q-5,0-7.75-2.57a9,9,0,0,1-2.77-7,8.46,8.46,0,0,1,3.55-7.28q3.54-2.57,10.75-2.57H194v-2.25a4.56,4.56,0,0,0-1-3.11,3.78,3.78,0,0,0-3-1.08,3.61,3.61,0,0,0-2.57.8,3.39,3.39,0,0,0-.83,2.51l-9.61,0-.06-.18a8.27,8.27,0,0,1,3.62-7.25q3.82-2.91,10.09-2.91a14.72,14.72,0,0,1,9.54,2.93q3.65,2.92,3.65,8.38v11.95a24.72,24.72,0,0,0,.42,4.69,25.31,25.31,0,0,0,1.27,4.33Zm-7-6.41a6.11,6.11,0,0,0,3.21-.85,4.91,4.91,0,0,0,1.94-2V476.2h-4a4.49,4.49,0,0,0-3.43,1.14,4.12,4.12,0,0,0-1.05,2.9,2.77,2.77,0,0,0,.92,2.18A3.4,3.4,0,0,0,188.87,483.26Z"/><path d="M226.87,466.44l-3.23,0a5.47,5.47,0,0,0-2.78.63,3.89,3.89,0,0,0-1.61,1.77V489.7h-9.9V458h9.31l.35,4.66a9.69,9.69,0,0,1,2.64-3.87,5.81,5.81,0,0,1,3.84-1.37,7.16,7.16,0,0,1,1.2.09,7.34,7.34,0,0,1,1.11.26Z"/><path d="M239.61,458l.38,4.46a11.51,11.51,0,0,1,3.84-3.71,9.9,9.9,0,0,1,5.1-1.33,8.94,8.94,0,0,1,7.28,3.16q2.61,3.17,2.62,10.05V489.7h-9.9V470.6a7.29,7.29,0,0,0-1-4.29,3.31,3.31,0,0,0-2.81-1.27,7,7,0,0,0-2.85.55,5.61,5.61,0,0,0-2.1,1.58V489.7h-9.88V458Z"/><path d="M274.59,450.65h-9.93V444h9.93Zm0,39.05h-9.93V458h9.93Z"/><path d="M289.77,458l.38,4.46a11.48,11.48,0,0,1,3.83-3.71,10,10,0,0,1,5.1-1.33,8.93,8.93,0,0,1,7.28,3.16q2.63,3.17,2.62,10.05V489.7h-9.9V470.6a7.3,7.3,0,0,0-1-4.29A3.33,3.33,0,0,0,295.3,465a7,7,0,0,0-2.84.55,5.73,5.73,0,0,0-2.11,1.58V489.7h-9.87V458Z"/><path d="M313,473.91q0-7.41,3.23-12a10.55,10.55,0,0,1,9.13-4.54,8.16,8.16,0,0,1,4.4,1.18,10.66,10.66,0,0,1,3.28,3.36l.64-4h8.73v31.35q0,6.27-4.29,9.71t-11.82,3.45a21.29,21.29,0,0,1-5.16-.68A28.81,28.81,0,0,1,316,500l1.69-7.33a23,23,0,0,0,4.09,1.39,19.38,19.38,0,0,0,4.47.46,7.31,7.31,0,0,0,4.7-1.26,4.85,4.85,0,0,0,1.54-4v-2.46a9.16,9.16,0,0,1-3.12,2.61,9,9,0,0,1-4.06.88,10.67,10.67,0,0,1-9.08-4.34Q313,481.65,313,474.53Zm9.87.62a13.19,13.19,0,0,0,1.13,6,4,4,0,0,0,3.82,2.15,6.82,6.82,0,0,0,2.77-.5,4.55,4.55,0,0,0,1.89-1.49V467.38a4.9,4.9,0,0,0-1.88-1.74,5.78,5.78,0,0,0-2.72-.6,4,4,0,0,0-3.82,2.44,14.85,14.85,0,0,0-1.19,6.43Z"/><path d="M115.67,542.8a45.42,45.42,0,0,0,1.82,12.89,47.49,47.49,0,0,0,5.41,11.89,1,1,0,0,1,.17.83,1,1,0,0,1-.38.46l-1.26.78a58.61,58.61,0,0,1-3.88-6.85,45.66,45.66,0,0,1-2.55-6.6,42.81,42.81,0,0,1-1.41-6.59,53,53,0,0,1,0-13.63,42.69,42.69,0,0,1,1.41-6.6,45.66,45.66,0,0,1,2.55-6.6,58.7,58.7,0,0,1,3.88-6.86l1.26.78a1,1,0,0,1,.38.47.93.93,0,0,1-.17.82,47.55,47.55,0,0,0-5.41,11.9A45.46,45.46,0,0,0,115.67,542.8Z"/><path d="M128.24,536.08a17.35,17.35,0,0,1,4.92-3.54,13.72,13.72,0,0,1,5.85-1.2,10.67,10.67,0,0,1,4.2.77,7.78,7.78,0,0,1,3,2.19,9.57,9.57,0,0,1,1.78,3.45,15.83,15.83,0,0,1,.6,4.51V561.7h-1.14a1,1,0,0,1-1.11-.84l-.42-3.84a31.28,31.28,0,0,1-2.44,2.16,14.7,14.7,0,0,1-2.54,1.62,13,13,0,0,1-2.85,1,14.67,14.67,0,0,1-3.36.36,9.9,9.9,0,0,1-3-.45,7.46,7.46,0,0,1-2.56-1.38,6.67,6.67,0,0,1-1.8-2.38,8.28,8.28,0,0,1-.68-3.5,6.2,6.2,0,0,1,1.08-3.51,8.85,8.85,0,0,1,3.39-2.82,22.56,22.56,0,0,1,5.93-1.92,51.33,51.33,0,0,1,8.68-.84v-3.12a10,10,0,0,0-1.78-6.37,6.38,6.38,0,0,0-5.3-2.24,10,10,0,0,0-3.67.6,13.07,13.07,0,0,0-2.57,1.32,16.17,16.17,0,0,0-1.71,1.32,1.85,1.85,0,0,1-1.11.6.91.91,0,0,1-.54-.15,1.35,1.35,0,0,1-.36-.39Zm17.55,11.19a55.84,55.84,0,0,0-7.33.68,21.16,21.16,0,0,0-5.07,1.42,7.6,7.6,0,0,0-3,2.15,4.51,4.51,0,0,0-1,2.83,6.28,6.28,0,0,0,.5,2.6,5.07,5.07,0,0,0,1.32,1.8,5.23,5.23,0,0,0,1.9,1,7.66,7.66,0,0,0,2.25.33,12.84,12.84,0,0,0,3.2-.37,11.84,11.84,0,0,0,2.7-1,13.17,13.17,0,0,0,2.32-1.61q1.08-.93,2.13-2Z"/><path d="M160.85,537.07a16.94,16.94,0,0,1,4.79-4.14,11.9,11.9,0,0,1,6-1.56,11.24,11.24,0,0,1,4.34.78,7.94,7.94,0,0,1,3.1,2.25,10,10,0,0,1,1.86,3.54,16.06,16.06,0,0,1,.63,4.68V561.7h-2.88V542.62a10.21,10.21,0,0,0-1.92-6.58q-1.92-2.38-5.85-2.39a10.58,10.58,0,0,0-5.44,1.49,15.38,15.38,0,0,0-4.52,4.12V561.7h-2.88V531.85h1.59a.8.8,0,0,1,.87.75Z"/><path d="M214.34,518.05V561.7h-1.56a.82.82,0,0,1-.9-.78l-.3-4.71A15.89,15.89,0,0,1,207,560.5a11.29,11.29,0,0,1-5.94,1.59,10.38,10.38,0,0,1-8.58-3.81q-3.06-3.81-3.06-11.43a21,21,0,0,1,.86-6.1,14.64,14.64,0,0,1,2.5-4.92,11.86,11.86,0,0,1,4.07-3.29,12.33,12.33,0,0,1,5.56-1.2,11.61,11.61,0,0,1,5.25,1.11,11,11,0,0,1,3.87,3.3v-17.7Zm-2.85,20.22a10.21,10.21,0,0,0-3.79-3.63,11.45,11.45,0,0,0-9.38-.09,9.09,9.09,0,0,0-3.31,2.72,12.23,12.23,0,0,0-2,4.2,20.16,20.16,0,0,0-.68,5.38q0,6.66,2.45,9.8a8.41,8.41,0,0,0,7.06,3.13,9.88,9.88,0,0,0,5.37-1.53,14.6,14.6,0,0,0,4.29-4.29Z"/><path d="M274.58,519.25V561.7h-3.09V541.36H244.91V561.7h-3.09V519.25h3.09v19.8h26.58v-19.8Z"/><path d="M296.63,531.37a14.38,14.38,0,0,1,5.75,1.1,11.68,11.68,0,0,1,4.27,3.1,13.79,13.79,0,0,1,2.66,4.85,22.51,22.51,0,0,1,0,12.67,13.78,13.78,0,0,1-2.66,4.83,11.54,11.54,0,0,1-4.27,3.09,15.82,15.82,0,0,1-11.49,0,11.7,11.7,0,0,1-4.29-3.09,13.64,13.64,0,0,1-2.67-4.83,22.27,22.27,0,0,1,0-12.67,13.65,13.65,0,0,1,2.67-4.85,11.84,11.84,0,0,1,4.29-3.1A14.33,14.33,0,0,1,296.63,531.37Zm0,28.47a11.12,11.12,0,0,0,4.67-.91,8.84,8.84,0,0,0,3.33-2.63,11.55,11.55,0,0,0,2-4.12,22.5,22.5,0,0,0,0-10.82,11.69,11.69,0,0,0-2-4.15,8.92,8.92,0,0,0-3.33-2.66,12.17,12.17,0,0,0-9.33,0,8.92,8.92,0,0,0-3.33,2.66,11.89,11.89,0,0,0-2,4.15,21.86,21.86,0,0,0,0,10.82,11.74,11.74,0,0,0,2,4.12,8.84,8.84,0,0,0,3.33,2.63A11.07,11.07,0,0,0,296.63,559.84Z"/><path d="M357.38,531.85l-10,29.85h-2.13q-.51,0-.69-.63l-8.16-24.24q-.15-.45-.27-.9T336,535a11.85,11.85,0,0,1-.45,1.8l-8.28,24.24a.73.73,0,0,1-.72.63h-2l-10-29.85h2.16a1,1,0,0,1,.69.23,1.09,1.09,0,0,1,.36.49l7.53,23.55c.12.46.23.91.33,1.34s.18.85.24,1.27l.36-1.27c.12-.43.26-.88.42-1.34l8-23.76a.83.83,0,0,1,.84-.66h1.17a.85.85,0,0,1,.87.66l7.92,23.76q.21.69.39,1.32t.33,1.26c.08-.42.17-.84.26-1.26s.2-.86.34-1.32l7.59-23.55a1.08,1.08,0,0,1,.39-.52,1.05,1.05,0,0,1,.63-.2Z"/><path d="M406,521.86H391.07V561.7H388V521.86H373v-2.61h33Z"/><path d="M416.12,531.37a14.38,14.38,0,0,1,5.75,1.1,11.68,11.68,0,0,1,4.27,3.1,13.79,13.79,0,0,1,2.66,4.85,22.51,22.51,0,0,1,0,12.67,13.78,13.78,0,0,1-2.66,4.83,11.54,11.54,0,0,1-4.27,3.09,15.82,15.82,0,0,1-11.49,0,11.7,11.7,0,0,1-4.29-3.09,13.64,13.64,0,0,1-2.67-4.83,22.27,22.27,0,0,1,0-12.67,13.65,13.65,0,0,1,2.67-4.85,11.84,11.84,0,0,1,4.29-3.1A14.33,14.33,0,0,1,416.12,531.37Zm0,28.47a11.12,11.12,0,0,0,4.67-.91,8.84,8.84,0,0,0,3.33-2.63,11.55,11.55,0,0,0,2-4.12,22.5,22.5,0,0,0,0-10.82,11.69,11.69,0,0,0-2-4.15,8.92,8.92,0,0,0-3.33-2.66,12.17,12.17,0,0,0-9.33,0,8.92,8.92,0,0,0-3.33,2.66,11.89,11.89,0,0,0-2,4.15,21.86,21.86,0,0,0,0,10.82,11.74,11.74,0,0,0,2,4.12,8.84,8.84,0,0,0,3.33,2.63A11.07,11.07,0,0,0,416.12,559.84Z"/><path d="M440.69,542.8a45.46,45.46,0,0,0-1.81-12.91,47.59,47.59,0,0,0-5.42-11.9.92.92,0,0,1-.16-.82,1,1,0,0,1,.37-.47l1.26-.78a58.84,58.84,0,0,1,3.89,6.86,45.66,45.66,0,0,1,2.55,6.6,42.69,42.69,0,0,1,1.41,6.6,54.22,54.22,0,0,1,0,13.63,42.81,42.81,0,0,1-1.41,6.59,45.66,45.66,0,0,1-2.55,6.6,58.75,58.75,0,0,1-3.89,6.85l-1.26-.78a1,1,0,0,1-.37-.46.94.94,0,0,1,.16-.83,47.53,47.53,0,0,0,5.42-11.89A45.42,45.42,0,0,0,440.69,542.8Z"/><g id="CareerPlaybook"><path d="M134,144.92h-6.29l-2.61,16h-7.78l2.62-16H111.3v-7.15h9.84l1.72-10.31h-8.63v-7.15H124l2.7-16.25h7.73l-2.65,16.25h6.29l2.69-16.25h7.77l-2.69,16.25h9v7.15H144.7L143,137.77h8.94v7.15H141.81l-2.62,16h-7.77Zm-5.11-7.15h6.29l1.71-10.31h-6.29Z" fill="#da2222"/><path d="M204.54,141.76l.08.23q.15,9.73-5.49,14.75t-16,5q-10.55,0-16.93-6.45t-6.39-16.87V126.56q0-10.38,6.16-16.85t16.27-6.47q10.81,0,16.73,5t5.77,14.65l-.12.23H191.77q0-5.23-2.23-7.5c-1.48-1.51-3.92-2.26-7.3-2.26A7.73,7.73,0,0,0,175.4,117q-2.39,3.59-2.38,9.51v12q0,6,2.61,9.57a8.74,8.74,0,0,0,7.5,3.59q4.55,0,6.55-2.26t2-7.58Z" fill="#da2222"/><path d="M235.56,160.9a15.65,15.65,0,0,1-1.27-3,23,23,0,0,1-.8-3.51,16.18,16.18,0,0,1-4.24,5.37,10.25,10.25,0,0,1-6.58,2q-6.64,0-10.34-3.42a12.08,12.08,0,0,1-3.69-9.32,11.27,11.27,0,0,1,4.73-9.7q4.73-3.42,14.34-3.42h5.42v-3a6,6,0,0,0-1.28-4.14,5,5,0,0,0-3.95-1.45,4.74,4.74,0,0,0-3.42,1.08,4.47,4.47,0,0,0-1.11,3.34l-12.81,0-.08-.23q-.27-5.79,4.82-9.67t13.46-3.89q7.85,0,12.71,3.91T246.34,133v15.94a33.17,33.17,0,0,0,.56,6.25,34.42,34.42,0,0,0,1.7,5.78Zm-9.3-8.56a8,8,0,0,0,4.28-1.13,6.45,6.45,0,0,0,2.59-2.69v-5.59h-5.31q-3.16,0-4.57,1.52a5.48,5.48,0,0,0-1.4,3.87,3.73,3.73,0,0,0,1.23,2.91A4.57,4.57,0,0,0,226.26,152.34Z" fill="#da2222"/><path d="M276.92,129.92l-4.29,0a7.3,7.3,0,0,0-3.71.84,5.15,5.15,0,0,0-2.15,2.37v27.85H253.56V118.67H266l.47,6.21a12.64,12.64,0,0,1,3.51-5.15,7.69,7.69,0,0,1,5.12-1.84,9.57,9.57,0,0,1,1.6.12,11.62,11.62,0,0,1,1.48.35Z" fill="#da2222"/><path d="M299.78,161.76q-9.61,0-15.06-5.82t-5.45-14.73v-1.48q0-9.69,5.13-15.78t14.87-6.06q8.55,0,13.26,5.12t4.71,14V144H293l-.08.23a8.24,8.24,0,0,0,2.46,5.37,8.58,8.58,0,0,0,6.17,2,27.13,27.13,0,0,0,6.31-.62,39.19,39.19,0,0,0,5.76-2l3.17,8.05a24.12,24.12,0,0,1-7.35,3.36A33.9,33.9,0,0,1,299.78,161.76Zm-.51-33.71a5.45,5.45,0,0,0-4.67,2,10.15,10.15,0,0,0-1.74,5.45l.08.19h11.41v-1a8.76,8.76,0,0,0-1.16-5A4.41,4.41,0,0,0,299.27,128.05Z" fill="#da2222"/><path d="M341.57,161.76q-9.6,0-15.06-5.82a20.71,20.71,0,0,1-5.45-14.73v-1.48q0-9.69,5.14-15.78t14.86-6.06q8.56,0,13.27,5.12t4.7,14V144H334.81l-.07.23a8.14,8.14,0,0,0,2.46,5.37,8.58,8.58,0,0,0,6.17,2,27.19,27.19,0,0,0,6.31-.62,39.19,39.19,0,0,0,5.76-2L358.6,157a24.06,24.06,0,0,1-7.34,3.36A33.92,33.92,0,0,1,341.57,161.76Zm-.51-33.71a5.44,5.44,0,0,0-4.66,2,10,10,0,0,0-1.74,5.45l.08.19h11.4v-1a8.76,8.76,0,0,0-1.15-5A4.42,4.42,0,0,0,341.06,128.05Z" fill="#da2222"/><path d="M388,129.92l-4.3,0a7.3,7.3,0,0,0-3.71.84,5.21,5.21,0,0,0-2.15,2.37v27.85h-13.2V118.67H377l.47,6.21a12.65,12.65,0,0,1,3.52-5.15,7.66,7.66,0,0,1,5.11-1.84,9.49,9.49,0,0,1,1.6.12,11.75,11.75,0,0,1,1.49.35Z" fill="#da2222"/><path d="M406.81,141.45v19.49H393.6V104.06h21.72q10.13,0,16.06,5.16a18.43,18.43,0,0,1,0,27.09q-5.94,5.13-16.06,5.14Zm0-10.16h8.51c2.87,0,5.05-.79,6.56-2.36a8.43,8.43,0,0,0,2.27-6.08,8.78,8.78,0,0,0-2.25-6.21c-1.49-1.61-3.69-2.42-6.58-2.42h-8.51Z" fill="#da2222"/><path d="M457.67,160.94H444.42V100h13.25Z" fill="#da2222"/><path d="M490.17,160.9a15.65,15.65,0,0,1-1.27-3,21.88,21.88,0,0,1-.8-3.51,16.18,16.18,0,0,1-4.24,5.37,10.25,10.25,0,0,1-6.58,2q-6.64,0-10.34-3.42a12.08,12.08,0,0,1-3.69-9.32,11.27,11.27,0,0,1,4.73-9.7q4.72-3.42,14.33-3.42h5.43v-3a6.05,6.05,0,0,0-1.28-4.14,5,5,0,0,0-3.95-1.45,4.74,4.74,0,0,0-3.42,1.08,4.47,4.47,0,0,0-1.11,3.34l-12.81,0-.08-.23q-.27-5.79,4.82-9.67t13.46-3.89q7.85,0,12.71,3.91T501,133v15.94a33.17,33.17,0,0,0,.56,6.25,34.42,34.42,0,0,0,1.7,5.78Zm-9.3-8.56a8,8,0,0,0,4.28-1.13,6.45,6.45,0,0,0,2.59-2.69v-5.59h-5.31q-3.17,0-4.57,1.52a5.48,5.48,0,0,0-1.4,3.87,3.73,3.73,0,0,0,1.23,2.91A4.57,4.57,0,0,0,480.87,152.34Z" fill="#da2222"/><path d="M524,142.3l0,.32h.24l7-24h14.06l-16.83,48.56a23.55,23.55,0,0,1-5,7.73q-3.09,3-9.81,3a14.46,14.46,0,0,1-2.81-.22c-.73-.14-1.87-.41-3.44-.8l1.61-9.41.82.17a3.31,3.31,0,0,0,.7.06,8.71,8.71,0,0,0,4.57-.92,5.47,5.47,0,0,0,2.15-2.75l1-2.73-14.61-42.74h14Z" fill="#da2222"/><path d="M587.86,140.7q0,9.66-4.14,15.35t-12.26,5.71a11.84,11.84,0,0,1-6-1.49A13.05,13.05,0,0,1,561,156l-.79,5H548.72V100h13.2v22.77a12.9,12.9,0,0,1,4.09-3.61,11,11,0,0,1,5.37-1.27q8.16,0,12.32,6t4.16,16Zm-13.16-.82a21.67,21.67,0,0,0-1.41-8.73,5.22,5.22,0,0,0-5.23-3.1,7.79,7.79,0,0,0-3.69.8,6,6,0,0,0-2.45,2.32V149a5.85,5.85,0,0,0,2.48,2,9.5,9.5,0,0,0,3.73.66c2.61,0,4.35-.9,5.24-2.71s1.33-4.54,1.33-8.19Z" fill="#da2222"/><path d="M591.92,139.41q0-9.53,5.39-15.52t15-6q9.69,0,15.08,6t5.39,15.52v.82q0,9.59-5.39,15.55t-15,6q-9.72,0-15.12-6t-5.39-15.55Zm13.21.82a17.39,17.39,0,0,0,1.66,8.34c1.1,2,3,3,5.64,3a5.83,5.83,0,0,0,5.55-3,17.3,17.3,0,0,0,1.68-8.32v-.82a17.4,17.4,0,0,0-1.68-8.26,5.89,5.89,0,0,0-5.63-3.1,5.79,5.79,0,0,0-5.56,3.12,17.56,17.56,0,0,0-1.66,8.24Z" fill="#da2222"/><path d="M636.88,139.41q0-9.53,5.4-15.52t15-6q9.69,0,15.08,6t5.39,15.52v.82q0,9.59-5.39,15.55t-15,6q-9.72,0-15.11-6t-5.4-15.55Zm13.21.82a17.39,17.39,0,0,0,1.66,8.34,5.91,5.91,0,0,0,5.64,3,5.83,5.83,0,0,0,5.55-3,17.3,17.3,0,0,0,1.68-8.32v-.82a17.4,17.4,0,0,0-1.68-8.26,5.88,5.88,0,0,0-5.63-3.1,5.8,5.8,0,0,0-5.56,3.12,17.56,17.56,0,0,0-1.66,8.24Z" fill="#da2222"/><path d="M699.19,144.14h-2.38v16.8H683.6V100h13.21v34.18h1.87l8.91-15.51h15.12l-13,19.06,15.15,23.21h-15Z" fill="#da2222"/></g></svg>