<svg id="Layer_1" data-name="Layer 1" xmlns="http://www.w3.org/2000/svg" viewBox="0 0 1200 628"><title>CP002_blog</title><rect id="White" width="1200" height="628" fill="#fff"/><g id="_002" data-name="002"><path d="M150.56,230a45.82,45.82,0,0,1-1.6,12.88,27,27,0,0,1-4.36,9,17.67,17.67,0,0,1-6.46,5.3,18.76,18.76,0,0,1-15.78,0,17.78,17.78,0,0,1-6.44-5.3,26.58,26.58,0,0,1-4.34-9,53.29,53.29,0,0,1,0-25.76,26.58,26.58,0,0,1,4.34-9,17.78,17.78,0,0,1,6.44-5.3,18.76,18.76,0,0,1,15.78,0,17.67,17.67,0,0,1,6.46,5.3,27,27,0,0,1,4.36,9A45.82,45.82,0,0,1,150.56,230Zm-4,0a45.5,45.5,0,0,0-1.32-11.76,24.8,24.8,0,0,0-3.54-8,13.76,13.76,0,0,0-5.2-4.54,14.21,14.21,0,0,0-6.26-1.44,13.69,13.69,0,0,0-11.44,6,24.6,24.6,0,0,0-3.56,8,53.13,53.13,0,0,0,0,23.54,24.57,24.57,0,0,0,3.56,8,13.83,13.83,0,0,0,5.2,4.52,14.18,14.18,0,0,0,6.24,1.42,14.33,14.33,0,0,0,6.26-1.42,13.61,13.61,0,0,0,5.2-4.52,24.78,24.78,0,0,0,3.54-8A45.51,45.51,0,0,0,146.56,230Z"/><path d="M197,230a45.82,45.82,0,0,1-1.6,12.88,27,27,0,0,1-4.36,9,17.67,17.67,0,0,1-6.46,5.3,18.76,18.76,0,0,1-15.78,0,17.78,17.78,0,0,1-6.44-5.3,26.58,26.58,0,0,1-4.34-9,53.29,53.29,0,0,1,0-25.76,26.58,26.58,0,0,1,4.34-9,17.78,17.78,0,0,1,6.44-5.3,18.76,18.76,0,0,1,15.78,0,17.67,17.67,0,0,1,6.46,5.3,27,27,0,0,1,4.36,9A45.82,45.82,0,0,1,197,230Zm-4,0a45.5,45.5,0,0,0-1.32-11.76,24.8,24.8,0,0,0-3.54-8,13.76,13.76,0,0,0-5.2-4.54,14.21,14.21,0,0,0-6.26-1.44,13.69,13.69,0,0,0-11.44,6,24.6,24.6,0,0,0-3.56,8,53.13,53.13,0,0,0,0,23.54,24.57,24.57,0,0,0,3.56,8,13.83,13.83,0,0,0,5.2,4.52,14.18,14.18,0,0,0,6.24,1.42,14.33,14.33,0,0,0,6.26-1.42,13.61,13.61,0,0,0,5.2-4.52,24.78,24.78,0,0,0,3.54-8A45.51,45.51,0,0,0,193,230Z"/><path d="M239.64,254.68a1.33,1.33,0,0,1,1,.38,1.36,1.36,0,0,1,.36,1v2.24H204.48v-1.36a2.05,2.05,0,0,1,.22-.9,2.28,2.28,0,0,1,.58-.78l19.32-19.56Q227,233.24,229,231a37,37,0,0,0,3.54-4.6,21.87,21.87,0,0,0,2.34-4.76,15.88,15.88,0,0,0,.84-5.2,13.1,13.1,0,0,0-1-5.42A11,11,0,0,0,232,207.2a11.23,11.23,0,0,0-4-2.2,15.61,15.61,0,0,0-4.72-.72,14.26,14.26,0,0,0-4.94.82,13.23,13.23,0,0,0-4,2.28,12.46,12.46,0,0,0-2.88,3.48,14,14,0,0,0-1.58,4.42,2.06,2.06,0,0,1-.74,1.16,2,2,0,0,1-1.26.2l-2-.32a19.77,19.77,0,0,1,2-6.48,16,16,0,0,1,3.76-4.8,15.76,15.76,0,0,1,5.28-3,20.94,20.94,0,0,1,12.66-.08,15.2,15.2,0,0,1,5.2,2.84,13.6,13.6,0,0,1,3.58,4.76,15.86,15.86,0,0,1,1.32,6.7,17.62,17.62,0,0,1-1,5.94,24.31,24.31,0,0,1-2.66,5.26,38.76,38.76,0,0,1-3.9,4.9c-1.48,1.59-3,3.21-4.66,4.86l-17.72,18.08a22,22,0,0,1,2.66-.48,23.31,23.31,0,0,1,2.78-.16Z"/><path d="M124,345.7h-9.87V303.05H124Z"/><path d="M140.18,314l.35,4.19a10.48,10.48,0,0,1,3.76-3.53,10.66,10.66,0,0,1,5.2-1.24,9.71,9.71,0,0,1,5.1,1.29,7.9,7.9,0,0,1,3.22,3.92,10.63,10.63,0,0,1,3.77-3.85,10.3,10.3,0,0,1,5.37-1.36,8.8,8.8,0,0,1,7.28,3.32q2.66,3.33,2.65,10.24V345.7H167V327c0-2.26-.31-3.82-.95-4.67a3.33,3.33,0,0,0-2.86-1.27,6,6,0,0,0-2.53.51,5.31,5.31,0,0,0-1.86,1.42c0,.33,0,.62,0,.86s0,.49,0,.72V345.7h-9.9V327c0-2.28-.32-3.85-.94-4.69a3.4,3.4,0,0,0-2.9-1.25,5.74,5.74,0,0,0-2.45.51,5.31,5.31,0,0,0-1.86,1.42V345.7h-9.9V314Z"/><path d="M211.89,330.53q0,7.14-3.22,11.47a10.66,10.66,0,0,1-9.08,4.32,9,9,0,0,1-4.06-.88,9.15,9.15,0,0,1-3.09-2.55v15h-9.9V314h9.34l.3,3.46a9.72,9.72,0,0,1,3.15-3,8.29,8.29,0,0,1,4.2-1.05,10.55,10.55,0,0,1,9.13,4.54q3.22,4.55,3.23,12Zm-9.87-.62a15,15,0,0,0-1.17-6.44A3.91,3.91,0,0,0,197.1,321a6,6,0,0,0-2.83.61,4.56,4.56,0,0,0-1.83,1.79v13.24a4.26,4.26,0,0,0,1.86,1.52,7.11,7.11,0,0,0,2.86.5,3.89,3.89,0,0,0,3.73-2.15,13.06,13.06,0,0,0,1.13-6Z"/><path d="M214.94,329.56q0-7.15,4-11.64t11.28-4.5q7.28,0,11.31,4.5t4.05,11.64v.62q0,7.17-4.05,11.66t-11.25,4.48q-7.29,0-11.34-4.48t-4-11.66Zm9.9.62a13.09,13.09,0,0,0,1.25,6.25,4.43,4.43,0,0,0,4.23,2.27,4.37,4.37,0,0,0,4.16-2.28,13,13,0,0,0,1.26-6.24v-.62a13.07,13.07,0,0,0-1.26-6.2,4.41,4.41,0,0,0-4.22-2.32,4.35,4.35,0,0,0-4.17,2.34,13.17,13.17,0,0,0-1.25,6.18Z"/><path d="M266.5,336.8a2.59,2.59,0,0,0-1.33-2.1,14.52,14.52,0,0,0-4.85-1.65c-3.69-.73-6.47-1.84-8.35-3.36a7.6,7.6,0,0,1-2.81-6.25,8.91,8.91,0,0,1,3.52-7.11q3.51-2.91,9.52-2.91c4.22,0,7.57.94,10.08,2.83a8.29,8.29,0,0,1,3.57,7.3l-.06.18h-9.61a3.89,3.89,0,0,0-.94-2.84,4.11,4.11,0,0,0-3.07-1,4.05,4.05,0,0,0-2.61.85,2.68,2.68,0,0,0-1.05,2.17,2.58,2.58,0,0,0,1.21,2.14,13.93,13.93,0,0,0,4.91,1.58q5.83,1.14,8.61,3.41A7.83,7.83,0,0,1,276,336.5a8.4,8.4,0,0,1-3.8,7.05q-3.8,2.77-10,2.77-6.48,0-10.24-3.28t-3.59-7.33l.06-.17h9a4,4,0,0,0,1.36,3.25,6,6,0,0,0,3.71,1,5,5,0,0,0,3-.78A2.62,2.62,0,0,0,266.5,336.8Z"/><path d="M292.05,306.12V314h5v6.86h-5v14.53a3.57,3.57,0,0,0,.69,2.45,2.43,2.43,0,0,0,1.86.74c.51,0,.91,0,1.22-.05a10.42,10.42,0,0,0,1.15-.24l.68,7.33a25.7,25.7,0,0,1-2.7.54,23.11,23.11,0,0,1-2.84.16q-4.89,0-7.43-2.61t-2.53-8.26V320.86h-4.43V314h4.43v-7.88Z"/><path d="M315.93,346.32q-7.21,0-11.3-4.37a15.53,15.53,0,0,1-4.08-11v-1.12q0-7.26,3.85-11.83t11.15-4.54q6.4,0,9.94,3.84T329,327.77V333H310.86l-.06.17a6.14,6.14,0,0,0,1.85,4,6.41,6.41,0,0,0,4.63,1.54,20.2,20.2,0,0,0,4.73-.47,29.82,29.82,0,0,0,4.32-1.49l2.37,6a17.93,17.93,0,0,1-5.51,2.52A25.13,25.13,0,0,1,315.93,346.32ZM315.55,321a4.08,4.08,0,0,0-3.5,1.5,7.55,7.55,0,0,0-1.31,4.09l.06.15h8.56V326a6.59,6.59,0,0,0-.87-3.73A3.32,3.32,0,0,0,315.55,321Z"/><path d="M350.73,322.44l-3.22,0a5.47,5.47,0,0,0-2.78.63,3.84,3.84,0,0,0-1.61,1.77V345.7h-9.91V314h9.32l.35,4.66a9.49,9.49,0,0,1,2.64-3.87,5.81,5.81,0,0,1,3.84-1.37,7.24,7.24,0,0,1,1.2.09,7.34,7.34,0,0,1,1.11.26Z"/><path d="M385.83,336.8a2.59,2.59,0,0,0-1.33-2.1,14.61,14.61,0,0,0-4.85-1.65c-3.69-.73-6.48-1.84-8.35-3.36a7.58,7.58,0,0,1-2.81-6.25,8.93,8.93,0,0,1,3.51-7.11q3.53-2.91,9.52-2.91,6.33,0,10.08,2.83a8.32,8.32,0,0,1,3.58,7.3l-.06.18h-9.61a3.89,3.89,0,0,0-.94-2.84,4.14,4.14,0,0,0-3.08-1,4,4,0,0,0-2.6.85,2.66,2.66,0,0,0-1.06,2.17,2.59,2.59,0,0,0,1.22,2.14,13.86,13.86,0,0,0,4.91,1.58q5.82,1.14,8.61,3.41a7.85,7.85,0,0,1,2.78,6.43,8.39,8.39,0,0,1-3.79,7.05q-3.8,2.77-10,2.77-6.47,0-10.24-3.28t-3.58-7.33l.05-.17h9a4,4,0,0,0,1.36,3.25,6,6,0,0,0,3.71,1,4.89,4.89,0,0,0,3-.78A2.6,2.6,0,0,0,385.83,336.8Z"/><path d="M412.29,331.73l0,.23h.18l5.24-18h10.55l-12.63,36.42a17.39,17.39,0,0,1-3.77,5.8c-1.55,1.52-4,2.29-7.36,2.29a11,11,0,0,1-2.11-.17q-.81-.15-2.58-.6l1.21-7.06.61.14a3.59,3.59,0,0,0,.53,0,6.6,6.6,0,0,0,3.43-.69,4.11,4.11,0,0,0,1.61-2.06l.79-2.06-11-32.05h10.52Z"/><path d="M440,314l.38,4.46a11.6,11.6,0,0,1,3.84-3.71,9.9,9.9,0,0,1,5.1-1.33,8.94,8.94,0,0,1,7.28,3.16q2.61,3.17,2.62,10.05V345.7h-9.9V326.6a7.29,7.29,0,0,0-1-4.29,3.3,3.3,0,0,0-2.81-1.27,7,7,0,0,0-2.84.55,5.65,5.65,0,0,0-2.11,1.58V345.7h-9.88V314Z"/><path d="M463.26,329.91q0-7.41,3.24-12a10.55,10.55,0,0,1,9.12-4.54,7.79,7.79,0,0,1,4,1,10.25,10.25,0,0,1,3.18,2.88V300h9.91v45.7H484l-.67-3.86a10.8,10.8,0,0,1-3.35,3.32,8.39,8.39,0,0,1-4.41,1.16,10.67,10.67,0,0,1-9.09-4.34q-3.21-4.34-3.22-11.45Zm9.9.62a13.19,13.19,0,0,0,1.13,6,4,4,0,0,0,3.8,2.15,6.3,6.3,0,0,0,2.74-.57,4.84,4.84,0,0,0,1.94-1.68V323.64a5.15,5.15,0,0,0-4.63-2.6,4,4,0,0,0-3.8,2.43,14.82,14.82,0,0,0-1.18,6.44Z"/><path d="M515.82,322.44l-3.22,0a5.51,5.51,0,0,0-2.79.63,3.89,3.89,0,0,0-1.61,1.77V345.7h-9.9V314h9.32l.35,4.66a9.49,9.49,0,0,1,2.64-3.87,5.8,5.8,0,0,1,3.83-1.37,7.69,7.69,0,0,1,2.32.35Z"/><path d="M517.55,329.56q0-7.15,4-11.64t11.28-4.5q7.26,0,11.31,4.5t4,11.64v.62q0,7.17-4,11.66t-11.25,4.48q-7.29,0-11.34-4.48t-4-11.66Zm9.9.62a13.09,13.09,0,0,0,1.25,6.25,4.43,4.43,0,0,0,4.23,2.27,4.38,4.38,0,0,0,4.16-2.28,13,13,0,0,0,1.26-6.24v-.62a13.07,13.07,0,0,0-1.26-6.2,4.41,4.41,0,0,0-4.22-2.32,4.35,4.35,0,0,0-4.17,2.34,13.17,13.17,0,0,0-1.25,6.18Z"/><path d="M561.9,314l.36,4.19a10.48,10.48,0,0,1,3.76-3.53,10.63,10.63,0,0,1,5.2-1.24,9.71,9.71,0,0,1,5.1,1.29,8,8,0,0,1,3.22,3.92,10.63,10.63,0,0,1,3.77-3.85,10.3,10.3,0,0,1,5.37-1.36,8.82,8.82,0,0,1,7.28,3.32q2.65,3.33,2.65,10.24V345.7h-9.93V327c0-2.26-.32-3.82-.95-4.67a3.35,3.35,0,0,0-2.86-1.27,6,6,0,0,0-2.53.51,5.31,5.31,0,0,0-1.86,1.42c0,.33,0,.62,0,.86s0,.49,0,.72V345.7h-9.91V327c0-2.28-.31-3.85-.93-4.69a3.41,3.41,0,0,0-2.9-1.25,5.74,5.74,0,0,0-2.45.51,5.31,5.31,0,0,0-1.86,1.42V345.7h-9.9V314Z"/><path d="M618.33,346.32q-7.2,0-11.29-4.37a15.5,15.5,0,0,1-4.09-11v-1.12q0-7.26,3.85-11.83T618,313.42q6.42,0,9.95,3.84t3.53,10.51V333H613.26l-.06.17a6.14,6.14,0,0,0,1.85,4,6.42,6.42,0,0,0,4.63,1.54,20.2,20.2,0,0,0,4.73-.47,29.82,29.82,0,0,0,4.32-1.49l2.37,6a17.86,17.86,0,0,1-5.5,2.52A25.25,25.25,0,0,1,618.33,346.32ZM618,321a4.09,4.09,0,0,0-3.5,1.5,7.63,7.63,0,0,0-1.31,4.09l.06.15h8.56V326a6.59,6.59,0,0,0-.87-3.73A3.31,3.31,0,0,0,618,321Z"/><path d="M123.33,378.65H113.4V372h9.93Zm0,39.05H113.4V386h9.93Z"/><path d="M145.92,408.8a2.61,2.61,0,0,0-1.34-2.1,14.45,14.45,0,0,0-4.84-1.65c-3.7-.73-6.48-1.84-8.35-3.36a7.58,7.58,0,0,1-2.82-6.25,8.94,8.94,0,0,1,3.52-7.11q3.51-2.91,9.52-2.91,6.33,0,10.08,2.83a8.29,8.29,0,0,1,3.57,7.3l0,.18H145.6a3.94,3.94,0,0,0-.94-2.84,4.14,4.14,0,0,0-3.08-1,4.09,4.09,0,0,0-2.61.85,2.68,2.68,0,0,0-1.05,2.17,2.59,2.59,0,0,0,1.22,2.14,13.86,13.86,0,0,0,4.9,1.58q5.84,1.14,8.62,3.41a7.85,7.85,0,0,1,2.78,6.43,8.42,8.42,0,0,1-3.79,7.05q-3.79,2.77-10,2.77-6.48,0-10.24-3.28c-2.51-2.19-3.7-4.63-3.59-7.33l.06-.17h9a4,4,0,0,0,1.36,3.25,6,6,0,0,0,3.71,1,4.91,4.91,0,0,0,3-.78A2.6,2.6,0,0,0,145.92,408.8Z"/><path d="M184.36,386l.35,4.19a10.48,10.48,0,0,1,3.76-3.53,10.63,10.63,0,0,1,5.2-1.24,9.71,9.71,0,0,1,5.1,1.29,8,8,0,0,1,3.22,3.92,10.63,10.63,0,0,1,3.77-3.85,10.3,10.3,0,0,1,5.37-1.36,8.8,8.8,0,0,1,7.28,3.32q2.66,3.33,2.65,10.24V417.7h-9.93V399c0-2.26-.32-3.82-.95-4.67a3.33,3.33,0,0,0-2.86-1.27,6,6,0,0,0-2.53.51,5.31,5.31,0,0,0-1.86,1.42c0,.33,0,.62,0,.86s0,.49,0,.72V417.7h-9.9V399c0-2.28-.32-3.85-.94-4.69a3.4,3.4,0,0,0-2.9-1.25,5.74,5.74,0,0,0-2.45.51,5.31,5.31,0,0,0-1.86,1.42V417.7H175V386Z"/><path d="M225.4,401.56q0-7.15,4-11.64t11.28-4.5q7.28,0,11.31,4.5t4,11.64v.62q0,7.17-4,11.66t-11.25,4.48q-7.29,0-11.34-4.48t-4-11.66Zm9.9.62a13.09,13.09,0,0,0,1.25,6.25,4.43,4.43,0,0,0,4.23,2.27,4.38,4.38,0,0,0,4.16-2.28,13,13,0,0,0,1.26-6.24v-.62a13.07,13.07,0,0,0-1.26-6.2,4.41,4.41,0,0,0-4.22-2.32,4.35,4.35,0,0,0-4.17,2.34,13.17,13.17,0,0,0-1.25,6.18Z"/><path d="M278,394.44l-3.22,0A5.51,5.51,0,0,0,272,395a3.89,3.89,0,0,0-1.61,1.77V417.7h-9.9V386h9.32l.35,4.66a9.57,9.57,0,0,1,2.63-3.87,5.85,5.85,0,0,1,3.84-1.37,7.16,7.16,0,0,1,1.2.09,7.45,7.45,0,0,1,1.12.26Z"/><path d="M295.1,418.32q-7.22,0-11.3-4.37a15.53,15.53,0,0,1-4.08-11v-1.12q0-7.26,3.85-11.83t11.15-4.54q6.4,0,9.94,3.84t3.53,10.51V405H290l-.06.17a6.14,6.14,0,0,0,1.85,4,6.41,6.41,0,0,0,4.63,1.54,20.2,20.2,0,0,0,4.73-.47,29.82,29.82,0,0,0,4.32-1.49l2.37,6a17.93,17.93,0,0,1-5.51,2.52A25.13,25.13,0,0,1,295.1,418.32ZM294.72,393a4.08,4.08,0,0,0-3.5,1.5,7.55,7.55,0,0,0-1.31,4.09l.06.15h8.56V398a6.59,6.59,0,0,0-.87-3.73A3.34,3.34,0,0,0,294.72,393Z"/><path d="M354.54,403.73h.18L357.85,386h9.44l-7.45,31.7h-8.38l-5.15-16.23h-.18L341,417.7H332.6L325.13,386h9.43l3.16,17.85h.18L343.09,386h6.24Z"/><path d="M381.2,378.65h-9.93V372h9.93Zm0,39.05h-9.93V386h9.93Z"/><path d="M386,401.91q0-7.41,3.23-12a10.55,10.55,0,0,1,9.13-4.54,7.79,7.79,0,0,1,4,1,10.48,10.48,0,0,1,3.18,2.88V372h9.9v45.7h-8.67l-.67-3.86a10.72,10.72,0,0,1-3.36,3.32,8.39,8.39,0,0,1-4.41,1.16,10.67,10.67,0,0,1-9.08-4.34q-3.23-4.34-3.22-11.45Zm9.9.62a13.19,13.19,0,0,0,1.13,6,3.94,3.94,0,0,0,3.79,2.15,6.24,6.24,0,0,0,2.74-.57,4.93,4.93,0,0,0,1.95-1.68V395.64a5.41,5.41,0,0,0-1.93-1.93,5.33,5.33,0,0,0-2.7-.67,4,4,0,0,0-3.81,2.43,15,15,0,0,0-1.17,6.44Z"/><path d="M435.05,418.32q-7.21,0-11.3-4.37a15.53,15.53,0,0,1-4.08-11v-1.12q0-7.26,3.85-11.83t11.15-4.54q6.42,0,9.94,3.84t3.53,10.51V405H430l-.06.17a6.14,6.14,0,0,0,1.85,4,6.41,6.41,0,0,0,4.63,1.54,20.2,20.2,0,0,0,4.73-.47,29.82,29.82,0,0,0,4.32-1.49l2.37,6a17.82,17.82,0,0,1-5.51,2.52A25.13,25.13,0,0,1,435.05,418.32ZM434.67,393a4.09,4.09,0,0,0-3.5,1.5,7.63,7.63,0,0,0-1.31,4.09l.06.15h8.56V398a6.59,6.59,0,0,0-.87-3.73A3.32,3.32,0,0,0,434.67,393Z"/><path d="M468.86,408.8a2.61,2.61,0,0,0-1.34-2.1,14.45,14.45,0,0,0-4.84-1.65c-3.7-.73-6.48-1.84-8.35-3.36a7.58,7.58,0,0,1-2.82-6.25,8.94,8.94,0,0,1,3.52-7.11q3.51-2.91,9.52-2.91,6.33,0,10.08,2.83a8.29,8.29,0,0,1,3.57,7.3l-.06.18h-9.6a3.94,3.94,0,0,0-.94-2.84,4.14,4.14,0,0,0-3.08-1,4.09,4.09,0,0,0-2.61.85,2.68,2.68,0,0,0-1.05,2.17,2.57,2.57,0,0,0,1.22,2.14,13.86,13.86,0,0,0,4.9,1.58q5.83,1.14,8.62,3.41a7.85,7.85,0,0,1,2.78,6.43,8.4,8.4,0,0,1-3.8,7.05q-3.78,2.77-10,2.77-6.48,0-10.24-3.28c-2.51-2.19-3.7-4.63-3.59-7.33l.06-.17h9a4,4,0,0,0,1.36,3.25,6,6,0,0,0,3.7,1,4.93,4.93,0,0,0,3-.78A2.6,2.6,0,0,0,468.86,408.8Z"/><path d="M512.39,402.53q0,7.14-3.22,11.47a10.68,10.68,0,0,1-9.08,4.32,9,9,0,0,1-4.06-.88,9.15,9.15,0,0,1-3.09-2.55v15H483V386h9.34l.3,3.46a9.53,9.53,0,0,1,3.15-3,8.29,8.29,0,0,1,4.2-1.05,10.55,10.55,0,0,1,9.13,4.54q3.22,4.55,3.23,12Zm-9.87-.62a15,15,0,0,0-1.17-6.44A3.91,3.91,0,0,0,497.6,393a6,6,0,0,0-2.83.61,4.56,4.56,0,0,0-1.83,1.79v13.24a4.26,4.26,0,0,0,1.86,1.52,7.08,7.08,0,0,0,2.86.5,3.9,3.9,0,0,0,3.73-2.15,13.19,13.19,0,0,0,1.13-6Z"/><path d="M534.28,394.44l-3.23,0a5.47,5.47,0,0,0-2.78.63,3.89,3.89,0,0,0-1.61,1.77V417.7h-9.9V386h9.31l.36,4.66a9.57,9.57,0,0,1,2.63-3.87,5.85,5.85,0,0,1,3.84-1.37,7.16,7.16,0,0,1,1.2.09,7.34,7.34,0,0,1,1.11.26Z"/><path d="M551.42,418.32q-7.21,0-11.3-4.37a15.53,15.53,0,0,1-4.08-11v-1.12q0-7.26,3.85-11.83T551,385.42q6.4,0,9.94,3.84t3.53,10.51V405H546.35l-.06.17a6.18,6.18,0,0,0,1.84,4,6.44,6.44,0,0,0,4.63,1.54,20.24,20.24,0,0,0,4.74-.47,30.67,30.67,0,0,0,4.32-1.49l2.37,6a17.93,17.93,0,0,1-5.51,2.52A25.18,25.18,0,0,1,551.42,418.32ZM551,393a4.11,4.11,0,0,0-3.51,1.5,7.63,7.63,0,0,0-1.3,4.09l.06.15h8.55V398a6.59,6.59,0,0,0-.86-3.73A3.34,3.34,0,0,0,551,393Z"/><path d="M587,417.67a11.62,11.62,0,0,1-1-2.25,18.15,18.15,0,0,1-.6-2.64,12.17,12.17,0,0,1-3.18,4,7.64,7.64,0,0,1-4.94,1.51q-5,0-7.75-2.57a9,9,0,0,1-2.76-7,8.45,8.45,0,0,1,3.54-7.28q3.54-2.57,10.75-2.57h4.08v-2.25a4.56,4.56,0,0,0-1-3.11,3.78,3.78,0,0,0-3-1.08,3.59,3.59,0,0,0-2.56.8,3.35,3.35,0,0,0-.84,2.51l-9.61,0-.06-.18a8.29,8.29,0,0,1,3.62-7.25q3.82-2.91,10.09-2.91a14.72,14.72,0,0,1,9.54,2.93q3.64,2.92,3.65,8.38v11.95a24.72,24.72,0,0,0,.42,4.69,25.35,25.35,0,0,0,1.28,4.33Zm-7-6.41a6.11,6.11,0,0,0,3.21-.85,5,5,0,0,0,2-2V404.2h-4a4.5,4.5,0,0,0-3.43,1.14,4.12,4.12,0,0,0-1,2.9,2.8,2.8,0,0,0,.92,2.18A3.42,3.42,0,0,0,580,411.26Z"/><path d="M599.2,401.91q0-7.41,3.24-12a10.53,10.53,0,0,1,9.12-4.54,7.79,7.79,0,0,1,4,1,10.48,10.48,0,0,1,3.18,2.88V372h9.9v45.7h-8.67l-.67-3.86a10.72,10.72,0,0,1-3.36,3.32,8.39,8.39,0,0,1-4.41,1.16,10.67,10.67,0,0,1-9.08-4.34q-3.23-4.34-3.22-11.45Zm9.9.62a13.19,13.19,0,0,0,1.13,6A4,4,0,0,0,614,410.7a6.24,6.24,0,0,0,2.74-.57,4.93,4.93,0,0,0,2-1.68V395.64a5.41,5.41,0,0,0-1.93-1.93,5.3,5.3,0,0,0-2.7-.67,4,4,0,0,0-3.81,2.43,15,15,0,0,0-1.17,6.44Z"/><path d="M124.33,450.12V458h5v6.86h-5v14.53a3.62,3.62,0,0,0,.68,2.45,2.44,2.44,0,0,0,1.87.74c.5,0,.91,0,1.21-.05a10.52,10.52,0,0,0,1.16-.24l.67,7.33a25.06,25.06,0,0,1-2.69.54,23.17,23.17,0,0,1-2.85.16q-4.89,0-7.42-2.61t-2.54-8.26V464.86H110V458h4.42v-7.88Z"/><path d="M143.75,461.93a10.57,10.57,0,0,1,3.5-3.33,9,9,0,0,1,4.56-1.18,9.44,9.44,0,0,1,7.73,3.43q2.82,3.42,2.81,10.63V489.7h-9.9V471.42c0-2.42-.31-4.09-.94-5a3.19,3.19,0,0,0-2.84-1.37,8,8,0,0,0-2.9.48,5.19,5.19,0,0,0-2,1.36V489.7h-9.9V444h9.9Z"/><path d="M186.17,489.67a11.62,11.62,0,0,1-.95-2.25,18.15,18.15,0,0,1-.6-2.64,12.17,12.17,0,0,1-3.18,4,7.64,7.64,0,0,1-4.94,1.51q-5,0-7.75-2.57a9,9,0,0,1-2.76-7,8.45,8.45,0,0,1,3.54-7.28q3.54-2.57,10.75-2.57h4.08v-2.25a4.56,4.56,0,0,0-1-3.11,3.78,3.78,0,0,0-3-1.08,3.59,3.59,0,0,0-2.56.8,3.35,3.35,0,0,0-.84,2.51l-9.61,0-.06-.18a8.29,8.29,0,0,1,3.62-7.25q3.83-2.91,10.09-2.91a14.72,14.72,0,0,1,9.54,2.93q3.64,2.92,3.65,8.38v11.95a24.72,24.72,0,0,0,.42,4.69A25.35,25.35,0,0,0,196,489.7Zm-7-6.41a6.11,6.11,0,0,0,3.21-.85,5,5,0,0,0,2-2V476.2h-4a4.5,4.5,0,0,0-3.43,1.14,4.12,4.12,0,0,0-1.05,2.9,2.8,2.8,0,0,0,.92,2.18A3.42,3.42,0,0,0,179.2,483.26Z"/><path d="M208.79,458l.38,4.46a11.51,11.51,0,0,1,3.84-3.71,9.9,9.9,0,0,1,5.1-1.33,8.94,8.94,0,0,1,7.28,3.16q2.61,3.17,2.62,10.05V489.7h-9.9V470.6a7.29,7.29,0,0,0-1-4.29,3.31,3.31,0,0,0-2.81-1.27,7,7,0,0,0-2.85.55,5.61,5.61,0,0,0-2.1,1.58V489.7H199.5V458Z"/><path d="M260.62,475.73l0,.23h.18l5.24-18h10.55L264,494.42a17.39,17.39,0,0,1-3.77,5.8c-1.55,1.52-4,2.29-7.36,2.29a11,11,0,0,1-2.11-.17q-.81-.15-2.58-.6l1.21-7.06.61.14a3.59,3.59,0,0,0,.53,0,6.6,6.6,0,0,0,3.43-.69,4.11,4.11,0,0,0,1.61-2.06l.79-2.06-11-32.05H255.9Z"/><path d="M277.43,473.56q0-7.15,4-11.64t11.28-4.5q7.28,0,11.31,4.5t4.05,11.64v.62q0,7.17-4.05,11.66t-11.25,4.48q-7.29,0-11.34-4.48t-4-11.66Zm9.9.62a13.09,13.09,0,0,0,1.25,6.25,4.43,4.43,0,0,0,4.23,2.27,4.37,4.37,0,0,0,4.16-2.28,13,13,0,0,0,1.26-6.24v-.62a13.07,13.07,0,0,0-1.26-6.2,4.41,4.41,0,0,0-4.22-2.32,4.35,4.35,0,0,0-4.17,2.34,13.17,13.17,0,0,0-1.25,6.18Z"/><path d="M331.57,485a10.41,10.41,0,0,1-3.65,4,9.64,9.64,0,0,1-5.17,1.39,9.38,9.38,0,0,1-7.72-3.46q-2.79-3.45-2.79-10.69V458h9.87v18.23q0,3.72.95,5.09A3.34,3.34,0,0,0,326,482.7a8.15,8.15,0,0,0,2.78-.44,5.33,5.33,0,0,0,2-1.32V458h9.9v31.7h-8Z"/><path d="M372.5,450.12V458h5v6.86h-5v14.53a3.57,3.57,0,0,0,.69,2.45,2.43,2.43,0,0,0,1.86.74c.51,0,.91,0,1.21-.05a10.07,10.07,0,0,0,1.16-.24l.68,7.33a25.7,25.7,0,0,1-2.7.54,23.11,23.11,0,0,1-2.84.16q-4.89,0-7.43-2.61t-2.53-8.26V464.86h-4.43V458h4.43v-7.88Z"/><path d="M391.92,461.93a10.66,10.66,0,0,1,3.5-3.33,9,9,0,0,1,4.56-1.18,9.44,9.44,0,0,1,7.73,3.43q2.82,3.42,2.82,10.63V489.7h-9.91V471.42q0-3.63-.93-5a3.2,3.2,0,0,0-2.84-1.37,7.94,7.94,0,0,0-2.9.48,5.15,5.15,0,0,0-2,1.36V489.7H382V444h9.9Z"/><path d="M426.41,450.65h-9.94V444h9.94Zm0,39.05h-9.94V458h9.94Z"/><path d="M441.58,458l.38,4.46a11.6,11.6,0,0,1,3.84-3.71,9.9,9.9,0,0,1,5.1-1.33,8.94,8.94,0,0,1,7.28,3.16q2.63,3.17,2.62,10.05V489.7h-9.9V470.6a7.22,7.22,0,0,0-1-4.29,3.3,3.3,0,0,0-2.81-1.27,7,7,0,0,0-2.84.55,5.65,5.65,0,0,0-2.11,1.58V489.7h-9.88V458Z"/><path d="M477.88,477.11h-1.79V489.7h-9.9V444h9.9v25.63h1.41L484.18,458h11.34l-9.76,14.3,11.37,17.4H485.85Z"/><g id="_002_draw" data-name="002_draw"><path d="M1039.82,87.39a2.55,2.55,0,0,0,0,3.66c2.36,2.37,4.89,4.56,7.46,6.73s5.29,4.46,7.9,6.72a135.87,135.87,0,0,1,11,10.46c-1.46-.64-2.92-1.28-4.39-1.9q-8-3.41-16.11-6.35a260.51,260.51,0,0,0-33.78-9.65q-8.65-1.83-17.44-3c-5.81-.79-11.65-1.41-17.52-1.77a176.8,176.8,0,0,0-33.88,1c-1.52.19-3,.42-4.54.66a1.46,1.46,0,0,0-.92.68,1.43,1.43,0,0,0-.15,1.14,1.46,1.46,0,0,0,.7.88,1.69,1.69,0,0,0,1.19.15c1.47-.24,2.94-.45,4.42-.64l-.29,0a179.36,179.36,0,0,1,44.89.38,248.44,248.44,0,0,1,31.78,6.43c5.22,1.4,10.38,3,15.5,4.7q7.33,2.44,14.49,5.31c4.15,1.69,8.26,3.48,12.29,5.41,2,.95,3.95,1.95,5.89,3,1,.5,1.91,1,2.85,1.55s1.89,1,2.8,1.6a2.92,2.92,0,0,0,3.43-.43,2.67,2.67,0,0,0,.44-3.3,55.15,55.15,0,0,0-7-9.48,110.06,110.06,0,0,0-8.46-8.41c-3-2.71-6.1-5.31-9.22-7.89s-6.27-5.14-9.49-7.63l-.54-.4a2.8,2.8,0,0,0-3.26.4m-51.24,9.19.17,0-.17,0m61.87,16.54.15.06-.15-.06" fill="#161616"/><path d="M1045,54a2.42,2.42,0,0,0,.92,3.36c4.45,2,8.94,3.84,13.36,5.85q7,3.18,13.76,6.75a207.58,207.58,0,0,1,26,16.24c.82.61,1.64,1.24,2.46,1.87-2.15-.38-4.32-.72-6.48-1a177.8,177.8,0,0,0-18.31-1.59,305.47,305.47,0,0,0-36,1.21,2,2,0,0,0-1.32.52,1.75,1.75,0,0,0,0,2.55,1.89,1.89,0,0,0,1.32.53c16-1.3,32.1-1.74,48,.29q5.49.74,10.91,1.91c1.93.43,3.84.91,5.75,1.43s3.82,1.07,5.68,1.73a2.86,2.86,0,0,0,1.48,0,2.74,2.74,0,0,0,1.66-1.23,2.54,2.54,0,0,0,.38-1.34,2.76,2.76,0,0,0-.81-1.89,37.4,37.4,0,0,0-2.82-2.67c-1.07-1-2.17-1.9-3.27-2.82-2.28-1.91-4.65-3.72-7.05-5.49-4.75-3.5-9.71-6.73-14.79-9.77s-10.43-5.92-15.83-8.56a174.42,174.42,0,0,0-16.42-7.1c-1.87-.68-3.77-1.32-5.69-1.89a2.59,2.59,0,0,0-.67-.1A2.67,2.67,0,0,0,1045,54" fill="#161616"/><path d="M1091.45,7.82c-1.65.85-3.25,1.8-4.86,2.72l-4.91,2.78c-3,1.69-6,3.37-9,5a181.73,181.73,0,0,1-16.88,8.11,137.56,137.56,0,0,1-16.26,5.38,149.3,149.3,0,0,1-18.44,3.56c-6.1.77-12.24,1.2-18.38,1.72-6.75.56-13.49,1.18-20.23,1.91S968.8,40.6,962,41.68,948.69,44,942.14,45.53c-2.53.6-5,1.25-7.52,2a2.13,2.13,0,0,0-1.54,2.59,2.16,2.16,0,0,0,1,1.27l.53.21a2.28,2.28,0,0,0,1.16,0L948,49.67c3.94-.62,7.89-1.14,11.84-1.66l.4,0L960,48c13.37-1.72,26.79-3,40.23-4.16,6.39-.56,12.79-1,19.15-1.82,5.5-.71,11-1.63,16.37-2.88A124.24,124.24,0,0,0,1049.63,35c4.53-1.63,8.95-3.52,13.29-5.58a275.21,275.21,0,0,0,26.56-14.81l.15-.09a47.71,47.71,0,0,1-2.9,8.9,65.94,65.94,0,0,1-8.63,14,79.08,79.08,0,0,1-13.92,13.37,68,68,0,0,1-9.92,6.09,1.67,1.67,0,0,0-.64,2.31,1.84,1.84,0,0,0,2.41.61,74.33,74.33,0,0,0,13.29-8.58,77.59,77.59,0,0,0,11.84-11.78,71.13,71.13,0,0,0,9-14,60.74,60.74,0,0,0,3-7.55,64.27,64.27,0,0,0,1.84-7.48,2.37,2.37,0,0,0,0-1.24,2.35,2.35,0,0,0-.62-1,2.44,2.44,0,0,0-1.7-.67,2.73,2.73,0,0,0-1.24.3m-70.53,27.56-.35,0,.35,0m57.39,1.79-.2.24.2-.24M960.86,47.87l-.3,0,.3,0m-1.4.19-.22,0,.22,0" fill="#161616"/><path d="M934.18,94.19a1.76,1.76,0,0,0-1.11.82,110.59,110.59,0,0,0-5.29,13.67,141.55,141.55,0,0,0-3.58,14.15,273.76,273.76,0,0,0-3.88,29.07,2.14,2.14,0,0,0,.7,1.63,2.48,2.48,0,0,0,3.39,0,2.37,2.37,0,0,0,.71-1.63c.45-7.37,1.07-14.73,2.09-22.05,0,.18-.05.36-.08.55,1.53-11,4-21.85,8.45-32.08l.69-1.51a1.85,1.85,0,0,0,.19-1.38,1.82,1.82,0,0,0-.85-1.06,1.94,1.94,0,0,0-.94-.25,2,2,0,0,0-.49.07" fill="#161616"/><path d="M904.81,139.4a16.85,16.85,0,0,0-2.92.33,14,14,0,0,0-2.29.69,18.87,18.87,0,0,0-2.68,1.29,18.12,18.12,0,0,0-4.32,3.56,23.85,23.85,0,0,0-5.5,11.24,31.47,31.47,0,0,0-.62,6.42,37.8,37.8,0,0,0,.75,6.95,34.08,34.08,0,0,0,1.87,6.23,39.07,39.07,0,0,0,3.31,6.47,45.31,45.31,0,0,0,4.29,5.59,42.35,42.35,0,0,0,4.79,4.58,46.58,46.58,0,0,0,5.82,4.11A38.36,38.36,0,0,0,914,200a2.59,2.59,0,0,0,2.86-1.12,2.4,2.4,0,0,0-.91-3.33,77.18,77.18,0,0,1-7.52-4.79,50.67,50.67,0,0,1-8.53-8.15,43.34,43.34,0,0,1-5.29-8.64,36.4,36.4,0,0,1-2.48-8.59,30.29,30.29,0,0,1,0-7.37,25,25,0,0,1,1.61-5.8,21,21,0,0,1,2.38-4,17.56,17.56,0,0,1,2.73-2.65,14.92,14.92,0,0,1,2.67-1.51,14.61,14.61,0,0,1,2.92-.77,13.2,13.2,0,0,1,2.81,0,15.88,15.88,0,0,1,3.16.85,18.47,18.47,0,0,1,3.35,1.91,24.51,24.51,0,0,1,4,3.93,34.79,34.79,0,0,1,2.07,3,1.79,1.79,0,0,0,2.37.6,1.64,1.64,0,0,0,.62-2.27,27.11,27.11,0,0,0-9.89-9.89,16.6,16.6,0,0,0-5.36-1.78,17.67,17.67,0,0,0-2.51-.19h-.24" fill="#161616"/><path d="M902.22,157.19a1.86,1.86,0,0,0-.84,1.05,20.54,20.54,0,0,0-.66,13.59,18.14,18.14,0,0,0,3.11,5.85,18.92,18.92,0,0,0,2.55,2.67,17.79,17.79,0,0,0,3.2,2.16,2,2,0,0,0,2.62-.66,1.78,1.78,0,0,0,.19-1.42,2,2,0,0,0-.88-1.1c-.27-.18-.53-.37-.79-.56a22.23,22.23,0,0,1-3.67-3.45,15.71,15.71,0,0,1-3.28-11.95,21.2,21.2,0,0,1,1.13-4.2,1.61,1.61,0,0,0-.18-1.35,1.86,1.86,0,0,0-1.09-.81,2,2,0,0,0-.49-.06,1.86,1.86,0,0,0-.92.24" fill="#161616"/><path d="M1050.64,110.43a.71.71,0,0,0-.44.33.73.73,0,0,0-.08.54c.19,1.26.37,2.51.55,3.77v0c.5,3.77,1,7.53,1.4,11.31s.75,7.67,1.07,11.51.55,7.55.71,11.33c.08,1.94.13,3.89.16,5.83s0,3.91,0,5.86a1.75,1.75,0,0,0,3.49,0c0-1.95,0-3.91-.11-5.86s-.2-3.89-.35-5.83c-.28-3.86-.69-7.72-1.19-11.56s-1.15-7.7-1.77-11.55-1.32-7.64-2-11.46l-.6-3.71a.72.72,0,0,0-.73-.51l-.17,0" fill="#161616"/><path d="M1071.49,104.9c.35,6.31.34,12.64.11,18.95a181,181,0,0,1-1.53,18.16c-.16,1.12-.32,2.23-.47,3.35l-.18,1.27c-.37,2.64-.76,5.27-1.14,7.9-.2,1.39-.39,2.79-.56,4.18a35.61,35.61,0,0,0-.33,4.25,2.46,2.46,0,0,0,1.86,2.34,2.57,2.57,0,0,0,3.11-1.69,30.23,30.23,0,0,0,.82-3.41c.27-1.38.47-2.78.65-4.17.32-2.41.57-4.82.78-7.24s.33-4.79.42-7.19.18-4.77.24-7.16c.11-4.8.16-9.6.07-14.41-.09-5-.39-10.09-.71-15.13a1.57,1.57,0,0,0-3.14,0m-2.13,42.16,0,.21,0-.21m.23-1.68v0h0v0m0,0v0m0,0,0-.26Zm0-.26,0-.36,0,.36" fill="#161616"/><path d="M1050,110.61a2,2,0,0,0-1.14.85,1.88,1.88,0,0,0-.19,1.41c1,5.61,1.91,11.23,2.71,16.87,0-.18,0-.35-.08-.53.7,5,1.33,9.93,1.86,14.9.27,2.49.51,5,.75,7.48s.45,5,.8,7.53l.08.56a2,2,0,0,0,.57.95,2.25,2.25,0,0,0,1.57.62,2.2,2.2,0,0,0,2.23-2.13,114.79,114.79,0,0,0-1.05-11.86q-.73-6-1.67-11.94c-1.22-7.83-2.66-15.63-4.09-23.43a1.76,1.76,0,0,0-.88-1.09,1.89,1.89,0,0,0-1-.25,2.22,2.22,0,0,0-.51.06" fill="#161616"/><path d="M958.79,125.63a86,86,0,0,0-8.86,1.85,112.32,112.32,0,0,0-17,6.1,2.6,2.6,0,0,0-1,3.62,2.75,2.75,0,0,0,1.65,1.21l.73.1a2.76,2.76,0,0,0,1.38-.36c.81-.36,1.62-.7,2.43-1a107.81,107.81,0,0,1,14.84-4.67c2.57-.62,5.16-1.13,7.76-1.58s5.29-.76,7.91-1.29a2.43,2.43,0,0,0,1.84-2.32,2.48,2.48,0,0,0-2.5-2.4l-.89,0a55.66,55.66,0,0,0-8.25.79" fill="#161616"/><path d="M950.92,141.14a25.2,25.2,0,0,0-5.74,2.06,25.56,25.56,0,0,0-5,3.34A26.13,26.13,0,0,0,936,151a24.58,24.58,0,0,0-2.95,5.39,27,27,0,0,0-1.92,9.83,2.21,2.21,0,0,0,4.41,0,24.82,24.82,0,0,1,.19-2.86,22.62,22.62,0,0,1,1.44-5.16,23.67,23.67,0,0,1,2.83-4.66,23,23,0,0,1,3.73-3.58,25.06,25.06,0,0,1,4.69-2.63,25.93,25.93,0,0,1,5.42-1.43,24.76,24.76,0,0,1,5.51,0,25.59,25.59,0,0,1,5.53,1.45,32,32,0,0,1,6.35,3.66l.45.34.43.33a2.22,2.22,0,0,0,1.08.27,2.15,2.15,0,0,0,1.51-.6,2,2,0,0,0,.63-1.45,2.1,2.1,0,0,0-.63-1.45,24.35,24.35,0,0,0-11.35-7,25.09,25.09,0,0,0-6.27-.93h-.58a27,27,0,0,0-5.6.64" fill="#161616"/><path d="M938.42,154.71a6.21,6.21,0,1,0,6.21-6,6.15,6.15,0,0,0-6.21,6" fill="#161616"/><path d="M1010,154.82A49.76,49.76,0,0,0,999.15,157a1.86,1.86,0,0,0-1.09.81,1.69,1.69,0,0,0-.19,1.35,1.85,1.85,0,0,0,2.26,1.23,44.47,44.47,0,0,1,7.5-1.68,59.78,59.78,0,0,1,14.52.08,73.89,73.89,0,0,1,9.66,2c1.55.42,3.07.9,4.59,1.4s3.07,1.08,4.63,1.58a1.79,1.79,0,0,0,2-.77,1.65,1.65,0,0,0,.18-1.3,1.77,1.77,0,0,0-.81-1,29.21,29.21,0,0,0-4.86-2.39,46.21,46.21,0,0,0-5.15-1.68,64.38,64.38,0,0,0-11.23-1.87c-1.72-.14-3.44-.21-5.17-.21q-3,0-5.94.28" fill="#161616"/><path d="M1000.87,163a6.66,6.66,0,1,0,6.65-6.39,6.58,6.58,0,0,0-6.65,6.39" fill="#161616"/><path d="M1007.37,132.79a2.19,2.19,0,0,0-1,1.3,2.11,2.11,0,0,0,.23,1.68c.12.15.23.3.35.44a2.31,2.31,0,0,0,1,.56c6.09,2.32,12.2,4.57,18.24,7l-.21-.09.26.1.31.13-.24-.1c3.13,1.28,6.23,2.63,9.28,4.08,3.27,1.55,6.44,3.31,9.73,4.83a1.94,1.94,0,0,0,2.31-.28,1.79,1.79,0,0,0,.56-1.3,1.76,1.76,0,0,0-.56-1.3,48.4,48.4,0,0,0-9-5.56c-3.11-1.57-6.33-2.95-9.57-4.27-6.57-2.66-13.29-4.94-19.92-7.45a1.69,1.69,0,0,0-.56-.09,2.6,2.6,0,0,0-1.19.31m18.9,11-.07,0h0l.12,0" fill="#161616"/><path d="M993.7,180a1.68,1.68,0,0,0-1.22,2.07c.66,1.74,1.48,3.42,2.29,5.1,1,2,1.9,4,2.8,6a44.37,44.37,0,0,1,3.43,10.66,13.87,13.87,0,0,1,.07,2.88,8.34,8.34,0,0,1-.29,1.09,5.09,5.09,0,0,1-.3.5c-.11.11-.23.23-.35.33s-.39.23-.59.33a10.37,10.37,0,0,1-1.36.33,22.39,22.39,0,0,1-4.7-.16,2.91,2.91,0,0,0-1.41.37,2.71,2.71,0,0,0-1.28,1.6,2.62,2.62,0,0,0,.28,2.08,2.72,2.72,0,0,0,1.67,1.23,19.09,19.09,0,0,0,6,.41,11,11,0,0,0,2.49-.51,13,13,0,0,0,1.33-.57,9.21,9.21,0,0,0,1.25-.86,6.68,6.68,0,0,0,1.37-1.54,3.88,3.88,0,0,0,.35-.63,9,9,0,0,0,.54-1.33,9.36,9.36,0,0,0,.32-2.1,9.76,9.76,0,0,0-.08-1.87,22.34,22.34,0,0,0-1.06-4.54c-.55-1.61-1.26-3.19-2-4.74-1.39-3-3-6-4.5-8.9-.86-1.63-1.7-3.27-2.45-4.94-.16-.37-.31-.75-.46-1.12a1.8,1.8,0,0,0-.81-1,1.78,1.78,0,0,0-.88-.23,1.76,1.76,0,0,0-.46.06" fill="#161616"/><path d="M1019.3,239.26a7.92,7.92,0,0,0-4.08,1.19,8.27,8.27,0,0,0-1,.73,7.54,7.54,0,0,0-1.71,2.67,7.25,7.25,0,0,0-.4,1.43,14.19,14.19,0,0,0-.25,2.34,23.82,23.82,0,0,0,.42,4.61,46,46,0,0,0,1.07,4.76c1.44,5.32,3.47,10.48,5.43,15.64.87,2.29,1.75,4.58,2.55,6.89a31.76,31.76,0,0,1,1.43,5.13,2.12,2.12,0,0,0,.62,1.43,2.17,2.17,0,0,0,1.5.6,2.1,2.1,0,0,0,2.13-2.05,28.44,28.44,0,0,0-1.39-6.8c-.9-3-2-6-3-8.91-1.12-3.17-2.24-6.34-3.24-9.54a59.71,59.71,0,0,1-2.14-8.7,18,18,0,0,1-.11-4,6.46,6.46,0,0,1,.34-1.29,5,5,0,0,1,.29-.5l.26-.24a2.27,2.27,0,0,1,.34-.19,4.43,4.43,0,0,1,.78-.19,8.42,8.42,0,0,1,1.42,0,9.54,9.54,0,0,1,1.59.42,13.53,13.53,0,0,1,2.09,1.21,21.65,21.65,0,0,1,3.29,3.27,52.06,52.06,0,0,1,6.37,11.12,113.71,113.71,0,0,1,4.69,13,95,95,0,0,1,2.42,9.71,2.27,2.27,0,0,0,1.1,1.37,2.46,2.46,0,0,0,1.84.23,2.4,2.4,0,0,0,1.43-1.05,2.33,2.33,0,0,0,.24-1.77c-.43-2.29-1-4.57-1.59-6.82q-1.3-4.9-3-9.7a96.63,96.63,0,0,0-4.43-10.69q-1.19-2.41-2.59-4.71a39.91,39.91,0,0,0-3.15-4.39,20.72,20.72,0,0,0-3.15-3.13,18.61,18.61,0,0,0-2-1.39,13.78,13.78,0,0,0-2.28-1,8.66,8.66,0,0,0-1.73-.46,11.85,11.85,0,0,0-2-.18l-.49,0" fill="#161616"/><path d="M1006.15,279.88a7.86,7.86,0,0,0-1.5.38,10.72,10.72,0,0,0-2,.94,11.2,11.2,0,0,0-3.29,3.25,12.06,12.06,0,0,0-1,1.9,22.45,22.45,0,0,0-1,2.74,29,29,0,0,0-.94,6.48,2.38,2.38,0,0,0,2.42,2.32,2.45,2.45,0,0,0,1.71-.68l.37-.47a2.2,2.2,0,0,0,.33-1.17l.15-1.24a25.11,25.11,0,0,1,1.46-5.65,12.81,12.81,0,0,1,1.24-2.11,9,9,0,0,1,1-1,8.19,8.19,0,0,1,1-.59,8.54,8.54,0,0,1,1.3-.33,10.48,10.48,0,0,1,2,0,18.3,18.3,0,0,1,3.78,1.06,37,37,0,0,1,7.38,4.31,54.31,54.31,0,0,1,9.34,9,32.13,32.13,0,0,1,2.68,3.87,2.29,2.29,0,0,0,3,.76,2.11,2.11,0,0,0,.79-2.92,43.39,43.39,0,0,0-5.31-7,59.84,59.84,0,0,0-7.32-6.91,38.08,38.08,0,0,0-8.49-5.37,19.86,19.86,0,0,0-4.44-1.44,16.74,16.74,0,0,0-2.35-.27h-.32a13.57,13.57,0,0,0-2.1.2m-4.71,14c0,.08,0,.16,0,.24l0-.24" fill="#161616"/><path d="M994.4,294a10,10,0,0,0-2.46.75,9.78,9.78,0,0,0-5.56,7.72,22,22,0,0,0-.23,2.28,15.48,15.48,0,0,0,.11,2.26l.09.69a2.58,2.58,0,0,0,.7,1.15,2.8,2.8,0,0,0,1.93.77,2.7,2.7,0,0,0,2.72-2.61c0-.8.08-1.6.17-2.39a14,14,0,0,1,.69-2.63,8.36,8.36,0,0,1,.65-1.08,3.66,3.66,0,0,1,1.52-1.12,10.26,10.26,0,0,1,1.35-.34,14.34,14.34,0,0,1,2.62,0,25.77,25.77,0,0,1,5.46,1.54,37.3,37.3,0,0,1,7.53,4.29,28.16,28.16,0,0,1,3.69,3.29,2.68,2.68,0,0,0,3.68,0,2.44,2.44,0,0,0,.76-1.77,2.51,2.51,0,0,0-.76-1.76,41.9,41.9,0,0,0-17.15-10.5,19.89,19.89,0,0,0-5-.78h-.23a17.86,17.86,0,0,0-2.31.21" fill="#161616"/><path d="M991.05,306.11a14.39,14.39,0,0,0-3.84.88,16.38,16.38,0,0,0-1.91.86,17.17,17.17,0,0,0-1.79,1.23,13.29,13.29,0,0,0-2.42,2.55,14.26,14.26,0,0,0-1.7,3.08,13.48,13.48,0,0,0-.86,2.84,17.72,17.72,0,0,0,.08,7.39,16.64,16.64,0,0,0,.93,3,18.87,18.87,0,0,0,1.76,3.36,17.28,17.28,0,0,0,5.56,5.23,16.91,16.91,0,0,0,8,2.21,2.4,2.4,0,0,0,2.32-1.7,2.21,2.21,0,0,0-.24-1.79,2.29,2.29,0,0,0-1.44-1.06,18.14,18.14,0,0,1-3.49-.93,11.82,11.82,0,0,1-4.93-3.62,16.2,16.2,0,0,1-1.75-2.9,17.85,17.85,0,0,1-1.06-3.71,16.62,16.62,0,0,1,0-3.73,14.3,14.3,0,0,1,.8-2.88,12.38,12.38,0,0,1,1.21-2,11.15,11.15,0,0,1,1.35-1.31,12.82,12.82,0,0,1,1.66-.93,12.16,12.16,0,0,1,2.23-.57,16.12,16.12,0,0,1,3.33,0,25.87,25.87,0,0,1,5.56,1.53,51.91,51.91,0,0,1,10.59,6.2c.89.67,1.76,1.36,2.63,2.06a3,3,0,0,0,2,.78,2.86,2.86,0,0,0,2-.78,2.65,2.65,0,0,0,.82-1.9,2.56,2.56,0,0,0-.82-1.9,67.62,67.62,0,0,0-12.21-8.18,41.12,41.12,0,0,0-5.49-2.26,27.36,27.36,0,0,0-5-1.06,17.63,17.63,0,0,0-2.05-.13,14.55,14.55,0,0,0-1.75.1m20,13.37.23.17-.23-.17" fill="#161616"/><path d="M995,324.21a2.67,2.67,0,0,0-1.94,3.27,65.87,65.87,0,0,0,4.75,12,49.22,49.22,0,0,0,7.36,10.47A39.11,39.11,0,0,0,1027.84,362l.71.09a2.71,2.71,0,0,0,1.34-.35,2.6,2.6,0,0,0,1.23-1.53,2.57,2.57,0,0,0-1.86-3.14,50,50,0,0,1-6.81-2.08,41.37,41.37,0,0,1-8.14-4.57,43.48,43.48,0,0,1-7.13-6.89,49.67,49.67,0,0,1-6.31-10.53,59.32,59.32,0,0,1-2.46-6.92,2.81,2.81,0,0,0-2.69-1.95,2.55,2.55,0,0,0-.72.1" fill="#161616"/><path d="M1048.94,284.29a2.5,2.5,0,0,0-1.19,1.48,2.33,2.33,0,0,0,.26,1.91,71.52,71.52,0,0,1,13.71,33.63,88.06,88.06,0,0,1,.64,14.61c-.1,2.51-.29,5-.53,7.51-.11,1.26-.24,2.52-.36,3.79a27.21,27.21,0,0,0-.17,4.14,2.76,2.76,0,0,0,2,2.59,2.84,2.84,0,0,0,3.16-1.23,26.89,26.89,0,0,0,2.58-8.69,65,65,0,0,0,.79-9.13,67.66,67.66,0,0,0-.44-8.42,77.66,77.66,0,0,0-1.48-8.82,80.87,80.87,0,0,0-5.78-16.25,97.5,97.5,0,0,0-8.87-15.06l-.85-1.17a2.74,2.74,0,0,0-1.54-1.14,2.59,2.59,0,0,0-.68-.09,2.68,2.68,0,0,0-1.3.34" fill="#161616"/><path d="M915.9,190.3a114.48,114.48,0,0,0,3.17,26.51,96.56,96.56,0,0,0,9,23.32,68.77,68.77,0,0,0,25.54,26.6,77.38,77.38,0,0,0,25.89,9.48,59.89,59.89,0,0,0,8,.92c1.27,0,2.56,0,3.83,0s2.83-.15,4.23-.3a2.23,2.23,0,0,0,1.1-.29,2.07,2.07,0,0,0-.52-3.84l-4.08-.8c-1.34-.25-2.66-.55-4-.83-2.6-.53-5.21-1-7.8-1.59a95.26,95.26,0,0,1-14.06-4.34,78.23,78.23,0,0,1-16.17-9,79.83,79.83,0,0,1-13.76-13.29,72.63,72.63,0,0,1-9.45-15.59,88.39,88.39,0,0,1-6.24-22.62,112.15,112.15,0,0,1-1-14.29,1.85,1.85,0,0,0-3.69,0m11,37,.06.13-.06-.13" fill="#161616"/><path d="M1015.36,270.83c-1.1.3-2.2.65-3.31,1a30.6,30.6,0,0,1-3.57.76c-.62.07-1.25.12-1.88.15a2.53,2.53,0,0,0-1.66.66,2.24,2.24,0,0,0-.69,1.6,2.32,2.32,0,0,0,2.35,2.26,36.87,36.87,0,0,0,5.24-.6,18.13,18.13,0,0,0,5.28-1.8,2.18,2.18,0,0,0,1-2.48,2.31,2.31,0,0,0-2.21-1.6,2.06,2.06,0,0,0-.6.08" fill="#161616"/><path d="M1068.17,162.69a14.83,14.83,0,0,0-5.4,2.84,24.85,24.85,0,0,0-4.83,5.31,2.26,2.26,0,0,0-.25,1.86,2.44,2.44,0,0,0,1.15,1.45,2.57,2.57,0,0,0,3.44-.87c.28-.39.57-.78.86-1.16a20.07,20.07,0,0,1,3.11-3.07,12.61,12.61,0,0,1,2.17-1.25,10,10,0,0,1,1.65-.44,5.78,5.78,0,0,1,3,.4,11.07,11.07,0,0,1,1.71,1,15.29,15.29,0,0,1,2.19,2.14,21.3,21.3,0,0,1,2.45,4.13,30.73,30.73,0,0,1,2,7.26,33.25,33.25,0,0,1,0,8.22,30.39,30.39,0,0,1-2,7.1,24.57,24.57,0,0,1-7.94,9.92,34.37,34.37,0,0,1-6.67,3.69,47.76,47.76,0,0,1-5.36,1.72,2.54,2.54,0,0,0-.64,4.71,2.89,2.89,0,0,0,2.06.26,33.94,33.94,0,0,0,18.48-9.74,30,30,0,0,0,7.59-15.62,34.69,34.69,0,0,0,.39-8.33,34,34,0,0,0-1.5-7.8,28,28,0,0,0-3.08-6.58,23.27,23.27,0,0,0-2.2-2.85,13.06,13.06,0,0,0-2.09-1.91,14,14,0,0,0-2.26-1.45,12,12,0,0,0-2.55-.95,10.9,10.9,0,0,0-2.61-.31,11.89,11.89,0,0,0-2.85.35" fill="#161616"/><path d="M1068.94,182.2a2,2,0,0,0-.67,1.56,27.88,27.88,0,0,1,0,6.77,29.12,29.12,0,0,1-1.89,6.58,30.74,30.74,0,0,1-3.65,6,39.77,39.77,0,0,1-2.86,3.1,2.19,2.19,0,0,0,0,3.15,2.37,2.37,0,0,0,1.64.65,2.4,2.4,0,0,0,1.64-.65,29.23,29.23,0,0,0,4.73-5.4,30.79,30.79,0,0,0,3.28-6.25,28.62,28.62,0,0,0,1.71-6.8,28,28,0,0,0,0-7.15l-.09-.59a2.13,2.13,0,0,0-.59-1,2.33,2.33,0,0,0-1.63-.65,2.37,2.37,0,0,0-1.64.65" fill="#161616"/><path d="M1055.06,210.66a2.51,2.51,0,0,0-.76,1.76c-.11,1.65-.27,3.29-.49,4.93a76.83,76.83,0,0,1-5.53,19.27,83.1,83.1,0,0,1-4.93,9.33,101.83,101.83,0,0,1-6.37,9,2.37,2.37,0,0,0-.36,1.27,2.49,2.49,0,0,0,.77,1.78,2.73,2.73,0,0,0,3.71,0,54.72,54.72,0,0,0,7.47-9.9,76.11,76.11,0,0,0,5.61-11.61,81.19,81.19,0,0,0,5.29-24.08,2.56,2.56,0,0,0-2.59-2.48,2.64,2.64,0,0,0-1.82.72" fill="#161616"/><path d="M978.08,221a13.65,13.65,0,0,0-2,.34,14.43,14.43,0,0,0-2,.73,11.35,11.35,0,0,0-2.86,1.91,13.74,13.74,0,0,0-2.43,2.95,21.72,21.72,0,0,0-1.91,4.09,29.69,29.69,0,0,0-1.31,5.15,1.73,1.73,0,0,0,.17,1.28,1.75,1.75,0,0,0,3.15-.4,39.1,39.1,0,0,1,1.74-5.23,18.08,18.08,0,0,1,2.1-3.57,11.67,11.67,0,0,1,1.7-1.67,10.83,10.83,0,0,1,1.66-.93,10.47,10.47,0,0,1,2.05-.53,16.3,16.3,0,0,1,3.35,0,40.94,40.94,0,0,1,7.47,2c2.7.93,5.36,2,8.07,2.89,1.31.44,2.64.85,4,1.19a32.1,32.1,0,0,0,4.25.78,17.32,17.32,0,0,0,3.67.05,17.84,17.84,0,0,0,2.07-.33,13.65,13.65,0,0,0,2.1-.71,11.46,11.46,0,0,0,2.14-1.19l.42-.31a2,2,0,0,0,.52-.86,1.91,1.91,0,0,0-.21-1.51,2,2,0,0,0-1.21-.9,2,2,0,0,0-1.58.2,10.34,10.34,0,0,1-1.89,1.07,11.87,11.87,0,0,1-2.29.6,17.33,17.33,0,0,1-3.6-.05,40.4,40.4,0,0,1-7.58-2c-2.7-1-5.35-2-8-3-1.3-.46-2.6-.88-3.93-1.23a33.1,33.1,0,0,0-4.18-.79,16.61,16.61,0,0,0-2-.12,13.3,13.3,0,0,0-1.55.08" fill="#161616"/><path d="M988.87,232.57a85.37,85.37,0,0,0-11.06,1.19,57.41,57.41,0,0,0-10.43,2.83,1.6,1.6,0,0,0-.89.65,1.36,1.36,0,0,0-.15,1.11,1.47,1.47,0,0,0,.68.85,1.49,1.49,0,0,0,1.15.15,56,56,0,0,1,12.4-3,90,90,0,0,1,22.3.23c2.37.32,4.73.75,7.1,1.06l.49.07a1.82,1.82,0,0,0,.91-.24,1.72,1.72,0,0,0-.43-3.18,44.86,44.86,0,0,0-5.13-.93q-2.79-.37-5.59-.58c-2.38-.18-4.77-.27-7.15-.27q-2.1,0-4.2.09" fill="#161616"/><path d="M918.25,52a45.63,45.63,0,0,0-5.75,1.8,42.33,42.33,0,0,0-5.5,2.57,35.7,35.7,0,0,0-4.67,3.2,34.16,34.16,0,0,0-11,16.5,50,50,0,0,0-2,10.19,68.63,68.63,0,0,0-.26,10.34c.15,3.58.53,7.16,1,10.71q.79,5.72,2,11.36a118.49,118.49,0,0,0,3,11.73q.86,2.7,1.92,5.32.62,1.51,1.32,3a14.83,14.83,0,0,0,1.37,2.38,2.39,2.39,0,0,0,.85.82,2.48,2.48,0,0,0,1.83.23,2.32,2.32,0,0,0,1.74-2.2,23.43,23.43,0,0,0-.58-4.56c-.29-1.42-.62-2.83-1-4.23-.75-3-1.6-6-2.45-9a146.93,146.93,0,0,1-4.11-18.41,73.24,73.24,0,0,1-.29-19.17,41.79,41.79,0,0,1,2.76-10.1,31.48,31.48,0,0,1,3.81-6.34,30.26,30.26,0,0,1,4.83-4.63A35,35,0,0,1,914,59.62a51.64,51.64,0,0,1,11.89-3l.37,0a3.15,3.15,0,0,0,1.37-.77,2.9,2.9,0,0,0,0-4.24l-.62-.47a3.23,3.23,0,0,0-1.58-.4A68.76,68.76,0,0,0,918.25,52m7.14,4.73h0m-.16,0-.12,0,.12,0" fill="#161616"/><path d="M1057.42,349.34a42.8,42.8,0,0,0-4.39.75c-1.44.34-2.86.76-4.27,1.23a69,69,0,0,0-8.21,3.37,120.8,120.8,0,0,0-14.6,8.54,2.56,2.56,0,0,0-1.15,1.44,2.34,2.34,0,0,0,.25,1.86,2.53,2.53,0,0,0,1.5,1.11,2.5,2.5,0,0,0,1.93-.25,91.18,91.18,0,0,1,15.44-8.11c2.24-.9,4.51-1.73,6.79-2.5,2.46-.82,5-1.55,7.42-2.36a2.81,2.81,0,0,0,1.19-.67,2.5,2.5,0,0,0,0-3.65,2.74,2.74,0,0,0-1.73-.77h-.17" fill="#161616"/><path d="M1025.48,363.73a3,3,0,0,0-1.16,4.25c12.62,18.16,25.65,36.08,40.06,53,7.24,8.49,14.77,16.77,22.77,24.61a264.67,264.67,0,0,0,25.28,21.84,171.55,171.55,0,0,0,16.34,11.13c2.7,1.59,5.47,3.07,8.3,4.41,1.43.68,2.88,1.32,4.33,1.93a37.1,37.1,0,0,0,5.2,1.88,2.9,2.9,0,0,0,3.2-1.25,2.64,2.64,0,0,0-.44-3.3,52.65,52.65,0,0,0-4.47-3.06l-4.25-2.7c-2.92-1.87-5.85-3.71-8.76-5.59-5.57-3.58-11.06-7.27-16.37-11.18a270.47,270.47,0,0,1-25.11-21.42q-6.06-5.81-11.83-11.88c-3.85-4.06-7.57-8.23-11.21-12.46q-4.8-5.58-9.42-11.32c-9.83-12.25-19.1-24.91-28-37.77a3.37,3.37,0,0,0-1.93-1.43,3.56,3.56,0,0,0-.86-.11,3.31,3.31,0,0,0-1.63.43m32.07,38.39.36.45-.36-.45" fill="#161616"/><path d="M1055.86,297.65a3.37,3.37,0,0,0,1.06,2.45,3.78,3.78,0,0,0,2.55,1q3.46.18,6.9.6a134.19,134.19,0,0,1,15,3c5.26,1.35,10.43,3,15.54,4.79s10.19,3.75,15.29,5.62c2.54.93,5.08,1.83,7.65,2.66a59.53,59.53,0,0,0,7.76,2.06,3.34,3.34,0,0,0,1.72,0,3.21,3.21,0,0,0,1.93-1.42,3,3,0,0,0,.33-2.39,3.23,3.23,0,0,0-1.49-1.86,62.31,62.31,0,0,0-7.73-4c-3-1.37-6.12-2.64-9.24-3.83-5.66-2.18-11.44-4.07-17.27-5.77a178.62,178.62,0,0,0-17.7-4.23c-3.12-.57-6.27-1-9.42-1.35s-6.18-.63-9.28-.78h-.16a3.57,3.57,0,0,0-3.45,3.47" fill="#161616"/><path d="M1129.27,314.05a2.84,2.84,0,0,0-1.07,3.92c1.6,2.58,3.23,5.15,4.64,7.84.66,1.27,1.3,2.56,1.92,3.85,1.74,3.59,3.39,7.22,5,10.86l.75,1.69q6.8,15.5,12.86,31.28,7.21,18.64,13.39,37.63a291.73,291.73,0,0,1,9.74,36.29c.36,1.94.69,3.89,1,5.85a70.63,70.63,0,0,1,.46,18.54,26.85,26.85,0,0,1-1.63,6.15,16.08,16.08,0,0,1-1.69,2.85,14,14,0,0,1-1.66,1.6,12.1,12.1,0,0,1-2,1.09,14.53,14.53,0,0,1-2.76.71,21,21,0,0,1-4.48-.06,34,34,0,0,1-3.74-.78,3.12,3.12,0,0,0-3.78,2.07,3,3,0,0,0,2.14,3.63,27.68,27.68,0,0,0,12.88.67,15.6,15.6,0,0,0,8.7-5.33,20.06,20.06,0,0,0,1.76-2.46,26.07,26.07,0,0,0,1.4-2.86,26.88,26.88,0,0,0,1.59-5.12,56.12,56.12,0,0,0,1-13.75,129.89,129.89,0,0,0-1.83-16.68c-1-6-2.29-11.95-3.76-17.86a348.77,348.77,0,0,0-12-38c-4.52-12.09-9.52-24-14.87-35.79-3.83-8.44-7.83-16.84-12.28-25-.75-1.37-1.51-2.73-2.3-4.07a77.58,77.58,0,0,0-5.27-7.74,3.15,3.15,0,0,0-1.78-1.31,2.93,2.93,0,0,0-.78-.1,3.16,3.16,0,0,0-1.51.38" fill="#161616"/><path d="M1064.92,347.07a2.65,2.65,0,0,0-1.57,1.16,2.47,2.47,0,0,0,.94,3.44,242.14,242.14,0,0,1,37,22.25,199,199,0,0,1,18.45,15.55,185.88,185.88,0,0,1,16.33,17.71c4.22,5.27,8.09,10.78,12.25,16.09l.54.67a3.44,3.44,0,0,0,1.5.84,3.61,3.61,0,0,0,2.64-.33,3.36,3.36,0,0,0,1.57-2,3.26,3.26,0,0,0-.35-2.53,95.44,95.44,0,0,0-9.71-13.9c-3.37-4.15-7-8.13-10.69-12a198.65,198.65,0,0,0-24-21c-6.59-4.91-13.45-9.49-20.51-13.74-7.24-4.35-14.71-8.3-22.32-12a2.94,2.94,0,0,0-1.35-.34,2.48,2.48,0,0,0-.66.08" fill="#161616"/><path d="M953.87,262.33a2.84,2.84,0,0,0-1.67,1.24,2.52,2.52,0,0,0-.28,2.07,50.12,50.12,0,0,1,2.56,10,51.17,51.17,0,0,1,.42,6.31c0,2.35-.17,4.69-.37,7a2.86,2.86,0,0,0,.41,1.47,3.06,3.06,0,0,0,1.82,1.34,3.15,3.15,0,0,0,2.33-.29,2.8,2.8,0,0,0,1.4-1.75,41.61,41.61,0,0,0,.51-6.69,50.73,50.73,0,0,0-.46-6.28,54.75,54.75,0,0,0-1.26-6.57,53.25,53.25,0,0,0-2-6,2.78,2.78,0,0,0-2.7-2,3.06,3.06,0,0,0-.74.09" fill="#161616"/><path d="M955.15,265.66a1.5,1.5,0,0,0,0,2.15q8.52,8.69,17.81,16.62,4.65,4,9.48,7.77,2.34,1.85,4.74,3.63c1.7,1.26,3.41,2.51,5.18,3.67a1.53,1.53,0,0,0,1.8-.22,1.4,1.4,0,0,0,.44-1,1.36,1.36,0,0,0-.44-1c-1.54-1.24-3.12-2.43-4.69-3.63s-3.15-2.43-4.72-3.66q-4.82-3.78-9.49-7.75c-6.21-5.26-12.19-10.78-17.87-16.56a1.54,1.54,0,0,0-1.1-.44,1.65,1.65,0,0,0-1.14.44" fill="#161616"/><path d="M971.94,272.35a1.81,1.81,0,0,0-.55,1.29,1.87,1.87,0,0,0,.55,1.29,133.79,133.79,0,0,0,10.71,10.45,128.57,128.57,0,0,0,12.27,9.49,1.81,1.81,0,0,0,1.37.17,1.76,1.76,0,0,0,1.07-.79,1.65,1.65,0,0,0,.18-1.32l-.18-.41a1.7,1.7,0,0,0-.64-.61l-.73-.55c-3.85-2.85-7.59-5.81-11.17-9a132.55,132.55,0,0,1-10.2-10,1.73,1.73,0,0,0-1.29-.52,2,2,0,0,0-1.39.52" fill="#161616"/><path d="M984.55,275a1.86,1.86,0,0,0-.56,1.3,1.89,1.89,0,0,0,.56,1.3,90.08,90.08,0,0,0,13.18,12.1l.37.28a1.9,1.9,0,0,0,2.26-.28,1.74,1.74,0,0,0,.55-1.26,1.67,1.67,0,0,0-.55-1.27A103.49,103.49,0,0,1,987.26,275a1.91,1.91,0,0,0-1.35-.53,2,2,0,0,0-1.36.53" fill="#161616"/><path d="M954.27,284.55a2.81,2.81,0,0,0-1.67,1.24,2.64,2.64,0,0,0-.28,2.07,187.9,187.9,0,0,0,8.31,27.59,144.21,144.21,0,0,0,6.25,13.69,82,82,0,0,0,7.55,12.2l.51.63a3.22,3.22,0,0,0,1.43.8,3.39,3.39,0,0,0,2.5-.31A3.07,3.07,0,0,0,980,338.2c-2.36-3.75-4.74-7.49-6.88-11.36s-4-7.69-5.75-11.64a169.89,169.89,0,0,1-9.69-28.77,2.76,2.76,0,0,0-2.73-2,2.82,2.82,0,0,0-.71.09" fill="#161616"/><path d="M949.87,279.12a2,2,0,0,0-1.24.92c-2.57,5.17-5,10.43-7,15.81s-3.94,11.08-5.51,16.74a164.06,164.06,0,0,0-3.72,16.8c-.51,3-.93,6-1.24,9.07a65.15,65.15,0,0,0-.4,8.61,2.51,2.51,0,0,0,1.87,2.37,2.7,2.7,0,0,0,2-.25,2.43,2.43,0,0,0,1.18-1.47c.39-2.12.71-4.25,1-6.38v.06c.27-1.94.53-3.88.8-5.82,0,.1,0,.21,0,.32.07-.47.14-.94.2-1.4,0,.25-.07.51-.11.77a254.88,254.88,0,0,1,4.75-25.21c1-4.15,2.24-8.25,3.59-12.31s2.81-8,4.5-11.88c.57-1.28,1.17-2.55,1.78-3.82a1.95,1.95,0,0,0-.74-2.72,2.17,2.17,0,0,0-1.05-.28,2.51,2.51,0,0,0-.55.07" fill="#161616"/><path d="M953.31,333.35a39.81,39.81,0,0,0-11.53,3.72,40.38,40.38,0,0,0-10.22,7.24,3,3,0,0,0,0,4.38,3.35,3.35,0,0,0,4.56,0,40.64,40.64,0,0,1,3.37-2.91,34,34,0,0,1,15.73-6.34,36.09,36.09,0,0,1,8.18,0,34.67,34.67,0,0,1,7.39,1.94,38.26,38.26,0,0,1,3.75,1.84,3.46,3.46,0,0,0,4.59-1.16,3.19,3.19,0,0,0-1.2-4.41,35.37,35.37,0,0,0-11.6-4.21,40.06,40.06,0,0,0-6.37-.61h-.4a43.56,43.56,0,0,0-6.25.53" fill="#161616"/><path d="M977.19,361.91a7.79,7.79,0,1,0,7.78-7.48,7.7,7.7,0,0,0-7.78,7.48" fill="#161616"/><path d="M944.93,288.76a1.44,1.44,0,1,0,1.43-1.37,1.42,1.42,0,0,0-1.43,1.37" fill="#161616"/><path d="M949,281.15a71.9,71.9,0,0,1-8.86,1.75c-9.1,1.11-18.29.77-27.44.68-4.6-.05-9.21,0-13.8.28A74.58,74.58,0,0,0,884.5,286a2.42,2.42,0,0,0-.61,4.48l.61.25a2.84,2.84,0,0,0,1.36,0l2.39-.35a126.08,126.08,0,0,1,14.93-.89c5.26,0,10.53.17,15.79.28,10.62.23,21.38.08,31.7-2.65a3.12,3.12,0,0,0,2.25-3.82,3.26,3.26,0,0,0-3.13-2.28,3.46,3.46,0,0,0-.84.11" fill="#161616"/><path d="M871.63,293c-9.35,7.71-18.69,15.43-27.8,23.42q-14,12.24-27.29,25.08c-8.88,8.54-17.4,17.41-25.43,26.69q-6.15,7.11-11.89,14.53c-3.64,4.71-7.2,9.52-10.4,14.52l-.19.29a3.72,3.72,0,0,0,1.41,5.16,4,4,0,0,0,5.36-1.35c2.67-3.79,5.35-7.58,8.11-11.3s5.61-7.4,8.52-11c7.59-9.4,15.64-18.43,23.91-27.28,8.43-9,17.24-17.7,26.33-26.09q8.1-7.47,16.42-14.71c5.52-4.83,11.07-9.61,16.72-14.29a2.51,2.51,0,0,0,0-3.64,2.73,2.73,0,0,0-1.89-.75,2.91,2.91,0,0,0-1.89.75" fill="#161616"/><path d="M766.66,410.74a74.94,74.94,0,0,0,.51,38.3,95.71,95.71,0,0,0,4.28,12.15,122.07,122.07,0,0,0,6.13,12.54c2.25,4,4.72,7.86,7.35,11.64a206.08,206.08,0,0,0,18.51,22.83c6.64,7.12,13.76,13.82,21.09,20.28,7.12,6.28,14.49,12.29,22,18.14,5.1,4,10.29,7.84,15.51,11.67q3.5,2.57,7.06,5.06c2.28,1.59,4.6,3.12,6.93,4.65l.59.44.69.52a3.56,3.56,0,0,0,1.73.44,3.49,3.49,0,0,0,2.42-1,3.24,3.24,0,0,0,1-2.33,3.06,3.06,0,0,0-1-2.32c-.72-.54-1.42-1.08-2.11-1.66s-1.52-1.28-2.29-1.91c-1.53-1.26-3.08-2.49-4.63-3.72-3.31-2.62-6.65-5.2-10-7.81-7.22-5.67-14.39-11.41-21.39-17.34-14.82-12.58-29-25.87-41.6-40.57-1.49-1.74-3-3.5-4.41-5.29a158.38,158.38,0,0,1-10.16-14.31,120.19,120.19,0,0,1-8-14.84,89.93,89.93,0,0,1-6.53-22.65,61.9,61.9,0,0,1-.06-16.26q.4-2.74,1-5.46a2.34,2.34,0,0,0-1.68-2.85A2.57,2.57,0,0,0,769,409a2.4,2.4,0,0,0-2.35,1.7" fill="#161616"/><path d="M895.34,528.52a35.29,35.29,0,0,0-4.21,3.47,43.44,43.44,0,0,0-3.16,3.49,62.74,62.74,0,0,0-5.81,8.33,73.39,73.39,0,0,0-7.32,18.31,4.22,4.22,0,0,0,.45,3.31,4.43,4.43,0,0,0,2.68,2,4.55,4.55,0,0,0,5.51-3,67.81,67.81,0,0,1,3.41-10.07,66.58,66.58,0,0,1,8.29-13.67c1.67-2,3.44-3.94,5.17-5.91a3.87,3.87,0,0,0,1.06-1.75A3.83,3.83,0,0,0,901,530a4.13,4.13,0,0,0-2.48-1.83,4.74,4.74,0,0,0-1.17-.15,3.55,3.55,0,0,0-2,.55" fill="#161616"/><path d="M828.85,426.48a3.49,3.49,0,0,0-2.53,4.27c.34,1.35.68,2.69,1.09,4s.93,2.87,1.45,4.28c1.09,3,2.35,5.86,3.67,8.73a168.66,168.66,0,0,0,8.31,15.51c3,5.09,6.38,10,9.8,14.86s7,9.65,10.75,14.34c5.57,7,11.44,13.85,17.41,20.57,5.76,6.51,11.65,12.91,17.54,19.31a2.78,2.78,0,0,0,3.82,0,2.52,2.52,0,0,0,.79-1.83,2.63,2.63,0,0,0-.79-1.84q-11.8-12.9-22.76-26.45c-3.67-4.58-7.2-9.26-10.65-14s-6.92-9.7-10.13-14.69a270.24,270.24,0,0,1-17-31c-1.14-2.42-2.25-4.86-3.34-7.3s-2.23-4.82-3.32-7.24a3.6,3.6,0,0,0-1.3-1.24,3.68,3.68,0,0,0-1.83-.48,3.4,3.4,0,0,0-.95.13m48.23,75.38.26.31-.26-.31" fill="#161616"/><path d="M891.94,376.62c-1.08.58-2.18,1.12-3.24,1.74s-2.27,1.43-3.37,2.2c-2.34,1.63-4.58,3.41-6.74,5.25a139.94,139.94,0,0,0-11.7,11.4,305.8,305.8,0,0,0-21.14,26.29c-3.86,5.26-7.61,10.59-11.46,15.86a2.67,2.67,0,0,0-.29,2.15,2.82,2.82,0,0,0,1.34,1.67,3,3,0,0,0,4-1c5.74-7.8,11.49-15.59,17.56-23.16,4.74-5.87,9.7-11.6,15-17a143,143,0,0,1,16.46-14.51c1.11-.82,2.23-1.63,3.36-2.42l1.77-1.24c.66-.47,1.31-1,2-1.4a3.52,3.52,0,0,0,1.61-2,3.3,3.3,0,0,0-.35-2.6,3.55,3.55,0,0,0-3-1.65,3.65,3.65,0,0,0-1.75.45" fill="#161616"/><path d="M884.93,295.15a1.44,1.44,0,1,0,1.44-1.38,1.42,1.42,0,0,0-1.44,1.38" fill="#161616"/><path d="M884.61,293.36a1.44,1.44,0,1,0,1.44-1.38,1.41,1.41,0,0,0-1.44,1.38" fill="#161616"/><path d="M882.9,286.54a2.64,2.64,0,0,0-.79,1.82,162,162,0,0,0,1.43,34.44,2.79,2.79,0,0,0,1.37,1.72,3.15,3.15,0,0,0,2.31.29,3,3,0,0,0,1.78-1.32l.31-.69a2.84,2.84,0,0,0,0-1.53q-.45-2.59-.83-5.2a136.63,136.63,0,0,1-1-27.71,2.64,2.64,0,0,0-2.68-2.57,2.73,2.73,0,0,0-1.89.75" fill="#161616"/><path d="M892.76,371.73a2.23,2.23,0,0,0-1.34,1,2.19,2.19,0,0,0-.23,1.66c1.19,5.66,2.11,11.35,2.92,17.07a368.37,368.37,0,0,1,3.11,38.12c.2,6.45.25,12.91.32,19.36s.07,12.92,0,19.37c0,5.66-.06,11.32,0,17,0,2.82.13,5.63.28,8.45a78.75,78.75,0,0,0,1,9.31,3.35,3.35,0,0,0,.91,1.49,3.59,3.59,0,0,0,2.5,1,3.66,3.66,0,0,0,1.77-.47,3.2,3.2,0,0,0,1.62-2c.26-1.7.48-3.39.59-5.1s.16-3.32.21-5c.1-3.2.11-6.4.08-9.6-.07-6.44-.3-12.88-.56-19.31s-.56-12.93-1-19.38-1-12.91-1.62-19.36c-.82-8.83-1.91-17.64-3.17-26.42-1.24-8.6-2.85-17.15-4.66-25.66a2.33,2.33,0,0,0-2.77-1.51m1.31,19.45a2.34,2.34,0,0,0,0,.26,2.34,2.34,0,0,1,0-.26m0,.29c0,.11,0,.22,0,.33,0-.11,0-.22,0-.33" fill="#161616"/><path d="M897.51,531.52a18.25,18.25,0,0,0-6.66,9.51,13.15,13.15,0,0,0-.27,4.88,17,17,0,0,0,.52,2.53,19.11,19.11,0,0,0,1,2.58,20.55,20.55,0,0,0,2.9,4.28,23.61,23.61,0,0,0,3.62,3.44A31.16,31.16,0,0,0,908.6,564a27.13,27.13,0,0,0,5.43,1,20.17,20.17,0,0,0,5.26-.23,15.16,15.16,0,0,0,4.74-1.64,16.72,16.72,0,0,0,2.42-1.66,13.18,13.18,0,0,0,2.33-2.45,8.32,8.32,0,0,0,1.21-2.42,7.64,7.64,0,0,0,.3-1.57,5.35,5.35,0,0,0,0-1.06,8.9,8.9,0,0,0-1.95-4.9,17.76,17.76,0,0,0-1.94-2.13,26,26,0,0,0-2.62-2,32.73,32.73,0,0,0-5-2.78,54.5,54.5,0,0,0-7.07-2.64,37.66,37.66,0,0,0-5.66-1.27l-.73-.09a2.79,2.79,0,0,0-1.38.36,2.59,2.59,0,0,0,.66,4.79,49,49,0,0,1,7.49,2.37,43.94,43.94,0,0,1,8.59,4.58,17,17,0,0,1,2.41,2.23,7.9,7.9,0,0,1,.71,1.13,5.53,5.53,0,0,1,.2.66,4,4,0,0,1,0,.49,5.15,5.15,0,0,1-.16.56,7.72,7.72,0,0,1-.57.91,12.58,12.58,0,0,1-1.59,1.5,11.75,11.75,0,0,1-1.87,1,14.12,14.12,0,0,1-2.65.68,18.91,18.91,0,0,1-4,0,26.47,26.47,0,0,1-5.55-1.5,28.92,28.92,0,0,1-5.67-3.18,23.8,23.8,0,0,1-3.74-3.56A17,17,0,0,1,896.2,548a12.93,12.93,0,0,1-.79-2.73,8.78,8.78,0,0,1,.7-4.83,15.64,15.64,0,0,1,1.63-2.64,22.84,22.84,0,0,1,3.17-3,2.19,2.19,0,0,0,.7-1.63,2.26,2.26,0,0,0-.7-1.63,2.48,2.48,0,0,0-1.7-.67,2.64,2.64,0,0,0-1.7.67m14.81,14.23.18.08-.18-.08" fill="#161616"/><path d="M892.78,550.7c-3.46,3.27-6.64,7.54-6.53,12.42.09,4,2.49,7.51,5.62,10a36.2,36.2,0,0,0,12.32,6.07,48.82,48.82,0,0,0,6.55,1.47,48.06,48.06,0,0,0,7,.65,32.82,32.82,0,0,0,6.18-.49,15.94,15.94,0,0,0,2.26-.58,12.71,12.71,0,0,0,2.44-1.09,7.23,7.23,0,0,0,3.3-3.95,5.68,5.68,0,0,0,.23-2.28,9.88,9.88,0,0,0-.27-1.52,12.6,12.6,0,0,0-.64-1.57,15.19,15.19,0,0,0-2.75-3.78,34.89,34.89,0,0,0-4.93-4.21,2.54,2.54,0,0,0-1.29-.34,2.64,2.64,0,0,0-1.82.72,2.41,2.41,0,0,0,0,3.49,37.6,37.6,0,0,1,4.35,4.3,12,12,0,0,1,1.38,2.16,5.5,5.5,0,0,1,.27.9c0,.12,0,.24,0,.36l-.06.21-.13.22-.35.32a8.49,8.49,0,0,1-1.07.58,16.28,16.28,0,0,1-3.24.78,38.48,38.48,0,0,1-8.78-.15,49.61,49.61,0,0,1-11.28-2.9,29.53,29.53,0,0,1-5.85-3.18,16.92,16.92,0,0,1-2.51-2.35,11.07,11.07,0,0,1-1.12-1.83,8.25,8.25,0,0,1-.47-1.61,8.37,8.37,0,0,1,0-1.66,10.67,10.67,0,0,1,.61-2.09,16.28,16.28,0,0,1,1.9-3,29.2,29.2,0,0,1,2.35-2.5,2.44,2.44,0,0,0,0-3.53,2.62,2.62,0,0,0-1.82-.72,2.74,2.74,0,0,0-1.85.72" fill="#161616"/><path d="M892.12,571.58a2.28,2.28,0,0,0-1.35,1,25.16,25.16,0,0,0-3.54,6.82,15.81,15.81,0,0,0-.64,3.26,12.14,12.14,0,0,0,.14,3,10.39,10.39,0,0,0,.87,2.7,9.87,9.87,0,0,0,1.19,2,14.79,14.79,0,0,0,2,2.13,19.19,19.19,0,0,0,2.48,1.81,26.27,26.27,0,0,0,5.6,2.49,37.28,37.28,0,0,0,6,1.38,51.14,51.14,0,0,0,13,.39,39.19,39.19,0,0,0,6-1,19.7,19.7,0,0,0,4.71-1.84,8.48,8.48,0,0,0,3.28-3,5.49,5.49,0,0,0,.46-4.51,8.7,8.7,0,0,0-1.73-2.83,15.22,15.22,0,0,0-2.75-2.37,40.28,40.28,0,0,0-9.12-4.61,2.52,2.52,0,0,0-2.78,1.08,2.32,2.32,0,0,0,.88,3.24,45.33,45.33,0,0,1,8.06,4.35,12.47,12.47,0,0,1,1.89,1.74,5.58,5.58,0,0,1,.46.73c0,.11.07.22.1.33V590a.57.57,0,0,1,0,.14,2.61,2.61,0,0,1-.17.28,8.22,8.22,0,0,1-.61.57,11.6,11.6,0,0,1-2,1.08,28.74,28.74,0,0,1-6.43,1.55,49.3,49.3,0,0,1-11.77,0,35.72,35.72,0,0,1-8-2,19.59,19.59,0,0,1-3.76-2.06,12.22,12.22,0,0,1-1.81-1.71,10,10,0,0,1-1-1.59,9,9,0,0,1-.49-1.76,9.93,9.93,0,0,1,0-2.18,15.1,15.1,0,0,1,1-3.28,27.12,27.12,0,0,1,2.48-4.22,2.12,2.12,0,0,0-.81-3,2.29,2.29,0,0,0-1.14-.3,2,2,0,0,0-.6.08m26.33,22-.21,0,.21,0m-12,.05.23,0-.23,0" fill="#161616"/><path d="M892.82,593.38a10.88,10.88,0,0,0,.28,7.42,13,13,0,0,0,.89,1.79,15.63,15.63,0,0,0,1.3,1.73,16.07,16.07,0,0,0,2.91,2.61,25.65,25.65,0,0,0,7.19,3.55,33.68,33.68,0,0,0,8.21,1.57,25.13,25.13,0,0,0,7-.47,12,12,0,0,0,5.72-2.82,7.38,7.38,0,0,0,2.29-5.83,13.87,13.87,0,0,0-3.16-7.35L925,595a2.89,2.89,0,0,0-1.23-.69,3,3,0,0,0-2.16.27,2.76,2.76,0,0,0-1.28,1.61,2.52,2.52,0,0,0,.28,2.07,19.33,19.33,0,0,1,1.86,3A9.25,9.25,0,0,1,923,603a5.89,5.89,0,0,1,0,.84,5.44,5.44,0,0,1-.15.54c-.09.16-.19.31-.29.46a5.79,5.79,0,0,1-.57.54,8.92,8.92,0,0,1-1.29.7,14.78,14.78,0,0,1-3,.74,26.82,26.82,0,0,1-5.94,0,31.12,31.12,0,0,1-7-1.81,21.81,21.81,0,0,1-4.19-2.29,14.08,14.08,0,0,1-2-1.91,10.78,10.78,0,0,1-1-1.65,6.08,6.08,0,0,1-.43-3.26,10,10,0,0,1,.3-1.23,2.31,2.31,0,0,0-1.67-2.82,2.25,2.25,0,0,0-.62-.08,2.4,2.4,0,0,0-2.32,1.68" fill="#161616"/><path d="M879.37,563.55a2,2,0,0,0-.66,1.52,54.43,54.43,0,0,0,5.7,19.36,2.43,2.43,0,0,0,1.5,1.11,2.64,2.64,0,0,0,2-.25,2.39,2.39,0,0,0,.9-3.31,49.16,49.16,0,0,1-2.26-4.39,45.44,45.44,0,0,1-3.17-11.22l-.15-1.3a2.26,2.26,0,0,0-.65-1.52,2.3,2.3,0,0,0-3.16,0m3.9,2.41,0,.23a2.23,2.23,0,0,0,0-.23" fill="#161616"/><path d="M900.5,491.81c.18,3.53.33,7.07.49,10.6s.42,7.33.7,11,.62,7.05,1.08,10.56a52.23,52.23,0,0,0,2.37,11.19,2.63,2.63,0,0,0,.7,1.15,2.81,2.81,0,0,0,1.94.77,2.7,2.7,0,0,0,2.73-2.62,52.21,52.21,0,0,0-.59-5.85q-.39-2.73-.84-5.46c-.59-3.56-1.16-7.13-1.68-10.71-.94-6.85-1.76-13.73-2.22-20.63a2.29,2.29,0,0,0-.68-1.59,2.41,2.41,0,0,0-1.66-.66,2.31,2.31,0,0,0-2.34,2.25" fill="#161616"/><path d="M900.53,495.41a180.36,180.36,0,0,0,.57,24.38c.36,4,.83,8,1.38,12,.29,2.17.61,4.32,1,6.48a56.71,56.71,0,0,0,1.28,6,2.8,2.8,0,0,0,2.69,2,2.85,2.85,0,0,0,2-.79,2.48,2.48,0,0,0,.82-1.89c-.48-3.69-1.33-7.32-2.05-11q-1-5.24-1.8-10.5a153.88,153.88,0,0,1-1.58-26.69,2.13,2.13,0,0,0-4.25,0m5.86,26.85,0,.25,0-.25" fill="#161616"/><path d="M905.81,609.51c0,5.62,0,11.24.09,16.86,0,2.81.05,5.62.07,8.43s0,5.89.07,8.83a3.51,3.51,0,0,0,7,0c-.07-2.81-.25-5.62-.39-8.43s-.26-5.62-.38-8.43c-.24-5.75-.43-11.5-.5-17.26a3,3,0,0,0-6,0" fill="#161616"/><path d="M1105.93,463.09c-1,26-3,52-4.52,77.95-.74,13.08-1.32,26.16-1.51,39.25a344.82,344.82,0,0,0,1.29,39,108.41,108.41,0,0,0,2.88,17.25,4.16,4.16,0,0,0,8.12-1.06c.25-6.43-.1-12.87-.42-19.29s-.62-13-.86-19.45q-.73-19.58-.69-39.17t.82-39.26c.49-13,1.08-26,1.65-39q.36-8.12.67-16.21a3.72,3.72,0,0,0-7.43,0" fill="#161616"/><path d="M998,335q-3.78,6.72-8,13.2a2.61,2.61,0,0,0,1,3.63,2.86,2.86,0,0,0,3.79-.95q4.17-6.51,8-13.22a2.62,2.62,0,0,0-1-3.61,3,3,0,0,0-1.38-.35A2.73,2.73,0,0,0,998,335" fill="#161616"/><path d="M980.1,438.17a7.79,7.79,0,1,0,7.78-7.48,7.7,7.7,0,0,0-7.78,7.48" fill="#161616"/><path d="M986.35,514.72a7.79,7.79,0,1,0,7.78-7.48,7.7,7.7,0,0,0-7.78,7.48" fill="#161616"/></g></g><g id="CareerPlaybook"><path d="M142.73,144.92h-6.28l-2.62,16h-7.78l2.62-16H120v-7.15h9.84l1.72-10.31h-8.63v-7.15h9.8l2.7-16.25h7.73l-2.65,16.25h6.29l2.69-16.25h7.78l-2.7,16.25h9v7.15H153.4l-1.72,10.31h8.94v7.15H150.51l-2.62,16h-7.77Zm-5.11-7.15h6.29l1.71-10.31h-6.28Z" fill="#da2222"/><path d="M213.24,141.76l.08.23q.15,9.73-5.49,14.75t-16,5q-10.56,0-16.94-6.45t-6.38-16.87V126.56q0-10.38,6.15-16.85t16.27-6.47q10.81,0,16.74,5t5.76,14.65l-.12.23H200.47q0-5.23-2.23-7.5c-1.48-1.51-3.92-2.26-7.3-2.26A7.73,7.73,0,0,0,184.1,117q-2.39,3.59-2.38,9.51v12q0,6,2.62,9.57a8.72,8.72,0,0,0,7.5,3.59q4.53,0,6.54-2.26t2-7.58Z" fill="#da2222"/><path d="M244.26,160.9a15.65,15.65,0,0,1-1.27-3,23,23,0,0,1-.8-3.51,16.18,16.18,0,0,1-4.24,5.37,10.23,10.23,0,0,1-6.58,2q-6.65,0-10.33-3.42t-3.7-9.32a11.27,11.27,0,0,1,4.73-9.7q4.73-3.42,14.34-3.42h5.43v-3a6,6,0,0,0-1.29-4.14,5,5,0,0,0-4-1.45,4.76,4.76,0,0,0-3.42,1.08,4.47,4.47,0,0,0-1.11,3.34l-12.81,0-.08-.23q-.27-5.79,4.82-9.67t13.46-3.89c5.24,0,9.47,1.3,12.72,3.91S255,128.12,255,133v15.94a32.33,32.33,0,0,0,.57,6.25,33.46,33.46,0,0,0,1.69,5.78Zm-9.3-8.56a8,8,0,0,0,4.28-1.13,6.54,6.54,0,0,0,2.6-2.69v-5.59h-5.32q-3.17,0-4.57,1.52a5.53,5.53,0,0,0-1.4,3.87,3.73,3.73,0,0,0,1.23,2.91A4.57,4.57,0,0,0,235,152.34Z" fill="#da2222"/><path d="M285.62,129.92l-4.29,0a7.3,7.3,0,0,0-3.71.84,5.15,5.15,0,0,0-2.15,2.37v27.85h-13.2V118.67h12.42l.47,6.21a12.64,12.64,0,0,1,3.51-5.15,7.7,7.7,0,0,1,5.12-1.84,9.57,9.57,0,0,1,1.6.12,12.17,12.17,0,0,1,1.49.35Z" fill="#da2222"/><path d="M308.48,161.76q-9.62,0-15.06-5.82A20.71,20.71,0,0,1,288,141.21v-1.48q0-9.69,5.14-15.78T308,117.89q8.55,0,13.26,5.12t4.71,14V144H301.72l-.08.23a8.24,8.24,0,0,0,2.46,5.37,8.58,8.58,0,0,0,6.17,2,27.13,27.13,0,0,0,6.31-.62,39.19,39.19,0,0,0,5.76-2l3.17,8.05a24.12,24.12,0,0,1-7.35,3.36A33.9,33.9,0,0,1,308.48,161.76ZM308,128.05a5.45,5.45,0,0,0-4.67,2,10.15,10.15,0,0,0-1.74,5.45l.08.19h11.41v-1a8.76,8.76,0,0,0-1.16-5A4.39,4.39,0,0,0,308,128.05Z" fill="#da2222"/><path d="M350.27,161.76q-9.6,0-15.06-5.82t-5.44-14.73v-1.48q0-9.69,5.13-15.78t14.87-6.06q8.55,0,13.26,5.12t4.7,14V144H343.52l-.08.23a8.24,8.24,0,0,0,2.46,5.37,8.58,8.58,0,0,0,6.17,2,27.13,27.13,0,0,0,6.31-.62,39.19,39.19,0,0,0,5.76-2L367.3,157a24.06,24.06,0,0,1-7.34,3.36A33.92,33.92,0,0,1,350.27,161.76Zm-.5-33.71a5.45,5.45,0,0,0-4.67,2,10.07,10.07,0,0,0-1.74,5.45l.08.19h11.4v-1a8.76,8.76,0,0,0-1.15-5A4.42,4.42,0,0,0,349.77,128.05Z" fill="#da2222"/><path d="M396.68,129.92l-4.3,0a7.3,7.3,0,0,0-3.71.84,5.21,5.21,0,0,0-2.15,2.37v27.85h-13.2V118.67h12.42l.47,6.21a12.75,12.75,0,0,1,3.52-5.15,7.66,7.66,0,0,1,5.11-1.84,9.7,9.7,0,0,1,1.61.12,12,12,0,0,1,1.48.35Z" fill="#da2222"/><path d="M415.51,141.45v19.49H402.3V104.06H424q10.13,0,16.06,5.16a18.41,18.41,0,0,1,0,27.09q-5.94,5.13-16.06,5.14Zm0-10.16H424q4.31,0,6.57-2.36a8.43,8.43,0,0,0,2.26-6.08,8.82,8.82,0,0,0-2.24-6.21q-2.25-2.42-6.59-2.42h-8.51Z" fill="#da2222"/><path d="M466.37,160.94H453.12V100h13.25Z" fill="#da2222"/><path d="M498.87,160.9a15.65,15.65,0,0,1-1.27-3,23,23,0,0,1-.8-3.51,16.18,16.18,0,0,1-4.24,5.37,10.25,10.25,0,0,1-6.58,2q-6.64,0-10.34-3.42A12.08,12.08,0,0,1,472,149a11.27,11.27,0,0,1,4.73-9.7q4.72-3.42,14.34-3.42h5.43v-3a6,6,0,0,0-1.29-4.14,5,5,0,0,0-4-1.45,4.76,4.76,0,0,0-3.42,1.08,4.47,4.47,0,0,0-1.11,3.34l-12.81,0-.08-.23q-.27-5.79,4.82-9.67t13.46-3.89q7.85,0,12.72,3.91T509.65,133v15.94a33.17,33.17,0,0,0,.56,6.25,34.42,34.42,0,0,0,1.7,5.78Zm-9.3-8.56a8,8,0,0,0,4.28-1.13,6.54,6.54,0,0,0,2.6-2.69v-5.59h-5.32q-3.17,0-4.57,1.52a5.48,5.48,0,0,0-1.4,3.87,3.73,3.73,0,0,0,1.23,2.91A4.57,4.57,0,0,0,489.57,152.34Z" fill="#da2222"/><path d="M532.66,142.3l0,.32h.23l7-24H554l-16.83,48.56a23.23,23.23,0,0,1-5,7.73q-3.09,3-9.81,3a14.46,14.46,0,0,1-2.81-.22c-.73-.14-1.87-.41-3.44-.8l1.61-9.41.82.17a3.31,3.31,0,0,0,.7.06,8.69,8.69,0,0,0,4.57-.92,5.47,5.47,0,0,0,2.15-2.75l1.05-2.73-14.61-42.74h14Z" fill="#da2222"/><path d="M596.56,140.7q0,9.66-4.14,15.35t-12.26,5.71a11.84,11.84,0,0,1-6-1.49,13.05,13.05,0,0,1-4.41-4.29l-.78,5H557.42V100h13.2v22.77a12.9,12.9,0,0,1,4.09-3.61,11,11,0,0,1,5.37-1.27q8.16,0,12.32,6t4.16,16Zm-13.16-.82a21.67,21.67,0,0,0-1.41-8.73,5.22,5.22,0,0,0-5.23-3.1,7.82,7.82,0,0,0-3.69.8,6,6,0,0,0-2.45,2.32V149a5.82,5.82,0,0,0,2.49,2,9.43,9.43,0,0,0,3.73.66q3.9,0,5.23-2.71t1.33-8.19Z" fill="#da2222"/><path d="M600.62,139.41q0-9.53,5.4-15.52t15-6q9.69,0,15.08,6t5.39,15.52v.82q0,9.59-5.39,15.55t-15,6q-9.72,0-15.11-6t-5.4-15.55Zm13.21.82a17.39,17.39,0,0,0,1.66,8.34c1.1,2,3,3,5.64,3a5.83,5.83,0,0,0,5.55-3,17.3,17.3,0,0,0,1.68-8.32v-.82a17.4,17.4,0,0,0-1.68-8.26,5.89,5.89,0,0,0-5.63-3.1,5.79,5.79,0,0,0-5.56,3.12,17.56,17.56,0,0,0-1.66,8.24Z" fill="#da2222"/><path d="M645.59,139.41q0-9.53,5.39-15.52t15-6q9.68,0,15.07,6t5.39,15.52v.82q0,9.59-5.39,15.55t-15,6q-9.72,0-15.11-6t-5.39-15.55Zm13.2.82a17.39,17.39,0,0,0,1.66,8.34,5.91,5.91,0,0,0,5.64,3,5.83,5.83,0,0,0,5.55-3,17.3,17.3,0,0,0,1.68-8.32v-.82a17.4,17.4,0,0,0-1.68-8.26,5.87,5.87,0,0,0-5.62-3.1,5.81,5.81,0,0,0-5.57,3.12,17.56,17.56,0,0,0-1.66,8.24Z" fill="#da2222"/><path d="M707.89,144.14h-2.38v16.8H692.3V100h13.21v34.18h1.87l8.91-15.51h15.12l-13,19.06,15.15,23.21h-15Z" fill="#da2222"/></g></svg>