<svg id="Layer_1" data-name="Layer 1" xmlns="http://www.w3.org/2000/svg" viewBox="0 0 1200 628"><title>CP013_blog</title><rect id="White" width="1200" height="628" style="fill:#fff"/><g id="_013" data-name="013"><path d="M163.48,230a45.82,45.82,0,0,1-1.6,12.88,27,27,0,0,1-4.36,9,17.67,17.67,0,0,1-6.46,5.3,18.76,18.76,0,0,1-15.78,0,17.78,17.78,0,0,1-6.44-5.3,26.58,26.58,0,0,1-4.34-9,53.29,53.29,0,0,1,0-25.76,26.58,26.58,0,0,1,4.34-9,17.78,17.78,0,0,1,6.44-5.3,18.76,18.76,0,0,1,15.78,0,17.67,17.67,0,0,1,6.46,5.3,27,27,0,0,1,4.36,9A45.82,45.82,0,0,1,163.48,230Zm-4,0a45.5,45.5,0,0,0-1.32-11.76,24.8,24.8,0,0,0-3.54-8,13.76,13.76,0,0,0-5.2-4.54,14.21,14.21,0,0,0-6.26-1.44,13.69,13.69,0,0,0-11.44,6,24.6,24.6,0,0,0-3.56,8,53.13,53.13,0,0,0,0,23.54,24.57,24.57,0,0,0,3.56,8,13.83,13.83,0,0,0,5.2,4.52,14.18,14.18,0,0,0,6.24,1.42,14.33,14.33,0,0,0,6.26-1.42,13.61,13.61,0,0,0,5.2-4.52,24.78,24.78,0,0,0,3.54-8A45.51,45.51,0,0,0,159.48,230Z"/><path d="M206.28,255.32v3h-29.2v-3h13V209.4q0-1.36.12-2.88L177.72,217.6a1.28,1.28,0,0,1-1.12.36,1.58,1.58,0,0,1-.88-.48l-1.16-1.6,16.36-14.44h3v53.88Z"/><path d="M219,216.32a19.77,19.77,0,0,1,2-6.48,16,16,0,0,1,3.76-4.8,15.76,15.76,0,0,1,5.28-3,20,20,0,0,1,6.48-1,20.4,20.4,0,0,1,6.12.9,14.84,14.84,0,0,1,5.06,2.7,12.77,12.77,0,0,1,3.44,4.48,14.42,14.42,0,0,1,1.26,6.2,14,14,0,0,1-.84,5,12.36,12.36,0,0,1-2.34,3.9,13.59,13.59,0,0,1-3.54,2.82,18,18,0,0,1-4.44,1.74q6.24,1.16,9.42,4.82a13.44,13.44,0,0,1,3.18,9.14,15.06,15.06,0,0,1-1.4,6.46,15.86,15.86,0,0,1-3.84,5.14,17.91,17.91,0,0,1-5.76,3.38,20.85,20.85,0,0,1-7.2,1.22,21.76,21.76,0,0,1-8.06-1.3,15.22,15.22,0,0,1-8.54-8,35.92,35.92,0,0,1-1.88-5.14l1.52-.64a2.27,2.27,0,0,1,1.34-.16,1.36,1.36,0,0,1,1,.92q.19.48.54,1.5a15.17,15.17,0,0,0,1,2.26,15.69,15.69,0,0,0,1.66,2.54,11.75,11.75,0,0,0,2.56,2.38,13.24,13.24,0,0,0,3.7,1.76,17.21,17.21,0,0,0,5.12.68,15.39,15.39,0,0,0,6.3-1.2,14.52,14.52,0,0,0,4.52-3.06,12.43,12.43,0,0,0,2.72-4.16,12.19,12.19,0,0,0,.9-4.46,14.13,14.13,0,0,0-.82-4.84,9.13,9.13,0,0,0-2.74-3.86,14.05,14.05,0,0,0-5.06-2.56,27.29,27.29,0,0,0-7.74-.94v-2.76a22.75,22.75,0,0,0,6.48-1,14,14,0,0,0,4.68-2.46,10.17,10.17,0,0,0,2.84-3.72,11.6,11.6,0,0,0,1-4.76,12.59,12.59,0,0,0-1-5.2,10.36,10.36,0,0,0-2.68-3.64,10.71,10.71,0,0,0-3.92-2.12,16.2,16.2,0,0,0-4.68-.68,14.46,14.46,0,0,0-5,.82,13.21,13.21,0,0,0-4,2.28,12.7,12.7,0,0,0-2.9,3.48,13.59,13.59,0,0,0-1.6,4.42,1.53,1.53,0,0,1-1.92,1.36Z"/><path d="M148.33,327.45h-15v10.64h18v7.61H123.4V303.05h27.95v7.61h-18v9.17h15Z"/><path d="M167.4,332.64,168,336l.17,0,.65-3.4L173,314h10.4l-10.31,31.7H163L152.72,314h10.43Z"/><path d="M200.07,346.32q-7.22,0-11.3-4.37a15.53,15.53,0,0,1-4.08-11v-1.12q0-7.26,3.85-11.83t11.15-4.54q6.41,0,9.94,3.84t3.53,10.51V333H195l-.06.17a6.14,6.14,0,0,0,1.85,4,6.41,6.41,0,0,0,4.63,1.54,20.2,20.2,0,0,0,4.73-.47,29.82,29.82,0,0,0,4.32-1.49l2.37,6a17.93,17.93,0,0,1-5.51,2.52A25.13,25.13,0,0,1,200.07,346.32ZM199.69,321a4.09,4.09,0,0,0-3.5,1.5,7.55,7.55,0,0,0-1.31,4.09l.06.15h8.56V326a6.59,6.59,0,0,0-.87-3.73A3.32,3.32,0,0,0,199.69,321Z"/><path d="M234.87,322.44l-3.22,0a5.47,5.47,0,0,0-2.78.63,3.84,3.84,0,0,0-1.61,1.77V345.7h-9.91V314h9.32l.35,4.66a9.59,9.59,0,0,1,2.64-3.87,5.81,5.81,0,0,1,3.84-1.37,7.16,7.16,0,0,1,1.2.09,7.34,7.34,0,0,1,1.11.26Z"/><path d="M251.31,331.73l0,.23h.17l5.25-18H267.3l-12.62,36.42a17.57,17.57,0,0,1-3.78,5.8c-1.54,1.52-4,2.29-7.36,2.29a10.89,10.89,0,0,1-2.1-.17q-.83-.15-2.58-.6l1.2-7.06.61.14a3.71,3.71,0,0,0,.53,0,6.58,6.58,0,0,0,3.43-.69,4.11,4.11,0,0,0,1.61-2.06l.79-2.06-11-32.05h10.52Z"/><path d="M301.35,336.8a2.61,2.61,0,0,0-1.34-2.1,14.45,14.45,0,0,0-4.84-1.65c-3.7-.73-6.48-1.84-8.35-3.36a7.58,7.58,0,0,1-2.82-6.25,8.94,8.94,0,0,1,3.52-7.11q3.51-2.91,9.52-2.91,6.33,0,10.08,2.83a8.29,8.29,0,0,1,3.57,7.3l-.06.18H301a3.94,3.94,0,0,0-.94-2.84,4.14,4.14,0,0,0-3.08-1,4.09,4.09,0,0,0-2.61.85,2.68,2.68,0,0,0-1,2.17,2.57,2.57,0,0,0,1.22,2.14,13.86,13.86,0,0,0,4.9,1.58q5.83,1.14,8.62,3.41a7.85,7.85,0,0,1,2.78,6.43,8.42,8.42,0,0,1-3.79,7.05q-3.79,2.77-10,2.77-6.48,0-10.24-3.28c-2.51-2.19-3.7-4.63-3.59-7.33l.06-.17h9a4,4,0,0,0,1.36,3.25,6,6,0,0,0,3.7,1,4.93,4.93,0,0,0,3-.78A2.6,2.6,0,0,0,301.35,336.8Z"/><path d="M325.9,306.65H316V300h9.93Zm0,39.05H316V314h9.93Z"/><path d="M343.33,306.12V314h5v6.86h-5v14.53a3.57,3.57,0,0,0,.69,2.45,2.43,2.43,0,0,0,1.86.74c.51,0,.91,0,1.21-.05a10.07,10.07,0,0,0,1.16-.24l.68,7.33a25.7,25.7,0,0,1-2.7.54,23.11,23.11,0,0,1-2.84.16q-4.89,0-7.43-2.61t-2.53-8.26V320.86H329V314h4.43v-7.88Z"/><path d="M372.25,341a10.49,10.49,0,0,1-3.65,4,9.69,9.69,0,0,1-5.17,1.39,9.37,9.37,0,0,1-7.72-3.46q-2.81-3.45-2.8-10.69V314h9.87v18.23q0,3.72,1,5.09a3.31,3.31,0,0,0,2.94,1.38,8.15,8.15,0,0,0,2.78-.44,5.26,5.26,0,0,0,2.05-1.32V314h9.91v31.7h-8Z"/><path d="M405.18,345.67a11.63,11.63,0,0,1-1-2.25,18.15,18.15,0,0,1-.6-2.64,12.17,12.17,0,0,1-3.18,4,7.63,7.63,0,0,1-4.93,1.51c-3.32,0-5.91-.86-7.75-2.57a9,9,0,0,1-2.77-7,8.43,8.43,0,0,1,3.55-7.28q3.54-2.57,10.75-2.57h4.07v-2.25a4.51,4.51,0,0,0-1-3.11,3.77,3.77,0,0,0-3-1.08,3.6,3.6,0,0,0-2.56.8,3.35,3.35,0,0,0-.83,2.51l-9.61,0-.06-.18a8.27,8.27,0,0,1,3.62-7.25q3.81-2.91,10.09-2.91a14.77,14.77,0,0,1,9.53,2.93q3.66,2.92,3.65,8.38v11.95a23.9,23.9,0,0,0,.43,4.69A24.44,24.44,0,0,0,415,345.7Zm-7-6.41a6.11,6.11,0,0,0,3.21-.85,4.87,4.87,0,0,0,1.95-2V332.2h-4a4.47,4.47,0,0,0-3.43,1.14,4.08,4.08,0,0,0-1.06,2.9,2.78,2.78,0,0,0,.93,2.18A3.39,3.39,0,0,0,398.2,339.26Z"/><path d="M430.05,306.12V314h5v6.86h-5v14.53a3.57,3.57,0,0,0,.69,2.45,2.43,2.43,0,0,0,1.86.74c.51,0,.91,0,1.21-.05a10.07,10.07,0,0,0,1.16-.24l.67,7.33a25.06,25.06,0,0,1-2.69.54,23.11,23.11,0,0,1-2.84.16q-4.89,0-7.43-2.61t-2.53-8.26V320.86h-4.43V314h4.43v-7.88Z"/><path d="M450.23,306.65H440.3V300h9.93Zm0,39.05H440.3V314h9.93Z"/><path d="M455,329.56q0-7.15,4-11.64t11.28-4.5q7.27,0,11.31,4.5t4,11.64v.62q0,7.17-4,11.66t-11.25,4.48q-7.29,0-11.34-4.48t-4-11.66Zm9.9.62a13.09,13.09,0,0,0,1.25,6.25,4.43,4.43,0,0,0,4.23,2.27,4.38,4.38,0,0,0,4.16-2.28,13,13,0,0,0,1.26-6.24v-.62a13.07,13.07,0,0,0-1.26-6.2A4.41,4.41,0,0,0,470.3,321a4.35,4.35,0,0,0-4.17,2.34,13.17,13.17,0,0,0-1.25,6.18Z"/><path d="M499.13,314l.38,4.46a11.6,11.6,0,0,1,3.84-3.71,9.9,9.9,0,0,1,5.1-1.33,8.94,8.94,0,0,1,7.28,3.16q2.63,3.17,2.62,10.05V345.7h-9.9V326.6a7.29,7.29,0,0,0-1-4.29,3.3,3.3,0,0,0-2.81-1.27,7,7,0,0,0-2.84.55,5.65,5.65,0,0,0-2.11,1.58V345.7h-9.88V314Z"/><path d="M548.29,317.93a10.66,10.66,0,0,1,3.5-3.33,9,9,0,0,1,4.56-1.18,9.44,9.44,0,0,1,7.73,3.43q2.82,3.42,2.81,10.63V345.7H557V327.42c0-2.42-.31-4.09-.94-5a3.19,3.19,0,0,0-2.84-1.37,8,8,0,0,0-2.9.48,5.19,5.19,0,0,0-2,1.36V345.7h-9.9V300h9.9Z"/><path d="M590.71,345.67a11.62,11.62,0,0,1-1-2.25,18.15,18.15,0,0,1-.6-2.64,12.17,12.17,0,0,1-3.18,4,7.64,7.64,0,0,1-4.94,1.51q-5,0-7.74-2.57a9,9,0,0,1-2.77-7,8.45,8.45,0,0,1,3.54-7.28q3.55-2.57,10.75-2.57h4.08v-2.25a4.56,4.56,0,0,0-1-3.11,3.77,3.77,0,0,0-3-1.08,3.59,3.59,0,0,0-2.56.8,3.35,3.35,0,0,0-.84,2.51l-9.61,0-.06-.18a8.29,8.29,0,0,1,3.62-7.25q3.83-2.91,10.1-2.91a14.77,14.77,0,0,1,9.53,2.93q3.65,2.92,3.65,8.38v11.95a24.72,24.72,0,0,0,.42,4.69,25.35,25.35,0,0,0,1.28,4.33Zm-7-6.41a6.11,6.11,0,0,0,3.21-.85,4.87,4.87,0,0,0,1.95-2V332.2h-4a4.5,4.5,0,0,0-3.43,1.14,4.12,4.12,0,0,0-1.05,2.9,2.8,2.8,0,0,0,.92,2.18A3.42,3.42,0,0,0,583.74,339.26Z"/><path d="M620.74,336.8a2.59,2.59,0,0,0-1.33-2.1,14.61,14.61,0,0,0-4.85-1.65c-3.69-.73-6.47-1.84-8.35-3.36a7.6,7.6,0,0,1-2.81-6.25,8.93,8.93,0,0,1,3.51-7.11q3.52-2.91,9.53-2.91,6.31,0,10.07,2.83a8.3,8.3,0,0,1,3.58,7.3l-.06.18h-9.61a3.89,3.89,0,0,0-.94-2.84,4.11,4.11,0,0,0-3.07-1,4.05,4.05,0,0,0-2.61.85,2.68,2.68,0,0,0-1.06,2.17,2.59,2.59,0,0,0,1.22,2.14,13.93,13.93,0,0,0,4.91,1.58q5.82,1.14,8.61,3.41a7.82,7.82,0,0,1,2.78,6.43,8.39,8.39,0,0,1-3.79,7.05q-3.79,2.77-10,2.77-6.48,0-10.24-3.28t-3.59-7.33l.06-.17h9a4,4,0,0,0,1.36,3.25,6,6,0,0,0,3.71,1,5,5,0,0,0,3-.78A2.62,2.62,0,0,0,620.74,336.8Z"/><path d="M139.34,408.8a2.61,2.61,0,0,0-1.34-2.1,14.52,14.52,0,0,0-4.85-1.65c-3.69-.73-6.47-1.84-8.35-3.36a7.6,7.6,0,0,1-2.81-6.25,8.91,8.91,0,0,1,3.52-7.11q3.51-2.91,9.52-2.91,6.33,0,10.08,2.83a8.29,8.29,0,0,1,3.57,7.3l-.06.18H139a3.93,3.93,0,0,0-.93-2.84,4.14,4.14,0,0,0-3.08-1,4.07,4.07,0,0,0-2.61.85,2.68,2.68,0,0,0-1,2.17,2.58,2.58,0,0,0,1.21,2.14,13.93,13.93,0,0,0,4.91,1.58q5.83,1.14,8.61,3.41a7.83,7.83,0,0,1,2.79,6.43,8.4,8.4,0,0,1-3.8,7.05q-3.8,2.77-10,2.77-6.48,0-10.24-3.28t-3.59-7.33l.06-.17h9a4,4,0,0,0,1.37,3.25,6,6,0,0,0,3.7,1,4.93,4.93,0,0,0,3-.78A2.63,2.63,0,0,0,139.34,408.8Z"/><path d="M152.2,401.56q0-7.15,4-11.64t11.28-4.5q7.26,0,11.31,4.5t4,11.64v.62q0,7.17-4,11.66t-11.25,4.48c-4.87,0-8.64-1.5-11.34-4.48s-4-6.88-4-11.66Zm9.9.62a13.1,13.1,0,0,0,1.24,6.25,4.45,4.45,0,0,0,4.24,2.27,4.38,4.38,0,0,0,4.16-2.28,13,13,0,0,0,1.26-6.24v-.62a13.07,13.07,0,0,0-1.26-6.2,4.41,4.41,0,0,0-4.22-2.32,4.36,4.36,0,0,0-4.18,2.34,13.17,13.17,0,0,0-1.24,6.18Z"/><path d="M196.55,386l.35,4.19a10.25,10.25,0,0,1,9-4.77,9.71,9.71,0,0,1,5.1,1.29,8,8,0,0,1,3.22,3.92,10.69,10.69,0,0,1,3.76-3.85,10.37,10.37,0,0,1,5.38-1.36,8.82,8.82,0,0,1,7.28,3.32q2.65,3.33,2.65,10.24V417.7h-9.93V399c0-2.26-.32-3.82-1-4.67a3.35,3.35,0,0,0-2.86-1.27,5.92,5.92,0,0,0-2.53.51,5.13,5.13,0,0,0-1.86,1.42c0,.33,0,.62,0,.86s0,.49,0,.72V417.7h-9.91V399c0-2.28-.31-3.85-.93-4.69a3.41,3.41,0,0,0-2.9-1.25,5.74,5.74,0,0,0-2.45.51,5.31,5.31,0,0,0-1.86,1.42V417.7h-9.9V386Z"/><path d="M253,418.32q-7.22,0-11.3-4.37a15.53,15.53,0,0,1-4.08-11v-1.12q0-7.26,3.85-11.83t11.15-4.54q6.42,0,9.94,3.84t3.53,10.51V405H247.91l-.06.17a6.14,6.14,0,0,0,1.85,4,6.41,6.41,0,0,0,4.63,1.54,20.2,20.2,0,0,0,4.73-.47,29.82,29.82,0,0,0,4.32-1.49l2.37,6a17.93,17.93,0,0,1-5.51,2.52A25.13,25.13,0,0,1,253,418.32ZM252.6,393a4.09,4.09,0,0,0-3.5,1.5,7.55,7.55,0,0,0-1.31,4.09l.06.15h8.56V398a6.59,6.59,0,0,0-.87-3.73A3.32,3.32,0,0,0,252.6,393Z"/><path d="M281.63,378.12V386h5v6.86h-5v14.53a3.57,3.57,0,0,0,.69,2.45,2.43,2.43,0,0,0,1.86.74c.51,0,.91,0,1.22-.05a10.42,10.42,0,0,0,1.15-.24l.68,7.33a25.7,25.7,0,0,1-2.7.54,23.11,23.11,0,0,1-2.84.16q-4.89,0-7.43-2.61t-2.53-8.26V392.86H267.3V386h4.43v-7.88Z"/><path d="M301.05,389.93a10.59,10.59,0,0,1,3.51-3.33,9,9,0,0,1,4.55-1.18,9.47,9.47,0,0,1,7.74,3.43q2.81,3.42,2.81,10.63V417.7h-9.9V399.42c0-2.42-.32-4.09-.94-5A3.2,3.2,0,0,0,306,393a7.94,7.94,0,0,0-2.9.48,5.23,5.23,0,0,0-2,1.36V417.7h-9.9V372h9.9Z"/><path d="M335.54,378.65h-9.93V372h9.93Zm0,39.05h-9.93V386h9.93Z"/><path d="M350.71,386l.38,4.46a11.6,11.6,0,0,1,3.84-3.71,9.93,9.93,0,0,1,5.1-1.33,8.94,8.94,0,0,1,7.28,3.16q2.63,3.17,2.62,10.05V417.7H360V398.6a7.22,7.22,0,0,0-1-4.29,3.3,3.3,0,0,0-2.81-1.27,7,7,0,0,0-2.84.55,5.73,5.73,0,0,0-2.11,1.58V417.7h-9.87V386Z"/><path d="M374,401.91q0-7.41,3.24-12a10.55,10.55,0,0,1,9.13-4.54,8.13,8.13,0,0,1,4.39,1.18A10.45,10.45,0,0,1,394,390l.65-4h8.73v31.35q0,6.27-4.29,9.71c-2.86,2.3-6.81,3.45-11.82,3.45a21.23,21.23,0,0,1-5.16-.68A28.91,28.91,0,0,1,377,428l1.7-7.33a23,23,0,0,0,4.09,1.39,19.38,19.38,0,0,0,4.47.46,7.33,7.33,0,0,0,4.7-1.26,4.88,4.88,0,0,0,1.54-4v-2.46a9.16,9.16,0,0,1-3.12,2.61,9,9,0,0,1-4.06.88A10.65,10.65,0,0,1,377.2,414Q374,409.65,374,402.53Zm9.88.62a13.06,13.06,0,0,0,1.13,6,4,4,0,0,0,3.82,2.15,6.86,6.86,0,0,0,2.77-.5,4.55,4.55,0,0,0,1.89-1.49V395.38a5,5,0,0,0-1.88-1.74,5.78,5.78,0,0,0-2.72-.6,4,4,0,0,0-3.83,2.44,14.86,14.86,0,0,0-1.18,6.43Z"/><path d="M453.34,402.53q0,7.14-3.22,11.47a10.68,10.68,0,0,1-9.08,4.32,9,9,0,0,1-4.06-.88,9.15,9.15,0,0,1-3.09-2.55v15H424V386h9.35l.29,3.46a9.72,9.72,0,0,1,3.15-3,8.3,8.3,0,0,1,4.21-1.05A10.55,10.55,0,0,1,450.1,390q3.24,4.55,3.24,12Zm-9.87-.62a14.82,14.82,0,0,0-1.18-6.44,3.91,3.91,0,0,0-3.75-2.43,5.94,5.94,0,0,0-2.82.61,4.56,4.56,0,0,0-1.83,1.79v13.24a4.26,4.26,0,0,0,1.86,1.52,7.06,7.06,0,0,0,2.85.5,3.9,3.9,0,0,0,3.74-2.15,13.19,13.19,0,0,0,1.13-6Z"/><path d="M456.39,401.56q0-7.15,4-11.64t11.28-4.5q7.26,0,11.31,4.5t4,11.64v.62q0,7.17-4,11.66t-11.25,4.48q-7.31,0-11.34-4.48t-4-11.66Zm9.9.62a13.1,13.1,0,0,0,1.24,6.25,4.45,4.45,0,0,0,4.24,2.27,4.38,4.38,0,0,0,4.16-2.28,13,13,0,0,0,1.26-6.24v-.62a13.07,13.07,0,0,0-1.26-6.2,4.41,4.41,0,0,0-4.22-2.32,4.36,4.36,0,0,0-4.18,2.34,13.17,13.17,0,0,0-1.24,6.18Z"/><path d="M508,408.8a2.62,2.62,0,0,0-1.33-2.1,14.61,14.61,0,0,0-4.85-1.65c-3.69-.73-6.48-1.84-8.35-3.36a7.58,7.58,0,0,1-2.81-6.25,8.93,8.93,0,0,1,3.51-7.11q3.51-2.91,9.52-2.91,6.33,0,10.08,2.83a8.29,8.29,0,0,1,3.57,7.3l0,.18h-9.61a3.94,3.94,0,0,0-.94-2.84,4.14,4.14,0,0,0-3.08-1,4,4,0,0,0-2.6.85,2.66,2.66,0,0,0-1.06,2.17,2.59,2.59,0,0,0,1.22,2.14,13.86,13.86,0,0,0,4.9,1.58q5.83,1.14,8.62,3.41a7.85,7.85,0,0,1,2.78,6.43,8.39,8.39,0,0,1-3.79,7.05q-3.79,2.77-10,2.77-6.47,0-10.24-3.28c-2.51-2.19-3.7-4.63-3.59-7.33l.06-.17h9a4,4,0,0,0,1.36,3.25,6,6,0,0,0,3.71,1,4.91,4.91,0,0,0,3-.78A2.6,2.6,0,0,0,508,408.8Z"/><path d="M532.5,378.65h-9.93V372h9.93Zm0,39.05h-9.93V386h9.93Z"/><path d="M549.93,378.12V386h5v6.86h-5v14.53a3.57,3.57,0,0,0,.69,2.45,2.43,2.43,0,0,0,1.86.74c.51,0,.91,0,1.22-.05a10.42,10.42,0,0,0,1.15-.24l.68,7.33a25.7,25.7,0,0,1-2.7.54,23.11,23.11,0,0,1-2.84.16q-4.89,0-7.43-2.61T540,407.45V392.86h-4.42V386H540v-7.88Z"/><path d="M570.12,378.65h-9.93V372h9.93Zm0,39.05h-9.93V386h9.93Z"/><path d="M588.05,404.64l.58,3.37.18,0,.64-3.4L593.64,386H604l-10.31,31.7H583.68L573.37,386H583.8Z"/><path d="M620.71,418.32q-7.2,0-11.29-4.37a15.5,15.5,0,0,1-4.09-11v-1.12q0-7.26,3.85-11.83t11.15-4.54q6.42,0,9.95,3.84t3.53,10.51V405H615.64l0,.17a6.13,6.13,0,0,0,1.84,4,6.44,6.44,0,0,0,4.63,1.54,20.14,20.14,0,0,0,4.73-.47,29.82,29.82,0,0,0,4.32-1.49l2.38,6a18,18,0,0,1-5.51,2.52A25.25,25.25,0,0,1,620.71,418.32ZM620.33,393a4.09,4.09,0,0,0-3.5,1.5,7.55,7.55,0,0,0-1.3,4.09l.06.15h8.55V398a6.68,6.68,0,0,0-.86-3.73A3.34,3.34,0,0,0,620.33,393Z"/><path d="M664.31,378.12V386h5v6.86h-5v14.53a3.57,3.57,0,0,0,.69,2.45,2.42,2.42,0,0,0,1.86.74c.5,0,.91,0,1.21-.05a10.07,10.07,0,0,0,1.16-.24l.67,7.33a25.06,25.06,0,0,1-2.69.54,23.11,23.11,0,0,1-2.84.16c-3.27,0-5.74-.87-7.43-2.61s-2.54-4.49-2.54-8.26V392.86H650V386h4.42v-7.88Z"/><path d="M672.8,401.56q0-7.15,4.05-11.64t11.27-4.5q7.27,0,11.31,4.5t4.05,11.64v.62q0,7.17-4.05,11.66t-11.25,4.48q-7.29,0-11.33-4.48t-4.05-11.66Zm9.91.62a13.1,13.1,0,0,0,1.24,6.25,4.43,4.43,0,0,0,4.23,2.27,4.37,4.37,0,0,0,4.16-2.28,13,13,0,0,0,1.26-6.24v-.62a13.07,13.07,0,0,0-1.26-6.2,4.41,4.41,0,0,0-4.22-2.32,4.35,4.35,0,0,0-4.17,2.34,13.17,13.17,0,0,0-1.24,6.18Z"/><path d="M733.15,378.65h-9.93V372h9.93Zm0,39.05h-9.93V386h9.93Z"/><path d="M750.59,378.12V386h5v6.86h-5v14.53a3.62,3.62,0,0,0,.68,2.45,2.43,2.43,0,0,0,1.86.74c.51,0,.92,0,1.22-.05a10.52,10.52,0,0,0,1.16-.24l.67,7.33a25.06,25.06,0,0,1-2.69.54,23.17,23.17,0,0,1-2.85.16q-4.89,0-7.42-2.61t-2.54-8.26V392.86h-4.42V386h4.42v-7.88Z"/><g id="_013_draw" data-name="013_draw"><path d="M949.46,29.2a.29.29,0,0,0-.1.07.29.29,0,0,1,.1-.07Zm22.38-12.82a43.09,43.09,0,0,0-11.47,2.44,48.55,48.55,0,0,0-10.4,5.3,62,62,0,0,0-16.72,17.22A68.56,68.56,0,0,0,927.46,52a72.75,72.75,0,0,0-4,11.72,69.86,69.86,0,0,0-1.82,12.11,58.57,58.57,0,0,0,.64,11.92c.26,1.66.64,3.27,1,4.88a2.06,2.06,0,0,0,2.51,1.47,2.12,2.12,0,0,0,1.41-2.57,53.52,53.52,0,0,1-1-5.34,60.66,60.66,0,0,1,.08-14.75,67.89,67.89,0,0,1,13-31.7,59.76,59.76,0,0,1,10-10.3,48.42,48.42,0,0,1,10.21-6.18,42.09,42.09,0,0,1,10.25-2.88c.71-.1,1.46-.17,2.17-.22a1.88,1.88,0,0,0,1.82-1.88A1.86,1.86,0,0,0,972,16.38h-.11" style="fill:#161616"/><path d="M903.32,166.7c0,.05,0,.13.07.2s0-.15-.07-.2ZM923.5,91a2.44,2.44,0,0,0-1,.63A74.55,74.55,0,0,0,907,109.25a80.42,80.42,0,0,0-9.86,22.14,68,68,0,0,0-2.13,12,55.67,55.67,0,0,0,.16,11.47,48.26,48.26,0,0,0,2.74,11.46,42.64,42.64,0,0,0,5.63,10.42,47.26,47.26,0,0,0,4.76,5.52,39.88,39.88,0,0,0,6.1,4.91,1.79,1.79,0,0,0,2.25-.29,2,2,0,0,0,.57-1.37,1.77,1.77,0,0,0-.57-1.34,59,59,0,0,1-8.09-8.33,45.67,45.67,0,0,1-5.3-9.33,48.69,48.69,0,0,1-3-11.35,57.27,57.27,0,0,1,.08-14.39,72.62,72.62,0,0,1,4.71-17.41,81.55,81.55,0,0,1,9.52-16.7A70.82,70.82,0,0,1,925.77,95a2.31,2.31,0,0,0,.7-1.71,2.28,2.28,0,0,0-.7-1.69,2.23,2.23,0,0,0-1.63-.71Z" style="fill:#161616"/><path d="M914.87,186.12a54.11,54.11,0,0,0,2.1,13.21,47.15,47.15,0,0,0,5,11.25,50.2,50.2,0,0,0,16.7,16.54,59.72,59.72,0,0,0,9.73,4.78,61,61,0,0,0,10.17,3,72.29,72.29,0,0,0,11.06,1.52,64.87,64.87,0,0,0,11.06-.2,2.39,2.39,0,0,0,1.62-.68,2.44,2.44,0,0,0,.66-1.66,2.31,2.31,0,0,0-2.28-2.32,87.4,87.4,0,0,1-15.34-.51,69.62,69.62,0,0,1-17-4.69,55.65,55.65,0,0,1-11.91-7,46.48,46.48,0,0,1-8-8.08,45.14,45.14,0,0,1-5.36-9.35,48.32,48.32,0,0,1-3-11.33c-.18-1.49-.31-3-.36-4.49a2.6,2.6,0,0,0-.72-1.74,2.33,2.33,0,0,0-1.69-.73,2.44,2.44,0,0,0-2.4,2.47Z" style="fill:#161616"/><path d="M994.56,6.3a58.76,58.76,0,0,0-18.26,7.52c-.87.53-1.72,1.14-2.54,1.75a2.39,2.39,0,0,0-1,1.4,2.35,2.35,0,0,0,.23,1.8,2.31,2.31,0,0,0,1.36,1.1,2.24,2.24,0,0,0,1.77-.24,45.72,45.72,0,0,1,9-5.18,68.63,68.63,0,0,1,17-4.54,96.94,96.94,0,0,1,25.24.15,105.2,105.2,0,0,1,26.54,7.3,80.67,80.67,0,0,1,17.38,10.18,56.82,56.82,0,0,1,9.71,9.77c.87,1.17,1.66,2.34,2.43,3.56a37.35,37.35,0,0,1,2.33,4.25,2.58,2.58,0,0,0,1.56,1.25,2.61,2.61,0,0,0,3.23-1.88,6.71,6.71,0,0,0,.1-.71,2.83,2.83,0,0,0-.36-1.37c-.66-1.46-1.35-2.93-2.17-4.35a41.2,41.2,0,0,0-2.69-4.05,57,57,0,0,0-7-7.84,73,73,0,0,0-17.87-12A97.78,97.78,0,0,0,1039,6.69,111.89,111.89,0,0,0,1016.22,4h-1.28a87.92,87.92,0,0,0-20.38,2.3Z" style="fill:#161616"/><path d="M1088.28,44.63a2.11,2.11,0,0,0-.89,1.18,2.09,2.09,0,0,0,.2,1.51,2.15,2.15,0,0,0,1.13.88c.46.19.92.36,1.38.56a63.18,63.18,0,0,1,13.47,8.16A76.83,76.83,0,0,1,1126.29,87a79.15,79.15,0,0,1,3,9,69.39,69.39,0,0,1,1.87,9.13,61,61,0,0,1,.11,15.09,58.41,58.41,0,0,1-3.38,13,2.76,2.76,0,0,0,0,1.61,3,3,0,0,0,1.35,1.83,2.94,2.94,0,0,0,4.1-1.1,58,58,0,0,0,2.41-6.4,45.77,45.77,0,0,0,1.33-6.1,59.52,59.52,0,0,0,.54-13.07,66.13,66.13,0,0,0-2.26-13,62.4,62.4,0,0,0-2-6.11q-1.23-3.22-2.71-6.35A88.14,88.14,0,0,0,1116,62.78a81.61,81.61,0,0,0-9.63-8.79,71,71,0,0,0-10.42-6.74,66.22,66.22,0,0,0-6.2-2.81,1.46,1.46,0,0,0-.48-.08,2.23,2.23,0,0,0-1,.27Z" style="fill:#161616"/><path d="M1129,133.88a2.58,2.58,0,0,0-1.72,3.11c.44,1.92.77,3.85,1,5.81a71.61,71.61,0,0,1,0,17.31,70,70,0,0,1-4.41,16.48,65.52,65.52,0,0,1-7.75,13.63,63.46,63.46,0,0,1-10.61,10.87,62.28,62.28,0,0,1-13.31,7.93,65.5,65.5,0,0,1-16.16,4.45c-1.31.17-2.59.31-3.89.44a2.81,2.81,0,0,0-2,.83,2.85,2.85,0,0,0-.82,2,2.82,2.82,0,0,0,2.77,2.83,58.82,58.82,0,0,0,13.41-1.86,60.29,60.29,0,0,0,22.44-11,67.92,67.92,0,0,0,9.09-8.62,68.67,68.67,0,0,0,12.57-21.64,71.51,71.51,0,0,0,4.12-25,76.27,76.27,0,0,0-1.84-15.8,2.43,2.43,0,0,0-2.41-1.83,3.17,3.17,0,0,0-.61.07Z" style="fill:#161616"/><path d="M1052.36,240.72l-.18.07.18-.07Zm19.48-23.25a37.78,37.78,0,0,1-1.71,5.54,36.53,36.53,0,0,1-4.1,7.23,34.57,34.57,0,0,1-5.68,5.79,37.18,37.18,0,0,1-7.79,4.59,50.91,50.91,0,0,1-12.37,3.39,56.22,56.22,0,0,1-14.49,0,64.1,64.1,0,0,1-16.16-4.56,1.32,1.32,0,0,0-.31-.12c-.18-.1-.38-.17-.56-.25a2.25,2.25,0,0,0-1.26,0,2.31,2.31,0,0,0-1.41,1.1,2.49,2.49,0,0,0,.85,3.3,48.38,48.38,0,0,0,21.43,6.27,54.29,54.29,0,0,0,10.89-.31,49,49,0,0,0,10.88-2.57,43.08,43.08,0,0,0,16.18-10.47,37,37,0,0,0,5.66-7.87,38.67,38.67,0,0,0,3.64-10,2,2,0,0,0-1.33-2.42,1.61,1.61,0,0,0-.49-.07,1.92,1.92,0,0,0-1.87,1.44" style="fill:#161616"/><path d="M977.58,231.36a20.71,20.71,0,0,0-3.23,3.69,9.75,9.75,0,0,0-1.46,3.52,7.92,7.92,0,0,0,.18,3.78,9.51,9.51,0,0,0,1.87,3.4,14.13,14.13,0,0,0,2.9,2.56,23.09,23.09,0,0,0,3.84,2,28.52,28.52,0,0,0,9,2,28.11,28.11,0,0,0,4.94-.07,25.27,25.27,0,0,0,5.51-1.1,16.11,16.11,0,0,0,8.81-6.55,2.48,2.48,0,0,0-.36-3,2.42,2.42,0,0,0-1.72-.74,2.5,2.5,0,0,0-1.69.74c-.33.29-.66.58-1,.87a21.58,21.58,0,0,1-3.87,2.3,28.7,28.7,0,0,1-6.07,1.66,31.49,31.49,0,0,1-7.7,0,26.53,26.53,0,0,1-6-1.62,15.23,15.23,0,0,1-2.74-1.58,10.46,10.46,0,0,1-1.2-1.2,8.29,8.29,0,0,1-.57-1,5.4,5.4,0,0,1-.23-.9,7.22,7.22,0,0,1,0-.93,7.64,7.64,0,0,1,.33-1.27,11.59,11.59,0,0,1,1-1.71,16.57,16.57,0,0,1,2.1-2.17,2,2,0,0,0,0-2.72,1.89,1.89,0,0,0-1.33-.56,2,2,0,0,0-1.33.56Z" style="fill:#161616"/><path d="M970,245.58a11.91,11.91,0,0,0-4.46,2.29,9.55,9.55,0,0,0-3.51,7.6,10.92,10.92,0,0,0,4.2,8,18.79,18.79,0,0,0,2.31,1.57,19.17,19.17,0,0,0,3,1.27,19.44,19.44,0,0,0,3,.68,18.37,18.37,0,0,0,3.55.17,19.37,19.37,0,0,0,3-.39,15,15,0,0,0,2.89-1,10.82,10.82,0,0,0,4.36-3.56,9.13,9.13,0,0,0,1.56-5.06,10.24,10.24,0,0,0-.51-3,12.18,12.18,0,0,0-1.57-3.17,2,2,0,0,0-1.12-.91,1.91,1.91,0,0,0-1.49.2,2.06,2.06,0,0,0-.87,1.17,2,2,0,0,0,.21,1.52c.1.24.23.51.36.78a12.05,12.05,0,0,1,.64,2.32,8.69,8.69,0,0,1,0,1.44,6.78,6.78,0,0,1-.33,1.17,6.4,6.4,0,0,1-.59,1.05,10.61,10.61,0,0,1-1,1.07,11.61,11.61,0,0,1-1.87,1.1,15,15,0,0,1-3,.81,16.87,16.87,0,0,1-3.89,0,18.42,18.42,0,0,1-3.92-1.1,12.18,12.18,0,0,1-2.46-1.44,11.27,11.27,0,0,1-1.46-1.47,10.08,10.08,0,0,1-.87-1.51,7,7,0,0,1-.38-1.51,6.19,6.19,0,0,1,0-1.49,8.42,8.42,0,0,1,.35-1.42,10.83,10.83,0,0,1,.77-1.32,9.44,9.44,0,0,1,1.13-1.15,10.35,10.35,0,0,1,1.82-1.07,13,13,0,0,1,2.69-.71,19.72,19.72,0,0,1,3.35-.05,1.64,1.64,0,0,0,1.64-1.68,1.75,1.75,0,0,0-.49-1.2,1.68,1.68,0,0,0-1.15-.49c-.51-.05-1-.07-1.54-.07a16.5,16.5,0,0,0-4.27.54Z" style="fill:#161616"/><path d="M952.15,267a14.78,14.78,0,0,0-5,1.86,7.85,7.85,0,0,0-2.87,3.07,6.43,6.43,0,0,0-.56,1.74,8,8,0,0,0-.1,1.1,5.86,5.86,0,0,0,.1,1.19,7.7,7.7,0,0,0,.56,1.76,8.15,8.15,0,0,0,1.1,1.74,7.35,7.35,0,0,0,1.21,1.22,11.15,11.15,0,0,0,1.89,1.27,12.76,12.76,0,0,0,4.71,1.24,12.4,12.4,0,0,0,2.36-.07,16,16,0,0,0,3.3-.69,9.86,9.86,0,0,0,4.56-2.78,5.92,5.92,0,0,0,1-1.54,8.17,8.17,0,0,0,.38-1c.08-.34.1-.71.15-1.05a5.77,5.77,0,0,0-.12-1.76,6.72,6.72,0,0,0-.62-1.71,10.71,10.71,0,0,0-1.07-1.61,10.32,10.32,0,0,0-1.29-1.27,12,12,0,0,0-1.84-1.29,14.2,14.2,0,0,0-2.41-1.12,1.5,1.5,0,0,0-.84,0,1.63,1.63,0,0,0-1,.75,1.61,1.61,0,0,0-.16,1.25,1.56,1.56,0,0,0,.74,1,18.79,18.79,0,0,1,2.57,1.57,11.45,11.45,0,0,1,1.43,1.44,7.29,7.29,0,0,1,.64,1.1,5.14,5.14,0,0,1,.23.83,4.13,4.13,0,0,1,0,.61,2.63,2.63,0,0,1-.15.53,3.2,3.2,0,0,1-.31.57c-.21.24-.44.46-.67.68a9.32,9.32,0,0,1-1.53.88,17.36,17.36,0,0,1-3.23.88,13,13,0,0,1-2.79,0,11.48,11.48,0,0,1-2.15-.59,9.53,9.53,0,0,1-1.54-.9,7.66,7.66,0,0,1-1-1,5.28,5.28,0,0,1-.54-1,4.21,4.21,0,0,1-.23-.83,3,3,0,0,1,0-.73,3.35,3.35,0,0,1,.21-.71,4,4,0,0,1,.38-.7,7.81,7.81,0,0,1,.82-.81,10.46,10.46,0,0,1,1.61-.95,16.53,16.53,0,0,1,3-.83,1.67,1.67,0,0,0,1-.78,1.94,1.94,0,0,0,.18-1.35,1.89,1.89,0,0,0-.79-1,1.74,1.74,0,0,0-.82-.22,4.52,4.52,0,0,0-.49.05Z" style="fill:#161616"/><path d="M1017.09,69.64h-.71c-1.87,0-3.82.14-6,.36-2.51.3-4.56.61-6.45,1a1.92,1.92,0,0,0-1.39,1.86,2,2,0,0,0,.54,1.36,1.86,1.86,0,0,0,1.26.56h.07c2.49-.21,4.71-.31,6.81-.31h1.54a76.52,76.52,0,0,1,8.2.66,73.93,73.93,0,0,1,18.28,5,66.5,66.5,0,0,1,13.85,8.18,55,55,0,0,1,9,9.13,46.33,46.33,0,0,1,5.53,9.62,45.77,45.77,0,0,1,2.74,10.28,48,48,0,0,1-.05,11.55,58.93,58.93,0,0,1-3.74,13.9,57.44,57.44,0,0,1-6.73,11.77c-.62.8-1.26,1.58-1.9,2.34a26,26,0,0,0,.21-2.88,42.67,42.67,0,0,0-.64-7.94,33.29,33.29,0,0,0-1.44-6,24,24,0,0,0-5.4-9.2,19.79,19.79,0,0,0-7.91-4.93,24.91,24.91,0,0,0-4.15-1,43.93,43.93,0,0,0-5-.46h-1.13a58.84,58.84,0,0,0-8.42.66c-3.71.51-7.45,1.24-11.06,1.92-2.92.57-5.94,1.15-8.91,1.62l-1.36.22a52.38,52.38,0,0,1-6.94.48,36.28,36.28,0,0,1-4.38-.24,24.27,24.27,0,0,1-5.33-1.44,15.49,15.49,0,0,1-3-1.78,12.31,12.31,0,0,1-3.64-4.86,21.3,21.3,0,0,1-1.05-4.06,27.16,27.16,0,0,1,.11-6.59,47.27,47.27,0,0,1,3.17-11.4A68.18,68.18,0,0,1,990,84.56a60.08,60.08,0,0,1,5.58-6.38c.07-.09.15-.17.23-.26a2.78,2.78,0,0,0,.79-.81,2.26,2.26,0,0,0,.21-1.61,2.21,2.21,0,0,0-1-1.25l-.23-.09L995.4,74a2.08,2.08,0,0,0-1.07,0,40.21,40.21,0,0,0-17.16,6.84,44.77,44.77,0,0,0-7,6.08,54.75,54.75,0,0,0-5.79,7.52,57.86,57.86,0,0,0-4.35,8.26,65.72,65.72,0,0,0-3.33,9.37,72,72,0,0,0-2.49,19.59,75.87,75.87,0,0,0,.85,10.08,60.68,60.68,0,0,0,2.13,9.16,52.31,52.31,0,0,0,3.76,9,47.53,47.53,0,0,0,5.33,7.91,41.3,41.3,0,0,0,6.91,6.52,40.76,40.76,0,0,0,8.58,4.89A64.58,64.58,0,0,0,993.3,183a69.21,69.21,0,0,0,12.09,1.64c1.05,0,2.1.07,3.15.07a68.59,68.59,0,0,0,8.6-.54,76.32,76.32,0,0,0,12.07-2.44,72.12,72.12,0,0,0,11.49-4.42,67.18,67.18,0,0,0,19.39-14,62.09,62.09,0,0,0,7.55-9.7,58.81,58.81,0,0,0,5.59-11.5,60.41,60.41,0,0,0,2-6.61,66.36,66.36,0,0,0,1.23-7,48.84,48.84,0,0,0,0-12,56.31,56.31,0,0,0-1.15-6.23,47.93,47.93,0,0,0-1.74-5.29,50,50,0,0,0-5.48-10.24,55.07,55.07,0,0,0-7.71-8.79,59.55,59.55,0,0,0-9.5-7.08,66.74,66.74,0,0,0-22.2-8.28,67.75,67.75,0,0,0-11.58-1Z" style="fill:#161616"/><path d="M1013.56,85.24a14.32,14.32,0,0,0-8,2.59,1.35,1.35,0,0,0-.61.83.88.88,0,0,0,0,.29,16.09,16.09,0,0,0-3.72,4.15,11.91,11.91,0,0,0-1.48,3.84,10.55,10.55,0,0,0-.21,2,13,13,0,0,0,.16,2.15,12.36,12.36,0,0,0,1.18,3.64A15.46,15.46,0,0,0,1003,108a15,15,0,0,0,2.94,2.54,14.31,14.31,0,0,0,3.48,1.73,13,13,0,0,0,3.85.71,3.46,3.46,0,0,0,.46,0,12.68,12.68,0,0,0,3.51-.51,12.86,12.86,0,0,0,3.81-1.91,16.9,16.9,0,0,0,3.64-3.63,15.43,15.43,0,0,0,2.63-5.35,14,14,0,0,0,.41-2.66,14.34,14.34,0,0,0-.2-2.76,11.48,11.48,0,0,0-.64-2.13,11.18,11.18,0,0,0-1.2-2.37,13.9,13.9,0,0,0-3.54-3.66,13.75,13.75,0,0,0-3.71-1.93,14.06,14.06,0,0,0-4.2-.8c-.21,0-.41,0-.64,0Z" style="fill:#161616"/><path d="M1016.25,151.44a9.32,9.32,0,1,0,9.32-9.52,9.54,9.54,0,0,0-9.32,9.52Z" style="fill:#fefefe"/><path d="M897.48,282.35h0Zm-9.22-15a1.8,1.8,0,0,0-.82,1.1,1.83,1.83,0,0,0,1.25,2.27c1.87.73,3.77,1.39,5.66,2.1s3.61,1.41,5.41,2.17a69.3,69.3,0,0,1,12.37,6.81.13.13,0,0,0-.08,0q-3.39-.74-6.81-1.32c-4.66-.83-9.38-1.46-14.09-2a153.87,153.87,0,0,0-28.47-.34,104,104,0,0,0-28.53,6.27,1.65,1.65,0,0,0-.87.66,1.63,1.63,0,0,0-.13,1.15,1.33,1.33,0,0,0,.67.85,1.22,1.22,0,0,0,1.1.15,99.5,99.5,0,0,1,21.43-5.42,154.69,154.69,0,0,1,41.23.51c3.41.49,6.79,1,10.17,1.66,1.71.32,3.4.66,5.12,1,.79.17,1.59.36,2.38.56a23,23,0,0,1,2.61.71,1.57,1.57,0,0,0,1.79-.76,1.74,1.74,0,0,0-.23-2,33.61,33.61,0,0,0-2.89-2.83c-1.13-1-2.31-2-3.51-2.86a56.34,56.34,0,0,0-7.22-4.49,73.81,73.81,0,0,0-8.07-3.64,53.5,53.5,0,0,0-8.09-2.54,1.62,1.62,0,0,0-.49-.08,1.72,1.72,0,0,0-.89.25Z" style="fill:#161616"/><path d="M890.84,248.9a1.92,1.92,0,0,0,.54,1.32,2,2,0,0,0,1.28.56c2.59.27,5.18.56,7.76.9a131.12,131.12,0,0,1,14.06,2.71c1.51.37,3,.81,4.48,1.25-.13,0-.25,0-.41.05a81.93,81.93,0,0,0-10.14,1.71,59.85,59.85,0,0,0-18.74,7.93,1.76,1.76,0,0,0-.62,2.37,1.68,1.68,0,0,0,2.31.61,53.07,53.07,0,0,1,7.42-4,66.37,66.37,0,0,1,16.6-4.5c2.17-.29,4.38-.49,6.55-.63,1.13-.08,2.26-.1,3.41-.15s2.25,0,3.4,0a2,2,0,0,0,1.87-1.46,2,2,0,0,0-.89-2.25,41,41,0,0,0-4.3-1.86c-1.52-.58-3-1.09-4.56-1.58a93.42,93.42,0,0,0-9.09-2.4c-3.13-.66-6.3-1.17-9.48-1.58s-6.4-.74-9.63-.86h0a1.87,1.87,0,0,0-1.77,1.86Z" style="fill:#161616"/><path d="M898.89,216.52c-.67.61-1.31,1.29-2,1.95l-2.15,2.18c-1.38,1.34-2.76,2.66-4.17,3.95-2.69,2.52-5.51,4.88-8.38,7.18a129.58,129.58,0,0,1-14,9.6A139.2,139.2,0,0,1,853.1,249c-3,1.32-6.1,2.54-9.17,3.69s-6.48,2.32-9.7,3.51a2.79,2.79,0,0,0-1.39,1.1,2.52,2.52,0,0,0-.23,1.83,2.57,2.57,0,0,0,1.08,1.42,2.35,2.35,0,0,0,1.76.22,62.33,62.33,0,0,0,7.38-1.88c2.36-.71,4.69-1.54,7-2.47A103.62,103.62,0,0,0,863.26,250a140.37,140.37,0,0,0,23.59-16.93c2.46-2.14,4.84-4.39,7.17-6.69q1.85-1.78,3.61-3.66c.38-.39.74-.78,1.13-1.2a45.25,45.25,0,0,1-.36,6.69,54.51,54.51,0,0,1-3.51,12.9,59.85,59.85,0,0,1-3.07,6.35,1.66,1.66,0,0,0,.56,2.19,1.56,1.56,0,0,0,2.13-.58,60.86,60.86,0,0,0,5.94-15.24,55.84,55.84,0,0,0,1.23-8c.1-1.29.12-2.61.12-3.93s-.1-2.86-.17-4.27a1.67,1.67,0,0,0-.8-1.42,1.48,1.48,0,0,0-.77-.22,1.67,1.67,0,0,0-1.17.49Z" style="fill:#161616"/><path d="M820.78,311.43a1.82,1.82,0,0,0,.21.3,1.82,1.82,0,0,1-.21-.3ZM823.93,264c-.08,0-.13,0-.2,0s.12,0,.2,0Zm.62-4.32a56.94,56.94,0,0,0-6.51,1.2,35.21,35.21,0,0,0-5.35,1.93,19.71,19.71,0,0,0-4,2.37,17.77,17.77,0,0,0-3.25,3.12,18.5,18.5,0,0,0-2.28,3.69,18,18,0,0,0-1.3,4.17,22.46,22.46,0,0,0-.41,4.57,31,31,0,0,0,.43,4.81,42.26,42.26,0,0,0,2.33,8.28,67,67,0,0,0,4.23,8.79,71.92,71.92,0,0,0,5.56,8.23,62.2,62.2,0,0,0,6,6.84,2.19,2.19,0,0,0,3,0,2.28,2.28,0,0,0,.64-1.57l-.08-.58a2,2,0,0,0-.56-1c-.82-1.05-1.64-2.1-2.44-3.15a91.66,91.66,0,0,1-11.24-18.85,42.4,42.4,0,0,1-2.74-9.65,24.3,24.3,0,0,1-.05-5.39,19.48,19.48,0,0,1,1-3.64,14.5,14.5,0,0,1,1.61-2.81,17.19,17.19,0,0,1,2.43-2.47,22.07,22.07,0,0,1,4.18-2.46,34.84,34.84,0,0,1,8.3-2.15,2.7,2.7,0,0,1,.41-.05,4.51,4.51,0,0,1,.53-.07,2.22,2.22,0,0,0,.92-.56,2.1,2.1,0,0,0,0-3,1.9,1.9,0,0,0-1.33-.64h-.12" style="fill:#161616"/><path d="M833.35,284.55a1.86,1.86,0,0,0-.51,1.22,115.8,115.8,0,0,0,.18,14.55c.21,2.54.49,5.08.85,7.6a50.76,50.76,0,0,0,1.48,7.32,1.86,1.86,0,0,0,2.31,1.32,1.75,1.75,0,0,0,1.1-.88l.2-.44a2.2,2.2,0,0,0,0-1c-.28-2.13-.71-4.2-1.1-6.33s-.66-4-.92-6.08c-.33-2.61-.59-5.22-.74-7.86s-.13-5.47,0-8.18a1.7,1.7,0,0,0-1.67-1.71,1.61,1.61,0,0,0-1.18.49Z" style="fill:#161616"/><path d="M821.6,313a8.13,8.13,0,0,0-1.69,2.49,12.52,12.52,0,0,0-.59,1.69,19.37,19.37,0,0,0-.31,2,15.37,15.37,0,0,0,0,3.39,28.23,28.23,0,0,0,.77,4.1,30.78,30.78,0,0,0,5.92,11.21,22.81,22.81,0,0,0,10.78,7.45,2.06,2.06,0,0,0,2.51-1.47,2.1,2.1,0,0,0-1.41-2.56c-.21-.07-.41-.17-.61-.25a22.23,22.23,0,0,1-4.44-2.66,29,29,0,0,1-4.43-4.56,29.78,29.78,0,0,1-3.48-6.13,24.17,24.17,0,0,1-1.53-5.55,16.22,16.22,0,0,1-.06-3.34,11.47,11.47,0,0,1,.47-1.81,6.26,6.26,0,0,1,.56-1,5.33,5.33,0,0,1,.61-.64,4,4,0,0,1,.8-.46,6.69,6.69,0,0,1,1.18-.35,12.56,12.56,0,0,1,2,.05,17.42,17.42,0,0,1,4,1.2c.9.39,1.75.83,2.59,1.29a1.75,1.75,0,0,0,2.41-.66,1.83,1.83,0,0,0-.64-2.44c-2.79-1.54-6.43-3.2-9.81-3.2a7.84,7.84,0,0,0-5.66,2.2Z" style="fill:#161616"/><path d="M896.81,285.79a1.92,1.92,0,0,0-.66,2.64q1.3,2.74,2.51,5.57a153.45,153.45,0,0,1,7.45,25.44c.94,4.4,1.74,8.84,2.51,13.31s1.53,9.06,2.4,13.58a2.47,2.47,0,0,0,.62,1.1,2.34,2.34,0,0,0,1.69.71,2.41,2.41,0,0,0,2.41-2.47c-.08-.66-.16-1.34-.23-2a4.83,4.83,0,0,1-.11-.68q-1-7.18-2.38-14.33c-.95-4.89-2-9.72-3.35-14.51a157.78,157.78,0,0,0-10.3-27.62,1.72,1.72,0,0,0-1.61-.95,1.84,1.84,0,0,0-1,.24Z" style="fill:#161616"/><path d="M839.76,344.74a31.73,31.73,0,0,0,2.15,10,24.62,24.62,0,0,0,2.15,4.18,23.54,23.54,0,0,0,2.82,3.49c4,4.13,9.6,6.33,15.18,7.21a58.61,58.61,0,0,0,19.28-.62,94.6,94.6,0,0,0,18.52-5.39A86.85,86.85,0,0,0,915,356.05a2.33,2.33,0,0,0,.79-3.1,2.22,2.22,0,0,0-3-.81,78.39,78.39,0,0,1-11,5.79,97,97,0,0,1-23.82,6.86,54.1,54.1,0,0,1-14.21.22,31.1,31.1,0,0,1-7.55-2,23.42,23.42,0,0,1-4.56-2.68,21.13,21.13,0,0,1-3.25-3.3,24.37,24.37,0,0,1-2.57-4.52,31,31,0,0,1-1.76-7l-.08-.73c0-.19,0-.39-.08-.56a2.23,2.23,0,0,0-.53-.95,2.15,2.15,0,0,0-1.49-.61,2.09,2.09,0,0,0-2.07,2.12Z" style="fill:#161616"/><path d="M878.58,313.27a1.51,1.51,0,0,0-.54,2,14.78,14.78,0,0,0,5.76,6.4,11.35,11.35,0,0,0,3.82,1.32,11.11,11.11,0,0,0,4.66-.15,1.29,1.29,0,0,0,.92-1.24,1.32,1.32,0,0,0-1.25-1.3,22.38,22.38,0,0,1-3.18-.12,12,12,0,0,1-2.71-.76,10.73,10.73,0,0,1-2.16-1.29,13.84,13.84,0,0,1-1.92-2,19.86,19.86,0,0,1-1.43-2.37,1.34,1.34,0,0,0-1.25-.73,1.19,1.19,0,0,0-.72.2Z" style="fill:#161616"/><path d="M892.53,319.42l-.38.29a2.15,2.15,0,0,0-.46.81c-.08.19-.13.36-.21.54-.58,1.41-1.22,2.8-1.89,4.2s-1.51,2.9-2.3,4.37a1.93,1.93,0,0,0,.69,2.61,1.85,1.85,0,0,0,2.56-.68,81.47,81.47,0,0,0,4.66-10.07,1.86,1.86,0,0,0-.21-1.41,1.77,1.77,0,0,0-1.07-.86,1.9,1.9,0,0,0-.46-.07,1.8,1.8,0,0,0-.93.27Z" style="fill:#161616"/><path d="M870.64,343.28a2,2,0,0,0,.69,2.68,23.06,23.06,0,0,0,5.84,2.35,30.62,30.62,0,0,0,6.17,1,34.6,34.6,0,0,0,6-.12,43.78,43.78,0,0,0,6.12-1.07,1.84,1.84,0,0,0,1.25-2.25,1.81,1.81,0,0,0-2.2-1.27c-1,.25-2,.44-3,.59a33.73,33.73,0,0,1-8.28,0,41.54,41.54,0,0,1-5-1c-1.85-.52-3.64-1.17-5.48-1.74a1.77,1.77,0,0,0-.52-.07,2,2,0,0,0-1.66,1Z" style="fill:#161616"/><path d="M856.94,302.38a13.4,13.4,0,0,0-5.61,3.93,19.41,19.41,0,0,0-3.61,6.86,1.59,1.59,0,0,0,1.08,2,1.57,1.57,0,0,0,1.94-1.13c.18-.53.36-1.1.57-1.63A17,17,0,0,1,853.2,309a13.06,13.06,0,0,1,2-2.07,11.23,11.23,0,0,1,2.23-1.35,12.89,12.89,0,0,1,2.45-.68,13.68,13.68,0,0,1,3,0,17.42,17.42,0,0,1,3.66,1c.77.34,1.51.73,2.26,1.15a1.48,1.48,0,0,0,2-.54,1.58,1.58,0,0,0-.53-2.12,18.62,18.62,0,0,0-6.71-2.64,15.66,15.66,0,0,0-2.36-.2,12.16,12.16,0,0,0-4.3.74Z" style="fill:#161616"/><path d="M859.17,308a3.91,3.91,0,1,0,3.92-4,4,4,0,0,0-3.92,4Z" style="fill:#161616"/><path d="M885.85,294.24a9.57,9.57,0,0,0-2.53.76,13.22,13.22,0,0,0-2.62,1.47,19.52,19.52,0,0,0-4.55,4.95,1.46,1.46,0,0,0,.51,2,1.43,1.43,0,0,0,1.1.17,1.74,1.74,0,0,0,.87-.69l.69-1A17.32,17.32,0,0,1,882,299.1a13.12,13.12,0,0,1,2.38-1.44,10.23,10.23,0,0,1,2.36-.66,11.65,11.65,0,0,1,2.64,0,16.12,16.12,0,0,1,3.27.95,25.45,25.45,0,0,1,3.33,1.89,1.34,1.34,0,0,0,2-1.52,1.43,1.43,0,0,0-.62-.83,19.61,19.61,0,0,0-5.63-2.88,15.92,15.92,0,0,0-3-.54l-.76,0a12.78,12.78,0,0,0-2.13.19Z" style="fill:#161616"/><path d="M884.39,300a3.91,3.91,0,1,0,3.92-4,4,4,0,0,0-3.92,4Z" style="fill:#161616"/><path d="M847.85,289.31a15.35,15.35,0,0,0-3.41,3.37,20.33,20.33,0,0,0-2.48,4.64,1.76,1.76,0,0,0,.15,1.29,1.72,1.72,0,0,0,1,.76,1.62,1.62,0,0,0,1.25-.17c.1-.1.21-.17.33-.27a1.64,1.64,0,0,0,.41-.73.88.88,0,0,0,0-.15,17.62,17.62,0,0,1,1.9-3.39,14.31,14.31,0,0,1,2-2.1,14.65,14.65,0,0,1,2.43-1.44,16.79,16.79,0,0,1,3.36-.93c.74-.07,1.46-.12,2.2-.15a1.57,1.57,0,0,0,1.08-2.68,1.48,1.48,0,0,0-1.08-.44,8.62,8.62,0,0,0-1.12-.05,14,14,0,0,0-8.07,2.44Z" style="fill:#161616"/><path d="M882.32,280.93a25.12,25.12,0,0,0-7.86,2.62,1.86,1.86,0,0,0-.64,2.49,1.8,1.8,0,0,0,1.07.83,1.75,1.75,0,0,0,1.36-.17,12.52,12.52,0,0,1,1.33-.64,23.45,23.45,0,0,1,5.22-1.49,24.61,24.61,0,0,1,5.69,0c.41,0,.82.12,1.2.19a1.76,1.76,0,0,0,2.18-1.24,1.82,1.82,0,0,0-1.23-2.22,19.14,19.14,0,0,0-5-.64,26.63,26.63,0,0,0-3.33.24Z" style="fill:#161616"/><path d="M858.3,367.16a2.13,2.13,0,0,0-1.44,2.59A52,52,0,0,1,859,379a58.54,58.54,0,0,1,.41,8.48,2.2,2.2,0,1,0,4.4,0,53.77,53.77,0,0,0-.64-9.48,56,56,0,0,0-2.3-9.33,2.26,2.26,0,0,0-1-1.24,1.83,1.83,0,0,0-1-.29,2,2,0,0,0-.56.07Z" style="fill:#161616"/><path d="M883.14,367.77a2.11,2.11,0,0,0-.54,1.34c-.26,3.23-.39,6.47-.41,9.72a62,62,0,0,0,.72,10.26,1.86,1.86,0,0,0,.48.88.67.67,0,0,1,.11.07,11.84,11.84,0,0,1,2.15-2.42c.07-.14.18-.29.25-.44.23-.34.46-.68.69-1-.05-.83-.12-1.66-.18-2.49-.12-1.61-.2-3.22-.28-4.86q-.15-4.87.16-9.72a1.88,1.88,0,0,0-1.85-1.9,1.8,1.8,0,0,0-1.3.56Z" style="fill:#161616"/><path d="M865.21,367.62a1.11,1.11,0,0,0,.39,1.47q3.84,2.31,7.75,4.47c2.69,1.46,5.38,2.9,8.15,4.17a1.22,1.22,0,0,0,.82.1,1,1,0,0,0,.61-.49,1.08,1.08,0,0,0-.38-1.46c-2.64-1.37-5.33-2.69-7.94-4.11s-5.35-2.95-8-4.51a.92.92,0,0,0-.51-.15,1.08,1.08,0,0,0-.9.51Z" style="fill:#161616"/><path d="M865.65,369.7l0,0s0,0,0-.05a0,0,0,0,0,0,0Zm-4-1.81a1.28,1.28,0,0,0-.38.93,1.23,1.23,0,0,0,.38.93,87.85,87.85,0,0,0,8.17,6.25,62.13,62.13,0,0,0,9,5.2,1.4,1.4,0,0,0,1,.12,1.28,1.28,0,0,0,.77-.61,1.35,1.35,0,0,0-.46-1.81c-2.48-1.36-5-2.73-7.38-4.24a83.89,83.89,0,0,1-7-4.94l.16.12a.66.66,0,0,1-.18-.14.67.67,0,0,0-.11-.07l.08,0c-.74-.58-1.46-1.17-2.18-1.78a1.37,1.37,0,0,0-.92-.39,1.17,1.17,0,0,0-.92.39Z" style="fill:#161616"/><path d="M865.52,394.31c.05.08.1.12.15.2a1.15,1.15,0,0,1-.15-.2Zm-7.66-8.23a1.86,1.86,0,0,0-.64,2.49c2.13,3.42,4.41,6.7,6.84,9.89.61.35,1.23.69,1.87,1a10.86,10.86,0,0,1,4.86,1.22c-.25-.27-.51-.56-.74-.83q-2.38-2.75-4.58-5.64c-1.82-2.42-3.54-4.93-5.18-7.5a1.86,1.86,0,0,0-1.56-.9,2,2,0,0,0-.87.24Z" style="fill:#161616"/><path d="M882.62,389.77a.58.58,0,0,1-.1.24.82.82,0,0,0,.1-.24Zm.06-.12s0,.07,0,.1,0-.08,0-.1Zm1.38-2.59a1.67,1.67,0,0,0-.72.93c-.23.58-.46,1.19-.72,1.78-1,2.42-2.1,4.79-3.27,7.11,1.23-2.1,2.51-4.18,3.79-6.28a12.46,12.46,0,0,1,2.51-3c.07-.12.15-.24.23-.36a1.54,1.54,0,0,0-.64-.37,2,2,0,0,0-.41-.05,1.38,1.38,0,0,0-.77.22Z" style="fill:#161616"/><path d="M856.84,366.48a2.1,2.1,0,0,0-1.39,2.51,54.11,54.11,0,0,1,1,5.37c.2,1.74.36,3.47.43,5.23.11,1.93.13,3.88.29,5.83a2,2,0,0,0,.58,1.44,1.9,1.9,0,0,0,1.41.62,2,2,0,0,0,1.41-.62c.1-.14.21-.26.31-.41a2.07,2.07,0,0,0,.28-1,35.51,35.51,0,0,0-.23-8.74,80.48,80.48,0,0,0-1.66-8.79,2,2,0,0,0-1.95-1.46,1.87,1.87,0,0,0-.51.05Z" style="fill:#161616"/><path d="M879.4,369.19a91,91,0,0,0,.07,9.91c.11,1.56.26,3.15.44,4.71a45.33,45.33,0,0,0,.92,5.25,2.12,2.12,0,0,0,2.59,1.52,2.17,2.17,0,0,0,1.28-1,2.46,2.46,0,0,0,.2-1.67c-.25-1.31-.53-2.61-.76-3.93s-.47-2.61-.64-3.9a67.23,67.23,0,0,1-.44-10.89,1.83,1.83,0,1,0-3.66,0Z" style="fill:#161616"/><path d="M855.53,381.17a1.62,1.62,0,0,0-.56,2.13,91.55,91.55,0,0,0,6.58,10.21,87.53,87.53,0,0,0,8.14,9.54,1.8,1.8,0,0,0,2.56,0,1.87,1.87,0,0,0,0-2.63,77.72,77.72,0,0,1-8.81-9.67,81,81,0,0,1-5.83-9,1.5,1.5,0,0,0-1.34-.78,1.43,1.43,0,0,0-.74.21Z" style="fill:#161616"/><path d="M847.72,383.71a1.56,1.56,0,0,0-.92.71,1.79,1.79,0,0,0-.16,1.2c.39,2.07.7,4.15,1,6.23.61,4.68,1.12,9.37,1.79,14.06.33,2.44.69,4.88,1.1,7.3.21,1.17.44,2.32.67,3.47a24.76,24.76,0,0,0,1,3.71,1.93,1.93,0,0,0,3.79-.51c-.18-1.47-.46-2.91-.77-4.35l-.92-4.47c-.57-2.85-1.08-5.73-1.59-8.62-1-5.88-2-11.77-3.1-17.63a1.48,1.48,0,0,0-1.49-1.14,2.58,2.58,0,0,0-.38,0Z" style="fill:#161616"/><path d="M869.41,400.27a24,24,0,0,0-10.06,6.86,29.69,29.69,0,0,0-6,10.89,2.09,2.09,0,0,0,1.43,2.57,2.06,2.06,0,0,0,2.51-1.44c.23-.74.49-1.44.77-2.15a25.65,25.65,0,0,1,3-5.37,24.81,24.81,0,0,1,4.12-4.2,36.84,36.84,0,0,1,5.66-3.52,2,2,0,0,0,.9-2.25,2,2,0,0,0-1.87-1.49,1.47,1.47,0,0,0-.54.1Z" style="fill:#161616"/><path d="M882.93,382a1.81,1.81,0,0,0-.51,1.24c0,.24,0,.51-.08.76a35.92,35.92,0,0,1-2.23,8.37,37.7,37.7,0,0,1-4.45,7.72c-.69.9-1.44,1.78-2.13,2.69l-.33.41a2.17,2.17,0,0,0,.33,2.52,2,2,0,0,0,2.85,0,26.89,26.89,0,0,0,3.68-4.81,35.22,35.22,0,0,0,2.79-5.43,42.47,42.47,0,0,0,3-12.23,1.61,1.61,0,0,0-.51-1.24,1.65,1.65,0,0,0-1.23-.54,1.68,1.68,0,0,0-1.23.54Z" style="fill:#161616"/><path d="M879,402.83a1.12,1.12,0,0,1,.21.18c-.08-.05-.13-.13-.21-.18Zm11-17.7c0,5.25.08,10.5,0,15.75,0,2.61,0,5.23-.13,7.86,0,.66,0,1.32,0,2A24.23,24.23,0,0,0,886.7,408c-1.23-.93-2.56-1.71-3.87-2.54a41.65,41.65,0,0,1-4-2.73,1.3,1.3,0,0,0-.15-.1c-.13-.12-.29-.22-.41-.34a2.07,2.07,0,0,0-1.08-.3,2,2,0,0,0-1.48.64,2.14,2.14,0,0,0,0,3.05,41.37,41.37,0,0,0,5.14,3.71c1.54,1,3.1,1.88,4.54,3a20.39,20.39,0,0,1,3,3c.49.68.92,1.42,1.41,2.12a2,2,0,0,0,2.18.91,2,2,0,0,0,1.41-1.91c0-1.22,0-2.46,0-3.68,0-1.37.05-2.74.08-4.11,0-2.63,0-5.25,0-7.86,0-5.25-.08-10.5-.1-15.75a1.71,1.71,0,1,0-3.41,0Z" style="fill:#161616"/><path d="M854.76,378.22a49.81,49.81,0,0,0-6.3,5.1,1.53,1.53,0,0,0,0,2.13,1.46,1.46,0,0,0,2,0c1.08-1,2.18-2,3.33-2.91.77-.61,1.56-1.19,2.38-1.78a1.56,1.56,0,0,0,.67-.88,1.43,1.43,0,0,0-.16-1.12,1.45,1.45,0,0,0-1.28-.74,1.22,1.22,0,0,0-.69.2Z" style="fill:#161616"/><path d="M884,376.8a1.67,1.67,0,0,0,.56,2.23c2.56,1.51,5.07,3.07,7.66,4.54a1.58,1.58,0,0,0,2.17-.59,1.65,1.65,0,0,0-.56-2.24c-2.53-1.57-5.12-3-7.68-4.5a1.63,1.63,0,0,0-.8-.22,1.54,1.54,0,0,0-1.35.78Z" style="fill:#161616"/><path d="M846,382.3q-4.34,2.11-8.84,4.05c-5.14,2.22-10.34,4.3-15.46,6.64a90.67,90.67,0,0,0-14.88,8.28,2.9,2.9,0,0,0-1.23,1.69,2.85,2.85,0,0,0,.26,2.15,2.7,2.7,0,0,0,3.73,1c3.05-2,6.18-3.86,9.35-5.66s6.35-3.45,9.55-5.08c6.48-3.27,13.09-6.25,19.59-9.45a2.05,2.05,0,0,0,.93-1.25,2,2,0,0,0-.21-1.58,2,2,0,0,0-1.2-1,1.91,1.91,0,0,0-.52-.05,2.53,2.53,0,0,0-1.07.27Z" style="fill:#161616"/><path d="M806,406.86q-4,16.31-7.17,32.82-3.23,17-5.58,34.12c-.8,5.83-1.49,11.69-2.15,17.53s-1.26,11.62-1.74,17.43c-1,11.55-1.72,23.13-2,34.7q-.24,9,0,18.1c.08,2.9.18,5.83.34,8.74.07,1.47.15,2.91.25,4.35s.28,3.1.44,4.64c0,.26.05.51.07.78a3.15,3.15,0,0,0,.75,1.27,2.76,2.76,0,0,0,2,.83,2.82,2.82,0,0,0,2.79-2.88c0-1.32,0-2.64-.07-4s-.1-2.89-.16-4.33c-.1-2.8-.18-5.61-.28-8.4-.15-5.69-.25-11.38-.3-17-.08-11.58.12-23.13.69-34.68q.54-11.36,1.56-22.66,1-11.13,2.51-22.24,1.95-14.81,4.66-29.48c1.79-9.67,3.81-19.29,6.14-28.83a1.48,1.48,0,0,0-1-1.79,2,2,0,0,0-.36-.05,1.4,1.4,0,0,0-1.36,1.05Z" style="fill:#161616"/><path d="M794.15,582.24a2.15,2.15,0,0,0,0,4.3,113.8,113.8,0,0,1,12.39.05c4.13.22,8.2.73,12.29,1.27a2.2,2.2,0,0,0,1.18-.34,2.28,2.28,0,0,0,1-1.42,2.33,2.33,0,0,0-.23-1.81,2.25,2.25,0,0,0-1.38-1.1,91,91,0,0,0-12.55-1.14c-1.25,0-2.53,0-3.79,0-3,0-6,.09-9,.24Z" style="fill:#161616"/><path d="M826,444.62c-.61,2.95-1.12,5.93-1.64,8.91s-1,6-1.43,9.06q-1.38,9.07-2.71,18.19-1.39,9.27-2.59,18.53c-.74,6.08-1.41,12.16-2,18.24a268.52,268.52,0,0,0-1.21,33.31,174.83,174.83,0,0,0,4.23,33.82,1.76,1.76,0,0,0,2.15,1.27,1.86,1.86,0,0,0,1.23-2.22c-1.08-4.69-1.9-9.43-2.54-14.19-2.45-19.24-1.51-38.73,1-57.89,1.43-11,3.33-21.86,5.2-32.75.94-5.54,1.92-11.09,2.76-16.65.44-2.91.85-5.82,1.21-8.72s.61-5.52.74-8.3a2.25,2.25,0,0,0-1.64-2.23,1.56,1.56,0,0,0-.56-.09,2.23,2.23,0,0,0-2.21,1.71Z" style="fill:#161616"/><path d="M793.74,585.34a31.85,31.85,0,0,0-1.08,15.83,29.29,29.29,0,0,0,1.49,5.27,4.89,4.89,0,0,1,.2.46,2,2,0,0,0,.67.69,1.88,1.88,0,0,0,2.59-.69,1.9,1.9,0,0,0,.17-1.49,33.83,33.83,0,0,1-1.81-6.93,30.43,30.43,0,0,1,0-7,30.08,30.08,0,0,1,1.18-5.18,1.81,1.81,0,0,0-1.25-2.22,1.53,1.53,0,0,0-.47-.07,1.81,1.81,0,0,0-1.71,1.34Z" style="fill:#161616"/><path d="M794.15,602.19a10.45,10.45,0,0,0-4.74,1.17,5.82,5.82,0,0,0-2.56,2.74,7.42,7.42,0,0,0-.64,3.73,13.44,13.44,0,0,0,1,4.08,15.69,15.69,0,0,0,2.13,3.57,13,13,0,0,0,2.87,2.71,11.11,11.11,0,0,0,1.71.9,7.74,7.74,0,0,0,1.8.42,5.49,5.49,0,0,0,1.76-.17,4.75,4.75,0,0,0,1.67-.79,6.69,6.69,0,0,0,.92-.75,8.72,8.72,0,0,0,.82-1,9.75,9.75,0,0,0,1.23-2.35,16.55,16.55,0,0,0,.84-2.9,31.22,31.22,0,0,0,.54-4.08,1.29,1.29,0,0,0-.41-1,1.35,1.35,0,0,0-1-.44,1.38,1.38,0,0,0-1,.44,2.12,2.12,0,0,0-.21.27,1.47,1.47,0,0,0-.2.73,2.6,2.6,0,0,1-.05.39,23.89,23.89,0,0,1-1.33,5.61,8.88,8.88,0,0,1-1,1.84,7.23,7.23,0,0,1-.72.75l-.61.37c-.21.07-.44.12-.64.17a3.45,3.45,0,0,1-1.9-.32,10.23,10.23,0,0,1-1.59-1,13.06,13.06,0,0,1-2-2.08,15.49,15.49,0,0,1-1.69-2.93,12.23,12.23,0,0,1-.67-2.47,7.08,7.08,0,0,1,0-1.66,6.63,6.63,0,0,1,.29-1.1,3.88,3.88,0,0,1,.48-.83,6.13,6.13,0,0,1,.67-.68,6,6,0,0,1,1.07-.63,9.05,9.05,0,0,1,2-.52,8.21,8.21,0,0,1,1.13-.09,1.07,1.07,0,0,0,.05-2.13Z" style="fill:#161616"/><path d="M808.36,610.81a2.15,2.15,0,0,0-.56,1.37l-.08.8a14.69,14.69,0,0,1-.61,2.52,8.75,8.75,0,0,1-.62,1.07,4.27,4.27,0,0,1-.59.61,3.79,3.79,0,0,1-.71.44,8.7,8.7,0,0,1-1.08.3,10.08,10.08,0,0,1-1.9,0,14.12,14.12,0,0,1-1.66-.37,2,2,0,0,0-2.43,1.42,2.06,2.06,0,0,0,1.38,2.49,13.75,13.75,0,0,0,4.64.56,7.42,7.42,0,0,0,4-1.39,6.2,6.2,0,0,0,1.38-1.32,7,7,0,0,0,1.26-2.22,13.51,13.51,0,0,0,.84-4.86,1.94,1.94,0,0,0-1.92-1.93,1.86,1.86,0,0,0-1.33.56Z" style="fill:#161616"/><path d="M815.17,615.23s0,0,0,0,0,0,0,0Zm2.85-4.18-.31.23a1.18,1.18,0,0,0-.39.68s0,0,0,0a10.79,10.79,0,0,1-1.26,2.24,8.52,8.52,0,0,1-1.1,1.15,8.63,8.63,0,0,1-1.28.76,9.3,9.3,0,0,1-1.61.44,10.5,10.5,0,0,1-2.31,0,1.49,1.49,0,0,0-1.07.47,1.59,1.59,0,0,0-.46,1.1,1.66,1.66,0,0,0,.46,1.12,1.63,1.63,0,0,0,1.07.46,10.36,10.36,0,0,0,6.43-1.29,8.75,8.75,0,0,0,2.46-2.32,11.23,11.23,0,0,0,1.59-3.35,1.56,1.56,0,0,0-1.05-1.88,2.85,2.85,0,0,0-.41,0,1.41,1.41,0,0,0-.74.21Z" style="fill:#161616"/><path d="M818.32,583.8a2,2,0,0,0-1.38,2.49c.41,1.2.92,2.37,1.41,3.54s.95,2.42,1.36,3.64a40.37,40.37,0,0,1,1.76,7.13,23.21,23.21,0,0,1,0,5.4,18.14,18.14,0,0,1-1,3.76,15.16,15.16,0,0,1-1.69,3,17.15,17.15,0,0,1-1.92,2.08,2,2,0,0,0,0,2.86,1.87,1.87,0,0,0,1.39.58,2.12,2.12,0,0,0,1.41-.58,22.32,22.32,0,0,0,2.89-3.37,17.92,17.92,0,0,0,2-4,17.37,17.37,0,0,0,1-4,25.77,25.77,0,0,0,.23-4.47,33.48,33.48,0,0,0-1.64-8.86c-.48-1.52-1.07-3-1.69-4.45a21.66,21.66,0,0,0-2-3.88,2.18,2.18,0,0,0-.72-.73,2,2,0,0,0-1-.27,1.84,1.84,0,0,0-.51.07Z" style="fill:#161616"/><path d="M904.9,435.73a2.12,2.12,0,0,0-.53,1.32c-1.13,12.47-2.31,24.95-3.36,37.43-.54,6.15-1,12.31-1.36,18.48s-.71,12.29-1,18.42c-.44,10.11-.7,20.22-.72,30.32,0,5.11,0,10.21.25,15.29.11,2.64.29,5.28.47,7.91.23,2.81.48,5.64,1,8.43a3.35,3.35,0,0,0,.82,1.44,3.27,3.27,0,0,0,2.25,1,3.2,3.2,0,0,0,2.23-1,3.5,3.5,0,0,0,1-2.3c.12-3.15,0-6.32-.16-9.45s-.23-6.27-.38-9.4c-.26-6.2-.54-12.4-.72-18.61-.36-12.28-.38-24.61,0-36.89.54-20.39,1.64-40.76,3.43-61.07a1.84,1.84,0,0,0-1.82-1.86,1.81,1.81,0,0,0-1.28.54Z" style="fill:#161616"/><path d="M901.47,572.25c-3.86,1.59-7.81,3.06-11.75,4.5s-8.17,2.78-12.17,4.39l-.71.32a3,3,0,0,0-1.05,1.07,3.06,3.06,0,0,0-.31,2.32,3,3,0,0,0,3.64,2.13,77.23,77.23,0,0,0,11.93-4c4-1.59,8-3.34,12-5l.72-.29a3.11,3.11,0,0,0,1-1.08,3,3,0,0,0-1-4.07,3.24,3.24,0,0,0-1.54-.44,1.92,1.92,0,0,0-.72.14Z" style="fill:#161616"/><path d="M859.27,576.18a2.61,2.61,0,0,0,.26,1.91,2.46,2.46,0,0,0,1.43,1.12c2,.78,4,1.52,6,2.35a63.61,63.61,0,0,1,7.63,4,2.36,2.36,0,0,0,3.26-.88,2.48,2.48,0,0,0-.87-3.32,70.72,70.72,0,0,0-6.89-3.78,50.67,50.67,0,0,0-7.86-3.13,2.17,2.17,0,0,0-.64-.1,2.51,2.51,0,0,0-2.36,1.83Z" style="fill:#161616"/><path d="M863.19,576c-13.29,2.25-26.35,5.72-39.67,7.79a1.74,1.74,0,0,0-1,.83,1.83,1.83,0,0,0-.18,1.37,1.75,1.75,0,0,0,.8,1.08l.43.19a2,2,0,0,0,.92,0c13.34-2,26.58-4.78,39.93-6.84a2.17,2.17,0,0,0,1.35-1,2.31,2.31,0,0,0,.21-1.75,2.18,2.18,0,0,0-1-1.37c-.18-.08-.35-.15-.53-.25a2.8,2.8,0,0,0-.59-.07,2.88,2.88,0,0,0-.59.07Z" style="fill:#161616"/><path d="M825.34,589.74a1.78,1.78,0,0,0-.79,1,1.75,1.75,0,0,0,.17,1.34,1.57,1.57,0,0,0,1,.78c4.81.78,9.68,1.34,14.57,1.74s10,.58,15,.68,9.81.15,14.7.15c2.51,0,5,0,7.5-.05A71.28,71.28,0,0,0,885,595l.61-.08a2.26,2.26,0,0,0,1-.61,2.35,2.35,0,0,0,0-3.29l-.46-.37a2.15,2.15,0,0,0-1.15-.32,62.24,62.24,0,0,0-7.1-.24c-2.38,0-4.76.15-7.14.24-4.79.22-9.55.47-14.34.59a180.52,180.52,0,0,1-28.38-1.15c-.46,0-.94-.12-1.4-.19a3,3,0,0,0-.49-.05,1.45,1.45,0,0,0-.82.22Z" style="fill:#161616"/><path d="M888.59,581.7a2.49,2.49,0,0,0-1.15,1.54c-.46,2.52-1,5-1.31,7.57,0,.22,0,.44-.07.69a2.51,2.51,0,0,0,.33,1.29,2.58,2.58,0,0,0,1.51,1.2,2.62,2.62,0,0,0,2-.27,2.49,2.49,0,0,0,1.15-1.54c.46-2.52.87-5.06,1.3-7.57a2.68,2.68,0,0,0-.25-2,2.55,2.55,0,0,0-1.51-1.2,3.61,3.61,0,0,0-.67-.09,2.48,2.48,0,0,0-1.28.36Z" style="fill:#161616"/><path d="M851.82,579.43a2.15,2.15,0,0,0-1.21,1,4.61,4.61,0,0,1-.2.49,2.46,2.46,0,0,0,0,1.08c.2,1.19.36,2.39.54,3.59.23,1.85.43,3.73.61,5.61a2.45,2.45,0,0,0,.59,1.44,2,2,0,0,0,1.43.61,2,2,0,0,0,1.44-.61,2,2,0,0,0,.59-1.44c-.36-3.44-.82-6.88-1.33-10.28a2,2,0,0,0-.93-1.22,1.89,1.89,0,0,0-1-.29,2,2,0,0,0-.54.07Z" style="fill:#161616"/><path d="M873.76,585.07c0,2.3-.07,4.59-.12,6.91a2.18,2.18,0,0,0,2.17,2.23A2.26,2.26,0,0,0,878,592c.08-2.32.1-4.61.1-6.91a2.17,2.17,0,1,0-4.33,0Z" style="fill:#161616"/><path d="M889.54,579.43c-.21,6.57-.44,13.12-.49,19.66,0,3.27,0,6.57,0,9.84,0,1.64.07,3.27.18,4.91,0,.88.13,1.76.23,2.64a7.31,7.31,0,0,0,.82,3.12,2.46,2.46,0,0,0,2.07,1.22,2.37,2.37,0,0,0,2.08-1.22c0-.1.07-.19.12-.29a2.6,2.6,0,0,0,.34-1,14.26,14.26,0,0,0,.12-1.49c.06-.88,0-1.76,0-2.64-.05-1.63-.13-3.27-.2-4.9-.16-3.28-.29-6.55-.36-9.82-.18-6.69-.21-13.36-.08-20.05a2.45,2.45,0,1,0-4.89,0Z" style="fill:#161616"/><path d="M892.87,386.23a2.15,2.15,0,0,0,.74,2.88q5.49,3.22,10.81,6.77c3.53,2.39,6.94,4.93,10.39,7.42a2.13,2.13,0,0,0,1.72.24,2.22,2.22,0,0,0,1.33-1.05,2.31,2.31,0,0,0,.23-1.76c-.08-.17-.15-.36-.23-.53a2.51,2.51,0,0,0-.79-.83c-3.36-2.64-6.92-5-10.5-7.28s-7.22-4.49-10.89-6.62a2.08,2.08,0,0,0-1-.27,2,2,0,0,0-1.76,1Z" style="fill:#161616"/><path d="M883.62,376.49a2.18,2.18,0,0,0,0,3.05c1.36,1.24,2.77,2.44,4.2,3.61a53.17,53.17,0,0,0,4.61,3.45,2.08,2.08,0,0,0,2.9-.79,2.21,2.21,0,0,0,.2-1.66,3.59,3.59,0,0,1-.2-.51,2.6,2.6,0,0,0-.77-.78c-1.41-1.05-2.82-2.1-4.2-3.17s-2.54-2.1-3.77-3.2a2.14,2.14,0,0,0-1.48-.64,2,2,0,0,0-1.49.64Z" style="fill:#161616"/><path d="M917.22,405.47c-.51,11.23-1.43,22.44-2.46,33.65-1,11.6-2.17,23.17-3.22,34.77s-1.9,23.4-2.39,35.12-.79,23.15-.56,34.72c.13,6,.41,12,1,18a96.1,96.1,0,0,0,3.15,17.8,2.17,2.17,0,0,0,2.1,1.61,2.23,2.23,0,0,0,2.18-2.22c-.1-5.52-.49-11-.9-16.53s-.74-11.28-1-16.95c-.49-11.55-.44-23.12,0-34.67.44-11.72,1.18-23.42,1.92-35.12s1.59-23.22,2.36-34.82c.79-11.77,1.53-23.56,2.07-35.36a2.1,2.1,0,1,0-4.2,0Z" style="fill:#161616"/><path d="M912.77,578.53c-1.44.32-2.9.66-4.38.88a27.07,27.07,0,0,1-6.61,0c-1-.15-1.92-.34-2.89-.59a1.89,1.89,0,0,0-2.28,1.32,1.92,1.92,0,0,0,1.3,2.35,32.42,32.42,0,0,0,8,1.07,25.92,25.92,0,0,0,3.74-.25,19,19,0,0,0,4.2-1,2,2,0,0,0,1.15-.91,2.14,2.14,0,0,0,.2-1.53,2,2,0,0,0-.89-1.18,1.83,1.83,0,0,0-1-.26,1.88,1.88,0,0,0-.53.07Z" style="fill:#161616"/><path d="M911,578.09c-1,.44-2,.95-3,1.39a29,29,0,0,1-7.19,2,27.32,27.32,0,0,1-6.94,0c-.08,0-.16,0-.23,0l-.49-.07a1.88,1.88,0,0,0-1.56,2.81,1.72,1.72,0,0,0,1.07.85,34.71,34.71,0,0,0,5.07.44,32,32,0,0,0,5.36-.41,28.48,28.48,0,0,0,5-1.32,17.53,17.53,0,0,0,4.76-2.47,3.78,3.78,0,0,0,.36-.29,2.18,2.18,0,0,0,.49-.83,2,2,0,0,0-.18-1.42,1.9,1.9,0,0,0-1.1-.85l-.49-.07a1.86,1.86,0,0,0-.92.24Z" style="fill:#161616"/><path d="M893.23,579a1.62,1.62,0,0,0,0,2.32,1.63,1.63,0,0,0,1.12.49,47.45,47.45,0,0,0,8.43.24,1.67,1.67,0,0,0,1.15-.49,1.75,1.75,0,0,0,.49-1.2,1.68,1.68,0,0,0-1.64-1.68c-1.36.07-2.72.12-4,.1a37.86,37.86,0,0,1-4.38-.27h-.1a1.52,1.52,0,0,0-1,.49Z" style="fill:#161616"/><path d="M899.91,595.08a1.79,1.79,0,0,0-1.1.88,2.15,2.15,0,0,0-.21,1.47c.08.37.13.71.18,1.07a16.53,16.53,0,0,1,0,3.72,12.7,12.7,0,0,1-.67,2.56,12.21,12.21,0,0,1-1.2,2.12,12.84,12.84,0,0,1-1.9,1.93c-.53.39-1.07.74-1.63,1.08a2,2,0,0,0-.7,2.66,1.93,1.93,0,0,0,2.62.71,14.64,14.64,0,0,0,6.37-6.91,12.66,12.66,0,0,0,.77-2.35,15.8,15.8,0,0,0,.33-2.51,12.54,12.54,0,0,0-.1-2.37,17.26,17.26,0,0,0-.49-2.71A1.89,1.89,0,0,0,900.4,595a2,2,0,0,0-.49.07Z" style="fill:#161616"/><path d="M905.19,598.31a2,2,0,0,0-.54,1.34c0,.27,0,.56-.1.83a18.76,18.76,0,0,1-1.11,4.27,14.61,14.61,0,0,1-1.64,2.91,16.83,16.83,0,0,1-2.45,2.47s0,0,0,0a3.79,3.79,0,0,0-.38.32,2.29,2.29,0,0,0-.52.88,2.18,2.18,0,0,0,.21,1.54,2,2,0,0,0,1.18.92,1.8,1.8,0,0,0,1.51-.22,21.5,21.5,0,0,0,2.89-2.61,16.79,16.79,0,0,0,2.33-3.32,15.27,15.27,0,0,0,1.8-8,2,2,0,0,0-.54-1.34,1.89,1.89,0,0,0-1.31-.56,1.85,1.85,0,0,0-1.3.56Z" style="fill:#161616"/><path d="M912.53,577.36a2,2,0,0,0-1.43,1.95,36.31,36.31,0,0,0,.69,4.44c.26,1.3.46,2.59.64,3.89a36.47,36.47,0,0,1,.13,8.86,22.91,22.91,0,0,1-1.36,5.25,17,17,0,0,1-2,3.44,22.35,22.35,0,0,1-2.48,2.67,1.87,1.87,0,0,0,0,2.61A1.78,1.78,0,0,0,908,611a2,2,0,0,0,1.28-.54,25,25,0,0,0,5.25-6.59,24.06,24.06,0,0,0,2.61-8.06,36.19,36.19,0,0,0,.33-4.4,31.91,31.91,0,0,0-.28-4.15,33.5,33.5,0,0,0-.82-4.52,20.38,20.38,0,0,0-.64-2.15,15.76,15.76,0,0,0-1-2.32,2,2,0,0,0-1.71-1,1.88,1.88,0,0,0-.52.08Z" style="fill:#161616"/><path d="M1006.39,42.14c0,2.69.15,5.4.33,8.09s.39,5.37.64,8.05a1.87,1.87,0,0,0,.49,1.2,1.64,1.64,0,0,0,2.38,0,1.65,1.65,0,0,0,.49-1.2c-.26-2.68-.46-5.37-.67-8.05s-.31-5.4-.56-8.09A1.82,1.82,0,0,0,1009,41a1.54,1.54,0,0,0-2.64,1.12Z" style="fill:#161616"/><path d="M1041.32,25.85a2.18,2.18,0,0,0-1,1.3c-.46,2.39-.85,4.81-1.31,7.18s-1.07,5-1.69,7.49c-1.23,5-2.66,9.89-4.09,14.8a2.27,2.27,0,0,0,1.53,2.74,2.2,2.2,0,0,0,2.69-1.57c1.44-4.9,2.9-9.79,4.18-14.74.64-2.49,1.22-5,1.74-7.48a66.6,66.6,0,0,0,1.17-7.83,2.15,2.15,0,0,0-1.58-2.1,2.07,2.07,0,0,0-.57-.08,2.21,2.21,0,0,0-1.07.29Z" style="fill:#161616"/><path d="M1065.77,52.72a1.79,1.79,0,0,0-1,.8,77.1,77.1,0,0,0-8.07,15.63,2,2,0,0,0,.21,1.46,1.79,1.79,0,0,0,1.1.86,1.9,1.9,0,0,0,1.41-.2c.13-.09.23-.19.36-.29a2,2,0,0,0,.48-.83c.16-.39.31-.8.46-1.2,1-2.36,2.08-4.66,3.23-6.93s2.48-4.49,3.79-6.72a1.76,1.76,0,0,0-1.49-2.66,1.54,1.54,0,0,0-.46.08Z" style="fill:#161616"/><path d="M1076.61,84l-.21.17.21-.17Zm14.77-16.14a67.57,67.57,0,0,0-9.5,5.71c-3.25,2.23-6.37,4.62-9.42,7.09a2.57,2.57,0,0,0-.77,1.88,2.61,2.61,0,0,0,.77,1.85,2.51,2.51,0,0,0,1.82.78q.35,0,.69-.09a2.63,2.63,0,0,0,1.15-.69c.2-.14.38-.32.59-.46,2.64-2.08,5.35-4,8.12-5.89,3-2,6.09-3.78,9.09-5.76a2.64,2.64,0,0,0,.89-3.52,2.56,2.56,0,0,0-1.48-1.17,4.69,4.69,0,0,1-.67-.1,2.41,2.41,0,0,0-1.28.37" style="fill:#161616"/><path d="M1099.86,95.4c-2.64.71-5.23,1.54-7.84,2.25s-5.5,1.39-8.27,1.95a2.17,2.17,0,0,0-1.33,1,2.4,2.4,0,0,0-.21,1.73,2.31,2.31,0,0,0,1,1.34,2.27,2.27,0,0,0,1.69.22c2.67-.51,5.33-1.12,7.94-1.8a66.48,66.48,0,0,0,8.12-2.54l.51-.22a2.53,2.53,0,0,0,.77-.79,2.2,2.2,0,0,0,.2-1.66,2.11,2.11,0,0,0-2-1.58,2,2,0,0,0-.54.07Z" style="fill:#161616"/><path d="M1085.9,124.34a2.2,2.2,0,0,0-.64,1.56,2.29,2.29,0,0,0,.64,1.59,2.32,2.32,0,0,0,1.54.66c3.4.24,6.81.61,10.22,1.07,3.09.44,6.19.95,9.27,1.51s6.4,1.25,9.63,1.81a2.3,2.3,0,0,0,1.69-.24,2.28,2.28,0,0,0-.54-4.11,146.69,146.69,0,0,0-14.93-2.85c-5.1-.73-10.19-1.3-15.34-1.66h-.1a2.06,2.06,0,0,0-1.44.66Z" style="fill:#161616"/><path d="M1096.38,152.74l.12,0-.12,0Zm-16.24-8a2,2,0,0,0,.18,1.42,2,2,0,0,0,1.08.83c5.14,1.88,10.29,3.78,15.33,5.93,1.62.71,3.21,1.44,4.79,2.18a2,2,0,0,0,1.44.19,1.75,1.75,0,0,0,1.1-.88,1.91,1.91,0,0,0-.67-2.59,102.53,102.53,0,0,0-10.45-4.51c-3.5-1.37-7.06-2.59-10.6-3.86a1.46,1.46,0,0,0-.48-.08,1.89,1.89,0,0,0-1.72,1.37Z" style="fill:#161616"/><path d="M1070,161.09a2,2,0,0,0,0,2.81c3.69,3.32,7.48,6.49,11.25,9.74,1.92,1.66,3.81,3.32,5.68,5.05s3.66,3.52,5.48,5.28a2.09,2.09,0,0,0,3,0,2.19,2.19,0,0,0,0-3,66,66,0,0,0-5.22-5.08c-1.87-1.68-3.82-3.32-5.76-5-3.9-3.27-7.86-6.44-11.65-9.81a1.9,1.9,0,0,0-2.75,0Z" style="fill:#161616"/></g></g><g id="CareerPlaybook"><path d="M142.73,144.92h-6.28l-2.62,16h-7.78l2.62-16H120v-7.15h9.84l1.72-10.31h-8.63v-7.15h9.8l2.7-16.25h7.73l-2.65,16.25h6.29l2.69-16.25h7.78l-2.7,16.25h9v7.15H153.4l-1.72,10.31h8.94v7.15H150.51l-2.62,16h-7.77Zm-5.11-7.15h6.29l1.71-10.31h-6.28Z" style="fill:#da2222"/><path d="M213.24,141.76l.08.23q.15,9.73-5.49,14.75t-16,5q-10.56,0-16.94-6.45t-6.38-16.87V126.56q0-10.38,6.15-16.85t16.27-6.47q10.81,0,16.74,5t5.76,14.65l-.12.23H200.47q0-5.23-2.23-7.5c-1.48-1.51-3.92-2.26-7.3-2.26A7.73,7.73,0,0,0,184.1,117q-2.39,3.59-2.38,9.51v12q0,6,2.62,9.57a8.72,8.72,0,0,0,7.5,3.59q4.53,0,6.54-2.26t2-7.58Z" style="fill:#da2222"/><path d="M244.26,160.9a15.65,15.65,0,0,1-1.27-3,23,23,0,0,1-.8-3.51,16.18,16.18,0,0,1-4.24,5.37,10.23,10.23,0,0,1-6.58,2q-6.65,0-10.33-3.42t-3.7-9.32a11.27,11.27,0,0,1,4.73-9.7q4.73-3.42,14.34-3.42h5.43v-3a6,6,0,0,0-1.29-4.14,5,5,0,0,0-4-1.45,4.76,4.76,0,0,0-3.42,1.08,4.47,4.47,0,0,0-1.11,3.34l-12.81,0-.08-.23q-.27-5.79,4.82-9.67t13.46-3.89c5.24,0,9.47,1.3,12.72,3.91S255,128.12,255,133v15.94a32.33,32.33,0,0,0,.57,6.25,33.46,33.46,0,0,0,1.69,5.78Zm-9.3-8.56a8,8,0,0,0,4.28-1.13,6.54,6.54,0,0,0,2.6-2.69v-5.59h-5.32q-3.17,0-4.57,1.52a5.53,5.53,0,0,0-1.4,3.87,3.73,3.73,0,0,0,1.23,2.91A4.57,4.57,0,0,0,235,152.34Z" style="fill:#da2222"/><path d="M285.62,129.92l-4.29,0a7.3,7.3,0,0,0-3.71.84,5.15,5.15,0,0,0-2.15,2.37v27.85h-13.2V118.67h12.42l.47,6.21a12.64,12.64,0,0,1,3.51-5.15,7.7,7.7,0,0,1,5.12-1.84,9.57,9.57,0,0,1,1.6.12,12.17,12.17,0,0,1,1.49.35Z" style="fill:#da2222"/><path d="M308.48,161.76q-9.62,0-15.06-5.82A20.71,20.71,0,0,1,288,141.21v-1.48q0-9.69,5.14-15.78T308,117.89q8.55,0,13.26,5.12t4.71,14V144H301.72l-.08.23a8.24,8.24,0,0,0,2.46,5.37,8.58,8.58,0,0,0,6.17,2,27.13,27.13,0,0,0,6.31-.62,39.19,39.19,0,0,0,5.76-2l3.17,8.05a24.12,24.12,0,0,1-7.35,3.36A33.9,33.9,0,0,1,308.48,161.76ZM308,128.05a5.45,5.45,0,0,0-4.67,2,10.15,10.15,0,0,0-1.74,5.45l.08.19h11.41v-1a8.76,8.76,0,0,0-1.16-5A4.39,4.39,0,0,0,308,128.05Z" style="fill:#da2222"/><path d="M350.27,161.76q-9.6,0-15.06-5.82t-5.44-14.73v-1.48q0-9.69,5.13-15.78t14.87-6.06q8.55,0,13.26,5.12t4.7,14V144H343.52l-.08.23a8.24,8.24,0,0,0,2.46,5.37,8.58,8.58,0,0,0,6.17,2,27.13,27.13,0,0,0,6.31-.62,39.19,39.19,0,0,0,5.76-2L367.3,157a24.06,24.06,0,0,1-7.34,3.36A33.92,33.92,0,0,1,350.27,161.76Zm-.5-33.71a5.45,5.45,0,0,0-4.67,2,10.07,10.07,0,0,0-1.74,5.45l.08.19h11.4v-1a8.76,8.76,0,0,0-1.15-5A4.42,4.42,0,0,0,349.77,128.05Z" style="fill:#da2222"/><path d="M396.68,129.92l-4.3,0a7.3,7.3,0,0,0-3.71.84,5.21,5.21,0,0,0-2.15,2.37v27.85h-13.2V118.67h12.42l.47,6.21a12.75,12.75,0,0,1,3.52-5.15,7.66,7.66,0,0,1,5.11-1.84,9.7,9.7,0,0,1,1.61.12,12,12,0,0,1,1.48.35Z" style="fill:#da2222"/><path d="M415.51,141.45v19.49H402.3V104.06H424q10.13,0,16.06,5.16a18.41,18.41,0,0,1,0,27.09q-5.94,5.13-16.06,5.14Zm0-10.16H424q4.31,0,6.57-2.36a8.43,8.43,0,0,0,2.26-6.08,8.82,8.82,0,0,0-2.24-6.21q-2.25-2.42-6.59-2.42h-8.51Z" style="fill:#da2222"/><path d="M466.37,160.94H453.12V100h13.25Z" style="fill:#da2222"/><path d="M498.87,160.9a15.65,15.65,0,0,1-1.27-3,23,23,0,0,1-.8-3.51,16.18,16.18,0,0,1-4.24,5.37,10.25,10.25,0,0,1-6.58,2q-6.64,0-10.34-3.42A12.08,12.08,0,0,1,472,149a11.27,11.27,0,0,1,4.73-9.7q4.72-3.42,14.34-3.42h5.43v-3a6,6,0,0,0-1.29-4.14,5,5,0,0,0-4-1.45,4.76,4.76,0,0,0-3.42,1.08,4.47,4.47,0,0,0-1.11,3.34l-12.81,0-.08-.23q-.27-5.79,4.82-9.67t13.46-3.89q7.85,0,12.72,3.91T509.65,133v15.94a33.17,33.17,0,0,0,.56,6.25,34.42,34.42,0,0,0,1.7,5.78Zm-9.3-8.56a8,8,0,0,0,4.28-1.13,6.54,6.54,0,0,0,2.6-2.69v-5.59h-5.32q-3.17,0-4.57,1.52a5.48,5.48,0,0,0-1.4,3.87,3.73,3.73,0,0,0,1.23,2.91A4.57,4.57,0,0,0,489.57,152.34Z" style="fill:#da2222"/><path d="M532.66,142.3l0,.32h.23l7-24H554l-16.83,48.56a23.23,23.23,0,0,1-5,7.73q-3.09,3-9.81,3a14.46,14.46,0,0,1-2.81-.22c-.73-.14-1.87-.41-3.44-.8l1.61-9.41.82.17a3.31,3.31,0,0,0,.7.06,8.69,8.69,0,0,0,4.57-.92,5.47,5.47,0,0,0,2.15-2.75l1.05-2.73-14.61-42.74h14Z" style="fill:#da2222"/><path d="M596.56,140.7q0,9.66-4.14,15.35t-12.26,5.71a11.84,11.84,0,0,1-6-1.49,13.05,13.05,0,0,1-4.41-4.29l-.78,5H557.42V100h13.2v22.77a12.9,12.9,0,0,1,4.09-3.61,11,11,0,0,1,5.37-1.27q8.16,0,12.32,6t4.16,16Zm-13.16-.82a21.67,21.67,0,0,0-1.41-8.73,5.22,5.22,0,0,0-5.23-3.1,7.82,7.82,0,0,0-3.69.8,6,6,0,0,0-2.45,2.32V149a5.82,5.82,0,0,0,2.49,2,9.43,9.43,0,0,0,3.73.66q3.9,0,5.23-2.71t1.33-8.19Z" style="fill:#da2222"/><path d="M600.62,139.41q0-9.53,5.4-15.52t15-6q9.69,0,15.08,6t5.39,15.52v.82q0,9.59-5.39,15.55t-15,6q-9.72,0-15.11-6t-5.4-15.55Zm13.21.82a17.39,17.39,0,0,0,1.66,8.34c1.1,2,3,3,5.64,3a5.83,5.83,0,0,0,5.55-3,17.3,17.3,0,0,0,1.68-8.32v-.82a17.4,17.4,0,0,0-1.68-8.26,5.89,5.89,0,0,0-5.63-3.1,5.79,5.79,0,0,0-5.56,3.12,17.56,17.56,0,0,0-1.66,8.24Z" style="fill:#da2222"/><path d="M645.59,139.41q0-9.53,5.39-15.52t15-6q9.68,0,15.07,6t5.39,15.52v.82q0,9.59-5.39,15.55t-15,6q-9.72,0-15.11-6t-5.39-15.55Zm13.2.82a17.39,17.39,0,0,0,1.66,8.34,5.91,5.91,0,0,0,5.64,3,5.83,5.83,0,0,0,5.55-3,17.3,17.3,0,0,0,1.68-8.32v-.82a17.4,17.4,0,0,0-1.68-8.26,5.87,5.87,0,0,0-5.62-3.1,5.81,5.81,0,0,0-5.57,3.12,17.56,17.56,0,0,0-1.66,8.24Z" style="fill:#da2222"/><path d="M707.89,144.14h-2.38v16.8H692.3V100h13.21v34.18h1.87l8.91-15.51h15.12l-13,19.06,15.15,23.21h-15Z" style="fill:#da2222"/></g></svg>