<svg id="Layer_1" data-name="Layer 1" xmlns="http://www.w3.org/2000/svg" viewBox="0 0 1400 600"><title>CP015_blog</title><rect id="White" width="1400" height="600" style="fill:#fff"/><g id="_015" data-name="015"><path d="M283.48,230a45.82,45.82,0,0,1-1.6,12.88,27,27,0,0,1-4.36,9,17.67,17.67,0,0,1-6.46,5.3,18.76,18.76,0,0,1-15.78,0,17.78,17.78,0,0,1-6.44-5.3,26.58,26.58,0,0,1-4.34-9,53.29,53.29,0,0,1,0-25.76,26.58,26.58,0,0,1,4.34-9,17.78,17.78,0,0,1,6.44-5.3,18.76,18.76,0,0,1,15.78,0,17.67,17.67,0,0,1,6.46,5.3,27,27,0,0,1,4.36,9A45.82,45.82,0,0,1,283.48,230Zm-4,0a45.5,45.5,0,0,0-1.32-11.76,24.8,24.8,0,0,0-3.54-8,13.76,13.76,0,0,0-5.2-4.54,14.21,14.21,0,0,0-6.26-1.44,13.69,13.69,0,0,0-11.44,6,24.6,24.6,0,0,0-3.56,8,53.13,53.13,0,0,0,0,23.54,24.57,24.57,0,0,0,3.56,8,13.83,13.83,0,0,0,5.2,4.52,14.18,14.18,0,0,0,6.24,1.42,14.33,14.33,0,0,0,6.26-1.42,13.61,13.61,0,0,0,5.2-4.52,24.78,24.78,0,0,0,3.54-8A45.51,45.51,0,0,0,279.48,230Z"/><path d="M326.28,255.32v3h-29.2v-3h13V209.4q0-1.36.12-2.88L297.72,217.6a1.28,1.28,0,0,1-1.12.36,1.58,1.58,0,0,1-.88-.48l-1.16-1.6,16.36-14.44h3v53.88Z"/><path d="M345.2,224.08a42.29,42.29,0,0,1,5.06-1,36.27,36.27,0,0,1,4.54-.3,22.15,22.15,0,0,1,7.8,1.26,15.51,15.51,0,0,1,5.62,3.52,14.69,14.69,0,0,1,3.4,5.38,19.69,19.69,0,0,1,1.14,6.8,20,20,0,0,1-1.54,8,17.82,17.82,0,0,1-4.22,6,18.73,18.73,0,0,1-6.24,3.8,21.62,21.62,0,0,1-7.56,1.32,23,23,0,0,1-4.46-.42,24.59,24.59,0,0,1-4-1.12,23.24,23.24,0,0,1-3.44-1.62,22,22,0,0,1-2.78-1.88l1.16-1.56a1.21,1.21,0,0,1,1.12-.6,3.35,3.35,0,0,1,1.5.6,25.35,25.35,0,0,0,2.52,1.32,23.85,23.85,0,0,0,3.66,1.32,18.1,18.1,0,0,0,4.92.6,17.34,17.34,0,0,0,6.12-1.06,14.3,14.3,0,0,0,4.92-3.06,14.06,14.06,0,0,0,3.26-4.94,17.89,17.89,0,0,0,1.18-6.66,16.78,16.78,0,0,0-.9-5.6,11.48,11.48,0,0,0-2.72-4.38,12.59,12.59,0,0,0-4.6-2.84,19,19,0,0,0-6.54-1,34.75,34.75,0,0,0-4.84.36,43,43,0,0,0-5.44,1.16l-2.44-.76,4.4-25.08h25.48v1.64a1.82,1.82,0,0,1-.54,1.34,2.33,2.33,0,0,1-1.7.54H348.56Z"/><g id="_000_Introduction" data-name="000_Introduction"><path d="M253.3,338.09h18.31v7.61H243.4V303.05h9.9Z"/><path d="M290.39,346.32q-7.2,0-11.29-4.37a15.5,15.5,0,0,1-4.09-11v-1.12q0-7.26,3.85-11.83T290,313.42q6.42,0,9.95,3.84t3.53,10.51V333H285.32l-.06.17a6.19,6.19,0,0,0,1.85,4,6.42,6.42,0,0,0,4.63,1.54,20.2,20.2,0,0,0,4.73-.47,29.82,29.82,0,0,0,4.32-1.49l2.37,6a17.86,17.86,0,0,1-5.5,2.52A25.25,25.25,0,0,1,290.39,346.32ZM290,321a4.09,4.09,0,0,0-3.5,1.5,7.55,7.55,0,0,0-1.3,4.09l.05.15h8.56V326a6.59,6.59,0,0,0-.87-3.73A3.31,3.31,0,0,0,290,321Z"/><path d="M326,345.67a12.28,12.28,0,0,1-1-2.25,18.15,18.15,0,0,1-.6-2.64,12.17,12.17,0,0,1-3.18,4,7.61,7.61,0,0,1-4.93,1.51q-5,0-7.75-2.57a9,9,0,0,1-2.77-7,8.43,8.43,0,0,1,3.55-7.28q3.54-2.57,10.75-2.57h4.07v-2.25a4.51,4.51,0,0,0-1-3.11,3.77,3.77,0,0,0-3-1.08,3.6,3.6,0,0,0-2.56.8,3.35,3.35,0,0,0-.83,2.51l-9.61,0-.06-.18a8.27,8.27,0,0,1,3.62-7.25q3.81-2.91,10.09-2.91a14.77,14.77,0,0,1,9.53,2.93q3.66,2.92,3.65,8.38v11.95a23.9,23.9,0,0,0,.43,4.69,24.44,24.44,0,0,0,1.27,4.33Zm-7-6.41a6.11,6.11,0,0,0,3.21-.85,4.87,4.87,0,0,0,1.95-2V332.2h-4a4.47,4.47,0,0,0-3.43,1.14,4.08,4.08,0,0,0-1.06,2.9,2.78,2.78,0,0,0,.93,2.18A3.39,3.39,0,0,0,319,339.26Z"/><path d="M357,322.44l-3.22,0A5.47,5.47,0,0,0,351,323a3.91,3.91,0,0,0-1.62,1.77V345.7h-9.9V314h9.32l.35,4.66a9.49,9.49,0,0,1,2.64-3.87,5.8,5.8,0,0,1,3.83-1.37,7.56,7.56,0,0,1,2.32.35Z"/><path d="M369.76,314l.38,4.46a11.48,11.48,0,0,1,3.83-3.71,10,10,0,0,1,5.1-1.33,8.93,8.93,0,0,1,7.28,3.16q2.63,3.17,2.62,10.05V345.7h-9.9V326.6a7.3,7.3,0,0,0-1-4.29,3.33,3.33,0,0,0-2.82-1.27,7,7,0,0,0-2.84.55,5.73,5.73,0,0,0-2.11,1.58V345.7h-9.87V314Z"/><path d="M404.74,306.65H394.8V300h9.94Zm0,39.05H394.8V314h9.94Z"/><path d="M419.91,314l.38,4.46a11.6,11.6,0,0,1,3.84-3.71,9.9,9.9,0,0,1,5.1-1.33,8.94,8.94,0,0,1,7.28,3.16q2.63,3.17,2.62,10.05V345.7h-9.9V326.6a7.22,7.22,0,0,0-1-4.29,3.3,3.3,0,0,0-2.81-1.27,7,7,0,0,0-2.84.55,5.65,5.65,0,0,0-2.11,1.58V345.7h-9.88V314Z"/><path d="M443.17,329.91q0-7.41,3.24-12a10.55,10.55,0,0,1,9.13-4.54,8.13,8.13,0,0,1,4.39,1.18,10.55,10.55,0,0,1,3.28,3.36l.65-4h8.73v31.35q0,6.27-4.29,9.71t-11.83,3.45a21.21,21.21,0,0,1-5.15-.68,28.91,28.91,0,0,1-5.16-1.81l1.7-7.33a23,23,0,0,0,4.09,1.39,19.38,19.38,0,0,0,4.47.46,7.33,7.33,0,0,0,4.7-1.26,4.88,4.88,0,0,0,1.54-4v-2.46a9.16,9.16,0,0,1-3.12,2.61,9,9,0,0,1-4.06.88A10.64,10.64,0,0,1,446.4,342q-3.22-4.34-3.23-11.45Zm9.88.62a13.2,13.2,0,0,0,1.12,6A4,4,0,0,0,458,338.7a6.89,6.89,0,0,0,2.77-.5,4.55,4.55,0,0,0,1.89-1.49V323.38a5,5,0,0,0-1.88-1.74,5.78,5.78,0,0,0-2.72-.6,4,4,0,0,0-3.83,2.44,14.86,14.86,0,0,0-1.18,6.43Z"/><path d="M504.55,306.12V314h5v6.86h-5v14.53a3.57,3.57,0,0,0,.69,2.45,2.43,2.43,0,0,0,1.86.74c.51,0,.91,0,1.22-.05a10.42,10.42,0,0,0,1.15-.24l.68,7.33a25.7,25.7,0,0,1-2.7.54,23.11,23.11,0,0,1-2.84.16q-4.89,0-7.43-2.61t-2.53-8.26V320.86h-4.43V314h4.43v-7.88Z"/><path d="M513.05,329.56q0-7.15,4-11.64c2.7-3,6.45-4.5,11.28-4.5s8.61,1.5,11.31,4.5,4,6.87,4,11.64v.62q0,7.17-4,11.66t-11.25,4.48c-4.87,0-8.64-1.5-11.34-4.48s-4-6.88-4-11.66Zm9.9.62a13.1,13.1,0,0,0,1.24,6.25,4.45,4.45,0,0,0,4.24,2.27,4.38,4.38,0,0,0,4.16-2.28,13,13,0,0,0,1.26-6.24v-.62a13.07,13.07,0,0,0-1.26-6.2,4.41,4.41,0,0,0-4.22-2.32,4.36,4.36,0,0,0-4.18,2.34,13.17,13.17,0,0,0-1.24,6.18Z"/><path d="M580.55,322.44l-3.23,0a5.47,5.47,0,0,0-2.78.63,3.89,3.89,0,0,0-1.61,1.77V345.7H563V314h9.31l.36,4.66a9.57,9.57,0,0,1,2.63-3.87,5.85,5.85,0,0,1,3.84-1.37,7.16,7.16,0,0,1,1.2.09,7.34,7.34,0,0,1,1.11.26Z"/><path d="M597.69,346.32q-7.22,0-11.3-4.37a15.54,15.54,0,0,1-4.09-11v-1.12q0-7.26,3.86-11.83t11.14-4.54q6.42,0,10,3.84t3.53,10.51V333H592.62l-.06.17a6.13,6.13,0,0,0,1.84,4A6.44,6.44,0,0,0,599,338.7a20.14,20.14,0,0,0,4.73-.47,30.32,30.32,0,0,0,4.33-1.49l2.37,6a17.93,17.93,0,0,1-5.51,2.52A25.18,25.18,0,0,1,597.69,346.32ZM597.3,321a4.11,4.11,0,0,0-3.5,1.5,7.63,7.63,0,0,0-1.3,4.09l.06.15h8.55V326a6.68,6.68,0,0,0-.86-3.73A3.34,3.34,0,0,0,597.3,321Z"/><path d="M633.28,345.67a11.62,11.62,0,0,1-.95-2.25,18.15,18.15,0,0,1-.6-2.64,12.17,12.17,0,0,1-3.18,4,7.66,7.66,0,0,1-4.94,1.51q-5,0-7.75-2.57a9,9,0,0,1-2.76-7,8.45,8.45,0,0,1,3.54-7.28q3.54-2.57,10.75-2.57h4.07v-2.25a4.56,4.56,0,0,0-1-3.11,3.78,3.78,0,0,0-3-1.08,3.59,3.59,0,0,0-2.56.8,3.35,3.35,0,0,0-.84,2.51l-9.61,0-.06-.18a8.29,8.29,0,0,1,3.62-7.25q3.82-2.91,10.09-2.91a14.78,14.78,0,0,1,9.54,2.93q3.64,2.92,3.65,8.38v11.95a24.72,24.72,0,0,0,.42,4.69,25.35,25.35,0,0,0,1.28,4.33Zm-7-6.41a6.11,6.11,0,0,0,3.21-.85,4.91,4.91,0,0,0,1.94-2V332.2h-4a4.5,4.5,0,0,0-3.43,1.14,4.12,4.12,0,0,0-1,2.9,2.8,2.8,0,0,0,.92,2.18A3.42,3.42,0,0,0,626.31,339.26Z"/><path d="M645.47,329.91q0-7.41,3.24-12a10.53,10.53,0,0,1,9.12-4.54,7.79,7.79,0,0,1,4,1,10.48,10.48,0,0,1,3.18,2.88V300h9.9v45.7h-8.67l-.67-3.86a10.72,10.72,0,0,1-3.36,3.32,8.39,8.39,0,0,1-4.41,1.16,10.67,10.67,0,0,1-9.08-4.34q-3.23-4.34-3.22-11.45Zm9.9.62a13.19,13.19,0,0,0,1.13,6,4,4,0,0,0,3.79,2.15,6.24,6.24,0,0,0,2.74-.57,4.93,4.93,0,0,0,2-1.68V323.64a5.41,5.41,0,0,0-1.93-1.93,5.3,5.3,0,0,0-2.7-.67,4,4,0,0,0-3.81,2.43,15,15,0,0,0-1.17,6.44Z"/><path d="M272.17,402.53q0,7.23-3.11,11.51t-9.2,4.28a8.9,8.9,0,0,1-4.51-1.11A9.88,9.88,0,0,1,252,414l-.58,3.72h-8.65V372h9.9v17.08a9.47,9.47,0,0,1,3.07-2.71,8.29,8.29,0,0,1,4-.95q6.13,0,9.25,4.48t3.12,12Zm-9.88-.62a16.41,16.41,0,0,0-1.05-6.55,3.91,3.91,0,0,0-3.93-2.32,5.92,5.92,0,0,0-2.76.6,4.47,4.47,0,0,0-1.84,1.74v13.33a4.31,4.31,0,0,0,1.87,1.49,6.89,6.89,0,0,0,2.79.5c2,0,3.26-.68,3.93-2a14.66,14.66,0,0,0,1-6.14Z"/><path d="M275.21,401.56q0-7.15,4.05-11.64t11.28-4.5q7.26,0,11.31,4.5t4,11.64v.62q0,7.17-4,11.66t-11.25,4.48q-7.31,0-11.34-4.48t-4.05-11.66Zm9.91.62a13.1,13.1,0,0,0,1.24,6.25,4.44,4.44,0,0,0,4.24,2.27,4.38,4.38,0,0,0,4.16-2.28,13,13,0,0,0,1.26-6.24v-.62a13.07,13.07,0,0,0-1.26-6.2,4.41,4.41,0,0,0-4.22-2.32,4.35,4.35,0,0,0-4.18,2.34,13.17,13.17,0,0,0-1.24,6.18Z"/><path d="M308.94,401.91q0-7.41,3.23-12a10.55,10.55,0,0,1,9.13-4.54,7.82,7.82,0,0,1,4,1,10.48,10.48,0,0,1,3.18,2.88V372h9.9v45.7h-8.67l-.68-3.86a10.59,10.59,0,0,1-3.35,3.32,8.39,8.39,0,0,1-4.41,1.16,10.65,10.65,0,0,1-9.08-4.34q-3.23-4.34-3.22-11.45Zm9.9.62a13.06,13.06,0,0,0,1.13,6,3.94,3.94,0,0,0,3.79,2.15,6.27,6.27,0,0,0,2.74-.57,4.93,4.93,0,0,0,1.95-1.68V395.64a5.43,5.43,0,0,0-1.94-1.93,5.29,5.29,0,0,0-2.69-.67,4,4,0,0,0-3.81,2.43,15,15,0,0,0-1.17,6.44Z"/><path d="M356.25,403.73l0,.23h.18l5.24-18h10.55l-12.63,36.42a17.57,17.57,0,0,1-3.78,5.8c-1.54,1.52-4,2.29-7.35,2.29a10.93,10.93,0,0,1-2.11-.17q-.83-.15-2.58-.6l1.2-7.06.62.14a3.44,3.44,0,0,0,.52,0,6.55,6.55,0,0,0,3.43-.69,4.11,4.11,0,0,0,1.61-2.06l.79-2.06L341,386h10.51Z"/><path d="M400.14,417.7h-9.93V372h9.93Z"/><path d="M424.51,417.67a11.62,11.62,0,0,1-.95-2.25,18.15,18.15,0,0,1-.6-2.64,12.17,12.17,0,0,1-3.18,4,7.64,7.64,0,0,1-4.94,1.51q-5,0-7.75-2.57a9,9,0,0,1-2.76-7,8.45,8.45,0,0,1,3.54-7.28q3.54-2.57,10.75-2.57h4.08v-2.25a4.56,4.56,0,0,0-1-3.11,3.78,3.78,0,0,0-3-1.08,3.59,3.59,0,0,0-2.56.8,3.35,3.35,0,0,0-.84,2.51l-9.61,0-.06-.18a8.29,8.29,0,0,1,3.62-7.25q3.82-2.91,10.09-2.91a14.72,14.72,0,0,1,9.54,2.93q3.65,2.92,3.65,8.38v11.95a24.72,24.72,0,0,0,.42,4.69,25.35,25.35,0,0,0,1.28,4.33Zm-7-6.41a6.11,6.11,0,0,0,3.21-.85,5,5,0,0,0,1.95-2V404.2h-4a4.5,4.5,0,0,0-3.43,1.14,4.12,4.12,0,0,0-1,2.9,2.8,2.8,0,0,0,.92,2.18A3.42,3.42,0,0,0,417.54,411.26Z"/><path d="M447.13,386l.38,4.46a11.42,11.42,0,0,1,3.84-3.71,9.9,9.9,0,0,1,5.1-1.33,8.94,8.94,0,0,1,7.28,3.16q2.61,3.17,2.62,10.05V417.7h-9.9V398.6a7.29,7.29,0,0,0-1-4.29,3.31,3.31,0,0,0-2.81-1.27,7,7,0,0,0-2.85.55,5.73,5.73,0,0,0-2.11,1.58V417.7h-9.87V386Z"/><path d="M470.39,401.91q0-7.41,3.24-12a10.55,10.55,0,0,1,9.12-4.54,8.16,8.16,0,0,1,4.4,1.18,10.55,10.55,0,0,1,3.28,3.36l.64-4h8.73v31.35q0,6.27-4.29,9.71t-11.82,3.45a21.15,21.15,0,0,1-5.15-.68,28.91,28.91,0,0,1-5.16-1.81l1.7-7.33a22.73,22.73,0,0,0,4.09,1.39,19.23,19.23,0,0,0,4.46.46,7.31,7.31,0,0,0,4.7-1.26,4.85,4.85,0,0,0,1.54-4v-2.46a9.16,9.16,0,0,1-3.12,2.61,8.94,8.94,0,0,1-4.05.88,10.67,10.67,0,0,1-9.09-4.34q-3.23-4.34-3.22-11.45Zm9.87.62a13.19,13.19,0,0,0,1.13,6,4,4,0,0,0,3.82,2.15,6.82,6.82,0,0,0,2.77-.5,4.55,4.55,0,0,0,1.89-1.49V395.38a4.94,4.94,0,0,0-1.87-1.74,5.79,5.79,0,0,0-2.73-.6,4,4,0,0,0-3.82,2.44,14.85,14.85,0,0,0-1.19,6.43Z"/><path d="M524.56,413a10.41,10.41,0,0,1-3.65,4,9.66,9.66,0,0,1-5.17,1.39,9.38,9.38,0,0,1-7.72-3.46q-2.79-3.45-2.8-10.69V386h9.88v18.23q0,3.72.95,5.09A3.33,3.33,0,0,0,519,410.7a8.17,8.17,0,0,0,2.79-.44,5.33,5.33,0,0,0,2.05-1.32V386h9.9v31.7h-8Z"/><path d="M557.49,417.67a11.62,11.62,0,0,1-1-2.25,15.87,15.87,0,0,1-.6-2.64,12.17,12.17,0,0,1-3.18,4,7.66,7.66,0,0,1-4.94,1.51q-5,0-7.75-2.57a9,9,0,0,1-2.77-7,8.46,8.46,0,0,1,3.55-7.28q3.54-2.57,10.75-2.57h4.07v-2.25a4.56,4.56,0,0,0-1-3.11,3.78,3.78,0,0,0-3-1.08,3.63,3.63,0,0,0-2.57.8,3.39,3.39,0,0,0-.83,2.51l-9.61,0-.06-.18a8.27,8.27,0,0,1,3.62-7.25q3.83-2.91,10.09-2.91a14.72,14.72,0,0,1,9.54,2.93q3.65,2.92,3.65,8.38v11.95a23.32,23.32,0,0,0,1.7,9Zm-7-6.41a6.11,6.11,0,0,0,3.21-.85,4.91,4.91,0,0,0,1.94-2V404.2h-4a4.49,4.49,0,0,0-3.43,1.14,4.12,4.12,0,0,0-1,2.9,2.77,2.77,0,0,0,.92,2.18A3.42,3.42,0,0,0,550.52,411.26Z"/><path d="M569.65,401.91q0-7.41,3.24-12a10.53,10.53,0,0,1,9.12-4.54,8.16,8.16,0,0,1,4.4,1.18,10.55,10.55,0,0,1,3.28,3.36l.64-4h8.73v31.35q0,6.27-4.29,9.71T583,430.51a21.29,21.29,0,0,1-5.16-.68,29.09,29.09,0,0,1-5.15-1.81l1.7-7.33a22.65,22.65,0,0,0,4.08,1.39,19.38,19.38,0,0,0,4.47.46,7.31,7.31,0,0,0,4.7-1.26,4.85,4.85,0,0,0,1.54-4v-2.46a9.16,9.16,0,0,1-3.12,2.61,9,9,0,0,1-4.06.88,10.67,10.67,0,0,1-9.08-4.34q-3.23-4.34-3.22-11.45Zm9.87.62a13.19,13.19,0,0,0,1.13,6,4,4,0,0,0,3.82,2.15,6.82,6.82,0,0,0,2.77-.5,4.55,4.55,0,0,0,1.89-1.49V395.38a4.94,4.94,0,0,0-1.87-1.74,5.82,5.82,0,0,0-2.73-.6,4,4,0,0,0-3.82,2.44,14.85,14.85,0,0,0-1.19,6.43Z"/><path d="M618.78,418.32q-7.21,0-11.29-4.37a15.5,15.5,0,0,1-4.09-11v-1.12q0-7.26,3.85-11.83t11.15-4.54q6.42,0,9.94,3.84t3.54,10.51V405H613.71l-.06.17a6.14,6.14,0,0,0,1.85,4,6.42,6.42,0,0,0,4.63,1.54,20.2,20.2,0,0,0,4.73-.47,29.82,29.82,0,0,0,4.32-1.49l2.37,6a17.82,17.82,0,0,1-5.51,2.52A25.13,25.13,0,0,1,618.78,418.32ZM618.4,393a4.09,4.09,0,0,0-3.5,1.5,7.63,7.63,0,0,0-1.31,4.09l.06.15h8.56V398a6.59,6.59,0,0,0-.87-3.73A3.31,3.31,0,0,0,618.4,393Z"/><path d="M657.22,394.94a23,23,0,0,1-2.65-4.66,11.38,11.38,0,0,1-.87-4.33c0-3.7,1.08-6.54,3.22-8.53s5.1-3,8.85-3a10.1,10.1,0,0,1,7.57,3,10,10,0,0,1,2.92,7.27,12.59,12.59,0,0,1-1.07,5.4,11.42,11.42,0,0,1-3.24,4L669,396.17l6.89,7.94a16,16,0,0,0,1.57-3.63,14.66,14.66,0,0,0,.57-4.1h7.61a29.25,29.25,0,0,1-1,7.86,17.43,17.43,0,0,1-3.2,6.29l6.13,7-.06.14H676.73l-2.17-2.46a20.7,20.7,0,0,1-5.08,2.33,19.61,19.61,0,0,1-5.58.75q-6.39,0-10.17-3.34a11.11,11.11,0,0,1-3.78-8.73,9.86,9.86,0,0,1,1.66-5.79,26.38,26.38,0,0,1,5.08-5.17Zm7.35,15.76a13.14,13.14,0,0,0,2.55-.26,11.54,11.54,0,0,0,2.49-.82l-7.53-8.56a6.68,6.68,0,0,0-1.7,2.14,5.62,5.62,0,0,0-.5,2.37,5.16,5.16,0,0,0,1.37,3.7A4.4,4.4,0,0,0,664.57,410.7Zm-2.31-24.87a5.46,5.46,0,0,0,.49,2.21,12.12,12.12,0,0,0,1.5,2.42l1.32-.82a6.75,6.75,0,0,0,2.21-2.05,4.37,4.37,0,0,0,.57-2.2,3.81,3.81,0,0,0-.75-2.35,2.56,2.56,0,0,0-2.18-1,2.79,2.79,0,0,0-2.3,1.1A4.16,4.16,0,0,0,662.26,385.83Z"/><path d="M245,489.7V464.86h-4.57V458H245v-3.28q0-5.45,3.28-8.39t9.29-2.95a16.29,16.29,0,0,1,2.3.17c.77.1,1.64.25,2.59.45l-.73,7.29c-.55-.09-1-.17-1.44-.21a12.37,12.37,0,0,0-1.49-.08,3.93,3.93,0,0,0-2.87,1,3.63,3.63,0,0,0-1,2.75V458h6.27v6.86h-6.27V489.7Z"/><path d="M282.63,489.67a12.28,12.28,0,0,1-1-2.25,18.15,18.15,0,0,1-.6-2.64,12.14,12.14,0,0,1-3.17,4,7.66,7.66,0,0,1-4.94,1.51q-5,0-7.75-2.57a9,9,0,0,1-2.77-7,8.43,8.43,0,0,1,3.55-7.28q3.54-2.57,10.75-2.57h4.07v-2.25a4.51,4.51,0,0,0-1-3.11,3.77,3.77,0,0,0-3-1.08,3.6,3.6,0,0,0-2.56.8,3.35,3.35,0,0,0-.83,2.51l-9.61,0-.06-.18a8.27,8.27,0,0,1,3.62-7.25q3.82-2.91,10.09-2.91a14.74,14.74,0,0,1,9.54,2.93q3.65,2.92,3.64,8.38v11.95a23.9,23.9,0,0,0,.43,4.69,25.31,25.31,0,0,0,1.27,4.33Zm-7-6.41a6.08,6.08,0,0,0,3.21-.85,4.87,4.87,0,0,0,1.95-2V476.2h-4a4.47,4.47,0,0,0-3.43,1.14,4.13,4.13,0,0,0-1.06,2.9,2.78,2.78,0,0,0,.93,2.18A3.39,3.39,0,0,0,275.65,483.26Z"/><path d="M309.7,482.7a3.87,3.87,0,0,0,3-1.1,4.54,4.54,0,0,0,1-3.18h9l.06.18a10.4,10.4,0,0,1-3.59,8.45,13.83,13.83,0,0,1-9.5,3.27q-7.24,0-11.15-4.47t-3.91-11.64v-.68q0-7.14,3.9-11.63t11.1-4.48q6,0,9.65,3.35t3.5,9.19l-.06.17h-9a6.13,6.13,0,0,0-1-3.67,3.52,3.52,0,0,0-3.05-1.42,4.06,4.06,0,0,0-4,2.29,14.28,14.28,0,0,0-1.13,6.2v.68a14.23,14.23,0,0,0,1.13,6.24A4.13,4.13,0,0,0,309.7,482.7Z"/><path d="M340.9,490.32q-7.22,0-11.3-4.37a15.53,15.53,0,0,1-4.08-11v-1.12q0-7.26,3.85-11.83t11.15-4.54q6.41,0,9.94,3.84T354,471.77V477H335.83l-.06.17a6.14,6.14,0,0,0,1.85,4,6.41,6.41,0,0,0,4.63,1.54,20.2,20.2,0,0,0,4.73-.47,29.82,29.82,0,0,0,4.32-1.49l2.37,6a17.93,17.93,0,0,1-5.51,2.52A25.13,25.13,0,0,1,340.9,490.32ZM340.52,465a4.09,4.09,0,0,0-3.5,1.5,7.55,7.55,0,0,0-1.31,4.09l.06.15h8.56V470a6.59,6.59,0,0,0-.87-3.73A3.32,3.32,0,0,0,340.52,465Z"/><path d="M387.19,490.32q-7.21,0-11.3-4.37a15.53,15.53,0,0,1-4.08-11v-1.12q0-7.26,3.85-11.83t11.15-4.54q6.4,0,9.94,3.84t3.53,10.51V477H382.12l-.06.17a6.14,6.14,0,0,0,1.85,4,6.41,6.41,0,0,0,4.63,1.54,20.2,20.2,0,0,0,4.73-.47,29.82,29.82,0,0,0,4.32-1.49l2.37,6a17.93,17.93,0,0,1-5.51,2.52A25.13,25.13,0,0,1,387.19,490.32ZM386.81,465a4.08,4.08,0,0,0-3.5,1.5,7.55,7.55,0,0,0-1.31,4.09l.06.15h8.56V470a6.59,6.59,0,0,0-.87-3.73A3.34,3.34,0,0,0,386.81,465Z"/><path d="M417,467.35h.18l4-9.35h11.1l-9.19,15.68,9.52,16H421.52l-4.22-9.64h-.17l-4.22,9.64h-11.1l9.52-16L402.1,458h11Z"/><path d="M464.68,474.53q0,7.14-3.22,11.47a10.68,10.68,0,0,1-9.09,4.32,8.94,8.94,0,0,1-4.05-.88,9.08,9.08,0,0,1-3.1-2.55v15h-9.9V458h9.35l.29,3.46a9.72,9.72,0,0,1,3.15-3,8.29,8.29,0,0,1,4.2-1.05,10.55,10.55,0,0,1,9.13,4.54q3.24,4.55,3.24,12Zm-9.88-.62a15,15,0,0,0-1.17-6.44,3.91,3.91,0,0,0-3.75-2.43,5.94,5.94,0,0,0-2.82.61,4.53,4.53,0,0,0-1.84,1.79v13.24a4.26,4.26,0,0,0,1.86,1.52,7.15,7.15,0,0,0,2.86.5,3.91,3.91,0,0,0,3.74-2.15,13.2,13.2,0,0,0,1.12-6Z"/><path d="M486.56,466.44l-3.22,0a5.47,5.47,0,0,0-2.78.63,3.84,3.84,0,0,0-1.61,1.77V489.7H469V458h9.32l.35,4.66a9.49,9.49,0,0,1,2.64-3.87,5.81,5.81,0,0,1,3.84-1.37,7.24,7.24,0,0,1,1.2.09,7.34,7.34,0,0,1,1.11.26Z"/><path d="M503.7,490.32q-7.2,0-11.29-4.37a15.5,15.5,0,0,1-4.09-11v-1.12q0-7.26,3.85-11.83t11.15-4.54q6.42,0,9.95,3.84t3.53,10.51V477H498.63l-.06.17a6.19,6.19,0,0,0,1.85,4,6.42,6.42,0,0,0,4.63,1.54,20.2,20.2,0,0,0,4.73-.47,29.82,29.82,0,0,0,4.32-1.49l2.37,6a17.86,17.86,0,0,1-5.5,2.52A25.25,25.25,0,0,1,503.7,490.32ZM503.32,465a4.09,4.09,0,0,0-3.5,1.5,7.55,7.55,0,0,0-1.3,4.09l.05.15h8.56V470a6.59,6.59,0,0,0-.87-3.73A3.31,3.31,0,0,0,503.32,465Z"/><path d="M537.51,480.8a2.59,2.59,0,0,0-1.33-2.1,14.61,14.61,0,0,0-4.85-1.65c-3.69-.73-6.48-1.84-8.35-3.36a7.58,7.58,0,0,1-2.81-6.25,8.93,8.93,0,0,1,3.51-7.11q3.52-2.91,9.52-2.91,6.33,0,10.08,2.83a8.32,8.32,0,0,1,3.58,7.3l-.06.18h-9.61a3.89,3.89,0,0,0-.94-2.84,4.14,4.14,0,0,0-3.08-1,4,4,0,0,0-2.6.85,2.66,2.66,0,0,0-1.06,2.17,2.59,2.59,0,0,0,1.22,2.14,13.86,13.86,0,0,0,4.9,1.58q5.83,1.14,8.62,3.41A7.85,7.85,0,0,1,547,480.5a8.39,8.39,0,0,1-3.79,7.05q-3.79,2.77-10,2.77-6.47,0-10.24-3.28t-3.58-7.33l0-.17h9a4,4,0,0,0,1.36,3.25,6,6,0,0,0,3.71,1,4.91,4.91,0,0,0,3-.78A2.6,2.6,0,0,0,537.51,480.8Z"/><path d="M568.21,480.8a2.59,2.59,0,0,0-1.33-2.1,14.52,14.52,0,0,0-4.85-1.65c-3.69-.73-6.47-1.84-8.35-3.36a7.6,7.6,0,0,1-2.81-6.25,8.93,8.93,0,0,1,3.51-7.11q3.52-2.91,9.53-2.91,6.32,0,10.07,2.83a8.3,8.3,0,0,1,3.58,7.3l-.06.18h-9.61a3.89,3.89,0,0,0-.94-2.84,4.11,4.11,0,0,0-3.07-1,4.05,4.05,0,0,0-2.61.85,2.68,2.68,0,0,0-1.06,2.17,2.59,2.59,0,0,0,1.22,2.14,13.93,13.93,0,0,0,4.91,1.58c3.88.76,6.76,1.9,8.61,3.41a7.82,7.82,0,0,1,2.78,6.43,8.39,8.39,0,0,1-3.79,7.05q-3.8,2.77-10,2.77-6.48,0-10.24-3.28t-3.59-7.33l.06-.17h9a4,4,0,0,0,1.36,3.25,6,6,0,0,0,3.71,1,5,5,0,0,0,3-.78A2.62,2.62,0,0,0,568.21,480.8Z"/><path d="M592.76,450.65h-9.93V444h9.93Zm0,39.05h-9.93V458h9.93Z"/><path d="M597.51,473.56q0-7.15,4-11.64t11.28-4.5q7.27,0,11.31,4.5t4,11.64v.62q0,7.17-4,11.66t-11.25,4.48q-7.29,0-11.34-4.48t-4-11.66Zm9.9.62a13.09,13.09,0,0,0,1.25,6.25,4.43,4.43,0,0,0,4.23,2.27,4.38,4.38,0,0,0,4.16-2.28,13,13,0,0,0,1.26-6.24v-.62a13.07,13.07,0,0,0-1.26-6.2,4.41,4.41,0,0,0-4.22-2.32,4.35,4.35,0,0,0-4.17,2.34,13.17,13.17,0,0,0-1.25,6.18Z"/><path d="M641.66,458l.38,4.46a11.6,11.6,0,0,1,3.84-3.71,9.9,9.9,0,0,1,5.1-1.33,8.94,8.94,0,0,1,7.28,3.16q2.61,3.17,2.62,10.05V489.7H651V470.6a7.29,7.29,0,0,0-1-4.29A3.3,3.3,0,0,0,647.2,465a7,7,0,0,0-2.84.55,5.65,5.65,0,0,0-2.11,1.58V489.7h-9.88V458Z"/><path d="M682.79,480.8a2.59,2.59,0,0,0-1.33-2.1,14.52,14.52,0,0,0-4.85-1.65c-3.69-.73-6.47-1.84-8.35-3.36a7.6,7.6,0,0,1-2.81-6.25,8.93,8.93,0,0,1,3.51-7.11q3.52-2.91,9.53-2.91,6.33,0,10.07,2.83a8.3,8.3,0,0,1,3.58,7.3l-.06.18h-9.61a3.89,3.89,0,0,0-.94-2.84,4.11,4.11,0,0,0-3.07-1,4.05,4.05,0,0,0-2.61.85,2.68,2.68,0,0,0-1.06,2.17,2.59,2.59,0,0,0,1.22,2.14,13.93,13.93,0,0,0,4.91,1.58c3.88.76,6.76,1.9,8.61,3.41a7.82,7.82,0,0,1,2.78,6.43,8.39,8.39,0,0,1-3.79,7.05q-3.79,2.77-10,2.77-6.48,0-10.24-3.28t-3.59-7.33l.06-.17h9a4,4,0,0,0,1.36,3.25,6,6,0,0,0,3.71,1,5,5,0,0,0,3-.78A2.62,2.62,0,0,0,682.79,480.8Z"/></g><g id="CareerPlaybook"><path d="M262.73,144.92h-6.28l-2.62,16h-7.78l2.62-16H240v-7.15h9.84l1.72-10.31h-8.63v-7.15h9.8l2.7-16.25h7.73l-2.65,16.25h6.29l2.69-16.25h7.78l-2.7,16.25h9v7.15H273.4l-1.72,10.31h8.94v7.15H270.51l-2.62,16h-7.77Zm-5.11-7.15h6.29l1.71-10.31h-6.28Z" style="fill:#da2222"/><path d="M333.24,141.76l.08.23q.15,9.73-5.49,14.75t-16,5q-10.56,0-16.94-6.45t-6.38-16.87V126.56q0-10.38,6.15-16.85t16.27-6.47q10.81,0,16.74,5t5.76,14.65l-.12.23H320.47q0-5.23-2.23-7.5c-1.48-1.51-3.92-2.26-7.3-2.26A7.73,7.73,0,0,0,304.1,117q-2.39,3.59-2.38,9.51v12q0,6,2.62,9.57a8.72,8.72,0,0,0,7.5,3.59q4.53,0,6.54-2.26t2-7.58Z" style="fill:#da2222"/><path d="M364.26,160.9a15.65,15.65,0,0,1-1.27-3,23,23,0,0,1-.8-3.51,16.18,16.18,0,0,1-4.24,5.37,10.23,10.23,0,0,1-6.58,2q-6.64,0-10.33-3.42t-3.7-9.32a11.27,11.27,0,0,1,4.73-9.7q4.73-3.42,14.34-3.42h5.43v-3a6,6,0,0,0-1.29-4.14,5,5,0,0,0-3.95-1.45,4.76,4.76,0,0,0-3.42,1.08,4.47,4.47,0,0,0-1.11,3.34l-12.81,0-.08-.23q-.27-5.79,4.82-9.67t13.46-3.89c5.24,0,9.47,1.3,12.72,3.91S375,128.12,375,133v15.94a32.33,32.33,0,0,0,.57,6.25,33.46,33.46,0,0,0,1.69,5.78Zm-9.3-8.56a8,8,0,0,0,4.28-1.13,6.54,6.54,0,0,0,2.6-2.69v-5.59h-5.32q-3.16,0-4.57,1.52a5.53,5.53,0,0,0-1.4,3.87,3.73,3.73,0,0,0,1.23,2.91A4.57,4.57,0,0,0,355,152.34Z" style="fill:#da2222"/><path d="M405.62,129.92l-4.29,0a7.3,7.3,0,0,0-3.71.84,5.15,5.15,0,0,0-2.15,2.37v27.85h-13.2V118.67h12.42l.47,6.21a12.64,12.64,0,0,1,3.51-5.15,7.7,7.7,0,0,1,5.12-1.84,9.57,9.57,0,0,1,1.6.12,12.17,12.17,0,0,1,1.49.35Z" style="fill:#da2222"/><path d="M428.48,161.76q-9.62,0-15.06-5.82A20.71,20.71,0,0,1,408,141.21v-1.48q0-9.69,5.14-15.78T428,117.89q8.55,0,13.26,5.12t4.71,14V144H421.72l-.08.23a8.24,8.24,0,0,0,2.46,5.37,8.58,8.58,0,0,0,6.17,2,27.13,27.13,0,0,0,6.31-.62,39.19,39.19,0,0,0,5.76-2l3.17,8.05a24.12,24.12,0,0,1-7.35,3.36A33.9,33.9,0,0,1,428.48,161.76ZM428,128.05a5.45,5.45,0,0,0-4.67,2,10.15,10.15,0,0,0-1.74,5.45l.08.19h11.41v-1a8.76,8.76,0,0,0-1.16-5A4.39,4.39,0,0,0,428,128.05Z" style="fill:#da2222"/><path d="M470.27,161.76q-9.6,0-15.06-5.82t-5.44-14.73v-1.48q0-9.69,5.13-15.78t14.87-6.06q8.55,0,13.26,5.12t4.7,14V144H463.52l-.08.23a8.24,8.24,0,0,0,2.46,5.37,8.58,8.58,0,0,0,6.17,2,27.13,27.13,0,0,0,6.31-.62,39.19,39.19,0,0,0,5.76-2L487.3,157a24.06,24.06,0,0,1-7.34,3.36A33.92,33.92,0,0,1,470.27,161.76Zm-.5-33.71a5.45,5.45,0,0,0-4.67,2,10.07,10.07,0,0,0-1.74,5.45l.08.19h11.4v-1a8.76,8.76,0,0,0-1.15-5A4.42,4.42,0,0,0,469.77,128.05Z" style="fill:#da2222"/><path d="M516.68,129.92l-4.3,0a7.3,7.3,0,0,0-3.71.84,5.21,5.21,0,0,0-2.15,2.37v27.85h-13.2V118.67h12.42l.47,6.21a12.75,12.75,0,0,1,3.52-5.15,7.66,7.66,0,0,1,5.11-1.84,9.7,9.7,0,0,1,1.61.12,12,12,0,0,1,1.48.35Z" style="fill:#da2222"/><path d="M535.51,141.45v19.49H522.3V104.06H544q10.13,0,16.06,5.16a18.41,18.41,0,0,1,0,27.09q-5.94,5.13-16.06,5.14Zm0-10.16H544q4.31,0,6.57-2.36a8.43,8.43,0,0,0,2.26-6.08,8.82,8.82,0,0,0-2.24-6.21q-2.25-2.42-6.59-2.42h-8.51Z" style="fill:#da2222"/><path d="M586.37,160.94H573.12V100h13.25Z" style="fill:#da2222"/><path d="M618.87,160.9a15.65,15.65,0,0,1-1.27-3,23,23,0,0,1-.8-3.51,16.18,16.18,0,0,1-4.24,5.37,10.25,10.25,0,0,1-6.58,2q-6.65,0-10.34-3.42A12.08,12.08,0,0,1,592,149a11.27,11.27,0,0,1,4.73-9.7q4.73-3.42,14.34-3.42h5.43v-3a6,6,0,0,0-1.29-4.14,5,5,0,0,0-3.95-1.45,4.76,4.76,0,0,0-3.42,1.08,4.47,4.47,0,0,0-1.11,3.34l-12.81,0-.08-.23q-.27-5.79,4.82-9.67t13.46-3.89q7.84,0,12.72,3.91T629.65,133v15.94a33.17,33.17,0,0,0,.56,6.25,34.42,34.42,0,0,0,1.7,5.78Zm-9.3-8.56a8,8,0,0,0,4.28-1.13,6.54,6.54,0,0,0,2.6-2.69v-5.59h-5.32q-3.17,0-4.57,1.52a5.48,5.48,0,0,0-1.4,3.87,3.73,3.73,0,0,0,1.23,2.91A4.57,4.57,0,0,0,609.57,152.34Z" style="fill:#da2222"/><path d="M652.66,142.3l0,.32h.23l7-24H674l-16.83,48.56a23.23,23.23,0,0,1-5,7.73q-3.09,3-9.81,3a14.46,14.46,0,0,1-2.81-.22c-.73-.14-1.87-.41-3.44-.8l1.61-9.41.82.17a3.31,3.31,0,0,0,.7.06,8.69,8.69,0,0,0,4.57-.92,5.47,5.47,0,0,0,2.15-2.75l1.05-2.73-14.61-42.74h14Z" style="fill:#da2222"/><path d="M716.56,140.7q0,9.66-4.14,15.35t-12.26,5.71a11.84,11.84,0,0,1-6-1.49,13.05,13.05,0,0,1-4.41-4.29l-.78,5H677.42V100h13.2v22.77a12.9,12.9,0,0,1,4.09-3.61,11,11,0,0,1,5.37-1.27q8.16,0,12.32,6t4.16,16Zm-13.16-.82a21.67,21.67,0,0,0-1.41-8.73,5.22,5.22,0,0,0-5.23-3.1,7.82,7.82,0,0,0-3.69.8,6,6,0,0,0-2.45,2.32V149a5.82,5.82,0,0,0,2.49,2,9.43,9.43,0,0,0,3.73.66q3.9,0,5.23-2.71t1.33-8.19Z" style="fill:#da2222"/><path d="M720.62,139.41q0-9.53,5.4-15.52t15-6q9.69,0,15.08,6t5.39,15.52v.82q0,9.59-5.39,15.55t-15,6q-9.72,0-15.11-6t-5.4-15.55Zm13.21.82a17.39,17.39,0,0,0,1.66,8.34c1.1,2,3,3,5.64,3a5.83,5.83,0,0,0,5.55-3,17.3,17.3,0,0,0,1.68-8.32v-.82a17.4,17.4,0,0,0-1.68-8.26,5.89,5.89,0,0,0-5.63-3.1,5.79,5.79,0,0,0-5.56,3.12,17.56,17.56,0,0,0-1.66,8.24Z" style="fill:#da2222"/><path d="M765.59,139.41q0-9.53,5.39-15.52t15-6q9.68,0,15.07,6t5.39,15.52v.82q0,9.59-5.39,15.55t-15,6q-9.72,0-15.11-6t-5.39-15.55Zm13.2.82a17.39,17.39,0,0,0,1.66,8.34,5.91,5.91,0,0,0,5.64,3,5.83,5.83,0,0,0,5.55-3,17.3,17.3,0,0,0,1.68-8.32v-.82a17.4,17.4,0,0,0-1.68-8.26,5.87,5.87,0,0,0-5.62-3.1,5.81,5.81,0,0,0-5.57,3.12,17.56,17.56,0,0,0-1.66,8.24Z" style="fill:#da2222"/><path d="M827.89,144.14h-2.38v16.8H812.3V100h13.21v34.18h1.87l8.91-15.51h15.12l-13,19.06,15.15,23.21h-15Z" style="fill:#da2222"/></g><path d="M992.71,151.93c-7.76,3.07-15.51,6-23.42,8.53-8.11,2.62-16.33,4.89-24.59,6.94a493.86,493.86,0,0,1-49.88,9.16c-29.91,3.92-60,5.86-90.14,8.07a3.72,3.72,0,0,0-2.48,1,3.36,3.36,0,0,0-1,2.44,3.47,3.47,0,0,0,3.49,3.47c42.84-3.18,86-5.46,128.11-14.27,10.69-2.28,21.24-5,31.63-8.19a234.57,234.57,0,0,0,30.52-11.89,2.92,2.92,0,0,0,1.37-3.24,3,3,0,0,0-1.37-1.77,3.37,3.37,0,0,0-1.52-.4,2.57,2.57,0,0,0-.71.12Z" style="fill:#161616"/><path d="M800.78,189.92c-.66,23.27-1.62,46.59-2.48,69.86-.92,23.72-1.78,47.49-2.44,71.21s-.91,47.61-.76,71.39c.15,23.49.81,47,2.28,70.42.46,6.65.92,13.37,1.47,20a4.32,4.32,0,0,0,1.22,2.9,4.2,4.2,0,0,0,5.88,0,3.92,3.92,0,0,0,1.22-2.9c-2.59-23.21-4.06-46.53-4.92-69.85-.86-23.72-1.06-47.5-.81-71.22.51-47.32,2.63-94.53,4.26-141.8.2-6.66.45-13.37.66-20a2.8,2.8,0,0,0-2.79-2.73,2.83,2.83,0,0,0-2.79,2.73Z" style="fill:#161616"/><path d="M872.11,494.36a2.09,2.09,0,0,0-.56.05,2.09,2.09,0,0,1,.56-.05Zm90.18-25a1.37,1.37,0,0,1-.45.23,1.37,1.37,0,0,0,.45-.23Zm36.35-18.25a32.06,32.06,0,0,1-3.75,2.21l-4,2.22c-2.94,1.65-5.93,3.25-8.92,4.78-6.33,3.3-12.82,6.2-19.41,8.93a364,364,0,0,1-90,25c-16.52,2.16-33.41,3-50,.85a101,101,0,0,1-16.48-3.64,3.84,3.84,0,1,0-2.08,7.4,120.54,120.54,0,0,0,25.81,4.83,199.72,199.72,0,0,0,29.65.29,300.2,300.2,0,0,0,32.65-3.64c10.95-1.82,21.85-4.1,32.6-6.89A297.64,297.64,0,0,0,969,478.26a206.42,206.42,0,0,0,18.61-9.39c2.79-1.59,5.47-3.24,8.11-5.06,1.42-1,2.84-2.05,4.21-3.13,1-.74,1.93-1.53,2.84-2.33.05,0,.05,0,.1-.06a4.41,4.41,0,0,0,1.93-2.44,4.09,4.09,0,0,0-2.94-5.12,3.76,3.76,0,0,0-1.17-.17,3.61,3.61,0,0,0-2.08.57Z" style="fill:#161616"/><path d="M1005.43,158.18c-1.67,53.53-2.73,107.06-3.85,160.58q-.69,31-1.32,61.89c-.15,10.47-.35,20.88-.45,31.34s-.16,20.88.3,31.29a4.28,4.28,0,0,0,4.21,4.21,4.18,4.18,0,0,0,3-1.26,4.4,4.4,0,0,0,1.27-3c.91-13.37,1.06-26.74,1.16-40.11s.1-26.79.1-40.21-.1-26.79-.1-40.16,0-26.79,0-40.21c.1-41.47.56-82.94,1.83-124.41a3.07,3.07,0,1,0-6.14,0Z" style="fill:#161616"/><path d="M1066.47,486.79s0,.06.1.06-.15-.06-.2-.12.05.06.1.06Zm-60.53-35.89a2.87,2.87,0,0,0,0,4.09c12.78,13,28.09,23.1,44.21,31.52a276.07,276.07,0,0,0,26,11.83c8.93,3.47,18,6.65,27.07,9.61,5.23,1.71,10.55,3.3,15.82,4.84,5.43,1.53,10.9,3,16.38,4.38,5.32,1.3,10.69,2.56,16.07,3.69,2.58.57,5.22,1.14,7.85,1.6,1.22.28,2.44.45,3.65.68,1.37.28,2.74.45,4.11.74a4.66,4.66,0,0,0,3.4-.46,4.34,4.34,0,0,0-1.07-8c-1-.23-2-.51-3-.8s-2-.51-3-.74c-2.08-.51-4.16-1-6.24-1.48-4.2-1-8.46-2-12.72-3-8.77-2-17.54-4-26.31-6.15-4.41-1.08-8.82-2.27-13.28-3.47s-8.82-2.44-13.23-3.86c-8.47-2.68-16.89-5.75-25.1-9.16a.7.7,0,0,1,.25.11,2.3,2.3,0,0,1-.35-.17l-.51-.17c.16.06.26.06.41.11A219.58,219.58,0,0,1,1044,476.1a169.18,169.18,0,0,1-20.33-13.2,132.79,132.79,0,0,1-13.63-12,2.74,2.74,0,0,0-2-.8,3.12,3.12,0,0,0-2.08.8" style="fill:#161616"/><path d="M1005.64,157.27a3.55,3.55,0,0,0-1,2.51,3.24,3.24,0,0,0,1,2.5,173.35,173.35,0,0,0,25.14,16.5,271.69,271.69,0,0,0,28.9,13.48,380.66,380.66,0,0,0,62.71,19.05c10,2.22,20.07,4,30.21,5.52,5.07.74,10.14,1.42,15.26,1.93,4.87.57,9.68.91,14.55,1.14a3.76,3.76,0,0,0,3.6-2.67,3.66,3.66,0,0,0-2.59-4.5c-4.81-1-9.58-1.87-14.39-2.67l-15.11-2.56c-10.55-1.88-21-3.81-31.53-6-21.4-4.44-42.64-9.9-63-17.63-2.13-.8-4.2-1.65-6.28-2.51h.05a188,188,0,0,1-40.91-23c-.51-.4-1-.74-1.47-1.14a3.9,3.9,0,0,0-2.54-1.08,3.74,3.74,0,0,0-2.58,1.08Z" style="fill:#161616"/><path d="M1180.53,220.47c2.23,47,2.74,94.14,2.23,141.24-.25,23.55-.81,47.1-1.47,70.65-.35,11.77-.71,23.54-1,35.32s-.66,23.43-.61,35.15v8.48a2.71,2.71,0,0,0,2.69,2.61,2.51,2.51,0,0,0,1.87-.79,2.79,2.79,0,0,0,.81-1.82c.56-5.86,1.17-11.72,1.58-17.58s.76-11.77,1.11-17.63q.91-17.58,1.47-35.27,1.14-35.32,1.32-70.65.45-70.64-2.43-141.29c-.16-2.79-.26-5.63-.41-8.42a3.58,3.58,0,0,0-7.15,0Z" style="fill:#161616"/><path d="M1123.55,189.41a2.85,2.85,0,0,1,.71.12,2.51,2.51,0,0,0-.71-.12ZM1010.66,156a2.91,2.91,0,0,0,1.06,4c14.8,8.7,30.67,15.7,46.74,21.73,8.72,3.24,17.54,6,26.46,8.59s18.2,4.66,27.43,6.42c7.2,1.43,14.4,2.51,21.7,3.42,6.84.79,13.73,1.36,20.63,1.65a180.5,180.5,0,0,0,19.87-.34c3.4-.23,6.79-.63,10.14-1.09,1.47-.22,2.89-.45,4.36-.74s3.09-.68,4.66-.91a3.67,3.67,0,0,0,2.59-4.55,3.59,3.59,0,0,0-1.67-2.16,6.11,6.11,0,0,1-.92-.4,4,4,0,0,0-1.82,0c-1.17.12-2.28.12-3.45.17l-3.9.18c-2.64.17-5.33.22-8,.34-5.73.11-11.41.11-17.14,0a340.88,340.88,0,0,1-34.77-2.73c-7.45-1-14.81-2.11-22.16-3.59s-14.7-3.13-22-4.95-14.19-4-21.24-6.31c-6.74-2.22-13.43-4.72-20-7.45l.76.34a220.74,220.74,0,0,1-25.4-12.63,2.62,2.62,0,0,0-1.42-.4,3,3,0,0,0-2.58,1.43Z" style="fill:#161616"/><path d="M1199.14,212c-.51,46.19-1.68,92.38-2.79,138.57-.56,23.09-1.17,46.19-1.52,69.28-.2,11.55-.36,23.09-.41,34.64s-.05,23.15.26,34.7c0,.46,0,.91,0,1.37a3,3,0,0,0,6,0c.4-11.55.46-23.1.56-34.65l.3-34.64q.3-34.63.71-69.28c.66-46.19,1.52-92.37,2.13-138.62V212a2.64,2.64,0,0,0-5.27,0Z" style="fill:#161616"/><path d="M1188.44,179.52c-.2,0-.35,0-.51,0,.16,0,.31,0,.51,0Zm.61-.12a1.19,1.19,0,0,1-.46.06,1.19,1.19,0,0,0,.46-.06Zm-172.21-25.2a2.68,2.68,0,0,0-1.72,1.31,2.86,2.86,0,0,0,1,3.93,316,316,0,0,0,46.74,17,394.38,394.38,0,0,0,54.9,11.21,296.13,296.13,0,0,0,44.21,2.79,182.66,182.66,0,0,0,21.54-1.6c3.2-.45,6.34-1,9.48-1.65,1.52-.28,3-.68,4.52-1.08,1.62-.39,3.19-1,4.81-1.48a3.64,3.64,0,0,0,2.59-4.43,3.68,3.68,0,0,0-4.51-2.5l-.77.17c-3.75.45-7.45,1.08-11.15,1.65a279.31,279.31,0,0,1-37.66,2.16,344.45,344.45,0,0,1-40.46-2.79h.1a406,406,0,0,1-45.27-8.65,290.74,290.74,0,0,1-39.59-12.85c-2.23-.91-4.41-1.88-6.59-2.9a3.34,3.34,0,0,0-1.47-.4,3.49,3.49,0,0,0-.71.11" style="fill:#161616"/><path d="M1102.67,168a1.1,1.1,0,0,1,.4.05,1.1,1.1,0,0,0-.4-.05Zm-73.16-17.52a2.89,2.89,0,0,0-1.31,1.65,2.79,2.79,0,0,0,.3,2.21,2.9,2.9,0,0,0,1.72,1.25q14.91,5.9,30.27,10.53c5.07,1.48,10.19,2.79,15.31,4s10.19,2.33,15.36,3.35c10.39,2.05,20.94,3.47,31.48,4.5s21,1.53,31.48,1.59c7.4,0,14.85-.23,22.26-.74,3.6-.23,7.19-.51,10.84-.91a115.36,115.36,0,0,0,11.66-1.76,3,3,0,0,0,2.29-2.9,3.14,3.14,0,0,0-3.05-3.08c-4-.11-8.16.12-12.21.29s-8.06.28-12.12.4c-8,.22-16.07.34-24.08.22a399.14,399.14,0,0,1-47.35-3.18c-5.78-.8-11.61-1.65-17.39-2.67-6-1.14-12-2.45-17.89-4a284.86,284.86,0,0,1-35.34-11.09,1.65,1.65,0,0,0-.71-.17,2.7,2.7,0,0,0-1.52.46" style="fill:#161616"/><path d="M1109.36,162h0Zm-68.49-17.81a2.66,2.66,0,0,0-1.93,3.3,2.36,2.36,0,0,0,1.27,1.59,197.75,197.75,0,0,0,22.86,8.82c8.11,2.62,16.38,4.72,24.69,6.54q12.85,2.73,26,4.44c8.87,1.19,17.84,2.1,26.76,2.79,10.45.74,20.89,1.08,31.38,1.08,5,0,10-.12,15.11-.34,4.72-.23,9.48-.52,14.14-1.2.16,0,.26-.06.36-.06a2.76,2.76,0,1,0,0-5.51,17.4,17.4,0,0,1-2.38-.06h-2.84c-1.78-.06-3.55-.06-5.38,0-3.8,0-7.6,0-11.4.06-7.71,0-15.46,0-23.17-.23a451.07,451.07,0,0,1-47.15-3.47c-21.19-2.85-42.27-7.45-62.05-15.64.21,0,.41.17.66.22-1.62-.62-3.24-1.36-4.81-2a3.13,3.13,0,0,0-1.42-.4,3,3,0,0,0-.66.11" style="fill:#161616"/><path d="M997.42,152.67a2.08,2.08,0,0,0,.21,1.65,2.52,2.52,0,0,0,1.31,1c2.49.85,5,1.71,7.51,2.62a2.31,2.31,0,0,0,2.74-1.6,2.11,2.11,0,0,0-.26-1.65,2.25,2.25,0,0,0-1.32-1l-7.5-2.56a2.07,2.07,0,0,0-.61-.06,2.26,2.26,0,0,0-2.08,1.6Z" style="fill:#161616"/><path d="M1036,140.61c-4,2.27-8,4.78-11.91,7.34s-7.71,5.23-11.46,8a3.24,3.24,0,0,0-1.37,1.76,2.76,2.76,0,0,0,.31,2.28,2.82,2.82,0,0,0,1.77,1.36,3.18,3.18,0,0,0,2.28-.28,137.74,137.74,0,0,1,11.61-7.74c4.06-2.39,8.21-4.49,12.42-6.54a3.53,3.53,0,0,0,1.68-2.1,3.45,3.45,0,0,0-.41-2.73,3.58,3.58,0,0,0-3.09-1.77,4.1,4.1,0,0,0-1.83.46Z" style="fill:#161616"/><path d="M1029.36,144a82.42,82.42,0,0,0-11.51,5.12c-3.7,1.88-7.3,3.81-10.9,5.8a3.85,3.85,0,0,0-1.41,5.29,4,4,0,0,0,5.37,1.37c3.4-1.82,6.79-3.64,10.29-5.35,3.7-1.82,7.45-3.47,11-5.57a3.62,3.62,0,0,0,1.67-4.1,3.76,3.76,0,0,0-3.49-2.73,3.3,3.3,0,0,0-1,.17Z" style="fill:#161616"/><path d="M1207.65,196.81c-.4,26.73-1.16,53.47-2,80.2s-1.93,53.47-2.59,80.2c-.4,16.56-.71,33.17-.76,49.78,0,8.24,0,16.55.1,24.85s.2,16.61.76,24.86a3.4,3.4,0,0,0,6.8,0c.35-6.65.45-13.37.65-20s.31-13.43.41-20.08c.25-13.37.51-26.74.71-40.1q.69-40.19,1.27-80.26.75-49.76,1.52-99.43a3.41,3.41,0,0,0-3.4-3.42,3.47,3.47,0,0,0-3.45,3.42Z" style="fill:#161616"/><path d="M1217,194.76c1,20.42,1.17,40.9.92,61.32s-1,41-1.83,61.49c-.76,19.28-1.72,38.51-2.43,57.79-.31,9.61-.61,19.23-.66,28.9a273.67,273.67,0,0,0,1.16,28.78,2.87,2.87,0,0,0,.87,2.1,3,3,0,0,0,4.2,0,3.18,3.18,0,0,0,.92-2.1c.81-10.18,1-20.42,1.16-30.66s.2-20.48.31-30.72c.2-20.48.6-41,1-61.49.66-38.45,1.12-77-.76-115.41a2.44,2.44,0,0,0-2.43-2.39,2.38,2.38,0,0,0-2.44,2.39Z" style="fill:#161616"/><path d="M1211.51,480.7c-12,9.11-20.69,21.56-31.59,31.69a3.21,3.21,0,0,0,0,4.55,3.31,3.31,0,0,0,4.57,0c5.22-4.84,10.09-10,15-15.13,2.59-2.62,5.17-5.18,7.86-7.68a101.24,101.24,0,0,1,8-6.71c0-.06.1-.06.1-.12l.81-.57a3.66,3.66,0,0,0,1-1.7,3.68,3.68,0,0,0-2.68-4.67,3.7,3.7,0,0,0-1.12-.17,3.45,3.45,0,0,0-1.87.51Z" style="fill:#161616"/><path d="M1207.55,471.89c-.2,4.26-.35,8.53-.5,12.85a1.74,1.74,0,0,0,1.67,1.65,1.67,1.67,0,0,0,1.67-1.65c.15-4.32.36-8.59.71-12.85a1.78,1.78,0,0,0-3.55,0Z" style="fill:#161616"/><path d="M1212.57,417.79c0,5.52.31,11,.51,16.5s.4,11.2.51,16.78c.25,11.09.05,22.18-.46,33.22a1.92,1.92,0,0,0,1.93,1.93,2,2,0,0,0,2-1.93c.51-11,1-22.13,1.32-33.22s.41-22.24-1-33.28c-.05-.17-.05-.39-.1-.62a2.22,2.22,0,0,0-.61-1,2.43,2.43,0,0,0-4.11,1.65Z" style="fill:#161616"/><path d="M1214.8,418.08c.66,10.12,1.42,20.19,1.68,30.32.15,5.12.1,10.23-.11,15.35-.1,2.62-.2,5.24-.35,7.85s-.41,5.24-.46,7.8a3.45,3.45,0,0,0,2.49,3.24,3.42,3.42,0,0,0,4.15-2.33,77.43,77.43,0,0,0,1.32-15.36c0-5.29-.25-10.64-.56-15.93-.6-10.29-1.57-20.65-2.28-30.94a3.31,3.31,0,0,0-.86-2.05,2.95,2.95,0,0,0-5,2.05Z" style="fill:#161616"/><path d="M1218.2,180.08a34.9,34.9,0,0,0-5.37,3.59,54.14,54.14,0,0,0-4.77,4c-3.19,2.9-6.24,6-9.23,9.1-5.88,6.08-11.45,12.45-17.44,18.48a2.52,2.52,0,0,0,0,3.53,2.59,2.59,0,0,0,3.6,0c5.94-5.86,11.61-11.89,17.49-17.75,3-2.95,6-5.8,9.13-8.53,1.57-1.36,3.19-2.67,4.76-4,1.73-1.42,3.5-2.79,5.07-4.32a2.68,2.68,0,0,0-1.16-4.44,2.69,2.69,0,0,0-.66-.06,3.19,3.19,0,0,0-1.42.34Z" style="fill:#161616"/><path d="M1226.26,178.15c-1.42,43,.15,86,1.27,129,.55,21.56.91,43.11.86,64.73-.1,21.44-.91,42.83-2.23,64.22-.41,6.14-.86,12.29-1.27,18.49a2.4,2.4,0,0,0,1.83,2.33,2.52,2.52,0,0,0,3.09-1.71c1.92-10.52,3.14-21.22,4.1-31.91s1.47-21.39,1.83-32.08c.76-21.56.56-43.12,0-64.62-1-43.11-3.35-86.17-2.94-129.29.1-6.37.2-12.8.46-19.17a3.53,3.53,0,0,0-7,0Z" style="fill:#161616"/><path d="M997.53,154a3.62,3.62,0,0,0-1.63,2.11,3.5,3.5,0,0,0,.36,2.67,3.69,3.69,0,0,0,2.13,1.59,70.19,70.19,0,0,0,9.48,3.25,3.52,3.52,0,0,0,4.2-2.34,3.31,3.31,0,0,0-.35-2.61,3.46,3.46,0,0,0-2-1.54c-3.14-1.19-6.33-2.22-9.43-3.47a2.16,2.16,0,0,0-.86-.17,4.07,4.07,0,0,0-1.87.51Z" style="fill:#161616"/><path d="M1000.26,156.42a4.21,4.21,0,0,0-.76.29,26.56,26.56,0,0,0-4.36.68c-1.62.4-3.24.85-4.86,1.31-3.35.91-6.64,1.87-9.94,2.9-7.25,2.22-14.45,4.49-21.7,6.65-15.92,4.84-31.93,9.5-48.11,13.37a406.51,406.51,0,0,1-41.31,8c-15.77,2.05-31.89,3.07-47.76,1.08a95,95,0,0,1-11.35-2.27,2.64,2.64,0,0,0-3.2,1.82,2.51,2.51,0,0,0,1.78,3.12,119,119,0,0,0,19.52,3.3,186.29,186.29,0,0,0,21.9.63c16.47-.34,32.85-2.33,49.17-4.84,4.21-.68,8.41-1.42,12.57-2.21s8.42-1.65,12.57-2.51c8.22-1.76,16.33-3.69,24.44-5.86,7.65-2.1,15.26-4.32,22.81-6.82,7.1-2.33,14.09-4.84,20.94-7.79,1.67-.69,3.34-1.48,5-2.28a25.4,25.4,0,0,0,4.1-2.45,1,1,0,0,1,.26-.11,3.46,3.46,0,0,0,1.92-1.48,3.24,3.24,0,0,0,.31-2.39,3.07,3.07,0,0,0-1.47-1.87,3.18,3.18,0,0,0-1.63-.46,2,2,0,0,0-.81.17Z" style="fill:#161616"/><path d="M1026.37,192.43l.1.11-.1-.11Zm-2.84-.29a1.53,1.53,0,0,0-.51,1.2,1.65,1.65,0,0,0,.51,1.25,52.49,52.49,0,0,0,19.47,10,2,2,0,0,0,2.33-1.31A1.94,1.94,0,0,0,1044,201a59.36,59.36,0,0,1-7-2.39,49.31,49.31,0,0,1-10.5-6c-.15-.11-.35-.28-.55-.4a1.9,1.9,0,0,0-1.22-.51,1.64,1.64,0,0,0-1.22.51Z" style="fill:#161616"/><path d="M1020.54,199.65a2.15,2.15,0,0,0,.76,2.9c3.09,1.6,6.24,3.19,9.33,4.72,3.29,1.6,6.64,3.25,10,4.5a2,2,0,0,0,2.33-.91,2.05,2.05,0,0,0-.71-2.79c-3.14-1.59-6.34-3-9.48-4.44s-6.24-3.13-9.33-4.72a2.5,2.5,0,0,0-1.11-.28,2.11,2.11,0,0,0-1.83,1Z" style="fill:#161616"/><path d="M1023.94,206.31a1.94,1.94,0,0,0-1.12.85,1.74,1.74,0,0,0-.15,1.42,1.68,1.68,0,0,0,.81,1.08c4.61,2,9.13,4.1,13.74,6a1.59,1.59,0,0,0,1,0,1.72,1.72,0,0,0,1.17-.86,2.15,2.15,0,0,0,.2-1.48,1.83,1.83,0,0,0-.91-1.08c-2.13-1-4.31-1.87-6.49-2.78s-4.56-1.94-6.84-3a2.61,2.61,0,0,0-1-.23,1.17,1.17,0,0,0-.45.06Z" style="fill:#161616"/><path d="M1019.88,214a2.48,2.48,0,0,0,.86,3.35,95.06,95.06,0,0,0,9,4.89,69.33,69.33,0,0,0,10.14,3.93,2.59,2.59,0,0,0,3.09-1.71,2.68,2.68,0,0,0-.26-1.88,2.46,2.46,0,0,0-1.52-1.13c-2.38-.86-4.76-1.71-7.09-2.68a77.46,77.46,0,0,1-10.9-5.63,2.56,2.56,0,0,0-1.22-.34,2.46,2.46,0,0,0-2.13,1.2Z" style="fill:#161616"/><path d="M1019.43,222.57a1.37,1.37,0,0,0,.5,1.94,175.45,175.45,0,0,0,19,8.42,1.5,1.5,0,0,0,1.22-.12,1.91,1.91,0,0,0,.76-1,1.46,1.46,0,0,0-.2-1.2,1.58,1.58,0,0,0-.92-.74c-2.83-1-5.62-2.1-8.41-3.24.05.06.15.06.2.11-3.45-1.47-6.84-3-10.19-4.72a1.49,1.49,0,0,0-.71-.17,1.34,1.34,0,0,0-1.21.68Z" style="fill:#161616"/><path d="M1084.26,215.92s0,.06,0,.06a.77.77,0,0,0-.25-.12s.1.06.2.06Zm-19.62-7.74a2,2,0,0,0,.71,2.79,153.31,153.31,0,0,0,34.43,15.19c6.08,1.93,12.26,3.58,18.45,5.12s12.37,2.79,18.65,3.92c2.44.4,4.92.86,7.41,1.2,2.68.4,5.32.74,8,1a2.21,2.21,0,0,0,2.18-1.59,2.29,2.29,0,0,0-1.58-2.79c-1.31-.28-2.63-.62-4-.91l-4.36-.85c-3-.51-5.93-1.08-8.92-1.59-5.88-1.08-11.76-2.16-17.64-3.41A194.82,194.82,0,0,1,1084.31,216h.11a.18.18,0,0,1-.16-.06c-.15-.06-.25-.06-.35-.11a.18.18,0,0,1,.15.05,136.45,136.45,0,0,1-16.63-8.42,1.67,1.67,0,0,0-1-.28,2,2,0,0,0-1.78,1Z" style="fill:#161616"/><path d="M1065.71,219.67a2.24,2.24,0,0,0-1.12.86,1.78,1.78,0,0,0,.66,2.5c10.55,5.06,21.09,10.07,31.94,14.39a172.14,172.14,0,0,0,33.41,10.07,11.19,11.19,0,0,1,1.37.23,2.14,2.14,0,0,0,1.42-.23,1.62,1.62,0,0,0,.86-1.08,1.9,1.9,0,0,0-1.27-2.28,161.2,161.2,0,0,1-19.92-5c-6.69-2.11-13.23-4.61-19.72-7.28l.45.17c-9-3.76-17.84-7.91-26.66-12.12a2.1,2.1,0,0,0-1-.28c-.16,0-.31,0-.46,0Z" style="fill:#161616"/><path d="M1060.84,228.89a1.92,1.92,0,0,0,.71,2.62c5.73,3,11.61,5.63,17.59,8.13l9,3.58c3.09,1.25,6.23,2.51,9.38,3.64a2.23,2.23,0,0,0,2.63-1.48,2.14,2.14,0,0,0-.25-1.65,2.33,2.33,0,0,0-1.27-1c-3.55-1.42-7.2-2.68-10.85-4s-7.1-2.73-10.64-4.21c-4.62-1.93-9.18-4-13.64-6.31a2,2,0,0,0-1-.23,1.88,1.88,0,0,0-1.68.91Z" style="fill:#161616"/><path d="M1081.42,246.18h.11s-.16-.06-.21-.06l.1.06Zm-25.9-13.42a2,2,0,0,0-1.27,1,2,2,0,0,0,.76,2.9c10.19,7.29,21.65,12.75,33.46,17.07a263.4,263.4,0,0,0,37.21,10.24c5.78,1.19,11.56,2.27,17.39,3h.2a2.53,2.53,0,0,0,1.83-.22,2.18,2.18,0,0,0,1.11-1.43,2.36,2.36,0,0,0-.25-1.82,2.64,2.64,0,0,0-1.42-1.08L1137,261c-2.74-.51-5.43-1-8.11-1.48-5.43-1-10.8-2.16-16.18-3.47a213.83,213.83,0,0,1-31.17-9.9.14.14,0,0,0,.1.06c-.05,0-.15-.06-.21-.06l-.3-.17c.05.06.15.06.2.11A129.11,129.11,0,0,1,1057.14,233a1.58,1.58,0,0,0-1-.28,1.76,1.76,0,0,0-.61.06Z" style="fill:#161616"/><path d="M1060.34,248.11a1.6,1.6,0,0,0-1,.8,1.54,1.54,0,0,0-.2,1.25,1.73,1.73,0,0,0,.76,1c4,1.82,8,3.47,12.07,5.06s8.11,3,12.26,4.21a1.8,1.8,0,0,0,2.13-1.19,1.68,1.68,0,0,0-1.21-2.11c-3.2-1-6.39-2.05-9.53-3.13s-6.29-2.33-9.38-3.64l0,.06c-1.57-.68-3.15-1.37-4.72-2.1a2,2,0,0,0-.86-.23c-.1,0-.25.05-.4.05Z" style="fill:#161616"/><path d="M1023.13,258.52a2.12,2.12,0,0,0-.21,1.48,2.32,2.32,0,0,0,.92,1.2,96.91,96.91,0,0,0,12.42,7.34,140.57,140.57,0,0,0,13.58,5.57c4.56,1.65,9.23,3,13.89,4.32s9.53,2.56,14.35,3.59a2.67,2.67,0,0,0,1.87-.29,2.53,2.53,0,0,0,1.17-1.42,2.48,2.48,0,0,0-1.72-3c-6.24-1.71-12.58-3-18.86-4.61a136.5,136.5,0,0,1-18.25-5.86,85.89,85.89,0,0,1-16.43-9.05,1.89,1.89,0,0,0-1-.28,2.07,2.07,0,0,0-1.77,1Z" style="fill:#161616"/><path d="M1020,268.65a1.35,1.35,0,0,0,.51,1.88,560.34,560.34,0,0,0,64,26c9.93,3.3,20,6.32,30.06,9.16,5,1.36,10,2.67,15,4s10.3,2.56,15.47,3.47a2.4,2.4,0,0,0,1.77-.23,2.23,2.23,0,0,0,1.06-1.36,2.31,2.31,0,0,0-1.62-2.79c-5.57-1.31-11.2-2.45-16.83-3.75s-11.2-2.62-16.78-4c-11.15-3-22.15-6.2-33.1-9.84q-18.86-6.15-37.21-13.82a1.63,1.63,0,0,1,.35.17c-7-3-13.94-6-20.78-9.28a1.68,1.68,0,0,0-.71-.17,1.4,1.4,0,0,0-1.17.63Z" style="fill:#161616"/><path d="M1019.83,278.72a2.09,2.09,0,0,0-1.22.91,2,2,0,0,0-.2,1.59,2.25,2.25,0,0,0,.91,1.19,172.06,172.06,0,0,0,28.09,16.22c5,2.27,10.14,4.38,15.26,6.31a145.9,145.9,0,0,0,15.46,5,2.37,2.37,0,1,0,1.27-4.56c-4.41-1.42-8.82-2.67-13.18-4.15s-8.77-3.13-13.08-4.89a2.15,2.15,0,0,1,.55.23,167.84,167.84,0,0,1-32.29-17.64,1.67,1.67,0,0,0-1-.28,1.63,1.63,0,0,0-.56.06Z" style="fill:#161616"/><path d="M1046,302.44a.18.18,0,0,1,.15.05.18.18,0,0,0-.15-.05Zm-20.18-9a1.57,1.57,0,0,0-.2,1.25,1.75,1.75,0,0,0,.76,1,104.37,104.37,0,0,0,16.53,9.1c2.94,1.31,5.88,2.56,8.87,3.7s5.93,2.27,8.92,3.24a1.81,1.81,0,0,0,2.23-1.25,1.66,1.66,0,0,0-.2-1.37,1.84,1.84,0,0,0-1.07-.85l-7.75-2.73c-2.54-.91-5-1.88-7.5-3a99.39,99.39,0,0,1-18.31-9.73,1.44,1.44,0,0,0-.81-.22,1.69,1.69,0,0,0-1.47.85Z" style="fill:#161616"/><path d="M1039,310.8Zm-19.36-7.57a2.08,2.08,0,0,0,.76,2.79,136.2,136.2,0,0,0,21.09,10.47c3.7,1.48,7.4,2.9,11.1,4.38s7.4,2.9,11.1,4.32a2.48,2.48,0,0,0,1.27,0,2.4,2.4,0,0,0,1.42-1.08,2.18,2.18,0,0,0,.2-1.76,2.41,2.41,0,0,0-1.06-1.43c-4.46-1.87-9-3.47-13.54-5.17-4.36-1.6-8.67-3.19-13-4.95l.11.06c0-.06-.06-.06-.11-.06s-.15-.06-.2-.12l.15.12a117.07,117.07,0,0,1-16.47-8.31,1.7,1.7,0,0,0-1-.28,2.23,2.23,0,0,0-1.82,1Z" style="fill:#161616"/><path d="M1072.15,325.59a2.3,2.3,0,0,0,.81,3.13,39.59,39.59,0,0,0,11.61,4.95,2.12,2.12,0,0,0,2.58-1.48,2,2,0,0,0-.2-1.6,2.05,2.05,0,0,0-1.27-1c-1.16-.4-2.28-.86-3.44-1.31a53.78,53.78,0,0,1-6.9-3.59,2.17,2.17,0,0,0-1.11-.34,2.36,2.36,0,0,0-2.08,1.2Z" style="fill:#161616"/><path d="M1099.62,332.7a2,2,0,0,0-1.31,1,2.21,2.21,0,0,0-.26,1.7,2.1,2.1,0,0,0,1,1.31,130.48,130.48,0,0,0,14,4.83c4.76,1.31,9.58,2.39,14.45,3.36s9.78,1.76,14.7,2.56,9.63,1.59,14.5,2.33a2.08,2.08,0,0,0,1.42-.22,2,2,0,0,0,.86-1.09,1.88,1.88,0,0,0-1.32-2.21c-4.56-1.2-9.28-2.11-13.94-3-4.92-.91-9.79-1.77-14.65-2.68-9.53-1.87-19-4.09-28-7.79h.06a.79.79,0,0,1-.36-.11,2.2,2.2,0,0,0-.61-.12,1.64,1.64,0,0,0-.56.12Z" style="fill:#161616"/><path d="M1041.73,324.45a2.45,2.45,0,0,0-.56,4.49,268.08,268.08,0,0,0,28.44,11.78c4.87,1.7,9.74,3.35,14.65,4.83s9.74,3,14.71,4.16a2.47,2.47,0,0,0,2.94-1.65,2.4,2.4,0,0,0-1.68-2.9c-3.8-1.31-7.65-2.45-11.45-3.59s-7.71-2.44-11.56-3.7c-7.71-2.56-15.36-5.29-22.87-8.41-3.6-1.48-7.14-3.08-10.69-4.78a3.29,3.29,0,0,0-1.27-.34,2.92,2.92,0,0,0-.66.11Z" style="fill:#161616"/><path d="M1117.72,352a1.53,1.53,0,0,0-.71.91,1.63,1.63,0,0,0,.15,1.19,1.82,1.82,0,0,0,.92.69,75.74,75.74,0,0,0,11,3.24,1.57,1.57,0,0,0,1.87-1,1.46,1.46,0,0,0-1.06-1.82,93,93,0,0,1-11-3.35c-.1,0-.26-.06-.41-.06a1.65,1.65,0,0,0-.76.23Z" style="fill:#161616"/><path d="M1146.82,359.83a2.58,2.58,0,0,0,1.78,3.19c1.52.34,3,.68,4.51,1a2.57,2.57,0,0,0,1.37-5l-4.47-1a2.39,2.39,0,0,0-.65-.06,2.54,2.54,0,0,0-2.54,1.88Z" style="fill:#161616"/><path d="M1021.86,326.5a.9.9,0,0,0,.3,1.14,120.46,120.46,0,0,0,19.62,9.78c6.85,2.73,13.89,5,20.89,7.34,3.5,1.13,7,2.33,10.49,3.52s7,2.45,10.55,3.7a2.1,2.1,0,0,0,1.31-.17,2,2,0,0,0,.82-1,1.68,1.68,0,0,0-.21-1.31,1.55,1.55,0,0,0-1-.74c-3.45-1.25-6.95-2.33-10.44-3.36s-7-2.05-10.6-3c-7.1-2.05-14.19-4.15-21.09-6.77-1.62-.63-3.24-1.25-4.87-1.93.06.05.16.05.21.11a103.27,103.27,0,0,1-14.81-7.57.87.87,0,0,0-1.16.29Z" style="fill:#161616"/><path d="M1099.07,357.21a1.8,1.8,0,0,0,1.26,2.22q12.78,4.27,25.86,8c8.67,2.39,17.44,4.66,26.26,6.31a2.06,2.06,0,0,0,1.52-.17,2.31,2.31,0,0,0,.86-1.14,1.9,1.9,0,0,0-1.32-2.33c-4.41-1-8.82-2-13.23-3s-8.72-2.16-13.08-3.35c-8.72-2.33-17.34-4.95-25.9-7.79a1.35,1.35,0,0,0-.51-.06,1.84,1.84,0,0,0-1.72,1.36Z" style="fill:#161616"/><path d="M1017.85,333a1.41,1.41,0,0,0-1,1.76,1.68,1.68,0,0,0,.66.86c6.64,2.9,13.43,5.51,20.28,8,3.34,1.25,6.74,2.44,10.09,3.75s6.84,2.62,10.24,4a1.2,1.2,0,0,0,.91,0,1.67,1.67,0,0,0,1-.74,1.57,1.57,0,0,0,.2-1.25,1.62,1.62,0,0,0-.76-1c-6.28-2.68-12.72-4.84-19.11-7.11s-12.93-4.55-19.26-7.23c.15.06.25.12.35.17-.81-.34-1.62-.68-2.48-1.08a3.52,3.52,0,0,0-.76-.17.59.59,0,0,0-.31.06Z" style="fill:#161616"/><path d="M1067.43,352.78a2,2,0,0,0-1.42,2.39,1.77,1.77,0,0,0,.92,1.19c5.83,2.62,11.71,5.06,17.74,7.23a2,2,0,0,0,2.43-1.37,2.07,2.07,0,0,0-.2-1.54,1.79,1.79,0,0,0-1.17-.91c-3.8-1.47-7.6-2.9-11.4-4.49-1.78-.74-3.6-1.54-5.38-2.33a2.48,2.48,0,0,0-1.06-.29,1.36,1.36,0,0,0-.46.12Z" style="fill:#161616"/><path d="M1096.18,366.83a2.15,2.15,0,0,0,.2,1.59,2.46,2.46,0,0,0,1.32,1,169,169,0,0,0,26.41,7.34,2,2,0,0,0,1.52-.17,2.3,2.3,0,0,0,1-1.19,2,2,0,0,0-1.42-2.45c-8.87-2.33-17.69-4.66-26.36-7.68a1.57,1.57,0,0,0-.55-.06,2.24,2.24,0,0,0-2.08,1.6Z" style="fill:#161616"/><path d="M1134.65,377.92a2.45,2.45,0,0,0,1.68,2.9,248.68,248.68,0,0,0,26.61,6.2,2.31,2.31,0,0,0,2.84-1.59,2.31,2.31,0,0,0-1.62-2.79c-4.46-1-8.92-1.93-13.33-3s-8.88-2.16-13.24-3.35a2.13,2.13,0,0,0-.6-.12,2.44,2.44,0,0,0-2.34,1.71Z" style="fill:#161616"/><path d="M1016.94,345.89a2.12,2.12,0,0,0,.76,3c11.31,5.75,22.66,11.38,34.22,16.56,5.88,2.61,11.81,5.11,17.79,7.45,5.83,2.27,11.77,4.49,17.85,6.2a2.34,2.34,0,0,0,2.84-1.6,2.29,2.29,0,0,0-1.62-2.78c-4.57-1.6-9.13-3.13-13.69-4.78s-9.13-3.53-13.59-5.4c-14.14-5.86-27.93-12.52-41.57-19.34a2,2,0,0,0-1.11-.29,2.14,2.14,0,0,0-1.88,1Z" style="fill:#161616"/><path d="M1104.85,384.12a2.33,2.33,0,0,0,1.57,2.73c6.69,2.22,13.38,4.49,20.07,6.65,3.4,1.14,6.85,2.22,10.29,3.19s6.9,2,10.4,2.79a2,2,0,0,0,2.33-1.31,1.93,1.93,0,0,0-1.32-2.28c-3.3-1.08-6.59-2.1-9.89-3.18s-6.84-2.16-10.24-3.3c-6.84-2.28-13.63-4.61-20.43-6.83a1.17,1.17,0,0,0-.6-.11,2.34,2.34,0,0,0-2.18,1.65Z" style="fill:#161616"/><path d="M1019.83,362.22a1,1,0,0,0,.41,1.42,433.89,433.89,0,0,0,46.94,19.8c4.21,1.53,8.47,3,12.72,4.38a1.58,1.58,0,0,0,2-1.08,1.54,1.54,0,0,0-1.11-1.94c-3.4-1.08-6.8-2.1-10.19-3.18s-6.75-2.28-10.14-3.47c-6.8-2.39-13.54-5-20.18-7.8a.35.35,0,0,0,.25.12c-6.48-2.68-12.92-5.58-19.21-8.65a1.1,1.1,0,0,0-.56-.11.94.94,0,0,0-.91.51Z" style="fill:#161616"/><path d="M1027.44,373.77a1.5,1.5,0,0,0-1.12.85,1.74,1.74,0,0,0-.2,1.42,1.57,1.57,0,0,0,.86,1.08c4.71,2.11,9.53,4,14.35,5.92,2.38.91,4.71,1.82,7,2.73s4.87,2,7.3,2.9a1.9,1.9,0,0,0,2.13-.85,1.81,1.81,0,0,0,.15-1.37,1.7,1.7,0,0,0-.86-1.14c-4-1.76-8.26-3.35-12.42-5s-8.46-3.24-12.62-5l.45.17-3.65-1.53a2.1,2.1,0,0,0-1-.23,1.17,1.17,0,0,0-.45.06Z" style="fill:#161616"/><path d="M1021.15,380.42a1.83,1.83,0,0,0,.71,2.56c11.41,5.63,23,10.87,34.88,15.53a328.83,328.83,0,0,0,35.84,11.83c4.61,1.2,9.33,2.33,14,3.36,4.92,1,9.89,2,15,2.56a2.53,2.53,0,0,0,1.07-.29,2.22,2.22,0,0,0,1-1.25,2.12,2.12,0,0,0-1.47-2.62c-3.14-.62-6.28-1.19-9.43-1.82s-6.23-1.3-9.32-2c-6.19-1.36-12.27-3-18.36-4.66a357,357,0,0,1-35.63-12.34c-1-.46-2-.86-3-1.25-7.65-3.25-15.2-6.6-22.66-10.24a2.05,2.05,0,0,0-1-.29,1.9,1.9,0,0,0-1.62.91Z" style="fill:#161616"/><path d="M1133.29,417a1.92,1.92,0,0,0-.87,1.08,1.87,1.87,0,0,0,1.32,2.27c6.44,1.2,12.83,2.73,19.16,4.44a1.79,1.79,0,0,0,2.18-1.25,1.74,1.74,0,0,0-1.26-2.11,171,171,0,0,0-19.12-4.6,1.58,1.58,0,0,0-.5-.06,1.79,1.79,0,0,0-.91.23Z" style="fill:#161616"/><path d="M1161,424.79a1.32,1.32,0,0,0,.91,1.59l4.56,1.54a1.29,1.29,0,0,0,.66-2.5l-4.51-1.54a.76.76,0,0,0-.36-.06,1.34,1.34,0,0,0-1.26,1Z" style="fill:#161616"/><path d="M1020.74,392.65a1.64,1.64,0,0,0,.61,2.28,191.2,191.2,0,0,0,28.8,14.5c5,2.05,10.08,3.93,15.2,5.75s10.19,3.41,15.42,4.66a2.48,2.48,0,1,0,1.31-4.78c-6.23-1.7-12.47-3.35-18.65-5.29q-9.51-3.06-18.71-6.88c0,.06.15.06.26.11a158.39,158.39,0,0,1-22-11,1.82,1.82,0,0,0-.81-.23,1.75,1.75,0,0,0-1.47.85Z" style="fill:#161616"/><path d="M1101.25,422.06h0s-.1-.06-.16-.06.11.06.16.06Zm-3.4-1.2a1.3,1.3,0,0,0-.71.57,1.14,1.14,0,0,0,.41,1.6,146.31,146.31,0,0,0,19.87,7.16c6.79,1.94,13.69,3.42,20.58,4.84a1.49,1.49,0,0,0,1.12-.12,1.54,1.54,0,0,0,.71-.91,1.51,1.51,0,0,0-1.07-1.82c-6.39-1.25-12.83-2.61-19.16-4.2a137.23,137.23,0,0,1-18.35-5.92h0c-.1-.06-.21-.06-.31-.11s.1.05.15.05l-2.33-1a2.13,2.13,0,0,0-.66-.17,2.17,2.17,0,0,1-.25.05Z" style="fill:#161616"/><path d="M1039.2,414.49c.1.06.2.06.25.12s-.15-.06-.25-.12Zm-22.61-9.55a1.67,1.67,0,0,0-1.07.85,1.78,1.78,0,0,0,.66,2.45,573.62,573.62,0,0,0,73.15,28.84q13.15,4.1,26.57,7.45a269.35,269.35,0,0,0,26.92,5.4,2.1,2.1,0,0,0,1.57-.17,2.26,2.26,0,0,0,1-1.25,2,2,0,0,0-1.47-2.5c-6.34-1.37-12.72-2.68-19.11-4.1s-12.78-3-19.06-4.66c-12.73-3.42-25.3-7.34-37.72-11.66-9.78-3.47-19.42-7.17-29-11.21,0,.06,0,.06,0,.06-7.09-3-14.09-6.09-21-9.33a2.61,2.61,0,0,0-1-.23,1.17,1.17,0,0,0-.45.06Z" style="fill:#161616"/><path d="M1013.24,416.54a1.11,1.11,0,0,0-.15,1,1.19,1.19,0,0,0,.61.74,229.7,229.7,0,0,0,21.8,13.25c7.6,4,15.36,7.68,23.32,11a431.49,431.49,0,0,0,48.81,17c3,.91,6,1.71,9.08,2.51a1.66,1.66,0,0,0,2-1.08,1.63,1.63,0,0,0-1.12-1.94c-4.06-1.19-8.16-2.33-12.22-3.52s-8.21-2.45-12.32-3.76c-8.21-2.61-16.37-5.4-24.43-8.47-3.3-1.26-6.59-2.56-9.84-3.93a2,2,0,0,0,.36.17A251.46,251.46,0,0,1,1015,416.09a1.14,1.14,0,0,0-.6-.17,1.24,1.24,0,0,0-1.12.62Z" style="fill:#161616"/><path d="M1018.41,432a2,2,0,0,0,.71,2.73c9.08,4.84,18.4,9.28,27.83,13.54,4.67,2.11,9.43,4.15,14.15,6.2,4.91,2.11,9.83,4.21,14.75,6.2a1.91,1.91,0,0,0,1.16,0,2,2,0,0,0,1.27-1,1.92,1.92,0,0,0,.2-1.6,2,2,0,0,0-1-1.31c-4.71-2-9.48-4-14.24-6s-9.53-4-14.25-6.08c-9.43-4.15-18.76-8.59-27.88-13.43a2.13,2.13,0,0,0-1-.28,2,2,0,0,0-1.73,1Z" style="fill:#161616"/><path d="M1026.83,446.18a1.87,1.87,0,0,0,.66,2.5c9.27,4.61,18.45,9.44,27.78,14a2.5,2.5,0,0,0,1.57.23,2.06,2.06,0,0,0,1.16-1,1.8,1.8,0,0,0,.21-1.53,1.87,1.87,0,0,0-.92-1.2c-4.66-2.16-9.27-4.38-13.89-6.59s-9.37-4.73-14.09-7.06a2.77,2.77,0,0,0-.91-.23,1.83,1.83,0,0,0-1.57.86Z" style="fill:#161616"/><path d="M1115.19,490.49a1.46,1.46,0,0,0-.66.51,1.27,1.27,0,0,0-.1.85,1.34,1.34,0,0,0,.5.69,130.41,130.41,0,0,0,17.65,6c3,.79,6.13,1.48,9.17,2.22s6.14,1.42,9.18,2.1a1.24,1.24,0,0,0,1.57-.85,1.28,1.28,0,0,0-.86-1.59c-2.94-.74-5.83-1.43-8.77-2.05s-5.83-1.31-8.72-2a115.62,115.62,0,0,1-17.34-5.41.63.63,0,0,0,.3.12,9.71,9.71,0,0,1-1.06-.46,2.22,2.22,0,0,0-.56-.11Z" style="fill:#161616"/><path d="M1121.68,486.45a1.11,1.11,0,0,0,.4,1.54,55.8,55.8,0,0,0,13.59,5.29,1.25,1.25,0,0,0,1.47-.86,1.2,1.2,0,0,0-.81-1.48,52,52,0,0,1-8.42-2.61,47.84,47.84,0,0,1-4.66-2.28,1.28,1.28,0,0,0-.61-.17,1.18,1.18,0,0,0-1,.57Z" style="fill:#161616"/><path d="M879.76,225Zm13.49-12.91a13.74,13.74,0,0,1-.61,1.77,20.39,20.39,0,0,1-2.13,3.58,22.6,22.6,0,0,1-3.8,3.64,33.17,33.17,0,0,1-7.1,4,73.68,73.68,0,0,1-9.28,3,1.94,1.94,0,0,0-1.47,1.93,2,2,0,0,0,2,2,39,39,0,0,0,16.27-5.23,27.45,27.45,0,0,0,6.69-5.52,21.15,21.15,0,0,0,4.26-7.79,2.52,2.52,0,0,0-1.77-3.07,2.66,2.66,0,0,0-3.09,1.76Z" style="fill:#161616"/><path d="M946,256.76a2.77,2.77,0,0,0-.05.29,2.77,2.77,0,0,1,.05-.29Zm-1-6.65s0,0,0,.11,0-.06,0-.11Zm-49.13-40.45a2.42,2.42,0,0,0-.76,1.88,15.71,15.71,0,0,0,.76,3.7,17.92,17.92,0,0,0,1.73,3.41,24,24,0,0,0,5.67,5.75c4.46,3.41,9.74,5.8,14.86,8.13,3.75,1.71,7.6,3.3,11.3,5.18a60.44,60.44,0,0,1,9.79,5.74,26.53,26.53,0,0,1,4.15,4,14.73,14.73,0,0,1,1.78,3,11.94,11.94,0,0,1,.81,6.71,25.58,25.58,0,0,1-1.57,5.41c-.31.74-.66,1.48-1.07,2.27s-.91,1.76-1.47,2.62a1.66,1.66,0,0,0,.61,2.27,1.72,1.72,0,0,0,2.28-.57c.51-.79,1.07-1.59,1.52-2.38a21.83,21.83,0,0,0,1.37-2.45,30.67,30.67,0,0,0,1.83-4.66,18.86,18.86,0,0,0,.5-8.42,16.08,16.08,0,0,0-3-6.72,24.57,24.57,0,0,0-2.68-3.12,30.85,30.85,0,0,0-3.3-2.79,53,53,0,0,0-7.2-4.44c-2.69-1.36-5.42-2.67-8.16-3.92a152.61,152.61,0,0,1-15.92-7.85c-1.11-.69-2.23-1.42-3.29-2.16a26.59,26.59,0,0,1-3.75-3.59A12.76,12.76,0,0,1,901.1,214a10.22,10.22,0,0,1-.65-2.44v-.06a2.87,2.87,0,0,0-.82-1.88,2.59,2.59,0,0,0-1.87-.79,2.75,2.75,0,0,0-1.93.79" style="fill:#161616"/><path d="M856.24,232.64a.34.34,0,0,0-.1.17.34.34,0,0,1,.1-.17Zm25.5-28.21a74.43,74.43,0,0,0-10.24,5.8,65.49,65.49,0,0,0-9.94,8.14,43.25,43.25,0,0,0-7.4,9.89,27.37,27.37,0,0,0-3.09,11.49,24.56,24.56,0,0,0,2.74,11.49,1.43,1.43,0,0,0,1.57.63,1.76,1.76,0,0,0,.81-.63,1.23,1.23,0,0,0,.1-1,27.47,27.47,0,0,1-1.72-6.31,20.85,20.85,0,0,1,0-5.41,25.32,25.32,0,0,1,1.52-5.57,35,35,0,0,1,4.21-7.06,52.61,52.61,0,0,1,9.53-9.15A79.44,79.44,0,0,1,884,208.3a2.16,2.16,0,0,0,1.06-1.31,2.11,2.11,0,0,0-.25-1.76,2.09,2.09,0,0,0-1.32-1,2.24,2.24,0,0,0-.55,0,3,3,0,0,0-1.22.28Z" style="fill:#161616"/><path d="M865.57,238.05a.43.43,0,0,0-.1.22.43.43,0,0,1,.1-.22Zm9.73-16.44c-7.1,3.58-12,10.41-14.55,17.8a36,36,0,0,0-1.37,5.69,35.22,35.22,0,0,0-.4,6.09,32.67,32.67,0,0,0,.71,5.86,25.76,25.76,0,0,0,2,5.46,1.69,1.69,0,0,0,2.79,0,1.51,1.51,0,0,0,.15-1.26A33.58,33.58,0,0,1,863,255a34.52,34.52,0,0,1,.05-8.19,35.49,35.49,0,0,1,2.34-8.48,30.85,30.85,0,0,1,3.85-6.54,25.9,25.9,0,0,1,4.51-4.55,24.44,24.44,0,0,1,3.55-2.22,2,2,0,0,0,.71-2.73,2.25,2.25,0,0,0-1.17-.91c-.2,0-.35-.06-.5-.06a2.53,2.53,0,0,0-1.07.29Z" style="fill:#161616"/><path d="M876.77,247s-.15.06-.2.06.15-.06.2-.06Zm.2-.11c-.05.06-.1.06-.15.11s.1-.05.15-.11Zm5.33-2.56c-1.83.91-3.65,1.88-5.53,2.67a29.21,29.21,0,0,1-6.89,2,18.1,18.1,0,0,1-4,.12,1.4,1.4,0,1,0,0,2.79c6.34.45,12.57-1.65,18.1-4.61a1.72,1.72,0,0,0-.86-3.19,2.76,2.76,0,0,0-.86.23Z" style="fill:#161616"/><path d="M912.87,246.69a2.16,2.16,0,0,0,0,3,45.33,45.33,0,0,0,8,5.57,29,29,0,0,0,4.76,2,23.22,23.22,0,0,0,5.17,1.08,2.34,2.34,0,0,0,2.33-1.76,2.41,2.41,0,0,0-1.67-3,58.81,58.81,0,0,1-7.81-2.39,36.7,36.7,0,0,1-7-3.92c-.21-.23-.46-.4-.71-.63a2.51,2.51,0,0,0-1.52-.62,2.17,2.17,0,0,0-1.52.62Z" style="fill:#161616"/><path d="M870.18,266.26c0,.06,0,.17-.1.23s0-.17.1-.23ZM874.69,256a14,14,0,0,0-6,5.69,23.71,23.71,0,0,0-1.88,4,26.83,26.83,0,0,0-1.21,4.38,32.87,32.87,0,0,0-.61,8.65,1.62,1.62,0,0,0,.51,1.13,1.54,1.54,0,0,0,1.11.46,1.57,1.57,0,0,0,1.57-1.59,25,25,0,0,1,.15-5.46,29,29,0,0,1,1.93-7.11,19.08,19.08,0,0,1,2.23-3.87,13.61,13.61,0,0,1,1.93-1.94,12.49,12.49,0,0,1,1.77-1,9.35,9.35,0,0,1,1.83-.51,8.12,8.12,0,0,1,2.08.06,10.84,10.84,0,0,1,2.89.79,1.83,1.83,0,0,0,1.42-.23,2,2,0,0,0,.86-1.08A1.81,1.81,0,0,0,885,257a1.89,1.89,0,0,0-1.11-.85,13.27,13.27,0,0,0-4.72-1h-.3a11,11,0,0,0-4.21.91Z" style="fill:#161616"/><path d="M870,266.15a5.55,5.55,0,1,0,5.57-5.46,5.59,5.59,0,0,0-5.57,5.46Z" style="fill:#161616"/><path d="M926.81,271.66c0,.06.05.12.05.17s-.05-.11-.05-.17Zm-15.36-12.05a1.38,1.38,0,0,0-1,1.76,1.5,1.5,0,0,0,.66.85,1.93,1.93,0,0,0,1.12.12c.25-.06.5-.06.81-.12a13.14,13.14,0,0,1,2.94,0,17.58,17.58,0,0,1,2.94.74,19.12,19.12,0,0,1,2.79,1.65,16.55,16.55,0,0,1,2.53,2.56,20.94,20.94,0,0,1,2.54,4.44,28.09,28.09,0,0,1,1.87,6.77,1.48,1.48,0,0,0,.41.74,1.69,1.69,0,0,0,1.16.45,1.66,1.66,0,0,0,1.63-1.59,18.63,18.63,0,0,0-5.73-14.22,16.9,16.9,0,0,0-6.49-3.87,15.09,15.09,0,0,0-4.51-.68,15.3,15.3,0,0,0-3.65.4Z" style="fill:#161616"/><path d="M906.78,270.36a5.23,5.23,0,1,0,5.22-5.12,5.23,5.23,0,0,0-5.22,5.12Z" style="fill:#161616"/><path d="M932.53,269.9a.05.05,0,0,0,0,.06.05.05,0,0,1,0-.06Zm1.88-.45h0Zm3.55-3.08a1.21,1.21,0,0,0-.51.4c-.1.17-.2.29-.3.46a11.32,11.32,0,0,1-1.42,1.36,12.9,12.9,0,0,1-1.47.91,8,8,0,0,1-1.62.4,10.37,10.37,0,0,1-1.93,0,12.79,12.79,0,0,1-1.62-.4.85.85,0,0,0-1,.57.83.83,0,0,0,.56,1,9.06,9.06,0,0,0,5.73.11,8.62,8.62,0,0,0,4.56-3.58.76.76,0,0,0-.3-1.14.49.49,0,0,0-.41-.12Z" style="fill:#161616"/><path d="M931.52,273.77c.05,0,.1.06.15.06s-.1-.06-.15-.06Zm-3.34-.34a1.29,1.29,0,0,0,.45,1.76,15,15,0,0,0,2.69,1.25,13.84,13.84,0,0,0,3,.63,12.21,12.21,0,0,0,2.84-.06,13.11,13.11,0,0,0,3-.91,1.2,1.2,0,0,0,.51-.51,1.33,1.33,0,0,0,.15-1.08,1.25,1.25,0,0,0-.66-.8,1.47,1.47,0,0,0-1.07-.17,12.78,12.78,0,0,1-2.89.85,15.1,15.1,0,0,1-2.33,0,13,13,0,0,1-2.43-.68c-.51-.23-1-.45-1.47-.74a1.28,1.28,0,0,0-.61-.17,1.37,1.37,0,0,0-1.16.63Z" style="fill:#161616"/><path d="M854.72,262.73a1.65,1.65,0,0,0,0,2.28,12.61,12.61,0,0,0,6,3.36,11.76,11.76,0,0,0,3.4.11,16.48,16.48,0,0,0,1.67-.34c.66-.17,1.27-.46,1.93-.69a1.63,1.63,0,0,0,.71-1,1.36,1.36,0,0,0-.16-1.25,1.64,1.64,0,0,0-1-.74,1.77,1.77,0,0,0-1.22.11h.11a10.92,10.92,0,0,1-2.34.63,13.61,13.61,0,0,1-2,0,10.65,10.65,0,0,1-1.88-.52,9.58,9.58,0,0,1-2.08-1.25,8.45,8.45,0,0,1-.91-.74,1.8,1.8,0,0,0-1.17-.45,1.77,1.77,0,0,0-1.11.45Z" style="fill:#161616"/><path d="M865.36,271.32c-.35.17-.65.34-1,.46a10.57,10.57,0,0,1-1.82.51,9.32,9.32,0,0,1-1.83,0,15.06,15.06,0,0,1-1.57-.4,1.83,1.83,0,0,0-2.23,1.25,1.66,1.66,0,0,0,.2,1.37,1.88,1.88,0,0,0,1.07.85,10.93,10.93,0,0,0,8.92-1,1.77,1.77,0,0,0,.61-2.39,1.7,1.7,0,0,0-1.52-.85,1.55,1.55,0,0,0-.87.22Z" style="fill:#161616"/><path d="M904.4,294.76l.1.11-.1-.11Zm-5.78-8.19a18.28,18.28,0,0,0,5.12,12.06,1.62,1.62,0,0,0,2.18,0,1.56,1.56,0,0,0,0-2.17,21.45,21.45,0,0,1-1.57-1.82,18.18,18.18,0,0,1-2.13-3.58,14.23,14.23,0,0,1-1-3.53,6.27,6.27,0,0,1-.11-1,1.28,1.28,0,0,0-1.26-1.25,1.25,1.25,0,0,0-1.27,1.25Z" style="fill:#161616"/><path d="M916.31,330.31a22.52,22.52,0,0,0,2,9.5,19.37,19.37,0,0,0,6.13,7.45,1.51,1.51,0,0,0,.66.17,1.37,1.37,0,0,0,1.37-1.31,1.12,1.12,0,0,0-.4-1,16,16,0,0,1-2.39-2.34,17.51,17.51,0,0,1-2.08-3.52,26.32,26.32,0,0,1-1.62-6.15c-.15-.91-.2-1.87-.3-2.84a1.58,1.58,0,0,0-.46-1.14,1.7,1.7,0,0,0-1.21-.51,1.75,1.75,0,0,0-1.68,1.65Z" style="fill:#161616"/><path d="M915.81,327.07a23,23,0,0,1-1.47,2.22,19,19,0,0,1-3.3,3.29,12.68,12.68,0,0,1-5.27,2.45,10.37,10.37,0,0,1-1.93,0,20.8,20.8,0,0,1-2-.57c-.4-.23-.76-.4-1.11-.62a2.26,2.26,0,0,0-2.69.39,2.12,2.12,0,0,0,0,3.08,9.62,9.62,0,0,0,2.79,1.87,7.84,7.84,0,0,0,1.52.57,12.28,12.28,0,0,0,2,.29,12.11,12.11,0,0,0,3.19-.23,13.76,13.76,0,0,0,3.09-1.08,18,18,0,0,0,2.64-1.6,21.91,21.91,0,0,0,2.64-2.21,25.45,25.45,0,0,0,4.15-5.41,2.42,2.42,0,0,0-2.08-3.64,2.37,2.37,0,0,0-2.12,1.2Z" style="fill:#161616"/><path d="M899.48,331.9l-.3.17.3-.17Zm14.25-13.82a91.46,91.46,0,0,0-7.25,7.22,74.12,74.12,0,0,1-7.35,6.83c-.21.17-.41.28-.61.45a2.46,2.46,0,0,0-1,1.37,2,2,0,0,0,.21,1.71,2.45,2.45,0,0,0,1.37,1.08,2.15,2.15,0,0,0,1.77-.23,66,66,0,0,0,8.37-7.45l3.59-3.87c1.32-1.42,2.59-2.79,3.86-4.21a2.38,2.38,0,0,0,.61-1.48,1.91,1.91,0,0,0-.61-1.42,2,2,0,0,0-1.47-.63,2.15,2.15,0,0,0-1.47.63" style="fill:#161616"/><path d="M915,312.5l-.15.06a.17.17,0,0,0,.15-.06Zm3.15-1.36c-1,.45-2,.85-3,1.31-2.84,1.19-5.73,2.27-8.57,3.41a89.84,89.84,0,0,0-8.67,4,2,2,0,0,0-.76,2.73,1.85,1.85,0,0,0,1.22.91,2.14,2.14,0,0,0,1.57-.17c1.62-.79,3.24-1.59,4.86-2.33s3.3-1.54,4.92-2.27c3.4-1.48,6.85-3,10.24-4.5a1.77,1.77,0,0,0,.61-2.44,1.61,1.61,0,0,0-1.06-.8,1.12,1.12,0,0,0-.41-.06,2.76,2.76,0,0,0-1,.23Z" style="fill:#161616"/><path d="M897.15,321.21a2,2,0,0,0-.56,1.36,2.16,2.16,0,0,0,.56,1.31,35.94,35.94,0,0,0,4.51,4.55A2,2,0,0,0,903,329a1.8,1.8,0,0,0,1.37-.57,1.82,1.82,0,0,0,0-2.61,53,53,0,0,1-4.51-4.61,1.87,1.87,0,0,0-1.32-.51,2.21,2.21,0,0,0-1.42.51Z" style="fill:#161616"/><path d="M910.08,305.57a9,9,0,0,0-5.93,2.38,6.45,6.45,0,0,0-1.52,3,9.23,9.23,0,0,0,.2,4.27,2,2,0,0,0,2.48,1.42,2.25,2.25,0,0,0,1.17-.91,2.12,2.12,0,0,0,.25-1.54,2.66,2.66,0,0,1-.1-.56,6.1,6.1,0,0,1,0-1.65,3,3,0,0,1,.2-.74,3.57,3.57,0,0,1,.31-.52,3.23,3.23,0,0,1,.4-.45l.91-.51a14.12,14.12,0,0,1,2.29-.51c4.2-.52,8.41.34,12.62.68a1.76,1.76,0,0,0,1.72-1.71,1.69,1.69,0,0,0-.5-1.19,2,2,0,0,0-1.22-.51c-3.6-.29-7.25-1-10.9-1a15.16,15.16,0,0,0-2.33.12Z" style="fill:#161616"/><path d="M923.51,301.36a31.14,31.14,0,0,0-12.17,3.3,1.64,1.64,0,0,0-.6,2.27,1.75,1.75,0,0,0,1,.74,1.56,1.56,0,0,0,1.32-.17l1.16-.51a29.3,29.3,0,0,1,6.95-1.82c.76-.12,1.52-.17,2.33-.23a1.9,1.9,0,0,0,1.27-.57,1.69,1.69,0,0,0,.51-1.19,1.83,1.83,0,0,0-1.73-1.82Z" style="fill:#161616"/><path d="M930.41,308c.05.06.1.18.15.23s-.1-.17-.15-.23ZM930,304.2a2.39,2.39,0,0,0,0,3.3c.1.06.15.17.25.28a17.62,17.62,0,0,1,1.93,3.25,20.33,20.33,0,0,1,1.22,4.49,69.12,69.12,0,0,1-.16,12.12q-.22,3.24-.15,6.48a27.49,27.49,0,0,0,1.07,6.77,2.72,2.72,0,0,0,5.32-.74,74.21,74.21,0,0,1-.2-8.82c.1-3.13.3-6.2.25-9.27a33.59,33.59,0,0,0-1.37-9.27,25.68,25.68,0,0,0-4.86-8.59,2.37,2.37,0,0,0-1.63-.63,2.57,2.57,0,0,0-1.67.63Z" style="fill:#161616"/><path d="M928.68,397.26Zm13.13,24.29a.18.18,0,0,0,.15.05.18.18,0,0,1-.15-.05Zm6.49-58.31c.1.23.2.52.31.74-.11-.22-.21-.51-.31-.74Zm-12.52-23.09c.05.17.05.28.1.45,0-.17,0-.28-.1-.45Zm1.37-3a2.12,2.12,0,0,0-1.22.92,2.19,2.19,0,0,0-.2,1.59c0,.11,0,.28,0,.45A66.52,66.52,0,0,0,938,354.26a93.25,93.25,0,0,0,5.07,14.16c3.5,8.08,8.21,15.53,11.71,23.61a49.76,49.76,0,0,1,3.29,11.09,25.63,25.63,0,0,1,.06,6.25,22.62,22.62,0,0,1-1.42,5.12,21.75,21.75,0,0,1-2.23,3.87,20,20,0,0,1-2.39,2.39,21.79,21.79,0,0,1-2.23,1.31c-.71.23-1.42.4-2.18.57a15.75,15.75,0,0,1-2.38,0,31.37,31.37,0,0,1-3-.85,17.2,17.2,0,0,1-6.69-5.3,29.47,29.47,0,0,1-3.5-6,56.34,56.34,0,0,1-3.4-13.25,2.5,2.5,0,0,0,.05.28,2.5,2.5,0,0,1-.05-.28.61.61,0,0,0,0-.29.61.61,0,0,1,0,.29c-1.21-9.22-1.06-18.49-.66-27.7.21-4.21.46-8.36.66-12.52.15-3.3.26-6.54.1-9.84a2,2,0,0,0-3.9,0c.15,3.59,0,7.23-.2,10.81-.26,4.78-.56,9.5-.76,14.28-.46,10.35-.56,20.87,1.31,31.17a46.77,46.77,0,0,0,4.36,13.2,24.25,24.25,0,0,0,8.77,9.38,17.71,17.71,0,0,0,9.43,2.5,14.51,14.51,0,0,0,4.41-1,21,21,0,0,0,2.29-1,16.58,16.58,0,0,0,2.28-1.59A17.43,17.43,0,0,0,960,421.6a24.32,24.32,0,0,0,2.48-4,27.34,27.34,0,0,0,2.54-10,28.55,28.55,0,0,0-.25-5.46,42.16,42.16,0,0,0-1.22-6A73.62,73.62,0,0,0,959,384.52c-1.68-3.53-3.55-6.94-5.38-10.36-1.87-3.58-3.7-7.22-5.27-10.92s-3-7.68-4.41-11.6c-.71-2.16-1.42-4.32-2.18-6.48l-1.06-3.3a18.5,18.5,0,0,1-1-3.3,2,2,0,0,0-2-1.48,1.38,1.38,0,0,0-.45.05Z" style="fill:#161616"/><path d="M954.59,433.72a2.07,2.07,0,0,0-.26.06,2.07,2.07,0,0,1,.26-.06ZM965,429.4c0,.05-.1.05-.15.11s.1-.06.15-.11Zm-32.65-4.61a.22.22,0,0,1,0,.11l0-.11Zm29.61-42a2,2,0,0,0,0,2.9c1.37,1.37,2.74,2.79,4,4.27a41.8,41.8,0,0,1,5,8.47,39.57,39.57,0,0,1,2.43,8.71,34.54,34.54,0,0,1,0,7.33,28.17,28.17,0,0,1-1.72,6.2,26.55,26.55,0,0,1-2.84,4.84,27.6,27.6,0,0,1-4.15,4.15,21.39,21.39,0,0,1-4.42,2.56,26.93,26.93,0,0,1-5.57,1.48,27.85,27.85,0,0,1-6.19,0A31.92,31.92,0,0,1,942,432a28.13,28.13,0,0,1-5.72-3.36,23.23,23.23,0,0,1-4-3.92,25,25,0,0,1-2.84-4.78,21.79,21.79,0,0,1-1.47-5.29,24.46,24.46,0,0,1-.05-5.06,1.47,1.47,0,0,0-2.94,0,23.75,23.75,0,0,0,1.88,12,26.41,26.41,0,0,0,6.79,9.21,28.36,28.36,0,0,0,16.17,7.06,25.39,25.39,0,0,0,5.78,0,25.68,25.68,0,0,0,11.56-4.27,27.19,27.19,0,0,0,9.33-11,26.06,26.06,0,0,0,2-6.82,29.17,29.17,0,0,0,.31-7.28,35.64,35.64,0,0,0-4.21-14.05,39.13,39.13,0,0,0-4.46-6.54,33.57,33.57,0,0,0-5.68-5.35,2.1,2.1,0,0,0-1-.28,2.05,2.05,0,0,0-1.47.62" style="fill:#161616"/><path d="M977.2,397.71a.39.39,0,0,1,0,.23c0-.06,0-.17,0-.23ZM975,389.86c.05.12.1.18.1.23s0-.11-.1-.23ZM953.73,366a2.37,2.37,0,0,0-1.37,1,2.3,2.3,0,0,0,.86,3.13,112.17,112.17,0,0,1,11.51,7.22,39.38,39.38,0,0,1,6.59,6.31,34.5,34.5,0,0,1,3.7,6.15,35.73,35.73,0,0,1,2.23,8.19,53.05,53.05,0,0,1,.3,7.45,1.83,1.83,0,0,0,3.65,0,50.42,50.42,0,0,0-1.11-13.2,30.75,30.75,0,0,0-4.67-10.63,37.8,37.8,0,0,0-8.21-8.54,54.3,54.3,0,0,0-11.71-6.88,3,3,0,0,0-1.22-.28,2.24,2.24,0,0,0-.55.05Z" style="fill:#161616"/><path d="M886.15,311.08a.47.47,0,0,1,0,.23.47.47,0,0,0,0-.23Zm.81-8.19a5.52,5.52,0,0,0-2.84,1.54c-1.92,1.87-2.13,4.89-1.92,7.45a2,2,0,0,0,1.92,1.93,2,2,0,0,0,1.37-.57,2,2,0,0,0,.61-1.36c0-.34,0-.63,0-1a14.83,14.83,0,0,1,.56-2.1,5.37,5.37,0,0,1,.4-.74c.1-.12.21-.17.31-.29l.3-.17a2.61,2.61,0,0,1,.61-.11,7.77,7.77,0,0,1,1.67,0,41.39,41.39,0,0,1,6.39,1.76,25.57,25.57,0,0,0,7.2,1.48,1.87,1.87,0,0,0,1.92-1.88,1.92,1.92,0,0,0-1.92-1.93c-.31,0-.66-.06-1-.06a29.11,29.11,0,0,1-6.09-1.93,32.22,32.22,0,0,0-6.08-2.05c-.56-.05-1.17-.17-1.73-.17h-.2a7.26,7.26,0,0,0-1.57.17" style="fill:#161616"/><path d="M889.65,315.06c0,.06-.15.06-.21.12s.16-.06.21-.12Zm5.32-4.32a23.27,23.27,0,0,0-9.63,3.36,1.38,1.38,0,0,0-.51,1.93,1.4,1.4,0,0,0,2,.51,27.31,27.31,0,0,1,2.84-1.48,26.77,26.77,0,0,1,5.07-1.36,25,25,0,0,1,6.23.06,27.49,27.49,0,0,1,3.09.57,1.48,1.48,0,0,0,1.73-1,1.8,1.8,0,0,0-.15-1,1.84,1.84,0,0,0-.87-.68,23.44,23.44,0,0,0-4.81-1,15.14,15.14,0,0,0-2.23-.11,22.9,22.9,0,0,0-2.74.17Z" style="fill:#161616"/><path d="M857,275.13a2.31,2.31,0,0,0-1.12,1.48,43.78,43.78,0,0,0-.71,6.77,54,54,0,0,0,.51,6.94,48.63,48.63,0,0,0,4.06,13.2,52.42,52.42,0,0,0,7.65,11.83,46.09,46.09,0,0,0,10.8,9.1,38.56,38.56,0,0,0,18.5,5.52,1.7,1.7,0,0,0,1.63-1.2,1.65,1.65,0,0,0-.21-1.3,1.52,1.52,0,0,0-1-.74,39.53,39.53,0,0,1-9.18-2.51,47.32,47.32,0,0,1-9.53-5.63,53.68,53.68,0,0,1-8.67-8.64,54.76,54.76,0,0,1-6.33-10.7,44.41,44.41,0,0,1-3-10.81,38,38,0,0,1-.05-9c.1-.51.2-1,.25-1.54a2.46,2.46,0,0,0-.2-1.87,2.74,2.74,0,0,0-1.47-1.08,3.1,3.1,0,0,0-.66-.12,2.57,2.57,0,0,0-1.27.34Z" style="fill:#161616"/><path d="M938.36,280.08a57.15,57.15,0,0,1-.3,10.7,44.23,44.23,0,0,1-3,10.41c-.41,1-.86,1.93-1.32,2.9-.61,1.25-1.22,2.44-1.72,3.69a2.57,2.57,0,0,0,4.26,2.51,17.69,17.69,0,0,0,4-7.11,34,34,0,0,0,1.52-7.85,59,59,0,0,0,.26-7.4c0-2.61-.21-5.23-.41-7.85a1.65,1.65,0,1,0-3.3,0Z" style="fill:#161616"/><path d="M832,249.48v0Zm17.28-37.37c0,.06-.1.11-.15.11s.1-.05.15-.11ZM887.52,195a68.74,68.74,0,0,0-25.3,5.07,62.26,62.26,0,0,0-21.39,14.16,44.59,44.59,0,0,0-7.3,9.95,42.08,42.08,0,0,0-3.5,30.83,38.63,38.63,0,0,0,2,5.24,131.7,131.7,0,0,0,7.35,12.8,101.23,101.23,0,0,1,7.25,13.19c0-.11-.1-.17-.15-.28a32.59,32.59,0,0,1,2.33,7.85,21.25,21.25,0,0,1,0,4.72,18.32,18.32,0,0,1-1.12,4A17.59,17.59,0,0,1,845.7,306a34.46,34.46,0,0,1-5.18,4.84c-2.43,1.87-5,3.52-7.45,5.46a16.6,16.6,0,0,0-2.68,2.5,9.61,9.61,0,0,0-2,3.41,7.62,7.62,0,0,0-.26,4,9.6,9.6,0,0,0,.51,1.65,12.62,12.62,0,0,0,1.17,2.39,29,29,0,0,0,3.75,4.78,73.48,73.48,0,0,0,6.13,5.57,2.15,2.15,0,0,0,1.47.57,1.89,1.89,0,0,0,1.42-.57,2,2,0,0,0,0-2.9,59.19,59.19,0,0,1-7.8-7.79,14.57,14.57,0,0,1-1.93-3.13,8.12,8.12,0,0,1-.46-1.59,3.49,3.49,0,0,1,0-1,5.56,5.56,0,0,1,.26-1,9.59,9.59,0,0,1,.81-1.31,36.68,36.68,0,0,1,5.73-5.12,54.81,54.81,0,0,0,7.6-6.82,23,23,0,0,0,3.45-5.18,16.1,16.1,0,0,0,1-2.62,14.7,14.7,0,0,0,.56-2.9,23.45,23.45,0,0,0-1.52-10.86c-1.88-5.35-4.77-10.24-7.66-15s-6-9.61-8.16-14.79a35.11,35.11,0,0,1-1.42-3.87,33.25,33.25,0,0,1-1-5,39.39,39.39,0,0,1,0-10.12,40.47,40.47,0,0,1,2.63-9.44,44.17,44.17,0,0,1,5.43-9.1,51.93,51.93,0,0,1,9-8.82,65.07,65.07,0,0,1,13.43-7.74,67.45,67.45,0,0,1,17-4.6,60.88,60.88,0,0,1,8-.52,2.19,2.19,0,1,0,0-4.38Z" style="fill:#161616"/><path d="M937.5,211.88s.1.06.16.06-.11-.06-.16-.06Zm-17.08-10c.1.06.25.11.35.17-.1-.06-.25-.11-.35-.17ZM897.1,195a2.17,2.17,0,0,0-1.47,2.56,2.2,2.2,0,0,0,2.64,1.48,20.33,20.33,0,0,1,2.73-.57,31.17,31.17,0,0,1,7.66.11,49.07,49.07,0,0,1,11.66,3.3,81.41,81.41,0,0,1,17,9.84,73.86,73.86,0,0,1,12.83,12.34c.86,1.14,1.72,2.39,2.53,3.64a43,43,0,0,1,5.83,16.16,43.38,43.38,0,0,1,0,10.92,49.65,49.65,0,0,1-3.55,12.63c-.61,1.42-1.27,2.79-2,4.15a2.34,2.34,0,0,0,.87,3.19,2.39,2.39,0,0,0,3.19-.86,44.19,44.19,0,0,0,2.43-4.38c.81-1.65,1.52-3.35,2.18-5.06A41.58,41.58,0,0,0,964,254.6,42.15,42.15,0,0,0,962,235a47,47,0,0,0-4.31-9.16,61,61,0,0,0-4-5.51,71.62,71.62,0,0,0-10.65-10.24,81.58,81.58,0,0,0-22.86-13,45.25,45.25,0,0,0-15.52-3,31,31,0,0,0-7.6.91Z" style="fill:#161616"/><path d="M913.58,210.86h0ZM954,258.81a.23.23,0,0,0-.05.17.23.23,0,0,1,.05-.17Zm0-.23v0Zm-2-17c0,.12.1.17.1.23s0-.11-.1-.23Zm-3.29-5.46.05.06-.05-.06Zm-38-26.56a.9.9,0,0,0,0,1.25c7.9,6.6,17.69,10.41,26.41,15.7a62.49,62.49,0,0,1,5.27,3.58,37.43,37.43,0,0,1,6.44,6.2,25.88,25.88,0,0,1,3.24,5.58,29.62,29.62,0,0,1,2,7.22,39.1,39.1,0,0,1,0,9.67,47.14,47.14,0,0,1-3,11.09,37,37,0,0,1-4.16,7.17,1.36,1.36,0,0,0,2.13,1.65,27.89,27.89,0,0,0,5.22-8.25,40.49,40.49,0,0,0,2.64-9.44,36.56,36.56,0,0,0-1.52-18.09,31.7,31.7,0,0,0-8.67-12.06A66.91,66.91,0,0,0,934,222.57c-6.94-3.75-14.24-7-20.58-11.83,0,.06.1.06.15.12-.55-.46-1.06-.86-1.57-1.31a1.54,1.54,0,0,0-.66-.23.89.89,0,0,0-.6.23Z" style="fill:#161616"/><path d="M957.43,333l-.16.17.16-.17Zm-1.78-52.1-.1.17c.05-.06.05-.11.1-.17Zm-1.87-6.2a2.28,2.28,0,0,0-1.52,1.14c-2.13,4.66-4.26,9.44-5.13,14.5a19.06,19.06,0,0,0-.3,5.58,18.17,18.17,0,0,0,1.12,4.94,38,38,0,0,0,5.72,9.33c1.42,1.82,2.84,3.64,4.26,5.52a34.16,34.16,0,0,1,4.16,6.48,13.9,13.9,0,0,1,.76,2.45,7.92,7.92,0,0,1,0,1.54,10,10,0,0,1-.35,1.31,12.71,12.71,0,0,1-1.07,1.76,28.66,28.66,0,0,1-4.36,4c-2,1.53-4.16,3-6.23,4.43a2.71,2.71,0,0,0-1.27,1.6,2.76,2.76,0,0,0,.25,2.1,2.88,2.88,0,0,0,3.8,1c1.93-1.08,3.86-2.27,5.68-3.46a45.5,45.5,0,0,0,5.12-3.87,17.91,17.91,0,0,0,3.25-3.93,12,12,0,0,0,1.57-5.29,14.8,14.8,0,0,0-.21-2.61,15.69,15.69,0,0,0-.7-2.51,26.1,26.1,0,0,0-3.6-6.2c-2.49-3.35-5.33-6.42-8-9.72a31.39,31.39,0,0,1-3.65-5.81,16.83,16.83,0,0,1-.92-3.24,17.62,17.62,0,0,1,.06-4,48.7,48.7,0,0,1,3.44-11c.36-.8.71-1.54,1-2.28a2.76,2.76,0,0,0,.25-2,2.59,2.59,0,0,0-1.17-1.53,2.65,2.65,0,0,0-1.31-.35,1.46,1.46,0,0,0-.71.12Z" style="fill:#161616"/><path d="M884.68,335.54v0Zm-3.4-11.37a1.74,1.74,0,0,0,0,2.44,21.69,21.69,0,0,1,2,3.3,22.31,22.31,0,0,1,1.37,5.46,39.18,39.18,0,0,1,.3,4.84c0,1.7-.15,3.41-.25,5.12a2.55,2.55,0,0,0,2.53,2.5,2.83,2.83,0,0,0,1.83-.74,2.79,2.79,0,0,0,.71-1.76,38.54,38.54,0,0,0-.86-11,23.54,23.54,0,0,0-1.93-5.18,21.63,21.63,0,0,0-3.19-4.94,1.44,1.44,0,0,0-1.17-.52,2.25,2.25,0,0,0-1.32.52Z" style="fill:#161616"/><path d="M861.26,339.07a2.22,2.22,0,0,0,.25,1.76,2.5,2.5,0,0,0,1.37,1,61.31,61.31,0,0,0,10.44,2.84,45.59,45.59,0,0,0,11.41.8,2.22,2.22,0,1,0,0-4.44,39.37,39.37,0,0,1-6.79-.28c-2.28-.35-4.51-.8-6.75-1.37s-4.71-1.31-7.09-2c-.21,0-.41-.06-.61-.06a2.3,2.3,0,0,0-2.23,1.71Z" style="fill:#161616"/><path d="M888.63,363.3c.1.06.26.11.36.17-.1-.06-.26-.11-.36-.17Zm-23.57-18.43a.91.91,0,0,0,.15.23.91.91,0,0,1-.15-.23Zm-6.44-6.43a1.93,1.93,0,0,0-.71,2.68,45.67,45.67,0,0,0,7.3,10.35,72.25,72.25,0,0,0,11,9.9,65.45,65.45,0,0,0,13.24,7.45,36.64,36.64,0,0,0,13.94,3,25,25,0,0,0,6.13-.8,15.72,15.72,0,0,0,2.74-.91,16.72,16.72,0,0,0,1.77-.8c.51-.22,1-.51,1.42-.74a2.4,2.4,0,1,0-2.43-4.15,8.64,8.64,0,0,1-.91.46,28.87,28.87,0,0,1-5.83,1.59,31.08,31.08,0,0,1-7-.06,43.61,43.61,0,0,1-10.34-2.9A60.63,60.63,0,0,1,876.37,356,65.18,65.18,0,0,1,865,344.87a41,41,0,0,1-3.7-5.74,1.86,1.86,0,0,0-1.67-1,1.7,1.7,0,0,0-1,.28Z" style="fill:#161616"/><path d="M963,353.8c0,.06.1.06.15.12s-.1-.06-.15-.12ZM942.27,345a2.66,2.66,0,1,0,1.42,5.12c1.21-.34,2.43-.57,3.7-.8a27.65,27.65,0,0,1,5.68,0,18.55,18.55,0,0,1,4.61,1.26,28.72,28.72,0,0,1,5,2.95,31.5,31.5,0,0,1,4.61,4.55,51.51,51.51,0,0,1,5.78,10.13,66.86,66.86,0,0,1,2.33,6.31,40.42,40.42,0,0,1,1.52,7c.16,1.31.31,2.62.41,3.92a2.85,2.85,0,0,0,.76,1.77,2.58,2.58,0,0,0,1.77.74,2.71,2.71,0,0,0,1.78-.74,2.85,2.85,0,0,0,.71-1.77,40,40,0,0,0-.15-7.73,64,64,0,0,0-1.47-8.59,41.7,41.7,0,0,0-3.2-8.08,38.15,38.15,0,0,0-4.81-7.05,34.49,34.49,0,0,0-6-5.46,26.2,26.2,0,0,0-7.2-3.53,29.9,29.9,0,0,0-8.16-1.25h-.45a34,34,0,0,0-8.62,1.25Z" style="fill:#161616"/><path d="M839,336.91a23.68,23.68,0,0,0-5.93,1.87,22.15,22.15,0,0,0-4.92,3.13,24.79,24.79,0,0,0-3.9,4.21,27.9,27.9,0,0,0-2.84,4.55,45.75,45.75,0,0,0-3.65,11.78c-1.62,9-1.42,18.31-.45,27.41A194.85,194.85,0,0,0,822,415.92c.61,2.39,1.27,4.72,2,7.11l.91,2.9c.46,1.53.86,3.13,1.27,4.72.2.91.4,1.76.66,2.62.15.34.25.68.4,1,.2.57.31,1,.46,1.59a2.54,2.54,0,0,0,3.14,1.76,2.6,2.6,0,0,0,1.52-1.13,3,3,0,0,0,.26-2,.42.42,0,0,1-.06-.29c0-.57,0-1.14-.15-1.7a13,13,0,0,0-.56-2.85c-.45-1.76-1-3.52-1.47-5.29-.3-1-.55-2.05-.81-3.13-.6-2.5-1.21-5.06-1.77-7.62-1.37-6.2-2.54-12.51-3.4-18.77-.71-5.06-1.16-10.13-1.37-15.24a87,87,0,0,1,.56-14.51,46.54,46.54,0,0,1,2.74-10.69,27.83,27.83,0,0,1,3.14-5.41,20,20,0,0,1,3.2-3.18,19.41,19.41,0,0,1,3.65-2.11,21.23,21.23,0,0,1,5.17-1.36,35.9,35.9,0,0,1,8.16.05c.91.18,1.82.29,2.74.52a3.09,3.09,0,0,0,2.23-.34,2.8,2.8,0,0,0,1.37-1.71,2.93,2.93,0,0,0-2-3.58,52.77,52.77,0,0,0-8-1h-1a35.21,35.21,0,0,0-6,.57Z" style="fill:#161616"/><path d="M834.64,448c0,.05.05.11.11.17s-.11-.12-.11-.17Zm-3.34-4.78a1.89,1.89,0,0,0-1.27,2.22,27.42,27.42,0,0,0,4.61,10.24,19.14,19.14,0,0,0,4.31,4.26,16.79,16.79,0,0,0,5.27,2.79,1.95,1.95,0,0,0,1.53-3.53,31.16,31.16,0,0,1-4.41-2.67,28.08,28.08,0,0,1-4-3.92,24,24,0,0,1-2.58-4.33,25.69,25.69,0,0,1-1.17-3.75,1.9,1.9,0,0,0-1.78-1.37c-.15,0-.35.06-.5.06Z" style="fill:#161616"/><path d="M849.24,420.07c-.25.28-.5.51-.76.79s-.66.86-1,1.26c-.51.68-1,1.42-1.42,2.1a38.53,38.53,0,0,0-2.43,5.06,44.64,44.64,0,0,0-2.69,11.44,45.52,45.52,0,0,0,.3,11.43,30.16,30.16,0,0,0,3.5,10.12,1.7,1.7,0,1,0,2.94-1.7c-.35-.68-.71-1.37-1.06-2.11a30.73,30.73,0,0,1-1.88-7.39,42,42,0,0,1,2.89-21.16,35.32,35.32,0,0,1,4.21-7.11l.1-.11a2.18,2.18,0,0,0,.56-1.31,1.76,1.76,0,0,0-.56-1.31,2,2,0,0,0-1.37-.57,1.69,1.69,0,0,0-1.32.57Z" style="fill:#161616"/><path d="M857.51,461.42a.48.48,0,0,1,.1.29c-.05-.12-.05-.23-.1-.29ZM855.38,439v0Zm4.21-21.79c-3.3,2.45-5.28,6.26-6.7,10.07a37.87,37.87,0,0,0-1.57,5.8,61,61,0,0,0-.81,6.77,64.08,64.08,0,0,0,.81,12.86,43.27,43.27,0,0,0,3.15,11,1.8,1.8,0,0,0,1.11.79,1.54,1.54,0,0,0,1.42-.17,1.69,1.69,0,0,0,.86-1.08,2,2,0,0,0-.2-1.42v-.06a38.41,38.41,0,0,1-2.43-9.21,53.38,53.38,0,0,1-.41-6.43c0-2.22.25-4.49.51-6.71a46.56,46.56,0,0,1,3-11.09,33.57,33.57,0,0,1,2.08-4c.76-1.25,1.67-2.45,2.53-3.7h0a2.19,2.19,0,0,0,.71-1.65,2.44,2.44,0,0,0-.71-1.71,2.39,2.39,0,0,0-3.34,0" style="fill:#161616"/><path d="M854.06,459.49a2.06,2.06,0,0,0-1,1.31,2.31,2.31,0,0,0,.2,1.65,14.92,14.92,0,0,0,2.38,3.52,9.15,9.15,0,0,0,3.6,2.5,9.93,9.93,0,0,0,8.67-.73,2.31,2.31,0,0,0,0-4,2.33,2.33,0,0,0-1.83-.28,16.46,16.46,0,0,1-2.83.85,12,12,0,0,1-1.47,0,4.54,4.54,0,0,1-1.22-.34,12.41,12.41,0,0,1-1.22-.68,12,12,0,0,1-1.16-1.2,12.23,12.23,0,0,1-1.07-1.82,2.08,2.08,0,0,0-1.93-1.08,2.51,2.51,0,0,0-1.11.29Z" style="fill:#161616"/><path d="M866.28,448.62c0,.12.05.17.05.29,0-.12-.05-.17-.05-.29Zm0-9.84,0,.34c0-.11,0-.22,0-.34ZM867.34,425a14.4,14.4,0,0,0-1.52,1.59,15.53,15.53,0,0,0-1.52,2.11,20.84,20.84,0,0,0-1.93,4.83,33.72,33.72,0,0,0-.91,5,44.64,44.64,0,0,0-.15,5.17,47.34,47.34,0,0,0,1.62,10.3,36.92,36.92,0,0,0,3.6,8.76,2.1,2.1,0,0,0,2.84.74,2.05,2.05,0,0,0,.71-2.79,24.2,24.2,0,0,1-1.27-2.61,38.56,38.56,0,0,1-2.53-9.56,35.07,35.07,0,0,1,0-9.27,26.7,26.7,0,0,1,1.82-6.6,22.35,22.35,0,0,1,1.22-2.45c.45-.85,1-1.76,1.52-2.61a2.12,2.12,0,0,0-.31-2.62,2.39,2.39,0,0,0-1.57-.63,2.43,2.43,0,0,0-1.57.63Z" style="fill:#161616"/><path d="M953.83,444.13c-2.08.51-4.06,1.14-6.09,1.82s-4,1.36-6,2c-4.05,1.37-8.11,2.62-12.22,3.7s-8.26,2.1-12.42,3-8.56,1.6-12.87,2.16a212,212,0,0,1-35.64,1.71,2.46,2.46,0,0,0-2.49,2.45,2.55,2.55,0,0,0,2.49,2.5c7.3.34,14.55.4,21.8.17,7.55-.34,15-1,22.56-2.1,3.7-.52,7.4-1.09,11.1-1.77s7.3-1.53,10.9-2.44,7.2-2,10.69-3.25c1.83-.62,3.55-1.3,5.33-2a38.2,38.2,0,0,0,5.17-2.56,2.89,2.89,0,0,0,1.32-3.3,2.94,2.94,0,0,0-2.89-2.11,3,3,0,0,0-.71.06Z" style="fill:#161616"/><path d="M867,428.26a2.39,2.39,0,0,0,1.67,2.9,123.83,123.83,0,0,0,16.27,4.44c5.63,1.13,11.36,1.82,17.09,2.39s11.4.74,17.08.68c2.74,0,5.48-.06,8.21-.23a46.31,46.31,0,0,0,8.87-1.31,2.85,2.85,0,0,0,2.13-2.73,3.07,3.07,0,0,0-.81-2,3.37,3.37,0,0,0-2.08-.8,82.3,82.3,0,0,0-10.64.34c-3.8.23-7.55.46-11.36.51a151.28,151.28,0,0,1-22.71-1.08A111.58,111.58,0,0,1,870,426.55a3.77,3.77,0,0,0-.66-.11,2.52,2.52,0,0,0-2.33,1.82Z" style="fill:#161616"/><path d="M975.52,434.12a2.73,2.73,0,0,0-1.36,1.7,3.17,3.17,0,0,0,.3,2.17l.15.34a18.11,18.11,0,0,1,.56,1.76v.63c0,.11,0,.22-.1.34s-.15.23-.21.34a4.26,4.26,0,0,1-.55.51,6.83,6.83,0,0,1-1.52.85A20.14,20.14,0,0,1,968,444a41.32,41.32,0,0,1-9.94,0,.83.83,0,0,1-.35-.06,2.52,2.52,0,0,0-3,1.71,2.73,2.73,0,0,0,.25,1.88,2.58,2.58,0,0,0,1.47,1.08,50.25,50.25,0,0,0,7.66.68,34.45,34.45,0,0,0,9.07-.8,14.6,14.6,0,0,0,4-1.48,8.76,8.76,0,0,0,3.09-2.84,6.51,6.51,0,0,0,1-4.1,9.93,9.93,0,0,0-1.77-4.89,3,3,0,0,0-1.73-1.31,1.92,1.92,0,0,0-.81-.11,2.45,2.45,0,0,0-1.42.4Z" style="fill:#161616"/><path d="M974.41,424.9a2,2,0,0,0-.76,2.9,10.93,10.93,0,0,1,.71,1.31,14.15,14.15,0,0,1,.4,1.37,5.73,5.73,0,0,1,0,1.31,8.91,8.91,0,0,1-.45,1.65h0a2.59,2.59,0,0,0-.21,1.65,2.19,2.19,0,0,0,1,1.25,2,2,0,0,0,1.62.22,2,2,0,0,0,1.27-1,13.59,13.59,0,0,0,1-2.56,9.36,9.36,0,0,0,.25-2.62,7.14,7.14,0,0,0-.5-2.5,8,8,0,0,0-1.68-2.68,2,2,0,0,0-1.52-.62,2.3,2.3,0,0,0-1.06.28Z" style="fill:#161616"/><path d="M850.31,370a2.32,2.32,0,0,0-1.47,1.08,53.81,53.81,0,0,0-4.41,12.69,46.32,46.32,0,0,0-.86,13,41.41,41.41,0,0,0,9.88,24.46,2.13,2.13,0,0,0,2.49.34,2,2,0,0,0,.71-2.79,74.83,74.83,0,0,1-4.31-8.3,48.52,48.52,0,0,1-3.4-11.89,43.55,43.55,0,0,1,3.19-22.81c.31-.74.61-1.48,1-2.16a2.52,2.52,0,0,0,.25-1.88,2.38,2.38,0,0,0-1.12-1.48,2.46,2.46,0,0,0-1.26-.34,1.38,1.38,0,0,0-.66.11Z" style="fill:#161616"/><path d="M870.23,390.89a1.52,1.52,0,0,0,0,2.1,96.63,96.63,0,0,0,20.23,12.63c3.8,1.82,7.7,3.41,11.71,4.89A114.43,114.43,0,0,0,913.78,414a61.07,61.07,0,0,0,7.8,1.42c.06,0,.06.06.11.06a1.58,1.58,0,0,0,1.11-.17,1.47,1.47,0,0,0,.66-.86,1.42,1.42,0,0,0-1-1.7l-3.05-.69c-1.06-.28-2.12-.51-3.14-.73-2.18-.57-4.31-1.14-6.49-1.77a124.84,124.84,0,0,1-13.28-4.72c.1.06.25.11.36.17a101.61,101.61,0,0,1-22.72-12.74c.11.11.21.17.26.23-.66-.51-1.37-1.08-2.08-1.65a1.62,1.62,0,0,0-1-.4,1.65,1.65,0,0,0-1.07.4Z" style="fill:#161616"/><path d="M890.76,413.58Zm-3.85-1.48a1,1,0,0,0-.46.35.84.84,0,0,0,.31,1.13,117.47,117.47,0,0,0,13.63,5.18c4.67,1.48,9.38,2.79,14.05,4.1a.87.87,0,0,0,1-.57.82.82,0,0,0-.56-1c-4.1-1.19-8.21-2.28-12.26-3.53s-8-2.61-11.87-4.21c0,0,0,.06,0,.06a.05.05,0,0,0,0-.06l-.15-.05a.17.17,0,0,1,.1.05c-1.06-.45-2.13-.91-3.14-1.42a1.1,1.1,0,0,0-.41-.06Z" style="fill:#161616"/><path d="M844.68,459.66a2,2,0,0,0-1.47,2.44,36.91,36.91,0,0,1,1,4.78,66.07,66.07,0,0,1,.51,8.42,88.55,88.55,0,0,1-.61,9.1,2.42,2.42,0,0,0,.76,1.88,2.68,2.68,0,0,0,3.7,0,6.09,6.09,0,0,1,.41-.57,2.33,2.33,0,0,0,.36-1.31,54,54,0,0,0,.1-11.72A62.28,62.28,0,0,0,847.17,461a2.1,2.1,0,0,0-2-1.48,1.58,1.58,0,0,0-.51.12Z" style="fill:#161616"/><path d="M948.81,446.92c-.2.22-.36.51-.56.74a3.46,3.46,0,0,0-.51,1.87,32.8,32.8,0,0,0,1,12.92,29.87,29.87,0,0,0,2.38,6,20.34,20.34,0,0,0,4.06,5.69,3.45,3.45,0,0,0,4.1.51,3.22,3.22,0,0,0,1.57-2.05,3.47,3.47,0,0,0-.3-2.56c-1-2.27-2.23-4.49-3.3-6.71a35.93,35.93,0,0,1-2.13-7.57,27.92,27.92,0,0,1,.06-6.2,3.46,3.46,0,0,0-1.12-2.61,3.64,3.64,0,0,0-2.64-1.08,3.81,3.81,0,0,0-2.63,1.08Z" style="fill:#161616"/></g></svg>