<svg id="Layer_1" data-name="Layer 1" xmlns="http://www.w3.org/2000/svg" viewBox="0 0 1400 600"><title>CP016_blog</title><rect id="White" width="1400" height="600" style="fill:#fff"/><g id="_016" data-name="016"><path d="M269.36,200.8c11,0,18.16,7.52,18.16,21.52,0,19-9.28,36.24-24.32,36.24-11,0-18.16-7.6-18.16-21.6C245,218,254.32,200.8,269.36,200.8Zm.16,3.28c-13.28,0-20.88,16-20.88,32.72,0,11.44,5.36,18.48,14.4,18.48,13.28,0,20.88-16.08,20.88-32.8C283.92,211,278.56,204.08,269.52,204.08Z"/><path d="M302.32,257.68h-3.6L307.44,208c-2.08,2.16-7.68,3.2-10.4,3.2l.56-3.12c5.12-.24,10.08-2.32,11.84-6.56h2.72Z"/><path d="M338.08,258.56c-11.76,0-19.12-6.32-19.12-17.84,0-17.2,10.88-37.28,36.88-39.76l-.56,3.44c-21.36,2.32-29.76,17.52-31.84,27.52,3-4.56,8.48-8.32,17.2-8.32,10.08,0,17.52,5.36,17.52,15.84C358.16,250.8,349.68,258.56,338.08,258.56Zm1.68-31.68c-10.72,0-17.12,7.36-17.12,14.16,0,8.88,5.28,14.24,15.44,14.24s16.4-7.2,16.4-15.84C354.48,231.52,349,226.88,339.76,226.88Z"/><g id="_000_Introduction" data-name="000_Introduction"><path d="M270.32,358.32l-2.08-10.4h-11l-2,10.4H241.44l14.48-56h13.76l14.4,56Zm-4.64-23.12c-1.28-7.36-2.48-13.44-3-18.56-.48,5.12-1.6,11.2-3,18.64l-.32,1.76H266Z"/><path d="M311.12,329.44a7.36,7.36,0,0,0-5.36-2.48c-2.48,0-4.16,1-4.64,4.08v27.28H288.8v-42h12.32v2.56a9.36,9.36,0,0,1,7-3.44,10.33,10.33,0,0,1,5.12,1.12Z"/><path d="M326.48,340.88c.32,6.72,2.08,8.64,4.88,8.64,2.48,0,4.24-1,6.8-4.72l7.28,5.76c-3.52,5.2-7.52,8.64-14.64,8.64C320.32,359.2,315,351,315,337.52c0-14.4,5.68-22.08,15.84-22.08,9.92,0,15.36,7.44,15.36,22.48v3Zm4.08-16.16c-2.48,0-3.68,1.92-4.08,8.08H335C334.64,327,333.44,324.72,330.56,324.72Z"/><path d="M389.76,373.12H377.84l4.48-13.6-12.4-43.2H382.8l2.08,10.48a156.48,156.48,0,0,1,3,19.76,161.88,161.88,0,0,1,3-19.84l2.08-10.4h12.8Z"/><path d="M423.44,359.2c-10.16,0-16.16-7.44-16.16-21.76s5.6-22,16.32-22c10.32,0,16.24,7.44,16.24,21.76S434,359.2,423.44,359.2Zm.08-33.44c-2.88,0-4,2.8-4,11.44s1.12,11.68,4.08,11.68c2.8,0,4-3,4-11.52C427.6,328.4,426.4,325.76,423.52,325.76Z"/><path d="M464.24,358.32v-2.4a12.36,12.36,0,0,1-8.64,3.28c-7,0-10.56-4.16-10.56-13.12V316.32h12.32v27.6c0,3.2,1,4.72,3,4.72a5.59,5.59,0,0,0,3.84-1.6V316.32h12.32v42Z"/><path d="M264.4,453.52a20.17,20.17,0,0,1-8.24,1.68c-6.48,0-9.84-3.36-9.84-11.2V422.48h-4.64V412.32h4.64v-11.6l12-4.72v16.32h7.12v10.16h-7.12v18.4c0,2.56,1,3.52,2.8,3.52a7.94,7.94,0,0,0,4.64-1.6Z"/><path d="M288.8,454.32v-2.4a11.86,11.86,0,0,1-8.08,3.28c-7,0-10.88-4.64-10.88-14.16,0-9.2,4.56-13.84,12.32-13.84a14.7,14.7,0,0,1,6.64,1.36v-3.28c0-3-1.28-4.16-4.24-4.16-3.28,0-6,1-9.52,3.2l-3.52-8.56a28.41,28.41,0,0,1,15-4.32c9.84,0,14.32,4.4,14.32,13.36v29.52Zm0-17.92a8.47,8.47,0,0,0-4.16-.88c-2.16,0-3.28,1.44-3.28,5.36,0,3.52,1,5.2,3.36,5.2a6.4,6.4,0,0,0,4.08-1.36Z"/><path d="M327,454.32l-5-17.92-2.48,4.16v13.76H307.2V400.8l12.32-4.8v19.28c0,3.28-.16,8.08-.32,11,1.2-2.48,3.28-6.64,5.52-10.72l1.76-3.2H339.6l-8.64,13,8.88,29Z"/><path d="M350.56,408.4c-4.08,0-7-2.56-7-6.4,0-3.68,2.88-6.24,7-6.24s7,2.56,7,6.24C357.52,405.84,354.72,408.4,350.56,408.4Zm-6.16,45.92v-42h12.32v42Z"/><path d="M382.72,454.32v-27.6c0-3.2-1-4.72-3-4.72a5.59,5.59,0,0,0-3.84,1.6v30.72H363.52v-42h12.32v2.4a12.15,12.15,0,0,1,8.56-3.28c7,0,10.64,4.16,10.64,13.12v29.76Z"/><path d="M412.08,469.76l-3.68-8.08c9.2-1.52,11.12-3,11.12-9v-1a10.81,10.81,0,0,1-7.84,3.36c-7.12,0-11.36-6.8-11.36-21.52,0-15.2,4.16-22.08,11.68-22.08a11.24,11.24,0,0,1,7.52,3.2v-2.32h12.32v37.6C431.84,463.44,425.92,467.76,412.08,469.76Zm7.44-46.4a5,5,0,0,0-3.6-1.52c-2.24,0-3.36,1.44-3.36,11.36,0,10.08,1.12,11.6,3.44,11.6a5.17,5.17,0,0,0,3.52-1.44Z"/><path d="M478.32,454.32v-27.6c0-3.2-1-4.72-3-4.72a5.59,5.59,0,0,0-3.84,1.6v30.72H459.12v-42h12.32v2.4a12.15,12.15,0,0,1,8.56-3.28c7,0,10.64,4.16,10.64,13.12v29.76Z"/><path d="M512,455.2c-10.16,0-16.16-7.44-16.16-21.76s5.6-22,16.32-22c10.32,0,16.24,7.44,16.24,21.76S522.56,455.2,512,455.2Zm.08-33.44c-2.88,0-4,2.8-4,11.44s1.12,11.68,4.08,11.68c2.8,0,4-3,4-11.52C516.16,424.4,515,421.76,512.08,421.76Z"/><path d="M554.72,453.52a20.17,20.17,0,0,1-8.24,1.68c-6.48,0-9.84-3.36-9.84-11.2V422.48H532V412.32h4.64v-11.6l12-4.72v16.32h7.12v10.16h-7.12v18.4c0,2.56,1,3.52,2.8,3.52a7.94,7.94,0,0,0,4.64-1.6Z"/><path d="M571.2,436.88c.32,6.72,2.08,8.64,4.88,8.64,2.48,0,4.24-1,6.8-4.72l7.28,5.76c-3.52,5.2-7.52,8.64-14.64,8.64-10.48,0-15.84-8.24-15.84-21.68,0-14.4,5.68-22.08,15.84-22.08,9.92,0,15.36,7.44,15.36,22.48v3Zm4.08-16.16c-2.48,0-3.68,1.92-4.08,8.08h8.48C579.36,423,578.16,420.72,575.28,420.72Z"/><path d="M609.2,455.2c-5.85,0-9.77-1.84-14.57-5.44l5.92-8.72c4.49,3.52,6.49,4.4,8.72,4.4,1.85,0,3.28-1,3.28-2.8s-.47-2.72-4.16-4.24c-9.76-4-12.56-7.2-12.56-14.32,0-7.6,4.8-12.64,13.92-12.64,6,0,9.61,1.92,13.77,5l-5.93,8.72c-3.92-3.28-5.76-4-7.84-4-1.83,0-2.63,1-2.63,2.32,0,1.92.55,2.72,4.39,4.32,9.37,3.84,12.49,7.36,12.49,14.4C624,450.72,618,455.2,609.2,455.2Z"/><path d="M651.12,425.84c-3.93,3.2-5.2,5.92-5.2,11H634.07c0-8.08,1.92-12.16,7.6-16.64,2.88-2.32,4.16-4.56,4.16-7.28a4.12,4.12,0,0,0-4.16-4.32c-3.36,0-5.84,2-9,6.08l-8.72-7.6c4.8-6.24,9.92-9.68,18.08-9.68,10.48,0,16.48,6,16.48,14.48C658.47,418.08,656,421.84,651.12,425.84ZM639.91,455.2a7.12,7.12,0,1,1,0-14.24,7.12,7.12,0,1,1,0,14.24Z"/></g><g id="_016_draw" data-name="016_draw"><path d="M904.17,216.51a2.09,2.09,0,0,0-.5,1.36,2.24,2.24,0,0,0,.5,1.36c.79,1,1.55,2.14,2.31,3.21l-.08-.09c2,2.84,4,5.77,5.71,8.81a70.73,70.73,0,0,1,4.47,9.38,3,3,0,0,1,.21.58c-1.42-1.31-2.86-2.58-4.34-3.8a116.56,116.56,0,0,0-11.7-8.54,103.38,103.38,0,0,0-12.87-7A68.62,68.62,0,0,0,875,217.32a53.78,53.78,0,0,0-6.39-1.13,1.55,1.55,0,0,0-1.16.55,1.88,1.88,0,0,0,0,2.49,1.55,1.55,0,0,0,1.16.52l1.37.17a64.74,64.74,0,0,1,16.76,5.36,102.55,102.55,0,0,1,22.38,14.45c1.9,1.62,3.74,3.27,5.5,5a58.62,58.62,0,0,1,4.92,5.27,2,2,0,0,0,2.53.35,2.15,2.15,0,0,0,.74-.81,2.66,2.66,0,0,0,.21-1.77,46.68,46.68,0,0,0-2.29-8.25A68.4,68.4,0,0,0,917,231.1a74.73,74.73,0,0,0-4.76-7.62c-.87-1.27-1.79-2.52-2.76-3.7s-1.84-2.2-2.79-3.27a1.64,1.64,0,0,0-1.24-.55,1.75,1.75,0,0,0-1.23.55Z" style="fill:#161616"/><path d="M906.53,203.25a2.12,2.12,0,0,0-.52,1.44,2,2,0,0,0,.52,1.42,39.49,39.49,0,0,0,6.45,4.63,51.19,51.19,0,0,0,7.18,3.33,52.24,52.24,0,0,0,6.87,2.09c-.58.14-1.16.23-1.74.32-6.18.87-12.42.11-18.57-.47a1.49,1.49,0,0,0-1.13.52,1.84,1.84,0,0,0-.48,1.22,1.92,1.92,0,0,0,.48,1.25,1.55,1.55,0,0,0,1.13.49,131.42,131.42,0,0,0,14.68,1,45.1,45.1,0,0,0,7.34-.75,28.48,28.48,0,0,0,3.55-.93,34,34,0,0,0,3.39-1.39,1.66,1.66,0,0,0,.9-.58,2.27,2.27,0,0,0,.6-1.59,2.18,2.18,0,0,0-1.5-2.17c-.79-.2-1.57-.29-2.36-.43l-2.37-.44c-1.58-.32-3.16-.69-4.71-1.13a60.27,60.27,0,0,1-9-3.27,67,67,0,0,1-8.5-4.86,1.74,1.74,0,0,0-.92-.26,1.82,1.82,0,0,0-1.32.58Z" style="fill:#161616"/><path d="M932,184.31q-4.38.83-8.76,1.74c-3.08.66-6.19,1.36-9.26,2-6,1.31-12,2.52-18.13,3.45A131.22,131.22,0,0,1,880.09,193c-2.63.08-5.26,0-7.92-.09s-5.44-.38-8.18-.55a1.77,1.77,0,0,0-1.66,1.39,1.93,1.93,0,0,0,1.19,2.32,37.34,37.34,0,0,0,8.65,1.76,61,61,0,0,0,8.66.2,109.93,109.93,0,0,0,17.57-2.22c5.79-1.13,11.5-2.55,17.24-3.94l8.49-2c1.45-.32,2.9-.67,4.35-1a37.6,37.6,0,0,1-5.13,5.41,34.13,34.13,0,0,1-7.13,4.6,26.41,26.41,0,0,1-6.69,2.06l-1.44.17a1.85,1.85,0,0,0-1.37.61,2.27,2.27,0,0,0-.55,1.48,2,2,0,0,0,1.92,2.11,26.17,26.17,0,0,0,7.63-1.79,34.22,34.22,0,0,0,7.13-3.91,37.49,37.49,0,0,0,11-12.48,2.14,2.14,0,0,0,0-1.94,2.44,2.44,0,0,0-.61-.67,1.61,1.61,0,0,0-.84-.26,2.84,2.84,0,0,0-.5.06Z" style="fill:#161616"/><path d="M866.7,216.8a80.77,80.77,0,0,0-4.39,6.86c-1.4,2.43-2.66,4.92-3.9,7.47s-2.36,5.09-3.49,7.7-2.27,5.18-3.35,7.82c-.07.17-.13.34-.21.52a2.48,2.48,0,0,0,0,1.21,2.22,2.22,0,0,0,.95,1.34,2,2,0,0,0,2.82-.82c1.1-2.43,2.13-5,3.18-7.44s2.21-5.21,3.39-7.78a89.93,89.93,0,0,1,8-14.34,2.12,2.12,0,0,0,.26-1.07,2.22,2.22,0,0,0-.55-1.47,1.87,1.87,0,0,0-1.37-.64,1.68,1.68,0,0,0-1.34.64Z" style="fill:#161616"/><path d="M850.31,241.58l.05.12Zm-4.79-7a9.49,9.49,0,0,0-3,.58,15,15,0,0,0-5.66,4,22.13,22.13,0,0,0-2,2.66,17.86,17.86,0,0,0-1.45,2.78,20.83,20.83,0,0,0-1.15,3.56,24.66,24.66,0,0,0-.53,3.91,21.49,21.49,0,0,0,.24,4.17,22.61,22.61,0,0,0,.89,3.91,28.19,28.19,0,0,0,5,8.95,1.93,1.93,0,0,0,2.87,0,2.43,2.43,0,0,0,.6-1.6l-.07-.6a2.13,2.13,0,0,0-.53-1c0-.06-.08-.11-.11-.17a30.64,30.64,0,0,1-3.34-6.08,24.51,24.51,0,0,1-1.21-4.75,18.7,18.7,0,0,1,0-4.23,19.55,19.55,0,0,1,1-4A19.88,19.88,0,0,1,839,243a17.18,17.18,0,0,1,2.32-2.58,13.33,13.33,0,0,1,2.23-1.45,8.73,8.73,0,0,1,1.85-.55,8,8,0,0,1,1.39,0,6.06,6.06,0,0,1,1,.31,8.71,8.71,0,0,1,.9.58,7.18,7.18,0,0,1,.86,1,11,11,0,0,1,.85,1.59,15.71,15.71,0,0,1,.73,3.19,28.15,28.15,0,0,1,.14,3.67,1.57,1.57,0,0,0,1.49,1.65,1.6,1.6,0,0,0,1.48-1.65,21.5,21.5,0,0,0-1.48-9.15,8.65,8.65,0,0,0-1.81-2.75,7.24,7.24,0,0,0-2.66-1.76,6.92,6.92,0,0,0-2.55-.44h-.24" style="fill:#161616"/><path d="M829.08,221.83c0,.12,0,.23,0,.35,0-.12,0-.23,0-.35Zm0-.34a1.23,1.23,0,0,0,0,.29,1.23,1.23,0,0,1,0-.29Zm13-33.47a13.64,13.64,0,0,0-3.48,1.24,13.82,13.82,0,0,0-3.08,2.14,22.14,22.14,0,0,0-4.76,6.17,43.43,43.43,0,0,0-3.47,8.54,81.8,81.8,0,0,0-2.24,9.79A174.47,174.47,0,0,0,823,238.39c-.42,11.15,0,22.3.4,33.45a2.1,2.1,0,1,0,4.18,0c0-2.35,0-4.72,0-7.07,0-3-.06-6.08-.06-9.09,0-7.18.11-14.39.5-21.54q.32-6.21,1-12.34a82.4,82.4,0,0,1,4.08-18.24,32.27,32.27,0,0,1,3.1-6.05,19.1,19.1,0,0,1,2.5-2.81,15.83,15.83,0,0,1,2.32-1.5,13.26,13.26,0,0,1,2.63-.78,12.83,12.83,0,0,1,3.39,0,21.43,21.43,0,0,1,5.32,1.7,38,38,0,0,1,5.26,3.07,2,2,0,0,0,2.79-.78,2.39,2.39,0,0,0-.74-3.07,35.64,35.64,0,0,0-9.39-4.8,19.11,19.11,0,0,0-4.29-.81c-.32,0-.63,0-.95,0a16.27,16.27,0,0,0-2.94.29" style="fill:#161616"/><path d="M838.89,269.87a1.34,1.34,0,0,0-.84.72c-.66,1.54-1.34,3.07-2.08,4.55s-1.65,3.12-2.52,4.66a1.79,1.79,0,0,0,.55,2.31,1.48,1.48,0,0,0,2.1-.6c1.58-3,3-6.2,4.37-9.38a1.73,1.73,0,0,0,.13-1.16A1.58,1.58,0,0,0,840,270a1.34,1.34,0,0,0-.71-.2,1.46,1.46,0,0,0-.37,0Z" style="fill:#161616"/><path d="M825.13,273.83a1.17,1.17,0,0,0-.71.61,1.54,1.54,0,0,0-.13,1,1.5,1.5,0,0,0,.58.78c1.55,1.3,3.13,2.6,4.71,3.88s3.32,2.6,5,3.79a1.18,1.18,0,0,0,1.69-.49,1.61,1.61,0,0,0,.13-1,1.84,1.84,0,0,0-.58-.82c-1.58-1.24-3.24-2.43-4.84-3.67s-3.32-2.58-4.95-3.94a1,1,0,0,0-.58-.17.9.9,0,0,0-.37.05Z" style="fill:#161616"/><path d="M823.84,279a1.34,1.34,0,0,0,.4,1.71c2.63,1.82,5.21,3.7,7.81,5.55a1.07,1.07,0,0,0,1.53-.43,1.48,1.48,0,0,0,.1-.95,1.15,1.15,0,0,0-.52-.73c-2.53-1.94-5.16-3.79-7.76-5.62a1.1,1.1,0,0,0-.56-.17,1.22,1.22,0,0,0-1,.64Z" style="fill:#161616"/><path d="M826.87,283.88l.08.06-.08-.06Zm-3.1-1.77a1,1,0,0,0,0,1.31,30.46,30.46,0,0,0,7.28,5.56.89.89,0,0,0,.66.08,1,1,0,0,0,.53-.43,1,1,0,0,0-.32-1.3,33.83,33.83,0,0,1-5.08-3.48c-.65-.55-1.29-1.13-1.89-1.74a.82.82,0,0,0-.61-.26.76.76,0,0,0-.57.26Z" style="fill:#161616"/><path d="M900.56,248.53l-.1.26a.93.93,0,0,0,.1-.26Zm4.66-13.9c-1.37,4.66-2.9,9.29-4.63,13.84-1.08,2.81-2.29,5.59-3.63,8.28-.74,1.42-1.5,2.81-2.27,4.2s-1.63,2.75-2.36,4.17a2.44,2.44,0,0,0,.34,2.78,2,2,0,0,0,2.92,0,33.49,33.49,0,0,0,4.52-7.39,83.34,83.34,0,0,0,3.32-8.1c1-2.67,1.87-5.39,2.66-8.14s1.65-5.76,2.5-8.63a2,2,0,0,0-1.21-2.37,2.63,2.63,0,0,0-.48-.06,1.85,1.85,0,0,0-1.68,1.42Z" style="fill:#161616"/><path d="M894.46,273c0,.09,0,.18-.05.26,0-.08,0-.17.05-.26Zm-2.13-4.51a44.1,44.1,0,0,0-1.16,9.87,34.87,34.87,0,0,0,.37,5,18.13,18.13,0,0,0,1.42,5.09,1.47,1.47,0,0,0,1.73.81,1.79,1.79,0,0,0,1.11-2.11c-.26-1.1-.58-2.17-.82-3.24s-.42-2.09-.55-3.13a35.43,35.43,0,0,1,0-7.84c.16-1.22.37-2.44.63-3.62a1.58,1.58,0,0,0-1-1.94,1.43,1.43,0,0,0-.37-.06,1.5,1.5,0,0,0-1.39,1.16Z" style="fill:#161616"/><path d="M887.07,286.4a2.38,2.38,0,0,0,0,3.18,1.89,1.89,0,0,0,1.44.67,44.23,44.23,0,0,0,5.87.06,2.24,2.24,0,0,0,0-4.46,42.55,42.55,0,0,1-5.87-.12s0,0-.1,0a2,2,0,0,0-1.34.7Z" style="fill:#161616"/><path d="M886.67,289.38a39.56,39.56,0,0,1-2.39,4,70.65,70.65,0,0,1-5.63,6.77c-1.06,1.13-2.13,2.23-3.16,3.36a28.32,28.32,0,0,0-3,3.73,2.09,2.09,0,0,0,.26,2.35,1.63,1.63,0,0,0,2.13.29A16.9,16.9,0,0,0,877,308.2c.74-.66,1.42-1.36,2.11-2.08a55.87,55.87,0,0,0,3.86-4.55,68.86,68.86,0,0,0,6.53-10.34,1.91,1.91,0,0,0-.61-2.49,1.37,1.37,0,0,0-.81-.26,1.62,1.62,0,0,0-1.45.9Z" style="fill:#161616"/><path d="M840.31,290.8a1.85,1.85,0,0,0-.47,1.25,1.89,1.89,0,0,0,.47,1.24,35.19,35.19,0,0,0,3.37,3.53q1.82,1.69,3.79,3.22a58.54,58.54,0,0,0,7.71,5,69,69,0,0,0,17.63,6.75,1.55,1.55,0,0,0,1.89-1.19,1.71,1.71,0,0,0-1.08-2.08,60.08,60.08,0,0,1-11-3.79,65.35,65.35,0,0,1-10.42-6.2c-1.68-1.24-3.37-2.55-5-3.88s-3.29-2.81-5-4.14a1.16,1.16,0,0,0-.73-.26,1.64,1.64,0,0,0-1.19.52Z" style="fill:#161616"/><path d="M868.52,284.78a1.76,1.76,0,0,0-1,.84,2.26,2.26,0,0,0-.16,1.45,18.91,18.91,0,0,0,2.24,6.77,14,14,0,0,0,5,5.24,1.67,1.67,0,0,0,2.37-.69,2,2,0,0,0-.61-2.58l-1-.84a15.22,15.22,0,0,1-2.42-2.64,13.64,13.64,0,0,1-1.45-2.69,16.83,16.83,0,0,1-.87-3.56,1.9,1.9,0,0,0-.79-1.13,1.56,1.56,0,0,0-.87-.26,1.19,1.19,0,0,0-.44.09Z" style="fill:#161616"/><path d="M880.09,232.6a15.8,15.8,0,0,0-5.1,2,1.48,1.48,0,0,0-.45,1.91,1.21,1.21,0,0,0,1.71.5c.4-.24.82-.47,1.21-.67a14.83,14.83,0,0,1,3.5-1,13.28,13.28,0,0,1,3.45,0,15,15,0,0,1,3.47,1,18.22,18.22,0,0,1,3.53,2.29c.47.43.94.89,1.42,1.36a1.23,1.23,0,0,0,1.86,0,1.57,1.57,0,0,0,0-2.06,17.37,17.37,0,0,0-9.31-5.3,13.79,13.79,0,0,0-2.63-.26h0a16.26,16.26,0,0,0-2.61.26Z" style="fill:#161616"/><path d="M876.49,244.45a16.6,16.6,0,0,0-2.45.63,1.8,1.8,0,0,0-1.1,2.15,1.55,1.55,0,0,0,1.92,1.18,13.24,13.24,0,0,1,2.31-.58,12.18,12.18,0,0,1,2.63,0,13.11,13.11,0,0,1,2.08.61,11.19,11.19,0,0,1,1.79,1.16,11.39,11.39,0,0,1,1.58,1.74,19.38,19.38,0,0,1,1.71,3.33,1.37,1.37,0,0,0,.55.63,1.44,1.44,0,0,0,1.24.18,1.58,1.58,0,0,0,1-.81,1.81,1.81,0,0,0,.18-1.33,20.57,20.57,0,0,0-1.13-2.67,14.26,14.26,0,0,0-1.5-2.23,12.2,12.2,0,0,0-1.76-1.76,9.79,9.79,0,0,0-1.84-1.19,10.82,10.82,0,0,0-4.64-1.19,1.27,1.27,0,0,0-.34,0,13.2,13.2,0,0,0-2.18.21Z" style="fill:#161616"/><path d="M883.59,250.18c-.52,1.07-1.16,2.08-1.66,3.15a14.81,14.81,0,0,0-.76,2,10,10,0,0,0-.34,2.17,2.3,2.3,0,0,0,.58,1.6,2,2,0,0,0,2,.55,7.67,7.67,0,0,0,1.82-.7,7.31,7.31,0,0,0,1.63-1.27,10.29,10.29,0,0,0,1-1.25c.45-.6.9-1.24,1.32-1.88a2.17,2.17,0,0,0,.26-1,2.11,2.11,0,0,0-.55-1.42,1.88,1.88,0,0,0-.79-.52,2,2,0,0,0-.84,0,2.26,2.26,0,0,0-1-2.17,1.76,1.76,0,0,0-1-.29,1.9,1.9,0,0,0-1.71,1.07Z" style="fill:#161616"/><path d="M824.77,274.82a2.2,2.2,0,0,0-.77,1.07c-.26.78-.55,1.53-.84,2.32-1.1,2.89-2.31,5.76-3.55,8.59-.61,1.42-1.24,2.84-1.87,4.26s-1.39,3-2.08,4.58a2.36,2.36,0,0,0-.18,1.53,2.07,2.07,0,0,0,.81,1.19,1.75,1.75,0,0,0,2.48-.73c.81-1.59,1.55-3.24,2.26-4.86s1.53-3.53,2.24-5.33c1.36-3.47,2.68-7,3.92-10.57a1.86,1.86,0,0,0-.16-1.39,1.6,1.6,0,0,0-1-.84,1.25,1.25,0,0,0-.42-.08,1.46,1.46,0,0,0-.84.26Z" style="fill:#161616"/><path d="M843.87,296a40.79,40.79,0,0,0-8,9.32,1.92,1.92,0,0,0,.6,2.52,1.6,1.6,0,0,0,2.29-.66,36.34,36.34,0,0,1,2.16-3.54,30.92,30.92,0,0,1,5-5.44,1.65,1.65,0,0,0,0-2.2,1.32,1.32,0,0,0-2,0Z" style="fill:#161616"/><path d="M823.34,305.19a.58.58,0,0,0,.14.12.58.58,0,0,1-.14-.12Zm-11.52-10.28a1.77,1.77,0,0,0,.55,2.29,94.54,94.54,0,0,1,11.16,8.16,146.72,146.72,0,0,1,10.79,10.25c1.73,1.83,3.44,3.74,5.1,5.65.84.95,1.66,1.94,2.5,2.89a19.94,19.94,0,0,0,2.74,2.84,1.44,1.44,0,0,0,.89.29,1.86,1.86,0,0,0,1.29-.58,2.17,2.17,0,0,0,.26-2.4,13.59,13.59,0,0,0-1.58-2.23c-.6-.75-1.23-1.45-1.86-2.17-1.27-1.42-2.58-2.81-3.87-4.2q-3.94-4.12-8.13-8A118.75,118.75,0,0,0,813.9,294.3a1.49,1.49,0,0,0-.76-.2,1.51,1.51,0,0,0-1.32.81Z" style="fill:#161616"/><path d="M809.8,294.45c-1.64,2.34-3.24,4.72-4.69,7.21a2.11,2.11,0,0,0,.66,2.69,1.72,1.72,0,0,0,2.45-.72c1.31-2.2,2.68-4.4,4.13-6.52a1.42,1.42,0,0,0,.21-.29,1.92,1.92,0,0,0,.26-1,2,2,0,0,0-.52-1.39,1.78,1.78,0,0,0-1.27-.55,1.59,1.59,0,0,0-1.23.55Z" style="fill:#161616"/><path d="M805.24,305.83a2.3,2.3,0,0,0,.19,1.65,2.06,2.06,0,0,0,1.16,1c4.63,1.68,9.2,3.53,13.7,5.62a124.86,124.86,0,0,1,11.47,6.11c1.87,1.13,3.71,2.34,5.53,3.59.89.61,1.79,1.24,2.68,1.88s1.92,1.45,2.92,2.08a1.59,1.59,0,0,0,2.05-.28,2,2,0,0,0,0-2.64,35.6,35.6,0,0,0-4.1-3.59c-1.39-1.1-2.81-2.08-4.29-3.07a91.93,91.93,0,0,0-9.34-5.44,165.6,165.6,0,0,0-19.57-8.4,1.64,1.64,0,0,0-.53-.09,2,2,0,0,0-1.87,1.6Z" style="fill:#161616"/><path d="M834.39,321.43l.22.09-.22-.09Zm-1.63-.34a1.78,1.78,0,0,0-1,.89,2.06,2.06,0,0,0-.19,1.48,1.89,1.89,0,0,0,.82,1.16,128.67,128.67,0,0,0,16,6.19c2.73.87,5.47,1.68,8.21,2.41,1.36.37,2.76.72,4.13,1A34.85,34.85,0,0,0,865,335a1.58,1.58,0,0,0,1.53-1.27,1.81,1.81,0,0,0-.71-2,24.63,24.63,0,0,0-3.76-1.56c-1.34-.47-2.69-.87-4.05-1.28-2.63-.78-5.29-1.45-7.95-2.14a101.75,101.75,0,0,1-15.73-5.39,2.56,2.56,0,0,1-.24-.11,2.33,2.33,0,0,1-.42-.2,1.91,1.91,0,0,0-1,0Z" style="fill:#161616"/><path d="M865.91,331.83a2.21,2.21,0,0,0-1.29,1.07,2.6,2.6,0,0,0-.21,1.82c3.74,11.24,7.76,22.35,12.16,33.3,2.21,5.47,4.52,10.86,7,16.16,1.31,2.69,2.68,5.32,4.08,8a86.7,86.7,0,0,0,4.42,7.67,2.42,2.42,0,0,0,1.39,1.19,2.17,2.17,0,0,0,1.82-.26,2.5,2.5,0,0,0,1.07-1.54,2.87,2.87,0,0,0-.23-2c-1.76-4.11-3.76-8.1-5.68-12.13-2-4.2-4-8.39-6-12.62-3.94-8.37-7.76-16.82-11.13-25.51-1.71-4.46-3.34-8.95-4.84-13.49a2.55,2.55,0,0,0-1-1.39,2.16,2.16,0,0,0-1.1-.32,1.82,1.82,0,0,0-.56.09Z" style="fill:#161616"/><path d="M848.29,374.48a1.91,1.91,0,0,0-1.14.95,2.37,2.37,0,0,0-.21,1.62,200.24,200.24,0,0,0,14.76,31.88c2.92,5.15,6,10.19,9.16,15.17,1.66,2.61,3.37,5.13,5.13,7.65.81,1.12,1.63,2.23,2.47,3.33.42.52.87,1,1.29,1.53a16,16,0,0,0,1.9,1.79,5.15,5.15,0,0,1-.48-.37l.32.26a2,2,0,0,0,.94.64,2.23,2.23,0,0,0,1.69-.26,2.58,2.58,0,0,0,.79-3.28c-.32-.6-.58-1.24-.92-1.82s-.87-1.39-1.32-2.08c-.89-1.37-1.84-2.7-2.79-4-1.81-2.55-3.68-5.1-5.5-7.67-8.81-12.6-16.91-26-22.6-40.65-.42-1.07-.78-2.15-1.18-3.22a2.1,2.1,0,0,0-.87-1.24,1.85,1.85,0,0,0-.94-.29,1.31,1.31,0,0,0-.5.09Z" style="fill:#161616"/><path d="M943.47,406.53c-.6.4-1.24.75-1.84,1.16s-1.45.95-2.16,1.44c-1.44,1-2.87,2.06-4.31,3.1-2.95,2.14-5.9,4.32-8.89,6.37a129.8,129.8,0,0,1-18.53,10.86A67.6,67.6,0,0,1,890.27,435c-1.31.17-2.63.32-3.94.37a2.2,2.2,0,0,0-1.5.7,2.48,2.48,0,0,0-.63,1.68,2.27,2.27,0,0,0,2.13,2.34,60.06,60.06,0,0,0,15.92-3.27,100,100,0,0,0,15.6-7.15c5-2.78,9.92-5.94,14.7-9.21,2.34-1.62,4.66-3.27,6.92-5,1.08-.84,2.19-1.7,3.24-2.6.55-.44,1.08-.9,1.6-1.36s1.08-1,1.63-1.48a2.39,2.39,0,0,0,.53-1,2.56,2.56,0,0,0-.21-1.71,2,2,0,0,0-1.79-1.13,1.82,1.82,0,0,0-1,.32Z" style="fill:#161616"/><path d="M931.08,390.34c-2.92.93-5.76,2.17-8.6,3.3-3,1.22-6.05,2.41-9.11,3.45-6.07,2.14-12.23,4-18.44,5.53a2.07,2.07,0,0,0-1.29,2.46,2.11,2.11,0,0,0,.84,1.19,1.78,1.78,0,0,0,1.42.2c6.21-1.48,12.45-3,18.61-4.92,3.07-.93,6.15-1.94,9.18-3.07,1.5-.58,3-1.19,4.47-1.85a36.63,36.63,0,0,0,4.45-2.29,2.31,2.31,0,0,0,.92-2.49,2.07,2.07,0,0,0-1.92-1.59,1.51,1.51,0,0,0-.53.08Z" style="fill:#161616"/><path d="M932.16,390.52a2.33,2.33,0,0,0,1.45,2.78c.78.26,1.55.55,2.31.86a18.69,18.69,0,0,1,3.53,2.26,17.52,17.52,0,0,1,2.34,2.52,16.83,16.83,0,0,1,1.47,2.75,18,18,0,0,1,.76,3.16,22.45,22.45,0,0,1,.08,3.07,2.06,2.06,0,0,0,1.4,2,1.66,1.66,0,0,0,1.44-.2,1.94,1.94,0,0,0,.87-1.24,19,19,0,0,0,.24-3.27,21.33,21.33,0,0,0-.47-3.42,19.76,19.76,0,0,0-1.11-3.13,17.78,17.78,0,0,0-1.66-2.75A19.47,19.47,0,0,0,934.68,389a1.46,1.46,0,0,0-.52-.08,2.13,2.13,0,0,0-2,1.65Z" style="fill:#161616"/><path d="M933.82,382.73a8.76,8.76,0,0,0-.82.66,7,7,0,0,0-.79,1.05,5.86,5.86,0,0,0-.84,2,8.58,8.58,0,0,0-.16,1.1,8.92,8.92,0,0,0,0,1.16,10.84,10.84,0,0,0,.44,2.38,1.72,1.72,0,0,0,.71,1,1.36,1.36,0,0,0,1.16.17,1.67,1.67,0,0,0,1-2,9,9,0,0,1-.31-1.33,5.06,5.06,0,0,1,0-1.16,5.3,5.3,0,0,1,.24-1,8.63,8.63,0,0,1,.55-1c.16-.2.32-.38.47-.58a1.64,1.64,0,0,0,.24-1.85,1.52,1.52,0,0,0-1.24-.75.89.89,0,0,0-.65.23Z" style="fill:#161616"/><path d="M936.08,380.35a1.63,1.63,0,0,0-.42,1.1,1.58,1.58,0,0,0,.42,1.07c.1.09.18.18.29.27a1.25,1.25,0,0,0,.71.2.32.32,0,0,1,.16,0,26.52,26.52,0,0,1,3.07.63c1.08.29,2.16.7,3.24,1.1a1.4,1.4,0,0,0,1.71-1.07,1.65,1.65,0,0,0-.13-1.18,1.48,1.48,0,0,0-.84-.7,25.56,25.56,0,0,0-7.21-1.91H937a1.26,1.26,0,0,0-.89.46Z" style="fill:#161616"/><path d="M962.1,377.46a46.08,46.08,0,0,0-5,.84c-1.6.35-3.21.72-4.79,1.1-3.28.81-6.57,1.71-9.84,2.57a1.84,1.84,0,0,0-1.15,2.23,1.64,1.64,0,0,0,2,1.28c3.19-.84,6.37-1.65,9.55-2.46,1.61-.41,3.19-.78,4.79-1.19s3.18-.75,4.76-1.22a1.61,1.61,0,0,0,1.06-1.56,1.58,1.58,0,0,0-.43-1.13,1.38,1.38,0,0,0-.94-.49.08.08,0,0,0-.08,0Z" style="fill:#161616"/><path d="M963,377.89a1.34,1.34,0,0,0-.85.7,1.65,1.65,0,0,0-.13,1.18c.32,2.32.61,4.67,1,7a1.35,1.35,0,0,0,1.31,1.1,1.23,1.23,0,0,0,.95-.43,1.39,1.39,0,0,0,.4-1c-.29-2.49-.66-5-1-7.42A1.46,1.46,0,0,0,964,378a1.17,1.17,0,0,0-.69-.21.7.7,0,0,0-.36.06Z" style="fill:#161616"/><path d="M963.52,384.23a1.59,1.59,0,0,0-.9.76l-1.89,2.92a1.85,1.85,0,0,0-.16,1.24,1.71,1.71,0,0,0,.69,1,1.34,1.34,0,0,0,1.15.17,1.87,1.87,0,0,0,.9-.75c.63-1,1.26-1.94,1.89-2.92a1.77,1.77,0,0,0,.16-1.28,1.81,1.81,0,0,0-.68-1,1.41,1.41,0,0,0-.77-.2,1,1,0,0,0-.39.05Z" style="fill:#161616"/><path d="M960.62,386.78a1.52,1.52,0,0,0-.63.87c0,.14,0,.26,0,.41a1.51,1.51,0,0,0,.18.75c1,2.6,2.13,5.15,3.37,7.67a1.26,1.26,0,0,0,1.84.52,1.54,1.54,0,0,0,.47-2c-1.21-2.51-2.34-5.06-3.36-7.67a1.33,1.33,0,0,0-.82-.69,1.31,1.31,0,0,0-.34,0,1.25,1.25,0,0,0-.69.2Z" style="fill:#161616"/><path d="M962.81,395.7c-.95,1.76-2,3.5-3,5.18a1.62,1.62,0,0,0-.13,1.22,1.6,1.6,0,0,0,.65.95,1.3,1.3,0,0,0,1.11.18,1.53,1.53,0,0,0,.87-.73,59.71,59.71,0,0,0,3-5.18,1.71,1.71,0,0,0-.5-2.2,1.3,1.3,0,0,0-.73-.2,1.42,1.42,0,0,0-1.24.78Z" style="fill:#161616"/><path d="M958.13,408.26c-1.08.09-2.16.24-3.24.32s-2.32.15-3.5.18a47.38,47.38,0,0,1-6.73-.38,1.06,1.06,0,0,0-.87.38,1.53,1.53,0,0,0-.34.95,1.56,1.56,0,0,0,.34,1,1.24,1.24,0,0,0,.87.4,63.31,63.31,0,0,0,6.73.52,33.8,33.8,0,0,0,7.1-.49,1.11,1.11,0,0,0,.58-.37,1.54,1.54,0,0,0,.37-1,1.43,1.43,0,0,0-1.21-1.45Z" style="fill:#161616"/><path d="M960,400.74a17,17,0,0,0-1.42,3.27,24.18,24.18,0,0,0-1,3.65,1.68,1.68,0,0,0,.16,1.18,1.47,1.47,0,0,0,.84.73,1.4,1.4,0,0,0,1.74-1.1c.24-1.13.5-2.29.84-3.39s.76-2.2,1.11-3.3a1.4,1.4,0,0,0-.56-1.54,1.11,1.11,0,0,0-.63-.2,1.32,1.32,0,0,0-1.1.7Z" style="fill:#161616"/><path d="M935.05,361a1.44,1.44,0,0,0,0,1.89c2.84,2.83,5.74,5.64,8.61,8.48,1.42,1.42,2.84,2.84,4.26,4.28s2.73,3,4.18,4.38a1.35,1.35,0,0,0,1,.43,1.26,1.26,0,0,0,1-.43,1.65,1.65,0,0,0,0-2.18c-1.34-1.5-2.82-2.86-4.26-4.28l-4.35-4.17c-2.92-2.78-5.81-5.56-8.68-8.4a1.24,1.24,0,0,0-.89-.37,1.09,1.09,0,0,0-.82.37Z" style="fill:#161616"/><path d="M935.42,360.4a11.81,11.81,0,0,0-2.74,2.23,16.67,16.67,0,0,0-1.1,1.51,8.53,8.53,0,0,0-.79,1.74,1.89,1.89,0,0,0,0,.75,1.55,1.55,0,0,0,.61.87,1.26,1.26,0,0,0,1.78-.52c.27-.52.58-1.05.9-1.54a12.91,12.91,0,0,1,1.45-1.59,9.38,9.38,0,0,1,1.26-.87,1.6,1.6,0,0,0,.5-2,1.31,1.31,0,0,0-1.19-.72,1.49,1.49,0,0,0-.68.17Z" style="fill:#161616"/><path d="M931.19,365a1.79,1.79,0,0,0,0,2.37c2.68,2.52,5.34,5,8,7.62,1.37,1.3,2.71,2.63,4,4,.66.64,1.29,1.28,2,1.88a13,13,0,0,0,2.39,2,1.38,1.38,0,0,0,1.82-.26,1.84,1.84,0,0,0,.23-2,15.58,15.58,0,0,0-2.71-3.44c-1-1-2-2-3-2.9-2.18-2-4.45-3.85-6.68-5.73,0,0,0,0,0,0-1.31-1.16-2.65-2.32-3.94-3.53a1.57,1.57,0,0,0-1.08-.47,1.43,1.43,0,0,0-1,.47Z" style="fill:#161616"/><path d="M932.08,366.19a1.8,1.8,0,0,0,0,2.35c2.39,2.55,4.81,5,7.26,7.5,1.24,1.24,2.47,2.46,3.74,3.65.65.63,1.34,1.24,2,1.85a16.81,16.81,0,0,0,2.21,1.77,1.42,1.42,0,0,0,1.79-.26,1.85,1.85,0,0,0,.42-1.16,1.75,1.75,0,0,0-.42-1.13,16.57,16.57,0,0,0-1.68-1.77c-.66-.63-1.34-1.24-2-1.88q-1.89-1.74-3.79-3.53c-2.5-2.41-5-4.87-7.36-7.39a1.6,1.6,0,0,0-1.08-.49,1.39,1.39,0,0,0-1.08.49Z" style="fill:#161616"/><path d="M937.18,364.92c-.39.49-.73,1-1.1,1.56s-.84,1.13-1.29,1.65a2.11,2.11,0,0,0,0,2.76,1.65,1.65,0,0,0,2.5,0c.42-.5.84-1,1.24-1.57a11.71,11.71,0,0,0,1.31-2.17,2.19,2.19,0,0,0,.21-.93,1.94,1.94,0,0,0-.47-1.3,1.58,1.58,0,0,0-2.4,0Z" style="fill:#161616"/><path d="M934.39,362.26a2,2,0,0,0-.44,1.24,2,2,0,0,0,.44,1.22c.56.72,1.11,1.45,1.66,2.14a1.44,1.44,0,0,0,2.19,0,1.82,1.82,0,0,0,.47-1.22,1.87,1.87,0,0,0-.47-1.21c-.53-.72-1.06-1.45-1.61-2.17a1.51,1.51,0,0,0-1.1-.49,1.55,1.55,0,0,0-1.14.49Z" style="fill:#161616"/><path d="M962.36,392.77a1.39,1.39,0,0,0,0,1.86c.53.66,1,1.33,1.53,2,.26.4.55.81.81,1.21l-.5-.26a1.34,1.34,0,0,0-1.05-.14,1.25,1.25,0,0,0-.82.69,1.61,1.61,0,0,0,.48,2.06c.74.49,1.47,1,2.23,1.44a8.67,8.67,0,0,0,2.64,1.13,1.27,1.27,0,0,0,1.31-.37,1.6,1.6,0,0,0,.21-1.8,35.93,35.93,0,0,0-2.34-4,44.87,44.87,0,0,0-2.81-3.83,1.11,1.11,0,0,0-.85-.37,1.06,1.06,0,0,0-.84.37Z" style="fill:#161616"/><path d="M894.67,372.71a1.67,1.67,0,0,0-1,.84,1.88,1.88,0,0,0,.57,2.46c2.58,1.45,5.27,2.66,7.9,4,1.26.63,2.55,1.3,3.78,2-.13,0-.23,0-.34.06a28.59,28.59,0,0,1-7.73-.09,42.1,42.1,0,0,1-8.55-2.31,1.66,1.66,0,0,0-2,1.27,2.13,2.13,0,0,0,.16,1.39,1.82,1.82,0,0,0,1,.84,43.17,43.17,0,0,0,11.26,2.72,26,26,0,0,0,11.42-1.24,2,2,0,0,0,1.26-1.42,1.78,1.78,0,0,0,0-1.07,3,3,0,0,0-.18-.47,1.71,1.71,0,0,0-.66-.72,33.91,33.91,0,0,0-7.53-4.52c-2.78-1.33-5.65-2.52-8.49-3.76a2.32,2.32,0,0,0-.45-.06,2,2,0,0,0-.42.06Z" style="fill:#161616"/><path d="M906.11,368.28c-1.79.64-3.58,1.33-5.36,2s-3.85,1.19-5.79,1.68a1.63,1.63,0,0,0-1,2,1.51,1.51,0,0,0,1.82,1.15c1.84-.46,3.68-1,5.52-1.53a43.6,43.6,0,0,0,5.63-2.06,2.56,2.56,0,0,0,.37-.17,1.48,1.48,0,0,0,.53-.58,1.74,1.74,0,0,0,.15-1.27,1.54,1.54,0,0,0-1.44-1.22,1.84,1.84,0,0,0-.4.06Z" style="fill:#161616"/><path d="M906.59,368.19a1.74,1.74,0,0,0,.55,2.26,28.66,28.66,0,0,0,9.08,3.76,17.14,17.14,0,0,0,4.68.27,11.78,11.78,0,0,0,5-1.48,1.7,1.7,0,0,0,.66-1.8,1.63,1.63,0,0,0-.66-.92,1.47,1.47,0,0,0-1.13-.18c-.92.18-1.84.41-2.76.55a18.22,18.22,0,0,1-5.11,0,23.17,23.17,0,0,1-5.68-1.7,26.82,26.82,0,0,1-2.53-1.37,1.62,1.62,0,0,0-.78-.2,1.44,1.44,0,0,0-1.29.81Z" style="fill:#161616"/><path d="M907,360.11a2.21,2.21,0,0,0-.18,1.51,1.94,1.94,0,0,0,.82,1.19c1.52.69,3,1.36,4.55,2.08A61.39,61.39,0,0,1,924.29,372a1.56,1.56,0,0,0,1.37.21,1.9,1.9,0,0,0,1.05-.87,2.15,2.15,0,0,0,.16-1.51,2.17,2.17,0,0,0-.79-1.16,60.19,60.19,0,0,0-8.15-5.35,65.24,65.24,0,0,0-8.9-4.14,1.08,1.08,0,0,0-.44-.09,1.85,1.85,0,0,0-1.56,1Z" style="fill:#161616"/><path d="M907.61,358.67c-3.21.32-6.44.52-9.68.89a1.45,1.45,0,0,0-1,.47,1.7,1.7,0,0,0-.45,1.16,1.59,1.59,0,0,0,1.5,1.65c3.24-.21,6.47-.61,9.68-1a1.5,1.5,0,0,0,1-.49,1.67,1.67,0,0,0,.43-1.13,1.71,1.71,0,0,0-.43-1.13,1.35,1.35,0,0,0-.94-.46Z" style="fill:#161616"/><path d="M885.28,353.74a22,22,0,0,0-3.77,1.34,19.68,19.68,0,0,0-3.92,2.31,1.7,1.7,0,0,0-.73,1.05,1.78,1.78,0,0,0,1.1,2.14,1.61,1.61,0,0,0,1.21-.18c.74-.4,1.45-.78,2.19-1.12a28.75,28.75,0,0,1,7.2-2.18,29.7,29.7,0,0,1,7.71,0,32.28,32.28,0,0,1,7.55,2.26,34.38,34.38,0,0,1,3.82,2.17,1.45,1.45,0,0,0,2.08-.61,1.78,1.78,0,0,0-.56-2.25,34,34,0,0,0-15.57-5.62c-.68-.06-1.39-.09-2.1-.09a26.51,26.51,0,0,0-6.21.75Z" style="fill:#161616"/><path d="M944.73,367.79a1.74,1.74,0,0,0,1.08,2.08c9.11,3.3,18.16,6.78,27.21,10.28,4.47,1.71,8.94,3.47,13.41,5.15,2.24.87,4.5,1.68,6.74,2.49s4.71,1.68,7.08,2.44a1.41,1.41,0,0,0,1.73-1.08,1.7,1.7,0,0,0-.13-1.21,1.58,1.58,0,0,0-.84-.7c-2.21-1-4.45-1.88-6.68-2.8s-4.45-1.77-6.69-2.64q-6.85-2.66-13.76-5.21-13.57-5.08-27.25-10a1,1,0,0,0-.42-.06,1.58,1.58,0,0,0-1.48,1.25Z" style="fill:#161616"/><path d="M983.72,402s0,0-.05.06l.05-.06ZM1000,387.22a106.56,106.56,0,0,0-11.87,7.61c-3.86,2.84-7.57,5.94-11.2,9.09-7.34,6.43-14.32,13.29-21.47,19.95-4.76,4.46-9.6,8.86-14.55,13.06-2.47,2.11-5,4.17-7.6,6.17a2,2,0,0,0-.79,1.12,2,2,0,0,0,.18,1.48,1.67,1.67,0,0,0,2.37.7,106.79,106.79,0,0,0,11.63-8.75c3.68-3.12,7.18-6.51,10.65-10s6.87-7,10.34-10.48c1.71-1.74,3.42-3.47,5.18-5.18s3.5-3.39,5.27-5,3.65-3.3,5.52-4.89a.73.73,0,0,0-.18.14l.23-.2s0,0,.06,0,0,0-.06,0a105.89,105.89,0,0,1,17.63-12.31,1.55,1.55,0,0,0,.47-2,1.27,1.27,0,0,0-1.13-.7,1.47,1.47,0,0,0-.68.18Z" style="fill:#161616"/><path d="M922.19,439.19Zm-15.81-6.63a1.77,1.77,0,0,0,.55,2.28c4.44,2.61,9,5.07,13.6,7.36,2.34,1.16,4.71,2.26,7.1,3.33a79.26,79.26,0,0,0,7.42,2.92,1.66,1.66,0,0,0,2-1.27,1.9,1.9,0,0,0-.16-1.42,1.82,1.82,0,0,0-1-.84c-2.26-1-4.55-1.77-6.84-2.69s-4.6-2-6.89-3a1.58,1.58,0,0,0,.23.11,1.58,1.58,0,0,1-.23-.11.31.31,0,0,1-.16-.06c.05,0,.1,0,.16.06-4.69-2.17-9.26-4.61-13.74-7.24a1.41,1.41,0,0,0-.76-.23,1.48,1.48,0,0,0-1.31.84Z" style="fill:#161616"/><path d="M923,371.84c-1.15.78-2.29,1.68-3.44,2.52s-2.37,1.71-3.58,2.55c-2.55,1.71-5.18,3.33-7.84,4.86-5.24,3-10.63,5.76-15.89,8.75a1.7,1.7,0,0,0-.53,2.2,1.61,1.61,0,0,0,.9.75,1.42,1.42,0,0,0,1.13-.17c5.26-3,10.68-5.62,15.94-8.63a88.05,88.05,0,0,0,7.76-5c1.24-.9,2.45-1.86,3.61-2.84a22.17,22.17,0,0,0,3.15-3.27,1.48,1.48,0,0,0,.27-.49,1.32,1.32,0,0,0-.11-.84,1,1,0,0,0-1.37-.41Z" style="fill:#161616"/><path d="M903.3,434.87a1.88,1.88,0,0,0,.58,2.43,159.38,159.38,0,0,0,14.89,8.63c2.65,1.36,5.31,2.61,8.05,3.77,1.29.55,2.63,1,3.94,1.5a27.21,27.21,0,0,0,4,1.16,1.34,1.34,0,0,0,.69,0,1.18,1.18,0,0,0,.73-.64,1.49,1.49,0,0,0-.44-1.91c-.87-.46-1.79-.87-2.69-1.24s-1.79-.81-2.68-1.19c-1.82-.81-3.66-1.65-5.5-2.49a161.56,161.56,0,0,1-19.36-10.65,1.4,1.4,0,0,0-.82-.24,1.6,1.6,0,0,0-1.39.87Z" style="fill:#161616"/><path d="M997.38,396.57c-2,1.36-3.84,2.86-5.71,4.4s-3.79,3.18-5.66,4.8c-3.65,3.19-7.23,6.49-10.78,9.82-7.13,6.6-14.18,13.35-21.37,19.92q-7.1,6.51-14.41,12.74c.1-.09.23-.17.34-.26l-.9.75a4.11,4.11,0,0,0-.31.29,1.59,1.59,0,0,0-.42.75,2,2,0,0,0,.15,1.36,1.65,1.65,0,0,0,1,.82,1.47,1.47,0,0,0,1.24-.18c7.44-6.31,14.68-12.85,21.91-19.46s14.34-13.17,21.52-19.74c2.5-2.29,5-4.58,7.53-6.89,1.21-1.1,2.42-2.23,3.63-3.36s2.53-2.4,3.76-3.65a1.46,1.46,0,0,0,.19-1.62,1.3,1.3,0,0,0-1.08-.67,1,1,0,0,0-.58.18Z" style="fill:#161616"/><path d="M994.2,391.53a1.59,1.59,0,0,0-1,.78,1.88,1.88,0,0,0-.16,1.36,1.57,1.57,0,0,0,.71,1,47,47,0,0,0,5.68,2.55,1.57,1.57,0,0,0,1.95-1.21,2,2,0,0,0-.16-1.34,1.73,1.73,0,0,0-.94-.81c-1-.4-2.06-.84-3.08-1.3-.61-.29-1.24-.58-1.84-.9a1.75,1.75,0,0,0-.82-.23.89.89,0,0,0-.39.06Z" style="fill:#161616"/><path d="M804.27,305.13a118.77,118.77,0,0,0-11.21,12.94,78.57,78.57,0,0,0-4.94,7.65,34.83,34.83,0,0,0-3.5,8.42,2.15,2.15,0,0,0,.87,2.35,1.79,1.79,0,0,0,2.55-.75c1.23-2.55,2.42-5.13,3.76-7.65s2.76-4.72,4.29-6.95a104.94,104.94,0,0,1,11-12.91,2.39,2.39,0,0,0,0-3.1,1.83,1.83,0,0,0-1.37-.63,2.1,2.1,0,0,0-1.45.63Z" style="fill:#161616"/><path d="M732.79,324.15a2,2,0,0,0-.84,1.22,2,2,0,0,0,1.29,2.49c13.47,3,26.83,6.49,40.12,10.37s26.54,8.22,39.75,12.62c3.92,1.3,7.81,2.66,11.79,3.85a2.21,2.21,0,0,0,2.73-1.71,2.6,2.6,0,0,0-.23-1.88,5.26,5.26,0,0,0-.35-.52,2.2,2.2,0,0,0-1-.61c-3.16-1.48-6.39-2.72-9.63-3.94s-6.52-2.37-9.81-3.44c-6.6-2.2-13.26-4.17-19.94-6.05s-13.45-3.59-20.21-5.21-13.47-3.22-20.23-4.72c-4-.9-8-1.8-12-2.67a3.07,3.07,0,0,0-.53-.06,1.53,1.53,0,0,0-.89.26Z" style="fill:#161616"/><path d="M727,332.58a1.77,1.77,0,0,0,1.66,1.82,102.11,102.11,0,0,1,11,1,201.67,201.67,0,0,1,31.44,7.87c10.55,3.45,21,7.41,31.46,11.15,2.48.87,4.95,1.74,7.45,2.58,1.16.4,2.31.78,3.5,1.13s2.47.75,3.71,1.13a1.63,1.63,0,0,0,2-1.28,2,2,0,0,0-.15-1.39,1.91,1.91,0,0,0-1-.84c-1.11-.43-2.21-.9-3.35-1.36s-2.47-1-3.7-1.45c-2.48-1-4.92-1.91-7.4-2.83q-7.73-2.91-15.49-5.65a332.08,332.08,0,0,0-32.1-9.64,139.39,139.39,0,0,0-27.41-4.08.1.1,0,0,0-.06,0,1.79,1.79,0,0,0-1.6,1.85Z" style="fill:#161616"/><path d="M823.82,354.24c-2.21.66-4.4,1.42-6.61,2.08a2,2,0,0,0-1.23,2.41,1.79,1.79,0,0,0,2.18,1.36c2.21-.64,4.45-1.28,6.58-2.12a1.82,1.82,0,0,0,1-.9,2,2,0,0,0,.19-1.47,1.78,1.78,0,0,0-1.71-1.42,1.22,1.22,0,0,0-.45.06Z" style="fill:#161616"/><path d="M725.45,331.65a2.3,2.3,0,0,0-.61,1.57c1.69,15.66,3.53,31.3,5.4,46.93s3.5,31.27,5,47q1.34,13.63,2.74,27.28c.44,4.57.94,9.12,1.42,13.69.47,4.72.76,9.47,1.28,14.19,0,.2.06.4.08.61a2.52,2.52,0,0,0,.56,1,2,2,0,0,0,1.47.7,2.27,2.27,0,0,0,2.1-2.32c.16-3.94,0-7.91-.07-11.84s-.19-7.85-.37-11.79c-.37-7.87-1.08-15.72-2-23.54-.87-8-1.95-16-3-23.88s-2.24-15.58-3.4-23.37q-3.27-21.8-6-43.75c0,.12,0,.26,0,.38-.45-3.73-.87-7.5-1.29-11.26a2.38,2.38,0,0,0-.58-1.57,1.86,1.86,0,0,0-2.84,0Z" style="fill:#161616"/><path d="M816.11,359.77c.79,15,1.29,29.94,1.82,44.9s1,30,1.65,45c.37,8.39.79,16.79,1.37,25.16.29,4.2.61,8.39,1,12.56s.84,8.46,1.53,12.66a2.08,2.08,0,0,0,.5.92,1.76,1.76,0,0,0,1.34.64,2.08,2.08,0,0,0,1.95-2.14c-.08-3.74-.32-7.44-.53-11.18s-.47-7.47-.71-11.2q-.75-11.25-1.5-22.47c-.95-15-1.76-30-2.53-45-.42-8.23-.81-16.48-1.23-24.73s-.9-16.74-1.37-25.1a1.65,1.65,0,1,0-3.29,0Z" style="fill:#161616"/><path d="M824.92,352.62a2,2,0,0,0-.55,1.41c.92,7.53,1.66,15.06,2.29,22.62.32,3.76.58,7.53.84,11.32s.55,7.55.79,11.32c.47,7.56.87,15.14,1.26,22.7s.82,15.11,1.27,22.7c.55,9.35.89,18.76,1.5,28.11.29,4.69.63,9.38,1.07,14.07.22,2.35.5,4.72.79,7.07.16,1.18.35,2.37.53,3.56a30.67,30.67,0,0,0,.79,3.5,2,2,0,0,0,1.82,1.51,1.79,1.79,0,0,0,1.34-.61,2.27,2.27,0,0,0,.52-1.45,41.1,41.1,0,0,0,.06-5.44c-.08-2-.19-3.91-.32-5.88-.24-3.79-.55-7.56-.84-11.32-.63-7.59-1.29-15.14-1.84-22.7s-1-15.11-1.45-22.7-1-15.11-1.58-22.67c-.66-9.24-1.34-18.47-2.24-27.68s-1.86-18.7-3-28c0-.17,0-.34-.08-.52a1.92,1.92,0,0,0-.47-.89,1.67,1.67,0,0,0-2.53,0Z" style="fill:#161616"/><path d="M861.78,404.56a1.57,1.57,0,0,0-1,.84c-2.47,6.4-4.84,12.82-7,19.37-1,3.18-2,6.4-2.9,9.61s-1.76,6.4-2.52,9.61q-2.37,9.64-3.79,19.52A167.59,167.59,0,0,0,842.84,484c-.05,1.67,0,3.33.11,5a55.66,55.66,0,0,0,.49,5.65,2.44,2.44,0,0,0,.53,1,1.9,1.9,0,0,0,2.9,0l.31-.43a2.7,2.7,0,0,0,.29-1.13c.26-2.66.37-5.33.5-8s.21-5.5.34-8.22c.27-5.07.63-10.14,1.24-15.17a218.92,218.92,0,0,1,5.26-28c1.24-4.69,2.63-9.33,4.1-13.93s3.16-9.38,4.92-14a2,2,0,0,0,0-1,1.75,1.75,0,0,0-.76-1.1,1.54,1.54,0,0,0-.84-.26,2.32,2.32,0,0,0-.45.06Z" style="fill:#161616"/><path d="M843.55,383.57a1.06,1.06,0,0,0-.34,1.39,77,77,0,0,0,7.73,11.55c2.9,3.65,5.95,7.12,8.95,10.65a.92.92,0,0,0,1.39,0,1.16,1.16,0,0,0,0-1.53c-2.1-2.58-4.31-5.07-6.47-7.59s-4.24-5.12-6.16-7.87l.16.2a62.92,62.92,0,0,1-4-6.46.88.88,0,0,0-.79-.49.9.9,0,0,0-.47.15Z" style="fill:#161616"/><path d="M843.5,392.37a1.22,1.22,0,0,0-.37,1.53,63.81,63.81,0,0,0,5.1,7.36,46,46,0,0,0,6.16,6.31,1,1,0,0,0,1.26-.17,1.3,1.3,0,0,0,0-1.65c-1.55-1.45-3.1-3-4.55-4.55a58,58,0,0,1-4.08-5.12c-.73-1.08-1.44-2.18-2.13-3.31a1,1,0,0,0-.89-.55,1.07,1.07,0,0,0-.5.15Z" style="fill:#161616"/><path d="M736.32,355.05l0,.06,0-.06Zm-5.16-6.26a1.27,1.27,0,0,0-.37,1.6,103.8,103.8,0,0,0,12,16.47c4.42,5.1,9.05,9.93,13.47,15,.56.61,1.08,1.21,1.61,1.82s1.13,1.33,1.73,1.94a1.06,1.06,0,0,0,1.4.21,1.21,1.21,0,0,0,.53-.76,1.36,1.36,0,0,0-.11-.95,39,39,0,0,0-3-3.74c-1.08-1.18-2.16-2.4-3.26-3.59-2.19-2.37-4.4-4.69-6.58-7.06a144.4,144.4,0,0,1-12.36-14.8c-1.29-1.85-2.5-3.73-3.63-5.7a1.06,1.06,0,0,0-.93-.58,1.26,1.26,0,0,0-.52.14" style="fill:#161616"/><path d="M730.45,333.56a1.21,1.21,0,0,0-.29.82,1.33,1.33,0,0,0,.29.78c9,11.78,18,23.57,27.49,34.86,1.18,1.39,2.37,2.81,3.58,4.19s2.39,2.78,3.68,4.06a1,1,0,0,0,1.55,0,1.22,1.22,0,0,0,.32-.84,1.41,1.41,0,0,0-.32-.87c-1.15-1.42-2.36-2.78-3.57-4.17s-2.42-2.78-3.61-4.2q-3.59-4.17-7.1-8.48c-4.68-5.7-9.26-11.52-13.79-17.37-2.29-2.93-4.52-5.85-6.78-8.78a.81.81,0,0,0-.69-.31,1.08,1.08,0,0,0-.76.31Z" style="fill:#161616"/><path d="M748.05,339.67c0,.06.08.09.1.15s-.07-.09-.1-.15Zm-3.71-3.73a1.36,1.36,0,0,0-.42,1.71,126.14,126.14,0,0,0,8.71,11.9c1.52,1.91,3.07,3.76,4.65,5.61s3.21,3.85,4.84,5.74a1.12,1.12,0,0,0,1.64,0,1.33,1.33,0,0,0,.31-.9,1.46,1.46,0,0,0-.31-.87c-1.29-1.65-2.61-3.21-4-4.78s-2.68-3.15-4-4.72c-2.66-3.15-5.24-6.39-7.63-9.78-.79-1.13-1.55-2.29-2.31-3.45a1.13,1.13,0,0,0-.66-.58,1.16,1.16,0,0,0-.32,0,1.19,1.19,0,0,0-.55.15Z" style="fill:#161616"/><path d="M697.77,383.54a1.6,1.6,0,0,0-.94.78,1.86,1.86,0,0,0-.16,1.33,1.71,1.71,0,0,0,.71,1c5.55,2.75,11.21,5.15,16.89,7.44s11.55,4.57,17.34,6.77a1.63,1.63,0,0,0,2-1.21,2.15,2.15,0,0,0-.16-1.39,1.92,1.92,0,0,0-1-.82c-5-2.22-10.18-4.11-15.28-6s-10.37-4-15.42-6.37c-.95-.43-1.87-.89-2.81-1.33a1.79,1.79,0,0,0-.82-.26.84.84,0,0,0-.37.09Z" style="fill:#161616"/><path d="M694.35,368a1.87,1.87,0,0,0-1.1.93,2.27,2.27,0,0,0-.19,1.56c.42,2.58.9,5.12,1.21,7.73.19,1.59.32,3.21.42,4.81a2.54,2.54,0,0,0,.56,1.47,1.85,1.85,0,0,0,1.34.58,2,2,0,0,0,1.87-2.05c-.13-2.26-.37-4.49-.63-6.75a60.83,60.83,0,0,0-1.24-6.86,1.86,1.86,0,0,0-1.76-1.48,2.63,2.63,0,0,0-.48.06Z" style="fill:#161616"/><path d="M693.09,368.74a1.84,1.84,0,0,0,1.16,2.23c4.36,1.25,8.68,2.75,13,4.4,2.13.81,4.26,1.65,6.42,2.49s4.47,1.74,6.76,2.46a1.81,1.81,0,0,0,2.21-1.39,2.3,2.3,0,0,0-.19-1.5,1.91,1.91,0,0,0-1.07-.9c-2.11-.93-4.27-1.74-6.4-2.55s-4.31-1.56-6.47-2.31c-4.42-1.51-8.87-2.93-13.36-4.2a2.12,2.12,0,0,0-.43-.06,1.69,1.69,0,0,0-1.6,1.33Z" style="fill:#161616"/><path d="M849.92,448.65a2,2,0,0,0,.15,1.22,1.55,1.55,0,0,0,.85.7c10.94,4.48,21.83,9.2,32.67,14s21.94,9.9,32.86,15c5.5,2.54,11,5,16.52,7.44s11,5,16.55,7.38c11,4.81,22,9.47,33.18,13.75q7.77,3,15.65,5.71c5.18,1.79,10.42,3.47,15.71,4.95a1.86,1.86,0,0,0,2.29-1.42,2.17,2.17,0,0,0-.21-1.56,1.79,1.79,0,0,0-1.11-.93c-5.47-2.11-11-4.17-16.47-6.25s-11-4.26-16.57-6.43q-16.69-6.56-33.26-13.47c-5.55-2.31-11.13-4.6-16.62-7S921,477,915.51,474.63c-11-4.69-22-9.5-33.08-14.19-10.23-4.34-20.49-8.66-30.78-12.86a.82.82,0,0,0-.36-.06,1.53,1.53,0,0,0-1.37,1.13Z" style="fill:#161616"/><path d="M856.2,435.28a1.74,1.74,0,0,0,1.06,2.05c23.2,7.91,46.12,16.77,69,25.83s45.67,18.27,68.67,26.81c6.78,2.52,13.6,5,20.44,7.35a1.88,1.88,0,0,0,2.31-1.44,2.41,2.41,0,0,0-.18-1.6,2,2,0,0,0-1.13-.95L999.06,487c-5.76-2.15-11.49-4.29-17.26-6.46q-17.2-6.51-34.38-13.2c-22.92-8.86-45.81-17.72-68.88-26.06-6.81-2.43-13.63-4.84-20.47-7.18a1,1,0,0,0-.42-.06,1.58,1.58,0,0,0-1.45,1.22Z" style="fill:#161616"/><path d="M1017.56,495.39a2.61,2.61,0,0,0-.63,1.65c-.19,2.8-.42,5.61-.66,8.42s-.61,5.94-.61,8.89a2.51,2.51,0,0,0,1.69,2.4,2.11,2.11,0,0,0,1.73-.23,2.47,2.47,0,0,0,1-1.5c.39-3,.47-6.06.58-9.1s.29-5.93.47-8.88a2.33,2.33,0,0,0-.6-1.65,2.06,2.06,0,0,0-1.5-.7,2,2,0,0,0-1.5.7Z" style="fill:#161616"/><path d="M707.74,393.38c.19,11.29.77,22.56,1.45,33.82.37,5.73.71,11.44,1.11,17.17s.73,11.44,1.23,17.14a2.53,2.53,0,0,0,.63,1.62,2,2,0,0,0,1.48.7,2.27,2.27,0,0,0,2.1-2.32c.11-5.56-.1-11.12-.39-16.68-.27-5.73-.69-11.43-1.06-17.14-.76-11.43-1.5-22.87-1.68-34.31a2.45,2.45,0,1,0-4.87,0Z" style="fill:#161616"/><path d="M722,357.34a54.12,54.12,0,0,0-6.5,1.85c-2.26.75-4.52,1.53-6.76,2.31-4.42,1.51-8.84,2.93-13.31,4.17a2.23,2.23,0,0,0-1.37,2.64,2,2,0,0,0,2.39,1.48c4.48-1.25,8.95-2.52,13.34-4,2.26-.75,4.5-1.59,6.74-2.49a41.23,41.23,0,0,0,6.47-3.33,1.56,1.56,0,0,0,.58-1.62,1.53,1.53,0,0,0-.58-.84,1.25,1.25,0,0,0-.63-.17,1.54,1.54,0,0,0-.37,0Z" style="fill:#161616"/><path d="M912.08,310c-2.36.23-4.73.69-7.07,1.15s-4.82,1.07-7.24,1.65c-4.68,1.16-9.31,2.52-13.94,3.88a224.43,224.43,0,0,1-28.07,6.89,1.69,1.69,0,0,0-1,.9,2.06,2.06,0,0,0-.19,1.48,1.81,1.81,0,0,0,.82,1.16,2.33,2.33,0,0,0,.42.2,1.6,1.6,0,0,0,.92,0c9.39-1.51,18.65-3.74,27.91-6,4.69-1.19,9.34-2.43,14-3.71,2.26-.61,4.52-1.24,6.81-1.85s4.76-1.27,7.13-2a1.86,1.86,0,0,0,1.27-1.79,2,2,0,0,0-.5-1.33,1.61,1.61,0,0,0-1.14-.58s0,0-.08,0Z" style="fill:#161616"/><path d="M912.11,311.47a1.9,1.9,0,0,0-.76,1.07,2,2,0,0,0,.18,1.39,1.44,1.44,0,0,0,1,.82q7.41,1.51,14.76,3.32c-2.08-1.7-4.16-3.41-6.21-5.12-2.56-.58-5.13-1.13-7.69-1.65a2.42,2.42,0,0,0-.47-.06,1.41,1.41,0,0,0-.79.23Z" style="fill:#161616"/><path d="M1219,409.74c-3.15.38-6.1,1.8-9.07,3s-6,2.4-9.1,3.56q-9.28,3.62-18.53,7.36-18.51,7.43-36.91,15.23c-24.57,10.36-49,21.07-73.53,31.73-17.86,7.79-35.7,15.58-53.64,23.19a1.74,1.74,0,0,0-1,.81,1.93,1.93,0,0,0-.16,1.33,1.67,1.67,0,0,0,.74,1.07,1.42,1.42,0,0,0,1.23.18q36.83-15.63,73.56-31.47c24.52-10.49,49.07-20.85,73.72-30.9q13.31-5.39,26.65-10.68c4.45-1.74,8.92-3.5,13.37-5.21,2.13-.84,4.26-1.71,6.42-2.46,1-.38,2.13-.73,3.18-1.1,1.21-.41,2.42-.79,3.58-1.31a2,2,0,0,0,.89-.58,2.39,2.39,0,0,0,0-3.12,1.83,1.83,0,0,0-1.31-.67Z" style="fill:#161616"/><path d="M1219.64,429.31c-1.42.52-2.79,1.19-4.16,1.83-3,1.36-5.92,2.66-8.89,4-2.79,1.22-5.55,2.47-8.34,3.68-5.48,2.38-11,4.66-16.55,6.89-11.29,4.58-22.65,8.83-34,13-23,8.51-46.22,16.65-69,26.15-20.81,8.65-41.33,18.41-60.62,30.69a2.19,2.19,0,0,0-.68,2.81,1.79,1.79,0,0,0,2.55.72,343.14,343.14,0,0,1,38.86-21c22.26-10.31,45.17-18.79,68.11-27s45.81-16.25,68.22-25.86c2-.84,3.92-1.68,5.9-2.55s4.18-1.94,6.31-2.86c2.29-1,4.63-1.86,7-2.81,1.15-.5,2.28-1,3.42-1.57a15.53,15.53,0,0,0,3.42-2.14,2.05,2.05,0,0,0,.71-.75,2.34,2.34,0,0,0,.18-1.68,2,2,0,0,0-1.89-1.59,1.69,1.69,0,0,0-.5.08Z" style="fill:#161616"/><path d="M1223.79,409.8c-.1,2.69-.34,5.41-.65,8.11-.29,2.31-.66,4.63-1,6.94-.18,1.19-.37,2.41-.55,3.59a15.88,15.88,0,0,0-.24,4.29,2.41,2.41,0,0,0,.26,1.13,2.07,2.07,0,0,0,1.21,1,1.89,1.89,0,0,0,2.27-1,13.43,13.43,0,0,0,.92-3.13c.21-1.13.31-2.26.47-3.39.24-2.11.45-4.22.63-6.37.32-3.7.61-7.44.74-11.2-1.34.06-2.69.06-4,0Z" style="fill:#161616"/><path d="M1183.93,424a1.19,1.19,0,0,0,0,1.56c2.35,2.92,4.82,5.76,7.35,8.48,1.28,1.36,2.57,2.7,3.89,4s2.68,2.6,4.08,3.79a1,1,0,0,0,.79.38,1.12,1.12,0,0,0,.79-.38,1.24,1.24,0,0,0,.31-.87,1.31,1.31,0,0,0-.31-.87c-1.37-1.24-2.74-2.49-4.08-3.76s-2.66-2.61-4-3.94c-2.6-2.69-5.08-5.5-7.44-8.39a.85.85,0,0,0-.69-.32,1,1,0,0,0-.74.32Z" style="fill:#161616"/><path d="M1189.2,422.1a1.13,1.13,0,0,0,0,1.51c4.76,4.92,9.65,9.67,14.73,14.22a1,1,0,0,0,.74.31,1,1,0,0,0,.73-.31,1.26,1.26,0,0,0,.32-.84,1.15,1.15,0,0,0-.32-.81c-2.52-2.26-5.05-4.55-7.52-6.9s-4.92-4.74-7.29-7.18a1.06,1.06,0,0,0-.71-.31.94.94,0,0,0-.68.31Z" style="fill:#161616"/><path d="M1194.91,420.31a1.59,1.59,0,0,0,0,2.05,122.26,122.26,0,0,0,13.52,13.32,1.11,1.11,0,0,0,.63.18,1.19,1.19,0,0,0,.89-.41,1.47,1.47,0,0,0,.4-1,1.31,1.31,0,0,0-.4-1c-2.28-2.05-4.57-4.17-6.78-6.34s-4.34-4.46-6.4-6.83a1.3,1.3,0,0,0-.92-.41,1.35,1.35,0,0,0-.94.41Z" style="fill:#161616"/><path d="M1203.43,420a1.7,1.7,0,0,0,0,2.23c3.37,3.19,6.73,6.43,10.18,9.53a1.39,1.39,0,0,0,1,.43,1.2,1.2,0,0,0,1-.43,1.56,1.56,0,0,0,0-2.09c-3.29-3.3-6.69-6.45-10-9.67a1.58,1.58,0,0,0-1-.46,1.36,1.36,0,0,0-1,.46Z" style="fill:#161616"/><path d="M1209,418.34a1.52,1.52,0,0,0,0,2,72,72,0,0,0,7,7.44,1.26,1.26,0,0,0,.86.38,1.18,1.18,0,0,0,.85-.38,1.43,1.43,0,0,0,0-1.88c-2.4-2.41-4.71-4.87-6.9-7.53a1.07,1.07,0,0,0-.86-.38,1.23,1.23,0,0,0-.9.38Z" style="fill:#161616"/><path d="M1213,416.31a1.66,1.66,0,0,0-.39,1.1,1.79,1.79,0,0,0,.39,1.1c1.66,2.09,3.34,4.12,5.13,6.06a1.31,1.31,0,0,0,2,0,1.72,1.72,0,0,0,0-2.21c-1.71-2-3.42-4-5.08-6.05a1.2,1.2,0,0,0-1-.46,1.42,1.42,0,0,0-1,.46Z" style="fill:#161616"/><path d="M851.68,441a1.1,1.1,0,0,0-.66.55,1.34,1.34,0,0,0-.13,1,1.45,1.45,0,0,0,.53.72s0,0,0,0l-.08-.09a.44.44,0,0,0,.11.12.9.9,0,0,1,.1.09s0,0-.05-.06q2.06,1.77,4,3.67c1.42,1.36,2.76,2.78,4.13,4.23a1.09,1.09,0,0,0,1.58,0,1.36,1.36,0,0,0,0-1.74,80.71,80.71,0,0,0-8.71-8.36A1,1,0,0,0,852,441a1.13,1.13,0,0,0-.32.06Z" style="fill:#161616"/><path d="M853.84,433.77a1.18,1.18,0,0,0-.29.81,1.31,1.31,0,0,0,.29.78c2.6,3.57,5.39,6.92,8.23,10.25l4.21,4.9c1.45,1.68,2.9,3.36,4.34,5a1,1,0,0,0,1.5,0,1.32,1.32,0,0,0,0-1.65c-1.34-1.68-2.73-3.3-4.16-4.93s-2.94-3.33-4.39-5c-2.87-3.3-5.66-6.66-8.29-10.19a1,1,0,0,0-.71-.32,1.08,1.08,0,0,0-.73.32Z" style="fill:#161616"/><path d="M861.2,435a1.33,1.33,0,0,0-.34.89,1.58,1.58,0,0,0,.34.9c3.58,4.81,7.5,9.27,11.47,13.67,2,2.2,4,4.37,6,6.6s4,4.43,5.89,6.69a1.08,1.08,0,0,0,1.58,0,1.3,1.3,0,0,0,.32-.87,1.34,1.34,0,0,0-.32-.87c-1.84-2.34-3.81-4.57-5.79-6.8s-4-4.4-6-6.58c-4-4.4-7.89-8.86-11.47-13.63a1,1,0,0,0-.81-.38,1.12,1.12,0,0,0-.85.38Z" style="fill:#161616"/><path d="M871.15,440.63a1.37,1.37,0,0,0,0,1.8c3.26,3.53,6.58,7,9.92,10.51,1.65,1.74,3.34,3.47,5,5.18s3.47,3.59,5.26,5.27a1.17,1.17,0,0,0,.82.38,1.18,1.18,0,0,0,.81-.38,1.36,1.36,0,0,0,0-1.76c-1.63-1.77-3.34-3.48-5-5.19s-3.39-3.44-5.08-5.15c-3.39-3.5-6.79-7-10.13-10.66a1.14,1.14,0,0,0-.81-.34,1.06,1.06,0,0,0-.79.34Z" style="fill:#161616"/><path d="M881.3,442.92a1.26,1.26,0,0,0-.34.87,1.32,1.32,0,0,0,.34.87c2.84,3.7,5.79,7.35,8.79,10.94,1.53,1.83,3,3.62,4.63,5.39s3.13,3.53,4.76,5.24a1,1,0,0,0,1.5,0,1.26,1.26,0,0,0,0-1.65c-1.5-1.74-3-3.45-4.52-5.18s-3.11-3.57-4.63-5.39c-3.05-3.62-6.05-7.32-9-11.09a1,1,0,0,0-.79-.37,1.09,1.09,0,0,0-.79.37Z" style="fill:#161616"/><path d="M892.41,447.84a1.16,1.16,0,0,0,0,1.6c2,2.66,4,5.29,6.05,7.84s4.29,5.21,6.57,7.65a.92.92,0,0,0,1.32,0,1.16,1.16,0,0,0,0-1.48c-2.11-2.52-4.24-5-6.31-7.59s-4.19-5.29-6.19-8a.88.88,0,0,0-.73-.32,1,1,0,0,0-.71.32Z" style="fill:#161616"/><path d="M901.06,450.83a.87.87,0,0,0-.26.66,1.14,1.14,0,0,0,.26.7c1.76,2.2,3.55,4.34,5.42,6.45s3.82,4.29,5.87,6.26a.75.75,0,0,0,1.13,0,.93.93,0,0,0,0-1.25c-1.89-2-3.79-4.11-5.66-6.22s-3.73-4.37-5.52-6.6a.76.76,0,0,0-.61-.29.77.77,0,0,0-.63.29Z" style="fill:#161616"/><path d="M910.45,457.11a.93.93,0,0,0,.9.95.94.94,0,0,0,.89-.95,1,1,0,0,0-.89-1,.94.94,0,0,0-.9,1Z" style="fill:#161616"/><path d="M1003.9,516c.08,3.94.11,7.91.08,11.84s-.08,7.91-.05,11.87A2.25,2.25,0,0,0,1006,542a2.22,2.22,0,0,0,2.08-2.32c.08-4,0-7.9-.08-11.87s-.15-7.9-.26-11.84a1.94,1.94,0,1,0-3.87,0Z" style="fill:#161616"/><path d="M1205.64,438.17c-.34,10.05-1.13,20-2,30q-.67,7.59-1.34,15.2c-.21,2.55-.4,5.09-.53,7.61a57.44,57.44,0,0,0,0,7.65,2.65,2.65,0,0,0,.31,1.27,2.38,2.38,0,0,0,1.4,1.19,2.23,2.23,0,0,0,1.79-.26,2.55,2.55,0,0,0,1.08-1.54c.39-2.57.6-5.21.76-7.81s.24-5.07.34-7.62c.24-5.1.5-10.16.76-15.23.53-10.16,1.11-20.32,1.45-30.49a2,2,0,1,0-4,0Z" style="fill:#161616"/><path d="M1132.63,327.08a1,1,0,0,0-.1.78,1.11,1.11,0,0,0,.42.61c2.31,1.74,4.65,3.44,7,5.07a.89.89,0,0,0,1.27-.35,1.1,1.1,0,0,0-.35-1.42c-2.34-1.65-4.68-3.33-7-5.07a.69.69,0,0,0-.45-.14,1,1,0,0,0-.82.52Z" style="fill:#161616"/><path d="M1132.71,331.39a1,1,0,0,0-.24.64.89.89,0,0,0,.24.61,41.85,41.85,0,0,0,5.63,4.37.77.77,0,0,0,1.08-.32.9.9,0,0,0-.29-1.16q-2.18-1.47-4.18-3.12h0c-.39-.32-.76-.67-1.15-1a.82.82,0,0,0-.56-.26.8.8,0,0,0-.55.26Z" style="fill:#161616"/><path d="M985.12,190.1s0,0,.08.06-.06-.06-.08-.06Zm-12.29-22.18a1.74,1.74,0,0,0-.37,1,27.09,27.09,0,0,0,1.06,9.41,25.2,25.2,0,0,0,1.71,4.17,29.5,29.5,0,0,0,2.34,3.73,35.31,35.31,0,0,0,5.81,6.2,62.87,62.87,0,0,0,7.08,5.21c1.63,1,3.26,2,4.92,2.92.81.47,1.63.9,2.45,1.33s1.68.84,2.5,1.31a1.11,1.11,0,0,0,1.57-.47,1.31,1.31,0,0,0-.42-1.7c-.63-.41-1.23-.81-1.84-1.19s-1.37-.87-2.08-1.28c-1.42-.86-2.87-1.73-4.29-2.63A72.43,72.43,0,0,1,985,190a35.79,35.79,0,0,1-5.87-6.28,27.69,27.69,0,0,1-2.76-5.12,25.9,25.9,0,0,1-1.29-5.24,24.59,24.59,0,0,1-.1-4.46,1.38,1.38,0,0,0-1.29-1.39,1.25,1.25,0,0,0-.9.4Z" style="fill:#161616"/><path d="M989.64,180.23a.39.39,0,0,0,.06.17.39.39,0,0,1-.06-.17Zm-4-7.33a26,26,0,0,0,.69,4.75,30.67,30.67,0,0,0,1.57,4.95,46.57,46.57,0,0,0,5.24,9.53,50.9,50.9,0,0,0,3.47,4.48,39.48,39.48,0,0,0,3.74,3.8,24.23,24.23,0,0,0,8.44,5.15c.4.09.77.18,1.16.29a1.38,1.38,0,0,0,1.69-1,1.53,1.53,0,0,0-1-1.85c-.26-.09-.52-.24-.76-.35a1.16,1.16,0,0,0,.34.14,36.52,36.52,0,0,1-8.1-5.21,48.62,48.62,0,0,1-7.82-8.66,43.53,43.53,0,0,1-4.65-8.71,27.77,27.77,0,0,1-1.58-6c0-.41-.08-.81-.08-1.22a1.28,1.28,0,0,0-1.18-1.3,1.25,1.25,0,0,0-1.19,1.3" style="fill:#161616"/><path d="M1001.4,181.3l.06.14Zm-3.86-7.67a1.78,1.78,0,0,0-1.13,2.14,55.43,55.43,0,0,0,10.83,22.29,51.29,51.29,0,0,0,8.84,8.83,30.79,30.79,0,0,0,10.29,5.53c.63.21,1.29.29,2,.44a1.23,1.23,0,0,0,1-.15,1.31,1.31,0,0,0,.58-.84,1.45,1.45,0,0,0-.14-1.1,1.24,1.24,0,0,0-.76-.66c-.66-.26-1.31-.58-2-.87a49,49,0,0,1-10.55-6.72,53.2,53.2,0,0,1-15.13-21.37,49.16,49.16,0,0,1-1.87-6.31,1.63,1.63,0,0,0-1.55-1.3.92.92,0,0,0-.39.09" style="fill:#161616"/><path d="M1019,207.73a1.66,1.66,0,0,0-.58.84,1.89,1.89,0,0,0,.13,1.07c.29.64.56,1.34.82,2a68.34,68.34,0,0,1,3.79,15.23,57.83,57.83,0,0,1,0,13.15,48.63,48.63,0,0,1-2.6,10.62,40.29,40.29,0,0,1-2.79,5.76,1.93,1.93,0,0,0,.26,2.23,1.55,1.55,0,0,0,2,.26,17.79,17.79,0,0,0,3.84-2.95,29.2,29.2,0,0,0,3.37-4.05,35.54,35.54,0,0,0,4.63-9.82,44.19,44.19,0,0,0,1.79-10.8,35.24,35.24,0,0,0-.19-5.33,28.09,28.09,0,0,0-1-5.12,1.2,1.2,0,0,0-1.44-.9,1.36,1.36,0,0,0-.82,1.59c.16.73.26,1.48.37,2.23a39.86,39.86,0,0,1,0,9.39,43.07,43.07,0,0,1-2.39,9.69,37.35,37.35,0,0,1-3.68,7c-.19.23-.37.49-.56.75.45-1.42.84-2.89,1.16-4.34a55.15,55.15,0,0,0,1.18-12.83,65.32,65.32,0,0,0-1.55-12.85,70.85,70.85,0,0,0-4-12.36,1.1,1.1,0,0,0-1.08-.67,1.38,1.38,0,0,0-.66.17Z" style="fill:#161616"/><path d="M1036.26,239.73a.51.51,0,0,1-.18.14,1.63,1.63,0,0,0,.18-.14Zm9.32-19.49a.27.27,0,0,1,0,.15.27.27,0,0,0,0-.15Zm-.16-13.66,0,.31c0-.11,0-.2,0-.31Zm-7-32.35a1.58,1.58,0,0,0-.65.93,1.64,1.64,0,0,0,.13,1.13c.73,2.26,1.42,4.52,2.1,6.8.77,2.52,1.53,5,2.21,7.53s1.34,5.27,1.9,7.93,1,5.19,1.31,7.82a60.92,60.92,0,0,1,.13,14.22,39.77,39.77,0,0,1-2.13,8.86,30.56,30.56,0,0,1-3.08,5.79,28.43,28.43,0,0,1-4.26,4.69,30.33,30.33,0,0,1-5.73,3.68,1.31,1.31,0,0,0-.61.87,1.56,1.56,0,0,0,.13,1.12,1.27,1.27,0,0,0,1.82.53,31,31,0,0,0,8.47-6,29.92,29.92,0,0,0,5.58-8,36.51,36.51,0,0,0,3.1-9.61,57.11,57.11,0,0,0,1-10.63,74.75,74.75,0,0,0-.74-10,81.66,81.66,0,0,0-1.89-9.76,83.14,83.14,0,0,0-3-9.32c-.52-1.42-1.15-2.78-1.79-4.14l-.94-1.86c-.32-.63-.71-1.27-1-1.94a1.32,1.32,0,0,0-1.95-.55" style="fill:#161616"/><path d="M971.83,209.67a.38.38,0,0,0,0,.18.38.38,0,0,1,0-.18Zm1.32-37.49a1.6,1.6,0,0,0-.63.9,90.33,90.33,0,0,0-3.45,15.23,94.8,94.8,0,0,0-.82,15.43,103,103,0,0,0,1.66,15.31,93.07,93.07,0,0,0,4,14.68c.82,2.26,1.76,4.49,2.79,6.66a42.11,42.11,0,0,0,3.34,6.08,1.65,1.65,0,0,0,.87.76,1.33,1.33,0,0,0,1.13-.18,1.52,1.52,0,0,0,.68-1,2.22,2.22,0,0,1,.06-.44,1.78,1.78,0,0,0-.21-.81c-.71-1.79-1.53-3.56-2.27-5.36s-1.44-3.53-2.13-5.32c-1.44-3.82-2.76-7.7-3.84-11.7a96.31,96.31,0,0,1-2.47-12.57,92.46,92.46,0,0,1-.66-10.13,83.74,83.74,0,0,1,.63-10.62,85.86,85.86,0,0,1,3.37-15.26,1.56,1.56,0,0,0-1-1.89,2.07,2.07,0,0,0-.37-.05,1.3,1.3,0,0,0-.71.23" style="fill:#161616"/><path d="M1020.37,232.84A7.35,7.35,0,0,1,1020,234a1.63,1.63,0,0,1,.14-.34,23.37,23.37,0,0,1-2.4,4.6,22.81,22.81,0,0,1-3.31,3.62,24.86,24.86,0,0,1-5.32,3.36,31.84,31.84,0,0,1-8.13,2.37,34.65,34.65,0,0,1-9.86,0,27.72,27.72,0,0,1-7.16-2c-.53-.26-1.08-.54-1.58-.83a1.27,1.27,0,0,0-1.81.52,1.5,1.5,0,0,0,.47,2,32.33,32.33,0,0,0,15,4.06,38.8,38.8,0,0,0,8.53-.58,28,28,0,0,0,8-2.64,19.13,19.13,0,0,0,3.55-2.31,18.24,18.24,0,0,0,3.18-3.27,20.31,20.31,0,0,0,1.32-2,17.7,17.7,0,0,0,1-2.35,13,13,0,0,0,.66-2.2,18.53,18.53,0,0,0,.34-2.37s0,0,0-.06a1.38,1.38,0,0,0-.84-1.62,1.25,1.25,0,0,0-.29-.06,1.22,1.22,0,0,0-1.19,1Z" style="fill:#161616"/><path d="M978.17,200.52a6.36,6.36,0,0,0-2.18.93,8.06,8.06,0,0,0-2,1.77,14.15,14.15,0,0,0-2.63,5,13.93,13.93,0,0,0-.61,3,12.31,12.31,0,0,0,0,2.78,1.2,1.2,0,0,0,.27.75,1,1,0,0,0,.71.32.92.92,0,0,0,.68-.32,1.07,1.07,0,0,0,.29-.75,11.72,11.72,0,0,1,0-2.58,14.42,14.42,0,0,1,.73-3,14,14,0,0,1,1.4-2.66,10.73,10.73,0,0,1,1.47-1.63,7.25,7.25,0,0,1,1.34-.89,4.4,4.4,0,0,1,1.21-.35,5.69,5.69,0,0,1,1.24,0,9.29,9.29,0,0,1,1.47.46c.24.12.5.26.74.41a1,1,0,0,0,1.39-.41,1.19,1.19,0,0,0,.08-.87,1.09,1.09,0,0,0-.44-.66,7.75,7.75,0,0,0-2.48-1.22,6.14,6.14,0,0,0-1.39-.17,7.4,7.4,0,0,0-1.32.14Z" style="fill:#161616"/><path d="M966.1,204.14a.87.87,0,0,0-.56,1.07,10.07,10.07,0,0,0,2.19,4.17,7.77,7.77,0,0,0,3.81,2.26.87.87,0,0,0,1.08-.66,1,1,0,0,0-.6-1.16,10.63,10.63,0,0,1-1.27-.44,8,8,0,0,1-1.42-.92,6.93,6.93,0,0,1-1.13-1.22,9.48,9.48,0,0,1-.81-1.59,7.9,7.9,0,0,1-.29-.9.84.84,0,0,0-.79-.64.59.59,0,0,0-.21,0Z" style="fill:#161616"/><path d="M997.88,203.62a1.16,1.16,0,0,0-.61.52,1.25,1.25,0,0,0-.1.87,1.1,1.1,0,0,0,.47.67.86.86,0,0,0,.79.11,10.89,10.89,0,0,1,2.18-.63,7.38,7.38,0,0,1,4.32.66,9.66,9.66,0,0,1,2.1,1.36,13.51,13.51,0,0,1,2.13,2.38,19,19,0,0,1,1.93,3.62,23.83,23.83,0,0,1,1,4,1.1,1.1,0,0,0,1.92.55,1.38,1.38,0,0,0,.32-.9,17.63,17.63,0,0,0-1.76-6.31,20.18,20.18,0,0,0-1.69-2.72,12.35,12.35,0,0,0-2-2.11,10.93,10.93,0,0,0-5.08-2.67,9.43,9.43,0,0,0-2-.2,10.8,10.8,0,0,0-4,.81Z" style="fill:#161616"/><path d="M1001.27,200.84a1.65,1.65,0,0,0-.13,1.07,1.62,1.62,0,0,0,.58.81l2.37,1.74a1.19,1.19,0,0,0,1.68-.49,1.4,1.4,0,0,0,.13-1,1.32,1.32,0,0,0-.55-.81c-.79-.61-1.58-1.19-2.37-1.77a1,1,0,0,0-.58-.2,1.39,1.39,0,0,0-1.13.69Z" style="fill:#161616"/><path d="M1018.27,209.09a6.67,6.67,0,0,1-.84.84,6.81,6.81,0,0,1-1.16.76,8,8,0,0,1-1.29.4,6.53,6.53,0,0,1-1.71,0,1.2,1.2,0,0,1-.32-.06,1,1,0,0,0-.71.12,1.09,1.09,0,0,0-.44.61,1.17,1.17,0,0,0,.1.81.92.92,0,0,0,.55.46,7.54,7.54,0,0,0,4-.14,5.64,5.64,0,0,0,3.11-2.67,1,1,0,0,0-.13-1.1.78.78,0,0,0-1.16,0Z" style="fill:#161616"/><path d="M973.23,192.74a11.06,11.06,0,0,0-3.84,4.66,1.18,1.18,0,0,0,.36,1.53,1,1,0,0,0,1.4-.4c.26-.55.58-1.08.89-1.6a9.41,9.41,0,0,1,1.32-1.42,9,9,0,0,1,1.6-1,8.49,8.49,0,0,1,2-.61c.6-.05,1.21-.08,1.81-.08a1.09,1.09,0,0,0,1.06-1.13,1.22,1.22,0,0,0-.32-.84,1,1,0,0,0-.74-.32,6.44,6.44,0,0,0-1.07-.09,8.36,8.36,0,0,0-4.5,1.34Z" style="fill:#161616"/><path d="M997.9,203.8a.91.91,0,0,0-.36.55,1,1,0,0,0,.08.69.82.82,0,0,0,.47.41.84.84,0,0,0,.63-.09c.13-.06.26-.15.39-.2a8.53,8.53,0,0,1,2.06-.61,8.2,8.2,0,0,1,2.1,0,9.69,9.69,0,0,1,2.53.81.65.65,0,0,0,.34,0,.63.63,0,0,0,.39-.32.79.79,0,0,0-.23-1,7.91,7.91,0,0,0-4-1.31,1.46,1.46,0,0,0-.29,0,8.79,8.79,0,0,0-4.06,1.1Z" style="fill:#161616"/><path d="M985.64,222.9a1,1,0,0,0-.57.5,1.22,1.22,0,0,0-.11.81,9.06,9.06,0,0,0,.66,1.45,6.52,6.52,0,0,0,.89,1.18,5.1,5.1,0,0,0,2.5,1.36,1,1,0,0,0,.71-.11.9.9,0,0,0,.42-.61,1,1,0,0,0-.63-1.22,2.18,2.18,0,0,1-.5-.2,6.1,6.1,0,0,1-.94-.58,5.14,5.14,0,0,1-.66-.75,7.09,7.09,0,0,1-.56-1s0,0,0,0a1,1,0,0,0-.45-.64.67.67,0,0,0-.47-.14,1.23,1.23,0,0,0-.27,0Z" style="fill:#161616"/><path d="M997.25,231.13a.08.08,0,0,0-.08,0,.08.08,0,0,1,.08,0Zm1.21-.18c-.37.06-.71.12-1.06.15a32.63,32.63,0,0,1-4.73.35,33.94,33.94,0,0,1-4.84-.35l-.5-.09a1,1,0,0,0-.76.12,1.06,1.06,0,0,0-.48.66,1.15,1.15,0,0,0,.11.84.91.91,0,0,0,.6.52,44.64,44.64,0,0,0,5.87.64,20,20,0,0,0,3-.06,15.39,15.39,0,0,0,3.08-.46,1.21,1.21,0,0,0,.79-1.13,1.31,1.31,0,0,0-.32-.84,1.1,1.1,0,0,0-.68-.35Z" style="fill:#161616"/><path d="M998.4,233.36v0Zm.43-1.68a1.36,1.36,0,0,0-.32.81l-.08.78a24.62,24.62,0,0,1-1.13,5,9,9,0,0,1-.95,1.85,5.37,5.37,0,0,1-.73.84,7.23,7.23,0,0,1-.61.41l-.58.17h-.6a7.49,7.49,0,0,1-.77-.23c-.34-.2-.68-.44-1-.67a10,10,0,0,1-1.34-1.5,17.12,17.12,0,0,1-1.68-3.27,25.67,25.67,0,0,1-.92-3,1.34,1.34,0,0,0-1.66-1.05,1.54,1.54,0,0,0-1,1.83,31.88,31.88,0,0,0,1.37,4.25,16.58,16.58,0,0,0,1.66,3,8.16,8.16,0,0,0,4.37,3.57,4.93,4.93,0,0,0,2.5,0,5.53,5.53,0,0,0,2.21-1.36,7.14,7.14,0,0,0,.89-1.1,7.46,7.46,0,0,0,.68-1.28,14.76,14.76,0,0,0,1.08-3.47,23.62,23.62,0,0,0,.32-4.75,1.11,1.11,0,0,0-1-1.16,1,1,0,0,0-.73.35Z" style="fill:#161616"/><path d="M961.86,229.85a.41.41,0,0,1,0,.18l0-.18Zm-2.68-30.57a2.65,2.65,0,0,1,0,.38,2.65,2.65,0,0,0,0-.38Zm5.92-23.77a3,3,0,0,1-.13.35,3,3,0,0,0,.13-.35Zm2.39-12.08a89.81,89.81,0,0,0-5.84,12.86,110,110,0,0,0-4.31,14.77,97.21,97.21,0,0,0-2.08,16,67.5,67.5,0,0,0,1,15.55A43.81,43.81,0,0,0,961,236.34a30.82,30.82,0,0,0,9.58,10.54,24.37,24.37,0,0,0,5.89,3,.93.93,0,0,0,1.08-.49,1.12,1.12,0,0,0-.34-1.48,44.23,44.23,0,0,1-5.76-4,32.16,32.16,0,0,1-5.21-5.76,40.18,40.18,0,0,1-4.26-8.05,55.65,55.65,0,0,1-3-12.3,79.46,79.46,0,0,1,.19-18.56A103.58,103.58,0,0,1,965,175.86a80.54,80.54,0,0,1,5-10.8,1.73,1.73,0,0,0-.53-2.2,1.3,1.3,0,0,0-.71-.21,1.49,1.49,0,0,0-1.29.78Z" style="fill:#161616"/><path d="M969.25,230.58s0,.08.06.11,0-.08-.06-.11Zm-3.73-10.28a33.89,33.89,0,0,0,.79,6.95,32.73,32.73,0,0,0,2.23,6.63,29.64,29.64,0,0,0,3.61,5.88,25.45,25.45,0,0,0,2.23,2.51,16.15,16.15,0,0,0,2.66,2.18.85.85,0,0,0,1.13-.15,1.07,1.07,0,0,0,.29-.75,1.09,1.09,0,0,0-.29-.73c-1-.92-2-1.82-3-2.8a25.68,25.68,0,0,1-2.6-3.19,29.75,29.75,0,0,1-3.35-6.31,30.8,30.8,0,0,1-1.78-7.07,29.76,29.76,0,0,1-.19-3.15.93.93,0,0,0-.87-1,1,1,0,0,0-.89,1Z" style="fill:#161616"/><path d="M1028.87,163.72c.05.06.11.09.16.15s-.11-.09-.16-.15Zm-47.8-6.66a.2.2,0,0,1-.11.06l.11-.06Zm.15-.05-.07,0,.07,0Zm17-6.89a50.06,50.06,0,0,0-8.11,1.1,41.09,41.09,0,0,0-7.28,2.25,31,31,0,0,0-11.32,7.91,1.23,1.23,0,0,0,0,1.59,1,1,0,0,0,1.45,0,18.36,18.36,0,0,1,2.21-2.2,27.23,27.23,0,0,1,5.89-3.71A40.07,40.07,0,0,1,991.8,154a50.45,50.45,0,0,1,28.1,4.08,41.12,41.12,0,0,1,8.89,5.59,33,33,0,0,1,5.26,5.67c.32.46.63,1,1,1.45.18.29.37.58.53.87a5.8,5.8,0,0,1,.5,1.07,1.64,1.64,0,0,0,1,.81,1.51,1.51,0,0,0,1.26-.17,1.72,1.72,0,0,0,.74-1.08c0-.14,0-.31.08-.46a1.73,1.73,0,0,0-.24-.9l-.24-.6c-.21-.55-.39-1.11-.6-1.65s-.55-1.16-.84-1.74a31.55,31.55,0,0,0-2.24-3.39,27.65,27.65,0,0,0-5.66-5.47,39.35,39.35,0,0,0-14.54-6.52,59.81,59.81,0,0,0-8.37-1.36c-1.58-.14-3.18-.2-4.79-.2-1.1,0-2.21,0-3.31.12" style="fill:#161616"/><path d="M999.61,250a1.08,1.08,0,0,0-.31,1.41,16.1,16.1,0,0,1,1.1,2.29,22.23,22.23,0,0,1,1.08,4.34,24.89,24.89,0,0,1,.06,4.14,1.24,1.24,0,0,0,.31.87,1.07,1.07,0,0,0,1.58,0,1.4,1.4,0,0,0,.32-.87,21.54,21.54,0,0,0-.53-6.1,19.71,19.71,0,0,0-2.32-5.71,1,1,0,0,0-.81-.52,1,1,0,0,0-.48.15Z" style="fill:#161616"/><path d="M996.22,271.34v0Zm1.95-17.51a1.53,1.53,0,0,0-.61.84,79.34,79.34,0,0,0-4.6,21.86,88,88,0,0,0-.11,12,71.87,71.87,0,0,0,1.63,11.81,44.43,44.43,0,0,0,5.06,12.92,2.32,2.32,0,0,0,.71.78,1.93,1.93,0,0,0,1.55.23,1.89,1.89,0,0,0,.87-.58,2.3,2.3,0,0,0,.58-1.53c.1-1.74.21-3.45.42-5.19a77,77,0,0,1,4.55-17.74,133.06,133.06,0,0,1,6.34-13.76c1.21-2.31,2.47-4.6,3.68-6.89l1.82-3.44c.6-1.13,1.15-2.32,1.76-3.45a1.62,1.62,0,0,0-.47-2,1.43,1.43,0,0,0-1-.14,1.53,1.53,0,0,0-.76.64c-1.37,1.82-2.66,3.79-3.92,5.73s-2.45,3.94-3.58,6a137.26,137.26,0,0,0-6.21,12.51,87.51,87.51,0,0,0-4.6,13.49,62.11,62.11,0,0,0-1.35,6.89c0,.15,0,.32-.07.47-.24-.52-.45-1.07-.69-1.62a60.35,60.35,0,0,1-3.08-13,81.47,81.47,0,0,1,.13-19,69.33,69.33,0,0,1,3.87-16.21,1.44,1.44,0,0,0-.13-1.1,1.42,1.42,0,0,0-.76-.67,1.63,1.63,0,0,0-.34-.06,1.23,1.23,0,0,0-.66.21Z" style="fill:#161616"/><path d="M974.57,277.51a.09.09,0,0,0-.08,0,.09.09,0,0,1,.08,0Zm18.07-27.42c-3.86,3.71-7.73,7.44-11.26,11.58a63.9,63.9,0,0,0-5.18,6.89c-.71,1.1-1.39,2.26-2,3.42a22.6,22.6,0,0,0-1.6,3.91,1.36,1.36,0,0,0,.31,1.33,1.26,1.26,0,0,0,1.24.38c.08,0,.16,0,.23-.06a19.85,19.85,0,0,1,4.87,0,21.06,21.06,0,0,1,5.34,1.62,23.51,23.51,0,0,1,2.61,1.42.93.93,0,0,0,1.34-.38,1.14,1.14,0,0,0-.34-1.47,21.77,21.77,0,0,0-6.82-3.22,23,23,0,0,0-3.68-.64c-.61,0-1.18-.08-1.79-.11.32-.61.63-1.22,1-1.8.74-1.3,1.53-2.51,2.37-3.73,4.47-6.31,10-11.58,15.52-16.82a1.79,1.79,0,0,0,0-2.35,1.4,1.4,0,0,0-2.13,0Z" style="fill:#161616"/><path d="M987.59,279a1.33,1.33,0,0,0-.6.4,32.47,32.47,0,0,0-4.19,4.26c-.68.81-1.29,1.68-1.89,2.55a17.13,17.13,0,0,0-1.53,2.66,1.85,1.85,0,0,0-.13,1.22,1.49,1.49,0,0,0,.66.95,1.38,1.38,0,0,0,2-.55c.74-1.24,1.45-2.49,2.27-3.68a30.33,30.33,0,0,1,4.78-5.27,1.46,1.46,0,0,0,.42-1.07,1.51,1.51,0,0,0-.42-1.07,1.3,1.3,0,0,0-1-.46,1.59,1.59,0,0,1-.37.06Z" style="fill:#161616"/><path d="M980.3,288.54a1.47,1.47,0,0,0-.36,1,1.4,1.4,0,0,0,.36.95c4,5.1,8.74,9.3,12.58,14.51a1.23,1.23,0,0,0,1,.43,1.27,1.27,0,0,0,1-.43,1.51,1.51,0,0,0,.39-1,1.65,1.65,0,0,0-.39-1.07c-3.95-5.1-8.79-9.24-12.76-14.31a1.06,1.06,0,0,0-.84-.37,1.14,1.14,0,0,0-.9.37Z" style="fill:#161616"/><path d="M1030.13,251.39a52.9,52.9,0,0,0-1.86,16.39,71.16,71.16,0,0,0,.76,8.28,32.93,32.93,0,0,0,2.16,8.17,1.53,1.53,0,0,0,1.78.81,1.61,1.61,0,0,0,1-.81c0-.15.11-.26.16-.41a1.79,1.79,0,0,0,0-.92c-.29-2.18-.79-4.26-1.21-6.37s-.84-4.32-1.13-6.52a54.28,54.28,0,0,1,0-12.22,43.77,43.77,0,0,1,1.13-5.58,1.61,1.61,0,0,0-1-1.92,2.06,2.06,0,0,0-.37,0,1.46,1.46,0,0,0-1.34,1.12Z" style="fill:#161616"/><path d="M1024.42,281.39a48,48,0,0,0-8.65,1,1.71,1.71,0,0,0-1.08,2,1.63,1.63,0,0,0,.71,1l.37.17a1.25,1.25,0,0,0,.81,0c1-.15,1.95-.32,2.95-.46a41.39,41.39,0,0,1,11.55-.26,8.59,8.59,0,0,1,1,.14,1.19,1.19,0,0,0,1-.14,1.46,1.46,0,0,0,.6-.87,1.69,1.69,0,0,0-.13-1.13,1.33,1.33,0,0,0-.79-.67,46.1,46.1,0,0,0-8.18-.81Z" style="fill:#161616"/><path d="M1015.11,284.31a1.63,1.63,0,0,0,0,2.15,33.36,33.36,0,0,1,3,3.59c.58.87,1.13,1.73,1.66,2.63a1.3,1.3,0,0,0,1.84.52,1.57,1.57,0,0,0,.47-2,30,30,0,0,0-5-6.87,1.38,1.38,0,0,0-1-.43,1.32,1.32,0,0,0-1,.43Z" style="fill:#161616"/><path d="M1019.85,291.23a24.47,24.47,0,0,0-4.16,1.94,28.55,28.55,0,0,0-4,2.93,27,27,0,0,0-6.6,7.61,1.85,1.85,0,0,0,.26,2.09,1.45,1.45,0,0,0,2.21,0,55.64,55.64,0,0,1,7-8,22.44,22.44,0,0,1,4.81-3.16,10.56,10.56,0,0,1,1.21-.49,1.55,1.55,0,0,0,.95-1.85,1.41,1.41,0,0,0-1.32-1.1,1,1,0,0,0-.36.05Z" style="fill:#161616"/><path d="M1036.08,256.69l.16.09-.16-.09Zm-6-4.22a1.83,1.83,0,0,0,.16,1.39,1.69,1.69,0,0,0,1,.81c1.61.6,3.21,1.27,4.79,2,3.24,1.54,6.37,3.22,9.44,5.07q2.34,1.44,4.66,2.93c1.53,1,3.08,2,4.71,2.8a1.45,1.45,0,0,0,.76.24,1.39,1.39,0,0,0,1.08-.5,1.77,1.77,0,0,0,.45-1.18,1.64,1.64,0,0,0-.45-1.19,37.63,37.63,0,0,0-5.76-4.29c-2-1.27-4-2.43-6-3.53a107.16,107.16,0,0,0-12.79-5.82,1.09,1.09,0,0,0-.45-.08,1.74,1.74,0,0,0-1.55,1.36Z" style="fill:#161616"/><path d="M1030.42,347.11a1.21,1.21,0,0,1-.05.18,1.21,1.21,0,0,0,.05-.18Zm24.63-79.94c-.92,4.78-1.9,9.53-2.92,14.28-.53,2.4-1.06,4.8-1.61,7.21s-1.21,5-1.84,7.53a255.78,255.78,0,0,1-8.87,28.34c-1.44,3.79-3,7.53-4.63,11.23s-3.23,7.42-4.7,11.21a1.67,1.67,0,0,0-.08.2,2.05,2.05,0,0,0-.21.93,1.85,1.85,0,0,0,.47,1.27,1.53,1.53,0,0,0,2.31,0,53.67,53.67,0,0,0,5-7.55,82.12,82.12,0,0,0,3.84-8.17,161.63,161.63,0,0,0,6.11-17.63c1.73-5.91,3.15-11.9,4.55-17.92.68-3,1.31-6,2-9s1.23-6,1.84-9c.79-3.91,1.52-7.85,2.29-11.78a2.19,2.19,0,0,0-.19-1.54,1.86,1.86,0,0,0-1.08-.93,1.32,1.32,0,0,0-.44,0,1.84,1.84,0,0,0-1.79,1.44" style="fill:#161616"/><path d="M1019.9,320.1a.41.41,0,0,0,0,.18.41.41,0,0,1,0-.18Zm7.34-27a1.78,1.78,0,0,0-.4,1,3,3,0,0,1,0,.52A111,111,0,0,1,1020,319.9c-1.24,3.21-2.58,6.37-3.84,9.55-.66,1.74-1.32,3.48-1.87,5.24-.26.84-.47,1.71-.66,2.58s-.26,1.85-.37,2.78a1.9,1.9,0,0,0,.21.84,1.58,1.58,0,0,0,.9.75,1.43,1.43,0,0,0,1.66-.75c.5-.84,1-1.68,1.42-2.58s.81-2,1.21-3c.68-1.85,1.31-3.73,1.92-5.62s1.21-3.73,1.79-5.61,1.26-3.94,1.86-5.91c1.16-3.85,2.32-7.76,3.21-11.7a114.1,114.1,0,0,0,2.08-12.42,1.42,1.42,0,0,0-.39-1,1.19,1.19,0,0,0-.92-.44,1.24,1.24,0,0,0-1,.44Z" style="fill:#161616"/><path d="M983.12,253.45l-.16,0,.16,0Zm3.71-3.76a58.13,58.13,0,0,0-6.68,1,69.14,69.14,0,0,0-12.71,4.14,1.62,1.62,0,0,0-.82.67,1.66,1.66,0,0,0-.13,1.16,1.56,1.56,0,0,0,.63.89,1.24,1.24,0,0,0,1.06.15,60.65,60.65,0,0,1,14.7-4.2c1.69-.23,3.37-.38,5-.49s3.5-.15,5.24-.18a1.56,1.56,0,0,0,1.45-1.59,1.67,1.67,0,0,0-.42-1.13,1.44,1.44,0,0,0-1-.46,25.91,25.91,0,0,0-2.66-.12c-1.23,0-2.47.06-3.68.18Z" style="fill:#161616"/><path d="M956.6,301.11c0,.08,0,.17,0,.26,0-.09,0-.18,0-.26ZM966.12,256a141.65,141.65,0,0,0-11.86,31.91A139,139,0,0,0,951,305c-.39,2.95-.66,5.9-.79,8.92a37.6,37.6,0,0,0,.42,8.54,1.84,1.84,0,0,0,1.74,1.44,1.86,1.86,0,0,0,1.76-1.44A48.29,48.29,0,0,0,955,317c.21-1.79.37-3.59.52-5.41.35-3.59.72-7.18,1.16-10.74q1-8.43,2.9-16.68a118.12,118.12,0,0,1,4.84-16,100.39,100.39,0,0,1,4.6-10.25,2,2,0,0,0-.6-2.52,1.85,1.85,0,0,0-.82-.23,1.62,1.62,0,0,0-1.45.9Z" style="fill:#161616"/><path d="M979.12,211.47a3,3,0,1,0,3-3.27,3.14,3.14,0,0,0-3,3.27Z" style="fill:#161616"/><path d="M1001.75,214.48a4.37,4.37,0,1,0,4.36-4.78,4.65,4.65,0,0,0-4.36,4.78Z" style="fill:#161616"/><path d="M978.44,212.63a3.42,3.42,0,1,0,3.39-3.74,3.63,3.63,0,0,0-3.39,3.74Z" style="fill:#161616"/><path d="M950.68,323.34a.89.89,0,1,0,.87-1,.92.92,0,0,0-.87,1Z" style="fill:#161616"/><path d="M912.11,310a1.63,1.63,0,0,0-.71,1,1.9,1.9,0,0,0,.16,1.3,1.69,1.69,0,0,0,.89.76,128.76,128.76,0,0,0,14,5.26c4.65,1.48,9.39,2.7,14.15,3.88s9.5,2.29,14.23,3.48,9.58,2.58,14.32,4.11c9.78,3.16,19.6,6.34,29.38,9.53s19.58,6.39,29.39,9.49c4.68,1.48,9.39,2.93,14.13,4.26s9.36,2.61,14.07,3.82c9.42,2.43,18.89,4.66,28.36,6.92,18.89,4.55,37.78,9.18,56.3,15.4,6.74,2.29,13.4,4.84,20.1,7.24s13.66,4.75,20.58,6.86c3.44,1.08,6.92,2.09,10.39,3s6.92,2,10.37,3.09,6.84,2.32,10.28,3.45c1.71.58,3.45,1.1,5.19,1.59.76.23,1.52.44,2.31.64a18.84,18.84,0,0,0,2.89.43,1.91,1.91,0,0,0,1.82-1.5,2.26,2.26,0,0,0-.87-2.35,31.65,31.65,0,0,0-6.6-2.89c-2.47-.87-5-1.6-7.47-2.32-4.82-1.36-9.66-2.66-14.45-4.17-2.29-.72-4.57-1.48-6.86-2.2-2.5-.78-5-1.53-7.48-2.29q-7.21-2.16-14.39-4.46c-4.76-1.56-9.49-3.24-14.18-5.09s-9.13-3.42-13.76-4.92c-9.26-3-18.65-5.56-28.09-7.91-18.89-4.69-38-8.51-56.83-13.37q-7.07-1.83-14-3.91c-4.79-1.42-9.52-3-14.29-4.52L996,334.17c-7-2.26-14.13-4.51-21.21-6.69-3.47-1.1-7-2.17-10.5-3.15s-6.86-1.77-10.31-2.58c-6.84-1.62-13.71-3.1-20.52-4.89a137.19,137.19,0,0,1-20.23-7,.78.78,0,0,0-.37-.09,1.42,1.42,0,0,0-.79.27Z" style="fill:#161616"/><path d="M910.09,313.5a.94.94,0,0,0,.86,1,1,1,0,0,0,.9-1,.94.94,0,0,0-.9-1,.92.92,0,0,0-.86,1Z" style="fill:#161616"/><path d="M908.82,311.53a1.85,1.85,0,0,0-.47,1.25,1.79,1.79,0,0,0,.47,1.24l.32.29a1.58,1.58,0,0,0,.81.23c.11,0,.24,0,.37.06,6.84,1,13.63,2.58,20.37,4.23,3.49.84,7,1.76,10.44,2.6,1.74.44,3.47.87,5.21,1.28s3.39.81,5.1,1.1a.84.84,0,0,0,.61-.09.87.87,0,0,0,.37-.52,1,1,0,0,0-.08-.67.88.88,0,0,0-.48-.37c-1.6-.76-3.23-1.36-4.89-2s-3.39-1.19-5.1-1.74c-3.48-1.16-7-2.14-10.53-3.07A198.33,198.33,0,0,0,910.16,311l-.21,0h-.1a1.58,1.58,0,0,0-1,.52Z" style="fill:#161616"/><path d="M1195,395.44a1,1,0,0,0,.61,1.16c2.53.81,5.05,1.68,7.55,2.63s5,2,7.55,3,5,2.14,7.53,3.22l3.73,1.56c.63.26,1.29.52,2,.75a17.58,17.58,0,0,0,2,.67,1.16,1.16,0,0,0,1.34-.61,1.43,1.43,0,0,0-.42-1.8,18.79,18.79,0,0,0-1.66-.89l-2.05-1c-1.23-.55-2.47-1.07-3.71-1.56-2.6-1-5.21-1.94-7.84-2.84s-5.13-1.71-7.71-2.52-5.18-1.71-7.78-2.52a.47.47,0,0,0-.21-.06.9.9,0,0,0-.85.73Z" style="fill:#161616"/><path d="M1030.45,244.88a1.72,1.72,0,0,0-.45,1.19,1.75,1.75,0,0,0,.45,1.18,1.73,1.73,0,0,0,1.08.5c.79.08,1.6.17,2.39.29a114.54,114.54,0,0,1,16.26,4c2.68.84,5.34,1.68,8,2.49,1.35.41,2.66.78,4,1.13a37.88,37.88,0,0,0,4.32,1,1.26,1.26,0,0,0,1-.15,1.56,1.56,0,0,0,.66-.9,1.83,1.83,0,0,0-.16-1.18,1.41,1.41,0,0,0-.82-.7c-1.36-.58-2.76-1-4.15-1.53l-4.53-1.48c-3-1-5.94-1.85-8.94-2.66a116.09,116.09,0,0,0-18.1-3.65h-.08a1.48,1.48,0,0,0-1,.49Z" style="fill:#161616"/><path d="M1065.89,256.26c.18,5.82,0,11.64-.29,17.43-.34,6.11-1,12.19-1.71,18.24a3.79,3.79,0,0,1,0-.58c-.58,4.84-1.32,9.64-2.1,14.45s-1.69,9.81-2.61,14.71-1.84,9.64-2.71,14.47c-.42,2.38-.87,4.75-1.24,7.15s-.65,4.58-.94,6.87a.49.49,0,0,1,0,.2,2,2,0,0,0,.13,1.16,1.49,1.49,0,0,0,.84.69,1.38,1.38,0,0,0,1.69-1c.79-2.69,1.58-5.39,2.26-8.11s1.32-5.59,1.92-8.39c1.21-5.74,2.26-11.53,3.24-17.35s1.87-11.72,2.6-17.66q.55-4.51,1-9c.31-2.93.55-5.85.76-8.8a236.65,236.65,0,0,0,.53-24.41,1.72,1.72,0,1,0-3.42,0Z" style="fill:#161616"/><path d="M1056.42,259c-.61,15.93-1.77,31.82-3.71,47.6,0,0,0,0,0,0q-1.21,9.64-2.79,19.26c-.52,3.27-1.1,6.54-1.65,9.78s-1.21,6.55-1.74,9.82a1.79,1.79,0,0,0,.13,1.1,1.31,1.31,0,0,0,.79.66,1.29,1.29,0,0,0,1.58-1c1.42-5.33,2.45-10.77,3.39-16.19s1.74-10.91,2.45-16.38c1.42-11,2.47-22,3.26-33.1.5-7.18.84-14.36,1.13-21.54a1.51,1.51,0,0,0-1.44-1.59,1.53,1.53,0,0,0-1.42,1.59Z" style="fill:#161616"/><path d="M1056.28,251.34a1.32,1.32,0,0,0,0,1.73c1.66,2,3.27,4,4.77,6.17s2.73,4.14,4,6.31a1.14,1.14,0,0,0,1.58.47,1.37,1.37,0,0,0,.42-1.74,80,80,0,0,0-9.16-12.94,1.07,1.07,0,0,0-1.58,0Z" style="fill:#161616"/><path d="M1056.42,260.17a.69.69,0,0,0-.21.9c1.52,2.51,3.13,5,4.65,7.49s3,5.1,4.32,7.76a.6.6,0,0,0,.89.26.77.77,0,0,0,.24-1c-1.32-2.66-2.84-5.21-4.4-7.7s-3.15-5-4.71-7.5a.62.62,0,0,0-.52-.32.43.43,0,0,0-.26.09Z" style="fill:#161616"/><path d="M1055.94,268.48a1.18,1.18,0,0,0-.34,1.53c1.5,2.29,3,4.61,4.31,7,.69,1.19,1.35,2.4,2,3.62s1.29,2.6,1.92,3.91a1,1,0,0,0,1.42.4,1.11,1.11,0,0,0,.47-.69,1.44,1.44,0,0,0-.1-.87,53.77,53.77,0,0,0-3.74-7.38c-1.42-2.41-3-4.75-4.52-7.1a1.16,1.16,0,0,0-.61-.52l-.26,0a1.08,1.08,0,0,0-.53.15Z" style="fill:#161616"/><path d="M1055.39,275.72a.81.81,0,0,0-.37.52.88.88,0,0,0,.08.63c1.26,1.83,2.47,3.71,3.6,5.65.58,1,1.16,2,1.69,3s1.08,2.06,1.6,3.07a.74.74,0,0,0,1.08.29.82.82,0,0,0,.37-.49,1.15,1.15,0,0,0-.08-.67,51.77,51.77,0,0,0-3.18-5.93c-1.19-2-2.45-3.88-3.74-5.74a1,1,0,0,0-.47-.4s-.13,0-.21,0a.77.77,0,0,0-.37.12Z" style="fill:#161616"/><path d="M1055.84,282.06a.82.82,0,0,0-.27,1.1c1.35,2.17,2.61,4.43,3.77,6.74a.65.65,0,0,0,1,.26.8.8,0,0,0,.24-1,64.43,64.43,0,0,0-3.74-6.77.78.78,0,0,0-.42-.38.38.38,0,0,0-.18,0,.53.53,0,0,0-.37.12Z" style="fill:#161616"/><path d="M1126.63,208.78s0,.05,0,.08,0-.06,0-.08Zm6.13-22.65a29,29,0,0,0-4.13,3.65,23.73,23.73,0,0,0-3,4.17,23.37,23.37,0,0,0-1.9,4.52,18.89,18.89,0,0,0-.73,4.69,18.63,18.63,0,0,0,.39,4.66,17,17,0,0,0,1.53,4.43,19,19,0,0,0,2.65,4,19.82,19.82,0,0,0,3.77,3.45,23.13,23.13,0,0,0,4.1,2.26,34.15,34.15,0,0,0,4.42,1.56,45.93,45.93,0,0,0,10.31,1.56,49.89,49.89,0,0,0,10.63-.75,32.71,32.71,0,0,0,9.45-3.12,2.55,2.55,0,0,0,.66-.73,2.24,2.24,0,0,0,.18-1.53,1.82,1.82,0,0,0-2.24-1.39c-1.55.46-3.1.89-4.65,1.27s-3.08.64-4.61.87a55.46,55.46,0,0,1-15.44.12,35.79,35.79,0,0,1-9.21-2.58,21.24,21.24,0,0,1-4.1-2.61,16.58,16.58,0,0,1-2.5-2.72,18.19,18.19,0,0,1-1.74-3.3,16.19,16.19,0,0,1-.87-3.47,18.27,18.27,0,0,1,0-3.77,20.91,20.91,0,0,1,1.06-4.17,19.38,19.38,0,0,1,2.1-3.88,22.25,22.25,0,0,1,3.55-3.88c.48-.4,1-.81,1.5-1.18a1.3,1.3,0,0,0,.4-1.71,1.15,1.15,0,0,0-1-.61,1.1,1.1,0,0,0-.56.17" style="fill:#161616"/><path d="M1169.39,217a1.67,1.67,0,0,0-.64.9,33.66,33.66,0,0,0-.23,19.28,29.75,29.75,0,0,0,1.79,4.54,28,28,0,0,0,2.55,4.09,21.74,21.74,0,0,0,3.1,3.33,17.16,17.16,0,0,0,2,1.5,14,14,0,0,0,2.34,1.22,1.08,1.08,0,0,0,.71,0,1.34,1.34,0,0,0,.79-.67,1.71,1.71,0,0,0,.13-1.1,1.51,1.51,0,0,0-.61-.87c-.79-.6-1.57-1.18-2.31-1.82a25.46,25.46,0,0,1-4.13-4.52,27.24,27.24,0,0,1-2.9-5.44,32.79,32.79,0,0,1-1.65-6.75,29.92,29.92,0,0,1,0-6.95,29.23,29.23,0,0,1,1.13-5,1.55,1.55,0,0,0-1-1.86,1.49,1.49,0,0,0-.36,0,1.26,1.26,0,0,0-.71.2Z" style="fill:#161616"/><path d="M1184.78,244.88a8.41,8.41,0,0,0-4,3.07,14.49,14.49,0,0,0-1.57,2.81,23.87,23.87,0,0,0-1.27,3.94,2.34,2.34,0,0,0,1.42,2.77,2.07,2.07,0,0,0,2.53-1.59,24.84,24.84,0,0,1,.79-2.69,14.62,14.62,0,0,1,1.16-2.26,9.29,9.29,0,0,1,.94-1,9,9,0,0,1,.82-.55,8.19,8.19,0,0,1,.81-.23,4.81,4.81,0,0,1,.93,0,5.07,5.07,0,0,1,1.18.37,7.63,7.63,0,0,1,1.52,1,11.79,11.79,0,0,1,1.79,2,16.2,16.2,0,0,1,1.71,3.24,17.94,17.94,0,0,1,1,3.94,18.25,18.25,0,0,1,0,3.91,18.78,18.78,0,0,1-.92,3.67,14.14,14.14,0,0,1-1.47,2.81,12.63,12.63,0,0,1-1.47,1.68,7.36,7.36,0,0,1-1.35.87,7.55,7.55,0,0,1-1.26.38,5.06,5.06,0,0,1-1.23,0,7.09,7.09,0,0,1-1.29-.38,9.19,9.19,0,0,1-1.61-1.07,18.85,18.85,0,0,1-2.39-2.72c-.13-.21-.27-.41-.4-.58a1.49,1.49,0,0,0-2.15-.64,1.87,1.87,0,0,0-.58,2.4,19.13,19.13,0,0,0,2,3.1,11.83,11.83,0,0,0,2.42,2.32,8.13,8.13,0,0,0,2.37,1.24,7.06,7.06,0,0,0,2.57.44,8.57,8.57,0,0,0,4.69-1.65,13.25,13.25,0,0,0,3.73-4.23,20.21,20.21,0,0,0,1.27-2.75,18.65,18.65,0,0,0,.81-2.95,23.4,23.4,0,0,0,.37-3.33,21.41,21.41,0,0,0-.21-3.68,20.58,20.58,0,0,0-1.84-6.14,17.47,17.47,0,0,0-3-4.49,11.47,11.47,0,0,0-4.21-2.86,7.59,7.59,0,0,0-2.26-.47h-.34a7.11,7.11,0,0,0-2,.35Z" style="fill:#161616"/><path d="M1126,215.17c-.65,3.1-1.37,6.17-2,9.24-.84,3.82-1.63,7.67-2.34,11.52a164.6,164.6,0,0,0-3.08,26,75.59,75.59,0,0,0,.6,12.22,36,36,0,0,0,3,10.37A23.39,23.39,0,0,0,1125,289a19,19,0,0,0,4.47,4,18.13,18.13,0,0,0,2.32,1.28,29.71,29.71,0,0,0,3,1.21,27.44,27.44,0,0,0,5.92,1.1,32.34,32.34,0,0,0,7.16-.26,43.56,43.56,0,0,0,7.71-1.79,41.73,41.73,0,0,0,6.81-2.93,32.78,32.78,0,0,0,3-1.76,21.67,21.67,0,0,0,2.52-2,5.59,5.59,0,0,0,.71-.52,1.77,1.77,0,0,0,.71-1,1.84,1.84,0,0,0-.15-1.3,1.74,1.74,0,0,0-.92-.78,1.38,1.38,0,0,0-1.21.17,7.61,7.61,0,0,1-.82.58c-.87.41-1.74.87-2.63,1.28a56.83,56.83,0,0,1-14.58,4.54,36.21,36.21,0,0,1-9.7.12,25,25,0,0,1-5.71-1.65,20.59,20.59,0,0,1-3.77-2.41,20.3,20.3,0,0,1-2.86-3.12,23.52,23.52,0,0,1-2.34-4.58,40.51,40.51,0,0,1-2.16-9.26c-.87-7.7-.34-15.52.55-23.19.71-5.74,1.68-11.38,2.79-17,.89-4.57,1.89-9.12,2.87-13.69a1.57,1.57,0,0,0-.95-1.83,1.42,1.42,0,0,0-.34,0,1.33,1.33,0,0,0-1.32,1.07Z" style="fill:#161616"/><path d="M1129.9,247.75a14.28,14.28,0,0,0-4.45,3.47,9.79,9.79,0,0,0-2.29,4.66,7.54,7.54,0,0,0,0,2.64,6.11,6.11,0,0,0,1.11,2.34,6.33,6.33,0,0,0,2,1.74,9.58,9.58,0,0,0,3.13,1.22,1.41,1.41,0,0,0,1-.18,1.44,1.44,0,0,0,.63-.87,1.56,1.56,0,0,0-.95-1.85,17.75,17.75,0,0,1-1.73-.61,9.83,9.83,0,0,1-1.4-.87c-.23-.23-.44-.46-.66-.72a5.24,5.24,0,0,1-.34-.67,5.05,5.05,0,0,1-.18-.72,4.22,4.22,0,0,1,0-.87,9.77,9.77,0,0,1,.31-1.24,11.64,11.64,0,0,1,.85-1.6,13.49,13.49,0,0,1,1.71-1.85,13.06,13.06,0,0,1,2.5-1.62,1.26,1.26,0,0,0,.57-.81,1.74,1.74,0,0,0-.13-1.1,1.46,1.46,0,0,0-.76-.64,1.16,1.16,0,0,0-.32,0,1.28,1.28,0,0,0-.65.18Z" style="fill:#161616"/><path d="M1126.84,273.52a1.83,1.83,0,0,0,0,2.43,14.24,14.24,0,0,0,7.37,4.17,12.43,12.43,0,0,0,8.66-1.36,1.77,1.77,0,0,0,.68-1.89,1.51,1.51,0,0,0-1.87-1.15,23.89,23.89,0,0,1-3.44.92,13.91,13.91,0,0,1-3.16,0,12.33,12.33,0,0,1-2.89-.87,11.15,11.15,0,0,1-2.35-1.53c-.29-.23-.52-.46-.79-.72a1.49,1.49,0,0,0-1.13-.5,1.38,1.38,0,0,0-1.08.5Z" style="fill:#161616"/><path d="M1132,220.27a6.61,6.61,0,0,0-2.4.69,8.78,8.78,0,0,0-2.07,1.51,1.5,1.5,0,0,0-.4,1.07,1.53,1.53,0,0,0,.4,1.07,1.28,1.28,0,0,0,1,.44,1.41,1.41,0,0,0,1-.44l.11-.08a6.38,6.38,0,0,1,1.23-.81,4.19,4.19,0,0,1,.93-.29,4.71,4.71,0,0,1,.92,0,6.14,6.14,0,0,1,1.1.34,11,11,0,0,1,1.08.64,1.35,1.35,0,0,0,2-.55,1.88,1.88,0,0,0,.15-1.19,1.69,1.69,0,0,0-.65-.95,6.17,6.17,0,0,0-3.92-1.45Z" style="fill:#161616"/><path d="M1154.57,228.49a.9.9,0,1,0,1.79,0,.94.94,0,0,0-.89-1,.93.93,0,0,0-.9,1Z" style="fill:#161616"/><path d="M1153.07,225.83a1.7,1.7,0,0,0-1.13.52,1.85,1.85,0,0,0-.47,1.25,1.79,1.79,0,0,0,.47,1.24,1.43,1.43,0,0,0,1.13.52,8.48,8.48,0,0,1,2,0,7.24,7.24,0,0,1,1.74.49,8.47,8.47,0,0,1,1.39.9,9.5,9.5,0,0,1,1.24,1.39,12.79,12.79,0,0,1,1.31,2.55,4,4,0,0,1,.19.46,1.72,1.72,0,0,0,.6.9,1.51,1.51,0,0,0,1.06.14,1.37,1.37,0,0,0,.81-.69,1.77,1.77,0,0,0,.13-1.13,11.37,11.37,0,0,0-1.26-3.62,10,10,0,0,0-2.47-3,9.1,9.1,0,0,0-5.84-2c-.29,0-.58,0-.85,0Z" style="fill:#161616"/><path d="M1156,239.58c0,.06.08.09.11.15s-.08-.09-.11-.15Zm-8.15-5.38a1.39,1.39,0,0,0-.87,1.68,1.22,1.22,0,0,0,1.53.92c.37-.08.76-.2,1.15-.26a7.63,7.63,0,0,1,1.85,0,8.47,8.47,0,0,1,1.57.46,9,9,0,0,1,1.45.93,10.69,10.69,0,0,1,1.42,1.59,14.84,14.84,0,0,1,1.45,2.73,20.82,20.82,0,0,1,1,4.19,21.34,21.34,0,0,1,0,4.52,17.77,17.77,0,0,1-.47,2.35,1.51,1.51,0,0,0,.6,1.59,1.14,1.14,0,0,0,1,.11,1.06,1.06,0,0,0,.74-.63,12.34,12.34,0,0,0,.58-1.68,16.86,16.86,0,0,0,.34-2,17.33,17.33,0,0,0,0-3.53,20.16,20.16,0,0,0-1.92-7.36,11.66,11.66,0,0,0-4.52-5,8.77,8.77,0,0,0-3.24-1,7.36,7.36,0,0,0-.81-.06,10.64,10.64,0,0,0-2.87.47Z" style="fill:#161616"/><path d="M1143.5,244.33a2.73,2.73,0,1,0,2.73-3,2.89,2.89,0,0,0-2.73,3Z" style="fill:#161616"/><path d="M1125.42,235.09c0,.06,0,.12-.05.15s0-.09.05-.15Zm1.87-3.62-.08.09.08-.09Zm5.26-2.2s0,0,.06.06-.06,0-.06-.06Zm-3.39-2.89a6.53,6.53,0,0,0-1.26.72,12.1,12.1,0,0,0-1.19,1.07,16.45,16.45,0,0,0-1.94,2.67,22.67,22.67,0,0,0-2.85,9.9,1.25,1.25,0,0,0,1.19,1.27,1.23,1.23,0,0,0,1.16-1.27,11,11,0,0,1,.08-1.42,21.52,21.52,0,0,1,1.1-4.28,20,20,0,0,1,1.92-3.68,11,11,0,0,1,1.5-1.68A6.15,6.15,0,0,1,1130,229c.26-.09.5-.18.74-.24a3.31,3.31,0,0,1,.63,0,5.17,5.17,0,0,1,.63.21,3.17,3.17,0,0,1,.76.49,8.78,8.78,0,0,1,1.13,1.3,15.45,15.45,0,0,1,.87,1.45,1.17,1.17,0,0,0,1.66.46,1.38,1.38,0,0,0,.45-1.79,11.66,11.66,0,0,0-2.29-3.33,5.52,5.52,0,0,0-2.63-1.48,8.48,8.48,0,0,0-.87-.06,4.27,4.27,0,0,0-1.87.41Z" style="fill:#161616"/><path d="M1124.4,236.63a3.71,3.71,0,1,0,3.68-4.08,3.93,3.93,0,0,0-3.68,4.08Z" style="fill:#161616"/><path d="M1142.71,244.91a3.25,3.25,0,1,0,3.23-3.56,3.44,3.44,0,0,0-3.23,3.56Z" style="fill:#161616"/><path d="M1142.63,184.22l-.08.06.08-.06Zm6.79-4.95a30.58,30.58,0,0,0-6.87,2.09,25.59,25.59,0,0,0-3.23,1.7,20.36,20.36,0,0,0-2.82,2.09,1.35,1.35,0,0,0-.34,1,1.41,1.41,0,0,0,.34.92,1.19,1.19,0,0,0,.87.41,1.25,1.25,0,0,0,.84-.41.63.63,0,0,0,.13-.11,20.76,20.76,0,0,1,4.13-2.61,30.24,30.24,0,0,1,8.21-2.37,42.27,42.27,0,0,1,11.94.08,41.37,41.37,0,0,1,11,3.22,32.62,32.62,0,0,1,7.08,4.45,24.23,24.23,0,0,1,3.84,4.17,22.57,22.57,0,0,1,2.21,4.12,21.54,21.54,0,0,1,1.08,4.34c.07.75.13,1.5.13,2.26a1.89,1.89,0,0,0,1.79,2,1.91,1.91,0,0,0,1.79-2,22.91,22.91,0,0,0-1.4-7.91,23.23,23.23,0,0,0-1.74-3.62,22.79,22.79,0,0,0-2.31-3.21,27.78,27.78,0,0,0-5.81-5,35.69,35.69,0,0,0-7.16-3.5,42.45,42.45,0,0,0-7.66-2,48.6,48.6,0,0,0-8.15-.72h0a44.09,44.09,0,0,0-7.79.72Z" style="fill:#161616"/><path d="M1198.72,253l-.1.11.1-.11Zm4.58-8.63a.87.87,0,0,0-.08.14l.08-.14Zm-6.63-30.72a.3.3,0,0,0,.1.09.3.3,0,0,1-.1-.09Zm-7.6-9.24A2.62,2.62,0,0,0,1188,206a3,3,0,0,0,.23,2c.13.18.24.35.37.52a2.37,2.37,0,0,0,1.05.67l.19.09a32.59,32.59,0,0,1,6.6,4.19,29.52,29.52,0,0,1,4.34,4.72,28.41,28.41,0,0,1,2.9,5.48,29.52,29.52,0,0,1,1.52,6.16,35.24,35.24,0,0,1,0,7,37.88,37.88,0,0,1-2,7.82,42.72,42.72,0,0,1-4.32,8.1c-.84,1.19-1.71,2.32-2.6,3.45a1.85,1.85,0,0,0,0,2.43,1.46,1.46,0,0,0,1.1.49,1.64,1.64,0,0,0,1.11-.49,34.43,34.43,0,0,0,8.1-10.71A35,35,0,0,0,1210,235.3a33,33,0,0,0-1.45-12.22,30.39,30.39,0,0,0-6.37-11,32.53,32.53,0,0,0-5-4.43,35.61,35.61,0,0,0-6.23-3.48,1.28,1.28,0,0,0-.58-.11,2.62,2.62,0,0,0-1.26.37Z" style="fill:#161616"/><path d="M1193.93,231.24c0,.06,0,.12,0,.21,0-.09,0-.15,0-.21Zm-8.65-20.5a1.41,1.41,0,0,0,0,1.83,25.3,25.3,0,0,1,3,3.62,31.31,31.31,0,0,1,3.5,6.6,38,38,0,0,1,2.13,8.71,42.71,42.71,0,0,1,.26,5.56,1.32,1.32,0,1,0,2.63,0,42,42,0,0,0-.55-7.26,37.63,37.63,0,0,0-1.82-7.07,34.22,34.22,0,0,0-3-6.37,32.19,32.19,0,0,0-4.47-5.62,1.31,1.31,0,0,0-.87-.37,1.06,1.06,0,0,0-.81.37Z" style="fill:#161616"/><path d="M1181.25,213.26a1.31,1.31,0,0,0-.39,1.71,32.61,32.61,0,0,1,1.94,4.14A33,33,0,0,1,1185,231a39.41,39.41,0,0,1-.32,4.34,1.33,1.33,0,0,0,.19.73,1.42,1.42,0,0,0,.76.64,1.33,1.33,0,0,0,1-.15,1.21,1.21,0,0,0,.58-.84,34.44,34.44,0,0,0-.37-11.41,37.16,37.16,0,0,0-4-10.59,1.1,1.1,0,0,0-1-.61,1,1,0,0,0-.55.14Z" style="fill:#161616"/><path d="M1166.47,207.53a.14.14,0,0,0,0,.09.14.14,0,0,1,0-.09Zm-25.94-18.3a16.29,16.29,0,0,0-2.56.84,1.71,1.71,0,0,0-.89.75,1.92,1.92,0,0,0-.16,1.31,1.86,1.86,0,0,0,.68,1,1.49,1.49,0,0,0,1.19.18,12.45,12.45,0,0,1,3.1-.93,14.93,14.93,0,0,1,3.95,0,21,21,0,0,1,5.39,1.68,35.27,35.27,0,0,1,7.4,4.89,48.67,48.67,0,0,1,8,8.77c.44.67.89,1.34,1.31,2s.9,1.39,1.27,2.11a1.23,1.23,0,0,0,1.76.53,1.53,1.53,0,0,0,.47-1.94c-.31-.64-.58-1.31-.92-1.94s-.79-1.39-1.21-2.09a47,47,0,0,0-3-4.17,46,46,0,0,0-7.58-7.38,30,30,0,0,0-8.84-4.89,19,19,0,0,0-4.68-1c-.45,0-.89-.06-1.31-.06a18.65,18.65,0,0,0-3.34.35Z" style="fill:#161616"/><path d="M1166.62,195.8a.06.06,0,0,0,.06.06.06.06,0,0,1-.06-.06Zm-10.94-9.15a1.47,1.47,0,0,0,0,1.95,1.4,1.4,0,0,0,.89.4.4.4,0,0,1,.19,0,12.83,12.83,0,0,1,3.26.95,15.06,15.06,0,0,1,3.24,2.09,23.92,23.92,0,0,1,3.5,3.91,43,43,0,0,1,4.13,8.08c.34.89.65,1.82,1,2.75a1.22,1.22,0,0,0,.53.72,1,1,0,0,0,.86.12,1.25,1.25,0,0,0,.77-1.51,43.6,43.6,0,0,0-2.45-6.69,34.79,34.79,0,0,0-3.63-6.14,20.7,20.7,0,0,0-4.84-4.69,15.71,15.71,0,0,0-3-1.53,13.37,13.37,0,0,0-3.53-.84s0,0-.08,0a1.23,1.23,0,0,0-.81.43" style="fill:#161616"/><path d="M1168.31,190.07a1.55,1.55,0,0,0,.47,2,17.17,17.17,0,0,1,2.42,1.68,19.43,19.43,0,0,1,3.08,3.39,24.64,24.64,0,0,1,2.45,4.63,26.82,26.82,0,0,1,1.44,5.79,1.44,1.44,0,0,0,.63.9,1.24,1.24,0,0,0,1.06.14,1.34,1.34,0,0,0,.81-.69,1.6,1.6,0,0,0,.13-1.16,26.72,26.72,0,0,0-3.44-10,20.59,20.59,0,0,0-7.24-7.3,1.46,1.46,0,0,0-.68-.17,1.22,1.22,0,0,0-1.13.72Z" style="fill:#161616"/><path d="M1184.33,276c.1,2.52.34,5,.66,7.47a51.9,51.9,0,0,0,1.52,7.58,1.89,1.89,0,0,0,2.32,1.45,2.13,2.13,0,0,0,1.31-2.55c-.36-1.5-.73-3-1.07-4.48s-.56-3.1-.77-4.64-.31-3.21-.39-4.83a1.92,1.92,0,0,0-1.79-2,1.89,1.89,0,0,0-1.79,2Z" style="fill:#161616"/><path d="M1164.65,306.17c0,.06,0,.09,0,.12s0-.06,0-.12Zm-3.55-13s0,.06,0,.09,0-.06,0-.09Zm-2-1.36a1.22,1.22,0,0,0-.34.9c.13,1.54.34,3.07.58,4.6s.66,3.16,1,4.69a81,81,0,0,0,3,9,1.29,1.29,0,0,0,.87.72,1.31,1.31,0,0,0,1.13-.17,1.59,1.59,0,0,0,.65-1,2.12,2.12,0,0,0,.06-.43,1.75,1.75,0,0,0-.19-.81c-.44-1.1-.89-2.23-1.31-3.36-.77-2-1.45-4-2-6a44.93,44.93,0,0,1-1.42-6.63l-.08-.61a1.38,1.38,0,0,0-.32-.9,1.22,1.22,0,0,0-.84-.37,1.16,1.16,0,0,0-.82.37Z" style="fill:#161616"/><path d="M1154.89,292.68c-1.05,4.58-2.24,9.12-3.05,13.78-.42,2.32-.74,4.69-.95,7-.13,1.19-.18,2.34-.26,3.53s0,2.41-.11,3.59a1.65,1.65,0,0,0,.74,1.42,1.4,1.4,0,0,0,1.84-.26,6.88,6.88,0,0,0,.76-1.07,14.21,14.21,0,0,1,2-2.14,12.78,12.78,0,0,1,2.39-1.54,13.21,13.21,0,0,1,2.9-.84c.5-.06,1-.08,1.47-.11a1.95,1.95,0,0,0,0-3.88,15.1,15.1,0,0,0-3.58.52,14.1,14.1,0,0,0-3.39,1.47,12.63,12.63,0,0,0-2.24,1.8c0-.35,0-.7,0-1,.08-1.71.24-3.42.42-5.1a166.79,166.79,0,0,1,3.16-16.56,1.26,1.26,0,0,0-.76-1.48.83.83,0,0,0-.27,0,1.12,1.12,0,0,0-1,.87Z" style="fill:#161616"/><path d="M1178.78,302.58a.66.66,0,0,1-.19.15,1.73,1.73,0,0,0,.19-.15Zm8.15-10.65a1.48,1.48,0,0,0-.52.75.07.07,0,0,1,0-.06,20.3,20.3,0,0,1-2.1,4,35.21,35.21,0,0,1-5.79,6.2,58.9,58.9,0,0,1-5.08,3.76c-1.81,1.22-3.71,2.32-5.57,3.45a2.13,2.13,0,0,0-.66,2.75,1.78,1.78,0,0,0,2.5.72c1.84-1.22,3.63-2.49,5.39-3.76a70.06,70.06,0,0,0,5.68-4.64,33.88,33.88,0,0,0,4.56-5.15,27.66,27.66,0,0,0,3.36-6.48,1.39,1.39,0,0,0-.1-1,1.29,1.29,0,0,0-.74-.64,1.62,1.62,0,0,0-.31,0,1.28,1.28,0,0,0-.64.17Z" style="fill:#161616"/><path d="M1193.75,295.43a1.57,1.57,0,0,0-.37,1c-.05.49-.11,1-.18,1.44a69.77,69.77,0,0,1-4,15.7,53,53,0,0,1-5.26,10.28,22.22,22.22,0,0,0-1.16-2.64,18.06,18.06,0,0,0-1.92-3,18.58,18.58,0,0,0-2.45-2.41,11.39,11.39,0,0,0-2.5-1.62,14.28,14.28,0,0,0-3.15-1.13,13.43,13.43,0,0,0-7,.29,2.22,2.22,0,0,0-1.48,2.12,2.28,2.28,0,0,0,.61,1.53,1.68,1.68,0,0,0,1.39.64,18.16,18.16,0,0,1,4.48-.09,13.73,13.73,0,0,1,3,.9,14.6,14.6,0,0,1,2.58,1.65,17,17,0,0,1,2.23,2.49,18.38,18.38,0,0,1,1.9,3.62c.29.78.52,1.59.76,2.4a2.05,2.05,0,0,0,1.32,1.42,1.76,1.76,0,0,0,2.08-.93c.31-.57.68-1.1,1-1.65s.69-1.12,1-1.7c.71-1.25,1.42-2.52,2.08-3.83a68,68,0,0,0,3.49-8.33,69.52,69.52,0,0,0,2.35-8.4,75.42,75.42,0,0,0,1.34-8.77,1.51,1.51,0,0,0-.4-1,1.18,1.18,0,0,0-.89-.4,1.26,1.26,0,0,0-.92.4Z" style="fill:#161616"/><path d="M1188.09,284.75a1.28,1.28,0,0,0-.79.67,1.56,1.56,0,0,0-.13,1.12,1.61,1.61,0,0,0,.61.87c.07.06.15.15.23.21a33.65,33.65,0,0,1,3.45,3.41c1.18,1.33,2.21,2.81,3.29,4.23a1.28,1.28,0,0,0,1.73.26,1.71,1.71,0,0,0,.53-2.17,28.34,28.34,0,0,0-3.58-4.49,38.76,38.76,0,0,0-4.34-4,1,1,0,0,0-.63-.2,1.43,1.43,0,0,0-.37.06Z" style="fill:#161616"/><path d="M1201.38,297.05s.1,0,.16.06-.11,0-.16-.06Zm-7.61-5a2,2,0,0,0,1.27,2.41c2.1.75,4.21,1.59,6.26,2.55a112.22,112.22,0,0,1,13.65,7.81c4.55,3,9,6.17,13.55,9.09a1.52,1.52,0,0,0,2-.29,1.93,1.93,0,0,0,0-2.49,86.22,86.22,0,0,0-16.21-11.95c-2.92-1.71-5.92-3.25-8.94-4.66a92.89,92.89,0,0,0-9.32-3.86,1.5,1.5,0,0,0-.47-.08,1.9,1.9,0,0,0-1.74,1.47Z" style="fill:#161616"/><path d="M1219.58,401.55a1.1,1.1,0,0,1-.13.23l.13-.23Zm10.34-90.77a1.85,1.85,0,0,0-1.05.9,2.36,2.36,0,0,0-.18,1.53c.13.84.26,1.71.36,2.58a143.32,143.32,0,0,1,.93,17.83,181.12,181.12,0,0,1-1.24,20.33,173.53,173.53,0,0,1-3.55,19.34,141.84,141.84,0,0,1-5.4,17.4c-.57,1.51-1.18,3-1.78,4.43-.35.81-.69,1.62-1,2.4a17.64,17.64,0,0,1-1.11,2.32,2.35,2.35,0,0,0,.71,3,1.91,1.91,0,0,0,2.71-.78.49.49,0,0,1,.11-.14,51.61,51.61,0,0,0,6.92-13.7,104.79,104.79,0,0,0,4.21-16.16c1.1-5.84,1.84-11.78,2.39-17.71.5-5.77.84-11.56.87-17.35a150.37,150.37,0,0,0-1.66-24.81,1.88,1.88,0,0,0-.81-1.16,1.83,1.83,0,0,0-.92-.26,1.32,1.32,0,0,0-.48.06" style="fill:#161616"/><path d="M1202,342.34a2,2,0,0,0-.52,1.45,50.42,50.42,0,0,1-.24,10.91,108,108,0,0,1-4.37,19c-1,3.07-2.1,6.11-3.26,9.15L1192,387c-.47,1.25-1,2.52-1.37,3.79-.05.12-.08.21-.13.32a2.64,2.64,0,0,0,0,1.25,2.33,2.33,0,0,0,1,1.39,2.07,2.07,0,0,0,2.92-.84c.42-.75.86-1.45,1.26-2.2s.89-1.83,1.29-2.78c.87-2,1.63-4.08,2.31-6.2a128.14,128.14,0,0,0,3.48-13,131.77,131.77,0,0,0,2.21-13.4,57.14,57.14,0,0,0,.18-11.55,2.26,2.26,0,0,0-.53-1.45,1.74,1.74,0,0,0-1.31-.58,1.76,1.76,0,0,0-1.32.58Z" style="fill:#161616"/><path d="M1142.45,323.81a1.78,1.78,0,0,0-.53,2.28c.47,1.05.95,2.09,1.37,3.19a71.38,71.38,0,0,1,3.68,16,149.41,149.41,0,0,1,.9,16c.05,2.72,0,5.48,0,8.23s0,5.29.05,7.93a2.27,2.27,0,1,0,4.52,0c.06-2.17.11-4.34.08-6.54s0-4.49-.13-6.75c-.16-4.6-.53-9.18-1.05-13.75-1-9-3-17.9-6.82-26a1.4,1.4,0,0,0-1.31-.82,1.39,1.39,0,0,0-.76.21Z" style="fill:#161616"/><path d="M1133,301.31l-.18.09.18-.09Zm20.18-9.67c-2.31.2-4.6.49-6.89.87a66.17,66.17,0,0,0-6.6,1.5,63.29,63.29,0,0,0-6.4,2.29,41.17,41.17,0,0,0-6.31,3.3,2.29,2.29,0,0,0-.71,2.93,2.06,2.06,0,0,0,1.16,1c.18,0,.37,0,.52.06a1.71,1.71,0,0,0,1-.29c1.42-.67,2.84-1.39,4.26-2.06a68,68,0,0,1,17.34-5.47c.89-.11,1.76-.2,2.65-.29a1.67,1.67,0,0,0,1.21-.58,1.93,1.93,0,0,0-1.1-3.24Z" style="fill:#161616"/><path d="M1125.82,301.77a154.62,154.62,0,0,1-1.08,18.39c-.42,3.44-.92,6.89-1.55,10.31-.66,3.7-1.48,7.35-2.42,11a195.49,195.49,0,0,1-6.74,20.35c-.18.53-.39,1-.6,1.54a2.58,2.58,0,0,0-.21,1.85,2.29,2.29,0,0,0,1,1.45,2.09,2.09,0,0,0,3-.87c.55-1.07,1.07-2.14,1.57-3.24.61-1.33,1.14-2.72,1.66-4.08,1-2.52,1.76-5.07,2.5-7.68a164,164,0,0,0,3.66-16.33,183.28,183.28,0,0,0,2.81-32.66,1.81,1.81,0,1,0-3.6,0Z" style="fill:#161616"/><path d="M1216.51,401.4a1.35,1.35,0,0,0,.86,1.65c2.71.93,5.45,1.77,8.16,2.75a1.32,1.32,0,0,0,1.63-1,1.52,1.52,0,0,0-.92-1.82c-2.76-.7-5.5-1.6-8.23-2.49a1.28,1.28,0,0,0-.32-.06,1.27,1.27,0,0,0-1.18,1Z" style="fill:#161616"/><path d="M1216.85,399.14a1.59,1.59,0,0,0-.69,1,1.65,1.65,0,0,0,1,2c1.34.29,2.68.63,4,1s2.64.93,4,1.27a1.46,1.46,0,0,0,1.66-.75,1.76,1.76,0,0,0,.13-1.22,1.49,1.49,0,0,0-.66-.95,25,25,0,0,0-4-1.45c-1.42-.4-2.87-.75-4.32-1.07a1.71,1.71,0,0,0-.39,0,1.23,1.23,0,0,0-.71.2Z" style="fill:#161616"/><path d="M1224.19,402.33a2.71,2.71,0,0,0-.69,1.76c-.15,4.23-.21,8.46-.23,12.69,0,2.05,0,4.08,0,6.13a53.66,53.66,0,0,0,.34,6.46,1.07,1.07,0,0,0,1,.87,1.15,1.15,0,0,0,1-.87,30.49,30.49,0,0,0,1.26-5.91c.29-2.22.48-4.45.61-6.68.21-4.23.26-8.46.42-12.69a2.38,2.38,0,0,0-2.26-2.48,2.16,2.16,0,0,0-1.58.72Z" style="fill:#161616"/><path d="M1209.72,439.36a.2.2,0,0,0-.11.06.2.2,0,0,1,.11-.06Zm14.07-10.25a31.51,31.51,0,0,0-4.55,1.82c-1.6.7-3.23,1.42-4.81,2.15-3.13,1.42-6.24,2.89-9.26,4.51a1.84,1.84,0,0,0-.77,1.1,2,2,0,0,0,.16,1.45,1.73,1.73,0,0,0,1,.84,1.55,1.55,0,0,0,1.29-.2c1-.52,2-1,3-1.48,2.47-1.13,5-2.11,7.5-3.1,1.29-.52,2.6-1,3.89-1.53a29.59,29.59,0,0,0,4-1.82,2.2,2.2,0,0,0,.85-2.32,1.87,1.87,0,0,0-1.79-1.48,2.63,2.63,0,0,0-.48.06Z" style="fill:#161616"/><path d="M1193.75,276.87a1.85,1.85,0,0,0,1.71,1.89q3.07.17,6.1.6c3.19.5,6.37,1.16,9.53,1.94s6.57,1.83,9.84,2.84,6.36,2,9.55,2.87c1.63.49,3.28.95,4.94,1.36a39.63,39.63,0,0,0,5.13,1,1.55,1.55,0,0,0,1.5-1.24,1.81,1.81,0,0,0-.16-1.33,1.7,1.7,0,0,0-.92-.79c-1.79-.75-3.63-1.3-5.47-1.91s-3.66-1.18-5.5-1.76c-3.79-1.16-7.6-2.32-11.42-3.33a114.5,114.5,0,0,0-23.12-4h0a1.84,1.84,0,0,0-1.66,1.91Z" style="fill:#161616"/><path d="M1239.42,288.22c-1.45,6.08-3.13,12.08-4.89,18.07s-3.61,12.19-5.16,18.36a1.82,1.82,0,0,0,1.13,2.2,1.45,1.45,0,0,0,1.24-.21,1.82,1.82,0,0,0,.76-1.07c1.9-5.9,3.63-11.9,5.32-17.92s3.36-12.25,4.84-18.47a1.91,1.91,0,0,0-1.19-2.26,2,2,0,0,0-.42-.06,1.68,1.68,0,0,0-1.63,1.36Z" style="fill:#161616"/><path d="M1240.42,286.34a2.11,2.11,0,0,0,0,2.75c1,1.16,2,2.29,3,3.45a39.84,39.84,0,0,0,3.19,3.3,1.74,1.74,0,0,0,1.18.55,1.57,1.57,0,0,0,1.18-.55,1.92,1.92,0,0,0,.5-1.3,2.15,2.15,0,0,0-.5-1.31c-.94-1.21-2-2.31-3-3.44s-2-2.29-3.08-3.45a1.67,1.67,0,0,0-1.23-.55,1.72,1.72,0,0,0-1.24.55Z" style="fill:#161616"/><path d="M1247.73,296a286,286,0,0,1-7.15,28.2c-1.4,4.64-2.92,9.21-4.5,13.79s-3.18,9.15-4.6,13.78a1.58,1.58,0,0,0,.65,1.71,1.35,1.35,0,0,0,1.9-.55,111.65,111.65,0,0,0,5.44-13.18c1.66-4.66,3.11-9.41,4.48-14.16,2.71-9.43,5-19,6.91-28.66a1.83,1.83,0,0,0-1.13-2.17,1,1,0,0,0-.42-.06,1.61,1.61,0,0,0-1.58,1.3Z" style="fill:#161616"/><path d="M1232.13,317.23a.85.85,0,0,0-.47.41,1,1,0,0,0-.08.67c1.05,2.83,2.08,5.7,3,8.6s1.71,6,2.52,9a1,1,0,0,0,1.21.75,1.09,1.09,0,0,0,.71-1.33,81.87,81.87,0,0,0-2.71-8.74c-1-2.93-2.13-5.82-3.23-8.72a1,1,0,0,0-.37-.52.68.68,0,0,0-.4-.11.75.75,0,0,0-.21,0Z" style="fill:#161616"/><path d="M1237.76,319.09v0Zm-4.26-11a1,1,0,0,0-.6,1.22,74.9,74.9,0,0,0,5.1,15.29.91.91,0,0,0,1.32.37.89.89,0,0,0,.42-.6,1.25,1.25,0,0,0-.08-.81c-.66-1.48-1.29-3-1.9-4.46,0,0,0,0,0,.05l0-.08,0-.15s0,.06,0,.12a72.71,72.71,0,0,1-3.15-10.25.93.93,0,0,0-.87-.72,1,1,0,0,0-.24,0Z" style="fill:#161616"/><path d="M1235.13,303.48a1.11,1.11,0,0,0-.45.67,1.41,1.41,0,0,0,.08.84c1.37,3,2.66,6.05,3.84,9.15,0,0,0,0,0-.06.63,1.65,1.24,3.3,1.81,4.95a1.37,1.37,0,0,0,.5.72,1.07,1.07,0,0,0,.85.12,1.24,1.24,0,0,0,.65-.55,1.3,1.3,0,0,0,.11-.93c-.87-2.46-1.82-4.86-2.82-7.26s-2.07-4.87-3.15-7.24a1,1,0,0,0-.87-.55.9.9,0,0,0-.53.14Z" style="fill:#161616"/><path d="M1145.58,336.84a2.2,2.2,0,0,0-.48,1.27c0,.38-.08.75-.1,1.1a95.27,95.27,0,0,1-3.66,15.92c-.81,2.67-1.71,5.27-2.6,7.88s-1.85,5.12-2.66,7.73a2,2,0,0,0,.81,2.17,1.67,1.67,0,0,0,1.37.21,1.75,1.75,0,0,0,1.06-.9c1.15-2.64,2.15-5.36,3.1-8.08s1.87-5.7,2.66-8.63a108.14,108.14,0,0,0,3.29-17.4,1.73,1.73,0,0,0-.48-1.27,1.48,1.48,0,0,0-1.16-.53,1.54,1.54,0,0,0-1.15.53Z" style="fill:#161616"/><path d="M1143.79,336.49l.08.11-.08-.11Zm-9.26-15.66a1,1,0,0,0-.32,1.27c2.92,5.12,6.37,9.81,9.74,14.59h0c.44.64.86,1.28,1.31,1.91a1.07,1.07,0,0,0,.61.49.9.9,0,0,0,.76-.11,1.1,1.1,0,0,0,.47-.67,1,1,0,0,0,0-.58,1.3,1.3,0,0,0-.26-.49c-2.21-3-4.47-5.93-6.63-9a.5.5,0,0,1,.13.2c-1.63-2.38-3.21-4.78-4.66-7.3a.87.87,0,0,0-.73-.46.69.69,0,0,0-.42.12Z" style="fill:#161616"/><path d="M1134.68,328.3a1.17,1.17,0,0,0-.34,1.47,93,93,0,0,0,7.16,11.73.79.79,0,0,0,.45.29,1,1,0,0,0,.79-.09,1.25,1.25,0,0,0,.47-.69,1.11,1.11,0,0,0-.11-.87c-1.26-1.8-2.5-3.62-3.68-5.5s-2.34-3.91-3.39-6a1,1,0,0,0-.87-.52,1,1,0,0,0-.48.15Z" style="fill:#161616"/><path d="M973,316l.08.17L973,316Zm.4-46.21a1.66,1.66,0,0,0-1,.84c-3.71,9.53-7,19.6-7,30.11a49.12,49.12,0,0,0,.58,7.36,40.8,40.8,0,0,0,1.73,7.18,38.61,38.61,0,0,0,8.37,14.15,1.41,1.41,0,0,0,1.87.26,1.81,1.81,0,0,0,.55-2.31A108.13,108.13,0,0,1,973,315.84a52.21,52.21,0,0,1-2.89-11.43,56.28,56.28,0,0,1,.08-12.71,81.64,81.64,0,0,1,5-18.76,3,3,0,0,1,.18-.47l.16-.43a2.07,2.07,0,0,0,0-1,1.93,1.93,0,0,0-.76-1.1,1.87,1.87,0,0,0-.85-.23,1.07,1.07,0,0,0-.44.06Z" style="fill:#161616"/><path d="M998.77,278.93l.16.09-.16-.09Zm-5.15-1.25a1.68,1.68,0,0,0,.5,2.15,39.69,39.69,0,0,0,6.78,3.59,25.16,25.16,0,0,0,3.56,1.18c.65.15,1.31.27,2,.38a12.4,12.4,0,0,0,1.84.09,1.57,1.57,0,0,0,1.42-1.22,1.7,1.7,0,0,0-1-2c-.76-.23-1.55-.37-2.31-.55s-1.74-.37-2.61-.58a30.51,30.51,0,0,1-4.76-1.67,28.65,28.65,0,0,1-3.45-1.94,1.17,1.17,0,0,0-.71-.21,1.44,1.44,0,0,0-1.23.78Z" style="fill:#161616"/></g></g><path d="M291.4,159.3v13.6h-15V159.3h-9.6v13.6h-15V159.3h-8V146.4h8v-17h-8V116.5h8V102.89h15V116.5h9.6V102.89h15V116.5h8v12.9h-8v17h8v12.9ZM277,128.8H266.2V147H277Z" style="fill:#da2222"/><path d="M331.1,174c-16.4,0-24.7-12.5-24.7-36,0-24.3,9.3-36.21,24.9-36.21,14.7,0,19.8,8.41,22.5,21.81L337.6,128c-1.2-7.8-2.3-11.8-6.4-11.8-5.4,0-7.5,5.7-7.5,21.6,0,16.1,2.1,21.8,7.7,21.8,3.9,0,5.2-2.8,7.1-11.4l15.5,5.3C350.9,166.2,345,174,331.1,174Z" style="fill:#da2222"/><path d="M382,172.9v-3a14.83,14.83,0,0,1-10.1,4.1c-8.7,0-13.6-5.8-13.6-17.7,0-11.5,5.7-17.3,15.4-17.3a18.38,18.38,0,0,1,8.3,1.7v-4.1c0-3.8-1.6-5.2-5.3-5.2-4.1,0-7.5,1.2-11.9,4l-4.4-10.7a35.51,35.51,0,0,1,18.8-5.4c12.3,0,17.9,5.5,17.9,16.7v36.9Zm0-22.4a10.58,10.58,0,0,0-5.2-1.1c-2.7,0-4.1,1.8-4.1,6.7,0,4.4,1.2,6.5,4.2,6.5a8,8,0,0,0,5.1-1.7Z" style="fill:#da2222"/><path d="M432.9,136.8c-2-1.9-3.9-3.1-6.7-3.1-3.1,0-5.2,1.3-5.8,5.1v34.1H405V120.4h15.4v3.2c2.4-2.6,5.2-4.3,8.8-4.3a12.91,12.91,0,0,1,6.4,1.4Z" style="fill:#da2222"/><path d="M452.1,151.1c.4,8.4,2.6,10.8,6.1,10.8,3.1,0,5.3-1.3,8.5-5.9l9.1,7.2c-4.4,6.5-9.4,10.8-18.3,10.8-13.1,0-19.8-10.3-19.8-27.1,0-18,7.1-27.6,19.8-27.6,12.4,0,19.2,9.3,19.2,28.1v3.7Zm5.1-20.2c-3.1,0-4.6,2.4-5.1,10.1h10.6C462.3,133.7,460.8,130.9,457.2,130.9Z" style="fill:#da2222"/><path d="M496.5,151.1c.4,8.4,2.6,10.8,6.1,10.8,3.1,0,5.3-1.3,8.5-5.9l9.1,7.2c-4.4,6.5-9.4,10.8-18.3,10.8-13.1,0-19.8-10.3-19.8-27.1,0-18,7.1-27.6,19.8-27.6,12.4,0,19.2,9.3,19.2,28.1v3.7Zm5.1-20.2c-3.1,0-4.6,2.4-5.1,10.1h10.6C506.7,133.7,505.2,130.9,501.6,130.9Z" style="fill:#da2222"/><path d="M555.8,136.8c-2-1.9-3.9-3.1-6.7-3.1-3.1,0-5.2,1.3-5.8,5.1v34.1H527.9V120.4h15.4v3.2c2.4-2.6,5.2-4.3,8.8-4.3a12.91,12.91,0,0,1,6.4,1.4Z" style="fill:#da2222"/><path d="M587.2,147.5h-6v25.4H564.8v-70h23.6c12.5,0,21.7,5.61,21.7,21.81C610.1,141.3,600.6,147.5,587.2,147.5Zm-.3-31h-5.7v17.4h5.4c4.8,0,6.9-2.5,6.9-8.8S591.6,116.5,586.9,116.5Z" style="fill:#da2222"/><path d="M616.7,172.9V106l15.4-6V172.9Z" style="fill:#da2222"/><path d="M662.8,172.9v-3a14.83,14.83,0,0,1-10.1,4.1c-8.71,0-13.61-5.8-13.61-17.7,0-11.5,5.7-17.3,15.41-17.3a18.38,18.38,0,0,1,8.3,1.7v-4.1c0-3.8-1.6-5.2-5.3-5.2-4.1,0-7.5,1.2-11.91,4l-4.4-10.7A35.55,35.55,0,0,1,660,119.3c12.3,0,17.9,5.5,17.9,16.7v36.9Zm0-22.4a10.58,10.58,0,0,0-5.2-1.1c-2.7,0-4.1,1.8-4.1,6.7,0,4.4,1.2,6.5,4.2,6.5a8,8,0,0,0,5.1-1.7Z" style="fill:#da2222"/><path d="M706.4,191.4H691.5l5.59-17-15.5-54H697.7l2.59,13.1A194,194,0,0,1,704,158.2a202.35,202.35,0,0,1,3.7-24.8l2.6-13h16Z" style="fill:#da2222"/><path d="M756.29,174c-4,0-7-1.9-9.4-4v2.9h-15.4V106l15.4-6V123.5c2.61-2.4,5.4-4.2,9.81-4.2,8.9,0,14.2,8.7,14.2,27.1C770.9,165.4,765.7,174,756.29,174Zm-5-41.7a6.5,6.5,0,0,0-4.4,1.8v25a6.24,6.24,0,0,0,4.5,1.9c2.81,0,4.21-1.8,4.21-14.2C755.6,134.2,754.2,132.3,751.29,132.3Z" style="fill:#da2222"/><path d="M796.59,174c-12.7,0-20.2-9.3-20.2-27.2s7-27.5,20.4-27.5c12.91,0,20.31,9.3,20.31,27.2S809.8,174,796.59,174Zm.1-41.8c-3.6,0-5,3.5-5,14.3s1.4,14.6,5.1,14.6c3.5,0,5-3.7,5-14.4C801.79,135.5,800.29,132.2,796.69,132.2Z" style="fill:#da2222"/><path d="M842.69,174c-12.7,0-20.2-9.3-20.2-27.2s7-27.5,20.4-27.5c12.9,0,20.31,9.3,20.31,27.2S855.9,174,842.69,174Zm.1-41.8c-3.6,0-5,3.5-5,14.3s1.4,14.6,5.1,14.6c3.5,0,5-3.7,5-14.4C847.89,135.5,846.39,132.2,842.79,132.2Z" style="fill:#da2222"/><path d="M894.69,172.9l-6.2-22.4-3.1,5.2v17.2H870V106l15.4-6V124.1c0,4.1-.2,10.1-.4,13.7,1.5-3.1,4.1-8.3,6.9-13.4l2.2-4H910.5l-10.81,16.3,11.1,36.2Z" style="fill:#da2222"/></svg>