<svg id="Layer_1" data-name="Layer 1" xmlns="http://www.w3.org/2000/svg" viewBox="0 0 1400 600"><rect id="White" width="1400" height="600" style="fill:#fff"/><path d="M291.4,159.3v13.6h-15V159.3h-9.6v13.6h-15V159.3h-8V146.4h8v-17h-8V116.5h8V102.89h15V116.5h9.6V102.89h15V116.5h8v12.9h-8v17h8v12.9ZM277,128.8H266.2V147H277Z" style="fill:#da2222"/><path d="M331.1,174c-16.4,0-24.7-12.5-24.7-36,0-24.3,9.3-36.21,24.9-36.21,14.7,0,19.8,8.41,22.5,21.81L337.6,128c-1.2-7.8-2.3-11.8-6.4-11.8-5.4,0-7.5,5.7-7.5,21.6,0,16.1,2.1,21.8,7.7,21.8,3.9,0,5.2-2.8,7.1-11.4l15.5,5.3C350.9,166.2,345,174,331.1,174Z" style="fill:#da2222"/><path d="M382,172.9v-3a14.83,14.83,0,0,1-10.1,4.1c-8.7,0-13.6-5.8-13.6-17.7,0-11.5,5.7-17.3,15.4-17.3a18.38,18.38,0,0,1,8.3,1.7v-4.1c0-3.8-1.6-5.2-5.3-5.2-4.1,0-7.5,1.2-11.9,4l-4.4-10.7a35.51,35.51,0,0,1,18.8-5.4c12.3,0,17.9,5.5,17.9,16.7v36.9Zm0-22.4a10.58,10.58,0,0,0-5.2-1.1c-2.7,0-4.1,1.8-4.1,6.7,0,4.4,1.2,6.5,4.2,6.5a8,8,0,0,0,5.1-1.7Z" style="fill:#da2222"/><path d="M432.9,136.8c-2-1.9-3.9-3.1-6.7-3.1-3.1,0-5.2,1.3-5.8,5.1v34.1H405V120.4h15.4v3.2c2.4-2.6,5.2-4.3,8.8-4.3a12.91,12.91,0,0,1,6.4,1.4Z" style="fill:#da2222"/><path d="M452.1,151.1c.4,8.4,2.6,10.8,6.1,10.8,3.1,0,5.3-1.3,8.5-5.9l9.1,7.2c-4.4,6.5-9.4,10.8-18.3,10.8-13.1,0-19.8-10.3-19.8-27.1,0-18,7.1-27.6,19.8-27.6,12.4,0,19.2,9.3,19.2,28.1v3.7Zm5.1-20.2c-3.1,0-4.6,2.4-5.1,10.1h10.6C462.3,133.7,460.8,130.9,457.2,130.9Z" style="fill:#da2222"/><path d="M496.5,151.1c.4,8.4,2.6,10.8,6.1,10.8,3.1,0,5.3-1.3,8.5-5.9l9.1,7.2c-4.4,6.5-9.4,10.8-18.3,10.8-13.1,0-19.8-10.3-19.8-27.1,0-18,7.1-27.6,19.8-27.6,12.4,0,19.2,9.3,19.2,28.1v3.7Zm5.1-20.2c-3.1,0-4.6,2.4-5.1,10.1h10.6C506.7,133.7,505.2,130.9,501.6,130.9Z" style="fill:#da2222"/><path d="M555.8,136.8c-2-1.9-3.9-3.1-6.7-3.1-3.1,0-5.2,1.3-5.8,5.1v34.1H527.9V120.4h15.4v3.2c2.4-2.6,5.2-4.3,8.8-4.3a12.91,12.91,0,0,1,6.4,1.4Z" style="fill:#da2222"/><path d="M587.2,147.5h-6v25.4H564.8v-70h23.6c12.5,0,21.7,5.61,21.7,21.81C610.1,141.3,600.6,147.5,587.2,147.5Zm-.3-31h-5.7v17.4h5.4c4.8,0,6.9-2.5,6.9-8.8S591.6,116.5,586.9,116.5Z" style="fill:#da2222"/><path d="M616.7,172.9V106l15.4-6V172.9Z" style="fill:#da2222"/><path d="M662.8,172.9v-3a14.83,14.83,0,0,1-10.1,4.1c-8.71,0-13.61-5.8-13.61-17.7,0-11.5,5.7-17.3,15.41-17.3a18.38,18.38,0,0,1,8.3,1.7v-4.1c0-3.8-1.6-5.2-5.3-5.2-4.1,0-7.5,1.2-11.91,4l-4.4-10.7A35.55,35.55,0,0,1,660,119.3c12.3,0,17.9,5.5,17.9,16.7v36.9Zm0-22.4a10.58,10.58,0,0,0-5.2-1.1c-2.7,0-4.1,1.8-4.1,6.7,0,4.4,1.2,6.5,4.2,6.5a8,8,0,0,0,5.1-1.7Z" style="fill:#da2222"/><path d="M706.4,191.4H691.5l5.59-17-15.5-54H697.7l2.59,13.1A194,194,0,0,1,704,158.2a202.35,202.35,0,0,1,3.7-24.8l2.6-13h16Z" style="fill:#da2222"/><path d="M756.29,174c-4,0-7-1.9-9.4-4v2.9h-15.4V106l15.4-6V123.5c2.61-2.4,5.4-4.2,9.81-4.2,8.9,0,14.2,8.7,14.2,27.1C770.9,165.4,765.7,174,756.29,174Zm-5-41.7a6.5,6.5,0,0,0-4.4,1.8v25a6.24,6.24,0,0,0,4.5,1.9c2.81,0,4.21-1.8,4.21-14.2C755.6,134.2,754.2,132.3,751.29,132.3Z" style="fill:#da2222"/><path d="M796.59,174c-12.7,0-20.2-9.3-20.2-27.2s7-27.5,20.4-27.5c12.91,0,20.31,9.3,20.31,27.2S809.8,174,796.59,174Zm.1-41.8c-3.6,0-5,3.5-5,14.3s1.4,14.6,5.1,14.6c3.5,0,5-3.7,5-14.4C801.79,135.5,800.29,132.2,796.69,132.2Z" style="fill:#da2222"/><path d="M842.69,174c-12.7,0-20.2-9.3-20.2-27.2s7-27.5,20.4-27.5c12.9,0,20.31,9.3,20.31,27.2S855.9,174,842.69,174Zm.1-41.8c-3.6,0-5,3.5-5,14.3s1.4,14.6,5.1,14.6c3.5,0,5-3.7,5-14.4C847.89,135.5,846.39,132.2,842.79,132.2Z" style="fill:#da2222"/><path d="M894.69,172.9l-6.2-22.4-3.1,5.2v17.2H870V106l15.4-6V124.1c0,4.1-.2,10.1-.4,13.7,1.5-3.1,4.1-8.3,6.9-13.4l2.2-4H910.5l-10.81,16.3,11.1,36.2Z" style="fill:#da2222"/><g id="_019" data-name="019"><path d="M283.48,230a45.82,45.82,0,0,1-1.6,12.88,27,27,0,0,1-4.36,9,17.67,17.67,0,0,1-6.46,5.3,18.76,18.76,0,0,1-15.78,0,17.78,17.78,0,0,1-6.44-5.3,26.58,26.58,0,0,1-4.34-9,53.29,53.29,0,0,1,0-25.76,26.58,26.58,0,0,1,4.34-9,17.78,17.78,0,0,1,6.44-5.3,18.76,18.76,0,0,1,15.78,0,17.67,17.67,0,0,1,6.46,5.3,27,27,0,0,1,4.36,9A45.82,45.82,0,0,1,283.48,230Zm-4,0a45.5,45.5,0,0,0-1.32-11.76,24.8,24.8,0,0,0-3.54-8,13.76,13.76,0,0,0-5.2-4.54,14.21,14.21,0,0,0-6.26-1.44,13.69,13.69,0,0,0-11.44,6,24.6,24.6,0,0,0-3.56,8,53.13,53.13,0,0,0,0,23.54,24.57,24.57,0,0,0,3.56,8,13.83,13.83,0,0,0,5.2,4.52,14.18,14.18,0,0,0,6.24,1.42,14.33,14.33,0,0,0,6.26-1.42,13.61,13.61,0,0,0,5.2-4.52,24.78,24.78,0,0,0,3.54-8A45.51,45.51,0,0,0,279.48,230Z"/><path d="M326.28,255.32v3h-29.2v-3h13V209.4q0-1.36.12-2.88L297.72,217.6a1.28,1.28,0,0,1-1.12.36,1.58,1.58,0,0,1-.88-.48l-1.16-1.6,16.36-14.44h3v53.88Z"/><path d="M362.72,234.92,365,231.7c.69-1,1.32-2,1.88-2.94a15.89,15.89,0,0,1-5.64,4,17.8,17.8,0,0,1-7.08,1.42,17.61,17.61,0,0,1-6.42-1.14,14.91,14.91,0,0,1-5.1-3.26,14.72,14.72,0,0,1-3.36-5.1A17.71,17.71,0,0,1,338,218a16.54,16.54,0,0,1,1.36-6.74,16.32,16.32,0,0,1,3.76-5.38,17.53,17.53,0,0,1,5.7-3.58,19.44,19.44,0,0,1,7.22-1.3,18.22,18.22,0,0,1,6.9,1.28,15.61,15.61,0,0,1,5.4,3.62,16.67,16.67,0,0,1,3.52,5.6,20,20,0,0,1,1.26,7.26,19,19,0,0,1-.46,4.2,21.72,21.72,0,0,1-1.36,4,38.26,38.26,0,0,1-2.18,4.1q-1.29,2.1-2.92,4.5L351.4,257.36a2.18,2.18,0,0,1-2,.92H346Zm-7.56-3.68a15.26,15.26,0,0,0,6.08-1.16,14,14,0,0,0,4.5-3,13.29,13.29,0,0,0,2.78-4.22,12.39,12.39,0,0,0,1-4.74,15.54,15.54,0,0,0-1-5.64,12.71,12.71,0,0,0-2.8-4.38,12.88,12.88,0,0,0-4.26-2.84,13.93,13.93,0,0,0-5.38-1,15.83,15.83,0,0,0-5.76,1,13.06,13.06,0,0,0-4.46,2.8,12.61,12.61,0,0,0-2.9,4.3,14.07,14.07,0,0,0-1,5.5,15.81,15.81,0,0,0,.94,5.62,11.38,11.38,0,0,0,6.88,6.9A15.56,15.56,0,0,0,355.16,231.24Z"/><g id="_000_Introduction" data-name="000_Introduction"><path d="M273.08,310.66H261.8v35h-9.91v-35H240.82v-7.61h32.26Z"/><path d="M286.11,317.93a10.66,10.66,0,0,1,3.5-3.33,9,9,0,0,1,4.56-1.18,9.44,9.44,0,0,1,7.73,3.43q2.82,3.42,2.82,10.63V345.7h-9.91V327.42q0-3.63-.93-5A3.21,3.21,0,0,0,291,321a8,8,0,0,0-2.91.48,5.19,5.19,0,0,0-2,1.36V345.7h-9.9V300h9.9Z"/><path d="M324.29,346.32q-7.21,0-11.3-4.37a15.53,15.53,0,0,1-4.08-11v-1.12q0-7.26,3.85-11.83t11.15-4.54q6.4,0,9.94,3.84t3.53,10.51V333H319.22l-.06.17a6.14,6.14,0,0,0,1.85,4,6.4,6.4,0,0,0,4.62,1.54,20.24,20.24,0,0,0,4.74-.47,29.82,29.82,0,0,0,4.32-1.49l2.37,6a17.93,17.93,0,0,1-5.51,2.52A25.13,25.13,0,0,1,324.29,346.32ZM323.91,321a4.08,4.08,0,0,0-3.5,1.5,7.55,7.55,0,0,0-1.31,4.09l.06.15h8.55V326a6.59,6.59,0,0,0-.86-3.73A3.34,3.34,0,0,0,323.91,321Z"/><path d="M367,331.08V345.7h-9.9V303.05h16.29q7.59,0,12,3.86a13.82,13.82,0,0,1,0,20.32q-4.46,3.86-12,3.85Zm0-7.61h6.39a6.46,6.46,0,0,0,4.92-1.78,6.32,6.32,0,0,0,1.7-4.55,6.58,6.58,0,0,0-1.68-4.66,6.42,6.42,0,0,0-4.94-1.82H367Z"/><path d="M393.08,329.56q0-7.15,4-11.64t11.28-4.5q7.26,0,11.31,4.5t4,11.64v.62q0,7.17-4,11.66t-11.25,4.48q-7.31,0-11.34-4.48t-4-11.66Zm9.9.62a13.1,13.1,0,0,0,1.24,6.25,4.44,4.44,0,0,0,4.24,2.27,4.38,4.38,0,0,0,4.16-2.28,13,13,0,0,0,1.26-6.24v-.62a13.07,13.07,0,0,0-1.26-6.2A4.41,4.41,0,0,0,408.4,321a4.36,4.36,0,0,0-4.18,2.34,13.17,13.17,0,0,0-1.24,6.18Z"/><path d="M455.33,331.73h.18L458.64,314h9.44l-7.45,31.7h-8.37l-5.16-16.23h-.18l-5.18,16.23h-8.35L425.92,314h9.43l3.17,17.85h.17L443.88,314h6.24Z"/><path d="M485.68,346.32q-7.2,0-11.29-4.37a15.54,15.54,0,0,1-4.09-11v-1.12q0-7.26,3.86-11.83t11.14-4.54q6.42,0,9.95,3.84t3.53,10.51V333H480.62l-.06.17a6.13,6.13,0,0,0,1.84,4A6.44,6.44,0,0,0,487,338.7a20.14,20.14,0,0,0,4.73-.47,29.82,29.82,0,0,0,4.32-1.49l2.38,6a18,18,0,0,1-5.51,2.52A25.25,25.25,0,0,1,485.68,346.32ZM485.3,321a4.09,4.09,0,0,0-3.5,1.5,7.63,7.63,0,0,0-1.3,4.09l.06.15h8.55V326a6.68,6.68,0,0,0-.86-3.73A3.34,3.34,0,0,0,485.3,321Z"/><path d="M520.49,322.44l-3.22,0a5.49,5.49,0,0,0-2.79.63,3.89,3.89,0,0,0-1.61,1.77V345.7H503V314h9.32l.35,4.66a9.57,9.57,0,0,1,2.63-3.87,5.85,5.85,0,0,1,3.84-1.37,7.16,7.16,0,0,1,1.2.09,7.74,7.74,0,0,1,1.12.26Z"/><path d="M537.74,329.56q0-7.15,4-11.64t11.28-4.5q7.26,0,11.31,4.5t4,11.64v.62q0,7.17-4,11.66t-11.26,4.48q-7.29,0-11.33-4.48t-4-11.66Zm9.91.62a13.1,13.1,0,0,0,1.24,6.25,5,5,0,0,0,8.4,0,13.15,13.15,0,0,0,1.25-6.24v-.62a13.2,13.2,0,0,0-1.25-6.2,4.41,4.41,0,0,0-4.22-2.32,4.35,4.35,0,0,0-4.18,2.34,13.17,13.17,0,0,0-1.24,6.18Z"/><path d="M574.92,345.7V320.86h-4.57V314h4.57v-3.28c0-3.63,1.1-6.43,3.28-8.39s5.29-2.95,9.29-2.95a16.29,16.29,0,0,1,2.3.17c.77.1,1.64.26,2.59.45l-.73,7.29c-.55-.09-1-.17-1.44-.21a12.37,12.37,0,0,0-1.49-.08,3.93,3.93,0,0,0-2.87,1,3.66,3.66,0,0,0-1,2.75V314h6.27v6.86h-6.27V345.7Z"/><path d="M244.16,382.34l3-7.29H252V391h-7.88Z"/><path d="M290,382.66H278.67v35h-9.9v-35H257.7v-7.61H290Z"/><path d="M303,389.93a10.47,10.47,0,0,1,3.5-3.33,9,9,0,0,1,4.55-1.18,9.46,9.46,0,0,1,7.74,3.43q2.81,3.42,2.81,10.63V417.7h-9.9V399.42c0-2.42-.31-4.09-.94-5a3.19,3.19,0,0,0-2.84-1.37,8,8,0,0,0-2.9.48,5.19,5.19,0,0,0-2,1.36V417.7h-9.9V372H303Z"/><path d="M345.41,417.67a11.62,11.62,0,0,1-1-2.25,15.87,15.87,0,0,1-.6-2.64,12.17,12.17,0,0,1-3.18,4,7.66,7.66,0,0,1-4.94,1.51q-5,0-7.75-2.57a9,9,0,0,1-2.77-7,8.46,8.46,0,0,1,3.55-7.28q3.54-2.57,10.75-2.57h4.07v-2.25a4.56,4.56,0,0,0-1-3.11,3.78,3.78,0,0,0-3-1.08,3.63,3.63,0,0,0-2.57.8,3.39,3.39,0,0,0-.83,2.51l-9.61,0-.06-.18a8.27,8.27,0,0,1,3.62-7.25q3.82-2.91,10.09-2.91a14.72,14.72,0,0,1,9.54,2.93q3.64,2.92,3.65,8.38v11.95a23.32,23.32,0,0,0,1.7,9Zm-7-6.41a6.11,6.11,0,0,0,3.21-.85,4.91,4.91,0,0,0,1.94-2V404.2h-4a4.49,4.49,0,0,0-3.43,1.14,4.12,4.12,0,0,0-1.05,2.9,2.77,2.77,0,0,0,.92,2.18A3.42,3.42,0,0,0,338.44,411.26Z"/><path d="M368,386l.38,4.46a11.42,11.42,0,0,1,3.84-3.71,9.89,9.89,0,0,1,5.09-1.33,8.92,8.92,0,0,1,7.28,3.16q2.63,3.17,2.63,10.05V417.7h-9.91V398.6a7.3,7.3,0,0,0-1-4.29,3.33,3.33,0,0,0-2.82-1.27,7,7,0,0,0-2.84.55,5.73,5.73,0,0,0-2.11,1.58V417.7h-9.87V386Z"/><path d="M404.33,405.11h-1.79V417.7h-9.9V372h9.9v25.63H404L410.62,386H422l-9.75,14.3,11.36,17.4H412.29Z"/><path d="M456.59,393.68h.18l8.49-18.63H476L461.51,402.7v15h-9.87V402.26L437.4,375.05h10.72Z"/><path d="M475.43,401.56q0-7.15,4-11.64t11.28-4.5q7.28,0,11.31,4.5t4,11.64v.62q0,7.17-4,11.66t-11.25,4.48q-7.29,0-11.34-4.48t-4-11.66Zm9.9.62a13.09,13.09,0,0,0,1.25,6.25,4.43,4.43,0,0,0,4.23,2.27,4.38,4.38,0,0,0,4.16-2.28,13,13,0,0,0,1.26-6.24v-.62a13.07,13.07,0,0,0-1.26-6.2,4.41,4.41,0,0,0-4.22-2.32,4.35,4.35,0,0,0-4.17,2.34,13.17,13.17,0,0,0-1.25,6.18Z"/><path d="M529.57,413a10.41,10.41,0,0,1-3.65,4,9.66,9.66,0,0,1-5.17,1.39,9.38,9.38,0,0,1-7.72-3.46q-2.79-3.45-2.8-10.69V386h9.88v18.23c0,2.48.31,4.18.95,5.09A3.33,3.33,0,0,0,524,410.7a8.17,8.17,0,0,0,2.79-.44,5.33,5.33,0,0,0,2.05-1.32V386h9.9v31.7h-8Z"/><path d="M553.89,383.66l-3,7.32H546V375.05h7.88Z"/></g><path d="M1180.31,159.21c.1,0,.2.15.29.2a1.17,1.17,0,0,1-.29-.2Zm-65.08-2.89a.53.53,0,0,1,.24.05.53.53,0,0,0-.24-.05Zm40.4-20.74a5.61,5.61,0,0,0,1.88,7.39c7.62,4.95,15.09,10.15,22.27,15.79,1.74,1.45,3.48,2.85,5.16,4.3l-1.3-.3c-6.22-1.45-12.39-2.9-18.56-4.3-12.25-2.74-24.54-5.19-36.88-7.14a312.6,312.6,0,0,0-37.32-3.75,229.06,229.06,0,0,0-38.38,1.85c-3.18.45-6.36.9-9.5,1.45a2.92,2.92,0,0,0-1.78,1.45,3.19,3.19,0,0,0-.34,2.4,3.09,3.09,0,0,0,3.71,2.2c2.27-.4,4.49-.75,6.75-1.1a220.54,220.54,0,0,1,32-1.95,255.87,255.87,0,0,1,31.53,2.4,400.9,400.9,0,0,1,42.28,8.49c7.14,1.75,14.23,3.65,21.31,5.55,3.48.94,7,1.89,10.37,2.89,3.76,1,7.47,2,11.19,3.1a4.59,4.59,0,0,0,5.2-2.15,4.69,4.69,0,0,0,.63-2.45,5.14,5.14,0,0,0-1.35-3.34c-1.45-1.75-3-3.3-4.63-4.9s-3.18-3.15-4.87-4.65c-3.28-3-6.7-6-10.17-8.84q-10.63-8.7-22.08-16.29a4.22,4.22,0,0,0-2.51-.75,5.36,5.36,0,0,0-4.58,2.65Z" style="fill:#161616"/><path d="M1162.33,101.3a4.52,4.52,0,0,0-2,2.65c-.57,2.25.73,5,3,5.45,7,1.55,14,3,21,4.8a140.47,140.47,0,0,1,21,6.94,80.69,80.69,0,0,1,8.92,4.6c-1.11,0-2.17,0-3.28,0-5.74,0-11.52.15-17.26.5a148.65,148.65,0,0,0-35.25,6.44,4.27,4.27,0,0,0-2.79,5.1,4,4,0,0,0,4.92,2.9,133.72,133.72,0,0,1,20.73-4.7,179.45,179.45,0,0,1,22.61-1.45c8,0,16.15.25,24.2,1a4.44,4.44,0,0,0,3.86-2.3,4.87,4.87,0,0,0-.68-5.64,55.18,55.18,0,0,0-13.4-10.8,94,94,0,0,0-17-7.69,159.19,159.19,0,0,0-17.79-5c-5.78-1.3-11.62-2.3-17.5-3.2l-1.16-.15a3.9,3.9,0,0,0-2.12.6Z" style="fill:#161616"/><path d="M1189.81,61.88l-.14.3.14-.3Zm7.43-17.78a.36.36,0,0,0-.2,0c-4.24,1.75-8.38,3.9-12.53,5.9-4,2-8,3.9-12,5.8-7.72,3.64-15.48,7.24-23.29,10.69-16.92,7.39-34.09,14.19-51.54,20.23-8.83,3.1-17.74,5.95-26.71,8.75s-18.18,5.49-27.29,8.19a4,4,0,0,0-2.85,3.85,4.16,4.16,0,0,0,1.11,2.8,3.71,3.71,0,0,0,2.75,1.2,265.57,265.57,0,0,0,38.91-8.15c12.44-3.59,24.64-8,36.69-12.74,12.25-4.8,24.25-10.14,36.16-15.69,11.76-5.49,23.38-11.14,34.91-17.09-.44,1.2-.87,2.4-1.35,3.55a97.33,97.33,0,0,1-11.77,20.19A212.17,212.17,0,0,1,1163,99.41a4.08,4.08,0,0,0,0,5.59,3.7,3.7,0,0,0,5.35,0A210.84,210.84,0,0,0,1189,80.07a105.39,105.39,0,0,0,8-13.89c1.21-2.5,2.27-5.1,3.24-7.75.62-1.84,1.2-3.69,1.73-5.59a4.08,4.08,0,0,1-.19-1.5c.19-1.6.38-3.2.58-4.8a5,5,0,0,0-.82-1.15,4.3,4.3,0,0,0-2.08-1.25s-.14,0-.24,0a6.84,6.84,0,0,1-2,0Z" style="fill:#161616"/><path d="M1045.22,161.16c0,.25,0,.45,0,.65,0-.2,0-.4,0-.65Zm-6.22-9.74a265.35,265.35,0,0,0-4,35.47c-.34,5.9-.53,11.85-.68,17.79-.14,6.15-.29,12.34,0,18.54a4.44,4.44,0,0,0,1.16,2.95,4,4,0,0,0,2.89,1.25,3.89,3.89,0,0,0,2.85-1.25,4.69,4.69,0,0,0,1.2-2.95c.53-5.1.58-10.19.63-15.29s.09-10.24.14-15.39a284.39,284.39,0,0,1,1.88-30.58c.39-2.8.82-5.59,1.35-8.39a4.25,4.25,0,0,0-.38-3.1,3.76,3.76,0,0,0-2.32-1.85,3,3,0,0,0-1-.15,3.86,3.86,0,0,0-3.81,2.95Z" style="fill:#161616"/><path d="M1008.14,201a16.35,16.35,0,0,0-4,1.35,19.26,19.26,0,0,0-5.93,4.4,23.08,23.08,0,0,0-4.24,6.69,33.66,33.66,0,0,0-1.49,4.3,34.39,34.39,0,0,0-.87,5,36.36,36.36,0,0,0,.24,9.49,42.29,42.29,0,0,0,7.91,19.09,46.15,46.15,0,0,0,8.19,8.74,49.94,49.94,0,0,0,11.81,7.25l1,.45a4.15,4.15,0,0,0,2.21,0,4,4,0,0,0,2.51-2c1.11-1.95.53-4.9-1.49-5.95a65.51,65.51,0,0,1-9.45-6,48.49,48.49,0,0,1-7.33-7.55,40.48,40.48,0,0,1-4.44-7.89,37.37,37.37,0,0,1-2.21-8.3,34,34,0,0,1,0-7.34,27.57,27.57,0,0,1,1.44-5.6,24.32,24.32,0,0,1,2-3.69,21.12,21.12,0,0,1,2-2.1,12.23,12.23,0,0,1,2.17-1.3,13.32,13.32,0,0,1,2.41-.7,19.38,19.38,0,0,1,3,0,19.74,19.74,0,0,1,4.43,1.3,35.41,35.41,0,0,1,6.08,3.79,64.57,64.57,0,0,1,10,10.7,3.81,3.81,0,0,0,2.84,1.2,4.13,4.13,0,0,0,2.85-1.2,4.43,4.43,0,0,0,1.15-3c0-.35-.09-.75-.14-1.1a4.4,4.4,0,0,0-1-1.85,70.31,70.31,0,0,0-9.26-10.14,38.52,38.52,0,0,0-9-6.2,24.13,24.13,0,0,0-9.11-2.35h-.53a21.26,21.26,0,0,0-3.62.35Z" style="fill:#161616"/><path d="M1013.35,100.5a30.17,30.17,0,0,0-8.24,2.7,29.53,29.53,0,0,0-6.75,4.6,32.73,32.73,0,0,0-5.4,6.25,39.43,39.43,0,0,0-3.67,6.84,56.62,56.62,0,0,0-2.89,8.74,94,94,0,0,0-1.69,9.55,105.34,105.34,0,0,0-.53,17.84,154.28,154.28,0,0,0,2.27,19.48,145.29,145.29,0,0,0,4.14,17.09c.82,2.65,1.74,5.2,2.75,7.74a68.22,68.22,0,0,0,3.28,7.35,3.45,3.45,0,0,0,4,1.65,3.6,3.6,0,0,0,2.13-1.65,3.78,3.78,0,0,0,.33-2.8c-.91-2.6-1.88-5.25-2.7-7.89-1-3-1.78-6-2.6-9.05A186.94,186.94,0,0,1,993.87,169a124,124,0,0,1-.43-29.88A60.83,60.83,0,0,1,997,125a35.13,35.13,0,0,1,4-7.25,26.55,26.55,0,0,1,4.14-4.34,24.58,24.58,0,0,1,4.73-2.85,28.41,28.41,0,0,1,6.41-1.8,43.19,43.19,0,0,1,9.84.15q3,.45,5.93,1.2a4.25,4.25,0,0,0,5.16-3,4.43,4.43,0,0,0-2.94-5.35,60.91,60.91,0,0,0-11.19-1.84c-.87,0-1.69-.1-2.51-.1a45.28,45.28,0,0,0-7.23.64Z" style="fill:#161616"/><path d="M1176.12,173.15A3.81,3.81,0,0,0,1175,176a384.21,384.21,0,0,1,1.64,44.12,402.34,402.34,0,0,1-3.09,42.47c-1.25,9.14-2.89,18.29-4.67,27.33-.92,4.75-1.88,9.44-2.8,14.19s-2,9.84-2.51,14.89a4.43,4.43,0,0,0,.63,2.35,4.77,4.77,0,0,0,2.7,2.2,4.52,4.52,0,0,0,5.16-2.2,99.42,99.42,0,0,0,5.88-17.39c1.55-6,2.7-12.14,3.67-18.24a341.65,341.65,0,0,0,3.71-36.42c.58-11.94.53-23.93.1-35.88-.49-12.49-1.6-25-2.8-37.42a4.58,4.58,0,0,0-1.16-2.8,3.81,3.81,0,0,0-2.65-1.15,3.86,3.86,0,0,0-2.7,1.15Z" style="fill:#161616"/><path d="M1129.45,325.55c-.15.05-.29.05-.43.1.14,0,.28,0,.43-.1Zm26.56-7.3-.28.15.28-.15ZM1036.49,259l-.53.7a3.73,3.73,0,0,0-.48,1.85,70.46,70.46,0,0,0,1,23.53,57.55,57.55,0,0,0,3.43,10.55,47.19,47.19,0,0,0,4.63,8.64,57.78,57.78,0,0,0,6.55,8.14,60.06,60.06,0,0,0,7.86,6.8,72.67,72.67,0,0,0,17.89,9.54,89.79,89.79,0,0,0,19.72,4.9,116.16,116.16,0,0,0,21.65,1,121.14,121.14,0,0,0,21.6-3.15,113.24,113.24,0,0,0,20.29-7.09,94,94,0,0,0,8.39-4.35,3.75,3.75,0,0,0,1.26-5,3.46,3.46,0,0,0-4.82-1.3,86.75,86.75,0,0,1-8.59,4.4,105.71,105.71,0,0,1-26.71,7.4,109.81,109.81,0,0,1-28.92.1,90.87,90.87,0,0,1-22.23-6.2,69.59,69.59,0,0,1-14.75-8.74,56.43,56.43,0,0,1-16.88-22.49,68.93,68.93,0,0,1-3.86-14.94,87,87,0,0,1-.57-11.74,3.59,3.59,0,0,0-3.48-3.6,3.48,3.48,0,0,0-2.41,1.05Z" style="fill:#161616"/><path d="M1091.12,161.71a51.18,51.18,0,0,0-29,10.84,3.72,3.72,0,0,0-1.49,2,3.34,3.34,0,0,0,.34,2.55,3,3,0,0,0,1.92,1.55,3,3,0,0,0,2.51-.3,43.06,43.06,0,0,1,21.6-9.49,47.47,47.47,0,0,1,11.91,0l.72.15a3.64,3.64,0,0,0,2.61-.35,3.53,3.53,0,0,0,1.54-2.1,3.75,3.75,0,0,0-.34-2.7,3.45,3.45,0,0,0-2-1.6,59.46,59.46,0,0,0-8.44-.6Z" style="fill:#161616"/><path d="M1143.53,171a2.95,2.95,0,0,0,0,5.89,39.79,39.79,0,0,1,4.87.3,30.61,30.61,0,0,1,7.57,2.15,36.4,36.4,0,0,1,6.79,4.1,42.15,42.15,0,0,1,5,4.94,3.22,3.22,0,0,0,4.58,0,3.57,3.57,0,0,0,0-4.79,37.35,37.35,0,0,0-12.73-9.4,37.86,37.86,0,0,0-7.76-2.45A41.74,41.74,0,0,0,1144,171Z" style="fill:#161616"/><path d="M1077.33,199.09a30,30,0,0,0-6.7,1.34,34.82,34.82,0,0,0-12.44,7.5,4,4,0,0,0-1.21,2.95,4.13,4.13,0,0,0,1.21,2.94,3.86,3.86,0,0,0,2.84,1.25,4.17,4.17,0,0,0,2.85-1.25c.34-.29.67-.59,1-.84a30,30,0,0,1,5.79-3.55,24.67,24.67,0,0,1,5.69-1.6,26.11,26.11,0,0,1,5.59,0,25,25,0,0,1,5.64,1.6,33.38,33.38,0,0,1,5.83,3.55c1,.9,2,1.79,2.94,2.74,1.11,1.1,2.17,2.3,3.23,3.45a3.71,3.71,0,0,0,4.59.6,4,4,0,0,0,1.35-5.35,29.53,29.53,0,0,0-4.1-5.64,35.53,35.53,0,0,0-5.45-4.7,34.23,34.23,0,0,0-6.12-3.2,25.67,25.67,0,0,0-5.89-1.54,35.08,35.08,0,0,0-4.53-.35,14.77,14.77,0,0,0-2.12.1Z" style="fill:#161616"/><path d="M1072.51,213.37a7,7,0,1,0,7-7.24,7.19,7.19,0,0,0-7,7.24Z" style="fill:#161616"/><path d="M1073.09,215.57a8.7,8.7,0,1,0,8.68-9,8.93,8.93,0,0,0-8.68,9Z" style="fill:#161616"/><path d="M1141,208.33a37.49,37.49,0,0,0-10,4.7,3.51,3.51,0,0,0-1.16,4.54,3.22,3.22,0,0,0,4.44,1.2,35.13,35.13,0,0,1,5.16-2.85,31.11,31.11,0,0,1,6.89-2,26.21,26.21,0,0,1,5.6,0,23.57,23.57,0,0,1,5.25,1.5,29.72,29.72,0,0,1,5.5,3.35,23,23,0,0,1,2.31,2.1,2.94,2.94,0,0,0,4.2,0,3.16,3.16,0,0,0,0-4.35,29.32,29.32,0,0,0-8.34-6.59,26.4,26.4,0,0,0-4.63-1.8,23.23,23.23,0,0,0-5.26-.95c-.62-.05-1.3-.1-1.93-.1a29.44,29.44,0,0,0-8,1.25Z" style="fill:#161616"/><path d="M1137,218.87a8.69,8.69,0,1,0,8.68-9,8.93,8.93,0,0,0-8.68,9Z" style="fill:#161616"/><path d="M1124,240.46a26,26,0,0,0,3.09,13.74,18.91,18.91,0,0,0,4.34,5.14,16.16,16.16,0,0,0,6.5,3.45,2.53,2.53,0,0,0,2.85-1.2,2.74,2.74,0,0,0-.92-3.6c-.82-.45-1.68-.9-2.5-1.4s-1.35-.89-2-1.34a19,19,0,0,1-2.75-2.85,20.62,20.62,0,0,1-1.88-3.35,21.69,21.69,0,0,1-1.16-4.65,27.07,27.07,0,0,1-.14-3.94,2.82,2.82,0,0,0-2.75-2.8,2.78,2.78,0,0,0-2.7,2.8Z" style="fill:#161616"/><path d="M1134.13,258.14c-3,2.3-6,4.5-9,6.7a4.9,4.9,0,0,0-1.93,2.6,4.45,4.45,0,0,0,.44,3.34c1.1,2,3.85,2.9,5.73,1.6,3.09-2.14,6.08-4.39,9-6.69a4.54,4.54,0,0,0,1.93-2.6,4.48,4.48,0,0,0-.44-3.35,4.14,4.14,0,0,0-2.5-2.05,4.5,4.5,0,0,0-1.21-.15,3.46,3.46,0,0,0-2,.6Z" style="fill:#161616"/><path d="M1097.77,279.68a3,3,0,0,0-1,3.9A40.1,40.1,0,0,0,1110,296.87a33.13,33.13,0,0,0,17.84,4.64,2.89,2.89,0,0,0,2.8-2.89,2.86,2.86,0,0,0-2.8-2.9c-1.4-.1-2.75-.2-4.15-.35a34.91,34.91,0,0,1-8.29-2.35,29.38,29.38,0,0,1-12.1-9.74,29.44,29.44,0,0,1-1.74-2.6,2.84,2.84,0,0,0-2.41-1.35,2.75,2.75,0,0,0-1.35.35Z" style="fill:#161616"/><path d="M1039.24,276.63a3.45,3.45,0,0,0-2.07,1.65,3.91,3.91,0,0,0-.34,2.75q.87,5.55,1.59,11.09c.92,7.24,1.64,14.49,2.12,21.73a210.59,210.59,0,0,1,.15,22.19,3.89,3.89,0,0,0,3.81,3.95,3.74,3.74,0,0,0,2.7-1.15,4.42,4.42,0,0,0,1.11-2.8c1.25-19.09-1.88-38.12-4.83-56.91a3.48,3.48,0,0,0-1.59-2.15,3.63,3.63,0,0,0-1.73-.5,2.73,2.73,0,0,0-.92.15Z" style="fill:#161616"/><path d="M1089.82,336.29c-.1,3.1,0,6.19.09,9.24a69,69,0,0,0,1.11,10.34,4.08,4.08,0,0,0,6.9,1.85,4.27,4.27,0,0,0,1.2-3c-.29-3.05-.67-6.1-.91-9.2s-.29-6.14-.29-9.24a4.05,4.05,0,1,0-8.1,0Z" style="fill:#161616"/><path d="M1036.49,339.74a2.79,2.79,0,0,0-.77,1.89,2.7,2.7,0,0,0,.77,1.9,293.29,293.29,0,0,0,20,23.34c3.43,3.59,7,7.14,10.61,10.59,1.83,1.7,3.66,3.4,5.55,5.05a61.35,61.35,0,0,0,6.5,5.19,3.14,3.14,0,0,0,3.81-.55,3.36,3.36,0,0,0,0-4.59c-1.83-1.7-3.81-3.25-5.69-4.85s-3.85-3.2-5.73-4.85c-3.76-3.25-7.43-6.69-11-10.24a266.07,266.07,0,0,1-20.34-22.88,2.34,2.34,0,0,0-1.83-.8,2.61,2.61,0,0,0-1.84.8Z" style="fill:#161616"/><path d="M1030.85,371.91c.05.25.05.45.1.7,0-.25,0-.45-.1-.7Zm-7.47-30.48a221.09,221.09,0,0,0,2.36,35.73c.87,5.75,1.93,11.54,3.14,17.24.62,2.85,1.3,5.64,2,8.44.77,3,1.59,5.9,2.41,8.85a3.17,3.17,0,0,0,2.12,2.24,3.08,3.08,0,0,0,3.43-1.45,46.11,46.11,0,0,1,3.13-4.89,42.62,42.62,0,0,1,6.37-6.65,38.38,38.38,0,0,1,7.52-4.54,36.27,36.27,0,0,1,8.24-2.35,30.83,30.83,0,0,1,16.88,2.4,34.17,34.17,0,0,1,3.66,1.89,3.65,3.65,0,0,0,5-1.34,3.88,3.88,0,0,0-1.31-5.15,47.71,47.71,0,0,0-7.71-3.3,39.5,39.5,0,0,0-7.91-1.6,38.22,38.22,0,0,0-15.38,1.65,40.74,40.74,0,0,0-7.08,3.15,38.59,38.59,0,0,0-6.46,4.55,37.14,37.14,0,0,0-5.36,5.49c-.43.55-.82,1-1.2,1.6-1.11-3.9-2-7.89-2.89-11.84-1.4-6.5-2.56-13.09-3.43-19.69a220.82,220.82,0,0,1-1.73-30.43,2.87,2.87,0,1,0-5.74,0" style="fill:#161616"/><path d="M1093,351.18a2.52,2.52,0,0,0-1.59,1.25,3.24,3.24,0,0,0-.29,2.15,2.93,2.93,0,0,1,.1.64,65.48,65.48,0,0,1,0,14.94,67.5,67.5,0,0,1-4,15,63.94,63.94,0,0,1-5,9.5,3.3,3.3,0,0,0,1.11,4.44,3.12,3.12,0,0,0,4.29-1.14,71.83,71.83,0,0,0,8.1-21.59,67,67,0,0,0,1.25-11.54,67.74,67.74,0,0,0-.77-11.74,2.76,2.76,0,0,0-1.21-1.65,2.7,2.7,0,0,0-1.35-.35,1.8,1.8,0,0,0-.72.1Z" style="fill:#161616"/><path d="M1107.61,345.33a3.18,3.18,0,0,0-1.06,4.3,129.07,129.07,0,0,1,11.23,21.48,171.37,171.37,0,0,1,5.84,17.19c.53,1.85,1,3.7,1.49,5.6l-.29-.25a43,43,0,0,0-5.4-4,37.88,37.88,0,0,0-6.41-3.1,31.22,31.22,0,0,0-12.83-1.9,32.2,32.2,0,0,0-13.59,4.3,3.66,3.66,0,0,0-1.21,4.9,3.44,3.44,0,0,0,4.73,1.3c.77-.4,1.54-.8,2.31-1.15a31.36,31.36,0,0,1,6.7-1.95,25.79,25.79,0,0,1,6.51.05,32.66,32.66,0,0,1,6.85,1.95,41.32,41.32,0,0,1,7.18,4.34,50.17,50.17,0,0,1,7.38,7.75c.43.6.87,1.2,1.25,1.8a3.72,3.72,0,0,0,1.21,1.25,3.39,3.39,0,0,0,2.5.35,3.47,3.47,0,0,0,2.32-4.2c-.63-2.55-1.16-5.1-1.74-7.64s-1.25-5-1.93-7.6c-1.39-5.05-2.94-10-4.72-14.94a140.26,140.26,0,0,0-14.13-28.68A3.33,3.33,0,0,0,1110,345a4.09,4.09,0,0,0-.82-.1,2.9,2.9,0,0,0-1.54.45Z" style="fill:#161616"/><path d="M1041.36,301.26a2.23,2.23,0,0,0-1.4,1.1,2.41,2.41,0,0,0-.24,1.9,2.21,2.21,0,0,0,1.06,1.4q14.12,10.43,28.35,20.54l14,10c4.83,3.45,9.6,6.89,14.42,10.24a2.21,2.21,0,0,0,3-.8,2.41,2.41,0,0,0,.24-1.8,2.37,2.37,0,0,0-1-1.35c-4.58-3.49-9.26-6.84-14-10.19s-9.59-6.89-14.36-10.29c-9.5-6.8-19-13.59-28.35-20.54a1.8,1.8,0,0,0-1.16-.35,2.44,2.44,0,0,0-.63.1Z" style="fill:#161616"/><path d="M1068.7,336.34c0,.05,0,.1.1.1l-.1-.1Zm-26.08-22.24a2,2,0,0,0,0,2.8c12,13.74,26.18,25.18,41.07,35.33a1.87,1.87,0,0,0,2.61-.7,2.08,2.08,0,0,0-.73-2.7c-5.64-3.9-11.23-8-16.68-12.29a185.39,185.39,0,0,1-23.62-22.44,1.7,1.7,0,0,0-1.3-.6,1.77,1.77,0,0,0-1.35.6Z" style="fill:#161616"/><path d="M1022,335.74l-18,4.05c-6.37,1.4-12.73,2.74-19.05,4.34-6,1.5-12,3.2-17.93,5.15a125.19,125.19,0,0,0-18.52,7.39c-2.12,1.05-3,3.9-2.41,6.15.73,2.8,3.72,4.75,6.46,3.8,5.84-1.95,11.58-4.25,17.36-6.4s11.77-4.2,17.7-6.14,11.86-3.85,17.88-5.55,12.44-3.3,18.71-4.8a4.22,4.22,0,0,0,2.8-5.09,4,4,0,0,0-4-3,3.5,3.5,0,0,0-1,.1Z" style="fill:#161616"/><path d="M941.75,364.72a3.56,3.56,0,0,0-1.64,2.25c-2.21,13.39-4.58,26.78-6.89,40.17-2.36,13.74-4.68,27.53-6.75,41.37-2.22,14.39-4.15,28.78-5.64,43.27a287.88,287.88,0,0,0-1.59,41.32c.09,2.45.24,4.85.48,7.29a31.76,31.76,0,0,0,1.45,7.7,4.9,4.9,0,0,0,1.2,2.15,4.55,4.55,0,0,0,7.72-2.15,38.08,38.08,0,0,0,1-7.7c.14-2.44.19-4.84.29-7.29.1-4.9.24-9.84.38-14.74.29-10.24.63-20.54,1.16-30.78,1-20.43,3.09-40.87,5.69-61.16-.05.4-.1.8-.14,1.2C941,408,943.92,388.45,947.1,369a4.26,4.26,0,0,0-.38-2.89,3.62,3.62,0,0,0-2.17-1.75,5.77,5.77,0,0,0-1-.1,3.52,3.52,0,0,0-1.84.5Z" style="fill:#161616"/><path d="M924,552.64a5.17,5.17,0,0,0,3.42,6.29,340.72,340.72,0,0,0,37.37,7.85c13.11,2,26.37,3.29,39.63,4.14s26.28,1,39.39.55a262.53,262.53,0,0,0,39-3.9c1.68-.34,3.37-.74,5-1.24a4.67,4.67,0,0,0,3.38-4.5,4.73,4.73,0,0,0-4.58-4.75c-4.73-.15-9.5.2-14.28.45-5.11.25-10.22.55-15.33.8-10.12.55-20.3.95-30.47,1.1a406.18,406.18,0,0,1-61.38-3.4,298.74,298.74,0,0,1-35.09-7,5.76,5.76,0,0,0-1.26-.15,4.93,4.93,0,0,0-4.82,3.75Z" style="fill:#161616"/><path d="M1086.44,519.71a4.52,4.52,0,0,0-2.94,5.39c.72,3.15,1.35,6.3,1.83,9.5a75.26,75.26,0,0,1,.05,16.84c-.24,1.7-.53,3.39-.87,5A4.75,4.75,0,0,0,1085,560a4.51,4.51,0,0,0,2.65,2.1,4.4,4.4,0,0,0,5.4-3.2,80.1,80.1,0,0,0,1.74-18.19,69.8,69.8,0,0,0-.87-8.84,49.44,49.44,0,0,0-2.22-9.09,4.82,4.82,0,0,0-1.93-2.65,4.18,4.18,0,0,0-2.17-.6,4.54,4.54,0,0,0-1.11.15Z" style="fill:#161616"/><path d="M1035.77,511.91c.14,0,.29,0,.43.1-.14-.05-.29-.05-.43-.1Zm-68.61-10.44a5,5,0,0,0,3.28,6,323.08,323.08,0,0,0,57.33,13c19.43,2.7,39.19,3.45,58.72,1.1l1.11-.15a3.89,3.89,0,0,0,1.83-1.1,4.44,4.44,0,0,0,0-6.2,3.89,3.89,0,0,0-2.94-1.25c-17,2-34.09,1.2-51-1.05-10.41-1.49-20.73-3.54-31-5.94-10.56-2.45-21-5.25-31.53-7.9a5,5,0,0,0-1.21-.15,4.72,4.72,0,0,0-4.58,3.55" style="fill:#161616"/><path d="M989,428.67a4,4,0,0,0-1.83,2.55,171.85,171.85,0,0,0-1.4,18c-.29,5.89-.58,11.79-.77,17.74-.38,12.09-.77,24.18-.77,36.27a3.69,3.69,0,0,0,3.57,3.7,3.65,3.65,0,0,0,3.52-3.7c0-11.84.58-23.68,1.39-35.47.44-5.9.87-11.85,1.35-17.74.25-2.95.49-5.9.68-8.85s.43-5.89.39-8.84a4.22,4.22,0,0,0-3-4.05,3.93,3.93,0,0,0-1.06-.15,4.31,4.31,0,0,0-2.08.55Z" style="fill:#161616"/><path d="M1115.23,499.52c0,4.15.29,8.3.24,12.44a98.8,98.8,0,0,1-.73,12.05,59.49,59.49,0,0,1-3.27,13.19,35.07,35.07,0,0,1-3.67,6.54,25.13,25.13,0,0,1-4,4.25,23.16,23.16,0,0,1-4.77,2.85,27.48,27.48,0,0,1-6.85,1.9c-.14,0-.24,0-.34,0l-1,.15a3.39,3.39,0,0,0-1.64,1,4,4,0,0,0,0,5.4,3.55,3.55,0,0,0,2.65,1.15,37.18,37.18,0,0,0,9.84-2.35,36.72,36.72,0,0,0,4.39-2.2,30.75,30.75,0,0,0,10-9.79,40.28,40.28,0,0,0,4.19-8.69,53,53,0,0,0,2.22-8.65,75.93,75.93,0,0,0,1-10.44,82,82,0,0,0-.29-9.79,62.79,62.79,0,0,0-1.54-9.95,3.29,3.29,0,0,0-3.14-2.49,3.36,3.36,0,0,0-3.27,3.39Z" style="fill:#161616"/><path d="M1109.25,451.81a3.82,3.82,0,0,0-1.59,2.2,72.33,72.33,0,0,0-2.56,10.64,116.38,116.38,0,0,0-1.3,11.64,130.43,130.43,0,0,0,.63,23.38c0,.3.09.6.14.85a3.34,3.34,0,0,0,.77,1.45,3.11,3.11,0,0,0,5.35-2.3c-.38-9.89-.53-19.78.68-29.63.24-1.44.43-2.89.72-4.34a70.25,70.25,0,0,1,2.85,12.54,132.74,132.74,0,0,1,.72,21.38,3,3,0,1,0,6.07,0,148.46,148.46,0,0,0-.81-24.13,72,72,0,0,0-2.37-11.39,58.18,58.18,0,0,0-4.48-10.94,3.48,3.48,0,0,0-3-1.8,3.76,3.76,0,0,0-1.78.45Z" style="fill:#161616"/><path d="M1103.85,446a3.48,3.48,0,0,0-2.12,1.7,82.32,82.32,0,0,0-3.76,10.59,72.21,72.21,0,0,0-2.32,11.49,99.45,99.45,0,0,0-.91,11.45c0,1.84,0,3.69.09,5.54a30.19,30.19,0,0,0,.82,6.55,3.54,3.54,0,0,0,3.42,2.7,3.72,3.72,0,0,0,2.56-1.05,4.19,4.19,0,0,0,1.06-2.65,51.38,51.38,0,0,0,0-5.55c-.09-2.1-.14-4.19-.09-6.24a89.5,89.5,0,0,1,.72-11.35,75.08,75.08,0,0,1,4.43-17.38c0-.15.1-.25.15-.4s.24-.55.39-.85a4.58,4.58,0,0,0,0-1.95,3.8,3.8,0,0,0-1.64-2.2,3.52,3.52,0,0,0-1.84-.5,2.83,2.83,0,0,0-.91.1Z" style="fill:#161616"/><path d="M1097.72,444.76a50.4,50.4,0,0,0-6.5,9.15,46.38,46.38,0,0,0-4.15,10.94,49.71,49.71,0,0,0-1.4,11.29,48,48,0,0,0,.39,5.9,40.05,40.05,0,0,0,1.15,6.29,3.6,3.6,0,0,0,3.33,2.6,3.37,3.37,0,0,0,2.46-1.05,3.61,3.61,0,0,0,1-2.5c-.29-2.95-.62-5.89-.67-8.89a58.89,58.89,0,0,1,.33-8.2,47.83,47.83,0,0,1,2.7-10.39,39.74,39.74,0,0,1,4.3-7.54,30.86,30.86,0,0,1,2-2.45,3.78,3.78,0,0,0,0-5.15,3.46,3.46,0,0,0-2.51-1.05,3.39,3.39,0,0,0-2.46,1.05Z" style="fill:#161616"/><path d="M1084.27,499.62c0,.15,0,.3,0,.4,0-.1,0-.25,0-.4Zm7-56.46a43.4,43.4,0,0,0-11,14.79,58.76,58.76,0,0,0-3.18,8.85,65.39,65.39,0,0,0-1.83,10.14,83.52,83.52,0,0,0,0,19.29c.68,6.69,1.88,13.44,4.48,19.58a3.48,3.48,0,0,0,1.31,1.35,3.41,3.41,0,0,0,2.79.4,3.66,3.66,0,0,0,1.59-.95,3.7,3.7,0,0,0,1.06-2.7c-.53-4.94-1.54-9.84-2.17-14.79a101.36,101.36,0,0,1-.48-24.43,62.22,62.22,0,0,1,3.28-12.84,41.05,41.05,0,0,1,4.39-7.84,37.51,37.51,0,0,1,5.11-5.35,3.9,3.9,0,0,0,1.11-2.75,4.13,4.13,0,0,0-1.11-2.75,3.61,3.61,0,0,0-2.65-1.15,3.91,3.91,0,0,0-2.65,1.15Z" style="fill:#161616"/><path d="M1124.82,478.79c0,.1,0,.2,0,.3,0-.1,0-.2,0-.3Zm-8.1-30.38a4,4,0,0,0-1.78,2.4,4.09,4.09,0,0,0,.38,3.1A51.49,51.49,0,0,1,1121,464.1a70.76,70.76,0,0,1,4,15.44,87,87,0,0,1,.62,9.44c0,3.65-.24,7.3-.29,10.94a4.11,4.11,0,0,0,2.85,3.9,4,4,0,0,0,4.82-2.8,59.64,59.64,0,0,0,1.06-13.39,78.51,78.51,0,0,0-1.49-13.34,66.59,66.59,0,0,0-3.91-12.59,63.25,63.25,0,0,0-6.56-11.84,3.91,3.91,0,0,0-2.31-1.85,3.53,3.53,0,0,0-1-.15,4.08,4.08,0,0,0-2,.55Z" style="fill:#161616"/><path d="M1131.72,502a4.47,4.47,0,0,0-2.7,2.15,5.33,5.33,0,0,0-.49,3.65c.44,2.55.87,5.09,1.3,7.64a57.78,57.78,0,0,0,1.55,7.55,4.55,4.55,0,0,0,4.29,3.34,4.24,4.24,0,0,0,3.13-1.34,4.45,4.45,0,0,0,1.3-3.25,74.2,74.2,0,0,0-1.2-8c-.53-2.84-1.06-5.64-1.54-8.44a4.79,4.79,0,0,0-2.13-2.85,4.59,4.59,0,0,0-2.31-.65,3.51,3.51,0,0,0-1.2.2Z" style="fill:#161616"/><path d="M1118.46,547.19c.09,0,.19,0,.24.1s-.15,0-.24-.1Zm17.69-39a4,4,0,0,0-2.65,4.84c.72,3.25,1.4,6.5,1.88,9.75a57.74,57.74,0,0,1,.19,13.84,31.48,31.48,0,0,1-1.59,6.34,16.36,16.36,0,0,1-1.59,2.9,14,14,0,0,1-1.45,1.55,15.87,15.87,0,0,1-1.54,1,10.17,10.17,0,0,1-2.12.55,16.36,16.36,0,0,1-3.13,0,25.12,25.12,0,0,1-6-1.85,3.22,3.22,0,0,1-.39-.15,3.77,3.77,0,0,0-2.75-.4,3.67,3.67,0,0,0-2.46,4.5,3.46,3.46,0,0,0,1.64,2.2c5.36,2.49,11.57,4.49,17.41,2.44a15.51,15.51,0,0,0,6.22-4.14,23,23,0,0,0,2.22-3,23.87,23.87,0,0,0,1.83-3.9,33.53,33.53,0,0,0,1.83-8.09,53.62,53.62,0,0,0,.34-8.3,68.29,68.29,0,0,0-1.06-9.29,42.39,42.39,0,0,0-2.17-8c-.1-.3-.24-.6-.39-.95a4.1,4.1,0,0,0-1.35-1.4,3.76,3.76,0,0,0-1.93-.55,3.58,3.58,0,0,0-1,.15Z" style="fill:#161616"/><path d="M1103.61,338.29a3.88,3.88,0,0,0,2.6,4.69c7.62,1.95,15.14,4.15,22.61,6.45s15,4.6,22.52,6.89,14.9,4.8,22.42,7.05c3.9,1.15,7.76,2.3,11.71,3.3a72.52,72.52,0,0,0,12.2,2.4,4.11,4.11,0,0,0,3.91-3.05,4.28,4.28,0,0,0-1.88-4.7,70.16,70.16,0,0,0-10.85-4.25c-3.86-1.25-7.76-2.39-11.67-3.49-7.52-2.15-15.09-4.15-22.66-6.15s-15.14-4.1-22.71-5.95c-7.91-1.94-15.76-3.89-23.62-5.89a6.38,6.38,0,0,0-1-.1,3.71,3.71,0,0,0-3.61,2.8Z" style="fill:#161616"/><path d="M1198.2,363.62a3.82,3.82,0,0,0-1.3,5.1,287,287,0,0,1,17.65,35.62,267.25,267.25,0,0,1,11.23,34.43,293.8,293.8,0,0,1,6.75,35.47c1.11,8.79,1.88,17.64,2.36,26.48.48,9.4.68,18.79,1,28.18a4.56,4.56,0,0,0,4.43,4.6,4.64,4.64,0,0,0,4.48-4.6,273.39,273.39,0,0,0-1.49-38.82,328.77,328.77,0,0,0-5.88-37.62,294.64,294.64,0,0,0-25.31-70.95c-2.85-5.6-5.89-11.1-9.07-16.54a3.48,3.48,0,0,0-4.87-1.35Z" style="fill:#161616"/><path d="M1236.39,528.2a5.52,5.52,0,0,0-2.32,1.35,81.61,81.61,0,0,1-17.45,10.19,140.06,140.06,0,0,1-35.24,9.7,125.55,125.55,0,0,1-32.69.4c-3.23-.5-6.46-1.1-9.69-1.55a.9.9,0,0,1,.38.05l-.48-.15a4.13,4.13,0,0,0-4.68,2,4.43,4.43,0,0,0,1.5,5.84c.77.4,1.44.9,2.17,1.3,1.11.6,2.31,1.1,3.47,1.6a37.87,37.87,0,0,0,6.12,2,78.09,78.09,0,0,0,13.93,2,114.43,114.43,0,0,0,29.17-2.55,138.67,138.67,0,0,0,28-9.14,98.28,98.28,0,0,0,23-13.89,5.19,5.19,0,0,0,1.54-3.85,5.39,5.39,0,0,0-1.54-3.85,5,5,0,0,0-3.71-1.6,13.1,13.1,0,0,0-1.4.2Z" style="fill:#161616"/><path d="M1204.47,487.48c-2.94,1.25-5.79,2.75-8.63,4.15-2.56,1.3-5.11,2.5-7.71,3.65a179.18,179.18,0,0,1-45.23,12.79c-1.49.2-3,.35-4.53.55a4.12,4.12,0,0,0-2.85,1.2,4.21,4.21,0,0,0,0,5.89,3.89,3.89,0,0,0,2.85,1.25,220,220,0,0,0,36.26-6.79,145.41,145.41,0,0,0,17.88-6.6,81.67,81.67,0,0,0,7.81-3.95,43.14,43.14,0,0,0,7.81-5.59,4,4,0,0,0,.58-4.75,3.63,3.63,0,0,0-1.35-1.4,4.16,4.16,0,0,0-2-.55,3,3,0,0,0-.92.15Z" style="fill:#161616"/><path d="M1175.45,425.23a3.9,3.9,0,0,0-1.07,2.69c-.62,11.05-1,22.14-.62,33.23.14,5.4.43,10.74,1.06,16.09.34,2.9.72,5.75,1.3,8.59a30.09,30.09,0,0,0,3,8.65,4.06,4.06,0,0,0,6.41.85,4.62,4.62,0,0,0,1.21-3,33.35,33.35,0,0,0-.44-6.9c-.34-2.4-.77-4.79-1.16-7.19-.82-4.55-1.59-9.1-2.17-13.64a218.15,218.15,0,0,1-1.35-36.68,3.72,3.72,0,0,0-3.66-3.79,3.54,3.54,0,0,0-2.55,1.1Z" style="fill:#161616"/><path d="M1175.4,421.63c-.49,3.05-.92,6.09-1.11,9.14-.24,3.3-.39,6.65-.48,9.94-.2,6.4-.2,12.8-.15,19.14.15,13,.82,26,1.88,39a5.22,5.22,0,0,0,1.35,3.4,4.48,4.48,0,0,0,6.51,0,4.72,4.72,0,0,0,1.35-3.4c-1.06-12.74-1.78-25.48-2.41-38.27-.34-6.34-.58-12.74-.87-19.14-.14-3.29-.34-6.59-.58-9.94s-.62-6.59-1.11-9.84a2.34,2.34,0,0,0-2.21-1.75,2.28,2.28,0,0,0-2.17,1.75Z" style="fill:#161616"/><path d="M985.82,561.48a4.89,4.89,0,0,0-1.49,3.75c.57,7.39,1,14.79,1.25,22.18.14,3.85.19,7.7.29,11.54s0,7.75.38,11.59a5.84,5.84,0,0,0,1.55,3.9,5.3,5.3,0,0,0,3.76,1.6,5.19,5.19,0,0,0,3.71-1.6,6.08,6.08,0,0,0,1.59-3.9,100.3,100.3,0,0,0,.1-10.69c-.1-3.84-.34-7.69-.58-11.54-.48-7.69-1.11-15.39-1.78-23.08a5.92,5.92,0,0,0-1.5-3.75,5.16,5.16,0,0,0-3.66-1.6,5.07,5.07,0,0,0-3.62,1.6Z" style="fill:#161616"/><path d="M1177.9,556.33c-.24,7.15-.38,14.29-.33,21.44,0,3.55.09,7.14.24,10.69.09,1.8.24,3.55.38,5.35a28.4,28.4,0,0,0,.87,5.64,4.37,4.37,0,0,0,4.15,3.25,4.2,4.2,0,0,0,2.17-.6,4.36,4.36,0,0,0,2-2.65c.15-1,.24-2,.34-3s0-1.79,0-2.69c0-1.8-.1-3.55-.19-5.35-.15-3.55-.29-7.14-.44-10.69-.24-7.15-.33-14.29-.14-21.44a4.51,4.51,0,1,0-9,0Z" style="fill:#161616"/><path d="M1095.75,337.54a29.38,29.38,0,0,0-.58,6.14c-.1,2.2-.05,4.4-.15,6.6-.09,4.1-.38,8.19-.86,12.24a94.94,94.94,0,0,1-5.55,21.83c-.72,1.7-1.49,3.35-2.31,5a3.85,3.85,0,0,0-.34,2.65,3.42,3.42,0,0,0,1.54,2.05,3.25,3.25,0,0,0,4.54-1.25,96.4,96.4,0,0,0,8.82-26.78,88.15,88.15,0,0,0,1.4-14.69,60.62,60.62,0,0,0-.29-7.15,22.1,22.1,0,0,0-1.79-7.29,2.36,2.36,0,0,0-2.07-1.2,2.45,2.45,0,0,0-2.36,1.8Z" style="fill:#161616"/><path d="M1096.9,338.39c.25.05.49.05.78.1-.29-.05-.53-.05-.78-.1Zm-2.7-5.65a3.36,3.36,0,0,0,0,4.6l.68.55a2.94,2.94,0,0,0,1.59.45,1.19,1.19,0,0,1,.39.05,87,87,0,0,1,11.76,2.6,3.16,3.16,0,0,0,3.91-2.3,3.3,3.3,0,0,0-2.22-4,77.42,77.42,0,0,0-13.84-2.9.42.42,0,0,0-.24-.05,3.21,3.21,0,0,0-2,1Z" style="fill:#161616"/><path d="M1094.35,338.79a3.1,3.1,0,0,0,2.07,3.74,155.1,155.1,0,0,0,16.64,3.85,2.88,2.88,0,0,0,3.56-2.15,3.18,3.18,0,0,0-.28-2.3,2.75,2.75,0,0,0-1.74-1.39c-5.59-1.1-11.14-2.35-16.63-3.9a3.78,3.78,0,0,0-.78-.1,3,3,0,0,0-2.84,2.25Z" style="fill:#161616"/><path d="M1099,332.19a2.7,2.7,0,0,0-1.26,1.65,2.82,2.82,0,0,0,1.88,3.45c11.82,2.6,23.19,6.79,34.57,11,5.69,2.05,11.38,4.1,17.17,5.85a105.17,105.17,0,0,0,17.84,3.89,1.93,1.93,0,0,0,1.83-1.45,2,2,0,0,0-1.3-2.44c-11.48-3.5-22.76-7.45-34-11.5s-22.81-8.14-34.62-10.74a4.06,4.06,0,0,0-.77-.1,2.59,2.59,0,0,0-1.3.4Z" style="fill:#161616"/><path d="M1068.27,316.2a2.65,2.65,0,0,0-.68,1.8,2.62,2.62,0,0,0,.68,1.75,63.52,63.52,0,0,0,11.86,11.14,54.86,54.86,0,0,0,6.94,4.25,40.57,40.57,0,0,0,7.91,3.2,2.65,2.65,0,0,0,3.23-1.95,3,3,0,0,0-.24-2.1,2.88,2.88,0,0,0-1.6-1.25c-1.83-.7-3.61-1.4-5.44-2.15a50.87,50.87,0,0,1-19.29-14.69,2.14,2.14,0,0,0-1.59-.7,2.57,2.57,0,0,0-1.78.7Z" style="fill:#161616"/><path d="M1200.13,43.9l-.58.14c-.24.06-.53.06-.77.1.63.9,1.25,1.85,1.93,2.75.48.6.92,1.25,1.4,1.85.24-1.65.43-3.3.67-4.94h-.38c-.77,0-1.5,0-2.27.1Z" style="fill:#161616"/></g></svg>