<svg id="Layer_1" data-name="Layer 1" xmlns="http://www.w3.org/2000/svg" viewBox="0 0 1200 628"><title>CP011_blog</title><rect id="White" width="1200" height="628" style="fill:#fff"/><g id="_011" data-name="011"><path d="M163.48,230a45.82,45.82,0,0,1-1.6,12.88,27,27,0,0,1-4.36,9,17.67,17.67,0,0,1-6.46,5.3,18.76,18.76,0,0,1-15.78,0,17.78,17.78,0,0,1-6.44-5.3,26.58,26.58,0,0,1-4.34-9,53.29,53.29,0,0,1,0-25.76,26.58,26.58,0,0,1,4.34-9,17.78,17.78,0,0,1,6.44-5.3,18.76,18.76,0,0,1,15.78,0,17.67,17.67,0,0,1,6.46,5.3,27,27,0,0,1,4.36,9A45.82,45.82,0,0,1,163.48,230Zm-4,0a45.5,45.5,0,0,0-1.32-11.76,24.8,24.8,0,0,0-3.54-8,13.76,13.76,0,0,0-5.2-4.54,14.21,14.21,0,0,0-6.26-1.44,13.69,13.69,0,0,0-11.44,6,24.6,24.6,0,0,0-3.56,8,53.13,53.13,0,0,0,0,23.54,24.57,24.57,0,0,0,3.56,8,13.83,13.83,0,0,0,5.2,4.52,14.18,14.18,0,0,0,6.24,1.42,14.33,14.33,0,0,0,6.26-1.42,13.61,13.61,0,0,0,5.2-4.52,24.78,24.78,0,0,0,3.54-8A45.51,45.51,0,0,0,159.48,230Z"/><path d="M206.28,255.32v3h-29.2v-3h13V209.4q0-1.36.12-2.88L177.72,217.6a1.28,1.28,0,0,1-1.12.36,1.58,1.58,0,0,1-.88-.48l-1.16-1.6,16.36-14.44h3v53.88Z"/><path d="M252.68,255.32v3h-29.2v-3h13V209.4q0-1.36.12-2.88L224.12,217.6A1.28,1.28,0,0,1,223,218a1.55,1.55,0,0,1-.88-.48l-1.16-1.6,16.36-14.44h3v53.88Z"/><path d="M133.3,331.08V345.7h-9.9V303.05h16.29q7.59,0,12,3.86a13.82,13.82,0,0,1,0,20.32q-4.46,3.86-12,3.85Zm0-7.61h6.39a6.46,6.46,0,0,0,4.92-1.78,6.32,6.32,0,0,0,1.7-4.55,6.55,6.55,0,0,0-1.69-4.66,6.39,6.39,0,0,0-4.93-1.82H133.3Z"/><path d="M180.18,341a10.49,10.49,0,0,1-3.65,4,9.69,9.69,0,0,1-5.17,1.39,9.37,9.37,0,0,1-7.72-3.46q-2.8-3.45-2.8-10.69V314h9.87v18.23q0,3.72,1,5.09a3.31,3.31,0,0,0,2.94,1.38,8.15,8.15,0,0,0,2.78-.44,5.26,5.26,0,0,0,2.05-1.32V314h9.91v31.7h-8Z"/><path d="M206.16,306.12V314h5v6.86h-5v14.53a3.57,3.57,0,0,0,.69,2.45,2.43,2.43,0,0,0,1.86.74c.51,0,.91,0,1.22-.05a10,10,0,0,0,1.15-.24l.68,7.33a25.7,25.7,0,0,1-2.7.54,23.11,23.11,0,0,1-2.84.16q-4.89,0-7.43-2.61t-2.53-8.26V320.86h-4.42V314h4.42v-7.88Z"/><path d="M227.34,306.12V314h5v6.86h-5v14.53a3.57,3.57,0,0,0,.69,2.45,2.43,2.43,0,0,0,1.86.74c.51,0,.92,0,1.22-.05a10.52,10.52,0,0,0,1.16-.24l.67,7.33a25.7,25.7,0,0,1-2.7.54,23,23,0,0,1-2.84.16c-3.26,0-5.74-.87-7.42-2.61s-2.54-4.49-2.54-8.26V320.86H213V314h4.42v-7.88Z"/><path d="M247.53,306.65H237.6V300h9.93Zm0,39.05H237.6V314h9.93Z"/><path d="M262.71,314l.38,4.46a11.48,11.48,0,0,1,3.83-3.71,10,10,0,0,1,5.1-1.33,8.93,8.93,0,0,1,7.28,3.16q2.63,3.17,2.62,10.05V345.7H272V326.6a7.22,7.22,0,0,0-1-4.29,3.3,3.3,0,0,0-2.81-1.27,7,7,0,0,0-2.84.55,5.73,5.73,0,0,0-2.11,1.58V345.7h-9.87V314Z"/><path d="M286,329.91q0-7.41,3.23-12a10.55,10.55,0,0,1,9.13-4.54,8.13,8.13,0,0,1,4.39,1.18A10.58,10.58,0,0,1,306,318l.64-4h8.73v31.35q0,6.27-4.29,9.71t-11.82,3.45a21.29,21.29,0,0,1-5.16-.68A28.81,28.81,0,0,1,289,356l1.69-7.33a23,23,0,0,0,4.09,1.39,19.38,19.38,0,0,0,4.47.46,7.31,7.31,0,0,0,4.7-1.26,4.85,4.85,0,0,0,1.54-4v-2.46a9.16,9.16,0,0,1-3.12,2.61,9,9,0,0,1-4.06.88,10.65,10.65,0,0,1-9.08-4.34Q286,337.65,286,330.53Zm9.87.62a13.19,13.19,0,0,0,1.13,6,4,4,0,0,0,3.82,2.15,6.86,6.86,0,0,0,2.77-.5,4.55,4.55,0,0,0,1.89-1.49V323.38a4.9,4.9,0,0,0-1.88-1.74,5.78,5.78,0,0,0-2.72-.6,4,4,0,0,0-3.82,2.44,14.85,14.85,0,0,0-1.19,6.43Z"/><path d="M348.25,331.73l0,.23h.18l5.24-18h10.55l-12.63,36.42a17.57,17.57,0,0,1-3.78,5.8c-1.54,1.52-4,2.29-7.35,2.29a11,11,0,0,1-2.11-.17q-.83-.15-2.58-.6l1.2-7.06.62.14a3.44,3.44,0,0,0,.52,0,6.55,6.55,0,0,0,3.43-.69,4.11,4.11,0,0,0,1.61-2.06l.79-2.06L333,314h10.52Z"/><path d="M365.07,329.56q0-7.15,4-11.64t11.28-4.5q7.26,0,11.31,4.5t4,11.64v.62q0,7.17-4,11.66t-11.25,4.48q-7.29,0-11.34-4.48t-4-11.66Zm9.9.62a13.09,13.09,0,0,0,1.25,6.25,4.43,4.43,0,0,0,4.23,2.27,4.38,4.38,0,0,0,4.16-2.28,13,13,0,0,0,1.26-6.24v-.62a13.07,13.07,0,0,0-1.26-6.2,4.41,4.41,0,0,0-4.22-2.32,4.35,4.35,0,0,0-4.17,2.34,13.17,13.17,0,0,0-1.25,6.18Z"/><path d="M419.21,341a10.41,10.41,0,0,1-3.65,4,9.66,9.66,0,0,1-5.17,1.39,9.38,9.38,0,0,1-7.72-3.46q-2.79-3.45-2.8-10.69V314h9.88v18.23c0,2.48.31,4.18.95,5.09a3.31,3.31,0,0,0,2.94,1.38,8.21,8.21,0,0,0,2.79-.44,5.33,5.33,0,0,0,2.05-1.32V314h9.9v31.7h-8Z"/><path d="M451.35,322.44l-3.23,0a5.47,5.47,0,0,0-2.78.63,3.89,3.89,0,0,0-1.61,1.77V345.7h-9.9V314h9.31l.36,4.66a9.57,9.57,0,0,1,2.63-3.87,5.85,5.85,0,0,1,3.84-1.37,7.16,7.16,0,0,1,1.2.09,7.74,7.74,0,0,1,1.12.26Z"/><path d="M471.5,336.8a2.59,2.59,0,0,0-1.33-2.1,14.52,14.52,0,0,0-4.85-1.65c-3.69-.73-6.47-1.84-8.35-3.36a7.6,7.6,0,0,1-2.81-6.25,8.91,8.91,0,0,1,3.52-7.11q3.51-2.91,9.52-2.91c4.22,0,7.57.94,10.08,2.83a8.29,8.29,0,0,1,3.57,7.3l-.06.18h-9.61a3.89,3.89,0,0,0-.94-2.84,4.11,4.11,0,0,0-3.07-1,4.05,4.05,0,0,0-2.61.85,2.68,2.68,0,0,0-1.05,2.17,2.58,2.58,0,0,0,1.21,2.14,13.93,13.93,0,0,0,4.91,1.58q5.83,1.14,8.61,3.41A7.83,7.83,0,0,1,481,336.5a8.4,8.4,0,0,1-3.8,7.05q-3.8,2.77-10,2.77-6.48,0-10.24-3.28t-3.59-7.33l.06-.17h9a4,4,0,0,0,1.36,3.25,6,6,0,0,0,3.71,1,5,5,0,0,0,3-.78A2.62,2.62,0,0,0,471.5,336.8Z"/><path d="M499.75,346.32q-7.22,0-11.3-4.37a15.53,15.53,0,0,1-4.08-11v-1.12q0-7.26,3.85-11.83t11.15-4.54q6.4,0,9.94,3.84t3.53,10.51V333H494.68l-.06.17a6.18,6.18,0,0,0,1.84,4,6.44,6.44,0,0,0,4.63,1.54,20.24,20.24,0,0,0,4.74-.47,30.67,30.67,0,0,0,4.32-1.49l2.37,6a17.93,17.93,0,0,1-5.51,2.52A25.18,25.18,0,0,1,499.75,346.32ZM499.37,321a4.11,4.11,0,0,0-3.51,1.5,7.63,7.63,0,0,0-1.3,4.09l.06.15h8.55V326a6.59,6.59,0,0,0-.86-3.73A3.34,3.34,0,0,0,499.37,321Z"/><path d="M527.4,345.7h-9.93V300h9.93Z"/><path d="M535.61,345.7V320.86H531V314h4.57v-3.28q0-5.45,3.28-8.39t9.28-2.95a16.18,16.18,0,0,1,2.3.17c.78.1,1.64.26,2.6.45l-.74,7.29c-.54-.09-1-.17-1.43-.21a12.55,12.55,0,0,0-1.5-.08,3.94,3.94,0,0,0-2.87,1,3.66,3.66,0,0,0-1,2.75V314h6.27v6.86h-6.27V345.7Z"/><path d="M580.28,306.65h-9.93V300h9.93Zm0,39.05h-9.93V314h9.93Z"/><path d="M595.46,314l.38,4.46a11.51,11.51,0,0,1,3.84-3.71,9.9,9.9,0,0,1,5.1-1.33,8.94,8.94,0,0,1,7.28,3.16q2.61,3.17,2.62,10.05V345.7h-9.9V326.6a7.29,7.29,0,0,0-1-4.29A3.31,3.31,0,0,0,601,321a7,7,0,0,0-2.85.55,5.73,5.73,0,0,0-2.11,1.58V345.7h-9.87V314Z"/><path d="M646.38,306.12V314h5v6.86h-5v14.53a3.57,3.57,0,0,0,.69,2.45,2.4,2.4,0,0,0,1.86.74c.5,0,.91,0,1.21-.05a10.52,10.52,0,0,0,1.16-.24l.67,7.33a25.06,25.06,0,0,1-2.69.54,23.11,23.11,0,0,1-2.84.16c-3.27,0-5.74-.87-7.43-2.61s-2.54-4.49-2.54-8.26V320.86h-4.42V314h4.42v-7.88Z"/><path d="M665.8,317.93a10.66,10.66,0,0,1,3.5-3.33,9,9,0,0,1,4.56-1.18,9.44,9.44,0,0,1,7.73,3.43q2.82,3.42,2.81,10.63V345.7h-9.9V327.42c0-2.42-.31-4.09-.94-5a3.19,3.19,0,0,0-2.84-1.37,8,8,0,0,0-2.9.48,5.19,5.19,0,0,0-2,1.36V345.7h-9.9V300h9.9Z"/><path d="M704,346.32q-7.2,0-11.29-4.37a15.54,15.54,0,0,1-4.09-11v-1.12q0-7.26,3.86-11.83t11.14-4.54q6.42,0,9.95,3.84t3.53,10.51V333H698.91l-.06.17a6.13,6.13,0,0,0,1.84,4,6.44,6.44,0,0,0,4.63,1.54,20.14,20.14,0,0,0,4.73-.47,30.32,30.32,0,0,0,4.33-1.49l2.37,6a18,18,0,0,1-5.51,2.52A25.2,25.2,0,0,1,704,346.32ZM703.59,321a4.09,4.09,0,0,0-3.5,1.5,7.63,7.63,0,0,0-1.3,4.09l.06.15h8.55V326a6.68,6.68,0,0,0-.86-3.73A3.34,3.34,0,0,0,703.59,321Z"/><path d="M121.49,401.56q0-7.15,4.05-11.64t11.28-4.5q7.26,0,11.3,4.5t4,11.64v.62q0,7.17-4,11.66t-11.24,4.48q-7.31,0-11.34-4.48t-4.05-11.66Zm9.91.62a13.1,13.1,0,0,0,1.24,6.25,4.44,4.44,0,0,0,4.24,2.27,4.38,4.38,0,0,0,4.16-2.28,13.15,13.15,0,0,0,1.25-6.24v-.62a13.2,13.2,0,0,0-1.25-6.2,4.41,4.41,0,0,0-4.22-2.32,4.35,4.35,0,0,0-4.18,2.34,13.17,13.17,0,0,0-1.24,6.18Z"/><path d="M167.9,378.12V386h5v6.86h-5v14.53a3.57,3.57,0,0,0,.69,2.45,2.43,2.43,0,0,0,1.86.74c.51,0,.91,0,1.22-.05a10.42,10.42,0,0,0,1.15-.24l.68,7.33a25.7,25.7,0,0,1-2.7.54,23.11,23.11,0,0,1-2.84.16q-4.89,0-7.43-2.61T158,407.45V392.86h-4.43V386H158v-7.88Z"/><path d="M187.32,389.93a10.59,10.59,0,0,1,3.51-3.33,9,9,0,0,1,4.55-1.18,9.47,9.47,0,0,1,7.74,3.43q2.81,3.42,2.81,10.63V417.7H196V399.42c0-2.42-.32-4.09-.94-5a3.2,3.2,0,0,0-2.84-1.37,7.94,7.94,0,0,0-2.9.48,5.23,5.23,0,0,0-2,1.36V417.7h-9.9V372h9.9Z"/><path d="M225.5,418.32q-7.22,0-11.3-4.37a15.53,15.53,0,0,1-4.08-11v-1.12q0-7.26,3.85-11.83t11.15-4.54q6.4,0,9.94,3.84t3.53,10.51V405H220.43l-.06.17a6.14,6.14,0,0,0,1.85,4,6.41,6.41,0,0,0,4.63,1.54,20.2,20.2,0,0,0,4.73-.47,29.82,29.82,0,0,0,4.32-1.49l2.37,6a17.93,17.93,0,0,1-5.51,2.52A25.13,25.13,0,0,1,225.5,418.32ZM225.12,393a4.09,4.09,0,0,0-3.5,1.5,7.55,7.55,0,0,0-1.31,4.09l.06.15h8.56V398a6.59,6.59,0,0,0-.87-3.73A3.32,3.32,0,0,0,225.12,393Z"/><path d="M260.3,394.44l-3.22,0a5.47,5.47,0,0,0-2.78.63,3.84,3.84,0,0,0-1.61,1.77V417.7h-9.91V386h9.32l.35,4.66a9.49,9.49,0,0,1,2.64-3.87,5.81,5.81,0,0,1,3.84-1.37,7.16,7.16,0,0,1,1.2.09,7.34,7.34,0,0,1,1.11.26Z"/><path d="M277.56,401.56q0-7.15,4-11.64t11.28-4.5q7.26,0,11.31,4.5t4,11.64v.62q0,7.17-4,11.66t-11.25,4.48q-7.29,0-11.34-4.48t-4-11.66Zm9.9.62a13.09,13.09,0,0,0,1.25,6.25,4.43,4.43,0,0,0,4.23,2.27,4.38,4.38,0,0,0,4.16-2.28,13,13,0,0,0,1.26-6.24v-.62a13.07,13.07,0,0,0-1.26-6.2,4.41,4.41,0,0,0-4.22-2.32,4.35,4.35,0,0,0-4.17,2.34,13.17,13.17,0,0,0-1.25,6.18Z"/><path d="M321.71,386l.38,4.46a11.42,11.42,0,0,1,3.84-3.71,9.9,9.9,0,0,1,5.1-1.33,8.94,8.94,0,0,1,7.28,3.16q2.61,3.17,2.62,10.05V417.7H331V398.6a7.29,7.29,0,0,0-1-4.29,3.31,3.31,0,0,0-2.81-1.27,7,7,0,0,0-2.85.55,5.73,5.73,0,0,0-2.11,1.58V417.7h-9.87V386Z"/><path d="M360.38,418.32q-7.2,0-11.29-4.37a15.5,15.5,0,0,1-4.09-11v-1.12q0-7.26,3.85-11.83T360,385.42q6.42,0,9.95,3.84t3.53,10.51V405H355.31l-.06.17a6.19,6.19,0,0,0,1.85,4,6.42,6.42,0,0,0,4.63,1.54,20.2,20.2,0,0,0,4.73-.47,29.82,29.82,0,0,0,4.32-1.49l2.37,6a17.86,17.86,0,0,1-5.5,2.52A25.25,25.25,0,0,1,360.38,418.32ZM360,393a4.09,4.09,0,0,0-3.5,1.5,7.55,7.55,0,0,0-1.3,4.09l.05.15h8.56V398a6.59,6.59,0,0,0-.87-3.73A3.31,3.31,0,0,0,360,393Z"/><path d="M385.14,383.6l-3,8.29h-5.54V375.05h8.53Z"/><path d="M404,408.8a2.59,2.59,0,0,0-1.33-2.1,14.52,14.52,0,0,0-4.85-1.65c-3.69-.73-6.47-1.84-8.35-3.36a7.6,7.6,0,0,1-2.81-6.25,8.91,8.91,0,0,1,3.52-7.11q3.51-2.91,9.52-2.91,6.33,0,10.08,2.83a8.29,8.29,0,0,1,3.57,7.3l-.06.18h-9.61a3.89,3.89,0,0,0-.94-2.84,4.11,4.11,0,0,0-3.07-1,4.05,4.05,0,0,0-2.61.85,2.68,2.68,0,0,0-1,2.17,2.58,2.58,0,0,0,1.21,2.14,13.93,13.93,0,0,0,4.91,1.58q5.83,1.14,8.61,3.41a7.83,7.83,0,0,1,2.79,6.43,8.4,8.4,0,0,1-3.8,7.05q-3.79,2.77-10,2.77-6.48,0-10.24-3.28t-3.59-7.33l.06-.17h9a4,4,0,0,0,1.37,3.25,6,6,0,0,0,3.7,1,4.93,4.93,0,0,0,3-.78A2.62,2.62,0,0,0,404,408.8Z"/><path d="M449.62,408.8a2.62,2.62,0,0,0-1.33-2.1,14.61,14.61,0,0,0-4.85-1.65c-3.69-.73-6.48-1.84-8.35-3.36a7.58,7.58,0,0,1-2.81-6.25,8.93,8.93,0,0,1,3.51-7.11q3.51-2.91,9.52-2.91,6.33,0,10.08,2.83a8.29,8.29,0,0,1,3.57,7.3l0,.18H449.3a3.94,3.94,0,0,0-.94-2.84,4.14,4.14,0,0,0-3.08-1,4,4,0,0,0-2.6.85,2.66,2.66,0,0,0-1.06,2.17,2.59,2.59,0,0,0,1.22,2.14,13.86,13.86,0,0,0,4.9,1.58q5.83,1.14,8.62,3.41a7.85,7.85,0,0,1,2.78,6.43,8.39,8.39,0,0,1-3.79,7.05q-3.8,2.77-10,2.77-6.46,0-10.24-3.28c-2.51-2.19-3.7-4.63-3.59-7.33l.06-.17h9a4,4,0,0,0,1.36,3.25,6,6,0,0,0,3.71,1,4.91,4.91,0,0,0,3-.78A2.6,2.6,0,0,0,449.62,408.8Z"/><path d="M473.41,389.93a10.47,10.47,0,0,1,3.5-3.33,9,9,0,0,1,4.55-1.18,9.46,9.46,0,0,1,7.74,3.43q2.81,3.42,2.81,10.63V417.7h-9.9V399.42c0-2.42-.31-4.09-.94-5a3.19,3.19,0,0,0-2.84-1.37,8,8,0,0,0-2.9.48,5.19,5.19,0,0,0-2,1.36V417.7h-9.9V372h9.9Z"/><path d="M496.2,401.56q0-7.15,4-11.64t11.28-4.5q7.28,0,11.31,4.5t4,11.64v.62q0,7.17-4,11.66t-11.25,4.48q-7.29,0-11.34-4.48t-4-11.66Zm9.9.62a13.09,13.09,0,0,0,1.25,6.25,4.43,4.43,0,0,0,4.23,2.27,4.37,4.37,0,0,0,4.16-2.28,13,13,0,0,0,1.26-6.24v-.62a13.07,13.07,0,0,0-1.26-6.2,4.41,4.41,0,0,0-4.22-2.32,4.35,4.35,0,0,0-4.17,2.34,13.17,13.17,0,0,0-1.25,6.18Z"/><path d="M545.3,418.32q-7.2,0-11.29-4.37a15.5,15.5,0,0,1-4.09-11v-1.12q0-7.26,3.85-11.83t11.15-4.54q6.42,0,10,3.84t3.53,10.51V405H540.23l-.05.17a6.13,6.13,0,0,0,1.84,4,6.44,6.44,0,0,0,4.63,1.54,20.2,20.2,0,0,0,4.73-.47,29.82,29.82,0,0,0,4.32-1.49l2.38,6a18,18,0,0,1-5.51,2.52A25.25,25.25,0,0,1,545.3,418.32ZM544.92,393a4.09,4.09,0,0,0-3.5,1.5,7.55,7.55,0,0,0-1.3,4.09l.06.15h8.55V398a6.68,6.68,0,0,0-.86-3.73A3.34,3.34,0,0,0,544.92,393Z"/><path d="M579.11,408.8a2.59,2.59,0,0,0-1.33-2.1,14.61,14.61,0,0,0-4.85-1.65c-3.69-.73-6.47-1.84-8.35-3.36a7.6,7.6,0,0,1-2.81-6.25,8.93,8.93,0,0,1,3.51-7.11q3.53-2.91,9.52-2.91,6.33,0,10.08,2.83a8.32,8.32,0,0,1,3.58,7.3l-.06.18h-9.61a3.89,3.89,0,0,0-.94-2.84,4.11,4.11,0,0,0-3.07-1,4.05,4.05,0,0,0-2.61.85,2.66,2.66,0,0,0-1.06,2.17,2.59,2.59,0,0,0,1.22,2.14,13.93,13.93,0,0,0,4.91,1.58q5.82,1.14,8.61,3.41a7.82,7.82,0,0,1,2.78,6.43,8.39,8.39,0,0,1-3.79,7.05q-3.8,2.77-10,2.77c-4.31,0-7.73-1.1-10.23-3.28s-3.71-4.63-3.59-7.33l.06-.17h9a4,4,0,0,0,1.36,3.25,6,6,0,0,0,3.71,1,5,5,0,0,0,3-.78A2.62,2.62,0,0,0,579.11,408.8Z"/><path d="M125,462.84a38.48,38.48,0,0,0,1.54,11,40.55,40.55,0,0,0,4.6,10.11.78.78,0,0,1,.14.7.81.81,0,0,1-.32.4l-1.07.66a49.62,49.62,0,0,1-3.3-5.83,39.7,39.7,0,0,1-2.17-5.61,36.94,36.94,0,0,1-1.2-5.59,46.82,46.82,0,0,1,0-11.59,36.93,36.93,0,0,1,1.2-5.61,40.17,40.17,0,0,1,2.17-5.61,49.62,49.62,0,0,1,3.3-5.83l1.07.66a.81.81,0,0,1,.32.4.78.78,0,0,1-.14.7,40.55,40.55,0,0,0-4.6,10.11A38.59,38.59,0,0,0,125,462.84Z"/><path d="M157,453.53l-14.59,33.53a1.69,1.69,0,0,1-.39.59,1,1,0,0,1-.7.23h-1.74l4.47-9.92-10.74-24.43h2a.93.93,0,0,1,.61.19,1,1,0,0,1,.3.42l8.55,19.74a6.48,6.48,0,0,1,.26.78c.08.26.15.53.22.8.09-.27.17-.54.27-.8s.19-.53.29-.78l8.44-19.74a1.2,1.2,0,0,1,.36-.44.85.85,0,0,1,.51-.17Z"/><path d="M171.54,453.12a12.24,12.24,0,0,1,4.88.93,9.85,9.85,0,0,1,3.63,2.64,11.64,11.64,0,0,1,2.26,4.12,19,19,0,0,1,0,10.77,11.69,11.69,0,0,1-2.26,4.11,9.82,9.82,0,0,1-3.63,2.63,13.57,13.57,0,0,1-9.77,0,10,10,0,0,1-3.64-2.63,11.4,11.4,0,0,1-2.27-4.11,19,19,0,0,1,0-10.77,11.36,11.36,0,0,1,2.27-4.12,10,10,0,0,1,3.64-2.64A12.25,12.25,0,0,1,171.54,453.12Zm0,24.2a9.39,9.39,0,0,0,4-.78,7.44,7.44,0,0,0,2.83-2.23,9.85,9.85,0,0,0,1.7-3.5,19.17,19.17,0,0,0,0-9.2,10.09,10.09,0,0,0-1.7-3.53,7.49,7.49,0,0,0-2.83-2.25,10.35,10.35,0,0,0-7.93,0,7.49,7.49,0,0,0-2.83,2.25,10.1,10.1,0,0,0-1.71,3.53,18.85,18.85,0,0,0,0,9.2,9.87,9.87,0,0,0,1.71,3.5,7.44,7.44,0,0,0,2.83,2.23A9.41,9.41,0,0,0,171.54,477.32Z"/><path d="M209.63,453.53V478.9h-1.35a.69.69,0,0,1-.74-.66l-.23-3.77a14.56,14.56,0,0,1-4.06,3.52,10.19,10.19,0,0,1-5.14,1.32,9.55,9.55,0,0,1-3.7-.66,6.78,6.78,0,0,1-2.63-1.91,8.72,8.72,0,0,1-1.58-3,13.6,13.6,0,0,1-.53-4V453.53h2.44v16.22a8.71,8.71,0,0,0,1.64,5.6,6,6,0,0,0,5,2,9,9,0,0,0,4.63-1.26,13,13,0,0,0,3.83-3.51V453.53Z"/><path d="M220.29,459.65a15.86,15.86,0,0,1,1.34-2.77,9,9,0,0,1,1.73-2.05,7.28,7.28,0,0,1,2.2-1.29,7.86,7.86,0,0,1,2.69-.44,8.05,8.05,0,0,1,1.55.14,4,4,0,0,1,1.35.49l-.2,1.69a.49.49,0,0,1-.48.41,3.65,3.65,0,0,1-.93-.18,6.18,6.18,0,0,0-1.65-.18,7,7,0,0,0-2.61.45,5.9,5.9,0,0,0-2,1.33,8.44,8.44,0,0,0-1.58,2.21,20.1,20.1,0,0,0-1.24,3V478.9H218V453.53h1.3a.84.84,0,0,1,.61.18,1,1,0,0,1,.23.61Z"/><path d="M262.7,456.67a.64.64,0,0,1-.59.35,1.3,1.3,0,0,1-.71-.31,9.3,9.3,0,0,0-1.16-.72,9.78,9.78,0,0,0-1.8-.71,9.27,9.27,0,0,0-2.6-.32,7.64,7.64,0,0,0-2.51.39,6.32,6.32,0,0,0-1.94,1.06,4.6,4.6,0,0,0-1.24,1.55,4.08,4.08,0,0,0-.43,1.84,3.13,3.13,0,0,0,.61,2,5.28,5.28,0,0,0,1.59,1.35,11.47,11.47,0,0,0,2.26,1l2.59.82c.87.27,1.74.57,2.59.9a9.69,9.69,0,0,1,2.25,1.24,5.9,5.9,0,0,1,1.6,1.81,5.16,5.16,0,0,1,.61,2.6,8.06,8.06,0,0,1-.59,3.09,6.85,6.85,0,0,1-1.72,2.47,8.37,8.37,0,0,1-2.79,1.66,10.9,10.9,0,0,1-3.8.61,11.41,11.41,0,0,1-4.62-.85,13.15,13.15,0,0,1-3.46-2.23l.56-.87a.87.87,0,0,1,.29-.31.83.83,0,0,1,.45-.1,1.35,1.35,0,0,1,.8.41,9.85,9.85,0,0,0,1.26.88,11.25,11.25,0,0,0,2,.88,8.81,8.81,0,0,0,2.87.41,8.16,8.16,0,0,0,2.83-.45,5.85,5.85,0,0,0,2-1.21,5,5,0,0,0,1.24-1.8,5.72,5.72,0,0,0,.42-2.18,3.5,3.5,0,0,0-.61-2.12,5.3,5.3,0,0,0-1.61-1.42,10.93,10.93,0,0,0-2.26-1l-2.58-.81c-.89-.28-1.75-.57-2.59-.9a9.39,9.39,0,0,1-2.26-1.22,5.9,5.9,0,0,1-1.61-1.8,5.26,5.26,0,0,1-.61-2.64,6.06,6.06,0,0,1,.59-2.6,6.66,6.66,0,0,1,1.67-2.19,8.26,8.26,0,0,1,2.64-1.51,10.34,10.34,0,0,1,3.49-.56,11.67,11.67,0,0,1,4.12.67,9.69,9.69,0,0,1,3.28,2Z"/><path d="M272.87,457.81a14.27,14.27,0,0,1,4-3.41,10.09,10.09,0,0,1,5.06-1.28,9.37,9.37,0,0,1,3.68.67,6.67,6.67,0,0,1,2.64,1.91,8.23,8.23,0,0,1,1.58,3,13.54,13.54,0,0,1,.54,4V478.9h-2.45V462.69a8.69,8.69,0,0,0-1.63-5.6,6,6,0,0,0-5-2,9,9,0,0,0-4.63,1.26,13,13,0,0,0-3.84,3.51V478.9h-2.45V441.8h2.45Z"/><path d="M308.52,453.12a12.17,12.17,0,0,1,4.88.93,10,10,0,0,1,3.64,2.64,11.79,11.79,0,0,1,2.25,4.12,19,19,0,0,1,0,10.77,11.83,11.83,0,0,1-2.25,4.11,9.94,9.94,0,0,1-3.64,2.63,13.54,13.54,0,0,1-9.76,0,10,10,0,0,1-3.65-2.63,11.7,11.7,0,0,1-2.27-4.11,19,19,0,0,1,0-10.77,11.66,11.66,0,0,1,2.27-4.12,10,10,0,0,1,3.65-2.64A12.17,12.17,0,0,1,308.52,453.12Zm0,24.2a9.39,9.39,0,0,0,4-.78,7.4,7.4,0,0,0,2.84-2.23,9.84,9.84,0,0,0,1.69-3.5,19.17,19.17,0,0,0,0-9.2,10.07,10.07,0,0,0-1.69-3.53,7.45,7.45,0,0,0-2.84-2.25,10.35,10.35,0,0,0-7.93,0,7.49,7.49,0,0,0-2.83,2.25,10.26,10.26,0,0,0-1.7,3.53,18.53,18.53,0,0,0,0,9.2,10,10,0,0,0,1.7,3.5,7.44,7.44,0,0,0,2.83,2.23A9.44,9.44,0,0,0,308.52,477.32Z"/><path d="M327.8,465.21v.48a17.33,17.33,0,0,0,.66,5,10.25,10.25,0,0,0,1.89,3.63,7.77,7.77,0,0,0,3,2.21,9.78,9.78,0,0,0,3.87.74,11.66,11.66,0,0,0,3.32-.42,12.42,12.42,0,0,0,2.36-.95,13.38,13.38,0,0,0,1.51-.94,1.76,1.76,0,0,1,.82-.42.58.58,0,0,1,.51.25l.66.82a7.19,7.19,0,0,1-1.62,1.43,11.45,11.45,0,0,1-2.24,1.13,15.38,15.38,0,0,1-2.65.75,14.42,14.42,0,0,1-2.85.28,12.13,12.13,0,0,1-4.74-.9,10,10,0,0,1-3.67-2.64,12,12,0,0,1-2.36-4.25,18.38,18.38,0,0,1-.83-5.75,15.65,15.65,0,0,1,.78-5,11.47,11.47,0,0,1,2.24-4,10.31,10.31,0,0,1,3.6-2.61,11.79,11.79,0,0,1,4.83-.95,10.63,10.63,0,0,1,4,.74A9.16,9.16,0,0,1,344,456a10.11,10.11,0,0,1,2.13,3.48,13.62,13.62,0,0,1,.77,4.74,1.42,1.42,0,0,1-.15.77.61.61,0,0,1-.51.2Zm16.93-1.56a10.88,10.88,0,0,0-.57-3.65,8,8,0,0,0-1.62-2.75,7.22,7.22,0,0,0-2.49-1.72,8.17,8.17,0,0,0-3.17-.6,9.69,9.69,0,0,0-3.52.61,7.71,7.71,0,0,0-2.69,1.76,8.87,8.87,0,0,0-1.83,2.76,13,13,0,0,0-.92,3.59Z"/><path d="M381.32,456.67a.62.62,0,0,1-.58.35,1.33,1.33,0,0,1-.72-.31,8.61,8.61,0,0,0-1.16-.72,9,9,0,0,0-4.4-1,7.68,7.68,0,0,0-2.51.39,6.44,6.44,0,0,0-1.94,1.06,4.69,4.69,0,0,0-1.23,1.55,4.09,4.09,0,0,0-.44,1.84,3.13,3.13,0,0,0,.62,2,5,5,0,0,0,1.59,1.35,11.22,11.22,0,0,0,2.26,1l2.58.82c.88.27,1.74.57,2.59.9a10,10,0,0,1,2.26,1.24,6,6,0,0,1,1.59,1.81,5.16,5.16,0,0,1,.61,2.6,8.06,8.06,0,0,1-.58,3.09,7,7,0,0,1-1.72,2.47,8.32,8.32,0,0,1-2.8,1.66,10.86,10.86,0,0,1-3.8.61,11.36,11.36,0,0,1-4.61-.85,13.21,13.21,0,0,1-3.47-2.23l.56-.87a1,1,0,0,1,.3-.31.8.8,0,0,1,.44-.1,1.35,1.35,0,0,1,.8.41,10.05,10.05,0,0,0,1.27.88,10.6,10.6,0,0,0,1.95.88,8.76,8.76,0,0,0,2.87.41,8.2,8.2,0,0,0,2.83-.45,6,6,0,0,0,2-1.21,5.07,5.07,0,0,0,1.23-1.8,5.72,5.72,0,0,0,.42-2.18,3.5,3.5,0,0,0-.61-2.12,5.26,5.26,0,0,0-1.6-1.42,11.43,11.43,0,0,0-2.26-1l-2.59-.81c-.88-.28-1.75-.57-2.59-.9a9.32,9.32,0,0,1-2.25-1.22,5.77,5.77,0,0,1-1.61-1.8,5.16,5.16,0,0,1-.61-2.64,6,6,0,0,1,.58-2.6,6.8,6.8,0,0,1,1.67-2.19,8.48,8.48,0,0,1,2.64-1.51,10.4,10.4,0,0,1,3.5-.56,11.71,11.71,0,0,1,4.12.67,9.65,9.65,0,0,1,3.27,2Z"/><path d="M392.8,444.78a2,2,0,0,1-.19.86,2.7,2.7,0,0,1-.5.7,2.22,2.22,0,0,1-.72.48,2.17,2.17,0,0,1-1.73,0,2.17,2.17,0,0,1-.71-.48,2.27,2.27,0,0,1-.49-.7,2,2,0,0,1-.18-.86,2.23,2.23,0,0,1,.18-.88,2.14,2.14,0,0,1,.49-.72,2.2,2.2,0,0,1,.71-.49,2.17,2.17,0,0,1,1.73,0,2.24,2.24,0,0,1,.72.49,2.5,2.5,0,0,1,.5.72A2.25,2.25,0,0,1,392.8,444.78Zm-1.05,8.75V478.9h-2.42V453.53Z"/><path d="M417.05,453.53v1a1.48,1.48,0,0,1-.36,1L400.8,477h15.61v1.91H397.87v-1a1.66,1.66,0,0,1,.38-.94l15.94-21.55H398.71v-1.91Z"/><path d="M423.37,465.21v.48a17.33,17.33,0,0,0,.66,5,10.41,10.41,0,0,0,1.89,3.63,7.85,7.85,0,0,0,3,2.21,9.82,9.82,0,0,0,3.87.74,11.66,11.66,0,0,0,3.32-.42,12.42,12.42,0,0,0,2.36-.95A13.64,13.64,0,0,0,440,475a1.69,1.69,0,0,1,.81-.42.58.58,0,0,1,.51.25l.66.82a6.92,6.92,0,0,1-1.61,1.43,11.54,11.54,0,0,1-2.25,1.13,15.13,15.13,0,0,1-2.65.75,14.32,14.32,0,0,1-2.84.28,12.15,12.15,0,0,1-4.75-.9,10,10,0,0,1-3.67-2.64,12,12,0,0,1-2.36-4.25,18.38,18.38,0,0,1-.83-5.75,15.65,15.65,0,0,1,.78-5,11.49,11.49,0,0,1,2.25-4,10.18,10.18,0,0,1,3.59-2.61,11.79,11.79,0,0,1,4.83-.95,10.6,10.6,0,0,1,4,.74,9,9,0,0,1,3.19,2.16,10.11,10.11,0,0,1,2.13,3.48,13.38,13.38,0,0,1,.78,4.74,1.4,1.4,0,0,1-.16.77.61.61,0,0,1-.51.2Zm16.93-1.56a10.88,10.88,0,0,0-.57-3.65,7.74,7.74,0,0,0-1.62-2.75,7.22,7.22,0,0,0-2.49-1.72,8.17,8.17,0,0,0-3.17-.6,9.73,9.73,0,0,0-3.52.61,7.8,7.8,0,0,0-2.69,1.76,8.84,8.84,0,0,0-1.82,2.76,12.69,12.69,0,0,0-.92,3.59Z"/><path d="M482.68,441.8v37.1h-1.32a.7.7,0,0,1-.77-.66l-.25-4a13.41,13.41,0,0,1-3.93,3.64,9.59,9.59,0,0,1-5.05,1.35,8.8,8.8,0,0,1-7.29-3.23q-2.61-3.24-2.6-9.72a18.08,18.08,0,0,1,.72-5.19,12.59,12.59,0,0,1,2.13-4.18,10.11,10.11,0,0,1,3.46-2.79,10.48,10.48,0,0,1,4.73-1A9.84,9.84,0,0,1,477,454a9.22,9.22,0,0,1,3.29,2.81V441.8ZM480.26,459A8.76,8.76,0,0,0,477,455.9,9,9,0,0,0,473,455a8.8,8.8,0,0,0-3.92.82,7.77,7.77,0,0,0-2.82,2.3,10.39,10.39,0,0,0-1.71,3.57,17.3,17.3,0,0,0-.57,4.58q0,5.66,2.08,8.33a7.15,7.15,0,0,0,6,2.66,8.39,8.39,0,0,0,4.57-1.3,12.4,12.4,0,0,0,3.64-3.65Z"/><path d="M501.09,453.12a12.25,12.25,0,0,1,4.89.93,9.93,9.93,0,0,1,3.63,2.64,11.64,11.64,0,0,1,2.26,4.12,19,19,0,0,1,0,10.77,11.69,11.69,0,0,1-2.26,4.11,9.9,9.9,0,0,1-3.63,2.63,13.57,13.57,0,0,1-9.77,0,10.06,10.06,0,0,1-3.65-2.63,11.53,11.53,0,0,1-2.26-4.11,19,19,0,0,1,0-10.77,11.49,11.49,0,0,1,2.26-4.12,10.09,10.09,0,0,1,3.65-2.64A12.24,12.24,0,0,1,501.09,453.12Zm0,24.2a9.41,9.41,0,0,0,4-.78,7.44,7.44,0,0,0,2.83-2.23,9.85,9.85,0,0,0,1.7-3.5,19.17,19.17,0,0,0,0-9.2,10.09,10.09,0,0,0-1.7-3.53,7.49,7.49,0,0,0-2.83-2.25,10.35,10.35,0,0,0-7.93,0,7.49,7.49,0,0,0-2.83,2.25,10.1,10.1,0,0,0-1.71,3.53,18.85,18.85,0,0,0,0,9.2,9.87,9.87,0,0,0,1.71,3.5,7.44,7.44,0,0,0,2.83,2.23A9.39,9.39,0,0,0,501.09,477.32Z"/><path d="M520.37,465.21v.48a17,17,0,0,0,.67,5,10.4,10.4,0,0,0,1.88,3.63,7.85,7.85,0,0,0,3,2.21,9.87,9.87,0,0,0,3.88.74,11.58,11.58,0,0,0,3.31-.42,12.16,12.16,0,0,0,2.36-.95A13.64,13.64,0,0,0,537,475a1.69,1.69,0,0,1,.81-.42.58.58,0,0,1,.51.25l.67.82a7.19,7.19,0,0,1-1.62,1.43,11.27,11.27,0,0,1-2.25,1.13,15.13,15.13,0,0,1-2.65.75,14.32,14.32,0,0,1-2.84.28,12.06,12.06,0,0,1-4.74-.9,10,10,0,0,1-3.68-2.64,12.14,12.14,0,0,1-2.36-4.25,18.39,18.39,0,0,1-.82-5.75,15.65,15.65,0,0,1,.77-5,11.49,11.49,0,0,1,2.25-4,10.18,10.18,0,0,1,3.59-2.61,11.81,11.81,0,0,1,4.84-.95,10.58,10.58,0,0,1,4,.74,9,9,0,0,1,3.19,2.16,10.11,10.11,0,0,1,2.13,3.48,13.38,13.38,0,0,1,.78,4.74,1.32,1.32,0,0,1-.16.77.61.61,0,0,1-.51.2Zm16.93-1.56a10.88,10.88,0,0,0-.57-3.65,7.74,7.74,0,0,0-1.62-2.75,7.18,7.18,0,0,0-2.48-1.72,8.19,8.19,0,0,0-3.18-.6,9.73,9.73,0,0,0-3.52.61,7.8,7.8,0,0,0-2.69,1.76,8.84,8.84,0,0,0-1.82,2.76,12.69,12.69,0,0,0-.92,3.59Z"/><path d="M560.05,456.67a.64.64,0,0,1-.59.35,1.33,1.33,0,0,1-.71-.31,9.06,9.06,0,0,0-5.56-1.75,7.68,7.68,0,0,0-2.51.39,6.44,6.44,0,0,0-1.94,1.06A4.72,4.72,0,0,0,547.5,458a4.21,4.21,0,0,0-.43,1.84,3.19,3.19,0,0,0,.61,2,5.2,5.2,0,0,0,1.6,1.35,11.12,11.12,0,0,0,2.25,1l2.59.82c.88.27,1.74.57,2.59.9a10,10,0,0,1,2.26,1.24,6,6,0,0,1,1.59,1.81,5.16,5.16,0,0,1,.61,2.6,8.06,8.06,0,0,1-.58,3.09,7,7,0,0,1-1.72,2.47,8.32,8.32,0,0,1-2.8,1.66,10.86,10.86,0,0,1-3.8.61,11.36,11.36,0,0,1-4.61-.85,13.21,13.21,0,0,1-3.47-2.23l.56-.87a1,1,0,0,1,.29-.31.83.83,0,0,1,.45-.1,1.35,1.35,0,0,1,.8.41,10.05,10.05,0,0,0,1.27.88,10.6,10.6,0,0,0,2,.88,8.76,8.76,0,0,0,2.87.41,8.2,8.2,0,0,0,2.83-.45,6,6,0,0,0,2-1.21,5.07,5.07,0,0,0,1.23-1.8,5.72,5.72,0,0,0,.42-2.18,3.5,3.5,0,0,0-.61-2.12,5.26,5.26,0,0,0-1.6-1.42,11.43,11.43,0,0,0-2.26-1l-2.59-.81c-.88-.28-1.75-.57-2.59-.9a9.32,9.32,0,0,1-2.25-1.22,5.77,5.77,0,0,1-1.61-1.8,5.16,5.16,0,0,1-.61-2.64,6,6,0,0,1,.58-2.6,6.66,6.66,0,0,1,1.67-2.19,8.48,8.48,0,0,1,2.64-1.51,10.36,10.36,0,0,1,3.5-.56,11.62,11.62,0,0,1,4.11.67,9.69,9.69,0,0,1,3.28,2Z"/><path d="M583.94,458a14.44,14.44,0,0,1,4.07-3.52,10.07,10.07,0,0,1,5.14-1.33,9.37,9.37,0,0,1,3.68.67,6.67,6.67,0,0,1,2.64,1.91,8.23,8.23,0,0,1,1.58,3,13.54,13.54,0,0,1,.54,4V478.9h-2.45V462.69a8.69,8.69,0,0,0-1.63-5.6,6,6,0,0,0-5-2,9,9,0,0,0-4.63,1.26,13,13,0,0,0-3.84,3.51V478.9h-2.45V453.53H583a.67.67,0,0,1,.73.64Z"/><path d="M619.72,453.12a12.17,12.17,0,0,1,4.88.93,10,10,0,0,1,3.64,2.64,11.79,11.79,0,0,1,2.25,4.12,19,19,0,0,1,0,10.77,11.83,11.83,0,0,1-2.25,4.11,9.94,9.94,0,0,1-3.64,2.63,13.54,13.54,0,0,1-9.76,0,10,10,0,0,1-3.65-2.63,11.7,11.7,0,0,1-2.27-4.11,19,19,0,0,1,0-10.77,11.66,11.66,0,0,1,2.27-4.12,10,10,0,0,1,3.65-2.64A12.17,12.17,0,0,1,619.72,453.12Zm0,24.2a9.47,9.47,0,0,0,4-.78,7.44,7.44,0,0,0,2.83-2.23,9.84,9.84,0,0,0,1.69-3.5,19.17,19.17,0,0,0,0-9.2,10.07,10.07,0,0,0-1.69-3.53,7.49,7.49,0,0,0-2.83-2.25,10.37,10.37,0,0,0-7.94,0,7.49,7.49,0,0,0-2.83,2.25,10.26,10.26,0,0,0-1.7,3.53,18.53,18.53,0,0,0,0,9.2,10,10,0,0,0,1.7,3.5,7.44,7.44,0,0,0,2.83,2.23A9.44,9.44,0,0,0,619.72,477.32Z"/><path d="M644.63,479.31a5.46,5.46,0,0,1-4-1.43,6,6,0,0,1-1.44-4.41V456.13h-3.65a.69.69,0,0,1-.46-.15.54.54,0,0,1-.18-.44v-.94l4.34-.3.61-9.08a.88.88,0,0,1,.2-.41.56.56,0,0,1,.44-.18h1.14v9.69h8v1.81h-8v17.21a5.33,5.33,0,0,0,.27,1.8,3.44,3.44,0,0,0,.74,1.24,3,3,0,0,0,1.11.71,3.88,3.88,0,0,0,1.38.23,4.18,4.18,0,0,0,1.58-.27,6.49,6.49,0,0,0,1.15-.58,7.71,7.71,0,0,0,.79-.59.84.84,0,0,1,.48-.27.56.56,0,0,1,.41.26l.66,1.07a7,7,0,0,1-2.46,1.72A7.73,7.73,0,0,1,644.63,479.31Z"/><path d="M669,478.9V453.53h1.35a.67.67,0,0,1,.74.64l.23,3.67a13.45,13.45,0,0,1,3.39-3.42,7.55,7.55,0,0,1,4.31-1.3,6.14,6.14,0,0,1,4.45,1.61,8.28,8.28,0,0,1,2.26,4.46,8.56,8.56,0,0,1,1.29-2.7,7.79,7.79,0,0,1,1.9-1.9,7.69,7.69,0,0,1,2.33-1.11,9.36,9.36,0,0,1,2.59-.36,8.68,8.68,0,0,1,3.39.63,6.61,6.61,0,0,1,2.55,1.85,8.49,8.49,0,0,1,1.61,3,13.69,13.69,0,0,1,.56,4.08V478.9h-2.43V462.69a8.74,8.74,0,0,0-1.6-5.68,5.61,5.61,0,0,0-4.59-1.95,6.83,6.83,0,0,0-2.54.48,6.2,6.2,0,0,0-2.14,1.45,6.78,6.78,0,0,0-1.48,2.38,9.13,9.13,0,0,0-.55,3.32V478.9h-2.45V462.69a9.42,9.42,0,0,0-1.46-5.67,5,5,0,0,0-4.3-2,6.57,6.57,0,0,0-3.82,1.22,11.64,11.64,0,0,0-3.14,3.4V478.9Z"/><path d="M709.35,457.13a14.75,14.75,0,0,1,4.18-3,11.7,11.7,0,0,1,5-1,9,9,0,0,1,3.57.65,6.5,6.5,0,0,1,2.53,1.86,8,8,0,0,1,1.52,2.93,13.52,13.52,0,0,1,.51,3.84V478.9h-1a.86.86,0,0,1-.94-.71l-.36-3.27a24.31,24.31,0,0,1-2.08,1.84,12.43,12.43,0,0,1-2.15,1.38,11.19,11.19,0,0,1-2.42.86,12.17,12.17,0,0,1-2.86.31,8.62,8.62,0,0,1-2.53-.38,6.5,6.5,0,0,1-2.17-1.17,5.85,5.85,0,0,1-1.54-2,7.09,7.09,0,0,1-.57-3,5.32,5.32,0,0,1,.92-3,7.55,7.55,0,0,1,2.88-2.39,18.88,18.88,0,0,1,5-1.63,43.65,43.65,0,0,1,7.38-.72v-2.65a8.51,8.51,0,0,0-1.52-5.42,5.4,5.4,0,0,0-4.5-1.9,8.5,8.5,0,0,0-3.12.51,10.78,10.78,0,0,0-2.18,1.12,14.3,14.3,0,0,0-1.46,1.12,1.49,1.49,0,0,1-.94.51.81.81,0,0,1-.46-.12,1.18,1.18,0,0,1-.3-.33Zm14.92,9.51a46.67,46.67,0,0,0-6.24.57,18.26,18.26,0,0,0-4.31,1.21,6.44,6.44,0,0,0-2.51,1.83,3.83,3.83,0,0,0-.81,2.41,5.3,5.3,0,0,0,.42,2.2,4.28,4.28,0,0,0,1.12,1.53,4.55,4.55,0,0,0,1.62.88,6.4,6.4,0,0,0,1.91.28,10.57,10.57,0,0,0,2.72-.32,10,10,0,0,0,2.29-.89,11.21,11.21,0,0,0,2-1.36c.61-.53,1.21-1.1,1.81-1.71Z"/><path d="M741.41,479.31a5.47,5.47,0,0,1-4-1.43,6,6,0,0,1-1.44-4.41V456.13H732.3a.69.69,0,0,1-.46-.15.54.54,0,0,1-.18-.44v-.94l4.34-.3.61-9.08a.81.81,0,0,1,.21-.41.52.52,0,0,1,.43-.18h1.15v9.69h13.74l.61-9.1a.89.89,0,0,1,.21-.41.52.52,0,0,1,.43-.18h1.15v9.69h8v1.81h-8v17.21a5.33,5.33,0,0,0,.27,1.8,3.29,3.29,0,0,0,.73,1.24,3,3,0,0,0,1.11.71,3.92,3.92,0,0,0,1.38.23,4.18,4.18,0,0,0,1.58-.27,6.16,6.16,0,0,0,1.15-.58,6.74,6.74,0,0,0,.79-.59.87.87,0,0,1,.48-.27.55.55,0,0,1,.41.26l.67,1.07a7.1,7.1,0,0,1-2.47,1.72,7.68,7.68,0,0,1-3.09.65,5.47,5.47,0,0,1-4-1.43,6,6,0,0,1-1.44-4.41V456.13H738.4v17.21a5.61,5.61,0,0,0,.26,1.8,3.44,3.44,0,0,0,.74,1.24,3,3,0,0,0,1.11.71,3.92,3.92,0,0,0,1.38.23,4.18,4.18,0,0,0,1.58-.27,6.49,6.49,0,0,0,1.15-.58,6.74,6.74,0,0,0,.79-.59.84.84,0,0,1,.48-.27.55.55,0,0,1,.41.26l.66,1.07a7,7,0,0,1-2.46,1.72A7.68,7.68,0,0,1,741.41,479.31Z"/><path d="M768.87,465.21v.48a17.33,17.33,0,0,0,.66,5,10.25,10.25,0,0,0,1.89,3.63,7.77,7.77,0,0,0,3,2.21,9.78,9.78,0,0,0,3.87.74,11.66,11.66,0,0,0,3.32-.42,12.42,12.42,0,0,0,2.36-.95,13.38,13.38,0,0,0,1.51-.94,1.76,1.76,0,0,1,.82-.42.58.58,0,0,1,.51.25l.66.82a7.19,7.19,0,0,1-1.62,1.43,11.45,11.45,0,0,1-2.24,1.13,15.38,15.38,0,0,1-2.65.75,14.42,14.42,0,0,1-2.85.28,12.13,12.13,0,0,1-4.74-.9,10,10,0,0,1-3.67-2.64,12,12,0,0,1-2.36-4.25,18.38,18.38,0,0,1-.83-5.75,15.65,15.65,0,0,1,.78-5,11.63,11.63,0,0,1,2.24-4,10.31,10.31,0,0,1,3.6-2.61,11.79,11.79,0,0,1,4.83-.95,10.63,10.63,0,0,1,4,.74,9.07,9.07,0,0,1,3.19,2.16,10.11,10.11,0,0,1,2.13,3.48,13.62,13.62,0,0,1,.77,4.74,1.42,1.42,0,0,1-.15.77.61.61,0,0,1-.51.2Zm16.93-1.56a10.88,10.88,0,0,0-.57-3.65,8,8,0,0,0-1.62-2.75,7.22,7.22,0,0,0-2.49-1.72,8.17,8.17,0,0,0-3.17-.6,9.69,9.69,0,0,0-3.52.61,7.71,7.71,0,0,0-2.69,1.76,8.87,8.87,0,0,0-1.83,2.76,13,13,0,0,0-.91,3.59Z"/><path d="M796.92,459.65a15.86,15.86,0,0,1,1.34-2.77,9,9,0,0,1,1.73-2.05,7.35,7.35,0,0,1,2.19-1.29,8,8,0,0,1,2.7-.44,8.05,8.05,0,0,1,1.55.14,4,4,0,0,1,1.35.49l-.2,1.69a.5.5,0,0,1-.49.41,3.81,3.81,0,0,1-.93-.18,6,6,0,0,0-1.64-.18,7.09,7.09,0,0,0-2.62.45,6.09,6.09,0,0,0-2,1.33,8.68,8.68,0,0,0-1.58,2.21,20.13,20.13,0,0,0-1.23,3V478.9H794.6V453.53h1.3a.84.84,0,0,1,.61.18,1,1,0,0,1,.23.61Z"/><path d="M815.58,462.84a38.59,38.59,0,0,0-1.54-11,40.55,40.55,0,0,0-4.6-10.11.78.78,0,0,1-.14-.7.81.81,0,0,1,.32-.4l1.07-.66a49.62,49.62,0,0,1,3.3,5.83,40.17,40.17,0,0,1,2.17,5.61,36.93,36.93,0,0,1,1.2,5.61,46.82,46.82,0,0,1,0,11.59,36.94,36.94,0,0,1-1.2,5.59,39.7,39.7,0,0,1-2.17,5.61,49.62,49.62,0,0,1-3.3,5.83l-1.07-.66a.81.81,0,0,1-.32-.4.78.78,0,0,1,.14-.7,40.55,40.55,0,0,0,4.6-10.11A38.48,38.48,0,0,0,815.58,462.84Z"/><g id="_011_draw" data-name="011_draw"><path d="M902.76,361.18a1.35,1.35,0,0,0-.56.72,60.51,60.51,0,0,0-4,15.54c-.34,2.6-.51,5.23-.62,7.86,0,1.34-.07,2.7,0,4a34,34,0,0,0,.19,4c0,.14,0,.29.07.41a1.52,1.52,0,0,0,1.53,1.14,1.6,1.6,0,0,0,1.11-.45c.09-.1.16-.22.25-.31a1.53,1.53,0,0,0,.21-.79,50.39,50.39,0,0,0,.18-5.21c0-1.76.05-3.51.1-5.25a98.35,98.35,0,0,1,.76-10.17,44.41,44.41,0,0,1,2.64-10.22,1.16,1.16,0,0,0-.14-.91,1.33,1.33,0,0,0-.72-.55,1.46,1.46,0,0,0-.3,0,1.26,1.26,0,0,0-.62.14Z" style="fill:#161616"/><path d="M883.63,383.15a11,11,0,0,0-4.51,2.6,12,12,0,0,0-1.69,2.08,11.68,11.68,0,0,0-1.2,2.46,8.72,8.72,0,0,0-.58,2.27,13.34,13.34,0,0,0-.14,2.89,13.57,13.57,0,0,0,1.8,5.78,15.1,15.1,0,0,0,2,2.65,18.16,18.16,0,0,0,2.78,2.39,22.15,22.15,0,0,0,6.06,2.86,2.09,2.09,0,0,0,2.53-1.41,2,2,0,0,0-.21-1.53l-.33-.4a1.83,1.83,0,0,0-.9-.5,4.48,4.48,0,0,0-.44-.19,24.27,24.27,0,0,1-4.68-2.58,15.63,15.63,0,0,1-2.33-2.27,13.83,13.83,0,0,1-1.35-2.25,12,12,0,0,1-.67-2.36,14.43,14.43,0,0,1,0-2.46,12.15,12.15,0,0,1,.65-2.34,11.37,11.37,0,0,1,1.18-2,9.69,9.69,0,0,1,1.32-1.32,8.86,8.86,0,0,1,1.44-.81,9.34,9.34,0,0,1,1.57-.43,7.79,7.79,0,0,1,1.74,0,10.65,10.65,0,0,1,2.15.57,14.45,14.45,0,0,1,2.59,1.5,22.34,22.34,0,0,1,3.5,3.51c.58.74,1.11,1.51,1.6,2.27a1.65,1.65,0,0,0,2.17.58,1.57,1.57,0,0,0,.58-2.15,28.28,28.28,0,0,0-5.49-6.43,14.75,14.75,0,0,0-5.71-3.08,11.23,11.23,0,0,0-2.64-.33,10.24,10.24,0,0,0-2.81.38Z" style="fill:#161616"/><path d="M924.66,365.24a.75.75,0,0,1,.21,0,.75.75,0,0,0-.21,0Zm22.8-8.36a2,2,0,0,0-1.13.86,1.85,1.85,0,0,0,.67,2.53c2.85,1.77,5.63,3.63,8.29,5.61,2.06,1.58,4.07,3.23,6,4.92l-2.24-.71c-3.87-1.27-7.76-2.49-11.67-3.61a145.42,145.42,0,0,0-24.24-5.06,78.84,78.84,0,0,0-18.55,0l-.48.07a1.71,1.71,0,0,0-.81.45,1.76,1.76,0,0,0-.54,1.27,1.72,1.72,0,0,0,.54,1.26,1.8,1.8,0,0,0,1.29.53,78.88,78.88,0,0,1,19.84.21,148.41,148.41,0,0,1,22.88,5.16c3.73,1.13,7.45,2.34,11.16,3.59s7.2,2.46,10.81,3.72a2,2,0,0,0,2-3.39c-3.33-3.18-6.83-6.26-10.44-9.15a76.57,76.57,0,0,0-12-8.07,2,2,0,0,0-1-.24,1.67,1.67,0,0,0-.49.05" style="fill:#161616"/><path d="M951.47,342.55a2,2,0,0,0,.21,1.56,2.31,2.31,0,0,0,1.22.93c2.25.83,4.52,1.6,6.79,2.41s4.44,1.65,6.64,2.53,4.15,1.81,6.18,2.82c-2.66-.29-5.34-.53-8-.6a44.33,44.33,0,0,0-8.77.55,29.9,29.9,0,0,0-8.52,2.79,1.63,1.63,0,0,0,.39,3,1.73,1.73,0,0,0,1.3-.17c.49-.24,1-.48,1.5-.69a30,30,0,0,1,6.83-1.77,58.35,58.35,0,0,1,14.22.38c1.6.22,3.17.46,4.77.7s3.19.47,4.79.74a2.23,2.23,0,0,0,1.09,0,2,2,0,0,0,1.23-.91,2,2,0,0,0,.27-1,1.92,1.92,0,0,0-.6-1.41,46.74,46.74,0,0,0-6.55-4.25c-2.32-1.29-4.75-2.42-7.18-3.47s-5.16-2.12-7.8-3.05c-2.45-.91-5-1.75-7.48-2.46a1.32,1.32,0,0,0-.53-.1,2.12,2.12,0,0,0-2,1.48Z" style="fill:#161616"/><path d="M968.28,314.61c-.74.34-1.46.74-2.18,1.13L963.79,317c-1.53.79-3,1.56-4.59,2.3-2.75,1.33-5.55,2.6-8.4,3.77a176.19,176.19,0,0,1-19.47,6.59c-6.74,1.89-13.55,3.49-20.38,5.06l-8.45,2c-3,.74-6.06,1.49-9.07,2.37a2.11,2.11,0,0,0-1.51,2.58,2,2,0,0,0,1,1.24l.51.21a2.17,2.17,0,0,0,1.13,0c3.85-.64,7.67-1.41,11.49-2.19,3.56-.74,7.13-1.53,10.69-2.34,6.74-1.58,13.45-3.32,20-5.45a177.23,177.23,0,0,0,16.64-6.3c2.78-1.22,5.54-2.51,8.25-3.87,1.45-.74,2.89-1.48,4.32-2.27l.72-.38a33.71,33.71,0,0,1-1.66,5.13,37.38,37.38,0,0,1-4.57,7.62,33.17,33.17,0,0,1-5.6,5.57,28,28,0,0,1-2.94,1.91,1.65,1.65,0,0,0-.6,2.26,1.74,1.74,0,0,0,2.32.6,34.64,34.64,0,0,0,11.83-11.44,40.15,40.15,0,0,0,3.86-7.52,28.3,28.3,0,0,0,1.21-3.68c.32-1.24.55-2.53.76-3.79a2.19,2.19,0,0,0,0-1.08,2.37,2.37,0,0,0-.53-.91,2.27,2.27,0,0,0-.93-.5,1.79,1.79,0,0,0-.51-.07,2.47,2.47,0,0,0-1.06.26Z" style="fill:#161616"/><path d="M886.2,341.17a41.06,41.06,0,0,0-9.19,1.41,24,24,0,0,0-3.65,1.38,17.07,17.07,0,0,0-2.74,1.63,14.4,14.4,0,0,0-2.4,2.14,15.7,15.7,0,0,0-1.79,2.51,16.17,16.17,0,0,0-1.18,2.82,18.5,18.5,0,0,0-.62,3.1,24.2,24.2,0,0,0,.23,6.36,46,46,0,0,0,1.53,6.44c.69,2.3,1.5,4.54,2.4,6.76a51,51,0,0,0,3.5,7.07c.44.76.93,1.51,1.46,2.25l.35.43a2.15,2.15,0,0,0,1,.57,2.29,2.29,0,0,0,1.74-.22,2.18,2.18,0,0,0,1-1.33l.07-.58a2.14,2.14,0,0,0-.3-1.12c-.51-1.12-1.07-2.22-1.65-3.32l-1.73-3.29c-1.09-2.06-2.15-4.14-3.1-6.26a36.44,36.44,0,0,1-2.55-8.79,20.8,20.8,0,0,1-.07-5.23,14.12,14.12,0,0,1,.88-3.22,13.39,13.39,0,0,1,1.34-2.27,13.16,13.16,0,0,1,2-1.91,17.88,17.88,0,0,1,3.36-1.89,31.21,31.21,0,0,1,6.69-1.67c1.13-.14,2.29-.24,3.42-.29a1.8,1.8,0,0,0,1.28-.52,1.73,1.73,0,0,0,.51-1.22,1.78,1.78,0,0,0-1.69-1.74Z" style="fill:#161616"/><path d="M948.48,369.42a1.63,1.63,0,0,0-1.16,2,44.81,44.81,0,0,1,1.09,5.37,86.56,86.56,0,0,1,.63,10.3c0,1.81-.07,3.62-.14,5.44s-.21,3.61-.19,5.42a2.27,2.27,0,0,0,2.27,2.2,2.38,2.38,0,0,0,1.6-.65,2.29,2.29,0,0,0,.65-1.55c.07-1.07.07-2.12,0-3.2s0-2.29,0-3.46c-.07-2.29-.14-4.61-.33-6.93s-.44-4.73-.83-7.09a57.76,57.76,0,0,0-1.57-6.71,1.69,1.69,0,0,0-1.6-1.17,2,2,0,0,0-.42.05Z" style="fill:#161616"/><path d="M950.52,400.41a1.48,1.48,0,0,0-.42,1,17.5,17.5,0,0,0,2,7.07,12.38,12.38,0,0,0,2.29,3,9.81,9.81,0,0,0,1.55,1.22,8.45,8.45,0,0,0,1.95,1,1.61,1.61,0,0,0,.87,0,1.64,1.64,0,0,0,1-.74,1.42,1.42,0,0,0,.23-.81,1.46,1.46,0,0,0-.49-1.12c-.78-.65-1.59-1.27-2.36-1.94a16.49,16.49,0,0,1-1.9-1.93,14.46,14.46,0,0,1-1.5-2.55,11.86,11.86,0,0,1-.74-2.7c0-.15,0-.31,0-.46a1.58,1.58,0,0,0-.42-1,1.38,1.38,0,0,0-1-.4,1.51,1.51,0,0,0-1,.4Z" style="fill:#161616"/><path d="M957.86,412.31c-2.27,1.07-4.49,2.19-6.72,3.34a1.86,1.86,0,0,0-.69,2.56,2,2,0,0,0,2.62.66,70.61,70.61,0,0,1,6.57-3.55,1.76,1.76,0,0,0,.83-1,1.73,1.73,0,0,0-1.25-2.15,1.44,1.44,0,0,0-.44-.07,2,2,0,0,0-.92.24Z" style="fill:#161616"/><path d="M950,419a101.06,101.06,0,0,1-1,13.66.24.24,0,0,1,0,.14c-.11,1.17-.3,2.34-.51,3.51,0,0,0,.05,0,.07a2.55,2.55,0,0,0,0,.41,34.36,34.36,0,0,0-.53,4.63,2,2,0,0,0,1.51,1.94,2.2,2.2,0,0,0,1.59-.19,2.06,2.06,0,0,0,1-1.22,15.79,15.79,0,0,0,.63-2.72c.16-1.05.3-2.08.39-3.13.19-1.87.28-3.73.3-5.59.09-3.85.05-7.67,0-11.51a1.6,1.6,0,0,0-3.19,0Z" style="fill:#161616"/><path d="M896.55,425.51a2,2,0,0,0-.62,1.48,27.71,27.71,0,0,0,.85,4.52,29,29,0,0,0,1.6,4,19,19,0,0,0,1.88,3,21,21,0,0,0,2.61,3,27,27,0,0,0,13.22,6.3,56.65,56.65,0,0,0,15.49.67A104.55,104.55,0,0,0,947,446c.56-.12,1.14-.26,1.69-.4a1.73,1.73,0,0,0,1.23-2.1,1.81,1.81,0,0,0-2.16-1.2,96.29,96.29,0,0,1-10.11,1.91,66.13,66.13,0,0,1-16.09.27,37.21,37.21,0,0,1-8.31-2.15,25.7,25.7,0,0,1-5-2.87,22.5,22.5,0,0,1-3.73-3.63,24.14,24.14,0,0,1-2.82-4.77,38.29,38.29,0,0,1-1.53-4.57,2.14,2.14,0,0,0-2.06-1.52,2.2,2.2,0,0,0-1.51.59Z" style="fill:#161616"/><path d="M888.13,409.73c.11,3.7.18,7.42.39,11.13s.53,7.52.79,11.29.44,7.38.53,11.08c0,1.86,0,3.73,0,5.59s-.16,3.92-.11,5.87a2.4,2.4,0,0,0,4.09,1.68c.14-.17.26-.34.4-.48a2.42,2.42,0,0,0,.32-1.2,42.08,42.08,0,0,0,.19-5.61c0-1.86-.1-3.72-.21-5.59-.21-3.79-.56-7.57-.95-11.34s-.83-7.35-1.25-11.06-.9-7.54-1.09-11.36a1.54,1.54,0,0,0-1.55-1.53,1.56,1.56,0,0,0-1.57,1.53Z" style="fill:#161616"/><path d="M912.27,445.67a2,2,0,0,0-.55,1.26c-.26,2.82-.44,5.64-.51,8.46a70.33,70.33,0,0,0,.11,8.71l.07.53a2.07,2.07,0,0,0,.54.91,2.11,2.11,0,0,0,1.48.59,2.07,2.07,0,0,0,2.08-2c-.07-1.38-.18-2.74-.25-4.1s-.17-2.92-.19-4.37a84.36,84.36,0,0,1,.35-8.7,1.75,1.75,0,0,0-.56-1.26,1.82,1.82,0,0,0-2.57,0Z" style="fill:#161616"/><path d="M887.71,452.81a1.67,1.67,0,0,0-.79,1,1.72,1.72,0,0,0,.16,1.29c.1.1.19.22.28.33a1.7,1.7,0,0,0,.74.41c.33.14.67.29,1,.41h0a90.25,90.25,0,0,1,19.7,10.69c1.32,1,2.59,2.08,3.8,3.18.65.6,1.27,1.19,1.87,1.79s1.21,1.24,1.83,1.82a1.91,1.91,0,0,0,2.29.28,1.83,1.83,0,0,0,.68-2.5,21.14,21.14,0,0,0-3.06-3.42c-1-1-2.15-1.91-3.29-2.79a66.25,66.25,0,0,0-7.66-5.11A124.22,124.22,0,0,0,889,452.64a1.16,1.16,0,0,0-.42-.07,2.09,2.09,0,0,0-.88.24Z" style="fill:#161616"/><path d="M888,458.94a1.34,1.34,0,0,0-.39,1,1.44,1.44,0,0,0,.39,1c.47.5.91,1,1.35,1.55a32.81,32.81,0,0,1,4,6.87,39.83,39.83,0,0,1,2.64,9.89c.11.84.21,1.7.3,2.53a21.26,21.26,0,0,0,.39,3,1.61,1.61,0,0,0,1.55,1.17,1.52,1.52,0,0,0,.81-.22,1.56,1.56,0,0,0,.74-.95,8.24,8.24,0,0,0,.14-1.91c0-.58-.07-1.15-.11-1.7-.12-1.24-.33-2.46-.56-3.65a40.23,40.23,0,0,0-2-6.59,40.66,40.66,0,0,0-3.12-6.31,35.29,35.29,0,0,0-4.26-5.59,1.29,1.29,0,0,0-1-.4,1.42,1.42,0,0,0-1,.4Z" style="fill:#161616"/><path d="M916.3,473.73a23.07,23.07,0,0,0-19.38,10.69,1.82,1.82,0,0,0,.65,2.49,1.89,1.89,0,0,0,2.53-.65c.32-.47.64-.95,1-1.38a19.88,19.88,0,0,1,3.43-3.37,21.48,21.48,0,0,1,4.14-2.36,22.13,22.13,0,0,1,4.79-1.27,22.71,22.71,0,0,1,2.85-.17,2,2,0,1,0,0-4Z" style="fill:#161616"/><path d="M885.88,455.89c-1.85,1.24-3.73,2.43-5.58,3.7s-3.93,2.75-5.83,4.23-3.43,2.84-5,4.37a36.22,36.22,0,0,0-4.72,5.47,2.15,2.15,0,0,0,.35,2.62,2.28,2.28,0,0,0,3.12,0c1.14-1.24,2.25-2.51,3.43-3.72s2.36-2.39,3.59-3.51q3.78-3.45,7.85-6.52c.34-.27.67-.53,1-.77-.13.1-.27.19-.41.31,1.36-1,2.73-2,4.14-3a2,2,0,0,0,.88-1.12,1.83,1.83,0,0,0-.18-1.43,2,2,0,0,0-1.16-.86,1.7,1.7,0,0,0-.51-.07,1.76,1.76,0,0,0-1,.26Z" style="fill:#161616"/><path d="M865.37,475c-1.09,3.56-2,7.17-2.87,10.8s-1.48,7.45-2,11.2c-1.11,7.81-1.71,15.66-2,23.52q-.31,9-.11,17.93c.07,2.89.18,5.78.41,8.65.14,1.62.35,3.22.58,4.8.12.74.23,1.45.37,2.17l.21,1.07a10.71,10.71,0,0,1,.26,1,2.64,2.64,0,0,0,.64,1.1,2.6,2.6,0,0,0,1.79.72,2.49,2.49,0,0,0,2.5-2.46c0-.43,0-.88,0-1.31s0-.89,0-1.32c0-1,0-1.93-.1-2.89-.09-1.88-.23-3.77-.39-5.63-.32-3.85-.69-7.67-.95-11.51a225.12,225.12,0,0,1-.46-23.38c.21-5.45.67-10.87,1.39-16.29a121,121,0,0,1,3.63-17.43,1.5,1.5,0,0,0-1-1.81,2,2,0,0,0-.39-.05,1.53,1.53,0,0,0-1.46,1.07Z" style="fill:#161616"/><path d="M889.65,508.21c-.18,3.7-.44,7.38-.69,11.06s-.35,7.28-.42,10.91c0,1.77-.07,3.53-.09,5.32s0,3.73,0,5.59.12,3.56.23,5.35c.07.93.17,1.89.28,2.82a25.83,25.83,0,0,0,.51,3.15,2.24,2.24,0,0,0,2.18,1.65,2.27,2.27,0,0,0,2.27-2.22,53.8,53.8,0,0,0-.37-5.4c-.19-1.79-.37-3.58-.54-5.35s-.34-3.56-.48-5.35-.26-3.7-.33-5.56c-.16-3.63-.2-7.28-.25-10.91s0-7.38.16-11.06A1.22,1.22,0,0,0,890.9,507a1.25,1.25,0,0,0-1.25,1.19Z" style="fill:#161616"/><path d="M914.91,470a1.27,1.27,0,0,0-.6.79,1.24,1.24,0,0,0,.12,1c1.59,2,3.17,4,4.67,6.06s2.94,4.16,4.38,6.26a1.57,1.57,0,0,0,1,.71,1.66,1.66,0,0,0,1.27-.14,1.76,1.76,0,0,0,.75-.95,1.49,1.49,0,0,0-.17-1.25c-1.55-2.07-3.19-4.08-4.81-6.11s-3.29-4.13-4.93-6.21a1.4,1.4,0,0,0-.58-.33,1.64,1.64,0,0,0-.37-.05,1.47,1.47,0,0,0-.7.19Z" style="fill:#161616"/><path d="M925,484.19a1.56,1.56,0,0,0-.76.95,232.63,232.63,0,0,0-2.83,24c-.27,4.08-.41,8.14-.48,12.22,0,2-.12,4.06-.14,6.12s0,4.06,0,6.09c.05,3.55.16,7.09.44,10.62.16,1.94.39,3.87.65,5.81.11.86.28,1.69.44,2.55.09.45.18.91.3,1.36s.3.89.44,1.34a2.53,2.53,0,0,0,4.19,1.07,2.45,2.45,0,0,0,.74-1.71c0-.48.09-.94.09-1.41s0-.94,0-1.41c0-1-.11-2.06-.18-3.06-.16-2-.37-4-.58-6-.42-4-.88-8.07-1.21-12.11-.18-2-.34-4.08-.48-6.11s-.21-4.08-.23-6.11c-.07-4.06-.07-8.15.07-12.21a159.21,159.21,0,0,1,1.36-16.59c.16-1.22.35-2.41.56-3.61a1.78,1.78,0,0,0-.16-1.24,1.7,1.7,0,0,0-1-.74,2.2,2.2,0,0,0-.44,0,1.54,1.54,0,0,0-.81.22Z" style="fill:#161616"/><path d="M948.53,435.54l.67.12a2.63,2.63,0,0,0,.49,0,1.94,1.94,0,0,0,1-.24,1.85,1.85,0,0,0-.46-3.39c-.4-.07-.79-.14-1.19-.24-.09,1.24-.27,2.48-.48,3.7Z" style="fill:#161616"/><path d="M930.91,368.27a7.81,7.81,0,0,0-2.11.48,10.56,10.56,0,0,0-2,1.05,13.26,13.26,0,0,0-1.79,1.46,14.63,14.63,0,0,0-2.68,3.65,1.39,1.39,0,0,0-.12,1,1.27,1.27,0,0,0,.58.76,1.32,1.32,0,0,0,1.78-.45,13.64,13.64,0,0,1,1.18-1.87,12.31,12.31,0,0,1,1.74-1.72,9.79,9.79,0,0,1,1.69-1,6.58,6.58,0,0,1,1.3-.35,5.45,5.45,0,0,1,1,0,5.16,5.16,0,0,1,.84.21,5.48,5.48,0,0,1,2,1.63,1.54,1.54,0,0,0,1.88.23,1.51,1.51,0,0,0,.69-.88,1.38,1.38,0,0,0-.16-1.17,7.17,7.17,0,0,0-.74-.95,5.64,5.64,0,0,0-1-.89,6.37,6.37,0,0,0-2-1,11.17,11.17,0,0,0-1.18-.19l-.42,0-.51,0Z" style="fill:#161616"/><path d="M931.79,385.44a15.23,15.23,0,0,0-2.92.65,17.44,17.44,0,0,0-5,2.58,19.27,19.27,0,0,0-2.22,1.91,18.8,18.8,0,0,0-1.83,2.19,1.42,1.42,0,0,0-.14,1.15,1.51,1.51,0,0,0,1.85,1,1.55,1.55,0,0,0,.9-.67,4.46,4.46,0,0,1,.33-.43,14.64,14.64,0,0,1,2.38-2.34,16.76,16.76,0,0,1,3.15-1.77,14.48,14.48,0,0,1,3.29-.91,14,14,0,0,1,2.75,0,12.42,12.42,0,0,1,2.76.77l1.11.45a1.59,1.59,0,0,0,.81,0,1.5,1.5,0,0,0,.67-2.51,7.56,7.56,0,0,0-1.2-.88,10.75,10.75,0,0,0-1.37-.65,10,10,0,0,0-2.87-.62,7.71,7.71,0,0,0-.95,0,11.32,11.32,0,0,0-1.55.09Z" style="fill:#161616"/><path d="M934.82,388a1.42,1.42,0,0,0-.62.79,37.44,37.44,0,0,0-.6,4,8.35,8.35,0,0,0,.57,3.77,1.32,1.32,0,0,0,.42.67,1.5,1.5,0,0,0,.7.41,1.67,1.67,0,0,0,.83,0,1.7,1.7,0,0,0,1-.72,6.49,6.49,0,0,0,1.06-2.89,25.65,25.65,0,0,0,.24-3.25,1.52,1.52,0,0,0-1.14-1.45.92.92,0,0,0-.44-.05,1.15,1.15,0,0,0-.16-.76,1.34,1.34,0,0,0-.79-.6.83.83,0,0,0-.35-.05,1.34,1.34,0,0,0-.67.17Z" style="fill:#161616"/><path d="M934,388.07a1.53,1.53,0,0,0-.42,1,27.46,27.46,0,0,0-.07,3.27,19.05,19.05,0,0,0,.42,3.37,1.51,1.51,0,0,0,1.46,1.07,1.45,1.45,0,0,0,1.06-.43,1.35,1.35,0,0,0,.44-1c-.09-.57-.16-1.15-.25-1.72a24.57,24.57,0,0,1-.14-4.54,1.24,1.24,0,0,0-.42-1,1.53,1.53,0,0,0-1-.43,1.55,1.55,0,0,0-1,.43Z" style="fill:#161616"/><path d="M946.38,428.31a9.37,9.37,0,0,0-3,.9,11.35,11.35,0,0,0-1.27.86,6.34,6.34,0,0,0-1,1,7.69,7.69,0,0,0-1.6,2.94,1.5,1.5,0,0,0,.14,1.19l.25.29a1.48,1.48,0,0,0,.7.4,6.51,6.51,0,0,0,2.75.41,18.48,18.48,0,0,0,2.78-.43,1.23,1.23,0,0,0,.93-1.17,1.27,1.27,0,0,0-1.25-1.24c-.88,0-1.76.07-2.67,0,.1-.17.21-.31.31-.45a5.39,5.39,0,0,1,.94-.91,7.43,7.43,0,0,1,1.16-.67,7.07,7.07,0,0,1,1.55-.4,9.93,9.93,0,0,1,2,0,0,0,0,0,0,0,0,1.83,1.83,0,0,1,.4,0,1.63,1.63,0,0,0,.74-.19,1.45,1.45,0,0,0,.65-.86,1.34,1.34,0,0,0-.14-1.1,1.43,1.43,0,0,0-.86-.65c-.58-.07-1.16-.14-1.74-.16l-.27,0a9.7,9.7,0,0,0-1.55.15Z" style="fill:#161616"/><path d="M891.62,80.42a.43.43,0,0,0-.25.29,25.25,25.25,0,0,0-1.68,6.44c-.13,1.06-.19,2.15-.25,3.24,0,.58,0,1.12,0,1.67a15.93,15.93,0,0,0,.08,1.69.38.38,0,0,1,0,.18.51.51,0,0,0,.16.25.63.63,0,0,0,.48.2.51.51,0,0,0,.44-.2.44.44,0,0,0,.12-.11.76.76,0,0,0,.08-.32,19.86,19.86,0,0,0,.08-2.18c0-.72,0-1.44,0-2.15.06-1.41.14-2.82.33-4.23A17.25,17.25,0,0,1,892.34,81a.4.4,0,0,0-.06-.37.38.38,0,0,0-.3-.23.17.17,0,0,0-.11,0,.39.39,0,0,0-.25.08Z" style="fill:#161616"/><path d="M883.68,89.5a4.71,4.71,0,0,0-1.87,1.09,4,4,0,0,0-.69.86,4.13,4.13,0,0,0-.5,1,5.6,5.6,0,0,0-.26,1,5.8,5.8,0,0,0-.05,1.18,6,6,0,0,0,.75,2.41,7.52,7.52,0,0,0,.84,1.09,6.54,6.54,0,0,0,1.17,1,8.75,8.75,0,0,0,2.5,1.2.86.86,0,0,0,1-.57.89.89,0,0,0-.08-.66.64.64,0,0,0-.14-.15.83.83,0,0,0-.36-.23,1.09,1.09,0,0,1-.17,0,8.47,8.47,0,0,1-2-1.09,4.38,4.38,0,0,1-1.53-1.87,4.08,4.08,0,0,1-.28-1,5.57,5.57,0,0,1,0-1,4.08,4.08,0,0,1,.28-1,4,4,0,0,1,.47-.81,3.54,3.54,0,0,1,.56-.54A3.65,3.65,0,0,1,884,91a3.21,3.21,0,0,1,.66-.17,3,3,0,0,1,.73,0,5.48,5.48,0,0,1,.86.23,5.62,5.62,0,0,1,1.09.63,8.77,8.77,0,0,1,1.45,1.47,10.22,10.22,0,0,1,.66.92.65.65,0,0,0,.9.23.63.63,0,0,0,.25-.86,11.5,11.5,0,0,0-2.29-2.68,5.73,5.73,0,0,0-2.37-1.26,3.64,3.64,0,0,0-1.08-.14,5.84,5.84,0,0,0-1.17.14Z" style="fill:#161616"/><path d="M900.67,82.09h0Zm9.44-3.45a.62.62,0,0,0-.45.35.78.78,0,0,0,.28,1.06c1.17.72,2.31,1.49,3.43,2.3.86.66,1.67,1.35,2.5,2-.3-.09-.61-.2-.94-.29-1.59-.52-3.21-1-4.82-1.49a59.14,59.14,0,0,0-10.06-2.1,32.34,32.34,0,0,0-7.68,0,.54.54,0,0,0-.2,0,.87.87,0,0,0-.33.17.8.8,0,0,0-.22.55.76.76,0,0,0,.22.51.74.74,0,0,0,.53.2,35,35,0,0,1,8.24.09,63.56,63.56,0,0,1,9.47,2.16c1.53.46,3.09,1,4.62,1.49s3,1,4.46,1.52a.64.64,0,0,0,.47,0,.94.94,0,0,0,.5-.37.87.87,0,0,0-.13-1c-1.4-1.29-2.82-2.58-4.32-3.76a31.55,31.55,0,0,0-5-3.36.83.83,0,0,0-.39-.09.56.56,0,0,0-.22,0" style="fill:#161616"/><path d="M911.78,72.7a.81.81,0,0,0,.08.63,1,1,0,0,0,.5.4l2.82,1c.92.34,1.84.69,2.75,1.06s1.73.75,2.57,1.18a30.92,30.92,0,0,0-3.32-.26,19.36,19.36,0,0,0-3.65.23,12.1,12.1,0,0,0-3.5,1.15.64.64,0,0,0-.26.92.57.57,0,0,0,.39.31.77.77,0,0,0,.56,0,4.78,4.78,0,0,1,.61-.29,11.79,11.79,0,0,1,2.84-.75,24.13,24.13,0,0,1,5.88.17c.67.09,1.31.18,2,.29s1.34.2,2,.32a1.09,1.09,0,0,0,.44,0,.84.84,0,0,0,.53-.41.85.85,0,0,0,.11-.4.71.71,0,0,0-.25-.57,16.25,16.25,0,0,0-2.73-1.75c-1-.55-2-1-3-1.47s-2.14-.86-3.23-1.26-2.06-.72-3.09-1a.67.67,0,0,0-.22,0,.85.85,0,0,0-.84.61Z" style="fill:#161616"/><path d="M918.74,61.12c-.3.14-.61.32-.89.46l-1,.52L915,63c-1.14.55-2.31,1.07-3.48,1.55a62.91,62.91,0,0,1-8.08,2.73c-2.78.78-5.59,1.47-8.41,2.1-1.17.29-2.34.55-3.51.83s-2.53.61-3.75,1a.88.88,0,0,0-.65,1.06,1,1,0,0,0,.42.52l.23.09a.75.75,0,0,0,.47,0c1.59-.26,3.17-.58,4.73-.92s3-.61,4.43-1c2.81-.66,5.6-1.38,8.33-2.27,2.34-.75,4.62-1.64,6.88-2.61,1.14-.49,2.28-1,3.39-1.61.62-.29,1.2-.61,1.82-.92l.27-.17a14.83,14.83,0,0,1-.66,2.12,16.07,16.07,0,0,1-1.9,3.16A13.58,13.58,0,0,1,913.2,71a10.78,10.78,0,0,1-1.23.8.69.69,0,1,0,.7,1.18,14,14,0,0,0,4.9-4.74,16.32,16.32,0,0,0,1.62-3.1,15.89,15.89,0,0,0,.5-1.52c.14-.52.22-1,.31-1.58a1.55,1.55,0,0,0,0-.43.9.9,0,0,0-.23-.38.94.94,0,0,0-.39-.23.42.42,0,0,0-.19,0,1.11,1.11,0,0,0-.45.12Z" style="fill:#161616"/><path d="M884.77,72.12a16.88,16.88,0,0,0-3.82.58,9.39,9.39,0,0,0-1.53.57,7.48,7.48,0,0,0-1.12.69,6.44,6.44,0,0,0-1,.89,7,7,0,0,0-.75,1,5.29,5.29,0,0,0-.47,1.18,6,6,0,0,0-.25,1.27,9,9,0,0,0,.08,2.64,18.48,18.48,0,0,0,.64,2.67,25.78,25.78,0,0,0,1,2.79A21.35,21.35,0,0,0,879,89.36c.2.31.39.63.62.92a.41.41,0,0,1,.13.2,1.75,1.75,0,0,0,.42.23,1.09,1.09,0,0,0,.73-.09.84.84,0,0,0,.41-.54c0-.09,0-.18.06-.26a.89.89,0,0,0-.14-.46c-.19-.46-.45-.92-.67-1.38s-.5-.92-.72-1.35c-.45-.86-.89-1.72-1.28-2.59a14.14,14.14,0,0,1-1.06-3.65,8.37,8.37,0,0,1,0-2.18,6,6,0,0,1,.36-1.32,4.32,4.32,0,0,1,.56-1,5.38,5.38,0,0,1,.81-.77,6.34,6.34,0,0,1,1.39-.78,11.94,11.94,0,0,1,2.76-.72c.47,0,.94-.08,1.45-.11a.68.68,0,0,0,.5-.2.74.74,0,0,0,.22-.52.73.73,0,0,0-.7-.72Z" style="fill:#161616"/><path d="M910.53,83.81a.74.74,0,0,0-.48.84,11.71,11.71,0,0,1,.45,2.21,32.27,32.27,0,0,1,.28,4.28c0,.74,0,1.49-.06,2.24s-.08,1.49-.08,2.24a.94.94,0,0,0,1.59.66.89.89,0,0,0,.27-.66c0-.43,0-.86,0-1.32s0-1,0-1.44c0-1,0-1.89-.14-2.84a24.14,24.14,0,0,0-.33-3,23.61,23.61,0,0,0-.67-2.76.66.66,0,0,0-.64-.49Z" style="fill:#161616"/><path d="M911.39,96.65a.49.49,0,0,0-.17.41,7.24,7.24,0,0,0,.84,2.93,4,4,0,0,0,.94,1.23,5.49,5.49,0,0,0,.65.52,4,4,0,0,0,.8.4.65.65,0,0,0,.76-.32.44.44,0,0,0,.11-.31.67.67,0,0,0-.23-.49c-.3-.26-.64-.52-1-.8a5,5,0,0,1-.78-.81,4.44,4.44,0,0,1-.61-1,4.37,4.37,0,0,1-.31-1.12.49.49,0,0,1,0-.2.77.77,0,0,0-.16-.41.64.64,0,0,0-.42-.17.57.57,0,0,0-.42.17Z" style="fill:#161616"/><path d="M914.43,101.59c-.95.44-1.87.9-2.79,1.38a.73.73,0,0,0-.28,1,.81.81,0,0,0,1.09.29,21.63,21.63,0,0,1,2.73-1.47.75.75,0,0,0,.33-.43.63.63,0,0,0-.08-.55.72.72,0,0,0-.45-.34l-.16,0a1,1,0,0,0-.39.11Z" style="fill:#161616"/><path d="M911.17,104.35a42.16,42.16,0,0,1-.42,5.63c-.08.58-.2,1.15-.28,1.73a15,15,0,0,0-.19,1.92.8.8,0,0,0,.61.81,1,1,0,0,0,.67-.09,1,1,0,0,0,.39-.49,9.06,9.06,0,0,0,.25-1.15c.08-.43.11-.86.16-1.29.09-.78.12-1.55.14-2.33,0-1.58,0-3.16,0-4.74a.67.67,0,0,0-.66-.66.66.66,0,0,0-.67.66Z" style="fill:#161616"/><path d="M889,107.05a.85.85,0,0,0-.25.61,9.71,9.71,0,0,0,.36,1.86,8.83,8.83,0,0,0,.67,1.67,6.23,6.23,0,0,0,.78,1.26,8,8,0,0,0,1,1.21,11.18,11.18,0,0,0,5.49,2.61,22.59,22.59,0,0,0,6.41.29,42.91,42.91,0,0,0,6.37-1l.73-.18a.74.74,0,0,0,.5-.86.73.73,0,0,0-.89-.51,42.79,42.79,0,0,1-4.21.8,26,26,0,0,1-6.65.09A13.13,13.13,0,0,1,896,114a10.5,10.5,0,0,1-2.12-1.18,9.86,9.86,0,0,1-1.53-1.5,10.51,10.51,0,0,1-1.17-2,19.94,19.94,0,0,1-.64-1.89.84.84,0,0,0-.83-.64.87.87,0,0,0-.64.26Z" style="fill:#161616"/><path d="M885.55,100.5c.05,1.55.08,3.08.16,4.63s.22,3.1.31,4.68.19,3,.25,4.57v2.33c0,.8-.06,1.6-.06,2.44a1,1,0,0,0,1,1,1,1,0,0,0,.69-.28,1.29,1.29,0,0,1,.17-.21,1,1,0,0,0,.14-.48,16.48,16.48,0,0,0,0-2.33c0-.78,0-1.55,0-2.33-.11-1.55-.25-3.13-.42-4.68s-.33-3.07-.5-4.6-.39-3.13-.45-4.71a.67.67,0,0,0-.66-.63.65.65,0,0,0-.64.63Z" style="fill:#161616"/><path d="M895.54,115.38a.94.94,0,0,0-.22.55c-.11,1.15-.19,2.33-.22,3.5a30.78,30.78,0,0,0,0,3.59c0,.09,0,.15,0,.23a1.11,1.11,0,0,0,.22.38,1,1,0,0,0,.62.26.88.88,0,0,0,.86-.87c0-.57-.08-1.12-.11-1.69s-.06-1.21-.06-1.81c0-1.21,0-2.41.11-3.59a.7.7,0,0,0-.22-.55.88.88,0,0,0-.53-.2.91.91,0,0,0-.53.2Z" style="fill:#161616"/><path d="M885.38,118.37a.7.7,0,0,0-.34.4.6.6,0,0,0,.09.52.26.26,0,0,0,.11.14.54.54,0,0,0,.31.18,3.34,3.34,0,0,1,.38.17h0a38.3,38.3,0,0,1,8.19,4.42c.53.43,1.06.86,1.56,1.32.25.23.53.49.78.75s.5.52.75.75a.79.79,0,0,0,.95.11.75.75,0,0,0,.28-1,9.92,9.92,0,0,0-1.25-1.41c-.45-.4-.89-.8-1.37-1.18a29.89,29.89,0,0,0-3.17-2.09,51.6,51.6,0,0,0-6.74-3.14.5.5,0,0,0-.17,0,.64.64,0,0,0-.36.11Z" style="fill:#161616"/><path d="M885.52,120.9a.5.5,0,0,0-.17.4.51.51,0,0,0,.17.37l.55.67a13.71,13.71,0,0,1,1.68,2.84,16.41,16.41,0,0,1,1.08,4.08c.06.37.08.72.11,1.06s.09.83.17,1.24a.68.68,0,0,0,.64.48.71.71,0,0,0,.36-.08.78.78,0,0,0,.31-.4,6.81,6.81,0,0,0,.05-.78c0-.26,0-.49-.05-.72-.06-.51-.14-1-.22-1.52a18.6,18.6,0,0,0-2.12-5.31,14.84,14.84,0,0,0-1.76-2.33.52.52,0,0,0-.39-.17.53.53,0,0,0-.41.17Z" style="fill:#161616"/><path d="M897.21,127a10.08,10.08,0,0,0-4.62,1.2,9.89,9.89,0,0,0-3.4,3.22.76.76,0,0,0,.28,1,.85.85,0,0,0,.59.08.94.94,0,0,0,.44-.34c.14-.2.28-.41.42-.58a9.9,9.9,0,0,1,1.42-1.4,9.61,9.61,0,0,1,1.7-1,8.07,8.07,0,0,1,2-.52,5.11,5.11,0,0,1,1.17-.06.84.84,0,0,0,.84-.83.82.82,0,0,0-.84-.83Z" style="fill:#161616"/><path d="M884.63,119.63c-.78.52-1.56,1-2.32,1.53s-1.64,1.15-2.42,1.75-1.42,1.18-2.09,1.81a14.08,14.08,0,0,0-1.95,2.27.9.9,0,0,0,.14,1.09,1,1,0,0,0,1.28,0c.5-.52,1-1,1.42-1.55l1.51-1.47c1-.94,2.11-1.83,3.26-2.7a3.68,3.68,0,0,0,.41-.31c0,.06-.11.08-.16.14.55-.43,1.11-.83,1.7-1.23a.91.91,0,0,0,.36-.46.78.78,0,0,0-.09-.61.68.68,0,0,0-.47-.34l-.19,0a.66.66,0,0,0-.39.11Z" style="fill:#161616"/><path d="M876.13,127.53c-.47,1.5-.86,3-1.2,4.49s-.61,3.07-.83,4.65a92.86,92.86,0,0,0-.86,9.71c-.09,2.5-.12,5,0,7.44,0,1.21,0,2.38.16,3.59.06.66.14,1.32.23,2,0,.29.11.61.16.89s.06.32.09.46.08.29.11.43a1.58,1.58,0,0,0,.25.46,1.13,1.13,0,0,0,.75.29,1,1,0,0,0,1-1c0-.2,0-.37,0-.54v-.55c0-.4,0-.8,0-1.2,0-.78-.11-1.55-.16-2.33-.14-1.61-.28-3.19-.39-4.77a92,92,0,0,1-.2-9.68,66.08,66.08,0,0,1,.59-6.75,45.48,45.48,0,0,1,1.5-7.21.62.62,0,0,0-.45-.75.3.3,0,0,0-.16,0,.62.62,0,0,0-.59.43Z" style="fill:#161616"/><path d="M886.19,141.29c-.09,1.53-.2,3.05-.31,4.6s-.14,3-.17,4.51c0,.72,0,1.47,0,2.21s0,1.53,0,2.3.06,1.49.12,2.21a11.49,11.49,0,0,0,.11,1.18c.05.43.11.89.19,1.32a1,1,0,0,0,.92.66.94.94,0,0,0,1-.92c0-.74-.11-1.49-.17-2.24s-.17-1.46-.22-2.21-.14-1.46-.2-2.21-.11-1.52-.14-2.3c-.08-1.52-.08-3-.11-4.51s0-3.07.09-4.6a.53.53,0,0,0-.53-.48.5.5,0,0,0-.5.48Z" style="fill:#161616"/><path d="M896.63,125.47a.72.72,0,0,0-.25.34.5.5,0,0,0,0,.4c.67.84,1.31,1.67,2,2.53s1.2,1.72,1.81,2.59a.75.75,0,0,0,.39.31.86.86,0,0,0,.53-.08.67.67,0,0,0,.31-.38.6.6,0,0,0-.06-.51c-.64-.87-1.33-1.7-2-2.56s-1.37-1.7-2-2.56a1.65,1.65,0,0,0-.26-.14h-.13a.56.56,0,0,0-.31.06Z" style="fill:#161616"/><path d="M900.81,131.36a.63.63,0,0,0-.31.4,97,97,0,0,0-1.17,9.91c-.11,1.69-.17,3.39-.19,5.05,0,.87-.06,1.7-.09,2.56v2.53c0,1.46.09,2.93.2,4.39,0,.81.16,1.58.28,2.39,0,.37.11.72.16,1.06s.09.37.14.57.11.38.17.55a1.06,1.06,0,0,0,1,.75,1,1,0,0,0,1.06-1c0-.2,0-.4,0-.6v-.58c0-.43-.06-.83-.09-1.26,0-.83-.13-1.64-.22-2.47-.19-1.67-.39-3.33-.53-5,0-.83-.14-1.66-.19-2.52s-.09-1.67-.09-2.53c0-1.67,0-3.36,0-5.06.09-2.3.25-4.59.56-6.86.08-.49.17-1,.25-1.5a.65.65,0,0,0-.08-.51.6.6,0,0,0-.39-.29.46.46,0,0,0-.2,0,.68.68,0,0,0-.33.09Z" style="fill:#161616"/><path d="M895.13,122.34a1.13,1.13,0,0,0-.42,1.55c.89,1.38,1.86,2.73,2.84,4,.47.63,1,1.26,1.42,1.86a20.57,20.57,0,0,0,1.75,2.07,1.39,1.39,0,0,0,1.67.2,1.19,1.19,0,0,0,.64-.8,1.21,1.21,0,0,0-.13-1,32.54,32.54,0,0,0-2.26-2.56c-.78-.83-1.53-1.7-2.26-2.59s-1.14-1.55-1.67-2.35a1.24,1.24,0,0,0-1-.55,1.16,1.16,0,0,0-.55.15Z" style="fill:#161616"/><path d="M902.45,137.36Zm-.86-7.15a1.26,1.26,0,0,0-.59.77,59.48,59.48,0,0,0-1.31,11.89c0,2,.09,3.88.2,5.81s.22,4,.39,6a.56.56,0,0,0,.55.55.54.54,0,0,0,.56-.55c0-1.47,0-2.93,0-4.37s.11-2.93.22-4.39c.2-2.87.45-5.75.84-8.59,0,.06,0,.14-.06.23,0-.09,0-.17.06-.23v0c.25-1.93.58-3.82,1-5.72a1.22,1.22,0,0,0-.89-1.55,1.28,1.28,0,0,0-.33-.06,1.19,1.19,0,0,0-.64.18Z" style="fill:#161616"/><path d="M885.77,103.35c-.2,2.52-.34,5.08-.42,7.61s-.17,5.17-.33,7.76a1.14,1.14,0,0,0,.36.83,1.2,1.2,0,0,0,1.67,0,1.21,1.21,0,0,0,.36-.83c.17-2.59.25-5.18.17-7.76a55.34,55.34,0,0,0-.81-7.73.49.49,0,0,0-.5-.37.48.48,0,0,0-.5.49Z" style="fill:#161616"/><path d="M902.64,85.62a8.2,8.2,0,0,0-3.42,2.3.72.72,0,0,0-.2.46.61.61,0,0,0,.2.49.67.67,0,0,0,1,0,9.19,9.19,0,0,1,1.09-1,8.12,8.12,0,0,1,1.5-.89,6.71,6.71,0,0,1,1.45-.37,6.11,6.11,0,0,1,1.48,0l.53.08a.71.71,0,0,0,.47,0,.64.64,0,0,0,.25-.35.47.47,0,0,0-.05-.43.67.67,0,0,0-.34-.26,4.75,4.75,0,0,0-1.89-.34,6.11,6.11,0,0,0-2,.34Z" style="fill:#161616"/><path d="M903,91.31a6.12,6.12,0,0,0-1.67.8,6.66,6.66,0,0,0-1.48,1.56.57.57,0,0,0,.23.8.52.52,0,0,0,.47.06c.17,0,.25-.15.36-.26A1.53,1.53,0,0,1,901,94a4.08,4.08,0,0,1,1.73-1.35,5.49,5.49,0,0,1,.94-.26,5.68,5.68,0,0,1,1,0,4.57,4.57,0,0,1,1,.29l.34.17a.65.65,0,0,0,.53.06.85.85,0,0,0,.42-.32.65.65,0,0,0-.26-.89,6.62,6.62,0,0,0-1-.4,5.81,5.81,0,0,0-1-.17,3.19,3.19,0,0,0-.53-.06,5.64,5.64,0,0,0-1.34.2Z" style="fill:#161616"/><path d="M904,92.49a15.07,15.07,0,0,0,.06,1.64,2.05,2.05,0,0,0,.22.69,2.54,2.54,0,0,0,.53.74.93.93,0,0,0,.64.23.87.87,0,0,0,.61-.23,2.34,2.34,0,0,0,.67-1c0-.12,0-.26.08-.4s.06-.38.11-.58a.83.83,0,0,0-.58-1,1,1,0,0,0-.64,0v-.08a.85.85,0,0,0-.84-.81.87.87,0,0,0-.86.81Z" style="fill:#161616"/><path d="M908.6,109a6.22,6.22,0,0,1-.89.46,7.87,7.87,0,0,0-.69.38,2.3,2.3,0,0,0-.67.72,3.25,3.25,0,0,0-.28,1.26.66.66,0,0,0,.08.32.56.56,0,0,0,.25.23l.42.17a1.78,1.78,0,0,0,.48.08,1.5,1.5,0,0,0,.72-.17,2.2,2.2,0,0,0,.45-.26,2.22,2.22,0,0,1,.52-.34.54.54,0,0,0,.31-.23.44.44,0,0,0,.06-.4.59.59,0,0,0-.23-.32.66.66,0,0,0-.41-.06,3,3,0,0,0-.73.29c-.17.09-.3.17-.44.23a.11.11,0,0,1-.09,0h0s0-.09,0-.14a.87.87,0,0,1,.11-.18s.09-.08.11-.14c.2-.12.42-.2.64-.32a4.79,4.79,0,0,0,.92-.49.64.64,0,0,0,.25-.89.67.67,0,0,0-.58-.31.88.88,0,0,0-.34.08Z" style="fill:#161616"/><path d="M887.3,71.66c-.59,0-1.14.09-1.73.15s-1.19.17-1.78.28a15.83,15.83,0,0,0-2.81,1,10.49,10.49,0,0,0-2.15,1.41,6.7,6.7,0,0,0-1.42,1.75,8.59,8.59,0,0,0-1.06,4.39,15.08,15.08,0,0,0,.31,2.53,19.61,19.61,0,0,0,.67,2.5,51.65,51.65,0,0,0,2.84,6.72,1.24,1.24,0,0,0,.72.58,1.21,1.21,0,0,0,1-.15,1.16,1.16,0,0,0,.59-.71,1.36,1.36,0,0,0-.14-.92c-.48-1-.95-2-1.37-3a26.86,26.86,0,0,1-2-6.49,9.52,9.52,0,0,1,0-2.5,7.31,7.31,0,0,1,.39-1.53,5.51,5.51,0,0,1,.73-1.17,7.81,7.81,0,0,1,1.19-1.18,12,12,0,0,1,2.26-1.27c.58-.23,1.2-.43,1.81-.63s1.47-.43,2.23-.63a.57.57,0,0,0,.44-.54.62.62,0,0,0-.58-.61Z" style="fill:#161616"/><path d="M892.4,80.85a2.17,2.17,0,0,0-.59.44,3.74,3.74,0,0,0-.5.63,6,6,0,0,0-.64,1.26,18.76,18.76,0,0,0-1.09,3,38.94,38.94,0,0,0-1.14,5.92,1.21,1.21,0,0,0,.36.83,1.33,1.33,0,0,0,.87.34,1.29,1.29,0,0,0,.83-.34c.06-.09.14-.17.2-.26a1,1,0,0,0,.16-.57c0-.12,0-.23,0-.32A32.32,32.32,0,0,1,892,86.63c.28-.83.59-1.67.92-2.5.14-.37.31-.78.48-1.15.08-.2.14-.43.22-.66a2.08,2.08,0,0,0,0-.75.71.71,0,0,0-.11-.4.73.73,0,0,0-.31-.32,1.15,1.15,0,0,0-.39-.11,1.53,1.53,0,0,0-.47.11Z" style="fill:#161616"/><path d="M892.4,81a.68.68,0,0,0-.56.23.69.69,0,0,0-.25.54.84.84,0,0,0,.25.58,1,1,0,0,0,.56.23,37.53,37.53,0,0,1,8.27.2c1.61.23,3.23.51,4.82.89s3.34.83,5,1.32,3.09,1,4.62,1.52c.76.26,1.51.55,2.26.81a11.53,11.53,0,0,0,2.28.63.82.82,0,0,0,.62-1.38,6,6,0,0,0-1.42-.92c-.51-.26-1-.46-1.51-.69-1.17-.49-2.34-.92-3.54-1.29A54.86,54.86,0,0,0,906.6,82,58.94,58.94,0,0,0,896,80.85a35.81,35.81,0,0,0-3.59.18Z" style="fill:#161616"/><path d="M913.39,81.17s0,0,.06,0,0,0-.06,0Zm-2.25-2.73a.71.71,0,0,0,0,1l.53.46c.22.14.42.31.64.46.42.31.83.6,1.22.92a28.66,28.66,0,0,1,5.24,5c.19.26.39.49.56.75a1,1,0,0,0,1.31.35.91.91,0,0,0,.44-.58.9.9,0,0,0-.08-.72,26.1,26.1,0,0,0-4-4.36,27.41,27.41,0,0,0-2.34-1.84l-1.2-.78a6.62,6.62,0,0,0-.61-.37c-.25-.14-.53-.26-.78-.37a.85.85,0,0,0-.36-.12.76.76,0,0,0-.53.23Z" style="fill:#161616"/><path d="M910.55,95.53a7.75,7.75,0,0,0-.19,2.24,5,5,0,0,0,.61,2.07,3.72,3.72,0,0,0,.59.81,4.57,4.57,0,0,0,.83.74,7.15,7.15,0,0,0,1,.49,4.09,4.09,0,0,0,1.2.26A.88.88,0,0,0,915,102a.91.91,0,0,0,.45-.55.92.92,0,0,0-.45-1L914,99.76a3.92,3.92,0,0,1-.72-.69,4.32,4.32,0,0,1-.36-.58,7.44,7.44,0,0,1-.2-.74,7.11,7.11,0,0,1,0-1.13c0-.17.08-.31.11-.48a1.33,1.33,0,0,0-.11-.87,1.27,1.27,0,0,0-.7-.51.83.83,0,0,0-.27,0,1.16,1.16,0,0,0-1.15.8Z" style="fill:#161616"/><path d="M911.06,85.36a10.65,10.65,0,0,0-.14,2.7c0,.92.05,1.87.11,2.79.08,1.87.16,3.74.16,5.6a.58.58,0,0,0,.59.55.56.56,0,0,0,.56-.55c0-1.84,0-3.65-.09-5.48,0-.92,0-1.84,0-2.79a16.66,16.66,0,0,0-.14-2.82.55.55,0,0,0-.53-.37.47.47,0,0,0-.5.37Z" style="fill:#161616"/><path d="M870.81,54.08a24,24,0,0,0-13.89,4.8,28.58,28.58,0,0,0-5.55,5.26,27.74,27.74,0,0,0-2.25,3.18,28.34,28.34,0,0,0-1.7,3.45,20.28,20.28,0,0,0-1.62,7.67,17,17,0,0,0,1.87,7.87,1,1,0,0,0,1.75,0,1,1,0,0,0,.12-.74,18.5,18.5,0,0,1-1.17-4.2,19.28,19.28,0,0,1,0-4.74,22.2,22.2,0,0,1,1.54-5.34,26,26,0,0,1,3.25-5.46,27.89,27.89,0,0,1,4.88-4.77,27.4,27.4,0,0,1,5.37-3.13,24.08,24.08,0,0,1,5.07-1.38,21.93,21.93,0,0,1,2.31-.11,1.22,1.22,0,0,0,1.2-1.18,1.2,1.2,0,0,0-1.2-1.18Z" style="fill:#161616"/><path d="M848,86.11a30.77,30.77,0,0,0-6,5.49,32,32,0,0,0-4.31,6.75,30.28,30.28,0,0,0-3,15.31,23.76,23.76,0,0,0,3.62,11.06,22.06,22.06,0,0,0,9.58,8.1,1.33,1.33,0,0,0,.94.11,1.16,1.16,0,0,0,.73-.54,1.19,1.19,0,0,0-.42-1.64c-.81-.49-1.56-1-2.31-1.58a24.66,24.66,0,0,1-4.35-4.25,24.16,24.16,0,0,1-2.86-4.8,25.79,25.79,0,0,1-1.65-5.94,27.24,27.24,0,0,1,0-6.93,29,29,0,0,1,2-7.18,30.53,30.53,0,0,1,3.76-6.35,30.19,30.19,0,0,1,4.9-4.82c.22-.15.44-.32.67-.46a1.43,1.43,0,0,0,.61-.81,1.37,1.37,0,0,0-1-1.66,1.58,1.58,0,0,0-.39,0,1.05,1.05,0,0,0-.67.17Z" style="fill:#161616"/><path d="M848.67,130.78l-.25.17a1.31,1.31,0,0,0-.31.52,27.68,27.68,0,0,0-1.89,7.44,29.26,29.26,0,0,0,.22,7.93,21.45,21.45,0,0,0,2.62,7.3,15.72,15.72,0,0,0,5.57,5.54,16.24,16.24,0,0,0,2.48,1.12,12.85,12.85,0,0,0,2.56.6c.11,0,.23,0,.34.06a1.45,1.45,0,0,0,.67-.17,1.26,1.26,0,0,0-.31-2.3c-.59-.2-1.14-.37-1.7-.6a19.4,19.4,0,0,1-3.34-1.9,20,20,0,0,1-2.68-2.61,19.65,19.65,0,0,1-2.28-3.88,24,24,0,0,1-1.5-5.52,25.6,25.6,0,0,1,0-6.66,23,23,0,0,1,1.56-5.72,1.15,1.15,0,0,0-.83-1.43,1.28,1.28,0,0,0-.34-.06,1.22,1.22,0,0,0-.61.17Z" style="fill:#161616"/><path d="M866.13,172.49l.09,0-.09,0ZM860.45,160a1.23,1.23,0,0,0-.72.54,12,12,0,0,0-1.37,6.09,9.53,9.53,0,0,0,.62,2.62c.19.43.39.86.61,1.26a10.14,10.14,0,0,0,.89,1.24,12.2,12.2,0,0,0,1.81,1.78,14.27,14.27,0,0,0,2.48,1.58,19.68,19.68,0,0,0,5.82,1.75,21,21,0,0,0,4.62.2,19.6,19.6,0,0,0,4.65-.8,12.82,12.82,0,0,0,7.19-5.2,1.35,1.35,0,0,0-.2-1.64,1.39,1.39,0,0,0-2,0,10.63,10.63,0,0,1-1.75,1.67,13,13,0,0,1-2.81,1.6,17.87,17.87,0,0,1-4.24,1.09,21.54,21.54,0,0,1-5.2,0,19.93,19.93,0,0,1-4.54-1.17,14.73,14.73,0,0,1-2.73-1.52,10.87,10.87,0,0,1-1.51-1.44,9.91,9.91,0,0,1-.89-1.47,10.8,10.8,0,0,1-.44-1.6,8.35,8.35,0,0,1,0-1.87,11.35,11.35,0,0,1,.73-2.56c.08-.14.14-.31.22-.46a1.2,1.2,0,0,0,.11-.89,1.25,1.25,0,0,0-.53-.69,1.54,1.54,0,0,0-.58-.14c-.11,0-.22,0-.31,0" style="fill:#161616"/><path d="M924.76,157.07a50.06,50.06,0,0,1-6.46,6.14,32.44,32.44,0,0,1-6.46,3.74,33.72,33.72,0,0,1-7.61,2,60.91,60.91,0,0,1-15.32-.35c-.52-.05-1-.14-1.58-.23l-.36,0a1.32,1.32,0,0,0-.7.17,1.26,1.26,0,0,0-.64.8,1.29,1.29,0,0,0,.14,1.07,1.4,1.4,0,0,0,.81.63c3.39.49,6.79.92,10.22,1.09q2.34.09,4.68,0a43.42,43.42,0,0,0,4.7-.43,31.54,31.54,0,0,0,4.29-.83,39.9,39.9,0,0,0,4.35-1.5,30.48,30.48,0,0,0,8-4.88,34,34,0,0,0,4.9-5.2,1.76,1.76,0,0,0-.3-2.18,1.82,1.82,0,0,0-1.31-.55,1.89,1.89,0,0,0-1.31.55Z" style="fill:#161616"/><path d="M890.08,45a50.65,50.65,0,0,0-10,2.84,49.79,49.79,0,0,0-9.55,5,1.54,1.54,0,0,0-.73.92,1.58,1.58,0,0,0,2.34,1.78,45,45,0,0,1,7.58-4.08,51.74,51.74,0,0,1,12.08-3.19,53.27,53.27,0,0,1,12.93,0,49,49,0,0,1,11.72,3.16,44.79,44.79,0,0,1,4.87,2.39c1.65.95,3.23,2,4.77,3.1a1.67,1.67,0,0,0,.8.23,1.56,1.56,0,0,0,1.15-.49,1.54,1.54,0,0,0,0-2.21,34.31,34.31,0,0,0-8.3-5.6,43.48,43.48,0,0,0-9.47-3.39,49.15,49.15,0,0,0-10.06-1.21c-.33,0-.66,0-1,0a53.79,53.79,0,0,0-9.11.84Z" style="fill:#161616"/><path d="M925.48,54.89a1.28,1.28,0,0,0-.36.89,1.3,1.3,0,0,0,.36.89,1.39,1.39,0,0,0,.92.37l.78.09a31.48,31.48,0,0,1,7.46,2,26.67,26.67,0,0,1,5.71,3.27,28.74,28.74,0,0,1,5,5,35.32,35.32,0,0,1,4.29,7.24,48.37,48.37,0,0,1,3.26,12,78.67,78.67,0,0,1,.59,8,1.59,1.59,0,0,0,1.58,1.56,1.68,1.68,0,0,0,1.12-.46,1.73,1.73,0,0,0,.47-1.1,41.42,41.42,0,0,0-.42-8.76,46,46,0,0,0-1.89-8.24,40.06,40.06,0,0,0-3.56-7.76,30.34,30.34,0,0,0-2.32-3.36,34.27,34.27,0,0,0-2.81-3.22A28.44,28.44,0,0,0,941.77,60a31.48,31.48,0,0,0-4.34-2.56,32.51,32.51,0,0,0-5.1-1.9,38.37,38.37,0,0,0-5.93-1.06h-.08a1.28,1.28,0,0,0-.84.38Z" style="fill:#161616"/><path d="M953.36,94.24a1.44,1.44,0,0,0-.7.86,1.47,1.47,0,0,0,.17,1.12,30.07,30.07,0,0,1,2.73,4.8,29.24,29.24,0,0,1,2,7,34.38,34.38,0,0,1,0,8.42,36.78,36.78,0,0,1-2.48,8.76,42.11,42.11,0,0,1-5.15,8.62,36.87,36.87,0,0,1-6.41,6.32,1.86,1.86,0,0,0-.47.83,1.73,1.73,0,0,0,.2,1.43,1.84,1.84,0,0,0,1.11.84,2.1,2.1,0,0,0,1.48-.17,31.36,31.36,0,0,0,3.7-3,30.27,30.27,0,0,0,3.06-3.25,35.62,35.62,0,0,0,4.91-7.9A39.33,39.33,0,0,0,961,111a30.63,30.63,0,0,0-5.57-16.23,1.62,1.62,0,0,0-.89-.69,1.71,1.71,0,0,0-.39,0,1.36,1.36,0,0,0-.75.2Z" style="fill:#161616"/><path d="M941.61,143.71c-.62,1.2-1,2.5-1.51,3.76a21.24,21.24,0,0,1-2.36,4.08,15.82,15.82,0,0,1-2.37,2.33,12.42,12.42,0,0,1-8.33,2.64,1.27,1.27,0,0,0-1.31,1.26,1.3,1.3,0,0,0,1.31,1.27,18.74,18.74,0,0,0,6.18-.81,17.45,17.45,0,0,0,5.43-2.73,19.58,19.58,0,0,0,2.32-2,16.6,16.6,0,0,0,2-2.67,12.57,12.57,0,0,0,1.28-3.13,11.8,11.8,0,0,0,.28-1.75,5.89,5.89,0,0,0-.17-1.87,1.48,1.48,0,0,0-1.05-1,1.67,1.67,0,0,0-.39,0,1.45,1.45,0,0,0-1.31.72Z" style="fill:#161616"/><path d="M859.53,170.31a11.09,11.09,0,0,0-4.51,3.53,4.82,4.82,0,0,0-.58,4.14,7.12,7.12,0,0,0,2.48,3.39,12.74,12.74,0,0,0,2,1.35,17.47,17.47,0,0,0,2.34,1,15.65,15.65,0,0,0,4.21.83,11,11,0,0,0,2.2-.14,5.88,5.88,0,0,0,1.67-.43,6.69,6.69,0,0,0,1-.49,3.77,3.77,0,0,0,.92-.66,3.41,3.41,0,0,0,.59-.54,8.61,8.61,0,0,0,.67-.95,6.64,6.64,0,0,0,.55-4.77,1.23,1.23,0,0,0-1.22-.92,1.28,1.28,0,0,0-.92.37,1.3,1.3,0,0,0-.36.89l-.09.95a8.11,8.11,0,0,1-.36,1.41c-.14.23-.28.49-.44.72a5.69,5.69,0,0,1-.56.54,5.84,5.84,0,0,1-.81.46,5.56,5.56,0,0,1-1.39.35,11.8,11.8,0,0,1-2.45,0,15.22,15.22,0,0,1-3.23-.86,12.53,12.53,0,0,1-2.37-1.35,6.43,6.43,0,0,1-1.14-1.07,6.9,6.9,0,0,1-.47-.77c-.06-.2-.12-.37-.17-.58v-.48a3.07,3.07,0,0,1,.14-.52c.14-.26.28-.46.42-.69a9.13,9.13,0,0,1,1-1,16.38,16.38,0,0,1,2.23-1.29,1.28,1.28,0,0,0,.67-.83,1.33,1.33,0,0,0-.14-1.09,1.39,1.39,0,0,0-.86-.64.9.9,0,0,0-.36,0,1.42,1.42,0,0,0-.76.2Z" style="fill:#161616"/><path d="M850,183.9a9,9,0,0,1,1,.11,12.07,12.07,0,0,1,2.67.63c.26.12.51.26.76.4l.16.18s0,.05,0,.05h0v0c0,.06,0,.09-.06.15a4.28,4.28,0,0,1-.27.43,8.7,8.7,0,0,1-1.12,1.06,9.29,9.29,0,0,1-1.08.63,8.88,8.88,0,0,1-1.2.32,8.42,8.42,0,0,1-1.23,0,6,6,0,0,1-1-.26,4.88,4.88,0,0,1-.64-.37,3.33,3.33,0,0,1-.34-.32l-.16-.26c0-.06,0-.14-.06-.23v-.23c0-.11.06-.2.08-.31a5,5,0,0,1,.31-.49,3.88,3.88,0,0,1,.81-.75,8.39,8.39,0,0,1,1.25-.77Zm-.19-2.42a10,10,0,0,0-1.34.12,7.57,7.57,0,0,0-.92.2,1.06,1.06,0,0,0-.81,1,1.44,1.44,0,0,0,.06.38,6.65,6.65,0,0,0-.64.66,3.85,3.85,0,0,0-1,2.7,3.72,3.72,0,0,0,1.14,2.38,5.9,5.9,0,0,0,2.51,1.29,7.06,7.06,0,0,0,3.2.06,6.31,6.31,0,0,0,1.61-.52,7.18,7.18,0,0,0,1.62-1,12.69,12.69,0,0,0,1.14-1.07,5.45,5.45,0,0,0,.5-.66,4.29,4.29,0,0,0,.39-.77,2.76,2.76,0,0,0-.17-2.44,3.67,3.67,0,0,0-.72-.81,5.58,5.58,0,0,0-1.09-.69,10.48,10.48,0,0,0-2.59-.72,16.12,16.12,0,0,0-2.61-.2H850a.3.3,0,0,0-.16,0Z" style="fill:#161616"/><path d="M814.82,142.14a6.8,6.8,0,0,0-1.13.12,3.79,3.79,0,0,0-1.37.5,3.42,3.42,0,0,0-.62.45,3,3,0,0,0-.56.62,2.16,2.16,0,0,0-.35.55.27.27,0,0,1-.07.12,10.77,10.77,0,0,0-1.06-.36,17.92,17.92,0,0,0-2.45-.57,14.7,14.7,0,0,0-2.74-.29h-.2a6.12,6.12,0,0,0-1,.05,6.81,6.81,0,0,0-1.2.22,3.56,3.56,0,0,0-1.34.69,2.26,2.26,0,0,0-.44.55,1.93,1.93,0,0,0-.24.67.27.27,0,0,0,0,.12,10.84,10.84,0,0,0-3.17-.51,7.87,7.87,0,0,0-2.15.29,5.62,5.62,0,0,0-3.66,3,3.93,3.93,0,0,0-.39,1.1,4.65,4.65,0,0,0-.12,1.17,5.74,5.74,0,0,0,.14,1.19,6.17,6.17,0,0,0,.44,1.13,4.89,4.89,0,0,0,.69,1.05,4.41,4.41,0,0,0,.84.83,5.82,5.82,0,0,0,.76.53,3.87,3.87,0,0,0-.81,1,2.51,2.51,0,0,0-.3.77,2.44,2.44,0,0,0,0,.93,3.08,3.08,0,0,0,.34.76,5.17,5.17,0,0,0,.65.79c.21.19.44.41.76.67s.58.43.91.62a5.39,5.39,0,0,0,1.69.6,6.81,6.81,0,0,0,1.36.12h.54a13.58,13.58,0,0,0,3.91-.89,26.08,26.08,0,0,0,3.59-1.64c.55-.29,1-.58,1.5-.86a10.7,10.7,0,0,0,1.69.64,9.53,9.53,0,0,0,1.48.24,6.9,6.9,0,0,0,1,.07l.4,0a10.1,10.1,0,0,0,2.87-.53,4.45,4.45,0,0,0,.9-.36c0,.22,0,.43,0,.65a4.46,4.46,0,0,0,.14.79,3.71,3.71,0,0,0,.28.74,4.2,4.2,0,0,0,.81,1.1,4.28,4.28,0,0,0,1.2.78,5.28,5.28,0,0,0,2.37.53h.06a9.19,9.19,0,0,0-.6,2.2,10.45,10.45,0,0,0-.09,1.43,9,9,0,0,0,.14,1.43,7.47,7.47,0,0,0,1,2.56,6.23,6.23,0,0,0,.85,1.17,5.16,5.16,0,0,0,.47.48c.14.11.25.21.39.31a.59.59,0,0,0,.37.23.08.08,0,0,0,.07,0,.7.7,0,0,0,.33.07.85.85,0,0,0,.6-.26.79.79,0,0,0,.25-.58.85.85,0,0,0-.14-.47,3.2,3.2,0,0,1,.17-.43,6.27,6.27,0,0,1,.57-1,6,6,0,0,1,.51-.5,3.67,3.67,0,0,1,.47-.26,2.81,2.81,0,0,1,.48-.12c.07,0,.16,0,.26,0s.18,0,.25,0a3,3,0,0,1,.7.19,4.3,4.3,0,0,1,.83.47,6.52,6.52,0,0,1,.88.86,7.69,7.69,0,0,1,.79,1.32,6.26,6.26,0,0,1,.37,1.36,8,8,0,0,1,0,1.19,5.8,5.8,0,0,1-.32,1.1,5,5,0,0,1-.61,1,6.66,6.66,0,0,1-1,1,9.31,9.31,0,0,1-2.06,1.14c-.16.08-.32.12-.51.2a1,1,0,0,0-.53.4.92.92,0,0,0-.09.67,1,1,0,0,0,.41.53,1.08,1.08,0,0,0,.47.11.82.82,0,0,0,.23,0,14.49,14.49,0,0,0,1.85-.79,8.77,8.77,0,0,0,1.48-1,5.28,5.28,0,0,0,1-.95,6.88,6.88,0,0,0,.81-1.17,5.87,5.87,0,0,0,.65-2.17h.09A7.52,7.52,0,0,0,834,174a9.66,9.66,0,0,0,1.34-.89,5.63,5.63,0,0,0,1-1,6.08,6.08,0,0,0,1.48-4.06,5.69,5.69,0,0,0-.57-2.46,7.32,7.32,0,0,0,1.76-2.34c.13-.31.25-.59.34-.88a5.41,5.41,0,0,0,.21-1,5.94,5.94,0,0,0-.05-1.72,6.75,6.75,0,0,0-1.27-3.11,9.36,9.36,0,0,0-2.73-2.53,10.44,10.44,0,0,0-1.64-.81l0,0,0,0a9.82,9.82,0,0,0-.65-1.5,21.64,21.64,0,0,0-1.34-2.25c-.56-.81-1.19-1.6-1.86-2.39a21.82,21.82,0,0,0-2-2,10.87,10.87,0,0,0-2.2-1.53,5.37,5.37,0,0,0-2.3-.62h0a3.36,3.36,0,0,0-1.57.43,2.75,2.75,0,0,0-.54.41,2,2,0,0,0-.34.36c-.16.21-.28.38-.4.55a8.16,8.16,0,0,0-2.17-1.48,7.61,7.61,0,0,0-1.55-.6,7.71,7.71,0,0,0-1.6-.29,3,3,0,0,0-.42,0Z" style="fill:#161616"/><path d="M797.09,157.21a34.74,34.74,0,0,0-1.28,4.22,32.36,32.36,0,0,0-.69,4.54,27.56,27.56,0,0,0,0,4.54c0,.76.12,1.53.21,2.27.07.35.12.71.19,1.07a8.45,8.45,0,0,0,.32,1.12.79.79,0,0,0,.37.48.87.87,0,0,0,.63.1.81.81,0,0,0,.55-1c-.16-.67-.34-1.34-.51-2a18.24,18.24,0,0,1-.39-2,28.62,28.62,0,0,1,.09-7.28,30.65,30.65,0,0,1,1.39-5.88.44.44,0,0,0-.3-.52s-.09,0-.12,0a.42.42,0,0,0-.41.34Z" style="fill:#161616"/><path d="M795.79,174.14a6.22,6.22,0,0,0-.76.78,9.13,9.13,0,0,0-.81,1.1,13.64,13.64,0,0,0-1.28,2.49,7.05,7.05,0,0,0-.55,2.38,2.69,2.69,0,0,0,.79,2.06,4,4,0,0,0,.37.24,1.71,1.71,0,0,0,.46.19,1.84,1.84,0,0,0,.53.09,1.75,1.75,0,0,0,.39,0,3.88,3.88,0,0,0,1.09-.15,6.87,6.87,0,0,0,1.32-.45.78.78,0,0,0,.28-.29.81.81,0,0,0,.09-.62.84.84,0,0,0-1-.57,7.76,7.76,0,0,1-1.45.38,2.08,2.08,0,0,1-.61,0,.64.64,0,0,1-.23-.05.3.3,0,0,1-.11-.07.26.26,0,0,1-.1-.07c0-.05-.07-.12-.09-.17a1.44,1.44,0,0,1-.09-.33,6.18,6.18,0,0,1,0-.86,9.77,9.77,0,0,1,.58-1.93,11.12,11.12,0,0,1,1.41-2.39,5.38,5.38,0,0,1,.77-.81.71.71,0,0,0,0-1,.8.8,0,0,0-.51-.19.73.73,0,0,0-.49.19Z" style="fill:#161616"/><path d="M796.28,182.21a.84.84,0,0,0-.33.43,13.85,13.85,0,0,0,.24,6.37,8,8,0,0,0,1.15,2.32,9.39,9.39,0,0,0,.88,1,8.43,8.43,0,0,0,1,.86,9.17,9.17,0,0,0,2.29,1.22,13.74,13.74,0,0,0,2.48.65,18.47,18.47,0,0,0,3,.19,22.93,22.93,0,0,0,3.13-.24,25.34,25.34,0,0,0,5.74-1.53,20,20,0,0,0,2.85-1.34,14.6,14.6,0,0,0,2.45-1.65.94.94,0,0,0,.26-.43,1,1,0,0,0-.12-.76,1,1,0,0,0-1.34-.36c-1.27.69-2.57,1.34-3.91,1.91a36.12,36.12,0,0,1-3.55,1.2,24.88,24.88,0,0,1-3.7.79,19,19,0,0,1-4.65.07,13.75,13.75,0,0,1-2.87-.74,8.39,8.39,0,0,1-1.63-.91,6.58,6.58,0,0,1-1.06-1,7.91,7.91,0,0,1-.83-1.41,8.55,8.55,0,0,1-.54-2,12.31,12.31,0,0,1,0-3.32l.07-.5a.86.86,0,0,0-.07-.53.66.66,0,0,0-.42-.33c-.07,0-.14,0-.18,0a.88.88,0,0,0-.37.1Z" style="fill:#161616"/><path d="M801.79,188.51a.9.9,0,0,0-.4.29.66.66,0,0,0,0,.48.57.57,0,0,0,.28.35.59.59,0,0,0,.48.08,8.78,8.78,0,0,1,1.09-.29,8.68,8.68,0,0,1,1,0,5.12,5.12,0,0,1,.72.19,2.45,2.45,0,0,1,.48.29,4.25,4.25,0,0,1,.37.36,2.37,2.37,0,0,1,.3.5c0,.05,0,.07,0,.12l-.3-.12a3.29,3.29,0,0,0-.88-.19.62.62,0,0,0-.58.45.58.58,0,0,0,.42.72,1.14,1.14,0,0,1,.3.09c.25.12.53.26.81.38a2.25,2.25,0,0,0,.58.08,2.44,2.44,0,0,0,.69-.15,1.26,1.26,0,0,1,.16-.07.56.56,0,0,0,.24-.24.77.77,0,0,1,.07-.16.56.56,0,0,0,0-.36,3.63,3.63,0,0,0-2-2.77,4.46,4.46,0,0,0-1.85-.39,6.39,6.39,0,0,0-2,.36Z" style="fill:#161616"/><path d="M801,168.26a10.49,10.49,0,0,0-.23,1.75,6.44,6.44,0,0,0,0,.76,2.64,2.64,0,0,0,.3,1.07.93.93,0,0,0,.78.46.8.8,0,0,0,.47-.15.83.83,0,0,0,.41-.52,2.33,2.33,0,0,1,0-.34,1.67,1.67,0,0,0,0-.31c0-.21,0-.43,0-.64a7.38,7.38,0,0,1,0-1.05c0-.17.07-.34.09-.5a.9.9,0,0,0-.09-.74,1.06,1.06,0,0,0-.58-.46l-.26,0a1,1,0,0,0-.95.69Z" style="fill:#161616"/><path d="M801.72,168.45h0Zm-1.58-.88a.91.91,0,0,0,.26.6.83.83,0,0,0,.6.24l.88.07a12.65,12.65,0,0,1,2.62.69,12,12,0,0,1,2.1,1.22,9.74,9.74,0,0,1,1.18,1.05.89.89,0,0,0,1.53-.65.92.92,0,0,0-.25-.62,10.15,10.15,0,0,0-1.74-1.45,9.1,9.1,0,0,0-1.87-1,13.12,13.12,0,0,0-4.45-1h0a.88.88,0,0,0-.84.86Z" style="fill:#161616"/><path d="M805.35,162.7l0,0,0,0Zm-2-1.51a.88.88,0,0,0-.53.22.71.71,0,0,0,0,1.05.88.88,0,0,0,.53.21,8.61,8.61,0,0,1,1.9,0,7.81,7.81,0,0,1,2,.52,9.21,9.21,0,0,1,1.8,1.05l.14.12a.4.4,0,0,1,.16.12,1.07,1.07,0,0,0,.4.1.79.79,0,0,0,.55-.22.77.77,0,0,0,0-1.07,8.83,8.83,0,0,0-6-2.17c-.31,0-.61,0-.91,0Z" style="fill:#161616"/><path d="M825.59,180.58c.11,3.06.39,6.12.55,9.17.1,1.53.17,3.06.17,4.61,0,.77,0,1.53-.1,2.3,0,.38,0,.74-.09,1.12s-.07.74-.09,1.12a1,1,0,0,0,1.5.84.9.9,0,0,0,.47-.58,13.48,13.48,0,0,0,.13-2.29c0-.79,0-1.55,0-2.32-.05-1.55-.16-3.12-.32-4.68-.28-3.1-.67-6.18-.84-9.29a.69.69,0,0,0-.69-.66.67.67,0,0,0-.67.66Z" style="fill:#161616"/><path d="M818.27,190.64a.53.53,0,0,0-.37.64c.28.77.53,1.53.74,2.32a17.93,17.93,0,0,1,.51,2.46c.07.57.12,1.12.14,1.67a16.59,16.59,0,0,1-.12,1.86c0,.12,0,.24-.06.39a.32.32,0,0,1,0,.16.6.6,0,0,0,.12.36.61.61,0,0,0,.41.33.72.72,0,0,0,.56-.07.69.69,0,0,0,.32-.43,14,14,0,0,0-.16-4.75,27.83,27.83,0,0,0-1.39-4.58.5.5,0,0,0-.25-.31.45.45,0,0,0-.26-.08.27.27,0,0,0-.16,0Z" style="fill:#161616"/><path d="M817.72,204.32l-.05.05Zm10.76-5.44a16.88,16.88,0,0,0-2,.24,19,19,0,0,0-3.56.86,23.44,23.44,0,0,0-3.41,1.45,20.21,20.21,0,0,0-3.12,2.13.69.69,0,0,0-.21.5.68.68,0,0,0,.72.69.83.83,0,0,0,.51-.19,2.56,2.56,0,0,1,.34-.26,17.36,17.36,0,0,1,3.75-2.13,16,16,0,0,1,2.6-.83,24,24,0,0,1,2.66-.51c.53-.07,1.09-.11,1.62-.16s1.23,0,1.85-.12c.09,0,.16,0,.23,0a1.09,1.09,0,0,0,.4-.21.89.89,0,0,0,.25-.62.84.84,0,0,0-.25-.6.93.93,0,0,0-.63-.26l-.55,0a9.82,9.82,0,0,0-1.21.07Z" style="fill:#161616"/><path d="M815.63,204.66a.5.5,0,0,0,0,.74,14.15,14.15,0,0,1,1.92,1.95c.31.41.58.82.86,1.25a13.73,13.73,0,0,1,.7,1.38c.23.53.41,1.08.6,1.62a1,1,0,0,0,.3.39.75.75,0,0,0,.51,0,.61.61,0,0,0,.44-.76,8.84,8.84,0,0,0-.74-1.89,11.44,11.44,0,0,0-1.07-1.74,16.34,16.34,0,0,0-2.78-3,.53.53,0,0,0-.37-.15.51.51,0,0,0-.37.15Z" style="fill:#161616"/><path d="M830,201.36a15.33,15.33,0,0,0-3.08,1.93,23.78,23.78,0,0,0-2.62,2.49,32.34,32.34,0,0,0-4.23,5.94.74.74,0,0,0,.25,1,.75.75,0,0,0,1-.27,34.34,34.34,0,0,1,2.64-3.91,23.34,23.34,0,0,1,4.1-4.09,19.21,19.21,0,0,1,2.76-1.69.84.84,0,0,0,.3-1.12,1,1,0,0,0-.51-.39.75.75,0,0,1-.21,0,1,1,0,0,0-.44.12Z" style="fill:#161616"/><path d="M815.1,205.8l-.19.1a.61.61,0,0,0-.27.26,12.83,12.83,0,0,0-.86,1.27.75.75,0,0,0,.28,1,.77.77,0,0,0,1-.26c.28-.43.56-.86.86-1.27a.74.74,0,0,0,.07-.57.72.72,0,0,0-.35-.43.81.81,0,0,0-.39-.12l-.19,0Z" style="fill:#161616"/><path d="M813.87,208.24a.72.72,0,0,0-.53.91,25.62,25.62,0,0,1,1.11,4.75,36.73,36.73,0,0,1-.07,9.6,60.71,60.71,0,0,1-1.48,7.19c-.3,1.16-.65,2.34-1,3.51-.17.54-.35,1.09-.51,1.64-.1.27-.17.55-.26.82s-.16.59-.28.9a1.06,1.06,0,0,0,.74,1.27,1.18,1.18,0,0,0,.81-.1,1,1,0,0,0,.49-.62c.14-.36.3-.71.42-1.05s.28-.79.41-1.17c.26-.76.49-1.55.7-2.34a43.22,43.22,0,0,0,1.11-4.85,52.76,52.76,0,0,0,.9-10.12,33.31,33.31,0,0,0-.44-5.09,27,27,0,0,0-1.18-4.73.75.75,0,0,0-.37-.45.66.66,0,0,0-.37-.1.51.51,0,0,0-.21,0Z" style="fill:#161616"/><path d="M844.25,228s0,.07,0,.12,0-.09,0-.12ZM831.79,201.5a.66.66,0,0,0-.46.82.74.74,0,0,0,.3.38l.51.36a25.76,25.76,0,0,1,2.29,2,27.27,27.27,0,0,1,2.09,2.34,34,34,0,0,1,4.23,7.18c.44,1,.86,2.08,1.21,3.16s.69,2.24,1,3.36c.55,2.22,1,4.49,1.32,6.76.28,2.08.46,4.16.58,6.26.07,1,.11,2,.16,3.1l.07,1.51c0,.24,0,.47,0,.74,0,.12,0,.24,0,.35s0,.29,0,.46a1,1,0,0,0,1,.91,1,1,0,0,0,.67-.27.82.82,0,0,0,.26-.59,14.2,14.2,0,0,0,.28-1.91c.07-.63.11-1.27.14-1.89,0-1.31,0-2.63-.12-3.92s-.28-2.84-.49-4.25-.46-2.7-.78-4a39.48,39.48,0,0,0-1.11-4c-.42-1.29-.91-2.58-1.42-3.85a41.05,41.05,0,0,0-3.77-7.23,30.62,30.62,0,0,0-3.36-4.25,25.93,25.93,0,0,0-4.1-3.52.58.58,0,0,0-.34-.09.62.62,0,0,0-.19,0" style="fill:#161616"/><path d="M832.79,237.61v0Zm-2.57-15.76a.52.52,0,0,0-.19.72,15.16,15.16,0,0,1,1.65,2.91,19.74,19.74,0,0,1,.85,2.41,17.6,17.6,0,0,1,.51,2.48,24.18,24.18,0,0,1,.19,2.94c0,1-.12,1.94-.23,2.89-.1.55-.17,1.1-.26,1.65a2,2,0,0,1,0-.24s0,0,0,.07,0,.17,0,.26a1.09,1.09,0,0,0,.14.51,1,1,0,0,0,.6.45,1.1,1.1,0,0,0,.77-.12,1,1,0,0,0,.46-.57,17.07,17.07,0,0,0,.28-4.33,23.34,23.34,0,0,0-.56-4.25,19.28,19.28,0,0,0-3.49-7.59.53.53,0,0,0-.33-.24.32.32,0,0,0-.14,0,.43.43,0,0,0-.25.07Z" style="fill:#161616"/><path d="M768,66.68a.69.69,0,0,1-.12.14.69.69,0,0,0,.12-.14Zm25.23-19.2a44.67,44.67,0,0,0-17.43,7.16A46.57,46.57,0,0,0,759,75a40.74,40.74,0,0,0-2.3,7.09,37.5,37.5,0,0,0-.34,15.64,1.5,1.5,0,0,0,1.48,1.1,1.56,1.56,0,0,0,1.11-.43,1.43,1.43,0,0,0,.44-1.07,43,43,0,0,1,0-10.75,42.81,42.81,0,0,1,2.92-10.34,44.93,44.93,0,0,1,5.79-9.65,46.26,46.26,0,0,1,8.06-7.88,44.39,44.39,0,0,1,9.44-5.42,43.5,43.5,0,0,1,8.61-2.48,1.67,1.67,0,0,0,1-.79,1.62,1.62,0,0,0,.18-1.34,1.8,1.8,0,0,0-.81-1,1.71,1.71,0,0,0-.86-.21,3,3,0,0,0-.51,0Z" style="fill:#161616"/><path d="M752.68,195.13l.05,0-.05,0Zm5.24-99.32A58.62,58.62,0,0,0,748.05,107a77.63,77.63,0,0,0-7.54,14.06,82.7,82.7,0,0,0-6.09,24,77.47,77.47,0,0,0-.42,8.07,65.75,65.75,0,0,0,.46,8,62.88,62.88,0,0,0,1.44,8.26,49.5,49.5,0,0,0,2.34,7.26,48.17,48.17,0,0,0,3.61,7.22,32.84,32.84,0,0,0,2.11,3,41.18,41.18,0,0,0,2.82,3.39,26.88,26.88,0,0,0,2.8,2.65c.63.53,1.27,1,1.95,1.5.51.39,1.06.7,1.62,1.06a.62.62,0,0,1,.11.09,2.66,2.66,0,0,0,1.14.31,2.32,2.32,0,0,0,1.62-.67,2.2,2.2,0,0,0,.65-1.55,2.14,2.14,0,0,0-.65-1.58,10.27,10.27,0,0,1-.77-.71c-.27-.29-.58-.57-.85-.86-.54-.53-1-1.05-1.55-1.6-1-1-1.9-2.1-2.78-3.22a47.15,47.15,0,0,1-6-10.08,60.31,60.31,0,0,1-4.12-15,77.73,77.73,0,0,1,.09-20.33,84.18,84.18,0,0,1,5.81-21.34,64.83,64.83,0,0,1,8.27-14.05,48.74,48.74,0,0,1,6.29-6.56,1.77,1.77,0,0,0,0-2.51,1.86,1.86,0,0,0-2.54,0" style="fill:#161616"/><path d="M780.91,243.65l.09.1-.09-.1Zm-.28-.21.18.14-.18-.14Zm-26-50.87a1.79,1.79,0,0,0-.88,1.12,48.54,48.54,0,0,0-.62,8.43,47.15,47.15,0,0,0,.83,8.1,50.27,50.27,0,0,0,5.28,14.64,61.64,61.64,0,0,0,9.38,12.82,79.13,79.13,0,0,0,12.52,10.72,91.86,91.86,0,0,0,14.4,8.22,100.88,100.88,0,0,0,15.91,5.73,91.58,91.58,0,0,0,15,2.7c2.38.21,4.74.31,7.13.31,1.16,0,2.31,0,3.49-.1s2.37-.16,3.55-.28a1.41,1.41,0,0,0,1-.41,1.31,1.31,0,0,0,.4-.95,1.35,1.35,0,0,0-.4-1,1.44,1.44,0,0,0-1-.41c-1.23.12-2.48.15-3.71.17s-2.64,0-3.93,0c-2.6-.1-5.19-.31-7.76-.65a96,96,0,0,1-23.59-6.4,94.7,94.7,0,0,1-20.74-11.75A73.7,73.7,0,0,1,767.78,231a56.67,56.67,0,0,1-7.2-12,47.57,47.57,0,0,1-3.27-11.7,46.66,46.66,0,0,1,0-12,5.67,5.67,0,0,0,.1-.57l.07-.5a1.94,1.94,0,0,0-.26-1,1.85,1.85,0,0,0-1.16-.86,1.75,1.75,0,0,0-.51-.07,1.77,1.77,0,0,0-1,.26Z" style="fill:#161616"/><path d="M838.58,263.9a1.54,1.54,0,0,0-.47,1.1,25.06,25.06,0,0,0-.11,3,26.81,26.81,0,0,0,.25,3.08,19.91,19.91,0,0,0,1.51,5.08,17.52,17.52,0,0,0,2.66,4.16,19.23,19.23,0,0,0,3.59,3.27,22.53,22.53,0,0,0,4,2.29,29,29,0,0,0,4.83,1.65,35.56,35.56,0,0,0,5.19.86,38.31,38.31,0,0,0,4.91.17,42.88,42.88,0,0,0,5.18-.53,30.52,30.52,0,0,0,4.47-1A29.38,29.38,0,0,0,879,285.3a20.08,20.08,0,0,0,3.58-2.27,12.76,12.76,0,0,0,2.6-2.79,8.66,8.66,0,0,0,.92-1.79,6,6,0,0,0,.44-1.44,8.16,8.16,0,0,0,.19-2,9,9,0,0,0-.33-2,10.91,10.91,0,0,0-.78-2.06,11.15,11.15,0,0,0-1.05-1.67,17,17,0,0,0-2-2.31,2,2,0,0,0-2.71,0,1.83,1.83,0,0,0-.58,1.33,1.91,1.91,0,0,0,.58,1.32c.23.26.46.54.67.81a12.11,12.11,0,0,1,1.53,2.48,7.77,7.77,0,0,1,.49,1.67,9.69,9.69,0,0,1,0,1.32,7.62,7.62,0,0,1-.37,1.26,8.84,8.84,0,0,1-.86,1.44,13.78,13.78,0,0,1-1.87,1.79,21.58,21.58,0,0,1-4.08,2.26,33.14,33.14,0,0,1-7.68,2,37.59,37.59,0,0,1-9.24,0,29.53,29.53,0,0,1-6.88-1.79,22.44,22.44,0,0,1-4.28-2.41,18.12,18.12,0,0,1-2.87-2.8,17.71,17.71,0,0,1-1.94-3.24,19.36,19.36,0,0,1-1.16-4.26,23.78,23.78,0,0,1,0-5.13,1.57,1.57,0,0,0-.46-1.1,1.7,1.7,0,0,0-1.13-.45,1.63,1.63,0,0,0-1.11.45Z" style="fill:#161616"/><path d="M920.51,270.8a3,3,0,0,0-.42.05,3,3,0,0,1,.42-.05Zm36-17.43c-.51.55-1.09,1.08-1.62,1.6s-1.11,1-1.69,1.53c-1.06,1-2.2,1.91-3.35,2.79a58.24,58.24,0,0,1-12.37,7,71.78,71.78,0,0,1-17.43,4.51c-1.85.24-3.73.43-5.63.55s-4.05.19-6.09.19a89.58,89.58,0,0,1-12-.79,90.94,90.94,0,0,1-15.54-3.41,1.32,1.32,0,0,0-1.6.91,1.29,1.29,0,0,0,.91,1.55A102.38,102.38,0,0,0,897,273.72a110.49,110.49,0,0,0,18.54,1,81.45,81.45,0,0,0,18.39-2.7,66.73,66.73,0,0,0,8.79-3.06,47.68,47.68,0,0,0,7.71-4.15,43.38,43.38,0,0,0,5-3.92,31.85,31.85,0,0,0,4.36-4.78.74.74,0,0,1,.11-.16,2,2,0,0,0,.3-1.08,2.1,2.1,0,0,0-.62-1.48,2.31,2.31,0,0,0-1.58-.62,2,2,0,0,0-1.48.62Z" style="fill:#161616"/><path d="M860.71,16.38A113.46,113.46,0,0,0,843,18.06a93.64,93.64,0,0,0-16.46,4.41,79.29,79.29,0,0,0-15.16,7.45A67.72,67.72,0,0,0,802.14,37a58.76,58.76,0,0,0-7.69,8.69,1.78,1.78,0,0,0-.19,1.46,1.93,1.93,0,0,0,.88,1.15,2,2,0,0,0,1.51.19,2.08,2.08,0,0,0,1.18-.89c.37-.5.76-1,1.16-1.52a55.91,55.91,0,0,1,9.84-9.6,68.6,68.6,0,0,1,14.91-8.43,94.14,94.14,0,0,1,22.92-6,117.6,117.6,0,0,1,29.58,0,107.93,107.93,0,0,1,26.3,6.9c.74.31,1.49.63,2.23,1s1.66.72,2.47,1.15a2.4,2.4,0,0,0,1.76.21,2.23,2.23,0,0,0,.56-4.11c-.53-.26-1.07-.57-1.6-.86l-1.78-.88C905,25,903.84,24.46,902.66,24c-2.62-1.09-5.26-2.07-8-2.91a102.75,102.75,0,0,0-16.28-3.56,121.78,121.78,0,0,0-16.07-1.12c-.55,0-1.11,0-1.64,0Z" style="fill:#161616"/><path d="M921.23,27.73q-5.88,0-11.74.43a2.21,2.21,0,0,0-1.46.59,2,2,0,0,0,0,2.87,2.13,2.13,0,0,0,1.46.6,130.76,130.76,0,0,1,13.43-.31A127.43,127.43,0,0,1,937.13,33a100.74,100.74,0,0,1,24.75,6.4,67.44,67.44,0,0,1,14.17,8,50.73,50.73,0,0,1,8.47,8.29,46.41,46.41,0,0,1,5.77,9.67c.92,2.19,1.67,4.44,2.38,6.71a2.53,2.53,0,0,0,4.19,1.07,2.32,2.32,0,0,0,.74-1.74,36.09,36.09,0,0,0-2-8.29,41.51,41.51,0,0,0-3.54-7.4,44.09,44.09,0,0,0-10.21-11.46,59.4,59.4,0,0,0-6.67-4.61,63.38,63.38,0,0,0-6.78-3.44,87.64,87.64,0,0,0-15.42-5,128.71,128.71,0,0,0-16.21-2.6c-5.09-.5-10.23-.76-15.37-.76Z" style="fill:#161616"/><path d="M994.5,72.17a2,2,0,0,0,0,2.79,78.11,78.11,0,0,1,5.49,6.19,81.78,81.78,0,0,1,10.49,17.76,91,91,0,0,1,6.25,22.81,87.27,87.27,0,0,1,.09,22.49,79.71,79.71,0,0,1-5.56,19.94,89.62,89.62,0,0,1-5.18,10.08c-1,1.7-2.11,3.35-3.24,5s-2.41,3.34-3.62,5a2.44,2.44,0,0,0,.4,3,2.57,2.57,0,0,0,1.78.72,2.61,2.61,0,0,0,1.78-.72,49.63,49.63,0,0,0,6.62-7.43,60.94,60.94,0,0,0,5-7.78,71,71,0,0,0,3.94-8.93,72.05,72.05,0,0,0,2.54-8.7,88.85,88.85,0,0,0,1.6-9.57,83,83,0,0,0,.55-9,87.8,87.8,0,0,0-1.92-18.65,82.27,82.27,0,0,0-2.36-8.84,95.09,95.09,0,0,0-3.42-8.91,92.12,92.12,0,0,0-8.92-15.88,86.6,86.6,0,0,0-9.4-11.29,1.89,1.89,0,0,0-1.41-.6,2.15,2.15,0,0,0-1.46.6Z" style="fill:#161616"/><path d="M996,186.32c0,1.19-.07,2.36-.12,3.55s-.06,2.56-.16,3.82c-.14,2.54-.37,5.07-.69,7.57a88.62,88.62,0,0,1-6,22,63.55,63.55,0,0,1-8,13.64,48.8,48.8,0,0,1-8.22,8.09,35.55,35.55,0,0,1-14.17,6.64,2.29,2.29,0,0,0-1.6,2.75,2.33,2.33,0,0,0,2.83,1.57,42.74,42.74,0,0,0,15-6.83,48.79,48.79,0,0,0,6.41-5.44,60.86,60.86,0,0,0,5.49-6.5,71,71,0,0,0,8.22-14.9,76.67,76.67,0,0,0,4.61-15.93,78.73,78.73,0,0,0,1.18-10.58c0-1.6,0-3.2,0-4.8a42.25,42.25,0,0,0-.62-5.13,2,2,0,0,0-.53-.91,2.15,2.15,0,0,0-1.49-.59,2.09,2.09,0,0,0-2.08,2Z" style="fill:#161616"/><path d="M849.94,283.7a1.72,1.72,0,0,0-1,.72,20.88,20.88,0,0,0-2.91,5.3,12.12,12.12,0,0,0-.65,4.58,9.53,9.53,0,0,0,1.36,4.13,9.3,9.3,0,0,0,1.35,1.72,12.53,12.53,0,0,0,1.69,1.48,16.4,16.4,0,0,0,3.91,2.06,21.36,21.36,0,0,0,4.19,1.1,24.48,24.48,0,0,0,9.38-.29,15.47,15.47,0,0,0,4-1.55,10.92,10.92,0,0,0,1.76-1.27,6.88,6.88,0,0,0,1.36-1.53,6.19,6.19,0,0,0,.93-1.76,7.69,7.69,0,0,0,.44-2,8.65,8.65,0,0,0-.14-2.15,9.5,9.5,0,0,0-.74-2.24,11.55,11.55,0,0,0-1.23-2,1,1,0,0,0-.39-.39,1.22,1.22,0,0,0-.86-.12,1.1,1.1,0,0,0-.76,1.34,16.51,16.51,0,0,1,.92,3.32,8.09,8.09,0,0,1,0,1.84,5.83,5.83,0,0,1-.34,1.24,6.21,6.21,0,0,1-.61,1,8.7,8.7,0,0,1-1.15,1.12,11,11,0,0,1-2.11,1.17,17.15,17.15,0,0,1-3.91,1,22.08,22.08,0,0,1-5.51,0,19.72,19.72,0,0,1-4.77-1.24,14.34,14.34,0,0,1-2.71-1.51,9.65,9.65,0,0,1-1.48-1.45,6.57,6.57,0,0,1-.86-1.41,7.18,7.18,0,0,1-.44-1.55,8.53,8.53,0,0,1,0-1.89,10.87,10.87,0,0,1,.79-2.68,21.11,21.11,0,0,1,2.25-3.77,1.45,1.45,0,0,0,.16-1.22,1.58,1.58,0,0,0-.72-.93,1.89,1.89,0,0,0-.81-.19,1.21,1.21,0,0,0-.42.05Z" style="fill:#161616"/><path d="M877.63,312.57a1.16,1.16,0,0,0,.35.84,2.07,2.07,0,0,0,.25.19,1.14,1.14,0,0,0,.63.16,18.33,18.33,0,0,1,3.61,1,13.39,13.39,0,0,1,2.71,1.53,9,9,0,0,1,1.5,1.45,6.79,6.79,0,0,1,.77,1.25,6,6,0,0,1,.3,1.12,5.46,5.46,0,0,1,0,1.07,7.73,7.73,0,0,1-.35,1.25,9.74,9.74,0,0,1-1,1.69,9.32,9.32,0,0,1-1.18,1.17,9.07,9.07,0,0,1-1.36.76,8,8,0,0,1-1.83.48,10.45,10.45,0,0,1-2.5,0,14.57,14.57,0,0,1-3.06-.83,15,15,0,0,1-2.75-1.58,10.76,10.76,0,0,1-1.69-1.62,6.35,6.35,0,0,1-.81-1.36,5.85,5.85,0,0,1-.33-1.08,7.22,7.22,0,0,1,0-.93,5.58,5.58,0,0,1,.26-.91,6,6,0,0,1,.62-1,8,8,0,0,1,1.39-1.34,18.2,18.2,0,0,1,1.85-1.15,1.54,1.54,0,0,0,.58-2.15,1.61,1.61,0,0,0-2.17-.57,15.12,15.12,0,0,0-3.29,2.32A10.53,10.53,0,0,0,869,315.6a5.41,5.41,0,0,0-.69,1.22,7.29,7.29,0,0,0-.47,1.41,6.1,6.1,0,0,0-.14,1.53,6.51,6.51,0,0,0,.21,1.46,9.7,9.7,0,0,0,.53,1.45A10.31,10.31,0,0,0,870,325a15,15,0,0,0,4.93,3.41,15,15,0,0,0,3.12,1,12.51,12.51,0,0,0,6.37-.26,11.61,11.61,0,0,0,1.53-.67,10.1,10.1,0,0,0,1.48-1,9,9,0,0,0,1-1,11.41,11.41,0,0,0,1.55-2.25,8.62,8.62,0,0,0,.77-2.24,9.31,9.31,0,0,0,.13-1.22,12.3,12.3,0,0,0-.11-1.34,6.5,6.5,0,0,0-.67-2,8.09,8.09,0,0,0-1.3-1.88,9.59,9.59,0,0,0-1.64-1.48,15.23,15.23,0,0,0-2-1.2,15.65,15.65,0,0,0-4.58-1.43,16,16,0,0,0-1.81-.17h-.05a1.22,1.22,0,0,0-1.18,1.22Z" style="fill:#161616"/><path d="M1116,330.37a16.94,16.94,0,0,0-2.55.24,10,10,0,0,0-3.08,1.15,9.82,9.82,0,0,0-1.43,1,8.16,8.16,0,0,0-1.28,1.43,6.36,6.36,0,0,0-.78,1.26,1.71,1.71,0,0,0-.14.27c-.7-.27-1.49-.55-2.43-.84a47.15,47.15,0,0,0-5.56-1.31,39.75,39.75,0,0,0-6.18-.62,2.32,2.32,0,0,0-.47,0c-.74,0-1.48.05-2.19.12a16.89,16.89,0,0,0-2.69.48,7.85,7.85,0,0,0-3.06,1.6,6,6,0,0,0-1,1.22,4.26,4.26,0,0,0-.56,1.55,1.27,1.27,0,0,0,0,.26,24.86,24.86,0,0,0-7.18-1.14,18,18,0,0,0-4.86.64,13,13,0,0,0-8.29,6.66,12.62,12.62,0,0,0-.88,2.51,12.91,12.91,0,0,0-.28,2.65,11.44,11.44,0,0,0,.35,2.7,12.75,12.75,0,0,0,1,2.58,13.63,13.63,0,0,0,1.57,2.36,11.24,11.24,0,0,0,1.9,1.87,15.21,15.21,0,0,0,1.74,1.21,9.53,9.53,0,0,0-1.83,2.15,4.84,4.84,0,0,0-.65,1.75,5.3,5.3,0,0,0,.07,2.1,6,6,0,0,0,.79,1.69,8.78,8.78,0,0,0,1.46,1.79,13.31,13.31,0,0,0,1.73,1.51,17.47,17.47,0,0,0,2.06,1.46,12.79,12.79,0,0,0,3.82,1.33,16.63,16.63,0,0,0,3.1.29c.4,0,.79,0,1.19-.05a30.89,30.89,0,0,0,8.84-2,60.44,60.44,0,0,0,8.13-3.7c1.25-.67,2.36-1.32,3.4-2a21.27,21.27,0,0,0,3.84,1.45,24,24,0,0,0,3.36.58c.72.07,1.5.12,2.31.12h.86a24.13,24.13,0,0,0,6.53-1.22,17.68,17.68,0,0,0,2-.81,9.11,9.11,0,0,0,0,1.48,12.86,12.86,0,0,0,.3,1.74,10.64,10.64,0,0,0,.67,1.72,9.51,9.51,0,0,0,4.54,4.27,12.69,12.69,0,0,0,5.35,1.17h.16a21,21,0,0,0-.74,2,23.65,23.65,0,0,0-.83,6.16,17.76,17.76,0,0,0,.32,3.25,17.38,17.38,0,0,0,4.07,8.46,10.77,10.77,0,0,0,1.07,1,7.83,7.83,0,0,0,.88.71,1.73,1.73,0,0,0,.83.58l.16,0a1.92,1.92,0,0,0,.75.14,2,2,0,0,0,1.36-.55,1.89,1.89,0,0,0,.56-1.33,1.75,1.75,0,0,0-.33-1.05c.12-.34.26-.67.4-1a12.15,12.15,0,0,1,1.32-2.32,9.92,9.92,0,0,1,1.13-1.12,6.45,6.45,0,0,1,1.07-.62,7.92,7.92,0,0,1,1.06-.29l.58,0,.62,0a10.07,10.07,0,0,1,1.56.43,12.18,12.18,0,0,1,1.89,1.1,13.66,13.66,0,0,1,2,2,14.72,14.72,0,0,1,1.78,3,13.22,13.22,0,0,1,.86,3.06,10.17,10.17,0,0,1,0,2.7,13.81,13.81,0,0,1-.67,2.48,11.93,11.93,0,0,1-1.39,2.27,15.58,15.58,0,0,1-2.36,2.29,23.15,23.15,0,0,1-4.65,2.58l-1.14.43a2.25,2.25,0,0,0-1.23.91,2,2,0,0,0-.18,1.53,1.94,1.94,0,0,0,.93,1.19,2.2,2.2,0,0,0,1,.26,1.75,1.75,0,0,0,.51-.07,32.09,32.09,0,0,0,4.21-1.77,23.61,23.61,0,0,0,3.33-2.19,13.78,13.78,0,0,0,2.27-2.18,14.73,14.73,0,0,0,1.83-2.62,13.45,13.45,0,0,0,1.46-4.95l.21,0a13.69,13.69,0,0,0,3.33-1.22,17.6,17.6,0,0,0,3-2,13.9,13.9,0,0,0,2.17-2.17,15.15,15.15,0,0,0,1.9-2.87,13.36,13.36,0,0,0,.16-11.91,16.47,16.47,0,0,0,4-5.26,16.66,16.66,0,0,0,.81-2.05,14.25,14.25,0,0,0,.44-2.22,14.05,14.05,0,0,0-.07-3.92,16.21,16.21,0,0,0-2.87-7,21.57,21.57,0,0,0-6.2-5.76,27,27,0,0,0-3.73-1.86l-.12-.05,0,0a23.6,23.6,0,0,0-1.46-3.42,41,41,0,0,0-3.06-5.08,65.68,65.68,0,0,0-4.17-5.4,46,46,0,0,0-4.6-4.66,25.53,25.53,0,0,0-5-3.44,11.58,11.58,0,0,0-5.17-1.41h-.07a6.87,6.87,0,0,0-2.33.41,7.3,7.3,0,0,0-1.25.57,7,7,0,0,0-1.18.89,5.24,5.24,0,0,0-.79.83,13.62,13.62,0,0,0-.88,1.22,20.17,20.17,0,0,0-4.93-3.34,19.79,19.79,0,0,0-3.52-1.36,16.5,16.5,0,0,0-3.64-.65c-.3,0-.6-.05-.92-.05Z" style="fill:#161616"/><path d="M1075.86,364.47a82.79,82.79,0,0,0-2.85,9.6,73.84,73.84,0,0,0-1.59,10.27,66.46,66.46,0,0,0-.12,10.27c.12,1.72.28,3.42.51,5.14.12.81.26,1.62.42,2.41a16.9,16.9,0,0,0,.72,2.55,1.77,1.77,0,0,0,.83,1.08,1.83,1.83,0,0,0,2.68-2c-.37-1.51-.78-3-1.15-4.49a44.34,44.34,0,0,1-.88-4.54,62.05,62.05,0,0,1,.18-16.45,71.48,71.48,0,0,1,3.15-13.3,1,1,0,0,0-.69-1.2,1.18,1.18,0,0,0-.26,0,1,1,0,0,0-1,.71Z" style="fill:#161616"/><path d="M1072.92,402.8a17.83,17.83,0,0,0-1.71,1.77c-.67.81-1.27,1.65-1.85,2.51a30.13,30.13,0,0,0-2.87,5.59,16.3,16.3,0,0,0-1.23,5.44,5.73,5.73,0,0,0,1.78,4.61,4.77,4.77,0,0,0,.81.57,6.28,6.28,0,0,0,1.07.46,7.71,7.71,0,0,0,1.2.21,5.43,5.43,0,0,0,.9.05,10.47,10.47,0,0,0,2.43-.34,16.31,16.31,0,0,0,3-1.05,1.81,1.81,0,0,0,.65-.64,2,2,0,0,0,.21-1.41,1.89,1.89,0,0,0-2.29-1.27,22.36,22.36,0,0,1-3.34.84,8.58,8.58,0,0,1-1.34.05l-.53-.15-.28-.14a.86.86,0,0,0-.19-.19c-.07-.12-.14-.24-.2-.36a3.59,3.59,0,0,1-.21-.76,10.48,10.48,0,0,1,0-1.94,19.25,19.25,0,0,1,1.3-4.37,26.69,26.69,0,0,1,3.22-5.44,15.53,15.53,0,0,1,1.71-1.82,1.55,1.55,0,0,0,0-2.22,1.7,1.7,0,0,0-1.13-.45,1.72,1.72,0,0,0-1.14.45Z" style="fill:#161616"/><path d="M1074.06,421.09a1.38,1.38,0,0,0-.72.94,30.68,30.68,0,0,0,.53,14.47,17.32,17.32,0,0,0,2.62,5.2,17.63,17.63,0,0,0,1.94,2.3,22.19,22.19,0,0,0,2.34,1.95,19.72,19.72,0,0,0,5.19,2.75,25.27,25.27,0,0,0,5.6,1.41,45.71,45.71,0,0,0,6.71.5,52.57,52.57,0,0,0,7.09-.6,56.35,56.35,0,0,0,13-3.44,48.58,48.58,0,0,0,6.46-3,34.65,34.65,0,0,0,5.53-3.78,2.13,2.13,0,0,0,.58-1,2.21,2.21,0,0,0-.23-1.72,2.32,2.32,0,0,0-3.08-.79c-2.89,1.55-5.83,3-8.84,4.27a71,71,0,0,1-8,2.75,61.64,61.64,0,0,1-8.34,1.79,43.9,43.9,0,0,1-10.56.15,29,29,0,0,1-6.5-1.68,19,19,0,0,1-3.66-2.05,15.36,15.36,0,0,1-2.41-2.36,17.44,17.44,0,0,1-1.9-3.23,17.85,17.85,0,0,1-1.2-4.46,29.82,29.82,0,0,1,.09-7.55c0-.38.1-.74.16-1.12a1.67,1.67,0,0,0-.16-1.2,1.52,1.52,0,0,0-1-.71,1.15,1.15,0,0,0-.41-.05,1.66,1.66,0,0,0-.81.21Z" style="fill:#161616"/><path d="M1140.36,417.39c.3,6.93.88,13.83,1.3,20.76.18,3.46.32,6.94.32,10.41,0,1.74-.07,3.46-.16,5.2l-.21,2.56c-.09.83-.21,1.67-.23,2.51a2.27,2.27,0,0,0,1.67,2.14,2.34,2.34,0,0,0,1.76-.21,2.21,2.21,0,0,0,1-1.34,32.28,32.28,0,0,0,.32-5.2c0-1.72,0-3.47-.09-5.19-.11-3.55-.37-7.09-.69-10.65-.63-7-1.55-14-1.92-21a1.59,1.59,0,0,0-1.56-1.53,1.54,1.54,0,0,0-1.55,1.53Z" style="fill:#161616"/><path d="M1123.86,440.13a1.2,1.2,0,0,0-.86,1.45c.65,1.75,1.2,3.49,1.69,5.28a47.78,47.78,0,0,1,1.13,5.57,32.21,32.21,0,0,1,.28,3.79,27.42,27.42,0,0,1-.23,4.16c0,.31-.09.59-.14.88a3.15,3.15,0,0,0,0,.43,1.61,1.61,0,0,0,.21.79,1.54,1.54,0,0,0,1,.72,1.65,1.65,0,0,0,1.25-.15,1.6,1.6,0,0,0,.74-.95,32,32,0,0,0-.4-10.77,62.81,62.81,0,0,0-3.12-10.37,1.29,1.29,0,0,0-.56-.71,1.26,1.26,0,0,0-.62-.15,1,1,0,0,0-.3,0Z" style="fill:#161616"/><path d="M1122.54,471.12a.47.47,0,0,0-.1.1.47.47,0,0,1,.1-.1Zm24.4-12.34c-1.51.12-3,.31-4.52.52a50.2,50.2,0,0,0-8.1,2,49.06,49.06,0,0,0-7.64,3.27,40.73,40.73,0,0,0-7.08,4.82,1.51,1.51,0,0,0-.49,1.13,1.53,1.53,0,0,0,.49,1.12,1.68,1.68,0,0,0,2.29,0l.76-.6a39.53,39.53,0,0,1,8.52-4.82,43.71,43.71,0,0,1,5.84-1.89,51.7,51.7,0,0,1,6.06-1.12c1.21-.17,2.43-.26,3.64-.36,1.41-.12,2.82-.14,4.21-.26l.53-.07a2.13,2.13,0,0,0,.88-.5,2,2,0,0,0,.58-1.39,1.93,1.93,0,0,0-.58-1.39,2.22,2.22,0,0,0-1.41-.57c-.42,0-.86,0-1.27,0-.91,0-1.81,0-2.71.12Z" style="fill:#161616"/><path d="M1117.84,471.89a1.15,1.15,0,0,0,0,1.65,31.63,31.63,0,0,1,4.35,4.46,29.56,29.56,0,0,1,1.94,2.8,24.81,24.81,0,0,1,1.6,3.12c.51,1.2.93,2.44,1.37,3.66a1.46,1.46,0,0,0,1.8,1,1.44,1.44,0,0,0,1-1.77,21,21,0,0,0-1.69-4.25,35.67,35.67,0,0,0-2.43-3.94,34.8,34.8,0,0,0-6.27-6.73,1.26,1.26,0,0,0-.86-.36,1.23,1.23,0,0,0-.83.36Z" style="fill:#161616"/><path d="M1150.41,464.41a34.12,34.12,0,0,0-7,4.4,49.51,49.51,0,0,0-5.9,5.59,76.46,76.46,0,0,0-9.64,13.44,1.71,1.71,0,0,0,.63,2.32,1.76,1.76,0,0,0,2.36-.63,79.31,79.31,0,0,1,6-8.83,54.88,54.88,0,0,1,9.26-9.27,45.72,45.72,0,0,1,6.23-3.84,1.84,1.84,0,0,0,.67-2.53,1.81,1.81,0,0,0-1.11-.84l-.51-.07a2,2,0,0,0-.95.26Z" style="fill:#161616"/><path d="M1116.63,474.49l-.41.17a1.81,1.81,0,0,0-.63.6,26.76,26.76,0,0,0-1.9,2.86,1.7,1.7,0,0,0,.6,2.32,1.77,1.77,0,0,0,2.37-.62,32.28,32.28,0,0,1,1.92-2.85,1.69,1.69,0,0,0-.63-2.31,1.79,1.79,0,0,0-.88-.24,1.35,1.35,0,0,0-.44.07Z" style="fill:#161616"/><path d="M1113.88,480a1.72,1.72,0,0,0-1.23,2.1,58.41,58.41,0,0,1,2.52,10.7,83.35,83.35,0,0,1-.14,21.75,143.44,143.44,0,0,1-3.35,16.29c-.72,2.65-1.46,5.3-2.27,7.93-.37,1.24-.76,2.48-1.16,3.72l-.55,1.87c-.21.66-.4,1.36-.61,2a2.34,2.34,0,0,0,1.67,2.89,2.39,2.39,0,0,0,2.92-1.62c.3-.81.65-1.6,1-2.39s.62-1.77.92-2.65q.84-2.61,1.58-5.25c1-3.63,1.85-7.29,2.52-11a120.61,120.61,0,0,0,2-22.92,76.93,76.93,0,0,0-1-11.54,64,64,0,0,0-2.68-10.7,1.86,1.86,0,0,0-.81-1,1.74,1.74,0,0,0-.88-.22,3.29,3.29,0,0,0-.44,0Z" style="fill:#161616"/><path d="M1182.61,524.59a1,1,0,0,1,.05.29,1,1,0,0,0-.05-.29Zm-28.17-59.87a1.48,1.48,0,0,0-1.07,1.84,1.63,1.63,0,0,0,.7.89c.37.26.74.55,1.11.81a50.69,50.69,0,0,1,5.19,4.61,59.56,59.56,0,0,1,4.74,5.3,75,75,0,0,1,9.61,16.26c1,2.32,1.92,4.71,2.73,7.09.86,2.53,1.55,5.09,2.2,7.67a148.8,148.8,0,0,1,2.94,15.23c.65,4.71,1.07,9.46,1.34,14.19.14,2.34.24,4.68.35,7,0,1.14.12,2.29.19,3.41,0,.57.07,1.12.09,1.7,0,.28,0,.55.07.83a8.71,8.71,0,0,1,.09,1,2.14,2.14,0,0,0,3.64,1.48,2.07,2.07,0,0,0,.62-1.36,39.08,39.08,0,0,0,.63-4.3c.14-1.43.23-2.86.27-4.3.07-2.93,0-5.89-.25-8.83-.21-3.23-.63-6.45-1.11-9.63s-1-6.09-1.74-9.09-1.55-6-2.52-8.94-2.06-5.85-3.22-8.71a95.11,95.11,0,0,0-8.54-16.38,70.13,70.13,0,0,0-7.6-9.63,60.5,60.5,0,0,0-9.3-8,1.21,1.21,0,0,0-.74-.19,2.61,2.61,0,0,0-.42,0Z" style="fill:#161616"/><path d="M1156.66,546.47v0Zm-5.81-35.68a1.16,1.16,0,0,0-.44,1.6,34.61,34.61,0,0,1,3.77,6.64,40.65,40.65,0,0,1,1.93,5.42,55,55,0,0,1,1.13,5.63,46.26,46.26,0,0,1,.42,6.64,57.41,57.41,0,0,1-.51,6.55c-.19,1.24-.4,2.48-.56,3.72,0-.17.05-.36.07-.52,0,0,0,.09,0,.14s-.05.38-.07.6a2.19,2.19,0,0,0,.3,1.12,2.35,2.35,0,0,0,1.37,1,2.42,2.42,0,0,0,1.76-.24,2.19,2.19,0,0,0,1-1.34,40.51,40.51,0,0,0,.62-9.77,55.69,55.69,0,0,0-1.25-9.62,46.22,46.22,0,0,0-3.08-9,43.35,43.35,0,0,0-4.84-8.15,1.26,1.26,0,0,0-.71-.52,1.88,1.88,0,0,0-.33-.05,1.09,1.09,0,0,0-.6.17Z" style="fill:#161616"/><path d="M1091.65,375a10.14,10.14,0,0,0-2.64.62,11.93,11.93,0,0,0-4.56,3.17,1.39,1.39,0,0,0-.44,1,1.37,1.37,0,0,0,.44,1,1.46,1.46,0,0,0,2,0,11.46,11.46,0,0,1,1.34-1.27,11.28,11.28,0,0,1,1.69-1,14,14,0,0,1,1.9-.5,11.18,11.18,0,0,1,1.83,0,9.38,9.38,0,0,1,1.78.48,9.14,9.14,0,0,1,1.58.91,8.64,8.64,0,0,1,1.39,1.38,13.54,13.54,0,0,1,1.25,2.05,1.59,1.59,0,0,0,1.75.7,1.52,1.52,0,0,0,1.09-1.87,9.54,9.54,0,0,0-3.17-4.56,8.86,8.86,0,0,0-2.17-1.33,9.69,9.69,0,0,0-2.57-.74,9.58,9.58,0,0,0-1.51-.1,7,7,0,0,0-1,0Z" style="fill:#161616"/><path d="M1084.59,387.52a1.11,1.11,0,0,0-.65.48,1,1,0,0,0-.11.83,1.09,1.09,0,0,0,1.34.74,10.37,10.37,0,0,1,1.94-.47,10,10,0,0,1,2.25,0,10.77,10.77,0,0,1,2.22.62,11.62,11.62,0,0,1,2.25,1.29,13.93,13.93,0,0,1,2.29,2.25,18,18,0,0,1,2,3.48,17.63,17.63,0,0,1,1.2,4.33,17.34,17.34,0,0,1,.07,3.6,1.33,1.33,0,0,0,1,1.29,1.44,1.44,0,0,0,1.06-.12,1.38,1.38,0,0,0,.63-.81,14.15,14.15,0,0,0-.54-7.12,18,18,0,0,0-3.75-6.49,15.32,15.32,0,0,0-2.68-2.39,12.29,12.29,0,0,0-3.24-1.62,9.75,9.75,0,0,0-3.36-.55,11.91,11.91,0,0,0-4,.69Z" style="fill:#161616"/><path d="M1083.39,393.63c0,.93.09,1.87.11,2.8s0,1.88.16,2.81a3,3,0,0,0,0,.43,1.57,1.57,0,0,0,.42.7,1.68,1.68,0,0,0,1.18.47,1.7,1.7,0,0,0,1.18-.47,1.6,1.6,0,0,0,.46-1.13c0-.95,0-1.88,0-2.81s-.14-1.87-.19-2.8a1.57,1.57,0,0,0-.49-1.14,1.69,1.69,0,0,0-1.18-.48,1.64,1.64,0,0,0-1.66,1.62Z" style="fill:#161616"/><path d="M1079.84,426.35a1.55,1.55,0,0,0-1.06.43,1.46,1.46,0,0,0-.46,1.07,1.49,1.49,0,0,0,1.52,1.48,10.89,10.89,0,0,1,1.51.05,12.19,12.19,0,0,1,2.22.62,12.48,12.48,0,0,1,2.32,1.34,12,12,0,0,1,2.06,2,12.51,12.51,0,0,1,1.36,2.24,9.43,9.43,0,0,1,.58,2,8,8,0,0,1,0,1.55,6.82,6.82,0,0,1-.37,1.34,8.16,8.16,0,0,1-.69,1.17,9.37,9.37,0,0,1-1.25,1.19,13.77,13.77,0,0,1-1.55,1,1.16,1.16,0,0,0-.54,1.29,1.19,1.19,0,0,0,1.44.79,10.54,10.54,0,0,0,3.61-2.1,7.36,7.36,0,0,0,2-3,8,8,0,0,0,.35-1.67,7.13,7.13,0,0,0,0-1.6,11.73,11.73,0,0,0-.3-1.74,17.49,17.49,0,0,0-.7-1.82,13,13,0,0,0-2-3,15.22,15.22,0,0,0-2.83-2.48,13.7,13.7,0,0,0-3.42-1.6,11.3,11.3,0,0,0-1.65-.38,14.72,14.72,0,0,0-1.76-.12Z" style="fill:#161616"/></g></g><g id="CareerPlaybook"><path d="M142.73,144.92h-6.28l-2.62,16h-7.78l2.62-16H120v-7.15h9.84l1.72-10.31h-8.63v-7.15h9.8l2.7-16.25h7.73l-2.65,16.25h6.29l2.69-16.25h7.78l-2.7,16.25h9v7.15H153.4l-1.72,10.31h8.94v7.15H150.51l-2.62,16h-7.77Zm-5.11-7.15h6.29l1.71-10.31h-6.28Z" style="fill:#da2222"/><path d="M213.24,141.76l.08.23q.15,9.73-5.49,14.75t-16,5q-10.56,0-16.94-6.45t-6.38-16.87V126.56q0-10.38,6.15-16.85t16.27-6.47q10.81,0,16.74,5t5.76,14.65l-.12.23H200.47q0-5.23-2.23-7.5c-1.48-1.51-3.92-2.26-7.3-2.26A7.73,7.73,0,0,0,184.1,117q-2.39,3.59-2.38,9.51v12q0,6,2.62,9.57a8.72,8.72,0,0,0,7.5,3.59q4.53,0,6.54-2.26t2-7.58Z" style="fill:#da2222"/><path d="M244.26,160.9a15.65,15.65,0,0,1-1.27-3,23,23,0,0,1-.8-3.51,16.18,16.18,0,0,1-4.24,5.37,10.23,10.23,0,0,1-6.58,2q-6.65,0-10.33-3.42t-3.7-9.32a11.27,11.27,0,0,1,4.73-9.7q4.73-3.42,14.34-3.42h5.43v-3a6,6,0,0,0-1.29-4.14,5,5,0,0,0-4-1.45,4.76,4.76,0,0,0-3.42,1.08,4.47,4.47,0,0,0-1.11,3.34l-12.81,0-.08-.23q-.27-5.79,4.82-9.67t13.46-3.89c5.24,0,9.47,1.3,12.72,3.91S255,128.12,255,133v15.94a32.33,32.33,0,0,0,.57,6.25,33.46,33.46,0,0,0,1.69,5.78Zm-9.3-8.56a8,8,0,0,0,4.28-1.13,6.54,6.54,0,0,0,2.6-2.69v-5.59h-5.32q-3.17,0-4.57,1.52a5.53,5.53,0,0,0-1.4,3.87,3.73,3.73,0,0,0,1.23,2.91A4.57,4.57,0,0,0,235,152.34Z" style="fill:#da2222"/><path d="M285.62,129.92l-4.29,0a7.3,7.3,0,0,0-3.71.84,5.15,5.15,0,0,0-2.15,2.37v27.85h-13.2V118.67h12.42l.47,6.21a12.64,12.64,0,0,1,3.51-5.15,7.7,7.7,0,0,1,5.12-1.84,9.57,9.57,0,0,1,1.6.12,12.17,12.17,0,0,1,1.49.35Z" style="fill:#da2222"/><path d="M308.48,161.76q-9.62,0-15.06-5.82A20.71,20.71,0,0,1,288,141.21v-1.48q0-9.69,5.14-15.78T308,117.89q8.55,0,13.26,5.12t4.71,14V144H301.72l-.08.23a8.24,8.24,0,0,0,2.46,5.37,8.58,8.58,0,0,0,6.17,2,27.13,27.13,0,0,0,6.31-.62,39.19,39.19,0,0,0,5.76-2l3.17,8.05a24.12,24.12,0,0,1-7.35,3.36A33.9,33.9,0,0,1,308.48,161.76ZM308,128.05a5.45,5.45,0,0,0-4.67,2,10.15,10.15,0,0,0-1.74,5.45l.08.19h11.41v-1a8.76,8.76,0,0,0-1.16-5A4.39,4.39,0,0,0,308,128.05Z" style="fill:#da2222"/><path d="M350.27,161.76q-9.6,0-15.06-5.82t-5.44-14.73v-1.48q0-9.69,5.13-15.78t14.87-6.06q8.55,0,13.26,5.12t4.7,14V144H343.52l-.08.23a8.24,8.24,0,0,0,2.46,5.37,8.58,8.58,0,0,0,6.17,2,27.13,27.13,0,0,0,6.31-.62,39.19,39.19,0,0,0,5.76-2L367.3,157a24.06,24.06,0,0,1-7.34,3.36A33.92,33.92,0,0,1,350.27,161.76Zm-.5-33.71a5.45,5.45,0,0,0-4.67,2,10.07,10.07,0,0,0-1.74,5.45l.08.19h11.4v-1a8.76,8.76,0,0,0-1.15-5A4.42,4.42,0,0,0,349.77,128.05Z" style="fill:#da2222"/><path d="M396.68,129.92l-4.3,0a7.3,7.3,0,0,0-3.71.84,5.21,5.21,0,0,0-2.15,2.37v27.85h-13.2V118.67h12.42l.47,6.21a12.75,12.75,0,0,1,3.52-5.15,7.66,7.66,0,0,1,5.11-1.84,9.7,9.7,0,0,1,1.61.12,12,12,0,0,1,1.48.35Z" style="fill:#da2222"/><path d="M415.51,141.45v19.49H402.3V104.06H424q10.13,0,16.06,5.16a18.41,18.41,0,0,1,0,27.09q-5.94,5.13-16.06,5.14Zm0-10.16H424q4.31,0,6.57-2.36a8.43,8.43,0,0,0,2.26-6.08,8.82,8.82,0,0,0-2.24-6.21q-2.25-2.42-6.59-2.42h-8.51Z" style="fill:#da2222"/><path d="M466.37,160.94H453.12V100h13.25Z" style="fill:#da2222"/><path d="M498.87,160.9a15.65,15.65,0,0,1-1.27-3,23,23,0,0,1-.8-3.51,16.18,16.18,0,0,1-4.24,5.37,10.25,10.25,0,0,1-6.58,2q-6.64,0-10.34-3.42A12.08,12.08,0,0,1,472,149a11.27,11.27,0,0,1,4.73-9.7q4.72-3.42,14.34-3.42h5.43v-3a6,6,0,0,0-1.29-4.14,5,5,0,0,0-4-1.45,4.76,4.76,0,0,0-3.42,1.08,4.47,4.47,0,0,0-1.11,3.34l-12.81,0-.08-.23q-.27-5.79,4.82-9.67t13.46-3.89q7.85,0,12.72,3.91T509.65,133v15.94a33.17,33.17,0,0,0,.56,6.25,34.42,34.42,0,0,0,1.7,5.78Zm-9.3-8.56a8,8,0,0,0,4.28-1.13,6.54,6.54,0,0,0,2.6-2.69v-5.59h-5.32q-3.17,0-4.57,1.52a5.48,5.48,0,0,0-1.4,3.87,3.73,3.73,0,0,0,1.23,2.91A4.57,4.57,0,0,0,489.57,152.34Z" style="fill:#da2222"/><path d="M532.66,142.3l0,.32h.23l7-24H554l-16.83,48.56a23.23,23.23,0,0,1-5,7.73q-3.09,3-9.81,3a14.46,14.46,0,0,1-2.81-.22c-.73-.14-1.87-.41-3.44-.8l1.61-9.41.82.17a3.31,3.31,0,0,0,.7.06,8.69,8.69,0,0,0,4.57-.92,5.47,5.47,0,0,0,2.15-2.75l1.05-2.73-14.61-42.74h14Z" style="fill:#da2222"/><path d="M596.56,140.7q0,9.66-4.14,15.35t-12.26,5.71a11.84,11.84,0,0,1-6-1.49,13.05,13.05,0,0,1-4.41-4.29l-.78,5H557.42V100h13.2v22.77a12.9,12.9,0,0,1,4.09-3.61,11,11,0,0,1,5.37-1.27q8.16,0,12.32,6t4.16,16Zm-13.16-.82a21.67,21.67,0,0,0-1.41-8.73,5.22,5.22,0,0,0-5.23-3.1,7.82,7.82,0,0,0-3.69.8,6,6,0,0,0-2.45,2.32V149a5.82,5.82,0,0,0,2.49,2,9.43,9.43,0,0,0,3.73.66q3.9,0,5.23-2.71t1.33-8.19Z" style="fill:#da2222"/><path d="M600.62,139.41q0-9.53,5.4-15.52t15-6q9.69,0,15.08,6t5.39,15.52v.82q0,9.59-5.39,15.55t-15,6q-9.72,0-15.11-6t-5.4-15.55Zm13.21.82a17.39,17.39,0,0,0,1.66,8.34c1.1,2,3,3,5.64,3a5.83,5.83,0,0,0,5.55-3,17.3,17.3,0,0,0,1.68-8.32v-.82a17.4,17.4,0,0,0-1.68-8.26,5.89,5.89,0,0,0-5.63-3.1,5.79,5.79,0,0,0-5.56,3.12,17.56,17.56,0,0,0-1.66,8.24Z" style="fill:#da2222"/><path d="M645.59,139.41q0-9.53,5.39-15.52t15-6q9.68,0,15.07,6t5.39,15.52v.82q0,9.59-5.39,15.55t-15,6q-9.72,0-15.11-6t-5.39-15.55Zm13.2.82a17.39,17.39,0,0,0,1.66,8.34,5.91,5.91,0,0,0,5.64,3,5.83,5.83,0,0,0,5.55-3,17.3,17.3,0,0,0,1.68-8.32v-.82a17.4,17.4,0,0,0-1.68-8.26,5.87,5.87,0,0,0-5.62-3.1,5.81,5.81,0,0,0-5.57,3.12,17.56,17.56,0,0,0-1.66,8.24Z" style="fill:#da2222"/><path d="M707.89,144.14h-2.38v16.8H692.3V100h13.21v34.18h1.87l8.91-15.51h15.12l-13,19.06,15.15,23.21h-15Z" style="fill:#da2222"/></g></svg>