<svg id="Layer_1" data-name="Layer 1" xmlns="http://www.w3.org/2000/svg" viewBox="0 0 1400 600"><rect id="White" width="1400" height="600" style="fill:#fff"/><path d="M291.4,159.3v13.6h-15V159.3h-9.6v13.6h-15V159.3h-8V146.4h8v-17h-8V116.5h8V102.89h15V116.5h9.6V102.89h15V116.5h8v12.9h-8v17h8v12.9ZM277,128.8H266.2V147H277Z" style="fill:#da2222"/><path d="M331.1,174c-16.4,0-24.7-12.5-24.7-36,0-24.3,9.3-36.21,24.9-36.21,14.7,0,19.8,8.41,22.5,21.81L337.6,128c-1.2-7.8-2.3-11.8-6.4-11.8-5.4,0-7.5,5.7-7.5,21.6,0,16.1,2.1,21.8,7.7,21.8,3.9,0,5.2-2.8,7.1-11.4l15.5,5.3C350.9,166.2,345,174,331.1,174Z" style="fill:#da2222"/><path d="M382,172.9v-3a14.83,14.83,0,0,1-10.1,4.1c-8.7,0-13.6-5.8-13.6-17.7,0-11.5,5.7-17.3,15.4-17.3a18.38,18.38,0,0,1,8.3,1.7v-4.1c0-3.8-1.6-5.2-5.3-5.2-4.1,0-7.5,1.2-11.9,4l-4.4-10.7a35.51,35.51,0,0,1,18.8-5.4c12.3,0,17.9,5.5,17.9,16.7v36.9Zm0-22.4a10.58,10.58,0,0,0-5.2-1.1c-2.7,0-4.1,1.8-4.1,6.7,0,4.4,1.2,6.5,4.2,6.5a8,8,0,0,0,5.1-1.7Z" style="fill:#da2222"/><path d="M432.9,136.8c-2-1.9-3.9-3.1-6.7-3.1-3.1,0-5.2,1.3-5.8,5.1v34.1H405V120.4h15.4v3.2c2.4-2.6,5.2-4.3,8.8-4.3a12.91,12.91,0,0,1,6.4,1.4Z" style="fill:#da2222"/><path d="M452.1,151.1c.4,8.4,2.6,10.8,6.1,10.8,3.1,0,5.3-1.3,8.5-5.9l9.1,7.2c-4.4,6.5-9.4,10.8-18.3,10.8-13.1,0-19.8-10.3-19.8-27.1,0-18,7.1-27.6,19.8-27.6,12.4,0,19.2,9.3,19.2,28.1v3.7Zm5.1-20.2c-3.1,0-4.6,2.4-5.1,10.1h10.6C462.3,133.7,460.8,130.9,457.2,130.9Z" style="fill:#da2222"/><path d="M496.5,151.1c.4,8.4,2.6,10.8,6.1,10.8,3.1,0,5.3-1.3,8.5-5.9l9.1,7.2c-4.4,6.5-9.4,10.8-18.3,10.8-13.1,0-19.8-10.3-19.8-27.1,0-18,7.1-27.6,19.8-27.6,12.4,0,19.2,9.3,19.2,28.1v3.7Zm5.1-20.2c-3.1,0-4.6,2.4-5.1,10.1h10.6C506.7,133.7,505.2,130.9,501.6,130.9Z" style="fill:#da2222"/><path d="M555.8,136.8c-2-1.9-3.9-3.1-6.7-3.1-3.1,0-5.2,1.3-5.8,5.1v34.1H527.9V120.4h15.4v3.2c2.4-2.6,5.2-4.3,8.8-4.3a12.91,12.91,0,0,1,6.4,1.4Z" style="fill:#da2222"/><path d="M587.2,147.5h-6v25.4H564.8v-70h23.6c12.5,0,21.7,5.61,21.7,21.81C610.1,141.3,600.6,147.5,587.2,147.5Zm-.3-31h-5.7v17.4h5.4c4.8,0,6.9-2.5,6.9-8.8S591.6,116.5,586.9,116.5Z" style="fill:#da2222"/><path d="M616.7,172.9V106l15.4-6V172.9Z" style="fill:#da2222"/><path d="M662.8,172.9v-3a14.83,14.83,0,0,1-10.1,4.1c-8.71,0-13.61-5.8-13.61-17.7,0-11.5,5.7-17.3,15.41-17.3a18.38,18.38,0,0,1,8.3,1.7v-4.1c0-3.8-1.6-5.2-5.3-5.2-4.1,0-7.5,1.2-11.91,4l-4.4-10.7A35.55,35.55,0,0,1,660,119.3c12.3,0,17.9,5.5,17.9,16.7v36.9Zm0-22.4a10.58,10.58,0,0,0-5.2-1.1c-2.7,0-4.1,1.8-4.1,6.7,0,4.4,1.2,6.5,4.2,6.5a8,8,0,0,0,5.1-1.7Z" style="fill:#da2222"/><path d="M706.4,191.4H691.5l5.59-17-15.5-54H697.7l2.59,13.1A194,194,0,0,1,704,158.2a202.35,202.35,0,0,1,3.7-24.8l2.6-13h16Z" style="fill:#da2222"/><path d="M756.29,174c-4,0-7-1.9-9.4-4v2.9h-15.4V106l15.4-6V123.5c2.61-2.4,5.4-4.2,9.81-4.2,8.9,0,14.2,8.7,14.2,27.1C770.9,165.4,765.7,174,756.29,174Zm-5-41.7a6.5,6.5,0,0,0-4.4,1.8v25a6.24,6.24,0,0,0,4.5,1.9c2.81,0,4.21-1.8,4.21-14.2C755.6,134.2,754.2,132.3,751.29,132.3Z" style="fill:#da2222"/><path d="M796.59,174c-12.7,0-20.2-9.3-20.2-27.2s7-27.5,20.4-27.5c12.91,0,20.31,9.3,20.31,27.2S809.8,174,796.59,174Zm.1-41.8c-3.6,0-5,3.5-5,14.3s1.4,14.6,5.1,14.6c3.5,0,5-3.7,5-14.4C801.79,135.5,800.29,132.2,796.69,132.2Z" style="fill:#da2222"/><path d="M842.69,174c-12.7,0-20.2-9.3-20.2-27.2s7-27.5,20.4-27.5c12.9,0,20.31,9.3,20.31,27.2S855.9,174,842.69,174Zm.1-41.8c-3.6,0-5,3.5-5,14.3s1.4,14.6,5.1,14.6c3.5,0,5-3.7,5-14.4C847.89,135.5,846.39,132.2,842.79,132.2Z" style="fill:#da2222"/><path d="M894.69,172.9l-6.2-22.4-3.1,5.2v17.2H870V106l15.4-6V124.1c0,4.1-.2,10.1-.4,13.7,1.5-3.1,4.1-8.3,6.9-13.4l2.2-4H910.5l-10.81,16.3,11.1,36.2Z" style="fill:#da2222"/><g id="_022" data-name="022"><g id="_000_WriteByTree" data-name="000_WriteByTree"><path d="M1060.08,226.35a7.14,7.14,0,0,0-1,.17,7.21,7.21,0,0,0-1.09.42,6.11,6.11,0,0,0-1.56,1.05,7.79,7.79,0,0,0-1.36,1.61,9.78,9.78,0,0,0-1.46,4.36,1.14,1.14,0,0,0,.36.85,1.21,1.21,0,0,0,1.7,0,1.29,1.29,0,0,0,.36-.85.34.34,0,0,1,0-.1,9.59,9.59,0,0,1,.46-1.75,8.27,8.27,0,0,1,.74-1.29,6.67,6.67,0,0,1,.92-.92,5.67,5.67,0,0,1,1-.59,5,5,0,0,1,.94-.26,3.45,3.45,0,0,1,1.85.27,7.57,7.57,0,0,1,1.22.73c.29.24.56.49.83.76a1.28,1.28,0,0,0,1.8,0,1.24,1.24,0,0,0,.37-.89,1.42,1.42,0,0,0-.37-.9,7.07,7.07,0,0,0-3.67-2.51,5.39,5.39,0,0,0-1.45-.19,5.63,5.63,0,0,0-.58,0" style="fill:#161616"/><path d="M1065,239.52a11.47,11.47,0,0,0-4.07,1.52,12.36,12.36,0,0,0-3.48,3.24,1.14,1.14,0,0,0-.12.92,1.18,1.18,0,0,0,.55.71,1.21,1.21,0,0,0,.91.12,1.32,1.32,0,0,0,.72-.55v0a10,10,0,0,1,1.62-1.63,11.4,11.4,0,0,1,2.11-1.23,12.1,12.1,0,0,1,2.51-.68,12.26,12.26,0,0,1,2.64,0,13,13,0,0,1,2.95.82c.4.17.79.36,1.19.56a1,1,0,0,0,1.2-1.56,9.81,9.81,0,0,0-4-2.08,11,11,0,0,0-2.61-.31,14.71,14.71,0,0,0-2.09.16m-5.3,5.71c-.06.06-.11.14-.16.2s.1-.14.16-.2" style="fill:#161616"/><path d="M1061.61,245.84a2.72,2.72,0,1,0,2.71-2.72,2.73,2.73,0,0,0-2.71,2.72" style="fill:#161616"/><path d="M1089.79,234.58a12.17,12.17,0,0,0-4.66,1.51,11.8,11.8,0,0,0-3.75,3.49,1.07,1.07,0,0,0,1.22,1.58,1.19,1.19,0,0,0,.65-.49l.21-.29a10.15,10.15,0,0,1,1.6-1.61,10.82,10.82,0,0,1,2.06-1.19,11.47,11.47,0,0,1,2.5-.7,12.21,12.21,0,0,1,3,0,12.56,12.56,0,0,1,2.82.78,18.76,18.76,0,0,1,2.26,1.2.91.91,0,0,0,1.11-1.43,10,10,0,0,0-4.29-2.47,12,12,0,0,0-2.45-.44c-.3,0-.6,0-.9,0a10.85,10.85,0,0,0-1.4.09" style="fill:#161616"/><path d="M1085,240.82a2.93,2.93,0,1,0,2.93-2.92,3,3,0,0,0-2.93,2.92" style="fill:#161616"/><path d="M1073.79,249.32a1,1,0,0,0-.29.69c0,.3-.06.61-.1.92-.18,1.22-.42,2.43-.6,3.65-.1.7-.19,1.39-.23,2.09a10.27,10.27,0,0,0,.08,2,3.92,3.92,0,0,0,1.81,2.91,4.53,4.53,0,0,0,2,.52,6,6,0,0,0,1-.05,11.06,11.06,0,0,0,1.52-.31,1,1,0,0,0,.68-1.19,1,1,0,0,0-.45-.59,1,1,0,0,0-.75-.09l-.4.06h0l-.12,0,.12,0a7.6,7.6,0,0,1-1.72.05,2.91,2.91,0,0,1-.58-.15,3.35,3.35,0,0,1-.36-.21,1.81,1.81,0,0,1-.24-.24,3.84,3.84,0,0,1-.22-.39,4.43,4.43,0,0,1-.25-.95,15.11,15.11,0,0,1,.15-3.49c.22-1.51.51-3,.63-4.54a1,1,0,0,0-1-1,1,1,0,0,0-.69.29m4.25,10.61Z" style="fill:#161616"/><path d="M1090.13,261.76a1,1,0,0,0-.6.47l-.6.81a17.56,17.56,0,0,1-2.78,2.87,12.71,12.71,0,0,1-2.19,1.29,8.74,8.74,0,0,1-4.23.67,1.29,1.29,0,0,0-.92,2.2,1.41,1.41,0,0,0,.92.38,11.69,11.69,0,0,0,6.93-1.76,12.12,12.12,0,0,0,2.72-2.33,12.66,12.66,0,0,0,1.16-1.59,13,13,0,0,0,.85-1.76,1,1,0,0,0-.47-1.15,1.06,1.06,0,0,0-.51-.14.86.86,0,0,0-.28,0" style="fill:#161616"/><path d="M1083.16,220.69a6.36,6.36,0,0,0-1.53,1.14,8.1,8.1,0,0,0-1.29,1.74,1,1,0,0,0,1.72,1q.24-.42.51-.81a5.9,5.9,0,0,1,.79-.79,4.63,4.63,0,0,1,.88-.52,5.64,5.64,0,0,1,1.07-.29,7.38,7.38,0,0,1,1.41,0,9.71,9.71,0,0,1,2,.59,19.56,19.56,0,0,1,3.75,2.3,1,1,0,0,0,1.17-.16,1,1,0,0,0,0-1.37,12.61,12.61,0,0,0-5-3.12,9.57,9.57,0,0,0-1.9-.39,5.48,5.48,0,0,0-.7,0,6.4,6.4,0,0,0-2.88.69" style="fill:#161616"/><path d="M1070.47,311.71a.64.64,0,0,0-.29.37.6.6,0,0,0,.07.49c.73,1,1.45,1.95,2.17,2.94s1.5,2.08,2.26,3.1a.65.65,0,0,0,.38.29.63.63,0,0,0,.72-.93c-.69-1-1.42-2-2.15-3s-1.53-2.06-2.3-3.08a.71.71,0,0,0-.37-.29l-.17,0a.62.62,0,0,0-.32.09" style="fill:#161616"/><path d="M1034.33,183.22a17.14,17.14,0,0,0-.43,2.76,14.1,14.1,0,0,0,.16,2.78,17.86,17.86,0,0,0,1.75,5.38,21.52,21.52,0,0,0,3.17,4.57,19.51,19.51,0,0,0,2.67,2.45,45.54,45.54,0,0,0-7.72,4.25c-1,.7-2.07,1.45-3.1,2.26-.19.18-.38.36-.56.55a2.68,2.68,0,0,1-.48.35,1.75,1.75,0,0,1-.29.18c-.29.23-.57.47-.85.72l-.21.17-.9.85a1.93,1.93,0,0,1-.36.28A43.73,43.73,0,0,0,1024,214a1.25,1.25,0,0,0-.19,1.5,1.3,1.3,0,0,0,1.07.64,1,1,0,0,0,.34-.06,44.91,44.91,0,0,1,5.13-1.53,54.93,54.93,0,0,1,5.58-1.07,47.91,47.91,0,0,1,6.07-.4,38.8,38.8,0,0,1,4.48.25c-1.08.9-2.23,1.95-3.51,3.22-1.71,1.68-3.42,3.52-5.09,5.47s-3.15,3.9-4.67,6.07-3,4.66-4.25,6.67a1.8,1.8,0,0,0,.28,2.17,1.78,1.78,0,0,0,.79.47,2.37,2.37,0,0,0,.52.06,1.48,1.48,0,0,0,.88-.24l1.19-.93.09-.07-.11,0,.16-.08,0,0,0,0c1.5-1.12,3.06-2.21,4.66-3.25a12.44,12.44,0,0,1,2.5-1.68,3,3,0,0,1,.61-.23l.65-.37c2.34-1.34,4.83-2.59,7.62-3.84a49.06,49.06,0,0,0,.45,5.74,3.08,3.08,0,0,1,.18.81c0,.31,0,.61.08.92a78.66,78.66,0,0,0,2.15,9.41c.85,3,1.9,6.08,3.21,9.5a2.12,2.12,0,0,1,.28.61c0,.16.09.31.13.46,1.28,3.26,2.67,6.38,4.12,9.28A74.32,74.32,0,0,0,1066,274.3a39.81,39.81,0,0,0,7.85,8.3l.1.1.1.1a1.7,1.7,0,0,0,.51.31,1.41,1.41,0,0,0,1.19.68,38,38,0,0,0,13.94-2.66,33.29,33.29,0,0,0,3.44-1.67l0,.24c.06.32.12.65.17,1,0,.07,0,.11,0,.16a1.27,1.27,0,0,0-.52.15c-2.08,1-4.33,2-6.62,3l-.08,0c-2.72,1.12-5.14,2-7.38,2.7a75.86,75.86,0,0,1-8.47,2,1.13,1.13,0,0,0-.84,1.11,1.09,1.09,0,0,0,.1.46,72.67,72.67,0,0,0-7.73,6.88l-.57.6a2.29,2.29,0,0,1-.37.51,29.42,29.42,0,0,0-2.16,2.44l-.1.13a3.06,3.06,0,0,1-.5.56l-.05.06a32.14,32.14,0,0,0-2.88,4.25c-.35-.75-.72-1.49-1.09-2.24a1.41,1.41,0,0,0-1.89-.49,1.3,1.3,0,0,0-.56.6,28.34,28.34,0,0,0-3.08-.91l-1-.26h0a.09.09,0,0,0,.07,0,1,1,0,0,0,.5-.65,8.32,8.32,0,0,0,.08-2.14,6.29,6.29,0,0,0-.5-1.95,4.25,4.25,0,0,0-2.13-2.22,4.65,4.65,0,0,0-1.68-.4h-.23a5.37,5.37,0,0,0-1.42.21,7.51,7.51,0,0,0-1.13.42l-.4-1-.13-.29-.23-.52a1.91,1.91,0,0,1-.33-.42,19.14,19.14,0,0,1-1.45-3,16.8,16.8,0,0,1-.72-2.25c-.14-.32-.27-.64-.41-.95-1.51-3.59-2.7-6.6-3.77-9.48a1.64,1.64,0,0,0-.72-.94l-.09,0a.82.82,0,0,0,.09-.38,1,1,0,0,0-.72-1,12.67,12.67,0,0,0-1.28-1.59,5.18,5.18,0,0,0-1.5-1.1,3,3,0,0,0-1.35-.34h-.1a2.43,2.43,0,0,0-1.5.6,3.61,3.61,0,0,0-1,2.8,6.81,6.81,0,0,0,.31,1.84,2.91,2.91,0,0,0,.12.39,8.32,8.32,0,0,0-.36,2,8,8,0,0,0,.15,1.66,10.45,10.45,0,0,0,.46,1.7,21.22,21.22,0,0,0,1.56,3.35c.31.54.63,1.07,1,1.6a13.41,13.41,0,0,0,1.12,1.56,1,1,0,0,0,.81.34,1.19,1.19,0,0,0,.6-.15,1.16,1.16,0,0,0,.53-1.32,14.76,14.76,0,0,0-1.5-2.87l-.37-.59a27.6,27.6,0,0,1-1.74-3.21L1028,282l-.09-.27-.13-.36c.7,1.2,1.43,2.33,2.21,3.47.55,1.3,1.15,2.64,1.82,4.1.74,1.61,1.45,3.08,2.16,4.52l.12.23.12.23a.57.57,0,0,0-.23-.15,5.45,5.45,0,0,0-2-.56h-.18a3.35,3.35,0,0,0-1.68.47,4.24,4.24,0,0,0-1.43,1.64,10.34,10.34,0,0,0-1,3,1,1,0,0,0,.08.69l-.32-.08c-1.07-.2-2.15-.4-3.23-.62a1.08,1.08,0,0,0-.15-.74,1.26,1.26,0,0,0-.74-.57,7.1,7.1,0,0,0-2.53-.5,4.45,4.45,0,0,0-2.14.51,3.67,3.67,0,0,0-1.37,1.37,4.56,4.56,0,0,0-.59,2,5.9,5.9,0,0,0,.19,2,6.88,6.88,0,0,0,.87,2,6.36,6.36,0,0,0,.6.84,4.37,4.37,0,0,0-.36.94,4.67,4.67,0,0,0-.15,1.39,4.41,4.41,0,0,0,.36,1.45,4.51,4.51,0,0,0,2.44,2.31,6,6,0,0,0,.24,3.37,5.11,5.11,0,0,0,.7,1.27,5.78,5.78,0,0,0,.57.66,7,7,0,0,0,.7.55,4.21,4.21,0,0,0,.85.46,4.18,4.18,0,0,0,0,1,101.83,101.83,0,0,0-2.7,14.59c-.27,3-.43,7.54,1.39,11.46a10.08,10.08,0,0,0,2.73,3.54,12.07,12.07,0,0,0,4.65,2.29,19.64,19.64,0,0,0,5,.57l1.32,0a40.22,40.22,0,0,0,8.26-1.3,1.28,1.28,0,0,0,.79-.6,1.38,1.38,0,0,0,.14-1,1.3,1.3,0,0,0-1.26-1,2.6,2.6,0,0,0-.37,0c-1.49.27-2.69.46-3.8.61h.19a47.48,47.48,0,0,1-5.1.34,23.82,23.82,0,0,1-2.87-.17,14.69,14.69,0,0,1-3.34-.86,11.74,11.74,0,0,1-1.9-1.09,8.79,8.79,0,0,1-1.43-1.43,9.7,9.7,0,0,1-1.1-1.91,15.21,15.21,0,0,1-.9-3.42,36.69,36.69,0,0,1,.24-9.13l0-.17v0c.36-2.52.86-5.18,1.59-8.38a4.14,4.14,0,0,0,.78.66,5.65,5.65,0,0,0,.69.39.92.92,0,0,0-.09.25,5.44,5.44,0,0,0,0,3.15,5.11,5.11,0,0,0,1.88,2.5,6,6,0,0,0,1.33.7,1.3,1.3,0,0,0,0,.15,5.12,5.12,0,0,0,.6,2.8,4.94,4.94,0,0,0,2,1.95c.2.11.42.21.63.3a4.13,4.13,0,0,0-.22.65,4.72,4.72,0,0,0,.25,3.11,3.76,3.76,0,0,0,.8,1.11,4.15,4.15,0,0,0,1.39.88,4.9,4.9,0,0,0,1.44.35,4.13,4.13,0,0,0,.33,3.21,3.36,3.36,0,0,0,.72.86,4.16,4.16,0,0,0,1.29.77,5.89,5.89,0,0,0,2.32.43l.6,0a1.18,1.18,0,0,0,.94-.55c.91.3,1.87.66,3,1.13l.1.05.1,0,.37.16.17.06a.77.77,0,0,0,.27,0l.27,0a1,1,0,0,0,.61-.48,1.2,1.2,0,0,0,.13-.33l.24.26a22.26,22.26,0,0,0,5.9,3.69,26.57,26.57,0,0,0,7,2,23.78,23.78,0,0,0,3.31.24,19,19,0,0,0,3.76-.37,11.12,11.12,0,0,0,1.77-.53,8.18,8.18,0,0,0,1-.46,1,1,0,0,0,.17.24,1.79,1.79,0,0,0,1.18.49l.64.06a6,6,0,0,1-.48,1.6,68.19,68.19,0,0,1-6.7,11.19c-.69,1-1.37,2-2,3a43.38,43.38,0,0,0-3.87,6.81,21.82,21.82,0,0,0-1.28,3.77,17.57,17.57,0,0,0-.47,4,20.14,20.14,0,0,0,1.91,8.3c-4.91-2.59-10.09-5-15.38-7.27a202.27,202.27,0,0,0-22.25-8,110.67,110.67,0,0,0-13.71-3.1,82.75,82.75,0,0,0-13.24-1.14h-.38a1.31,1.31,0,0,0-1.31,1.3,1.35,1.35,0,0,0,.39.93,1.4,1.4,0,0,0,.92.38c1.61.15,3.36.35,5.68.65a196.66,196.66,0,0,1,22.14,4.48,177.67,177.67,0,0,1,22.29,7.38c1,.4,2,.81,3,1.23a158.44,158.44,0,0,1,15,7.26,1.36,1.36,0,0,0,1,.86c1.11.21,2.23.44,3.34.67a42.66,42.66,0,0,0-4.85,10.26l0,.13,0,.13c-1.42-1.66-2.74-3.23-3.91-4.69l-1.36-1.73-.15-.2-.15-.2a.64.64,0,0,0-.32-.24.3.3,0,0,0-.14,0,.47.47,0,0,0-.27.07.6.6,0,0,0-.26.38.38.38,0,0,0,.07.35c2,2.59,4,5.13,6.12,7.55a41.07,41.07,0,0,0-1,4.37c0,.21-.07.42-.11.63-.6-.76-1.18-1.46-1.75-2.18l-.11-.1h0a.75.75,0,0,0-.47-.38.66.66,0,0,0-.21,0,.8.8,0,0,0-.4.11.73.73,0,0,0-.37.47.78.78,0,0,0,.08.62c1,1.3,2,2.52,2.94,3.64a24.93,24.93,0,0,0-.14,3.51,1.19,1.19,0,0,0,1.16,1.16,1.17,1.17,0,0,0,1.16-1.16l0-.54,0-.55.58.63a.79.79,0,0,0,.59.24.83.83,0,0,0,.6-.24.86.86,0,0,0,0-1.19c-.54-.55-1.08-1.11-1.6-1.67,0-.53.11-1.08.18-1.63.17-1.21.39-2.43.67-3.61.81.95,1.7,1.92,2.7,3l.44.46c-.4,1.85-.73,3.84-1,5.92a51.91,51.91,0,0,0-.39,7.73c0,.69.07,1.39.13,2.08,0,.13,0,.27,0,.4-.62-.52-1.28-1-1.94-1.51l-.15-.11-.19-.15c-1.74-1.28-3.55-2.52-5.1-3.56-3.35-2.26-7-4.54-10.87-6.78A146.88,146.88,0,0,0,1024.28,406a86.92,86.92,0,0,0-16.38-4.3l.36-.47c.28-.4.57-.8.86-1.19a1.51,1.51,0,0,0,.16-1.19,1.54,1.54,0,0,0-.71-.91,1.45,1.45,0,0,0-.78-.21,1.62,1.62,0,0,0-.4.05,1.7,1.7,0,0,0-.92.71l-.07.09-.07.1a92.56,92.56,0,0,0-10.49,17.93c-1.37,2.95-2.71,6.18-4.34,10.48-1.35,3.56-2.59,7.18-3.7,10.76a157.62,157.62,0,0,0-4.52,18.51,105.81,105.81,0,0,0-1.8,17.08,1.15,1.15,0,0,0,.08.41l-.46-.05c-1.52-.14-3-.27-4.37-.46a68.63,68.63,0,0,1-8.37-1.7,65.49,65.49,0,0,1-8.16-2.82c-1.15-.49-2.31-1-3.43-1.58a4.88,4.88,0,0,0,.34-.56l.15-.29c.36-.68.69-1.37,1-2.06.61-1.3,1.21-2.68,1.87-4.36,1-2.51,1.93-5.27,2.94-8.68.86-2.86,1.68-5.89,2.44-9,.4-1.65.78-3.3,1.17-4.95l.06-.28c.31-1.33.62-2.66.94-4l.21-.87.06-.27c1.35-5.68,2.76-11.56,4.39-17.28a153.24,153.24,0,0,1,6-17.58,78.49,78.49,0,0,1,9.84-17.25,59.09,59.09,0,0,1,4.68-5.36,1,1,0,0,0-1.44-1.45,69.31,69.31,0,0,0-10.78,14.41,108.12,108.12,0,0,0-7.54,16.76c-2.18,6.07-4,12.25-5.54,18q-.82,3-1.63,6l-.09.33c-1.07,3.94-2.18,8-3.34,12-1.39,4.8-2.66,9.13-4.1,13.55-.72,2.19-1.44,4.37-2.19,6.55l-1.12,3.21-.12.35c-.3.85-.64,1.8-.92,2.73l0,.11a1.33,1.33,0,0,0-.12,1,1.2,1.2,0,0,0,.58.74l.16.08a.8.8,0,0,0,.21.15c.75.38,1.5.76,2.26,1.12a14.79,14.79,0,0,1-2,1.93,36.58,36.58,0,0,1-4.1,2.63c-1.82,1-3.67,1.94-5.39,2.78-1.39.67-2.78,1.32-4.18,2-2.62,1.23-5.26,2.47-7.8,3.79-2,1.06-3.84,2.09-5.5,3.16a33.55,33.55,0,0,0-4.68,3.64c-1.68,1.59-4.43,4.86-4,8.91a10.7,10.7,0,0,0,.45,2.14,13.17,13.17,0,0,0,1,2.26,20.14,20.14,0,0,0,3.62,4.48,1.25,1.25,0,0,0,.39.27,1.15,1.15,0,0,0,1.1.86h.72a40.19,40.19,0,0,0,14.51-2.9A89.84,89.84,0,0,0,955,499c1.11-.66,2.2-1.33,3.29-2l.09-.07h0A123.52,123.52,0,0,1,974,488.41l.06,0,.06,0a48.55,48.55,0,0,1,8.55-2.65,1.36,1.36,0,0,0,1.06.53,1.37,1.37,0,0,0,1.36-1,18.82,18.82,0,0,0-.68-9.29l-.08-.2a1,1,0,0,0,.12-.5,1.23,1.23,0,0,0-.35-.85,1.06,1.06,0,0,0-.56-.3,1,1,0,0,0,.2-.58,99,99,0,0,1,.83-10.5l0-.29a142.45,142.45,0,0,1,3.75-18.07,153.23,153.23,0,0,1,6.38-18.7l-.11.19a153.54,153.54,0,0,1,6.72-13.81c1.12-2,2.35-4.07,3.77-6.31.36-.57.73-1.13,1.1-1.69a.79.79,0,0,0,.43.21,90,90,0,0,1,21.32,6.24,162.54,162.54,0,0,1,20.34,10.53c3,1.8,6.16,3.82,9.69,6.16l2,1.36.82.55,1.67,1.11,2.22,1.47c.4.26.8.52,1.21.77q.22.15.45.27c.26.15.51.3.75.47v.1l-.06.08c-2.47,3.19-4.91,6.4-7.35,9.61s-4.88,6.41-7.34,9.6l.14-.16c-6.12,7.89-11,13.82-15.72,19.2a196.92,196.92,0,0,1-17.53,17.6c-2.86,2.51-5.82,5-8.68,7.41-3.17,2.67-6.45,5.43-9.6,8.23a124.39,124.39,0,0,0-16.62,17.41c-1,1.28-1.9,2.56-2.73,3.8a1.22,1.22,0,0,0-.16.94,1.41,1.41,0,0,0,.64.89,1.3,1.3,0,0,0,.68.18,2,2,0,0,0,.34,0,1.46,1.46,0,0,0,.8-.62c.68-.93,1.37-1.86,2.07-2.77a110.75,110.75,0,0,1,7.72-8.85c2.5-2.58,5.32-5.27,8.64-8.22s6.55-5.68,9.79-8.41c2.78-2.35,5.66-4.79,8.45-7.24,3.12-2.74,6.1-5.54,8.86-8.3s5.59-5.8,8.5-9.09c4.7-5.3,9.52-11.2,15.64-19.11l.13-.18.08-.1c2.78-3.6,5.58-7.29,8.28-10.86l3.06-4q1.33-1.77,2.69-3.53l.06-.09h0l1.32-1.72.15-.2.61-.79a.9.9,0,0,0,.15-.19q1.33-1.74,2.69-3.45a1.47,1.47,0,0,0,.4-1,1.35,1.35,0,0,0-1.35-1.34,1.27,1.27,0,0,0-.94.39l-2.25,2.87a1.12,1.12,0,0,0-.22-.21l-.53-.48c0-.73,0-1.51,0-2.19,0-.37,0-.68,0-1,0-1.13,0-2.25,0-3.32a61.63,61.63,0,0,1,.53-6.87c.12-.85.26-1.77.43-2.68,2.85,2.92,6.08,6,9.85,9.29l.54.47c.66.59,1.25,1.12,1.9,1.61a.82.82,0,0,0,.43.12.86.86,0,0,0,.61-.25.9.9,0,0,0,.25-.65.75.75,0,0,0-.26-.56c-.35-.32-.73-.62-1.11-.92l-.44-.34-1.68-1.37c-1.1-.91-2.16-1.82-3.15-2.69-2.08-1.83-4.11-3.72-6-5.62l-.61-.6a60.46,60.46,0,0,1,3.24-10.62l.05-.1,0-.11a47.71,47.71,0,0,1,2.3-4.64.76.76,0,0,0,.11-.33l4.14,1.11A129,129,0,0,1,1095,404a69.91,69.91,0,0,1,15.22,8.54c1.13.88,2.25,1.83,3.31,2.82.6.56,1.38,1.3,2.15,2.11,0,.05-.05.12-.08.18-.72,2.16-1.54,4.35-2.44,6.49a104.17,104.17,0,0,1-13.46,22.54c-7.84,10.14-17.08,19.18-26.65,28.33l-3.62,3.45c-8.08,7.68-16.45,15.63-23.86,24.23-2.16,2.5-4.23,5.14-6.23,7.7l-.18.23c-2.65,3.4-5.29,6.68-7.84,9.76s-5.27,6.32-8,9.54l-3.12,3.68c-1.66,1.95-3.31,3.9-5,5.84l-1.86,2.17-2.73,3.18-.36.41c-1.19,1.38-2.43,2.8-3.61,4.23a.59.59,0,0,0-.11-.08,37.71,37.71,0,0,1-5.52-3.56l.27.22a95.7,95.7,0,0,1-8.26-7.54l-2-2a69,69,0,0,0-5.16-4.61A31.27,31.27,0,0,0,980,528a1.17,1.17,0,0,0-.51-.13.94.94,0,0,0-.84.49.77.77,0,0,0-.1.23l-.22-.21a78.19,78.19,0,0,0-8.86-6.95,36.88,36.88,0,0,0-4.57-2.6,21.05,21.05,0,0,0-4.71-1.61,13.5,13.5,0,0,0-2.57-.26,11.59,11.59,0,0,0-2.14.2,10,10,0,0,0-4.25,2,13.89,13.89,0,0,0-3.17,3.67,25.21,25.21,0,0,0-2.46,5.41h0a1.23,1.23,0,0,0-1.06,1.87c2.76,5.23,8,8.52,11.78,10.53,1.38.74,2.81,1.44,4.2,2.13l2.74,1.36c1.38.7,2.51,1.33,3.54,2a37.75,37.75,0,0,1,3.46,2.41,83.21,83.21,0,0,1,8.66,8.33l.09.11c1.43,1.51,2.83,3,4.31,4.43a59,59,0,0,0,5.09,4.41,1.07,1.07,0,0,0,.57.16,1.17,1.17,0,0,0,.75-.29,1.2,1.2,0,0,0,.18.53,1.54,1.54,0,0,0,.93.73,1.9,1.9,0,0,0,.4,0,2,2,0,0,0,.82-.21,18.35,18.35,0,0,0,4.26-2.92,24.82,24.82,0,0,0,3.46-3.8,24.07,24.07,0,0,0,4.2-9.12,13.22,13.22,0,0,0,1.22.69,1.44,1.44,0,0,0,.41.15,1.22,1.22,0,0,0,.27.41,1.26,1.26,0,0,0,.9.37,1.37,1.37,0,0,0,.93-.37c1.54-1.43,3-2.92,4.5-4.45s2.92-3,4.35-4.53c2.56-2.7,5.57-5.92,8.43-9.2,2.72-3.11,5.43-6.32,8-9.52,2.32-2.86,4.75-6,7.87-10,.66-.85,1.3-1.71,1.94-2.58s1.42-1.9,2.14-2.84c7.66-9.86,16.45-18.67,26.32-28.34l2.29-2.24c8.41-8.22,17.1-16.73,24.68-26a126.23,126.23,0,0,0,11.17-15.84A95.09,95.09,0,0,0,1117.5,419h.06a1.21,1.21,0,0,0,.64-.16,1.23,1.23,0,0,0,.57-.73,1.45,1.45,0,0,0,.76-.54,13.76,13.76,0,0,0,1.25-2.43,17.07,17.07,0,0,0,.87-2.72,1,1,0,0,0-.05-.61,15.69,15.69,0,0,0,3.57-2,21,21,0,0,0,3-2.76,23.68,23.68,0,0,0,2.46-3.35,27.3,27.3,0,0,0,1.89-3.8,40.36,40.36,0,0,0,2.34-8,87.75,87.75,0,0,0,1.26-8.84c.14-1.37.26-2.75.37-4.13-.55-.17-1.1-.36-1.63-.58s-.75-.33-1.11-.5c-.19,2.13-.4,4.28-.67,6.4a55.72,55.72,0,0,1-3.5,14.08,29.65,29.65,0,0,1-3.46,6.08,21.81,21.81,0,0,1-3.55,3.57c-.6.45-1.27.91-2.12,1.44a1.48,1.48,0,0,0-.53.58l-.18-.2c-.49-.47-1-.95-1.64-1.47-1-.89-2.2-1.79-3.52-2.75a74.17,74.17,0,0,0-7.74-4.81,100.61,100.61,0,0,0-17.69-7.41,93.21,93.21,0,0,0-13.62-3.23,68.72,68.72,0,0,0-10.88-.93c-.63,0-1.25,0-1.88,0a1.16,1.16,0,0,0-.29,0,.85.85,0,0,0-.06-.17,24.23,24.23,0,0,1-1.29-4.83,19.15,19.15,0,0,1,0-4.54,22.5,22.5,0,0,1,1.49-5.28,58,58,0,0,1,5.41-9.13c.43-.64.83-1.22,1.21-1.8,1-1.57,2.41-3.66,3.58-5.81a38.76,38.76,0,0,0,2.63-6c9,1.35,17.82,4.14,26.36,6.84l.73.23c4.84,1.53,9.23,2.89,13.74,4.06a10.68,10.68,0,0,1-1.11-3.2c0-.22-.07-.44-.11-.66-3.83-1.07-7.53-2.22-11-3.32l-1.39-.43c-8.69-2.7-17.62-5.48-26.74-6.78-.79-.11-1.57-.21-2.36-.3a9.05,9.05,0,0,0,.61-.75,15.18,15.18,0,0,0,1.15-1.89,17.66,17.66,0,0,0,1.59-4.36,16.29,16.29,0,0,0,0-6.78,53.41,53.41,0,0,0,6,2.49.22.22,0,0,0,0,.16,20,20,0,0,1-.12,3,21.34,21.34,0,0,1-.51,2.45c-.25.91-.59,1.8-.91,2.64a1.05,1.05,0,0,0,.48,1.19,1.08,1.08,0,0,0,.53.14,1,1,0,0,0,.92-.51,15.22,15.22,0,0,0,1.57-4.19,18.12,18.12,0,0,0,.41-4.14,98.59,98.59,0,0,0,10.13,2.51,160.44,160.44,0,0,0,19.52,2.57,21.53,21.53,0,0,1,.47-3.19l-.71-.07-1.82-.17c-5.17-.5-9.17-.94-13-1.44-5.84-.8-13.44-2.08-20.43-5a3.84,3.84,0,0,0,.58-1.32,12.22,12.22,0,0,0,.3-1.4,29.35,29.35,0,0,0,.35-3.17,44.86,44.86,0,0,0,0-5.89,59.12,59.12,0,0,0-2-11.72,1.46,1.46,0,0,0-1.78-1,1.44,1.44,0,0,0-1,1.77c.4,1.49.75,3.06,1,4.66-.36-.6-.76-1.19-1.17-1.77-1.4-2-2.92-3.91-4.09-5.38a.85.85,0,0,0-.63-.26.89.89,0,0,0-.9.89,1,1,0,0,0,.26.64l.5.64c1.35,1.74,2.5,3.32,3.53,4.85.55.8,1.07,1.61,1.58,2.44l.56.94c.32.55.64,1.09,1,1.62l.06.77a1.14,1.14,0,0,0-.24.15c-1.14,1-2.19,2-3.45,3.2s-2.23,2.19-3.33,3.3l-.08-.11A22.87,22.87,0,0,0,1065,322a1.59,1.59,0,0,0-.71-.18,1.36,1.36,0,0,0-1.19.68s0,.08-.07.13c-.75-1.76-1.58-3.67-2.64-6-1.35-3-2.78-6.09-4.24-9.09,0,0,.07,0,.12-.08.5-.61,1-1.23,1.48-1.85l.13-.16c.54-.68,1.08-1.37,1.65-2,1.17-1.4,2.41-2.77,3.68-4.09a75.55,75.55,0,0,1,8-7.09l.11-.09.44-.33a1.39,1.39,0,0,0,.58-.76l0-.16a37.84,37.84,0,0,0,10.51-2.37c1.69-.62,3.47-1.36,5.61-2.33a28.33,28.33,0,0,0-2.89,4.35,30.28,30.28,0,0,0-2.61,6.29,24.7,24.7,0,0,0-.65,3.28c-.06.51-.1,1-.13,1.6s0,1,0,1.38l0,.17a1.16,1.16,0,0,0,.15.52.28.28,0,0,0,0,.1,1.34,1.34,0,0,0,.38.92,1.32,1.32,0,0,0,.92.38,1.25,1.25,0,0,0,.91-.38,12.33,12.33,0,0,1,2.07-2.08,16.22,16.22,0,0,1,3.26-1.89,25,25,0,0,1,6.22-1.6l.82-.1q.15.21.33.42a1.07,1.07,0,0,0,.81.34,1.18,1.18,0,0,0,.59-.16,1,1,0,0,0,.4-.4,1.15,1.15,0,0,0,.46.26,1.86,1.86,0,0,0,.33,0,1.72,1.72,0,0,0,.69-.18l.1,0,.1,0c.64-.25,1.27-.49,1.92-.69-.14-.24-.28-.48-.41-.73a13.41,13.41,0,0,1-1-1.56,15.33,15.33,0,0,1-.86-1.72c-.59.86-1.18,1.77-1.79,2.74-.47-.84-.8-1.46-1.08-2.06a13.5,13.5,0,0,1-.81-3c-.06-.53-.09-1.06-.1-1.56a1.13,1.13,0,1,0-2.25,0,15.31,15.31,0,0,0,.66,4.47,14.73,14.73,0,0,0,.67,1.78,17.64,17.64,0,0,0-2.41.23,19.39,19.39,0,0,0-3.88,1,16.42,16.42,0,0,0-4.85,2.77c.16-.62.32-1.32.52-2.1a34,34,0,0,1,1.49-4.39,33.43,33.43,0,0,1,4.09-7.05,24.56,24.56,0,0,1,2.9-3.14c0,.52-.11,1.06-.16,1.6,0,.37-.07.75-.09,1.12a1.19,1.19,0,0,0,.87,1.15,1,1,0,0,0,.3,0,1.21,1.21,0,0,0,1.16-.87,13.05,13.05,0,0,0,.32-2.51,18.42,18.42,0,0,0,0-2.43v-.21a1.35,1.35,0,0,0-.11-1.07,27.3,27.3,0,0,0-.61-3.07l.25-.15a25.61,25.61,0,0,0,4.21-3.81,9.87,9.87,0,0,1,.38-2.31,18.42,18.42,0,0,1,2-4.44,27,27,0,0,1,2-2.78c.3-.51.61-1,1-1.48a27.43,27.43,0,0,0,0-10.32.83.83,0,0,0-.79-.6.84.84,0,0,0-.58.24.78.78,0,0,0-.23.57v.53c0,.92,0,1.87,0,2.8s-.1,1.88-.22,2.91a27.78,27.78,0,0,1-1.74,6.64,24.5,24.5,0,0,1-3,5.17,25.16,25.16,0,0,1-4.08,4,27.26,27.26,0,0,1-5.68,3.29,33.44,33.44,0,0,1-8,2.15,39.78,39.78,0,0,1-4.45.33,7.15,7.15,0,0,1-.69-.8l-.13-.15-.37-.46-.38-.49c-.5-.62-1-1.24-1.49-1.88a133,133,0,0,1-8.28-12.17,113.84,113.84,0,0,1-7.36-14.25l-.09-.2a78.49,78.49,0,0,1-5.48-19.21l0-.17,0-.17a42.54,42.54,0,0,1-.35-5.38,136,136,0,0,1,33.7-8.63h0c3.76-.5,7.55-.88,11.27-1.11a47.47,47.47,0,0,0,1.1,10.61,54,54,0,0,0,1.53,5.71,28.41,28.41,0,0,0,2.08,4.88,1.14,1.14,0,0,0,.34.72,1.18,1.18,0,0,0,.84.35,1.25,1.25,0,0,0,.38,0,1.16,1.16,0,0,0,.82-1.25,11.1,11.1,0,0,1,.71-2.58,12.92,12.92,0,0,1,1.49-2.53,11.7,11.7,0,0,1,1.76-1.76A8.52,8.52,0,0,1,1109,229a6.23,6.23,0,0,1,1.27-.36,4.26,4.26,0,0,1,.5,0l.53,0a4.78,4.78,0,0,1,.83.24,5.25,5.25,0,0,1,.85.5,7.45,7.45,0,0,1,1,1,11.11,11.11,0,0,1,1.13,2,9.74,9.74,0,0,1,.57,2.06,9.93,9.93,0,0,1,0,2,11.61,11.61,0,0,1-.67,2.4,16.24,16.24,0,0,1-1.8,3,22.76,22.76,0,0,1-3.84,3.82,25,25,0,0,1-4.46,2.69,1.34,1.34,0,0,0-.63,1.53,1.48,1.48,0,0,0,.7.86c.91,3.23,1.73,6.5,2.44,9.78a5.67,5.67,0,0,1,.95-.61,6.74,6.74,0,0,1,1.43-.56l.13,0q-1-4.54-2.29-9.21a16.27,16.27,0,0,0,1.79-.95,2.28,2.28,0,0,1,.8-.53,2.34,2.34,0,0,1,.43-.26,25.44,25.44,0,0,0,2.4-1.89,17.79,17.79,0,0,0,5-7.18,11.14,11.14,0,0,0,.66-4.18,10.94,10.94,0,0,0-1.19-4.48,11.44,11.44,0,0,0-1.29-2,8.32,8.32,0,0,0-1.62-1.53,15.34,15.34,0,0,0,1-2.28c.26-.78.5-1.61.76-2.72a36.76,36.76,0,0,0,.89-6,26.38,26.38,0,0,0-.24-5.84,14,14,0,0,0-1.7-4.95,9.53,9.53,0,0,0-1.92-2.34,9.34,9.34,0,0,0-1.34-1,10.44,10.44,0,0,0-1.63-.78,11.73,11.73,0,0,0-3.47-.7c-.31,0-.63,0-.94,0a20.23,20.23,0,0,0-3.17.28,1,1,0,0,0-.44-.54,26.68,26.68,0,0,0-6.65-2.85,43.68,43.68,0,0,0-7.48-1.4,91.63,91.63,0,0,0-10.08-.46c-1.56,0-3.12,0-4.68,0h-2.27l-3.78,0a89.55,89.55,0,0,1-11.13-.58,35.27,35.27,0,0,1-8.74-2.25,23.85,23.85,0,0,1-4.61-2.68,22,22,0,0,1-3.7-3.7c-.39-.52-.77-1.07-1.13-1.63s-.54-.89-.79-1.35l-.34-.58a1.46,1.46,0,0,0-2.68.35m10.32,16.63c-.46-.29-.9-.58-1.34-.91a18.08,18.08,0,0,1-5.45-7,16.09,16.09,0,0,1-1-3.57v-.24a18.51,18.51,0,0,0,2.16,2.57,23,23,0,0,0,5.76,4.19c3.79,1.95,8.31,3.1,14.22,3.61,2.37.2,5,.29,8.1.29,2,0,3.91,0,5.86-.07l1.61,0c1.69,0,3.38-.06,5.08-.06a89.9,89.9,0,0,1,10.43.51l.83.1a38.09,38.09,0,0,1,9.39,2.41c.36.15.71.31,1,.47l.22.09a.61.61,0,0,0,0,.28,1.29,1.29,0,0,0,.6.79,1.22,1.22,0,0,0,.64.16l.37,0,.55-.09a18.7,18.7,0,0,1,2.15-.14c.52,0,1,0,1.55.09a9.91,9.91,0,0,1,2.14.57,9.37,9.37,0,0,1,1.43.82,8.19,8.19,0,0,1,1.14,1.14,10.32,10.32,0,0,1,1,1.83,14.78,14.78,0,0,1,.86,3.29,30.41,30.41,0,0,1-.16,7.79c-.17,1.23-.39,2.55-.69,4.06l-.12.62c-.19,1-.38,1.92-.5,2.86a5.93,5.93,0,0,0-1.46-.25h-.25a7.48,7.48,0,0,0-3.36.91,10.57,10.57,0,0,0-3,2.41,13.8,13.8,0,0,0-2.27,3.41l-.15.34c-.53-1.65-.92-2.88-1.24-4a56.64,56.64,0,0,1-1.77-8.17,37,37,0,0,1-.31-5.87.93.93,0,0,0-.09-.46,1.47,1.47,0,0,0,0-.32,1.62,1.62,0,0,0-1.52-1.6,179.24,179.24,0,0,0-25.15,3.32,127.94,127.94,0,0,0-25,7.83,88.75,88.75,0,0,0-9.28,4.72l-1,.59c1-1.41,1.88-2.55,2.66-3.56a77.72,77.72,0,0,1,5.14-6c1.63-1.71,3.37-3.36,5.06-4.95l1.17-1.11a1.43,1.43,0,0,0,.42-1,1.45,1.45,0,0,0-1.47-1.5,1.51,1.51,0,0,0-1,.4,37.52,37.52,0,0,0-7-.62c-1.53,0-3.14.08-4.78.24a59.46,59.46,0,0,0-6.43,1c-.47.1-1,.21-1.41.33,1.15-1,2.32-2,3.58-3l.07-.07.12-.1a58.68,58.68,0,0,1,5.51-3.68,54.18,54.18,0,0,1,6.1-3c.61-.26,1.21-.5,1.81-.72a1.21,1.21,0,0,0,.67-.52,1.12,1.12,0,0,0,.11-.86,1.15,1.15,0,0,0-1.08-.82,1,1,0,0,0-.3,0l-.94.31-.1-.07m-7,100.67-.29,0-2.76-.44-5.38-.88a.62.62,0,0,0,.28-.42,10.75,10.75,0,0,1,.57-2.05,4,4,0,0,1,.47-.81,3.41,3.41,0,0,1,.37-.39l.28-.16a1.82,1.82,0,0,1,.29-.08h.41a3.62,3.62,0,0,1,.62.18,7.49,7.49,0,0,1,1.35.82,21.09,21.09,0,0,1,2.51,2.47c.34.38.66.78,1,1.17l.08.11.48.57Zm7.23,1.3-1.73-.34a15.12,15.12,0,0,0-1-3.34l-.2-.49.08,0,.09,0a5.34,5.34,0,0,1,1-.29,2.68,2.68,0,0,1,.4,0h.35a5,5,0,0,1,.52.14,4.23,4.23,0,0,1,.42.25,3.59,3.59,0,0,1,.39.39,4.24,4.24,0,0,1,.33.59,6.43,6.43,0,0,1,.34,1.26c0,.45.06.92.06,1.53a1,1,0,0,0,.22.65l-1.32-.28m-25.55-.57a5.06,5.06,0,0,1,0-.95,4.74,4.74,0,0,1,.15-.57,3.54,3.54,0,0,1,.19-.33,1.89,1.89,0,0,1,.2-.2l.27-.16a3.74,3.74,0,0,1,.45-.12h.41a1,1,0,0,0,.77,1c4.35.94,8.81,1.68,13.12,2.4l.17,0,1.74.28c3.1.52,5.41.94,7.51,1.34l3.74.74,1,.21c.46.1.92.21,1.4.3h-.1l-.18,0a1,1,0,0,0-.58.45,1,1,0,0,0-.1.76c1.23,3.11,2.61,6.22,4,9.23l.1.2c.93,2.09,1.88,4.22,2.77,6.32v-.12c.3.81.63,1.62,1,2.43l.32.77c.26.61.51,1.21.76,1.82s.52,1.23.79,1.84c-.62-.38-1.27-.74-1.92-1.09a48,48,0,0,0-7.15-3.38,12.34,12.34,0,0,0-3.17-.69,2,2,0,0,0-.34,0,6,6,0,0,0-2.42.56,3.47,3.47,0,0,0-.91.6,2.64,2.64,0,0,0-.65,1,1.84,1.84,0,0,0-.11.86,3.24,3.24,0,0,0,.34,1.17,4.38,4.38,0,0,0,.63,1,6.27,6.27,0,0,0-.65,2.56,5.18,5.18,0,0,0,.42,2.26c.08.17.16.35.25.52a.54.54,0,0,0-.06.27,9.21,9.21,0,0,0,.26,2.14,10.21,10.21,0,0,0,.76,2,9.93,9.93,0,0,0,.51.9.83.83,0,0,0-.31.33,1.11,1.11,0,0,0-.12.91,12.87,12.87,0,0,0,1.54,2.79c.18.25.37.49.56.72a22.88,22.88,0,0,0-2.89-1.11c-.51-1.26-1.11-2.53-1.7-3.75l-.1-.21-.52-1.08q-1.29-2.71-2.61-5.41c-2-4.07-3.68-7.42-5.28-10.53a201.74,201.74,0,0,0-10.75-18.92,90.5,90.5,0,0,1,11.71,2.74l2,.6.61.18c1.13.35,2.26.69,3.4,1s2.14.58,3.06.8a19.86,19.86,0,0,0,3.25.54,1.22,1.22,0,0,0,1.06-1.83,1.34,1.34,0,0,0-.73-.57,25.79,25.79,0,0,0-2.91-.94l-.12,0c-1.09-.31-2.18-.59-3.27-.87-2.11-.54-4.22-1.05-6.33-1.55a107.32,107.32,0,0,0-13-2.38h0a.93.93,0,0,0-.45.1,1.06,1.06,0,0,0-.34-.15,1.68,1.68,0,0,0-.4,0,1.55,1.55,0,0,0-.77.2.8.8,0,0,0-.2.15Zm32.32,5.37-.29-.73a1.09,1.09,0,0,0-.45-.58l-.13-.06c.33.08.66.13,1,.19l.26,0c1.45,3,2.92,6.2,4.5,9.92.86,2,1.71,4.16,2.56,6.27l.58,1.43.13.32c.26.66.53,1.31.8,2a1,1,0,0,1-.07-.15c-.79-1.66-1.67-3.37-2.37-4.74l-.54-1.05c-2.22-4.35-4.06-8.26-5.62-11.95v0Zm-30.85,2.29a4.53,4.53,0,0,1-.49-.49,3.24,3.24,0,0,1-.28-.47,4.44,4.44,0,0,1-.15-.52c0-.2,0-.4,0-.61s0-.21.06-.29a5.86,5.86,0,0,0,1.5.76.86.86,0,0,0,.23,0l.2.33.25.42a.8.8,0,0,0-.48.4c-.13.24-.24.48-.35.73a3.66,3.66,0,0,1-.49-.31m2.62,2.95a.93.93,0,0,0,.73-.36l.57,1.06.37.68.12.22.22.39a1,1,0,0,0-.33.32,9.09,9.09,0,0,0-.73,1.19l-.41-.29a3.71,3.71,0,0,1-.63-.62,4.61,4.61,0,0,1-.41-.7,4.37,4.37,0,0,1-.24-.93,5.16,5.16,0,0,1,0-1,4.41,4.41,0,0,0,.73.08Zm2.79,6.24a1,1,0,0,0,1-.77l0-.12.58,1.22.61,1.21a.31.31,0,0,0-.12.1c-.19.25-.38.5-.56.76-.2-.13-.41-.26-.62-.41a4.39,4.39,0,0,1-.65-.64,3.53,3.53,0,0,1-.35-.59c-.05-.14-.09-.28-.13-.42a1.08,1.08,0,0,0,0-.36l.17,0ZM1075.59,331a17.78,17.78,0,0,1-1.64-1.08c-.48-.39-1-.83-1.51-1.34,1.17-1.16,2.24-2.26,3.26-3.34s1.57-1.69,2.18-2.4v.8c0,.41,0,.83,0,1.25,0,1.32-.06,2.63-.12,3.74l0,.64,0,.42c0,.27,0,.53,0,.8v.18a7.4,7.4,0,0,0,0,1.41c-.19-.12-.4-.23-.62-.34l-.11-.05a1.4,1.4,0,0,0-.63-.16.65.65,0,0,0-.2,0,1.38,1.38,0,0,0-.52-.55m-45.21-4.42a5,5,0,0,1-.61-.6,3.3,3.3,0,0,1-.32-.55,4.37,4.37,0,0,1-.17-.62,4.82,4.82,0,0,1,0-.76,5.09,5.09,0,0,1,.21-.79.93.93,0,0,0,.6-.3l.16.4.2.41,1,2a.89.89,0,0,0-.48.44q-.17.28-.3.57l-.25-.17m34.91,4.43a1.12,1.12,0,0,0,.31-.84,10.67,10.67,0,0,0-.81-3l-.15-.41c-.27-.74-.56-1.48-.86-2.22.4.29.83.58,1.33.95a42,42,0,0,1,3.45,3.2l.77.75a24,24,0,0,0,4.89,3.92,8.38,8.38,0,0,1,.45,1.78,15.79,15.79,0,0,1,0,3.57,17.61,17.61,0,0,1-1.13,4c-.36.8-.77,1.6-1.26,2.46-.2.34-.41.68-.62,1-.33.52-.68,1.06-1,1.6a1.29,1.29,0,0,0-.14.79,30.13,30.13,0,0,1-3,.63,21.33,21.33,0,0,1-2.79.17,26.48,26.48,0,0,1-3.27-.21,27.23,27.23,0,0,1-6.54-1.79,21.63,21.63,0,0,1-4.55-2.63c-.24-.19-.46-.39-.69-.59a12.92,12.92,0,0,0,5.78,2,1,1,0,0,0,.93-.7,1,1,0,0,0-.12-.78.9.9,0,0,0-.55-.41,19.63,19.63,0,0,1-3.39-1,16.9,16.9,0,0,1-3.53-2,13.92,13.92,0,0,1-2.25-2.22,10,10,0,0,1-1.09-1.86,5,5,0,0,1-.18-.5,9.2,9.2,0,0,0,1.18,1,21.37,21.37,0,0,0,4.87,2.66,20.57,20.57,0,0,0,4.77,1.36c.3.05.61.09.91.12a1,1,0,0,0,1-.74,1,1,0,0,0-.11-.77.94.94,0,0,0-.6-.46,30.1,30.1,0,0,1-6.51-1.94,18.58,18.58,0,0,1-3.66-2.07,10.67,10.67,0,0,1-1.7-1.63,6.38,6.38,0,0,1-.74-1.23,5.06,5.06,0,0,1-.29-1.06,4.35,4.35,0,0,1,0-1,5,5,0,0,1,.19-.76,7.15,7.15,0,0,0,.69.64,35.61,35.61,0,0,0,4.29,3c1.41.84,2.89,1.63,4.4,2.34.63.3,1.28.58,2,.85a11,11,0,0,0,1.44.5l.2,0a.79.79,0,0,0,.23-1.56,8,8,0,0,1-.86-.32,38.57,38.57,0,0,1-4.31-2.21,45.1,45.1,0,0,1-4.89-3.23l0,0,0,.05a17.4,17.4,0,0,1-2.53-2.41,5.91,5.91,0,0,1-.41-.69c0-.08,0-.16-.07-.24a.68.68,0,0,1,.22-.14,4.09,4.09,0,0,1,.87-.22l.29,0,.51,0a11.9,11.9,0,0,1,2.33.72c1.08.47,2.1,1,3.31,1.66s2.51,1.42,3.87,2.23c1.15.68,2.39,1.39,3.61,2.05a20.83,20.83,0,0,0,3.18,1.43,1.47,1.47,0,0,0,.46.07,1.79,1.79,0,0,0,1.68-1.29,1.71,1.71,0,0,0-.85-2h.06a1.32,1.32,0,0,0,1-.43m-2.08,0-.47-.22a16.56,16.56,0,0,0-.77-2.22l.24.53.06.11a8.25,8.25,0,0,0,1.13,1.87l-.19-.07m-29.73.94a3.54,3.54,0,0,1-.58-.58,2.85,2.85,0,0,1-.32-.54,3.57,3.57,0,0,1-.18-.66,4.7,4.7,0,0,1,0-.65,1.11,1.11,0,0,0,.56-.69c.5,1,1,2.11,1.57,3.16a.58.58,0,0,0-.12.14l-.2.26a5.33,5.33,0,0,1-.72-.44m4,6.33h0a5.15,5.15,0,0,1-1-.27,4.59,4.59,0,0,1-.57-.32q-.15-.13-.3-.3a2.5,2.5,0,0,1-.21-.35,3,3,0,0,1-.11-.43,3.32,3.32,0,0,1,0-.63,6.15,6.15,0,0,1,.28-1l.05-.1a.94.94,0,0,0,.37-.07c.55,1.08,1.15,2.18,1.79,3.27a.62.62,0,0,0-.15.2Zm2.7,4.85a4,4,0,0,1-.57-.32c-.08-.08-.17-.16-.25-.25s-.1-.16-.14-.24-.07-.25-.1-.37a5.42,5.42,0,0,1,0-.57,6.87,6.87,0,0,1,.19-.75,32.81,32.81,0,0,0,1.78,2.77,8.48,8.48,0,0,1-.92-.27m21.35,47.64a1.17,1.17,0,0,0,.25-.11,1,1,0,0,0,1,.77l1.86,0c1.42,0,2.88.06,4.34.17a8.14,8.14,0,0,0-.75,1.36c-1.09-.24-2.21-.46-3.32-.67a2,2,0,0,0-.41-.05,1.37,1.37,0,0,0-.47.07c-.92-.51-1.85-1-2.77-1.5l.07,0,.22,0m8.63,2.56c.24-.42.47-.82.72-1.19a.86.86,0,0,0,.13-.41l2.13.27-.13-.06c2.94.44,5.88,1,8.75,1.71-.1.4-.2.79-.29,1.19l-.08.37-.19.81c-3.46-1-7.07-1.84-11-2.69m24.48,7.2c-3-1.21-6.21-2.34-9.77-3.43l-1.68-.5c.26-.8.46-1.65.63-2.38a92.7,92.7,0,0,1,12.73,4.3c2.13.91,4.22,1.88,6.21,2.88-.19.76-.41,1.55-.69,2.47-2.19-1.11-4.62-2.21-7.43-3.34m-30.29,7.83a46.41,46.41,0,0,1,1.87-5.55,41.91,41.91,0,0,1,3.48-6.5c1.1.25,2.22.51,3.33.78a53.76,53.76,0,0,0-5.42,14l-.05.21-.08.33c-1.11-1.13-2.16-2.25-3.13-3.31m39.73-3.43-.09-.05-.09,0a17,17,0,0,0,.78-2.47c.81.47,1.64.93,2.47,1.4l-.12.27-.1.27c-.24.54-.53,1.11-.89,1.75-.64-.39-1.3-.76-2-1.13M1118,416.31l-.74-1c-.48-.62-1-1.22-1.53-1.79a34.34,34.34,0,0,0-3.4-3.13,55.74,55.74,0,0,0-4.58-3.33,10.72,10.72,0,0,0,1.2-2.3c2.36,1.46,4.61,3,6.68,4.59.67.51,1.34,1,2,1.58l.67.55.36.3.29.25c.25.2.48.4.71.61-.15.5-.32,1-.53,1.51a20.21,20.21,0,0,1-1.1,2.17Z" style="fill:#161616"/><path d="M1129.8,312.1c0,1.76-.12,3.79-.26,6a23.53,23.53,0,0,1,2.4-1.36c.08-1.6.13-3.15.17-4.61a1.09,1.09,0,0,0-.32-.79,1.19,1.19,0,0,0-.84-.36,1.16,1.16,0,0,0-1.15,1.15" style="fill:#161616"/><path d="M1066,272a13.71,13.71,0,0,0-1.57.51l1.38,1.74.25.35.6-.17a1.26,1.26,0,0,0-.34-2.47,1.75,1.75,0,0,0-.32,0" style="fill:#161616"/><path d="M1059,300.32a1.18,1.18,0,0,0,1.59-1.62l-.07-.1c-.53.55-1,1.12-1.52,1.72" style="fill:#161616"/><path d="M1056,256.28c.18.48.36,1,.56,1.42,0,.11.09.22.14.33.2-.29.39-.59.6-.87a.8.8,0,0,0-.28-1.08.82.82,0,0,0-.39-.11.87.87,0,0,0-.63.31" style="fill:#161616"/><path d="M1032.67,206c-.83.72-1.64,1.45-2.42,2.22a1.79,1.79,0,0,1-.44.34c.65-.15,1.3-.27,2-.37,1.14-.14,2.29-.17,3.41-.37a.8.8,0,0,0,.6-.78.82.82,0,0,0-.6-.79A7.81,7.81,0,0,0,1033,206h-.36" style="fill:#161616"/><path d="M1037.24,232a9,9,0,0,0,0,1,13.88,13.88,0,0,1,1.68-1.29.86.86,0,0,0-1.68.25" style="fill:#161616"/><path d="M1049.56,234.29c.06.58.13,1.17.2,1.75s.16,1.14.25,1.7c0,.12.07.24.11.36a7.64,7.64,0,0,0,.67-2.91,1,1,0,0,0-.7-.91,1,1,0,0,0-.24,0,1,1,0,0,0-.29,0" style="fill:#161616"/><path d="M1082.83,281.4a.83.83,0,0,0,0,1.18,7.57,7.57,0,0,1,.88.91,8,8,0,0,1,.74,1.26c.08.21.15.42.22.63a.87.87,0,1,0,1.67-.46,7.71,7.71,0,0,0-2.33-3.52.89.89,0,0,0-.59-.24.81.81,0,0,0-.59.24" style="fill:#161616"/><path d="M1057.73,260.29l0,.07a1.67,1.67,0,0,0,.29-.93,1.57,1.57,0,0,0-1.4-1.56c.35.81.71,1.62,1.08,2.42" style="fill:#161616"/><path d="M1037.83,293c0,.34.07.68.12,1a1,1,0,0,0,.92.7,1,1,0,0,0,.93-.7c0-.25.08-.5.11-.75a20.28,20.28,0,0,1-1.38-2.9c-.19-.51-.37-1-.53-1.55a27.6,27.6,0,0,0-.17,4.17" style="fill:#161616"/><path d="M1109.46,246.49a1.41,1.41,0,0,0-1,1.73,1.48,1.48,0,0,0,.64.85l.27.2a2.4,2.4,0,0,1,.81-.56,3.09,3.09,0,0,1,.72-.38l.41-.15.67-.44c-.47-.38-1-.75-1.45-1.11a1.26,1.26,0,0,0-.69-.19,1.62,1.62,0,0,0-.4.05" style="fill:#161616"/><path d="M1160.17,379.74a17.46,17.46,0,0,1-2.25.75,11.61,11.61,0,0,0,2.12-.37,6.31,6.31,0,0,0,2.23-1.11,4.16,4.16,0,0,0,.56-.55,23.24,23.24,0,0,1-2.66,1.28" style="fill:#161616"/><path d="M1034.94,420.51c-3.46.36-6.9.92-10.31,1.59-6.77,1.34-13.43,3.19-20.07,5.1-3,.87-6.08,1.76-9.13,2.61a1.21,1.21,0,0,0-.83,1.46,1.19,1.19,0,0,0,1.46.83c12.25-3.45,24.46-7.22,37.1-9,4-.53,8-.84,12.09-1.05a1,1,0,0,0,.94-.94,1,1,0,0,0-.94-.94c-1.06-.06-2.13-.09-3.19-.09a70.45,70.45,0,0,0-7.12.39" style="fill:#161616"/><path d="M1124.39,414.08a1.21,1.21,0,0,0-1.18,1.18,1.19,1.19,0,0,0,1.18,1.19,201.24,201.24,0,0,1,23.17-.1c6.43.32,12.84.92,19.23,1.71-.4-.84-.79-1.69-1.14-2.55-2.13-.25-4.26-.49-6.4-.69-7.44-.72-14.92-1.13-22.4-1.13q-6.24,0-12.46.39" style="fill:#161616"/><path d="M1175.68,416.9q.71.71,1.47,1.35l.37,0a2.28,2.28,0,0,1,1.52.6c.3.28.61.54.92.8s.36.26.55.38c8,1.26,15.87,2.7,23.8,4.16a1.08,1.08,0,0,0,.79-.1,1.06,1.06,0,0,0,.47-.61,1,1,0,0,0-.72-1.27c-9.69-2-19.42-3.86-29.21-5.32l0,0" style="fill:#161616"/><path d="M1207,398a1,1,0,0,0-.59.45.94.94,0,0,0-.1.75c1.64,4,3.22,8.11,4.55,12.27.66,2.1,1.26,4.21,1.77,6.35.27,1.13.51,2.27.72,3.41-2.14-2.18-4.23-4.41-6.39-6.57-1.47-1.47-3-2.91-4.53-4.29-.77-.69-1.56-1.35-2.36-2s-1.61-1.31-2.47-1.89a.84.84,0,0,0-1,1.32,30.09,30.09,0,0,1,2.91,3.26l-.09-.12c2.84,3.69,4.94,7.86,7.39,11.81a.82.82,0,0,0,1.11.29.8.8,0,0,0,.28-1.1c-1.61-2.6-3.07-5.3-4.68-7.89l-.48-.77q1.59,1.53,3.14,3.1c2.67,2.72,5.26,5.51,7.92,8.24a.93.93,0,0,0,.91.24.89.89,0,0,0,.42-.24.92.92,0,0,0,.28-.66,72.55,72.55,0,0,0-2.92-12.84c-.42-1.33-.86-2.66-1.33-4q1.68,2.63,3.27,5.3c1.31,2.21,2.57,4.45,3.74,6.73s2.31,4.72,3.35,7.13a1,1,0,0,0,.31.3.84.84,0,0,0,.64.08.83.83,0,0,0,.59-1,71.21,71.21,0,0,0-3.16-7.09c-1.17-2.35-2.44-4.65-3.77-6.91-2.63-4.49-5.48-8.83-8.32-13.19a1,1,0,0,0-.85-.49.73.73,0,0,0-.25,0m-7.47,13.1,0,0,0,0" style="fill:#161616"/><path d="M1231.06,412.43a17,17,0,0,0-3.74,5.21c-1,2.06-1.69,4.24-2.49,6.38a.91.91,0,0,0,.63,1.11,1,1,0,0,0,.7-.09,1,1,0,0,0,.41-.54c.61-1.65,1.18-3.32,1.86-4.94a20.1,20.1,0,0,1,2.15-3.91c0,1,0,1.92,0,2.87a40,40,0,0,1-.11,5.79,1,1,0,0,0,0,.49,1,1,0,0,0,.44.57.94.94,0,0,0,1.14-.15,32.15,32.15,0,0,1,4.8-4.53l1.72-1.42c-.09.31-.17.62-.25.92a42.54,42.54,0,0,1-1.61,5.1c-.07.18-.15.35-.23.52a.92.92,0,0,0-.13.49,1,1,0,0,0,.28.68,1,1,0,0,0,.43.25.9.9,0,0,0,.75-.1,38.93,38.93,0,0,1,4-2.61c1.35-.77,2.73-1.47,4.13-2.13,2.82-1.35,5.7-2.57,8.5-4a.88.88,0,0,0,.31-1.21.85.85,0,0,0-.52-.41.92.92,0,0,0-.69.09c-2.81,1.37-5.71,2.57-8.54,3.89a57.83,57.83,0,0,0-5.66,3c.25-.78.47-1.56.69-2.35a39.85,39.85,0,0,1,1.49-4.92.64.64,0,0,1,0-.07,1.07,1.07,0,0,0,.14-.49,1,1,0,0,0-1.67-.69,19.94,19.94,0,0,1-2,1.93c-.83.73-1.69,1.43-2.54,2.13-1,.84-2,1.7-3,2.62,0-1,0-2,0-3s0-2,0-2.94a20.66,20.66,0,0,1,.12-2.49,1.55,1.55,0,0,1,0-.21.92.92,0,0,0-.42-1,1,1,0,0,0-.45-.12,1,1,0,0,0-.66.27m-.54,11.76s0,0,0,.06v-.06m0,.1h0" style="fill:#161616"/><path d="M1253.63,425a73.41,73.41,0,0,0-7.63,2.55,1,1,0,0,0-.53.42.85.85,0,0,0-.09.68.89.89,0,0,0,.41.54.88.88,0,0,0,.69.09c2.49-1,5-1.86,7.61-2.61a.87.87,0,0,0,.61-1.06.89.89,0,0,0-.84-.64.91.91,0,0,0-.23,0" style="fill:#161616"/><path d="M1121.07,422.07c-1.39,0-2.77,0-4.15,0a.76.76,0,0,0,0,1.52c2.82.05,5.66.05,8.49.05a174.2,174.2,0,0,1,22.95,1l.21,0,1.35.2a2,2,0,0,1,1.16-.36,16.47,16.47,0,0,0,2-.1,19.12,19.12,0,0,0,2.12-.48,69.37,69.37,0,0,0-7.3-1.19c-3-.34-5.93-.52-8.91-.61-2.19-.07-4.39-.09-6.58-.09-3.78,0-7.56.07-11.33.07" style="fill:#161616"/><path d="M1148.57,424.63h0" style="fill:#161616"/><path d="M1115.12,428.33a.78.78,0,0,0,.78.77l8.25.42c2.75.13,5.5.26,8.26.32a.76.76,0,0,0,.75-.75.77.77,0,0,0-.75-.76c-2.76-.14-5.51-.25-8.26-.37s-5.5-.25-8.25-.4h0a.79.79,0,0,0-.74.77" style="fill:#161616"/><path d="M1116.23,434.09a.43.43,0,0,0,.14.31.44.44,0,0,0,.31.13c2.75.21,5.5.47,8.24.8a.45.45,0,0,0,.29-.12.41.41,0,0,0,0-.6.4.4,0,0,0-.29-.12q-4.11-.53-8.24-.85h0a.46.46,0,0,0-.42.45" style="fill:#161616"/><path d="M1133.89,403.31a.49.49,0,0,0,0,.69c3.42,3.39,7,6.65,10.7,9.69a.57.57,0,0,0,.35.14.45.45,0,0,0,.33-.14.47.47,0,0,0,0-.68q-2.76-2.31-5.45-4.73c-1.79-1.61-3.53-3.27-5.24-5a.51.51,0,0,0-.34-.14.52.52,0,0,0-.35.14" style="fill:#161616"/><path d="M1133.32,387.72a.62.62,0,0,0-.18.42.67.67,0,0,0,.18.42q4.54,5.78,9.51,11.22c1.68,1.82,3.39,3.62,5.14,5.38s3.52,3.49,5.36,5.14a.59.59,0,0,0,.84-.83c-1.75-1.67-3.51-3.34-5.22-5.05s-3.47-3.55-5.15-5.37q-5-5.48-9.65-11.33a.57.57,0,0,0-.41-.17.59.59,0,0,0-.42.17" style="fill:#161616"/><path d="M1144,387c2.36,2.68,4.79,5.3,7.31,7.83a.63.63,0,0,0,.89-.89c-2.49-2.48-4.92-5-7.27-7.62q-2.85-3.18-5.53-6.48c-.21-.1-.42-.21-.62-.33-.43-.08-.86-.17-1.28-.27q3.15,4,6.5,7.76" style="fill:#161616"/><path d="M1148.72,381.17a56.28,56.28,0,0,0,6,5.92.66.66,0,0,0,.43.17.59.59,0,0,0,.42-.17.6.6,0,0,0,0-.85,58.29,58.29,0,0,1-5.36-5.18c-.51.05-1,.09-1.53.11" style="fill:#161616"/><path d="M1067.65,40.62a1.31,1.31,0,0,0,0,1.81c2.5,2.76,5.17,5.36,7.85,7.94s5.38,5.07,8.06,7.6a142.85,142.85,0,0,1,14.65,15.58l-.09-.12.19.24.1.14-.06-.08a65.65,65.65,0,0,1,8.16,13.79,56.92,56.92,0,0,1,2.94,9.11c.83,3.56,1.47,7.17,2,10.8l0-.25c2.5,18.95,1.57,38.11.38,57.11-.76,12.21-1.72,24.41-1.92,36.65a1.06,1.06,0,0,0,2.12,0c.32-18.91,2.49-37.72,3.36-56.61a269.39,269.39,0,0,0,0-28.56c-.28-4.66-.8-9.3-1.5-13.91-.33-2.23-.71-4.44-1.18-6.64a52.21,52.21,0,0,0-1.62-5.88,57.63,57.63,0,0,0-5-10.8,75.54,75.54,0,0,0-6.74-9.53A151.34,151.34,0,0,0,1083,52.57c-2.24-2-4.5-4-6.75-5.94s-4.51-4-6.76-6a1.41,1.41,0,0,0-.94-.37,1.24,1.24,0,0,0-.88.37m30.7,33.11,0-.06-.1-.12.14.18" style="fill:#161616"/><path d="M1066.42,20.21a1.18,1.18,0,0,0-.42,1.59c.23.47.45.93.65,1.4a24,24,0,0,1,1.63,5.87,19.83,19.83,0,0,1,0,4.49,17.23,17.23,0,0,1-1.07,4,16.36,16.36,0,0,1-1.72,3,14.51,14.51,0,0,1-2.35,2.35,15.21,15.21,0,0,1-3,1.75,18.25,18.25,0,0,1-4,1.07h0a1.4,1.4,0,0,0-.85.35,1.22,1.22,0,0,0-.34.85,1.2,1.2,0,0,0,.34.84,1.13,1.13,0,0,0,.85.35,21.21,21.21,0,0,0,4.09-.91,17.07,17.07,0,0,0,3.49-1.63,15.87,15.87,0,0,0,5.09-5.06,16.66,16.66,0,0,0,2.35-6.83,19.63,19.63,0,0,0-3-13,1.26,1.26,0,0,0-1-.57,1.13,1.13,0,0,0-.58.16m-6.06,24.31a.2.2,0,0,0-.08,0,.2.2,0,0,1,.08,0" style="fill:#161616"/><path d="M1090.55-.65c0,.49-.07,1-.13,1.46a17.76,17.76,0,0,1-1.08,4.06,16.2,16.2,0,0,1-1.86,3.2,18,18,0,0,1-2.93,2.92,24.48,24.48,0,0,1-5.16,3,38.36,38.36,0,0,1-9.6,2.5l.34-.05a47.81,47.81,0,0,1-12.42,0c-.62-.09-1.24-.19-1.86-.31a1.33,1.33,0,0,0-.94.12,1.28,1.28,0,0,0-.56.73,1.23,1.23,0,0,0,.85,1.5,49.45,49.45,0,0,0,14.62.49,35.17,35.17,0,0,0,14.51-4.54,19.18,19.18,0,0,0,6.29-6.06,16.43,16.43,0,0,0,2.43-9,1.26,1.26,0,0,0-1.25-1.25,1.28,1.28,0,0,0-1.25,1.25M1089.31,5a1,1,0,0,1-.07.15,1,1,0,0,0,.07-.15m-1.72,3-.07.09.07-.09" style="fill:#161616"/><path d="M1079.1,15.48a1.44,1.44,0,0,0-.65.84,1.37,1.37,0,0,0,.15,1.1,104.3,104.3,0,0,0,14.69,16.3,72.78,72.78,0,0,0,8.88,6.77,52.22,52.22,0,0,0,4.72,2.69,37.84,37.84,0,0,0,5,2.15l.61.19a1.16,1.16,0,0,0,.89-2.11,82.91,82.91,0,0,1-7.41-3.89,76,76,0,0,1-6.76-4.61,94.67,94.67,0,0,1-16.63-16.84l.08.11-.13-.18-.09-.1,0,0c-.5-.65-1-1.3-1.47-2a1.42,1.42,0,0,0-1.23-.7,1.42,1.42,0,0,0-.72.2M1099,34.7l.27.21ZM1082.57,18a.18.18,0,0,0,0,.07l-.1-.13,0,.06" style="fill:#161616"/><path d="M1112.22-3.49c0,1,.12,2,.21,3s.19,2.15.28,3.23q.3,3.1.54,6.23.48,6.29.63,12.57a203.87,203.87,0,0,1-.91,25.08c0,.41-.09.82-.13,1.23a1.11,1.11,0,0,0,.35.84,1.17,1.17,0,0,0,1.67,0,1.21,1.21,0,0,0,.35-.84,216,216,0,0,0,1.17-25c0-4.19-.19-8.39-.45-12.57s-.61-8.38-1.25-12.53c-.08-.48-.17-1-.28-1.45a1.1,1.1,0,0,0-1.07-.81,1.11,1.11,0,0,0-1.11,1.11" style="fill:#161616"/><path d="M1211.52-3.64c-3.38,54.49-7.06,109-9.77,163.49-2.34,47.19-3.93,94.44-3.88,141.7.8.54,1.63,1,2.47,1.51l.5.12q0-36.53,1-73.06c1.41-54.51,4.3-109,7.57-163.4q2.12-35.19,4.34-70.36a1.11,1.11,0,0,0-1.09-1.09,1.11,1.11,0,0,0-1.1,1.09" style="fill:#161616"/><path d="M1197.89,309.74l0,4.89,1.67.41a2.05,2.05,0,0,1,1.3,1.07l0-4.1c0-1.11,0-2.21,0-3.31-1,.33-2,.68-3,1" style="fill:#161616"/><path d="M1200.31,318.71a4,4,0,0,1-.49.42l-.52.34a1.72,1.72,0,0,1-.34.46c-.32.32-.65.63-1,.93,0,.87,0,1.75,0,2.63q.06,5.25.17,10.51c.21-.28.42-.56.64-.83a14.48,14.48,0,0,1,1.3-2,12.35,12.35,0,0,1,.89-1q-.07-6.1-.12-12.2a2,2,0,0,1-.59.71" style="fill:#161616"/><path d="M1198.76,366.87c.2,7,.6,14,1.43,21a83,83,0,0,0,4.64,20.54,1.07,1.07,0,0,0,.47.61,1,1,0,0,0,.79.1,1,1,0,0,0,.71-1.26c-.3-1.43-.64-2.86-.94-4.3-.36-1.69-.69-3.38-1-5.07q-.91-4.74-1.56-9.53c0,.13,0,.26,0,.4-1.6-12.23-1.85-24.57-2-36.88a15,15,0,0,1-1.26-1.13,11.88,11.88,0,0,1-1.61-1.48c.07,5.67.12,11.34.28,17" style="fill:#161616"/><path d="M1108.13,89.34a22.19,22.19,0,0,1-1.49,2.23,20.88,20.88,0,0,1-3.43,3.41,21.71,21.71,0,0,1-4.41,2.59,21.08,21.08,0,0,1-5,1.37,19.61,19.61,0,0,1-4.72,0,19,19,0,0,1-4.31-1.17,18.51,18.51,0,0,1-3.6-2.1,20.16,20.16,0,0,1-3.53-3.56l0,.06a1.3,1.3,0,0,0-.72-.53,1.27,1.27,0,0,0-1.43,1.86,20.39,20.39,0,0,0,3,3.39,18.63,18.63,0,0,0,11.28,4.8,20.54,20.54,0,0,0,7.9-.94,22.48,22.48,0,0,0,7.28-4,22.75,22.75,0,0,0,5.28-6.2,1.25,1.25,0,0,0-.44-1.69,1.19,1.19,0,0,0-.62-.17,1.25,1.25,0,0,0-1.08.61m-1.32,2-.12.15Z" style="fill:#161616"/><path d="M1047.7,91a1.25,1.25,0,0,0-.44,1.69,14.14,14.14,0,0,0,5,5.57,12.86,12.86,0,0,0,6.41,1.86,17.63,17.63,0,0,0,6.66-1.18,25,25,0,0,0,6.31-3.51,26.73,26.73,0,0,0,3.26-2.85,1,1,0,0,0,0-1.37,1,1,0,0,0-1.37,0,28.46,28.46,0,0,1-2.59,2.31,24,24,0,0,1-4.87,2.86,19.41,19.41,0,0,1-4.55,1.3,14.62,14.62,0,0,1-3.62,0,12.79,12.79,0,0,1-2.73-.73,12.48,12.48,0,0,1-2.32-1.36,13.83,13.83,0,0,1-2.21-2.25,18.7,18.7,0,0,1-1.25-1.93,1.22,1.22,0,0,0-1.07-.61,1.26,1.26,0,0,0-.62.17m23.42,2.38-.17.13.17-.13m-9.6,4.3-.3,0,.3,0" style="fill:#161616"/><path d="M1002.23,66.87a26.2,26.2,0,0,0,1,9.28,22.64,22.64,0,0,0,10.23,12.76,29.24,29.24,0,0,0,7.67,3.17,37.51,37.51,0,0,0,27.51-3.76,1.54,1.54,0,0,0,.54-2.09,1.52,1.52,0,0,0-2.08-.55,36.92,36.92,0,0,1-3.38,1.71,35.66,35.66,0,0,1-8.67,2.34,36.22,36.22,0,0,1-9,0,32.61,32.61,0,0,1-7.59-2,26.24,26.24,0,0,1-5.43-3.15,22.84,22.84,0,0,1-3.71-3.71,22.21,22.21,0,0,1-2.55-4.4,24.69,24.69,0,0,1-1.53-5.66,30,30,0,0,1-.21-3.91,1.4,1.4,0,0,0-2.8,0m4.61,9.73a.49.49,0,0,0,0,.11.49.49,0,0,1,0-.11m2.55,4.33a.86.86,0,0,1,.07.1l-.07-.1m34.33,6.46-.24.1.24-.1m-25.54.19.1,0-.1,0" style="fill:#161616"/><path d="M980.76,42.37a17.24,17.24,0,0,0,3.66,16.21,20.78,20.78,0,0,0,6.38,4.9A25,25,0,0,0,999,65.9a24.46,24.46,0,0,0,4.19.19,1.07,1.07,0,0,0,0-2.13,25.67,25.67,0,0,1-3.92-.18,23,23,0,0,1-5.45-1.51,21.5,21.5,0,0,1-4.38-2.53,19.68,19.68,0,0,1-3.07-3.05A18.2,18.2,0,0,1,984.25,53a18.64,18.64,0,0,1-1.12-4.22,25.42,25.42,0,0,1,.14-6.1,1.21,1.21,0,0,0-.18-.64,1.23,1.23,0,0,0-1.09-.63,1.31,1.31,0,0,0-1.24.93m2.34,6.24s0,.07,0,.11,0-.07,0-.11m0,.28v0m10.75,13.4.2.09-.2-.09" style="fill:#161616"/><path d="M966-9a17.63,17.63,0,0,0-3.19,2.46,18.23,18.23,0,0,0-2.46,3.06,19.1,19.1,0,0,0-2.69,7.15,32.09,32.09,0,0,0,1.87,16.48,40.54,40.54,0,0,0,9.06,14.45,27.68,27.68,0,0,0,6.27,4.81,21.94,21.94,0,0,0,3.55,1.55,18.67,18.67,0,0,0,3.69.79,16.4,16.4,0,0,0,5.5-.32,1.43,1.43,0,0,0,1-1.74,1.46,1.46,0,0,0-1.75-1c-.36.08-.71.15-1.07.2a15,15,0,0,1-3.54,0,17.69,17.69,0,0,1-4-1.11,22.31,22.31,0,0,1-4.54-2.68,30.66,30.66,0,0,1-5.35-5.45,39.37,39.37,0,0,1-4.73-8.2A39.15,39.15,0,0,1,961.07,12,29.25,29.25,0,0,1,961,4.86a22.25,22.25,0,0,1,1.39-5.19,18.09,18.09,0,0,1,2.06-3.53,18.69,18.69,0,0,1,3-3,.1.1,0,0,1,0,0,1.35,1.35,0,0,0,.52-.72,1.32,1.32,0,0,0-.13-1,1.37,1.37,0,0,0-1.17-.66A1.28,1.28,0,0,0,966-9m-1.64,5.3-.08.09.08-.09m-2,3.56-.06.14.06-.14m1.4,21.77.06.15-.06-.15M982,38.82l.24,0-.24,0" style="fill:#161616"/><path d="M1088.11,11.71a.87.87,0,0,0-.31,1.19c2.47,3.5,4.82,7.08,7.17,10.65,1.16,1.76,2.32,3.52,3.5,5.26s2.4,3.55,3.72,5.23a.78.78,0,0,0,.39.23.89.89,0,0,0,.68-.09.87.87,0,0,0,.32-1.2c-.58-.85-1.18-1.68-1.77-2.52s-1.19-1.71-1.77-2.57c-1.19-1.74-2.36-3.48-3.52-5.24-2.37-3.57-4.73-7.14-7.21-10.63a.88.88,0,0,0-.52-.4.91.91,0,0,0-.23,0,.89.89,0,0,0-.45.12" style="fill:#161616"/><path d="M1095.37,7.1a.81.81,0,0,0-.29,1.11q2.57,5,5.28,9.86,1.35,2.45,2.75,4.86c.48.83,1,1.66,1.46,2.49s1,1.65,1.51,2.44a.89.89,0,0,0,1.19.31.87.87,0,0,0,.31-1.19c-.44-.78-.92-1.54-1.38-2.31l-1.49-2.46c-1-1.6-1.88-3.22-2.81-4.84q-2.79-4.94-5.43-10a.78.78,0,0,0-.7-.39.79.79,0,0,0-.4.1" style="fill:#161616"/><path d="M1101.66,4.33a.78.78,0,0,0-.28,1.06c2.69,4.81,5.45,9.58,8.33,14.28a.82.82,0,0,0,1.41-.82c-1.42-2.33-2.84-4.66-4.23-7s-2.8-4.81-4.17-7.24a.76.76,0,0,0-1.06-.28" style="fill:#161616"/><path d="M1246.67,71.6a36.09,36.09,0,0,1-1.64,5,30.28,30.28,0,0,1-3.7,6.35,28.44,28.44,0,0,1-4.69,4.68,27.31,27.31,0,0,1-5.4,3.17,24.43,24.43,0,0,1-12.91,1.76,27.81,27.81,0,0,1-6.52-1.81,31.17,31.17,0,0,1-4.2-2.22,1.37,1.37,0,0,0-1.86.48,1.39,1.39,0,0,0,.49,1.87,31,31,0,0,0,8.89,3.87,27.43,27.43,0,0,0,13.39,0,28.44,28.44,0,0,0,4.22-1.46,27.83,27.83,0,0,0,7.37-4.75,29,29,0,0,0,5.75-7,29.48,29.48,0,0,0,3.52-9.2,1.45,1.45,0,0,0-.14-1.08,1.33,1.33,0,0,0-1.2-.69,1.42,1.42,0,0,0-1.37,1m-5.17,11.14-.14.18.14-.18m-23.35,9.79.15,0-.15,0m.23,0,.14,0-.14,0" style="fill:#161616"/><path d="M1274.55,63.19a24.29,24.29,0,0,1-1.62,2.42,21.21,21.21,0,0,1-3.58,3.57,20.06,20.06,0,0,1-4,2.34,21.41,21.41,0,0,1-4.87,1.33,23.85,23.85,0,0,1-5.91,0l.18,0-.2,0h0a25.9,25.9,0,0,1-5.67-1.49,1.08,1.08,0,0,0-1.33.76,1,1,0,0,0,.11.83,1.15,1.15,0,0,0,.64.51,25.2,25.2,0,0,0,16,1,20.68,20.68,0,0,0,12.45-10,1.25,1.25,0,0,0-.44-1.69,1.19,1.19,0,0,0-.62-.17,1.25,1.25,0,0,0-1.08.61m-5,5.82-.15.12.15-.12m-15.06,3.84h0" style="fill:#161616"/><path d="M1325,16.62a1.39,1.39,0,0,0-.83.63,1.59,1.59,0,0,0-.14,1.07l.06.37a38.28,38.28,0,0,1,0,9.86,44.91,44.91,0,0,1-3,10.71,47,47,0,0,1-5.82,10A42.76,42.76,0,0,1,1308,56.5a34.91,34.91,0,0,1-7.33,4.33,29,29,0,0,1-6.89,1.9,26.34,26.34,0,0,1-6.52,0,27.75,27.75,0,0,1-7-1.94l-.78-.35a1.34,1.34,0,0,0-1-.13,1.28,1.28,0,0,0-.75.58,1.26,1.26,0,0,0,.45,1.72,32.71,32.71,0,0,0,4.47,1.72,28.1,28.1,0,0,0,13,.71A33.66,33.66,0,0,0,1311,57.63a45.74,45.74,0,0,0,11.09-13.75,44.16,44.16,0,0,0,5.16-17.05,31.6,31.6,0,0,0-.56-9.25,1.38,1.38,0,0,0-1.36-1,1.33,1.33,0,0,0-.34.05m-17.06,40-.08.07.08-.07" style="fill:#161616"/><path d="M1347.8-15.46a1.2,1.2,0,0,0-.73.55,1.31,1.31,0,0,0-.12.93c.1.5.19,1,.25,1.49a24.59,24.59,0,0,1,0,6.24,24.36,24.36,0,0,1-1.6,5.86,27,27,0,0,1-3.34,5.68,29.86,29.86,0,0,1-5,5,31.42,31.42,0,0,1-7,4.06,30.44,30.44,0,0,1-7.12,2,1,1,0,0,0-.62.47,1,1,0,0,0,.37,1.4,1.14,1.14,0,0,0,.79.1,32.6,32.6,0,0,0,14.64-5.95,30.87,30.87,0,0,0,5.71-5.42,29.79,29.79,0,0,0,2.29-3.26A27.5,27.5,0,0,0,1348.12.1a24.64,24.64,0,0,0,1.72-7,23.21,23.21,0,0,0-.56-7.7,1.19,1.19,0,0,0-1.18-.88,1,1,0,0,0-.3,0m-17.46,29.81h0" style="fill:#161616"/><path d="M1204.8,400.09a1.2,1.2,0,0,0,1.19,1.19,156.88,156.88,0,0,1,18.24,1.41l-.32,0c16.1,2.18,31.82,6.52,47.16,11.79s30.19,11.48,45.07,17.74l4.3,1.81,0,0,.06,0,.14.06-.12-.05.13.06a1.3,1.3,0,0,0,.89.11,1.2,1.2,0,0,0,.7-.53,1.15,1.15,0,0,0,.11-.89,1.13,1.13,0,0,0-.53-.7L1311,427.38q-5.55-2.37-11.14-4.67c-7.53-3.1-15.11-6.07-22.77-8.82-15.31-5.49-31-10.11-47.06-12.75a165.3,165.3,0,0,0-24-2.24h0a1.2,1.2,0,0,0-1.17,1.19M1320.47,434h0" style="fill:#161616"/><path d="M1322.06,405.05a.91.91,0,0,0-.33,1.23c1.71,3.42,3.34,6.88,4.83,10.4l-.09-.22a123.72,123.72,0,0,1,5.3,15.16c-2.2-2-4.34-4-6.48-6.08-3-2.84-5.92-5.71-9.06-8.36a.94.94,0,0,0-.63-.26.89.89,0,0,0-.63.26.86.86,0,0,0-.26.63,1,1,0,0,0,.26.63,1.13,1.13,0,0,1,.1.13,1.13,1.13,0,0,0-.1-.13,46.06,46.06,0,0,1,4.68,7.77c1.35,2.73,2.57,5.52,3.95,8.24a.87.87,0,0,0,1.2.31.88.88,0,0,0,.32-1.2c-1.38-2.72-2.61-5.51-3.95-8.24-.4-.81-.81-1.61-1.24-2.4,1.33,1.24,2.65,2.51,4,3.77,2.91,2.79,5.82,5.58,8.86,8.23a.94.94,0,0,0,1.11.14.92.92,0,0,0,.41-1,110.13,110.13,0,0,0-4.6-14.51q-1-2.46-2-4.88c1,1.38,1.94,2.75,2.9,4.13,2.94,4.24,5.8,8.53,8.5,12.93a.84.84,0,0,0,1.45-.84c-2.62-4.38-5.45-8.63-8.34-12.82s-6-8.42-8.88-12.67a1,1,0,0,0-.54-.41l-.24,0a.89.89,0,0,0-.45.12m-7.12,13.34,0,.05Z" style="fill:#161616"/><path d="M1349.19,421a19.34,19.34,0,0,0-2,2.92,18.09,18.09,0,0,0-1.41,3.33,18.36,18.36,0,0,0-.68,7.22.74.74,0,0,0,.2.47.66.66,0,0,0,1.13-.47,18.87,18.87,0,0,1,.06-4.25,17.69,17.69,0,0,1,1.13-4.1,18.72,18.72,0,0,1,2.33-4l0,0,.2-.25a.71.71,0,0,0,.19-.46.67.67,0,0,0-.19-.47.73.73,0,0,0-.49-.19.58.58,0,0,0-.45.19" style="fill:#161616"/><path d="M1360.57,424.59a35.53,35.53,0,0,0-9.31,9.31.71.71,0,0,0,.25,1,.72.72,0,0,0,1-.25c.37-.54.75-1.07,1.15-1.59l-.06.07.07-.09,0,0,0,0a35.67,35.67,0,0,1,6.21-6.19c.46-.35.92-.69,1.39-1a.7.7,0,0,0-.37-1.3.56.56,0,0,0-.33.1m-6.92,8.43v0l0,0,0,0" style="fill:#161616"/><path d="M1368.26,429.29a84.09,84.09,0,0,0-12.61,7.6.82.82,0,0,0-.37.47.79.79,0,0,0,1.17.9c2.34-1.62,4.71-3.23,7.16-4.69-1.23,1.26-2.44,2.52-3.76,3.68a.82.82,0,0,0,.8,1.36c5.85-1.76,12-2.28,17.81-4.2a.74.74,0,0,0,.51-.9.73.73,0,0,0-.9-.51c-4.83,1.51-9.87,2.12-14.8,3.25a65.31,65.31,0,0,1,6-5.69.82.82,0,0,0,.21-.36.79.79,0,0,0-.08-.62.84.84,0,0,0-.48-.37l-.21,0a1,1,0,0,0-.41.11" style="fill:#161616"/><path d="M911.87,399.92a.91.91,0,0,0-.28.66,1,1,0,0,0,.28.66c2.69,3.23,5.34,6.48,7.91,9.8A147.32,147.32,0,0,1,932,429.24c-3.95-1.74-7.93-3.42-12-4.77a48.33,48.33,0,0,0-15.88-2.73.93.93,0,0,0-.9.68.91.91,0,0,0,.43,1.05c7.49,3.19,15,6.61,21.49,11.56,1.26,1,2.48,2,3.64,3.1a.92.92,0,1,0,1.3-1.31c-6.05-5.68-13.39-9.56-20.91-12.95l.48.06a71.74,71.74,0,0,1,17.72,5.33h0c2.12.89,4.22,1.83,6.32,2.77a1,1,0,0,0,.48.13.92.92,0,0,0,.66-.28,1,1,0,0,0,.15-1.14,127.17,127.17,0,0,0-10-15.93q-1.34-1.85-2.73-3.67A163.1,163.1,0,0,1,935,425.66l-.14-.19c1.68,2.18,3.3,4.42,4.85,6.7a.92.92,0,0,0,1.23.32.9.9,0,0,0,.33-1.23c-7-10.47-15.62-19.71-24.76-28.29-1.1-1-2.2-2-3.31-3.05a1,1,0,0,0-.67-.27.87.87,0,0,0-.65.27" style="fill:#161616"/><path d="M947.88,418.25a.93.93,0,0,0-.39.52,68.64,68.64,0,0,0-4,14.07,1,1,0,0,0,.09.69.94.94,0,0,0,.53.41.93.93,0,0,0,.69-.09.86.86,0,0,0,.41-.54,77.49,77.49,0,0,1,3.91-14.09.86.86,0,0,0-.6-1.05.83.83,0,0,0-.22,0,.93.93,0,0,0-.44.11" style="fill:#161616"/><path d="M954.47,424.23q-3.09,3.93-5.79,8.15a1,1,0,0,0,1.77,1q2.63-4.11,5.57-8a1,1,0,0,0,.14-.49,1,1,0,0,0-.29-.7,1,1,0,0,0-.7-.29.93.93,0,0,0-.7.29" style="fill:#161616"/><path d="M1048.77,427.29c-5.81.2-11.62.41-17.42.77s-11.63.87-17.39,1.79a99.22,99.22,0,0,0-13.73,3.13.71.71,0,0,0,.37,1.37,104.13,104.13,0,0,1,16.85-3.57l-.19,0c5.2-.7,10.43-1.11,15.66-1.4s10.57-.48,15.85-.8a.66.66,0,0,0,0-1.32h0" style="fill:#161616"/><path d="M1019.19,434.09a.78.78,0,0,0-.76.76.77.77,0,0,0,.76.76c3.6-.16,7.21-.17,10.81-.06a.72.72,0,1,0,0-1.43c-1.87-.09-3.74-.14-5.61-.14s-3.47,0-5.2.11" style="fill:#161616"/><path d="M1245.33,457.43a1,1,0,0,0-.28.68,1,1,0,0,0,.28.68c1.38,1.72,2.77,3.44,4.12,5.19l-.16-.2a68.83,68.83,0,0,1,8.35,13.09c-2.29-1-4.63-1.91-7-2.74-1.55-.55-3.12-1.07-4.69-1.58s-3.11-1-4.67-1.48a.87.87,0,0,0-.67,1.59c2.51,1.28,4.9,2.8,7.3,4.28s4.81,3,7.33,4.26a.85.85,0,0,0,1.14-.3.84.84,0,0,0-.3-1.15c-2.51-1.29-4.92-2.77-7.32-4.27l-.35-.21c2.36.8,4.7,1.66,7,2.63l-.22-.09c1.28.55,2.54,1.12,3.78,1.75a1,1,0,0,0,.94,0,.93.93,0,0,0,.44-1.06,51.62,51.62,0,0,0-6-11.05c-1.29-1.88-2.66-3.7-4.06-5.49.56.39,1.12.8,1.66,1.22l0,0,.14.11,0,0h0a79.28,79.28,0,0,1,12.29,12.21.89.89,0,0,0,1.51-.63.91.91,0,0,0-.26-.62c-5.33-6.69-11.64-12.77-19.14-17a1,1,0,0,0-1.17.15m6.77,5.86,0,0-.11-.08.14.11" style="fill:#161616"/><path d="M1274.72,471.39a26.69,26.69,0,0,0-3.74,8.17.87.87,0,0,0,1.67.46,27.81,27.81,0,0,1,1.22-3.57,29.71,29.71,0,0,1,2.26-4.24.82.82,0,0,0-.29-1.12.86.86,0,0,0-.4-.11.89.89,0,0,0-.72.41" style="fill:#161616"/><path d="M1283,475.34q-3.68,2-7.17,4.27a.79.79,0,1,0,.8,1.37q3.49-2.3,7.14-4.31a.78.78,0,0,0,.28-1.06.79.79,0,0,0-1-.27" style="fill:#161616"/><path d="M1124.39,38.86q.4,18.53.5,37.06t0,37.09c0,6.11-.12,12.23-.11,18.35a.9.9,0,0,0,1.79,0c.18-6.18.2-12.36.23-18.54s0-12.36,0-18.54q-.15-18.54-.54-37.08l-.39-18.34a.71.71,0,1,0-1.41,0" style="fill:#161616"/><path d="M1125.36,142.36c.12,4,.14,8.08.09,12.12a.67.67,0,1,0,1.34,0q0-6.06-.16-12.12a.64.64,0,0,0-1.27,0" style="fill:#161616"/><path d="M1191.24,10.36a.83.83,0,0,0-.23.56c-.67,6.3-1.26,12.6-1.72,18.92s-.82,12.67-1.11,19c-.58,12.69-.9,25.39-1,38.1-.05,4.93-.11,9.87,0,14.81a1.07,1.07,0,0,0,2.14,0c.1-3.16.12-6.33.16-9.49s0-6.34.08-9.5q.08-9.54.22-19c.09-6.36.28-12.71.53-19.06s.59-12.67,1-19c.35-4.92.76-9.84,1.27-14.74a.79.79,0,0,0-1.33-.56" style="fill:#161616"/><path d="M1169.49,145.1c-.47,13-.33,26-.09,39s.61,26,.7,39c0,4.61,0,9.22,0,13.83a1,1,0,1,0,2,0c.19-6.49.17-13,.09-19.48s-.26-13-.45-19.52c-.37-13-.79-26-.72-39,0-4.61.1-9.23.27-13.84a.88.88,0,0,0-.88-.88.89.89,0,0,0-.88.88" style="fill:#161616"/><path d="M1179.07,187.38c1,17.5.67,35,.11,52.54s-1.36,35.12-1.12,52.7q.09,7.35.48,14.7.06,1.24.15,2.49c.35-.1.7-.22,1-.35s.44-.21.66-.32v-.25c-.23-4.37-.38-8.75-.48-13.12-.19-8.77-.13-17.55,0-26.32.34-17.57,1.12-35.13,1.23-52.7.07-9.8-.1-19.59-.67-29.37a.72.72,0,0,0-1.44,0" style="fill:#161616"/><path d="M1179.12,315.49c.09.92.19,1.84.32,2.75.08.6.2,1.19.29,1.79s.22,1.37.33,2.06a.46.46,0,0,0,.45.34.47.47,0,0,0,.46-.47c0-1-.07-2.09-.07-3.13s-.08-2.27-.14-3.4c0-.22,0-.44,0-.66-.52.26-1,.5-1.6.72" style="fill:#161616"/><path d="M1181.27,361.87c0,.84,0,1.68,0,2.51q.06,3.67,0,7.35,0,1.86-.06,3.72c0,1.22-.1,2.45-.1,3.68a.88.88,0,0,0,1.5.62.91.91,0,0,0,.26-.62c.12-1.17.14-2.34.17-3.5s.06-2.48.07-3.72c0-2.45,0-4.9-.09-7.35q-.06-2.37-.15-4.74a9.67,9.67,0,0,1-1.67,2.05" style="fill:#161616"/><path d="M1168.72-13.2c.59,13.49,1.14,27,1.41,40.5s.23,27.27-.26,40.89q-.22,6.07-.57,12.15c-.23,4-.52,8-.77,12a.81.81,0,0,0,.81.8.78.78,0,0,0,.57-.24.84.84,0,0,0,.24-.56c.82-6.68,1.24-13.41,1.55-20.13s.44-13.58.46-20.38c0-13.63-.37-27.27-.9-40.89-.31-8.06-.68-16.12-1-24.18a.77.77,0,0,0-.76-.76.76.76,0,0,0-.75.76" style="fill:#161616"/><path d="M1159.18,45.64q.35,5.78.55,11.57.11,2.94.14,5.88c0,1,0,2,0,2.94s0,2,0,2.94a.78.78,0,0,0,.77.76.77.77,0,0,0,.54-.22.85.85,0,0,0,.23-.54c.1-.92.12-1.84.14-2.76s0-2,0-2.94q0-2.94-.15-5.88c-.17-3.92-.43-7.83-.68-11.75a.81.81,0,1,0-1.62,0" style="fill:#161616"/><path d="M1127.84,253.38a43.5,43.5,0,0,0-5.59.38,14.38,14.38,0,0,0-5.3,1.88.64.64,0,0,0-.22.86.63.63,0,0,0,.85.23c.32-.16.63-.31,1-.45a14.37,14.37,0,0,1,3.21-.86,37.7,37.7,0,0,1,5.52-.14,42,42,0,0,1,4.75.37l-.28,0a38.43,38.43,0,0,1,9.58,2.61,36.21,36.21,0,0,1,7.73,4.5,33.84,33.84,0,0,1,5.73,5.68l0,0a29.42,29.42,0,0,1,3.81,6.47,25.77,25.77,0,0,1,1.68,6.08.28.28,0,0,0,0-.09l0,.13s0,.06,0,.1V281a25.22,25.22,0,0,1,0,6.26.88.88,0,0,1,0-.16l0,.2v0a25.46,25.46,0,0,1-1.75,6.29l.09-.2a30.61,30.61,0,0,1-3.81,6.49,32.11,32.11,0,0,1-5.44,5.55,28.29,28.29,0,0,1-6,3.52,31,31,0,0,1-7.4,2,35.61,35.61,0,0,1-9.11,0,37.55,37.55,0,0,1-9.32-2.55,36.23,36.23,0,0,1-7.61-4.44,31.86,31.86,0,0,1-5.27-5.24,23.8,23.8,0,0,1-3-5.16,29.25,29.25,0,0,1-1.91-7.19,33.66,33.66,0,0,1,0-8.45,32.83,32.83,0,0,1,2.17-7.9,27.65,27.65,0,0,1,3.42-5.85,23.89,23.89,0,0,1,3.86-3.86,22.1,22.1,0,0,1,4.64-2.69,1.21,1.21,0,0,0,.59-.77,1.28,1.28,0,0,0-.13-1,1.3,1.3,0,0,0-.77-.59l-.35-.05a1.28,1.28,0,0,0-.66.18,23,23,0,0,0-5.34,3.24,24.72,24.72,0,0,0-4.26,4.47,26.42,26.42,0,0,0-3,5.21,32.87,32.87,0,0,0-2,6,35.66,35.66,0,0,0-.86,6.35,33.94,33.94,0,0,0,.33,6.37,28.18,28.18,0,0,0,4.18,11.38,29,29,0,0,0,4.22,5,34.07,34.07,0,0,0,5.38,4.19,37.6,37.6,0,0,0,12.57,5c8.77,1.77,18.38.44,25.74-4.87a30.65,30.65,0,0,0,5.24-4.88,34.84,34.84,0,0,0,4.22-6.07,26.32,26.32,0,0,0,.88-24.16,31,31,0,0,0-7.27-9.89,35.83,35.83,0,0,0-11.1-6.91,35.46,35.46,0,0,0-13-2.45h-.47m-23.34,45.23.07.09-.07-.09M1110,304l.07.06L1110,304m39.37,1.39-.17.14.17-.14m10.91-18.13h0v0m0-6.3v-.07a.2.2,0,0,1,0,.07" style="fill:#161616"/><path d="M1125.4,249a21.3,21.3,0,0,0-.15,5.47c.1,1.9.27,3.81.36,5.71a1.5,1.5,0,0,0,3,0c-.09-1.81-.17-3.61-.26-5.42,0-.95-.1-1.9-.16-2.85a16.64,16.64,0,0,0-.34-2.91,1.27,1.27,0,0,0-2.45,0" style="fill:#161616"/><path d="M1122,249.42a4.3,4.3,0,1,0,4.3-4.3,4.35,4.35,0,0,0-4.3,4.3" style="fill:#161616"/><path d="M1125.54,241a9.36,9.36,0,0,0-3.25,1.58,12,12,0,0,0-2.69,2.77.86.86,0,0,0,.31,1.18.83.83,0,0,0,.67.09.85.85,0,0,0,.51-.4,2.35,2.35,0,0,0,.19-.25,10.46,10.46,0,0,1,1.55-1.57,9.37,9.37,0,0,1,1.81-1.07,8.84,8.84,0,0,1,1.81-.5,8.17,8.17,0,0,1,1.64,0,7.55,7.55,0,0,1,1.59.45,13,13,0,0,1,1.7,1,1,1,0,0,0,1.17-.15,1,1,0,0,0,0-1.37,7.16,7.16,0,0,0-3.32-1.8,7.72,7.72,0,0,0-1.65-.18,8.76,8.76,0,0,0-2,.25m.83,1.84h0" style="fill:#161616"/><path d="M1124.67,237.57a10.2,10.2,0,0,0-7.23,4.81,1.52,1.52,0,0,0,2.62,1.53,6.36,6.36,0,0,1,.46-.69,8.74,8.74,0,0,1,1.32-1.33,10,10,0,0,1,1.7-1,11.54,11.54,0,0,1,2.37-.64,11.74,11.74,0,0,1,2.65,0,15.7,15.7,0,0,1,3.61,1,1.11,1.11,0,0,0,1.25-.51,1.12,1.12,0,0,0,.11-.86,1.2,1.2,0,0,0-.51-.66,10.43,10.43,0,0,0-3.91-1.61,14.93,14.93,0,0,0-2.22-.25h-.27a12.73,12.73,0,0,0-1.95.17" style="fill:#161616"/><path d="M1123.47,233.33a15.89,15.89,0,0,0-2.84,1,13,13,0,0,0-2.37,1.37,11.83,11.83,0,0,0-3.75,4.23,1.64,1.64,0,0,0-.15,1.21,1.57,1.57,0,0,0,2.87.37,9.76,9.76,0,0,1,.8-1.31,11.28,11.28,0,0,1,1.62-1.62,14.38,14.38,0,0,1,2.66-1.54,14.78,14.78,0,0,1,3.19-.87,12.23,12.23,0,0,1,2.9,0,10.77,10.77,0,0,1,2.14.58,9.81,9.81,0,0,1,1.79,1.06l-.07-.05a1.3,1.3,0,0,0,.83.32,1.26,1.26,0,0,0,.89-.37,1.29,1.29,0,0,0,0-1.78,8.9,8.9,0,0,0-4.65-2.65,11.59,11.59,0,0,0-2.63-.29,14.68,14.68,0,0,0-3.23.37" style="fill:#161616"/><path d="M1100.46,275.39c-1.66.54-2.44,2.31-2.81,3.88a.89.89,0,0,0,0,.51,1.2,1.2,0,0,0-.48.69,11,11,0,0,0-.12,3.24,9.94,9.94,0,0,0,.29,1.52,9.56,9.56,0,0,0,.56,1.46,8.07,8.07,0,0,0,1.47,2.14,6.29,6.29,0,0,0,1.87,1.36,5,5,0,0,0,2.28.51,4.1,4.1,0,0,0,2.17-.69,7,7,0,0,0,2.63-5,9.81,9.81,0,0,0,.12-1.33,7.3,7.3,0,0,0-.14-1.32,8.63,8.63,0,0,0-.84-2.41,10,10,0,0,0-3.19-3.75,5,5,0,0,0-2.83-1,3.6,3.6,0,0,0-1,.15m1.22,1.53a4.1,4.1,0,0,1,.66.19,5.1,5.1,0,0,1,1,.6,8,8,0,0,1,1.32,1.34,10.26,10.26,0,0,1,1.17,2,8.54,8.54,0,0,1,.51,1.86,6.28,6.28,0,0,1,0,1.3,10,10,0,0,1-.58,2.21,6,6,0,0,1-.56,1,4.26,4.26,0,0,1-.52.52,4.12,4.12,0,0,1-.45.27,2.85,2.85,0,0,1-.48.13h-.55a5.12,5.12,0,0,1-.67-.19,6.44,6.44,0,0,1-.8-.47,7.5,7.5,0,0,1-.84-.85,7.84,7.84,0,0,1-.81-1.4,8.5,8.5,0,0,1-.5-1.84,10,10,0,0,1,0-2.19,1.87,1.87,0,0,1,0-.25,1.3,1.3,0,0,0-.53-1.4.14.14,0,0,1,0-.06,8.24,8.24,0,0,1,.34-1.1,5.57,5.57,0,0,1,.52-.92,4,4,0,0,1,.41-.41,1.72,1.72,0,0,1,.37-.22,2.91,2.91,0,0,1,.39-.12,3,3,0,0,1,.52,0m4.11,4,0,.07,0-.07m0,.12.05.12a.61.61,0,0,1-.05-.12" style="fill:#161616"/><path d="M1125.31,282.5a8.48,8.48,0,0,0-2.25,2.52,6.53,6.53,0,0,0-.84,3.17,6,6,0,0,0,1.26,3.6l.33.41a6.47,6.47,0,0,0,.91,1.3,6.69,6.69,0,0,0,2.09,1.52c3.18,1.5,7.62.85,9.63-2.23a6.06,6.06,0,0,0,.91-2.75,8.94,8.94,0,0,0-.46-3.48,9.38,9.38,0,0,0-2.16-3.79,6.47,6.47,0,0,0-3.07-1.74,6.28,6.28,0,0,0-1.56-.18,8.14,8.14,0,0,0-4.79,1.65m5.53.09a5.66,5.66,0,0,1,1.22.34,6.34,6.34,0,0,1,1.07.62,8.59,8.59,0,0,1,1,1,9.55,9.55,0,0,1,1.07,1.86l0-.07,0,.09,0,.09a.2.2,0,0,1,0-.08,10.06,10.06,0,0,1,.65,2.28,7,7,0,0,1,0,1.65,5.83,5.83,0,0,1-.34,1.24,4.52,4.52,0,0,1-1.48,1.88,6.78,6.78,0,0,1-1.31.74,7.69,7.69,0,0,1-1.71.45,7.87,7.87,0,0,1-1.94,0h.06l-.34-.05a.39.39,0,0,0-.27-.33l-.52-.2a7.64,7.64,0,0,1-1.37-.82,9.6,9.6,0,0,1-1.67-1.64,7.34,7.34,0,0,1-.88-1.47,5,5,0,0,1-.2-.62,8.28,8.28,0,0,1,0-1.65s0,.07,0,.1a11.32,11.32,0,0,1,.52-2.14c.12-.2.25-.4.39-.59a8.05,8.05,0,0,1,1.31-1.3,8.15,8.15,0,0,1,1.56-.91,7.32,7.32,0,0,1,1.66-.47,6.48,6.48,0,0,1,1.46,0m-3,.41-.13.06.13-.06m-3,2.22v0m11,3.56s0,.07,0,.11,0-.07,0-.11m-11.73,1.46v0s0,0,0,0m2.43,3,.08.06Zm7.58.2-.09.06.09-.06m-6.11.68.07,0-.07,0m7.17-7.67h0v0" style="fill:#161616"/><path d="M1129,295.55a25.39,25.39,0,0,0,1.28,6.8,17.41,17.41,0,0,0,1.46,3.16,12.94,12.94,0,0,0,2.21,2.79.56.56,0,0,0,.78,0,.57.57,0,0,0,0-.78c-.13-.15-.27-.32-.39-.48a17.94,17.94,0,0,1-2.1-3.59,23.6,23.6,0,0,1-1.51-5.65q-.15-1.12-.21-2.25a.77.77,0,0,0-.76-.76.76.76,0,0,0-.76.76m1.7,2.06,0,.16,0-.16" style="fill:#161616"/><path d="M1141.51,260.23a21.11,21.11,0,0,0-4.67,3.22,22,22,0,0,0-3.68,4.37c-.52.8-1,1.63-1.45,2.48s-.86,1.8-1.23,2.71a37.58,37.58,0,0,0-1.72,5.46c-.14.58-.26,1.16-.38,1.74a1,1,0,0,0,.09.67.87.87,0,0,0,1.19.31.86.86,0,0,0,.39-.52c.29-1.51.64-3,1.06-4.49a41.54,41.54,0,0,1,1.57-4.47,31.52,31.52,0,0,1,1.53-3.15,26.79,26.79,0,0,1,1.89-2.87,18.69,18.69,0,0,1,3.21-3.26,14.73,14.73,0,0,1,2.57-1.57.37.37,0,0,0,.13-.5.35.35,0,0,0-.31-.17.43.43,0,0,0-.19,0m-5.42,5.47,0,0,0,0" style="fill:#161616"/><path d="M1152.57,308c-1,.33-1.92.75-2.87,1.16s-2,.88-2.92,1.33c-1.91.88-3.82,1.76-5.76,2.58a73.88,73.88,0,0,1-15.29,4.77,1.07,1.07,0,0,0-.64.5,1.14,1.14,0,0,0-.11.83,1.11,1.11,0,0,0,.5.64,1.13,1.13,0,0,0,.83.11,72.7,72.7,0,0,0,13.85-4c2.23-.88,4.43-1.85,6.6-2.86,1.08-.5,2.15-1,3.2-1.57a34.39,34.39,0,0,0,3.29-1.87.88.88,0,0,0-.44-1.64.67.67,0,0,0-.24,0m-11.3,5-.12,0,.12,0" style="fill:#161616"/><path d="M1124.54,318.34c-3.59,3.57-6,8.22-7.69,12.93a56.49,56.49,0,0,0-3.29,16.82,48,48,0,0,0,.35,8.39,35.27,35.27,0,0,0,1.85,7.73,29,29,0,0,0,1.57,3.45,21.61,21.61,0,0,0,2,3,23.91,23.91,0,0,0,6.07,5.31,40.54,40.54,0,0,0,8,3.86,53.85,53.85,0,0,0,8.81,2.3,43.06,43.06,0,0,0,17.26-.23,37.72,37.72,0,0,0,8.88-3.43,41.52,41.52,0,0,0,7.8-5.42,39.6,39.6,0,0,0,6.28-7,34.36,34.36,0,0,0,4.19-8.29,34.74,34.74,0,0,0,1.52-6.35q.26-1.69.36-3.39c.06-1.17,0-2.34,0-3.51a.95.95,0,0,0-1.9,0,27.4,27.4,0,0,1-.29,4.15,1.38,1.38,0,0,1,0-.2,1.85,1.85,0,0,0,0,.23v0a27.48,27.48,0,0,1-.77,3.69,33.31,33.31,0,0,1-1.34,3.74A40.69,40.69,0,0,1,1171.93,372a42,42,0,0,1-8.79,5.12,37.8,37.8,0,0,1-9.08,2.57,43.83,43.83,0,0,1-11.21-.21l.38.05a49.94,49.94,0,0,1-12.43-3.3,33.08,33.08,0,0,1-6.65-3.78,20.73,20.73,0,0,1-3.63-3.56,23.05,23.05,0,0,1-2.61-4.58,33.1,33.1,0,0,1-2.11-8v.05s0-.07,0-.1a.78.78,0,0,1,0-.16.31.31,0,0,0,0,.1,50.91,50.91,0,0,1,.11-13.11,54.44,54.44,0,0,1,3.66-13.56l-.09.22a36,36,0,0,1,4.37-7.74l0,0a23.09,23.09,0,0,1,2.06-2.35.94.94,0,0,0,0-1.33.93.93,0,0,0-.66-.27,1,1,0,0,0-.67.27m-.59,3.48,0,.06,0-.06m-8,21.28s0,.06,0,.08Zm63.31,21.57-.08.1.08-.1m-63.41-8.45v-.06a.13.13,0,0,0,0,.06m70.57-7.51h0v0" style="fill:#161616"/><path d="M1152.81,316.77a1.21,1.21,0,0,0-.83.35,1.17,1.17,0,0,0,.83,2,58.17,58.17,0,0,1,12.3.39,76.37,76.37,0,0,1,19,5.33l-.3-.13a82.08,82.08,0,0,1,7.67,3.72c1.22.67,2.41,1.37,3.59,2.11l1.82,1.14c.6.37,1.21.73,1.79,1.12a1,1,0,0,0,1.22-.15,1.05,1.05,0,0,0,.29-.71,1,1,0,0,0-.29-.71c-.58-.46-1.14-.93-1.73-1.38s-1.26-.91-1.9-1.35c-1.26-.84-2.56-1.62-3.88-2.37a75.86,75.86,0,0,0-8.47-4.09,73.7,73.7,0,0,0-18-4.85,63.2,63.2,0,0,0-8.57-.6c-1.52,0-3,.06-4.54.18m12.09,2.71.1,0-.1,0" style="fill:#161616"/><path d="M1156.22,324.9a1.22,1.22,0,0,0,0,2.44,64.16,64.16,0,0,1,9.39.57,79.4,79.4,0,0,1,19.71,5.47q2.65,1.13,5.24,2.4c.83.41,1.65.85,2.46,1.29s1.72.92,2.55,1.42a.87.87,0,0,0,.88-1.5c-1.19-.81-2.38-1.6-3.63-2.32s-2.54-1.45-3.84-2.1a71,71,0,0,0-8.34-3.5,75.21,75.21,0,0,0-17.53-3.88c-2-.19-4-.29-6-.29h-.91" style="fill:#161616"/><path d="M1197.09,331.41a9.79,9.79,0,0,0-2.41,6.26,1.56,1.56,0,0,0,1.55,1.55,1.58,1.58,0,0,0,1.55-1.55c0-.18,0-.35,0-.52a8.46,8.46,0,0,1,.42-1.57,9.17,9.17,0,0,1,.85-1.45l.32-.39a1.7,1.7,0,0,0,.49-1.16,1.66,1.66,0,0,0-.49-1.17,1.69,1.69,0,0,0-1.19-.47,1.51,1.51,0,0,0-1.13.47" style="fill:#161616"/><path d="M1195.12,341.1a17.71,17.71,0,0,0,1.32,7,14.2,14.2,0,0,0,3.8,5.42,10.82,10.82,0,0,0,2.64,1.7,10.27,10.27,0,0,0,1.49.55,11,11,0,0,0,1.7.31,9.83,9.83,0,0,0,3.24-.24,10.92,10.92,0,0,0,3.3-1.39,13.88,13.88,0,0,0,2.57-2.07.83.83,0,0,0,.12-1,.82.82,0,0,0-1.12-.3,19.13,19.13,0,0,1-3.39,2,12.15,12.15,0,0,1-2.51.7,9.52,9.52,0,0,1-2.2,0,9.92,9.92,0,0,1-1.92-.52A10.86,10.86,0,0,1,1202,352a12.78,12.78,0,0,1-1.93-2,14.6,14.6,0,0,1-1.66-2.86,15.63,15.63,0,0,1-1-3.8,18.41,18.41,0,0,1-.13-2.23,1.08,1.08,0,0,0-2.15,0M1210.76,353l-.11,0,.11,0m-2.54.7-.13,0,.13,0" style="fill:#161616"/><path d="M1207.29,341.76a1.3,1.3,0,0,0-.58.76,1.22,1.22,0,0,0,.13,1c1.71,2.25,3.65,4.33,5.4,6.56q.67.9,1.32,1.83a1.12,1.12,0,1,0,1.93-1.12c-1-1.49-2-2.92-3.13-4.35s-2.31-3-3.54-4.45a1.13,1.13,0,0,0-.87-.37,1.35,1.35,0,0,0-.66.17m4.83,8.13.09.13-.09-.13" style="fill:#161616"/><path d="M1207.5,341.21a1.28,1.28,0,0,0-1.26,1.25,1.27,1.27,0,0,0,1.26,1.25,51.51,51.51,0,0,1,10,.49c1.77.25,3.54.56,5.32.74a1.15,1.15,0,0,0,.31-2.25c-1.21-.27-2.44-.47-3.67-.67s-2.69-.4-4-.56a46.83,46.83,0,0,0-5.43-.33c-.83,0-1.66,0-2.49.08" style="fill:#161616"/><path d="M1209.92,323.66a13.51,13.51,0,0,0-4.49.87,16.77,16.77,0,0,0-4.82,2.85,1.24,1.24,0,0,0-.2,1.53,1.28,1.28,0,0,0,1.73.46,19.83,19.83,0,0,1,3.44-2,14.79,14.79,0,0,1,3.06-.85,12.55,12.55,0,0,1,2.74,0,12.69,12.69,0,0,1,2.57.7,13.35,13.35,0,0,1,2.58,1.52,15,15,0,0,1,2.32,2.33,17.83,17.83,0,0,1,2,3.48,16.83,16.83,0,0,1,1.19,8.47,1.29,1.29,0,0,0,.39.93,1.33,1.33,0,0,0,.94.39,1.31,1.31,0,0,0,.93-.39,1.4,1.4,0,0,0,.39-.93,19.74,19.74,0,0,0-1.33-9.37,18.33,18.33,0,0,0-2.16-3.93,16.69,16.69,0,0,0-3.26-3.35,13.06,13.06,0,0,0-8-2.75Z" style="fill:#161616"/><path d="M1155.7,307.76a.93.93,0,0,0,.91.92c.71,0,1.42.1,2.12.2a31,31,0,0,1,7.44,2.07,42.58,42.58,0,0,1,9.17,5.48l-.24-.18c1.26,1,2.48,2,3.68,3.07s2.31,2.12,3.5,3.16a.88.88,0,0,0,1,.13.85.85,0,0,0,.31-1.16,27.82,27.82,0,0,0-5.29-5.6,42.17,42.17,0,0,0-6.5-4.44,36.11,36.11,0,0,0-14.76-4.54l-.46,0h0a.92.92,0,0,0-.87.92m2.8,1.08.1,0-.1,0" style="fill:#161616"/><path d="M1183.87,330.8a1.23,1.23,0,0,0-.44,1.66c.31.58.6,1.18.86,1.78a30.43,30.43,0,0,1,2,7.49,34.37,34.37,0,0,1,.17,7.38.62.62,0,0,0,.46.61.64.64,0,0,0,.78-.44,23.85,23.85,0,0,0,.6-9,25.32,25.32,0,0,0-2.74-9,1.23,1.23,0,0,0-1.66-.44" style="fill:#161616"/><path d="M1141.94,313.24a1.34,1.34,0,0,0-.78.6,53.55,53.55,0,0,0-7.79,16.53,59,59,0,0,0-1.66,8.85,62,62,0,0,0-.41,9.24.86.86,0,1,0,1.71,0c.13-2.56.31-5.12.65-7.67a63.67,63.67,0,0,1,1.54-7.85,59.72,59.72,0,0,1,2.51-7.48,55.62,55.62,0,0,1,5.73-10.28,1.34,1.34,0,0,0,.13-1,1.33,1.33,0,0,0-1.28-1,1.06,1.06,0,0,0-.35.05m-4.14,12-.09.22.09-.22" style="fill:#161616"/><path d="M1125,348.27a40.07,40.07,0,0,1-8.28,2c-.5.07-1,.12-1.5.17a1.12,1.12,0,0,0-.73.31,1,1,0,0,0-.3.73,1,1,0,0,0,.3.73,1,1,0,0,0,.73.3,37.32,37.32,0,0,0,5.26-.91,35.13,35.13,0,0,0,5-1.68.94.94,0,0,0,.52-.4.88.88,0,0,0,.09-.67.92.92,0,0,0-.84-.66.59.59,0,0,0-.23,0" style="fill:#161616"/><path d="M1153.78,380.27a1.26,1.26,0,0,0-.72.56,1.18,1.18,0,0,0-.13.93c1,2.52,1.81,5.09,2.58,7.68s1.52,5.36,2.24,8.05,1.47,5.38,2.32,8c.43,1.32.89,2.64,1.39,3.94.26.69.55,1.37.84,2a17.8,17.8,0,0,0,.89,1.87,1.29,1.29,0,0,0,1.45.59,1.31,1.31,0,0,0,.9-1.58c-.3-1.26-.72-2.51-1.11-3.74s-.84-2.66-1.25-4c-.83-2.66-1.65-5.33-2.49-8s-1.63-5.16-2.51-7.72-1.88-5.26-2.91-7.85a1.28,1.28,0,0,0-.55-.72,1.23,1.23,0,0,0-.62-.17,1.75,1.75,0,0,0-.32,0" style="fill:#161616"/><path d="M1162.84,378.18a1.43,1.43,0,0,0-1,1.74q2.16,8.4,4.62,16.71c.83,2.83,1.72,5.64,2.59,8.45s1.77,5.59,2.81,8.34a1.12,1.12,0,0,0,.49.64,1.14,1.14,0,0,0,.83.11,1.09,1.09,0,0,0,.75-1.33c-.68-2.76-1.47-5.49-2.27-8.21s-1.63-5.66-2.44-8.49c-1.61-5.64-3.19-11.29-4.65-17a1.43,1.43,0,0,0-1.38-1,1.18,1.18,0,0,0-.37.05" style="fill:#161616"/><path d="M1173,415.38l-.6.5a9.31,9.31,0,0,1-1.49.89,7.7,7.7,0,0,1-1.25.34,7.28,7.28,0,0,1-1.32,0,8,8,0,0,1-1.45-.4l-.3-.15a1.44,1.44,0,0,0-2,.52,1.44,1.44,0,0,0,.52,2,10,10,0,0,0,2.46.9,8.14,8.14,0,0,0,2.91.07,7.55,7.55,0,0,0,2.55-.9,6.86,6.86,0,0,0,2.15-2A1.4,1.4,0,0,0,1174,415a1.45,1.45,0,0,0-1,.41" style="fill:#161616"/><path d="M1169.07,407.28a7.55,7.55,0,0,1-.59.54,8.7,8.7,0,0,1-1.21.71,6.56,6.56,0,0,1-1.38.38,7.77,7.77,0,0,1-1.67,0,1.25,1.25,0,0,0-.9.37,1.28,1.28,0,0,0-.37.9,1.26,1.26,0,0,0,.37.9,1.37,1.37,0,0,0,.9.37,8.3,8.3,0,0,0,3.6-.36,6.9,6.9,0,0,0,3-2.05,1.31,1.31,0,0,0,.36-.88,1.23,1.23,0,0,0-1.24-1.23,1.2,1.2,0,0,0-.87.36" style="fill:#161616"/><path d="M1166.5,397a14.57,14.57,0,0,1-2.22,1.23,12.57,12.57,0,0,1-2.76.77c-.42,0-.84.07-1.26.08a1.13,1.13,0,0,0,0,2.26,12.56,12.56,0,0,0,7.36-2.43,1.15,1.15,0,0,0,.51-.66,1.12,1.12,0,0,0-.11-.86,1.15,1.15,0,0,0-1-.55,1,1,0,0,0-.54.16" style="fill:#161616"/><path d="M1162.39,387.55a20.64,20.64,0,0,1-4.3,1.13q-.43.06-.87.09a1.43,1.43,0,0,0-1,.41,1.38,1.38,0,0,0,1,2.35,20.19,20.19,0,0,0,5.89-1.35,1.52,1.52,0,0,0,.82-.63,1.37,1.37,0,0,0,.13-1.05,1.33,1.33,0,0,0-.62-.81,1.44,1.44,0,0,0-.72-.2.92.92,0,0,0-.33.06m-4.37,1.14-.18,0,.18,0" style="fill:#161616"/><path d="M1151.89,317.15a10.26,10.26,0,0,0-.91,1.28,8.72,8.72,0,0,0-.61,1.4,6.81,6.81,0,0,0,.54,5.55,7.33,7.33,0,0,0,2.11,2.22,1,1,0,0,0,1.22-.16,1,1,0,0,0,0-1.43,7.17,7.17,0,0,1-.72-.74,6.28,6.28,0,0,1-.63-1.09,5.45,5.45,0,0,1-.29-1.05,6.47,6.47,0,0,1,0-1.32,5.83,5.83,0,0,1,.34-1.24,8.41,8.41,0,0,1,.8-1.35l.09-.11a1.47,1.47,0,0,0,.41-1,1.39,1.39,0,0,0-.41-1,1.36,1.36,0,0,0-1-.41,1.33,1.33,0,0,0-1,.41" style="fill:#161616"/><path d="M1164.27,317.45a11,11,0,0,0-1,2.05,8.69,8.69,0,0,0-.46,2.31,7.16,7.16,0,0,0,1.25,4.46,1,1,0,1,0,1.64-1c-.11-.21-.22-.41-.32-.63a8.81,8.81,0,0,1-.48-1.76,8.17,8.17,0,0,1,0-1.64,8.66,8.66,0,0,1,.5-1.79,10.24,10.24,0,0,1,.54-1,1,1,0,0,0-.36-1.36,1,1,0,0,0-.49-.13,1,1,0,0,0-.87.49" style="fill:#161616"/><path d="M1176.08,320.53a7.44,7.44,0,0,0-2.39,3.59,6.35,6.35,0,0,0-.21,2.08,6.87,6.87,0,0,0,.62,2.36,1,1,0,0,0,1.11.46,1,1,0,0,0,.69-1.21,6.65,6.65,0,0,1-.32-1.22,5.44,5.44,0,0,1,0-1.21,6.4,6.4,0,0,1,.31-1.14,6.77,6.77,0,0,1,.65-1.1,7.87,7.87,0,0,1,1.08-1.08,1.06,1.06,0,0,0,.32-.77,1.09,1.09,0,0,0-1.09-1.08,1.16,1.16,0,0,0-.76.32" style="fill:#161616"/><path d="M1185.58,325.08a7.46,7.46,0,0,0-1,2.49,7.8,7.8,0,0,0,0,2.89.86.86,0,0,0,1.69-.23,6.88,6.88,0,0,1,0-1.2,8,8,0,0,1,.43-1.6,9,9,0,0,1,.7-1.3,1,1,0,0,0-.37-1.42,1,1,0,0,0-.51-.14,1.08,1.08,0,0,0-.91.51" style="fill:#161616"/><path d="M1163.47,416.67a76.56,76.56,0,0,1-10.37,5.08c-1.82.78-3.63,1.57-5.41,2.44a31.22,31.22,0,0,0-5.1,3,1.63,1.63,0,0,0-.69.9,1.5,1.5,0,0,0,1,1.85,1.56,1.56,0,0,0,1.16-.15c1.69-.82,3.36-1.69,5.06-2.48s3.61-1.61,5.43-2.4a78.41,78.41,0,0,0,10.55-5.33,1.67,1.67,0,0,0-.86-3.1,1.59,1.59,0,0,0-.82.23" style="fill:#161616"/><path d="M1140.86,429a.74.74,0,0,0-.44.34.8.8,0,0,0-.07.57l.06.47v0c.08.68.14,1.38.29,2.06a.72.72,0,0,0,.68.52.71.71,0,0,0,.71-.71A9,9,0,0,0,1142,431c-.06-.48-.13-1-.2-1.45a.74.74,0,0,0-.34-.44.79.79,0,0,0-.37-.1.64.64,0,0,0-.2,0" style="fill:#161616"/><path d="M1202.23,428.71l-.27.12a102.94,102.94,0,0,1-24.28,6.35l.29,0a89.87,89.87,0,0,1-23.74.28l.27,0a48.35,48.35,0,0,1-12.26-3.13l-.13-.05a1,1,0,0,0-.77-.11,1.06,1.06,0,0,0-.61.47,1,1,0,0,0-.1.77,1,1,0,0,0,.47.61,44.44,44.44,0,0,0,6.53,2.22,61.24,61.24,0,0,0,7.35,1.34,84.69,84.69,0,0,0,15.84.42,104.87,104.87,0,0,0,16.16-2.23,69.07,69.07,0,0,0,14.22-4.61c.64-.3,1.27-.63,1.92-.93a.9.9,0,0,0,.32-1.21.93.93,0,0,0-.53-.4l-.22,0a1.12,1.12,0,0,0-.46.12m-60,3.63.21.09-.21-.09" style="fill:#161616"/><path d="M1174.9,414.63a1.26,1.26,0,0,0-.77.59,1.3,1.3,0,0,0-.14,1,1.46,1.46,0,0,0,.6.78c4.22,3,9.24,4.68,14.24,5.87,2.58.62,5.19,1.1,7.81,1.51,1.36.21,2.72.41,4.09.58l1.81.2c.65.06,1.3.08,2,.15a.94.94,0,0,0,.92-.7,1,1,0,0,0-.66-1.18c-.46-.12-.92-.27-1.37-.39l-1.42-.34c-1-.22-2-.41-2.92-.59-2-.37-4-.72-6.07-1.11a60.76,60.76,0,0,1-11.84-3.34,28.15,28.15,0,0,1-5.23-2.91,1.13,1.13,0,0,0-.63-.17,1.44,1.44,0,0,0-.37.05" style="fill:#161616"/><path d="M1203.63,425.19c0,.68.06,1.36.1,2.05a1.46,1.46,0,0,0,.42,1,1.38,1.38,0,0,0,1,.42,1.43,1.43,0,0,0,1.41-1.41c0-.69,0-1.37,0-2.05a1.45,1.45,0,0,0-2.89,0" style="fill:#161616"/><path d="M1140.85,428.55a1.12,1.12,0,0,0,.41,1.52,31.45,31.45,0,0,0,10.63,3.78,61,61,0,0,0,12.37.89,82.47,82.47,0,0,0,9.42-.75c1.52-.2,3-.47,4.54-.73.69-.11,1.37-.23,2-.37s1.37-.3,2.06-.43a.52.52,0,0,0,.36-.64.53.53,0,0,0-.64-.36c-.34.07-.69.11-1,.16h0l-1.1.15h.11l-.76.1.16,0-.67.08h0c-1.86.25-3.74.4-5.61.55s-4,.27-6,.33a75.55,75.55,0,0,1-11.94-.51h.11a39.54,39.54,0,0,1-9.92-2.54,27.65,27.65,0,0,1-3.11-1.6,1,1,0,0,0-.55-.16,1.15,1.15,0,0,0-1,.56m39.22,3.2h0" style="fill:#161616"/><path d="M1173.91,307.9c-1.84.15-3.67.43-5.49.68l.24,0-.91.12a1,1,0,0,0-.64.27.89.89,0,0,0,0,1.28.86.86,0,0,0,.64.26c1.87-.24,3.74-.5,5.62-.65a28.3,28.3,0,0,1,5.82.09,1,1,0,0,0,.49-.13,1,1,0,0,0,.44-.58,1,1,0,0,0-.1-.74.9.9,0,0,0-.57-.44,20.46,20.46,0,0,0-2.81-.22h-.29c-.81,0-1.62,0-2.44.11" style="fill:#161616"/><path d="M1187.59,299.37a15.61,15.61,0,0,0-5.82,3.74,17.34,17.34,0,0,0-3,4.2.89.89,0,0,0,1.54.9,17.38,17.38,0,0,1,1.51-2.38,15.34,15.34,0,0,1,2.45-2.45,13.9,13.9,0,0,1,2.71-1.6,12.58,12.58,0,0,1,2.9-.79,13.93,13.93,0,0,1,3.29,0,15.19,15.19,0,0,1,3.43.95,16.53,16.53,0,0,1,3.16,1.87,25.79,25.79,0,0,1,4.13,4.35,1.29,1.29,0,0,0,.58.33,1.26,1.26,0,0,0,1-.13,1.31,1.31,0,0,0,.6-.78,1.37,1.37,0,0,0-.13-1,14.46,14.46,0,0,0-5.18-5.71,16.19,16.19,0,0,0-3.24-1.58,15.26,15.26,0,0,0-3.41-.74,14.13,14.13,0,0,0-1.46-.08,14.69,14.69,0,0,0-5.05.91" style="fill:#161616"/><path d="M1204.15,306.06l-.08,0c-1.57.65-3.16,1.23-4.76,1.8a31.22,31.22,0,0,0-5,2,1.61,1.61,0,0,0-.74,1.81,1.63,1.63,0,0,0,2,1.12,19.8,19.8,0,0,0,2.37-.76c.88-.32,1.75-.66,2.63-1,1.78-.69,3.55-1.4,5.31-2.17a1.62,1.62,0,0,0,.76-1,1.73,1.73,0,0,0-.17-1.28,1.63,1.63,0,0,0-1-.75,1.44,1.44,0,0,0-.4-.06,2.15,2.15,0,0,0-.87.22m-.18.08-.11,0,.11,0" style="fill:#161616"/><path d="M1193.79,310.3a1.46,1.46,0,0,0-.87.67,1.52,1.52,0,0,0-.15,1.12,1.58,1.58,0,0,0,.67.87,36.67,36.67,0,0,0,3.58,2.34,30.9,30.9,0,0,0,3.92,1.92,1.27,1.27,0,0,0,1.44-.59,1.29,1.29,0,0,0-.45-1.74c-1.11-.75-2.3-1.39-3.45-2.08s-2.42-1.51-3.57-2.36a1.2,1.2,0,0,0-.7-.2,1.86,1.86,0,0,0-.42.05" style="fill:#161616"/><path d="M1178.78,314.08a.93.93,0,0,0-.4.53.92.92,0,0,0,.09.67A15.29,15.29,0,0,0,1186,323a13.22,13.22,0,0,0,5.17,1.21,11.15,11.15,0,0,0,5.11-1.12,10.07,10.07,0,0,0,2.57-1.82A11.28,11.28,0,0,0,1200,320a8.66,8.66,0,0,0,.92-1.52.63.63,0,0,0-.09-.74.62.62,0,0,0-.87,0c-.39.45-.77.89-1.18,1.31a13.17,13.17,0,0,1-1.26,1.11,11.65,11.65,0,0,1-2.41,1.42,11.31,11.31,0,0,1-2.36.65,11.82,11.82,0,0,1-2.85,0,13.63,13.63,0,0,1-3-.83,14,14,0,0,1-2.8-1.62,14.76,14.76,0,0,1-2.44-2.43,15.21,15.21,0,0,1-1.71-2.91.83.83,0,0,0-.52-.41.91.91,0,0,0-.23,0,.89.89,0,0,0-.45.12m11,8.09h0Zm.17,0h0" style="fill:#161616"/></g><path d="M283.48,230a45.82,45.82,0,0,1-1.6,12.88,27,27,0,0,1-4.36,9,17.67,17.67,0,0,1-6.46,5.3,18.76,18.76,0,0,1-15.78,0,17.78,17.78,0,0,1-6.44-5.3,26.58,26.58,0,0,1-4.34-9,53.29,53.29,0,0,1,0-25.76,26.58,26.58,0,0,1,4.34-9,17.78,17.78,0,0,1,6.44-5.3,18.76,18.76,0,0,1,15.78,0,17.67,17.67,0,0,1,6.46,5.3,27,27,0,0,1,4.36,9A45.82,45.82,0,0,1,283.48,230Zm-4,0a45.5,45.5,0,0,0-1.32-11.76,24.8,24.8,0,0,0-3.54-8,13.76,13.76,0,0,0-5.2-4.54,14.21,14.21,0,0,0-6.26-1.44,13.69,13.69,0,0,0-11.44,6,24.6,24.6,0,0,0-3.56,8,53.13,53.13,0,0,0,0,23.54,24.57,24.57,0,0,0,3.56,8,13.83,13.83,0,0,0,5.2,4.52,14.18,14.18,0,0,0,6.24,1.42,14.33,14.33,0,0,0,6.26-1.42,13.61,13.61,0,0,0,5.2-4.52,24.78,24.78,0,0,0,3.54-8A45.51,45.51,0,0,0,279.48,230Z"/><path d="M326.16,254.68a1.33,1.33,0,0,1,1,.38,1.36,1.36,0,0,1,.36,1v2.24H291v-1.36a2.05,2.05,0,0,1,.22-.9,2.41,2.41,0,0,1,.58-.78l19.32-19.56q2.4-2.44,4.44-4.72a37,37,0,0,0,3.54-4.6,21.87,21.87,0,0,0,2.34-4.76,15.88,15.88,0,0,0,.84-5.2,13.1,13.1,0,0,0-1-5.42,10.83,10.83,0,0,0-2.76-3.78,11.23,11.23,0,0,0-4-2.2,15.56,15.56,0,0,0-4.72-.72,14.3,14.3,0,0,0-4.94.82,13.23,13.23,0,0,0-4,2.28,12.46,12.46,0,0,0-2.88,3.48,14,14,0,0,0-1.58,4.42,1.62,1.62,0,0,1-2,1.36l-2-.32a20,20,0,0,1,2-6.48,16.13,16.13,0,0,1,3.76-4.8,15.76,15.76,0,0,1,5.28-3A20.94,20.94,0,0,1,316.1,202a15.2,15.2,0,0,1,5.2,2.84,13.48,13.48,0,0,1,3.58,4.76,15.86,15.86,0,0,1,1.32,6.7,17.62,17.62,0,0,1-1,5.94,24.31,24.31,0,0,1-2.66,5.26,38.76,38.76,0,0,1-3.9,4.9c-1.48,1.59-3,3.21-4.66,4.86l-17.72,18.08a22,22,0,0,1,2.66-.48,23.43,23.43,0,0,1,2.78-.16Z"/><path d="M372.56,254.68a1.33,1.33,0,0,1,1,.38,1.36,1.36,0,0,1,.36,1v2.24H337.4v-1.36a2.05,2.05,0,0,1,.22-.9,2.28,2.28,0,0,1,.58-.78l19.32-19.56q2.4-2.44,4.44-4.72a37,37,0,0,0,3.54-4.6,21.87,21.87,0,0,0,2.34-4.76,15.88,15.88,0,0,0,.84-5.2,13.1,13.1,0,0,0-1-5.42,11,11,0,0,0-2.76-3.78,11.23,11.23,0,0,0-4-2.2,15.61,15.61,0,0,0-4.72-.72,14.26,14.26,0,0,0-4.94.82,13.23,13.23,0,0,0-4,2.28,12.46,12.46,0,0,0-2.88,3.48,14,14,0,0,0-1.58,4.42,2.06,2.06,0,0,1-.74,1.16,2,2,0,0,1-1.26.2l-2-.32a19.77,19.77,0,0,1,2-6.48,16,16,0,0,1,3.76-4.8,15.76,15.76,0,0,1,5.28-3A20.94,20.94,0,0,1,362.5,202a15.2,15.2,0,0,1,5.2,2.84,13.6,13.6,0,0,1,3.58,4.76,15.86,15.86,0,0,1,1.32,6.7,17.62,17.62,0,0,1-1,5.94,24.31,24.31,0,0,1-2.66,5.26,38.76,38.76,0,0,1-3.9,4.9c-1.48,1.59-3,3.21-4.66,4.86l-17.72,18.08a22,22,0,0,1,2.66-.48,23.31,23.31,0,0,1,2.78-.16Z"/><g id="_000_Introduction" data-name="000_Introduction"><path d="M265.72,337.41H253l-2.46,8.29H240.15l13.91-42.65h5.31v0l0,0h5.31l13.94,42.65H268.21Zm-10.4-7.62h8.12l-4-13.24h-.17Z"/><path d="M297.63,336.8a2.61,2.61,0,0,0-1.34-2.1,14.53,14.53,0,0,0-4.84-1.65c-3.7-.73-6.48-1.84-8.35-3.36a7.58,7.58,0,0,1-2.82-6.25,8.94,8.94,0,0,1,3.52-7.11q3.51-2.91,9.52-2.91,6.33,0,10.08,2.83a8.29,8.29,0,0,1,3.57,7.3l-.06.18H297.3a3.93,3.93,0,0,0-.93-2.84,4.14,4.14,0,0,0-3.08-1,4.09,4.09,0,0,0-2.61.85,2.68,2.68,0,0,0-1.05,2.17,2.58,2.58,0,0,0,1.21,2.14,13.93,13.93,0,0,0,4.91,1.58q5.83,1.14,8.62,3.41a7.85,7.85,0,0,1,2.78,6.43,8.4,8.4,0,0,1-3.8,7.05q-3.8,2.77-10,2.77-6.48,0-10.24-3.28c-2.51-2.19-3.7-4.63-3.59-7.33l.06-.17h9a4,4,0,0,0,1.36,3.25,6,6,0,0,0,3.7,1,4.93,4.93,0,0,0,3-.78A2.6,2.6,0,0,0,297.63,336.8Z"/><path d="M323.5,333.11h-1.79V345.7h-9.9V300h9.9v25.63h1.41L329.79,314h11.34l-9.75,14.3,11.36,17.4H331.46Z"/><path d="M355,306.65H345V300H355Zm0,39.05H345V314H355Z"/><path d="M370.14,314l.38,4.46a11.42,11.42,0,0,1,3.84-3.71,9.89,9.89,0,0,1,5.09-1.33,8.92,8.92,0,0,1,7.28,3.16q2.63,3.17,2.63,10.05V345.7h-9.91V326.6a7.3,7.3,0,0,0-1-4.29,3.33,3.33,0,0,0-2.82-1.27,7,7,0,0,0-2.84.55,5.73,5.73,0,0,0-2.11,1.58V345.7h-9.87V314Z"/><path d="M393.4,329.91q0-7.41,3.24-12a10.53,10.53,0,0,1,9.12-4.54,8.16,8.16,0,0,1,4.4,1.18,10.55,10.55,0,0,1,3.28,3.36l.64-4h8.73v31.35q0,6.27-4.29,9.71t-11.82,3.45a21.29,21.29,0,0,1-5.16-.68,29.09,29.09,0,0,1-5.15-1.81l1.7-7.33a22.65,22.65,0,0,0,4.08,1.39,19.38,19.38,0,0,0,4.47.46,7.31,7.31,0,0,0,4.7-1.26,4.85,4.85,0,0,0,1.54-4v-2.46a9.16,9.16,0,0,1-3.12,2.61,9,9,0,0,1-4.06.88,10.67,10.67,0,0,1-9.08-4.34q-3.22-4.34-3.22-11.45Zm9.87.62a13.19,13.19,0,0,0,1.13,6,4,4,0,0,0,3.82,2.15,6.82,6.82,0,0,0,2.77-.5,4.55,4.55,0,0,0,1.89-1.49V323.38a4.94,4.94,0,0,0-1.87-1.74,5.82,5.82,0,0,0-2.73-.6,4,4,0,0,0-3.82,2.44,14.85,14.85,0,0,0-1.19,6.43Z"/><path d="M252.13,386l.35,4.19a10.25,10.25,0,0,1,9-4.77,9.65,9.65,0,0,1,5.09,1.29,8,8,0,0,1,3.23,3.92,10.61,10.61,0,0,1,3.76-3.85,10.34,10.34,0,0,1,5.38-1.36,8.83,8.83,0,0,1,7.28,3.32q2.64,3.33,2.65,10.24V417.7h-9.93V399c0-2.26-.32-3.82-1-4.67A3.31,3.31,0,0,0,275.1,393a6,6,0,0,0-2.54.51A5.31,5.31,0,0,0,270.7,395c0,.33,0,.62,0,.86s0,.49,0,.72V417.7h-9.9V399c0-2.28-.31-3.85-.94-4.69A3.39,3.39,0,0,0,257,393a5.7,5.7,0,0,0-2.44.51,5.26,5.26,0,0,0-1.87,1.42V417.7h-9.9V386Z"/><path d="M312.8,417.67a11.62,11.62,0,0,1-.95-2.25,18.15,18.15,0,0,1-.6-2.64,12.17,12.17,0,0,1-3.18,4,7.64,7.64,0,0,1-4.94,1.51q-5,0-7.74-2.57a9,9,0,0,1-2.77-7,8.45,8.45,0,0,1,3.54-7.28q3.54-2.57,10.75-2.57H311v-2.25a4.56,4.56,0,0,0-1-3.11,3.77,3.77,0,0,0-3-1.08,3.59,3.59,0,0,0-2.56.8,3.35,3.35,0,0,0-.84,2.51l-9.61,0-.06-.18a8.29,8.29,0,0,1,3.62-7.25q3.83-2.91,10.1-2.91a14.71,14.71,0,0,1,9.53,2.93q3.64,2.92,3.65,8.38v11.95a24.72,24.72,0,0,0,.42,4.69,25.35,25.35,0,0,0,1.28,4.33Zm-7-6.41a6.11,6.11,0,0,0,3.21-.85,4.87,4.87,0,0,0,1.95-2V404.2h-4a4.5,4.5,0,0,0-3.43,1.14,4.12,4.12,0,0,0-1.05,2.9,2.8,2.8,0,0,0,.92,2.18A3.42,3.42,0,0,0,305.83,411.26Z"/><path d="M335.42,386l.38,4.46a11.6,11.6,0,0,1,3.84-3.71,9.9,9.9,0,0,1,5.1-1.33,8.94,8.94,0,0,1,7.28,3.16q2.61,3.17,2.62,10.05V417.7h-9.9V398.6a7.29,7.29,0,0,0-1-4.29A3.31,3.31,0,0,0,341,393a6.92,6.92,0,0,0-2.84.55,5.65,5.65,0,0,0-2.11,1.58V417.7h-9.88V386Z"/><path d="M372.3,403.73l0,.23h.18l5.24-18H388.3l-12.63,36.42a17.26,17.26,0,0,1-3.78,5.8c-1.54,1.52-4,2.29-7.35,2.29a11,11,0,0,1-2.11-.17c-.55-.1-1.4-.3-2.58-.6l1.2-7.06.62.14a3.59,3.59,0,0,0,.53,0,6.53,6.53,0,0,0,3.42-.69,4.13,4.13,0,0,0,1.62-2.06l.79-2.06-11-32.05h10.52Z"/><path d="M406.52,400.36q0-11.4,4.34-19.32t10.19-10.18h.18l1.79,4.66q-3.75,2.75-6.18,8.9T414.4,400.3v.94q0,9.75,2.44,15.89T423,426l-1.79,4.66h-.18q-5.85-2.25-10.19-10.16t-4.34-19.34Z"/><path d="M425.77,401.91q0-7.41,3.24-12a10.55,10.55,0,0,1,9.12-4.54,8.16,8.16,0,0,1,4.4,1.18,10.55,10.55,0,0,1,3.28,3.36l.65-4h8.73v31.35q0,6.27-4.3,9.71t-11.82,3.45a21.15,21.15,0,0,1-5.15-.68,28.91,28.91,0,0,1-5.16-1.81l1.7-7.33a22.73,22.73,0,0,0,4.09,1.39,19.23,19.23,0,0,0,4.46.46,7.36,7.36,0,0,0,4.71-1.26,4.88,4.88,0,0,0,1.53-4v-2.46a8.59,8.59,0,0,1-7.17,3.49A10.67,10.67,0,0,1,429,414q-3.21-4.34-3.22-11.45Zm9.87.62a13.19,13.19,0,0,0,1.13,6,4,4,0,0,0,3.83,2.15,6.81,6.81,0,0,0,2.76-.5,4.42,4.42,0,0,0,1.89-1.49V395.38a4.87,4.87,0,0,0-1.87-1.74,5.79,5.79,0,0,0-2.73-.6,4,4,0,0,0-3.82,2.44,14.85,14.85,0,0,0-1.19,6.43Z"/><path d="M459.52,401.56q0-7.15,4-11.64t11.28-4.5q7.28,0,11.31,4.5t4.05,11.64v.62q0,7.17-4.05,11.66t-11.25,4.48q-7.29,0-11.34-4.48t-4-11.66Zm9.9.62a13.09,13.09,0,0,0,1.25,6.25,4.43,4.43,0,0,0,4.23,2.27,4.37,4.37,0,0,0,4.16-2.28,13,13,0,0,0,1.26-6.24v-.62a13.07,13.07,0,0,0-1.26-6.2,4.41,4.41,0,0,0-4.22-2.32,4.35,4.35,0,0,0-4.17,2.34,13.17,13.17,0,0,0-1.25,6.18Z"/><path d="M493.24,401.56q0-7.15,4.05-11.64t11.27-4.5q7.27,0,11.31,4.5t4,11.64v.62q0,7.17-4,11.66t-11.25,4.48q-7.29,0-11.33-4.48t-4.05-11.66Zm9.9.62a13.09,13.09,0,0,0,1.25,6.25,4.43,4.43,0,0,0,4.23,2.27,4.37,4.37,0,0,0,4.16-2.28,13,13,0,0,0,1.26-6.24v-.62a13.07,13.07,0,0,0-1.26-6.2,4.41,4.41,0,0,0-4.22-2.32,4.35,4.35,0,0,0-4.17,2.34,13.17,13.17,0,0,0-1.25,6.18Z"/><path d="M527,401.91q0-7.41,3.24-12a10.55,10.55,0,0,1,9.13-4.54,7.84,7.84,0,0,1,4,1,10.33,10.33,0,0,1,3.17,2.88V372h9.91v45.7h-8.67l-.68-3.86a10.69,10.69,0,0,1-3.35,3.32,8.39,8.39,0,0,1-4.41,1.16,10.64,10.64,0,0,1-9.08-4.34Q527,409.65,527,402.53Zm9.91.62a13.2,13.2,0,0,0,1.12,6,4,4,0,0,0,3.8,2.15,6.27,6.27,0,0,0,2.74-.57,4.84,4.84,0,0,0,1.94-1.68V395.64a5.14,5.14,0,0,0-4.62-2.6,4,4,0,0,0-3.81,2.43,15,15,0,0,0-1.17,6.44Z"/><path d="M577.65,401.18a38.38,38.38,0,0,1-4.6,19.12q-4.6,8.15-10.61,10.38h-.17L560.48,426q3.69-2.77,6.15-8.92t2.46-15.86v-.94q0-9.72-2.46-15.88t-6.15-8.9l1.79-4.66h.17q6,2.22,10.61,10.4a38.35,38.35,0,0,1,4.6,19.1Z"/><path d="M241.49,473.91q0-7.41,3.24-12a10.55,10.55,0,0,1,9.13-4.54,8.13,8.13,0,0,1,4.39,1.18,10.55,10.55,0,0,1,3.28,3.36l.76-4h8.65v43.89H261V486.77a9.28,9.28,0,0,1-3.15,2.64,9.08,9.08,0,0,1-4.09.91,10.65,10.65,0,0,1-9.08-4.34q-3.22-4.34-3.23-11.45Zm9.91.62a13.2,13.2,0,0,0,1.12,6,4,4,0,0,0,3.8,2.15,7,7,0,0,0,2.81-.51,4.58,4.58,0,0,0,1.91-1.54V467.47a4.92,4.92,0,0,0-1.89-1.82,5.87,5.87,0,0,0-2.77-.61,4,4,0,0,0-3.81,2.43,15,15,0,0,0-1.17,6.44Z"/><path d="M295.63,485a10.38,10.38,0,0,1-3.64,4,9.69,9.69,0,0,1-5.17,1.39,9.37,9.37,0,0,1-7.72-3.46q-2.81-3.45-2.8-10.69V458h9.87v18.23q0,3.72.95,5.09a3.34,3.34,0,0,0,2.95,1.38,8.15,8.15,0,0,0,2.78-.44,5.26,5.26,0,0,0,2-1.32V458h9.9v31.7h-8Z"/><path d="M324.32,490.32q-7.21,0-11.3-4.37a15.53,15.53,0,0,1-4.08-11v-1.12q0-7.26,3.85-11.83t11.15-4.54q6.4,0,9.94,3.84t3.53,10.51V477H319.25l-.06.17a6.14,6.14,0,0,0,1.85,4,6.4,6.4,0,0,0,4.62,1.54,20.24,20.24,0,0,0,4.74-.47,29.82,29.82,0,0,0,4.32-1.49l2.37,6a17.93,17.93,0,0,1-5.51,2.52A25.18,25.18,0,0,1,324.32,490.32ZM323.94,465a4.11,4.11,0,0,0-3.51,1.5,7.63,7.63,0,0,0-1.3,4.09l.06.15h8.55V470a6.59,6.59,0,0,0-.86-3.73A3.34,3.34,0,0,0,323.94,465Z"/><path d="M358.12,480.8a2.59,2.59,0,0,0-1.33-2.1,14.52,14.52,0,0,0-4.85-1.65c-3.69-.73-6.47-1.84-8.35-3.36a7.6,7.6,0,0,1-2.81-6.25,8.91,8.91,0,0,1,3.52-7.11q3.51-2.91,9.52-2.91,6.33,0,10.08,2.83a8.29,8.29,0,0,1,3.57,7.3l-.06.18H357.8a3.93,3.93,0,0,0-.93-2.84,4.15,4.15,0,0,0-3.08-1,4.05,4.05,0,0,0-2.61.85,2.68,2.68,0,0,0-1.05,2.17,2.58,2.58,0,0,0,1.21,2.14,13.93,13.93,0,0,0,4.91,1.58q5.83,1.14,8.61,3.41a7.83,7.83,0,0,1,2.79,6.43,8.4,8.4,0,0,1-3.8,7.05q-3.8,2.77-10,2.77-6.48,0-10.24-3.28T340,479.71l.06-.17h9a4,4,0,0,0,1.37,3.25,6,6,0,0,0,3.7,1,4.93,4.93,0,0,0,3-.78A2.62,2.62,0,0,0,358.12,480.8Z"/><path d="M383.67,450.12V458h5v6.86h-5v14.53a3.57,3.57,0,0,0,.69,2.45,2.43,2.43,0,0,0,1.86.74c.51,0,.91,0,1.22-.05a10.42,10.42,0,0,0,1.15-.24l.68,7.33a25.7,25.7,0,0,1-2.7.54,23.11,23.11,0,0,1-2.84.16q-4.89,0-7.43-2.61t-2.53-8.26V464.86h-4.42V458h4.42v-7.88Z"/><path d="M403.86,450.65h-9.93V444h9.93Zm0,39.05h-9.93V458h9.93Z"/><path d="M408.6,473.56q0-7.15,4-11.64t11.28-4.5q7.26,0,11.3,4.5t4,11.64v.62q0,7.17-4,11.66T424,490.32q-7.29,0-11.33-4.48t-4-11.66Zm9.91.62a13.1,13.1,0,0,0,1.24,6.25A4.43,4.43,0,0,0,424,482.7a4.37,4.37,0,0,0,4.16-2.28,13,13,0,0,0,1.26-6.24v-.62a13.07,13.07,0,0,0-1.26-6.2,4.4,4.4,0,0,0-4.21-2.32,4.35,4.35,0,0,0-4.18,2.34,13.17,13.17,0,0,0-1.24,6.18Z"/><path d="M452.75,458l.38,4.46a11.6,11.6,0,0,1,3.84-3.71,10,10,0,0,1,5.1-1.33,8.93,8.93,0,0,1,7.28,3.16q2.63,3.17,2.62,10.05V489.7h-9.9V470.6a7.22,7.22,0,0,0-1-4.29,3.3,3.3,0,0,0-2.81-1.27,7,7,0,0,0-2.84.55,5.73,5.73,0,0,0-2.11,1.58V489.7h-9.87V458Z"/><path d="M493.89,480.8a2.61,2.61,0,0,0-1.34-2.1,14.53,14.53,0,0,0-4.84-1.65c-3.7-.73-6.48-1.84-8.35-3.36a7.58,7.58,0,0,1-2.82-6.25,8.91,8.91,0,0,1,3.52-7.11q3.51-2.91,9.52-2.91,6.33,0,10.08,2.83a8.29,8.29,0,0,1,3.57,7.3l-.06.18h-9.61a3.93,3.93,0,0,0-.93-2.84,4.14,4.14,0,0,0-3.08-1,4.09,4.09,0,0,0-2.61.85,2.68,2.68,0,0,0-1.05,2.17,2.58,2.58,0,0,0,1.21,2.14,13.93,13.93,0,0,0,4.91,1.58q5.83,1.14,8.61,3.41a7.83,7.83,0,0,1,2.79,6.43,8.4,8.4,0,0,1-3.8,7.05q-3.8,2.77-10,2.77-6.48,0-10.24-3.28t-3.59-7.33l.06-.17h9a4,4,0,0,0,1.36,3.25,6,6,0,0,0,3.7,1,4.93,4.93,0,0,0,3-.78A2.63,2.63,0,0,0,493.89,480.8Z"/></g></g></svg>