<svg id="Layer_1" data-name="Layer 1" xmlns="http://www.w3.org/2000/svg" viewBox="0 0 1400 600"><rect id="White" width="1400" height="600" style="fill:#fff"/><path d="M291.4,159.3v13.6h-15V159.3h-9.6v13.6h-15V159.3h-8V146.4h8v-17h-8V116.5h8V102.89h15V116.5h9.6V102.89h15V116.5h8v12.9h-8v17h8v12.9ZM277,128.8H266.2V147H277Z" style="fill:#da2222"/><path d="M331.1,174c-16.4,0-24.7-12.5-24.7-36,0-24.3,9.3-36.21,24.9-36.21,14.7,0,19.8,8.41,22.5,21.81L337.6,128c-1.2-7.8-2.3-11.8-6.4-11.8-5.4,0-7.5,5.7-7.5,21.6,0,16.1,2.1,21.8,7.7,21.8,3.9,0,5.2-2.8,7.1-11.4l15.5,5.3C350.9,166.2,345,174,331.1,174Z" style="fill:#da2222"/><path d="M382,172.9v-3a14.83,14.83,0,0,1-10.1,4.1c-8.7,0-13.6-5.8-13.6-17.7,0-11.5,5.7-17.3,15.4-17.3a18.38,18.38,0,0,1,8.3,1.7v-4.1c0-3.8-1.6-5.2-5.3-5.2-4.1,0-7.5,1.2-11.9,4l-4.4-10.7a35.51,35.51,0,0,1,18.8-5.4c12.3,0,17.9,5.5,17.9,16.7v36.9Zm0-22.4a10.58,10.58,0,0,0-5.2-1.1c-2.7,0-4.1,1.8-4.1,6.7,0,4.4,1.2,6.5,4.2,6.5a8,8,0,0,0,5.1-1.7Z" style="fill:#da2222"/><path d="M432.9,136.8c-2-1.9-3.9-3.1-6.7-3.1-3.1,0-5.2,1.3-5.8,5.1v34.1H405V120.4h15.4v3.2c2.4-2.6,5.2-4.3,8.8-4.3a12.91,12.91,0,0,1,6.4,1.4Z" style="fill:#da2222"/><path d="M452.1,151.1c.4,8.4,2.6,10.8,6.1,10.8,3.1,0,5.3-1.3,8.5-5.9l9.1,7.2c-4.4,6.5-9.4,10.8-18.3,10.8-13.1,0-19.8-10.3-19.8-27.1,0-18,7.1-27.6,19.8-27.6,12.4,0,19.2,9.3,19.2,28.1v3.7Zm5.1-20.2c-3.1,0-4.6,2.4-5.1,10.1h10.6C462.3,133.7,460.8,130.9,457.2,130.9Z" style="fill:#da2222"/><path d="M496.5,151.1c.4,8.4,2.6,10.8,6.1,10.8,3.1,0,5.3-1.3,8.5-5.9l9.1,7.2c-4.4,6.5-9.4,10.8-18.3,10.8-13.1,0-19.8-10.3-19.8-27.1,0-18,7.1-27.6,19.8-27.6,12.4,0,19.2,9.3,19.2,28.1v3.7Zm5.1-20.2c-3.1,0-4.6,2.4-5.1,10.1h10.6C506.7,133.7,505.2,130.9,501.6,130.9Z" style="fill:#da2222"/><path d="M555.8,136.8c-2-1.9-3.9-3.1-6.7-3.1-3.1,0-5.2,1.3-5.8,5.1v34.1H527.9V120.4h15.4v3.2c2.4-2.6,5.2-4.3,8.8-4.3a12.91,12.91,0,0,1,6.4,1.4Z" style="fill:#da2222"/><path d="M587.2,147.5h-6v25.4H564.8v-70h23.6c12.5,0,21.7,5.61,21.7,21.81C610.1,141.3,600.6,147.5,587.2,147.5Zm-.3-31h-5.7v17.4h5.4c4.8,0,6.9-2.5,6.9-8.8S591.6,116.5,586.9,116.5Z" style="fill:#da2222"/><path d="M616.7,172.9V106l15.4-6V172.9Z" style="fill:#da2222"/><path d="M662.8,172.9v-3a14.83,14.83,0,0,1-10.1,4.1c-8.71,0-13.61-5.8-13.61-17.7,0-11.5,5.7-17.3,15.41-17.3a18.38,18.38,0,0,1,8.3,1.7v-4.1c0-3.8-1.6-5.2-5.3-5.2-4.1,0-7.5,1.2-11.91,4l-4.4-10.7A35.55,35.55,0,0,1,660,119.3c12.3,0,17.9,5.5,17.9,16.7v36.9Zm0-22.4a10.58,10.58,0,0,0-5.2-1.1c-2.7,0-4.1,1.8-4.1,6.7,0,4.4,1.2,6.5,4.2,6.5a8,8,0,0,0,5.1-1.7Z" style="fill:#da2222"/><path d="M706.4,191.4H691.5l5.59-17-15.5-54H697.7l2.59,13.1A194,194,0,0,1,704,158.2a202.35,202.35,0,0,1,3.7-24.8l2.6-13h16Z" style="fill:#da2222"/><path d="M756.29,174c-4,0-7-1.9-9.4-4v2.9h-15.4V106l15.4-6V123.5c2.61-2.4,5.4-4.2,9.81-4.2,8.9,0,14.2,8.7,14.2,27.1C770.9,165.4,765.7,174,756.29,174Zm-5-41.7a6.5,6.5,0,0,0-4.4,1.8v25a6.24,6.24,0,0,0,4.5,1.9c2.81,0,4.21-1.8,4.21-14.2C755.6,134.2,754.2,132.3,751.29,132.3Z" style="fill:#da2222"/><path d="M796.59,174c-12.7,0-20.2-9.3-20.2-27.2s7-27.5,20.4-27.5c12.91,0,20.31,9.3,20.31,27.2S809.8,174,796.59,174Zm.1-41.8c-3.6,0-5,3.5-5,14.3s1.4,14.6,5.1,14.6c3.5,0,5-3.7,5-14.4C801.79,135.5,800.29,132.2,796.69,132.2Z" style="fill:#da2222"/><path d="M842.69,174c-12.7,0-20.2-9.3-20.2-27.2s7-27.5,20.4-27.5c12.9,0,20.31,9.3,20.31,27.2S855.9,174,842.69,174Zm.1-41.8c-3.6,0-5,3.5-5,14.3s1.4,14.6,5.1,14.6c3.5,0,5-3.7,5-14.4C847.89,135.5,846.39,132.2,842.79,132.2Z" style="fill:#da2222"/><path d="M894.69,172.9l-6.2-22.4-3.1,5.2v17.2H870V106l15.4-6V124.1c0,4.1-.2,10.1-.4,13.7,1.5-3.1,4.1-8.3,6.9-13.4l2.2-4H910.5l-10.81,16.3,11.1,36.2Z" style="fill:#da2222"/><g id="_020" data-name="020"><path d="M283.48,230a45.82,45.82,0,0,1-1.6,12.88,27,27,0,0,1-4.36,9,17.67,17.67,0,0,1-6.46,5.3,18.76,18.76,0,0,1-15.78,0,17.78,17.78,0,0,1-6.44-5.3,26.58,26.58,0,0,1-4.34-9,53.29,53.29,0,0,1,0-25.76,26.58,26.58,0,0,1,4.34-9,17.78,17.78,0,0,1,6.44-5.3,18.76,18.76,0,0,1,15.78,0,17.67,17.67,0,0,1,6.46,5.3,27,27,0,0,1,4.36,9A45.82,45.82,0,0,1,283.48,230Zm-4,0a45.5,45.5,0,0,0-1.32-11.76,24.8,24.8,0,0,0-3.54-8,13.76,13.76,0,0,0-5.2-4.54,14.21,14.21,0,0,0-6.26-1.44,13.69,13.69,0,0,0-11.44,6,24.6,24.6,0,0,0-3.56,8,53.13,53.13,0,0,0,0,23.54,24.57,24.57,0,0,0,3.56,8,13.83,13.83,0,0,0,5.2,4.52,14.18,14.18,0,0,0,6.24,1.42,14.33,14.33,0,0,0,6.26-1.42,13.61,13.61,0,0,0,5.2-4.52,24.78,24.78,0,0,0,3.54-8A45.51,45.51,0,0,0,279.48,230Z"/><path d="M326.16,254.68a1.33,1.33,0,0,1,1,.38,1.36,1.36,0,0,1,.36,1v2.24H291v-1.36a2.05,2.05,0,0,1,.22-.9,2.41,2.41,0,0,1,.58-.78l19.32-19.56q2.4-2.44,4.44-4.72a37,37,0,0,0,3.54-4.6,21.87,21.87,0,0,0,2.34-4.76,15.88,15.88,0,0,0,.84-5.2,13.1,13.1,0,0,0-1-5.42,10.83,10.83,0,0,0-2.76-3.78,11.23,11.23,0,0,0-4-2.2,15.56,15.56,0,0,0-4.72-.72,14.3,14.3,0,0,0-4.94.82,13.23,13.23,0,0,0-4,2.28,12.46,12.46,0,0,0-2.88,3.48,14,14,0,0,0-1.58,4.42,1.62,1.62,0,0,1-2,1.36l-2-.32a20,20,0,0,1,2-6.48,16.13,16.13,0,0,1,3.76-4.8,15.76,15.76,0,0,1,5.28-3A20.94,20.94,0,0,1,316.1,202a15.2,15.2,0,0,1,5.2,2.84,13.48,13.48,0,0,1,3.58,4.76,15.86,15.86,0,0,1,1.32,6.7,17.62,17.62,0,0,1-1,5.94,24.31,24.31,0,0,1-2.66,5.26,38.76,38.76,0,0,1-3.9,4.9c-1.48,1.59-3,3.21-4.66,4.86l-17.72,18.08a22,22,0,0,1,2.66-.48,23.43,23.43,0,0,1,2.78-.16Z"/><path d="M376.28,230a46.19,46.19,0,0,1-1.6,12.88,27,27,0,0,1-4.36,9,17.75,17.75,0,0,1-6.46,5.3,18.76,18.76,0,0,1-15.78,0,17.69,17.69,0,0,1-6.44-5.3,26.58,26.58,0,0,1-4.34-9,53.29,53.29,0,0,1,0-25.76,26.58,26.58,0,0,1,4.34-9,17.69,17.69,0,0,1,6.44-5.3,18.76,18.76,0,0,1,15.78,0,17.75,17.75,0,0,1,6.46,5.3,27,27,0,0,1,4.36,9A46.19,46.19,0,0,1,376.28,230Zm-4,0A45.5,45.5,0,0,0,371,218.2a24.8,24.8,0,0,0-3.54-8,13.83,13.83,0,0,0-5.2-4.54,14.24,14.24,0,0,0-6.26-1.44,14.06,14.06,0,0,0-6.24,1.44,13.91,13.91,0,0,0-5.2,4.54,24.39,24.39,0,0,0-3.56,8,53.13,53.13,0,0,0,0,23.54,24.36,24.36,0,0,0,3.56,8,13.76,13.76,0,0,0,5.2,4.52,14.18,14.18,0,0,0,6.24,1.42,14.36,14.36,0,0,0,6.26-1.42,13.69,13.69,0,0,0,5.2-4.52,24.78,24.78,0,0,0,3.54-8A45.51,45.51,0,0,0,372.28,230Z"/><g id="_000_Introduction" data-name="000_Introduction"><path d="M278.85,328.21a17.84,17.84,0,0,1-5,13q-5,5.1-13.05,5.11t-13.15-5.11a17.75,17.75,0,0,1-5-13v-7.67a17.77,17.77,0,0,1,5-13q5-5.13,13.11-5.13a17.52,17.52,0,0,1,13.07,5.13,17.75,17.75,0,0,1,5,13ZM269,320.48a12.3,12.3,0,0,0-2.15-7.5,7.85,7.85,0,0,0-12.22,0,12.51,12.51,0,0,0-2.12,7.52v7.73a12.47,12.47,0,0,0,2.15,7.56,7.21,7.21,0,0,0,6.17,2.93,7.05,7.05,0,0,0,6-2.93,12.53,12.53,0,0,0,2.13-7.56Z"/><path d="M311.51,331.73h.18L314.82,314h9.44l-7.44,31.7h-8.38l-5.16-16.23h-.17l-5.19,16.23h-8.35L282.1,314h9.43l3.17,17.85h.17L300.06,314h6.24Z"/><path d="M336.91,314l.38,4.46a11.6,11.6,0,0,1,3.84-3.71,10,10,0,0,1,5.1-1.33,8.93,8.93,0,0,1,7.28,3.16q2.63,3.17,2.62,10.05V345.7h-9.9V326.6a7.22,7.22,0,0,0-1-4.29,3.3,3.3,0,0,0-2.81-1.27,7,7,0,0,0-2.84.55,5.73,5.73,0,0,0-2.11,1.58V345.7h-9.87V314Z"/><path d="M371.89,306.65H362V300h9.93Zm0,39.05H362V314h9.93Z"/><path d="M387.07,314l.38,4.46a11.6,11.6,0,0,1,3.84-3.71,9.9,9.9,0,0,1,5.1-1.33,8.94,8.94,0,0,1,7.28,3.16q2.61,3.17,2.62,10.05V345.7h-9.9V326.6a7.29,7.29,0,0,0-1-4.29,3.3,3.3,0,0,0-2.81-1.27,6.92,6.92,0,0,0-2.84.55,5.65,5.65,0,0,0-2.11,1.58V345.7h-9.88V314Z"/><path d="M410.33,329.91q0-7.41,3.24-12a10.55,10.55,0,0,1,9.13-4.54,8.15,8.15,0,0,1,4.39,1.18,10.55,10.55,0,0,1,3.28,3.36l.65-4h8.73v31.35q0,6.27-4.3,9.71t-11.82,3.45a21.15,21.15,0,0,1-5.15-.68,28.91,28.91,0,0,1-5.16-1.81l1.7-7.33a22.73,22.73,0,0,0,4.09,1.39,19.29,19.29,0,0,0,4.46.46,7.36,7.36,0,0,0,4.71-1.26,4.88,4.88,0,0,0,1.53-4v-2.46a8.59,8.59,0,0,1-7.17,3.49,10.67,10.67,0,0,1-9.09-4.34q-3.21-4.34-3.22-11.45Zm9.88.62a13.2,13.2,0,0,0,1.12,6,4,4,0,0,0,3.83,2.15,6.81,6.81,0,0,0,2.76-.5,4.42,4.42,0,0,0,1.89-1.49V323.38a4.87,4.87,0,0,0-1.87-1.74,5.79,5.79,0,0,0-2.73-.6,4,4,0,0,0-3.82,2.44,14.86,14.86,0,0,0-1.18,6.43Z"/><path d="M255.09,403.73l0,.23h.17l5.25-18h10.54l-12.62,36.42a17.57,17.57,0,0,1-3.78,5.8c-1.55,1.52-4,2.29-7.36,2.29a11,11,0,0,1-2.11-.17c-.54-.1-1.4-.3-2.57-.6l1.2-7.06.61.14a3.71,3.71,0,0,0,.53,0,6.58,6.58,0,0,0,3.43-.69,4.11,4.11,0,0,0,1.61-2.06l.79-2.06-11-32.05h10.52Z"/><path d="M271.9,401.56q0-7.15,4.05-11.64t11.28-4.5q7.26,0,11.31,4.5t4,11.64v.62q0,7.17-4,11.66t-11.25,4.48q-7.31,0-11.34-4.48t-4.05-11.66Zm9.91.62a13.1,13.1,0,0,0,1.24,6.25,4.44,4.44,0,0,0,4.24,2.27,4.38,4.38,0,0,0,4.16-2.28,13.14,13.14,0,0,0,1.26-6.24v-.62a13.19,13.19,0,0,0-1.26-6.2,4.41,4.41,0,0,0-4.22-2.32,4.35,4.35,0,0,0-4.18,2.34,13.17,13.17,0,0,0-1.24,6.18Z"/><path d="M326,413a10.38,10.38,0,0,1-3.64,4,9.69,9.69,0,0,1-5.17,1.39,9.37,9.37,0,0,1-7.72-3.46q-2.81-3.45-2.8-10.69V386h9.87v18.23q0,3.72.95,5.09a3.34,3.34,0,0,0,3,1.38,8.15,8.15,0,0,0,2.78-.44,5.26,5.26,0,0,0,2.05-1.32V386h9.9v31.7h-8Z"/><path d="M358.18,394.44l-3.22,0a5.47,5.47,0,0,0-2.78.63,3.89,3.89,0,0,0-1.61,1.77V417.7h-9.91V386H350l.35,4.66a9.59,9.59,0,0,1,2.64-3.87,5.81,5.81,0,0,1,3.84-1.37,7.16,7.16,0,0,1,1.2.09,7.34,7.34,0,0,1,1.11.26Z"/><path d="M386.07,386l.36,4.19a10.48,10.48,0,0,1,3.76-3.53,10.63,10.63,0,0,1,5.2-1.24,9.71,9.71,0,0,1,5.1,1.29,8,8,0,0,1,3.22,3.92,10.63,10.63,0,0,1,3.77-3.85,10.3,10.3,0,0,1,5.37-1.36,8.82,8.82,0,0,1,7.28,3.32q2.65,3.33,2.65,10.24V417.7h-9.93V399c0-2.26-.32-3.82-1-4.67A3.35,3.35,0,0,0,409,393a6,6,0,0,0-2.53.51,5.31,5.31,0,0,0-1.86,1.42c0,.33,0,.62,0,.86s0,.49,0,.72V417.7H394.8V399c0-2.28-.31-3.85-.93-4.69A3.41,3.41,0,0,0,391,393a5.74,5.74,0,0,0-2.45.51,5.31,5.31,0,0,0-1.86,1.42V417.7h-9.9V386Z"/><path d="M438.81,378.65h-9.93V372h9.93Zm0,39.05h-9.93V386h9.93Z"/><path d="M461.4,408.8a2.61,2.61,0,0,0-1.34-2.1,14.52,14.52,0,0,0-4.85-1.65c-3.69-.73-6.47-1.84-8.34-3.36a7.58,7.58,0,0,1-2.82-6.25,8.91,8.91,0,0,1,3.52-7.11q3.51-2.91,9.52-2.91,6.33,0,10.08,2.83a8.29,8.29,0,0,1,3.57,7.3l-.06.18h-9.61a3.93,3.93,0,0,0-.93-2.84,4.14,4.14,0,0,0-3.08-1,4.07,4.07,0,0,0-2.61.85,2.68,2.68,0,0,0-1.05,2.17,2.58,2.58,0,0,0,1.21,2.14,13.93,13.93,0,0,0,4.91,1.58q5.84,1.14,8.61,3.41a7.83,7.83,0,0,1,2.79,6.43,8.4,8.4,0,0,1-3.8,7.05q-3.8,2.77-10,2.77-6.48,0-10.24-3.28t-3.59-7.33l.06-.17h9a4,4,0,0,0,1.36,3.25,6,6,0,0,0,3.7,1,4.93,4.93,0,0,0,3-.78A2.63,2.63,0,0,0,461.4,408.8Z"/><path d="M486.94,378.12V386h5v6.86h-5v14.53a3.57,3.57,0,0,0,.69,2.45,2.43,2.43,0,0,0,1.86.74c.51,0,.91,0,1.22-.05a10.52,10.52,0,0,0,1.16-.24l.67,7.33a25.7,25.7,0,0,1-2.7.54,23,23,0,0,1-2.84.16c-3.26,0-5.74-.87-7.42-2.61s-2.54-4.49-2.54-8.26V392.86h-4.42V386H477v-7.88Z"/><path d="M515.07,417.67a11.62,11.62,0,0,1-1-2.25,15.87,15.87,0,0,1-.6-2.64,12.17,12.17,0,0,1-3.18,4,7.66,7.66,0,0,1-4.94,1.51q-5,0-7.75-2.57a9,9,0,0,1-2.77-7,8.43,8.43,0,0,1,3.55-7.28q3.54-2.57,10.75-2.57h4.07v-2.25a4.56,4.56,0,0,0-1-3.11,3.79,3.79,0,0,0-3-1.08,3.61,3.61,0,0,0-2.57.8,3.39,3.39,0,0,0-.83,2.51l-9.61,0-.06-.18a8.27,8.27,0,0,1,3.62-7.25q3.83-2.91,10.09-2.91a14.72,14.72,0,0,1,9.54,2.93q3.65,2.92,3.64,8.38v11.95a24.69,24.69,0,0,0,.43,4.69,25.31,25.31,0,0,0,1.27,4.33Zm-7-6.41a6,6,0,0,0,3.2-.85,4.87,4.87,0,0,0,1.95-2V404.2h-4a4.49,4.49,0,0,0-3.43,1.14,4.12,4.12,0,0,0-1,2.9,2.77,2.77,0,0,0,.92,2.18A3.4,3.4,0,0,0,508.1,411.26Z"/><path d="M540.26,405.11h-1.78V417.7h-9.91V372h9.91v25.63h1.4L546.56,386H557.9l-9.76,14.3,11.37,17.4H548.23Z"/><path d="M574.83,418.32q-7.2,0-11.29-4.37a15.54,15.54,0,0,1-4.09-11v-1.12q0-7.26,3.86-11.83t11.14-4.54q6.42,0,9.95,3.84t3.53,10.51V405H569.77l-.06.17a6.13,6.13,0,0,0,1.84,4,6.44,6.44,0,0,0,4.63,1.54,20.14,20.14,0,0,0,4.73-.47,29.82,29.82,0,0,0,4.32-1.49l2.38,6a18,18,0,0,1-5.51,2.52A25.25,25.25,0,0,1,574.83,418.32ZM574.45,393a4.09,4.09,0,0,0-3.5,1.5,7.63,7.63,0,0,0-1.3,4.09l.06.15h8.55V398a6.68,6.68,0,0,0-.86-3.73A3.34,3.34,0,0,0,574.45,393Z"/><path d="M608.64,408.8a2.59,2.59,0,0,0-1.33-2.1,14.61,14.61,0,0,0-4.85-1.65c-3.69-.73-6.47-1.84-8.35-3.36a7.6,7.6,0,0,1-2.81-6.25,8.93,8.93,0,0,1,3.51-7.11q3.53-2.91,9.53-2.91,6.31,0,10.07,2.83a8.3,8.3,0,0,1,3.58,7.3l-.06.18h-9.61a3.89,3.89,0,0,0-.94-2.84,4.11,4.11,0,0,0-3.07-1,4.05,4.05,0,0,0-2.61.85,2.68,2.68,0,0,0-1.06,2.17,2.59,2.59,0,0,0,1.22,2.14,13.93,13.93,0,0,0,4.91,1.58c3.88.76,6.76,1.9,8.61,3.41a7.82,7.82,0,0,1,2.78,6.43,8.39,8.39,0,0,1-3.79,7.05q-3.79,2.77-10,2.77-6.48,0-10.24-3.28t-3.59-7.33l.06-.17h9a4,4,0,0,0,1.36,3.25,6,6,0,0,0,3.71,1,5,5,0,0,0,3-.78A2.62,2.62,0,0,0,608.64,408.8Z"/></g><path d="M1005,305.23c-6.71,3.35-13.43,6.79-19.46,11.39a49.71,49.71,0,0,0-8.17,7.85,32.49,32.49,0,0,0-5.84,10.5,2.66,2.66,0,0,0,.64,2.5,2.43,2.43,0,0,0,2.43.65c2.43-1,4.86-2.05,7.3-3s5-2.05,7.53-3c5.26-2,10.51-3.85,15.86-5.55a220,220,0,0,1,33.42-7.95l2-.3a3.26,3.26,0,0,0-.63.1,134.1,134.1,0,0,1,37.16-.5,95.23,95.23,0,0,1,18.24,4.45,2.21,2.21,0,0,0,2.68-1.55,2.44,2.44,0,0,0-.25-1.75,2.32,2.32,0,0,0-1.26-1,104.36,104.36,0,0,0-32.25-5.75,162.62,162.62,0,0,0-34.1,2.9,229.92,229.92,0,0,0-29.91,7.6c-4.77,1.5-9.49,3.2-14.16,4.95-2.23.85-4.42,1.75-6.61,2.65l-.73.3c.48-.85,1.07-1.7,1.6-2.45a46.45,46.45,0,0,1,7.74-7.8c5.83-4.55,12.3-8.1,18.72-11.69a2.13,2.13,0,0,0,.69-2.8,1.89,1.89,0,0,0-1.17-1,2.13,2.13,0,0,0-.49-.1,2.64,2.64,0,0,0-1,.3Z" style="fill:#161616"/><path d="M966.19,277.54a3.31,3.31,0,0,0-.82.85,2.61,2.61,0,0,0,0,2.4c1,1.64,1.89,3.29,3,4.84s2.34,3.3,3.56,4.85a59.11,59.11,0,0,0,8.46,8.5,50.15,50.15,0,0,0,21,10.55,2,2,0,0,0,2.39-1.4,2,2,0,0,0-1.37-2.5,44.44,44.44,0,0,1-7.53-2.45,49.56,49.56,0,0,1-10.95-6.7,56.57,56.57,0,0,1-9.53-9.9c-.93-1.25-1.8-2.5-2.63-3.84,1.8.3,3.65.55,5.45.84,3.55.5,7.15.95,10.75,1.2,7.2.45,14.59,0,21.35-2.79a2,2,0,0,0,1.41-2.55,2.07,2.07,0,0,0-2.48-1.5,55,55,0,0,1-7.54,1.75,78.54,78.54,0,0,1-20.82-.55l-5.93-.9c-2.19-.35-4.33-.75-6.52-1a2.4,2.4,0,0,0-1.17.3Z" style="fill:#161616"/><path d="M1004.38,276c0,.05.09.05.09.1s0,0-.09-.1ZM976.55,240.3a2.7,2.7,0,0,0-1.16,2.95c.58,1.85,1.12,3.7,1.8,5.5a54.35,54.35,0,0,0,2.48,5.5A60.8,60.8,0,0,0,986,264a94.35,94.35,0,0,0,16.73,16.45,2,2,0,0,0,1.71.2,2.3,2.3,0,0,0,1.31-1.05,2.4,2.4,0,0,0,.24-1.75,2.64,2.64,0,0,0-1-1.4,3.46,3.46,0,0,0-.49-.35c0,.05.1.1.15.1a2.49,2.49,0,0,1-.24-.2h0A90.36,90.36,0,0,1,989,260.39,56.76,56.76,0,0,1,982.39,249c0-.05,0-.15,0-.2.78.5,1.61,1,2.44,1.55,2.77,1.8,5.64,3.45,8.51,5a197.56,197.56,0,0,0,18.24,8.85,234.33,234.33,0,0,0,38.23,12.5c8.37,2,16.78,3.55,25.29,4.75,4.33.6,8.61,1.15,12.94,1.55s8.37.69,12.55.74a2,2,0,0,0,2-1.54,2.31,2.31,0,0,0-.2-1.7,2,2,0,0,0-1.26-1c-5.06-.7-10.17-1.3-15.23-2a354.21,354.21,0,0,1-38.13-7.35,241.35,241.35,0,0,1-37.36-12.5c-5.35-2.4-10.65-4.94-15.76-7.79-2.67-1.45-5.3-3-7.88-4.6-1.26-.8-2.48-1.55-3.7-2.35s-2.62-1.8-3.94-2.65a2.29,2.29,0,0,0-1.26-.35,2.32,2.32,0,0,0-1.27.35Z" style="fill:#161616"/><path d="M1098.06,334.17a1.1,1.1,0,0,1,0,.4,1.1,1.1,0,0,0,0-.4Zm-.87-14.3a2.6,2.6,0,0,0-.73,1.8q.57,4.43,1.16,8.85a3.36,3.36,0,0,1-.09-.7c.19,1.7.43,3.4.63,5.05v-.05c.68,5.19,1.31,10.39,1.85,15.64.58,5.65.87,11.3,1,17a2.95,2.95,0,1,0,5.89,0c-.1-15.19-3.41-30.08-5.36-45.08a4.19,4.19,0,0,1-.09-.7l-.1-.7a2.54,2.54,0,0,0-.63-1.1,2.44,2.44,0,0,0-1.75-.75,2.41,2.41,0,0,0-1.75.75Z" style="fill:#161616"/><path d="M1123.26,394.35c.09,0,.19,0,.29,0-.1,0-.2,0-.29,0Zm-7.49-39.79a12.61,12.61,0,0,0-5.45,3.9,23.6,23.6,0,0,0-3.16,5.3,42.83,42.83,0,0,0-2.48,7.84,2.07,2.07,0,1,0,4,1.15,43,43,0,0,1,1.85-6.19A24.82,24.82,0,0,1,1113,362a17.88,17.88,0,0,1,1.89-2,10.94,10.94,0,0,1,1.66-.95,6.54,6.54,0,0,1,1.7-.5,12.56,12.56,0,0,1,1.94,0,12.7,12.7,0,0,1,2.68.8,17.36,17.36,0,0,1,3.74,2.35,30.52,30.52,0,0,1,5.21,5.44,41.66,41.66,0,0,1,4.86,8.7,30.07,30.07,0,0,1,1.95,7,20.07,20.07,0,0,1,.05,4.45,12.06,12.06,0,0,1-.63,2.5,10.81,10.81,0,0,1-.88,1.6,14.4,14.4,0,0,1-1.22,1.25,9.78,9.78,0,0,1-1.75,1.05,16.83,16.83,0,0,1-3.21.85,29.76,29.76,0,0,1-7.24-.2,44.26,44.26,0,0,1-4.48-.85,2.54,2.54,0,0,0-3.11,1.84,2.65,2.65,0,0,0,1.75,3.2c1.85.5,3.65,1,5.54,1.3a36.15,36.15,0,0,0,5.21.45,22.19,22.19,0,0,0,4.47-.4,18.82,18.82,0,0,0,3.7-1.2,12.8,12.8,0,0,0,5.11-4.44,12.39,12.39,0,0,0,1.41-3.05,16.39,16.39,0,0,0,.68-3.4,21.6,21.6,0,0,0-.44-6.85,37.23,37.23,0,0,0-2.29-7.2,42.77,42.77,0,0,0-3.45-6.45,44.82,44.82,0,0,0-4.77-6.09,29.87,29.87,0,0,0-5.44-4.55,16.31,16.31,0,0,0-5.74-2.45,11.1,11.1,0,0,0-2.58-.3,10.51,10.51,0,0,0-3.5.6Z" style="fill:#161616"/><path d="M1119.17,367.11a7.61,7.61,0,0,0-3,1.34,10.61,10.61,0,0,0-3.9,6.75,25.15,25.15,0,0,0,0,7.6,1.59,1.59,0,0,0,.73.95,1.23,1.23,0,0,0,1.17.15,1.5,1.5,0,0,0,.93-.7,1.47,1.47,0,0,0,.19-1.1V382h0a21.46,21.46,0,0,1-.1-5.25,14.24,14.24,0,0,1,.73-2.8,6.38,6.38,0,0,1,.83-1.45,4.38,4.38,0,0,1,.92-1,7.62,7.62,0,0,1,1.07-.65,6.7,6.7,0,0,1,1.41-.4,10.82,10.82,0,0,1,1.8,0,13.11,13.11,0,0,1,2.39.7,15.74,15.74,0,0,1,2.87,1.8,16.38,16.38,0,0,1,3,3.15,23.5,23.5,0,0,1,2.39,4.15,1.9,1.9,0,0,0,1,.85,1.82,1.82,0,0,0,1.36-.2,1.69,1.69,0,0,0,.78-1.05,2,2,0,0,0-.15-1.4,21.9,21.9,0,0,0-5.59-7.7,14.42,14.42,0,0,0-7-3.59,7.58,7.58,0,0,0-1.85-.2,8.28,8.28,0,0,0-1.95.2Z" style="fill:#161616"/><path d="M1115.43,374.85a1.51,1.51,0,0,0-.88.65,1.67,1.67,0,0,0-.15,1.15,1.43,1.43,0,0,0,.69.9c2.18,1.05,4.42,2.15,6.66,3.2a1.17,1.17,0,0,0,1.07.15,1.4,1.4,0,0,0,.83-.65,1.47,1.47,0,0,0-.49-2c-2.19-1.15-4.43-2.2-6.66-3.25a1.37,1.37,0,0,0-.73-.2.78.78,0,0,0-.34.05Z" style="fill:#161616"/><path d="M1143.25,299.73a.71.71,0,0,1,.1.3.71.71,0,0,0-.1-.3Zm-10.75-11.3c.1,0,.15.05.24.1-.09,0-.14-.1-.24-.1Zm-7-2a.43.43,0,0,1,.24.05.43.43,0,0,0-.24-.05Zm-13.72-5.24a3.66,3.66,0,0,0-.73.1,2.38,2.38,0,0,0-1.17.7,2.83,2.83,0,0,0-.78,1.95,3,3,0,0,0,.78,1.94,2.66,2.66,0,0,0,1.9.8,51,51,0,0,1,13.52-.3,30.68,30.68,0,0,1,7,1.95,23.11,23.11,0,0,1,4.63,2.8,22.06,22.06,0,0,1,3.5,3.6,28,28,0,0,1,3,5.45,42.44,42.44,0,0,1,2.29,9.2,74.68,74.68,0,0,1-.24,18.29,133.24,133.24,0,0,1-4,18.44c-.83,3-1.75,5.95-2.63,8.95a55.64,55.64,0,0,0-2.09,8.9,2.91,2.91,0,0,0,2,2.64,2.66,2.66,0,0,0,3-1.29,28.68,28.68,0,0,0,2.48-5.75c.68-1.9,1.27-3.85,1.8-5.8,1.07-4.15,2-8.35,2.73-12.6.77-4.44,1.41-8.94,1.85-13.44a99,99,0,0,0,.58-12.55c-.15-7.59-1.51-15.54-5.55-22a26.49,26.49,0,0,0-7.68-7.85,29.28,29.28,0,0,0-11-4.09,44.42,44.42,0,0,0-7.25-.6,59.83,59.83,0,0,0-7.93.6Z" style="fill:#161616"/><path d="M1027.24,337s0,0,.1,0,0,0-.1,0Zm-6-6.65a9.4,9.4,0,0,0-2.78.85,13.79,13.79,0,0,0-2.82,1.95,22.89,22.89,0,0,0-2.38,2.45,41.93,41.93,0,0,0-2.63,3.74,2.44,2.44,0,0,0,.83,3.2,2.24,2.24,0,0,0,3.07-.8c.48-.75.92-1.5,1.45-2.2a17,17,0,0,1,2.83-3,10,10,0,0,1,1.75-1.1,14.1,14.1,0,0,1,1.41-.4,6.18,6.18,0,0,1,1.36,0,7.74,7.74,0,0,1,1.51.45,12.65,12.65,0,0,1,2.19,1.35,23.3,23.3,0,0,1,3.06,3.14,2.19,2.19,0,0,0,3.16,0,2.56,2.56,0,0,0,.63-1.64,2.44,2.44,0,0,0-.63-1.6,18.61,18.61,0,0,0-5.64-5.15,9.6,9.6,0,0,0-2.87-1.1,8.26,8.26,0,0,0-2-.25,8.54,8.54,0,0,0-1.55.15Z" style="fill:#161616"/><path d="M1069.75,337.37a19.51,19.51,0,0,0-8.41,2.54,2.41,2.41,0,0,0-.83,3.25,2.32,2.32,0,0,0,3.16.9c.44-.25.88-.5,1.31-.7a19.83,19.83,0,0,1,3.7-1.1,15.75,15.75,0,0,1,3.07,0,16.42,16.42,0,0,1,2.67.8,16.8,16.8,0,0,1,2.58,1.55,16,16,0,0,1,2.67,2.85,24.61,24.61,0,0,1,2.83,5.1,5.92,5.92,0,0,1,.38,1,2.69,2.69,0,0,0,1.17,1.55,2.42,2.42,0,0,0,2,.25,2.34,2.34,0,0,0,1.46-1.2,2.63,2.63,0,0,0,.29-2,41.71,41.71,0,0,0-1.85-4.2,25.08,25.08,0,0,0-2.58-3.9,17.67,17.67,0,0,0-5.93-5.05,15.66,15.66,0,0,0-7-1.64Z" style="fill:#161616"/><path d="M1006,324.22a2.61,2.61,0,0,0-1.26,1.75,341.34,341.34,0,0,0-3.31,42.38,242.06,242.06,0,0,0,3.26,45.54,129.17,129.17,0,0,0,4.47,18,81.94,81.94,0,0,0,3.46,8.9c.58,1.35,1.21,2.7,1.89,4,.34.6.68,1.2,1,1.75s.92,1.35,1.26,2.05a2.41,2.41,0,0,0,3.31.9,2.54,2.54,0,0,0,.83-3.4c0-.05,0-.1,0-.15-.54-1.5-1.17-3-1.71-4.45-.73-1.75-1.36-3.55-2-5.35-1.26-3.7-2.43-7.5-3.45-11.3a184.91,184.91,0,0,1-4.53-23.24,260.08,260.08,0,0,1-1.85-37.33,314.55,314.55,0,0,1,2.53-34.49c.1-.8.2-1.55.34-2.3a3.89,3.89,0,0,1,.1-.8,3,3,0,0,0-.39-1.45,2.72,2.72,0,0,0-1.7-1.35,1.84,1.84,0,0,0-.73-.1,2.58,2.58,0,0,0-1.46.4Z" style="fill:#161616"/><path d="M1119.51,399.64a3.1,3.1,0,0,0-.83,2c-.14,2.7-.34,5.4-.68,8.05a67,67,0,0,1-3.94,15.69,53.19,53.19,0,0,1-5.64,10.1,48.89,48.89,0,0,1-7.34,7.6,51.6,51.6,0,0,1-10.9,6.5,68.13,68.13,0,0,1-17.07,4.64,110.29,110.29,0,0,1-29.82-.35,153,153,0,0,1-15.71-3.1,2.25,2.25,0,0,0-2.82,1.65,2.41,2.41,0,0,0,1.6,2.95,148.83,148.83,0,0,0,34.44,4.9,98.66,98.66,0,0,0,16.73-1.15,68,68,0,0,0,14.94-3.9,53.37,53.37,0,0,0,13-7.19,55.81,55.81,0,0,0,5.65-5.1,45.68,45.68,0,0,0,5-6.45,50.87,50.87,0,0,0,6.47-15.29,65.77,65.77,0,0,0,1.5-9.3,64.89,64.89,0,0,0,.15-10.25,3,3,0,0,0-.78-2,2.78,2.78,0,0,0-2-.85,2.63,2.63,0,0,0-2,.85Z" style="fill:#161616"/><path d="M1034,368.25s0,.05.1.1,0-.1-.1-.1ZM1023.4,361h0Zm-4.92-3.45a17.07,17.07,0,0,0-8,5.3,1.77,1.77,0,0,0,0,2.45,1.61,1.61,0,0,0,2.38,0c.63-.65,1.27-1.25,1.95-1.85a15.85,15.85,0,0,1,2.77-1.7,17,17,0,0,1,2.72-.8,14.25,14.25,0,0,1,2.92,0,14.91,14.91,0,0,1,3.31,1,17.33,17.33,0,0,1,3.65,2.25,26.45,26.45,0,0,1,3.69,3.79,31.68,31.68,0,0,1,2.73,4.75,2.48,2.48,0,0,0,1.41,1.15,2.56,2.56,0,0,0,1.9-.3,2.53,2.53,0,0,0,.82-3.4c-3.11-5.54-7.88-10.49-13.91-12.44a14.82,14.82,0,0,0-8.32-.2Z" style="fill:#161616"/><path d="M1019.75,372.25a4.48,4.48,0,1,0,4.47-4.59,4.6,4.6,0,0,0-4.47,4.59Z" style="fill:#161616"/><path d="M1018.48,371.75a5.26,5.26,0,1,0,5.26-5.49,5.42,5.42,0,0,0-5.26,5.49Z" style="fill:#161616"/><path d="M1085.56,374.75l.1.15-.1-.15Zm-15.71-10.89a15,15,0,0,0-4.09,1.75,19.83,19.83,0,0,0-3.84,3.14,2.28,2.28,0,0,0,0,3.05,2,2,0,0,0,2.92,0c.53-.55,1.12-1.05,1.7-1.55a13.31,13.31,0,0,1,2.68-1.65,13.49,13.49,0,0,1,2.77-.8,13.77,13.77,0,0,1,2.87,0,16.22,16.22,0,0,1,3.4.95,23.48,23.48,0,0,1,3.65,2.3,23,23,0,0,1,3.89,4.05c.64.9,1.27,1.85,1.85,2.85a2,2,0,0,0,2.82.8,2.24,2.24,0,0,0,.78-3c-3-5.35-7.54-9.89-13.28-11.69a14.83,14.83,0,0,0-4.42-.65,15.6,15.6,0,0,0-3.7.45Z" style="fill:#161616"/><path d="M1066.4,375.75a5.84,5.84,0,1,0,5.83-6.05,6,6,0,0,0-5.83,6.05Z" style="fill:#161616"/><path d="M1043.29,381.4a2,2,0,0,0-1.31,2.45,35.55,35.55,0,0,1,1.26,5.45,25.72,25.72,0,0,1,0,6.2,23.09,23.09,0,0,1-1.31,5.09,21.66,21.66,0,0,1-2.53,4.55,25.83,25.83,0,0,1-3.21,3.4,2.71,2.71,0,0,0-.73,1.9,2.93,2.93,0,0,0,.73,1.85,2.53,2.53,0,0,0,3.6,0,27.37,27.37,0,0,0,4.57-6.25,25.5,25.5,0,0,0,2.58-7.3,32.77,32.77,0,0,0-1.27-15.94,2,2,0,0,0-1.84-1.45,2,2,0,0,0-.54,0Z" style="fill:#161616"/><path d="M1034.34,411.79a2.93,2.93,0,0,0,2,3.5c3.84,1.3,7.63,2.75,11.52,3.85a2.69,2.69,0,0,0,3.26-1.95,2.62,2.62,0,0,0-.29-2.1,2.7,2.7,0,0,0-1.55-1.3c-3.75-1.5-7.64-2.7-11.48-4a2,2,0,0,0-.73-.15,2.88,2.88,0,0,0-2.68,2.1Z" style="fill:#161616"/><path d="M1045.77,425.33a2.16,2.16,0,0,0-1.36,1.1,2.57,2.57,0,0,0-.24,1.8,4.11,4.11,0,0,0,.24.55,2.26,2.26,0,0,0,.83.85,15,15,0,0,0,5.35,2.7,17.75,17.75,0,0,0,5.64.55c3.45-.1,6.86-.95,10.31-1.45a13.63,13.63,0,0,1,3.5-.1,4.29,4.29,0,0,1,1.07.3,2.63,2.63,0,0,1,.64.35,4.44,4.44,0,0,1,.43.5,9.16,9.16,0,0,1,.54.95,15.82,15.82,0,0,1,.63,2.55c.1,1.15.15,2.25.15,3.4a154.91,154.91,0,0,1-20-5.4,2.08,2.08,0,0,0-2.49,1.5,2.3,2.3,0,0,0,.2,1.6,2.65,2.65,0,0,0,1.22,1c3.74,1.45,7.58,2.65,11.47,3.75,3.7,1.05,7.4,1.95,11.14,2.75a2.51,2.51,0,0,0,1.8-.25,2.45,2.45,0,0,0,1.12-2.05,38.09,38.09,0,0,0,0-5.85,19.74,19.74,0,0,0-.87-4.35,9.31,9.31,0,0,0-2-3.3,7.8,7.8,0,0,0-2.92-1.8,9.09,9.09,0,0,0-3.06-.45,20.73,20.73,0,0,0-3.51.25c-2.23.35-4.42.85-6.66,1.15a25.37,25.37,0,0,1-5.84.15,15.36,15.36,0,0,1-3.06-.85,11.93,11.93,0,0,1-2.63-1.65,1.76,1.76,0,0,0-1.12-.35,2.44,2.44,0,0,0-.63.1Z" style="fill:#161616"/><path d="M1061.82,455.57a2.29,2.29,0,0,0-1.5,1.2,3,3,0,0,0-.3,2.05c.44,2.1.78,4.25,1.07,6.4.49,3.65.78,7.25,1,10.9s.14,7.44.14,11.19a2.82,2.82,0,1,0,5.64,0,146.77,146.77,0,0,0-2.91-29.89,2.53,2.53,0,0,0-2.48-1.95,2.84,2.84,0,0,0-.64.1Z" style="fill:#161616"/><path d="M1101,473.12c0,.1,0,.2,0,.3,0-.1,0-.2,0-.3Zm-5.84-25.34a3.13,3.13,0,0,0-.87,2.15c-.3,5.24-.39,10.54-.2,15.79.1,2.65.34,5.3.63,7.9a56.51,56.51,0,0,0,1.37,8A3.11,3.11,0,0,0,1099,484a3,3,0,0,0,2.14-.95,3,3,0,0,0,.88-2.2c-.29-2.39-.63-4.84-1-7.29a141,141,0,0,1-1-23.59,3,3,0,0,0-2.87-3.05,2.89,2.89,0,0,0-2,.9Z" style="fill:#161616"/><path d="M1098.89,478.22a2.65,2.65,0,0,0-1.22,1c-1.31,1.94-2.67,3.79-4.08,5.69.09-.15.24-.3.34-.45-3.85,5.15-7.83,10.1-11.73,15.2A179.43,179.43,0,0,0,1070.92,516a2.9,2.9,0,0,0,1,3.85,2.62,2.62,0,0,0,3.65-1.05c1.85-3.3,3.75-6.6,5.84-9.75s4.33-6.19,6.51-9.29c4.48-6.1,9.1-12.1,13.33-18.35a2.16,2.16,0,0,0-.73-3,1.87,1.87,0,0,0-1-.3,1.91,1.91,0,0,0-.58.06Z" style="fill:#161616"/><path d="M1101.51,531.9c0,.05,0,.1.1.15s0-.1-.1-.15Zm10.32-46a228,228,0,0,0-5.69,25.49c-.69,4.3-1.27,8.65-1.71,13-.09.85-.19,1.7-.24,2.55-.34-.65-.68-1.25-1-1.85a25.32,25.32,0,0,0-8.47-8.65,19.57,19.57,0,0,0-11.18-2.8,24.07,24.07,0,0,0-12.75,4.95,2.63,2.63,0,0,0-1.07,1.4,2.71,2.71,0,0,0,.25,1.85,2.26,2.26,0,0,0,3.16.85,27,27,0,0,1,4.67-2.7,21.84,21.84,0,0,1,4.67-1.4,20.89,20.89,0,0,1,4.33,0,16.5,16.5,0,0,1,7.68,3.45,25.59,25.59,0,0,1,3.75,3.9,31.7,31.7,0,0,1,3.26,5.85c.39,1,.73,2,1.07,3.09.34,1.2.58,2.4.87,3.55a2.1,2.1,0,0,0,4.14-.55c.09-3.5.34-7,.63-10.49s.63-6.75,1.07-10.1a212.81,212.81,0,0,1,6.27-30.29,2,2,0,0,0-1.36-2.45,1.64,1.64,0,0,0-.49-.1,2,2,0,0,0-1.84,1.45Z" style="fill:#161616"/><path d="M1065.47,508.65v0Zm-6.71-21.29c.29,5.25.58,10.5,1.07,15.8.19,2.49.49,5,.78,7.59A65.53,65.53,0,0,0,1062,519a2.49,2.49,0,0,0,2.38,1.9,2.27,2.27,0,0,0,1.75-.75,2.29,2.29,0,0,0,.73-1.8c-.34-3.2-.92-6.4-1.36-9.6,0,.15,0,.35.1.5,0-.15,0-.35-.1-.55v0c-.87-7-1.31-14.19-1.7-21.29a2.82,2.82,0,0,0-.73-1.85,2.44,2.44,0,0,0-1.75-.75,2.57,2.57,0,0,0-2.53,2.6Z" style="fill:#161616"/><path d="M1044.51,510.85a.38.38,0,0,0-.1.2.38.38,0,0,1,.1-.2Zm.19-.55c0,.15-.1.25-.14.4,0-.15.09-.25.14-.4Zm9.58-34.83a3.15,3.15,0,0,0-1.31,1.75c-.44,1.14-.83,2.29-1.31,3.39-3.07,7.5-6.76,14.7-10.22,22.05-1.85,3.85-3.5,7.74-5,11.74a55.82,55.82,0,0,0-3.21,12.2,4.38,4.38,0,0,0-.1.8,2.68,2.68,0,0,0,.39,1.5,3,3,0,0,0,1.71,1.4,2.92,2.92,0,0,0,3.6-2.1c.82-3.05,1.65-6.1,2.62-9.1.93-2.8,2-5.6,3.07-8.35,4.42-10.74,9.92-21,13.91-32a3,3,0,0,0-.29-2.25,2.91,2.91,0,0,0-1.71-1.35,3.57,3.57,0,0,0-.73-.1,2.89,2.89,0,0,0-1.41.4Z" style="fill:#161616"/><path d="M1056.13,518a36.53,36.53,0,0,0-13.57,3,44,44,0,0,0-6.42,3.45A3.42,3.42,0,0,0,1035,529a3.09,3.09,0,0,0,4.28,1.2,41.36,41.36,0,0,1,5.4-3,36.83,36.83,0,0,1,8.61-2.45,38.57,38.57,0,0,1,8.66,0,2.54,2.54,0,0,0,1.46-.45,2.93,2.93,0,0,0,1.36-1.8,3,3,0,0,0-.29-2.4,2.61,2.61,0,0,0-1.75-1.4,35.8,35.8,0,0,0-6.08-.55Z" style="fill:#161616"/><path d="M1020.09,467.82a3.33,3.33,0,0,0,.29,2.45,3.37,3.37,0,0,0,1.85,1.45,102.34,102.34,0,0,0,16.39,4.1c5.74,1,11.48,1.89,17.22,2.95a2.88,2.88,0,0,0,2-.26,2.8,2.8,0,0,0,1.21-1.59,3,3,0,0,0-.29-2.05,2.3,2.3,0,0,0-1.51-1.2c-5.54-1.1-11-2.2-16.54-3.5s-11.23-3-16.83-4.55a2.18,2.18,0,0,0-.77-.1,3,3,0,0,0-3,2.3Z" style="fill:#161616"/><path d="M996.3,436.48l.15.15-.15-.15ZM927.14,276.14a3.1,3.1,0,0,0-1.76,1.4,3.61,3.61,0,0,0-.29,2.35c.88,4.14,1.95,8.19,3,12.29s2.14,8,3.26,12c2.14,7.79,4.47,15.54,6.91,23.24,4.76,15,10,29.89,16,44.43A344.42,344.42,0,0,0,974.46,413a264.38,264.38,0,0,0,28.07,38.93c4.81,5.6,10,10.95,15.22,16.1a2.35,2.35,0,0,0,3.26,0,2.57,2.57,0,0,0,0-3.4,235.2,235.2,0,0,1-24.85-28.39,259.8,259.8,0,0,1-31.52-56.68C958.9,365.31,954,350.71,949.51,336c-4.77-15.45-9.19-31-14.54-46.34-1.41-4.05-2.87-8.14-4.48-12.14a3.74,3.74,0,0,0-1.07-1.1,3.09,3.09,0,0,0-1.51-.4,4.65,4.65,0,0,0-.77.1" style="fill:#161616"/><path d="M924.27,277.44c-.59.25-1.22.55-1.8.85A84.33,84.33,0,0,1,910.94,282c-2.05.5-4.09.9-6.13,1.29-2.24.4-4.53.7-6.76,1.05a3.49,3.49,0,0,0-1.56,1,3.6,3.6,0,0,0-1.07,2.6,3.67,3.67,0,0,0,3.6,3.7,49.67,49.67,0,0,0,7.15-.8,60,60,0,0,0,7.3-1.7,96.06,96.06,0,0,0,14.2-5.69,3.4,3.4,0,0,0,1.56-2.1,3.53,3.53,0,0,0-.34-2.7,3.46,3.46,0,0,0-2-1.65,5.19,5.19,0,0,0-.83-.1,4,4,0,0,0-1.79.5Z" style="fill:#161616"/><path d="M926.79,411.49c0,.05.05.1.05.15l-.09-.25c0,.05,0,.05,0,.1ZM893.52,290a1.73,1.73,0,0,0-.58,1.35,593.08,593.08,0,0,0,15,80c1.8,6.9,3.7,13.75,5.79,20.5s4.38,13.54,6.76,20.24c2.43,6.85,5.11,13.59,7.93,20.24s5.64,12.9,8.8,19.19a255.37,255.37,0,0,0,21.06,35.39A176.44,176.44,0,0,0,971.2,503c2.19,2.45,4.53,4.79,6.81,7.09A92.54,92.54,0,0,0,985.6,517s.15.1.2.15a2.77,2.77,0,0,1,.34.35,3.18,3.18,0,0,0,2.14.9,3,3,0,0,0,2.19-.9,3.28,3.28,0,0,0,0-4.45,18.78,18.78,0,0,1-1.37-1.45c-.48-.6-1-1.15-1.55-1.75l-2.92-3.15c-2-2.24-4-4.49-6-6.84q-5.55-6.68-10.8-13.65A304.07,304.07,0,0,1,946,452.07c-3.36-6.09-6.57-12.34-9.58-18.64s-5.79-12.89-8.56-19.44c-.3-.75-.64-1.55-1-2.35,0,.15.1.25.15.4,0-.2-.15-.4-.2-.55s-.09-.15-.09-.25,0,.1,0,.15c-2.58-6.4-5-12.9-7.2-19.39-2.29-6.75-4.48-13.5-6.47-20.3-3.94-13.39-7.25-26.94-10-40.58-2.34-11.55-4.28-23.14-5.79-34.84v.05c-.2-1.65-.39-3.3-.58-4.95a2.28,2.28,0,0,0-.59-1.35,1.74,1.74,0,0,0-1.26-.55,1.78,1.78,0,0,0-1.32.55" style="fill:#161616"/><path d="M1101.47,474a3.07,3.07,0,0,0-1.8,1.45,3.24,3.24,0,0,0-.34,2.45,3,3,0,0,0,1.41,1.84c3.64,1.75,7.24,3.55,10.89,5.3a3.17,3.17,0,0,0,2.34.3,3.07,3.07,0,0,0,1.8-1.45,3.27,3.27,0,0,0-1.07-4.3c-3.6-1.84-7.25-3.59-10.85-5.29a4,4,0,0,0-1.61-.4,2.18,2.18,0,0,0-.77.1Z" style="fill:#161616"/><path d="M1109.69,481.86a3.66,3.66,0,0,0,2.43,4.45c8.56,2.6,17,5.6,25.44,8.65,4.28,1.6,8.56,3.15,12.89,4.7,2.14.75,4.28,1.5,6.47,2.2,1.07.35,2.19.7,3.26,1s2.23.45,3.35.65a2.52,2.52,0,0,0,1.22,0,2.29,2.29,0,0,0,1.41-1.1,2.54,2.54,0,0,0-.83-3.35,33.37,33.37,0,0,0-2.87-1.85c-1-.55-2-1-3-1.5-2.19-1-4.38-2-6.62-2.9-4.18-1.8-8.51-3.4-12.79-4.95-8.61-3.1-17.32-5.85-26.07-8.5a3,3,0,0,0-.93-.14,3.53,3.53,0,0,0-3.35,2.64Z" style="fill:#161616"/><path d="M996.35,509.05A3.58,3.58,0,0,0,994,513.4a248.86,248.86,0,0,1,7.34,36.34,380.59,380.59,0,0,1,2.92,48.33c0,8.15-.24,16.3-.58,24.44-.2,4-.44,8.15-.68,12.25s-.44,8-.73,11.94a3.53,3.53,0,0,0,2.48,3.4,3.22,3.22,0,0,0,2.62-.35,3.35,3.35,0,0,0,1.56-2.1c.34-2.5.73-5,1.07-7.49s.59-5.2.83-7.85c.44-5.1.78-10.25,1-15.39.49-10.5.49-21,.05-31.54a323.05,323.05,0,0,0-8.22-62.23c-.92-3.9-2-7.8-3.07-11.65a3.47,3.47,0,0,0-3.3-2.6,2.71,2.71,0,0,0-.88.15Z" style="fill:#161616"/><path d="M1176.76,564.83c0,.2,0,.4,0,.6,0-.2,0-.4,0-.6Zm0-.35v0Zm-11.13-63.27a3,3,0,0,0-2,3.65,339.94,339.94,0,0,1,13.18,59.92c1.75,14,2.73,28,3.16,42,.2,7.15.3,14.29.39,21.39s.15,14.35.44,21.54a3.39,3.39,0,0,0,3.31,3.4,3.14,3.14,0,0,0,2.29-1l.53-.7a3.42,3.42,0,0,0,.44-1.7c.63-5.59.87-11.19,1-16.84s.15-11.15,0-16.74c-.34-11.1-1.12-22.2-2.34-33.24s-2.82-22.19-4.91-33.14-4.67-21.69-7.68-32.39c-1.37-4.75-2.82-9.45-4.33-14.14a3,3,0,0,0-2.78-2.15,3.57,3.57,0,0,0-.72.1" style="fill:#161616"/><path d="M1130.21,562c-.29,7.74-.34,15.44-.24,23.19.1,7.94.53,15.89.78,23.84.29,7.75.58,15.49.63,23.24,0,4,.1,8,.15,12,0,2,0,3.94,0,5.94a39.33,39.33,0,0,0,.49,6.3,3.34,3.34,0,0,0,3.16,2.5,3.38,3.38,0,0,0,3.16-2.5,31.27,31.27,0,0,0,.78-5.7c.2-2,.25-4,.29-5.94,0-4-.09-8-.29-12-.39-7.95-1.12-15.94-1.85-23.84s-1.31-15.5-1.75-23.24c-.48-8-.77-15.85-.53-23.79a2.46,2.46,0,0,0-2.38-2.5,2.51,2.51,0,0,0-2.44,2.5Z" style="fill:#161616"/><path d="M920.23,263.59a46.07,46.07,0,0,0,1.31,7.7c.63,2.65,1.41,5.3,2.29,7.85a2.63,2.63,0,0,0,1.26,1.7,2.58,2.58,0,0,0,2.09.3,2.87,2.87,0,0,0,2-3.5,61.47,61.47,0,0,1-2-7.35c-.59-2.45-1-5-1.51-7.45a2.76,2.76,0,0,0-2.63-2.1,2.8,2.8,0,0,0-2.72,2.85Z" style="fill:#161616"/><path d="M922.81,227.35c0,.06,0,.16,0,.2s0-.14,0-.2Zm4.76-15.94c-7.24,6.5-10.94,16.14-12.5,25.74a3.08,3.08,0,0,0,.25,2,2.79,2.79,0,0,0,1.5,1.2,2.55,2.55,0,0,0,1.9-.3,2.37,2.37,0,0,0,1.17-1.5A54.4,54.4,0,0,1,923,227.06a38.07,38.07,0,0,1,4-7.35c.44-.55.87-1.1,1.31-1.6a28.85,28.85,0,0,1,.59,2.85,48,48,0,0,1-.25,11.24c-1.41,10.2-4.72,19.9-7.54,29.69a3,3,0,0,0,2,3.6,2.85,2.85,0,0,0,3.45-2.05c2.43-8.5,5.21-16.94,6.81-25.69,1.51-8.5,2.24-17.89-1.7-25.79a2.64,2.64,0,0,0-1.56-1.25,3.12,3.12,0,0,0-.68-.05,2.92,2.92,0,0,0-1.85.75" style="fill:#161616"/><path d="M916.39,237a23.32,23.32,0,0,0-10.61,6.6,22.66,22.66,0,0,0-5.4,12,4.7,4.7,0,0,0-.1.84,3,3,0,0,0,.39,1.55,3.1,3.1,0,0,0,1.76,1.4,3,3,0,0,0,3.64-2.15,31,31,0,0,1,1.27-4.34,22.25,22.25,0,0,1,2.14-3.85,18.83,18.83,0,0,1,2.72-2.85,18.12,18.12,0,0,1,3.8-2.25,13.58,13.58,0,0,1,2-.75,3.28,3.28,0,0,0,2.19-4,3.24,3.24,0,0,0-3-2.35,2.11,2.11,0,0,0-.77.15Z" style="fill:#161616"/><path d="M907.09,186.62a2.4,2.4,0,0,0-1.36,1,43.51,43.51,0,0,0-3.45,9.2,62,62,0,0,0-1.46,10,183.67,183.67,0,0,0-.05,20,2,2,0,1,0,4,0c0-7.65-.29-15.35.63-23a47.71,47.71,0,0,1,2.68-10.64,4.14,4.14,0,0,1,.34-.75c.58.65,1.17,1.3,1.7,1.95a25.71,25.71,0,0,1,2.77,5.1,44.6,44.6,0,0,1,2.48,10.14c.93,7.7.59,15.45.49,23.14a2.29,2.29,0,1,0,4.57,0c.05-4,.15-8,.15-12.09a103.69,103.69,0,0,0-.88-12.95A41.47,41.47,0,0,0,916.34,196a30.13,30.13,0,0,0-3.17-5.05,22.39,22.39,0,0,0-4.32-4,1.86,1.86,0,0,0-1.12-.35,2.45,2.45,0,0,0-.64.1Z" style="fill:#161616"/><path d="M891.33,216.66a.63.63,0,0,0,0,.3.63.63,0,0,1,0-.3Zm0-.4v0ZM891,185.47a2.49,2.49,0,0,0-1.46,1.15,39.42,39.42,0,0,0-3,9.35,52.12,52.12,0,0,0-.88,9.89,77.38,77.38,0,0,0,.78,10.1c.44,3.4,1,6.75,1.75,10.1a2.3,2.3,0,0,0,2.77,1.65,2.35,2.35,0,0,0,1.37-1.1,2.6,2.6,0,0,0,.24-1.8c-.44-2.75-.92-5.45-1.27-8.2a72.75,72.75,0,0,1-.38-17.19,45.46,45.46,0,0,1,1.7-7.4,18.64,18.64,0,0,1,1.6,1.8,26.57,26.57,0,0,1,2.82,5.1,41,41,0,0,1,2.34,9.44,72.49,72.49,0,0,1-.1,16.85,2.1,2.1,0,0,0,.63,1.65,2.2,2.2,0,0,0,3.12,0,2.57,2.57,0,0,0,.63-1.65,69.85,69.85,0,0,0-.54-21.65,35.53,35.53,0,0,0-3.5-10,24.28,24.28,0,0,0-2.82-4.2,25.17,25.17,0,0,0-3.94-3.65,2,2,0,0,0-1.17-.35,2.85,2.85,0,0,0-.68.1Z" style="fill:#161616"/><path d="M876.4,191.72a37.52,37.52,0,0,0-1.51,4.05,27.63,27.63,0,0,0-.92,4.39,39.39,39.39,0,0,0-.44,9,57.5,57.5,0,0,0,3.84,17.6,2.7,2.7,0,0,0,1,1.35,2.29,2.29,0,0,0,1.7.19,2.14,2.14,0,0,0,1.26-1.05,2,2,0,0,0,.25-1.69,63.74,63.74,0,0,1-3.31-13,46.14,46.14,0,0,1,0-10.7,42.36,42.36,0,0,1,.83-4.24,34.09,34.09,0,0,1,3.31,6.34,61.62,61.62,0,0,1,3.6,14.35c.29,2.55.48,5,.63,7.55a2.15,2.15,0,0,0,2.09,2.2,2.18,2.18,0,0,0,2.09-2.2A84.6,84.6,0,0,0,888,207.31a53.87,53.87,0,0,0-3.26-8.59,36.61,36.61,0,0,0-5-7.45,2,2,0,0,0-1.56-.7,2.13,2.13,0,0,0-1.85,1.15Z" style="fill:#161616"/><path d="M877.18,227.55v0Zm0-.14v0Zm-9.48-3.6a.21.21,0,0,0,0,.15.21.21,0,0,1,0-.15Zm7.73-2.9.1.2a.38.38,0,0,0-.1-.2Zm-13.67-12.75a24.39,24.39,0,0,0-.39,8.4,37.74,37.74,0,0,0,2.14,8.6,92.7,92.7,0,0,0,8.13,15.94,2.26,2.26,0,0,0,3.16.85,2.5,2.5,0,0,0,.82-3.3,134.34,134.34,0,0,1-8-15,39.33,39.33,0,0,1-2.48-8.85,25.85,25.85,0,0,1-.15-3.95c.44.15.92.35,1.36.5a17.42,17.42,0,0,1,3.7,2.25,19.9,19.9,0,0,1,3,3.15,21.47,21.47,0,0,1,2.44,4.4,26.16,26.16,0,0,1,1.65,6.35c.05.29.05.59.1.89a1.08,1.08,0,0,0,1,1,1.05,1.05,0,0,0,1.07-1A28.58,28.58,0,0,0,874.7,215a22.41,22.41,0,0,0-4.62-4.8,23.3,23.3,0,0,0-6.23-3.25,1.34,1.34,0,0,0-.44-.1,1.83,1.83,0,0,0-1.65,1.35Z" style="fill:#161616"/><path d="M870.91,240.7a42.41,42.41,0,0,0-1.32,13.3,45.34,45.34,0,0,0,1,6.64,41.8,41.8,0,0,0,2.19,6.8,53.84,53.84,0,0,0,2.78,5.65,54.8,54.8,0,0,0,4.13,6,41.24,41.24,0,0,0,4.33,4.64,37.73,37.73,0,0,0,5.69,4.35,3,3,0,0,0,3.65-.5,3.23,3.23,0,0,0,0-4.39,104.39,104.39,0,0,1-9.15-10,53.34,53.34,0,0,1-5.64-9.9,39.36,39.36,0,0,1-2.33-8.64,35.67,35.67,0,0,1,0-8,37.17,37.17,0,0,1,.82-4.1,3.33,3.33,0,0,0-2.23-4.1,2.27,2.27,0,0,0-.83-.15,3.27,3.27,0,0,0-3.11,2.45Z" style="fill:#161616"/><path d="M878.06,226.55a2.38,2.38,0,0,0-1.61,2.9,2.27,2.27,0,0,0,2.77,1.65,31.71,31.71,0,0,1,14-1.15A38.84,38.84,0,0,1,903,232.8c.68.3,1.36.6,2,.9a2.16,2.16,0,0,0,1.66.25,2.06,2.06,0,0,0,1.26-1,2.27,2.27,0,0,0-.73-3.05,41.43,41.43,0,0,0-6.95-3.19,38.23,38.23,0,0,0-7.4-1.55,32.86,32.86,0,0,0-3.84-.25,38.45,38.45,0,0,0-10.89,1.69Z" style="fill:#161616"/><path d="M1213,187.32c-.1,6.15-.29,12.29-.44,18.44s-.34,12.35-.39,18.5a3.61,3.61,0,0,0,3.51,3.64,3.57,3.57,0,0,0,3.45-3.64c-.1-6.15-.34-12.3-.49-18.5s-.24-12.29-.24-18.44a2.7,2.7,0,1,0-5.4,0Z" style="fill:#161616"/><path d="M1247.39,188.62c0,5.15,0,10.35-.05,15.49,0,2.7-.14,5.4-.24,8.1s-.39,5.35-.44,8a3.31,3.31,0,0,0,3.26,3.35,3.38,3.38,0,0,0,2.29-1,3.61,3.61,0,0,0,.92-2.4c.24-2.45.19-4.95.24-7.45,0-2.7,0-5.35-.09-8.05,0-5.39-.25-10.74-.34-16.14a2.89,2.89,0,0,0-2.78-2.9,2.85,2.85,0,0,0-2.77,2.9Z" style="fill:#161616"/><path d="M1249.53,182.42a23.55,23.55,0,0,0-4.86,1.1,33.33,33.33,0,0,0-5.11,2.3,3.29,3.29,0,0,0-1.12,4.4,3.12,3.12,0,0,0,4.28,1.2,13.05,13.05,0,0,1,2-1,23.26,23.26,0,0,1,4.92-1.45,14.06,14.06,0,0,1,3.55,0,12.72,12.72,0,0,1,2.77.75,13.71,13.71,0,0,1,2.33,1.4,17.1,17.1,0,0,1,1.9,2,13.94,13.94,0,0,1,2.43,6.19,16.35,16.35,0,0,1-1,7.4,26.58,26.58,0,0,1-1.85,3.3,20.71,20.71,0,0,1-2.92,3,25.6,25.6,0,0,1-4.62,2.75,21,21,0,0,1-2.53.9,3.55,3.55,0,0,0-2.28,4.25,3.29,3.29,0,0,0,4,2.4,27.73,27.73,0,0,0,8.37-4,24.3,24.3,0,0,0,3.21-2.8,23.23,23.23,0,0,0,2.73-3.4,21.72,21.72,0,0,0,3.3-13.95,30.35,30.35,0,0,0-.63-3.59,25,25,0,0,0-1.41-3.55,13.84,13.84,0,0,0-1.51-2.5,19.34,19.34,0,0,0-2.48-2.8,17.08,17.08,0,0,0-6.22-3.6,18.94,18.94,0,0,0-3.65-.7,13.38,13.38,0,0,0-1.41,0,17.61,17.61,0,0,0-2.29.15Z" style="fill:#161616"/><path d="M1277.74,188.07a3.19,3.19,0,0,0-.87,2.25c.78,6.2,1.12,12.44,1.41,18.69.14,3.1.24,6.15.24,9.25a36,36,0,0,1-.24,6.05,3.76,3.76,0,0,0,1.07,2.65,3.56,3.56,0,0,0,5.15,0,4.1,4.1,0,0,0,1-2.65,43.64,43.64,0,0,0-.1-6.05c-.15-3.1-.34-6.15-.59-9.25-.48-6.5-1.16-13-2-19.54a3.5,3.5,0,0,0-.78-1.4,3.18,3.18,0,0,0-2.14-.9,3.13,3.13,0,0,0-2.14.9Z" style="fill:#161616"/><path d="M1295.74,188.07a2.77,2.77,0,0,0-1.61,1.25,3.24,3.24,0,0,0-.29,2.2c.25,1.55.49,3.1.68,4.65q.81,5.93,1.17,11.84c.29,4.25.34,8.5.49,12.75a3,3,0,1,0,6,0,117.62,117.62,0,0,0-.83-15c-.53-5.3-1.36-10.49-2.23-15.69a3,3,0,0,0-1.27-1.7,2.63,2.63,0,0,0-1.36-.35,1.84,1.84,0,0,0-.73.1Z" style="fill:#161616"/><path d="M1303.23,184.42a33.11,33.11,0,0,0-9.29,1.9,4.66,4.66,0,0,0-2.63,2.1,4.83,4.83,0,0,0-.48,3.55,4.46,4.46,0,0,0,5.49,3.25,32,32,0,0,1,5.69-1.5,25.35,25.35,0,0,1,4.77-.05,16.91,16.91,0,0,1,3.21.9,21.14,21.14,0,0,1,2.29,1.35,12,12,0,0,1,1.7,1.8,15.87,15.87,0,0,1,1.36,2.4,16.54,16.54,0,0,1,.78,3,22.24,22.24,0,0,1,0,3.65,20.91,20.91,0,0,1-1,3.75,21.93,21.93,0,0,1-2,3.6,24.27,24.27,0,0,1-3.16,3.25,26.57,26.57,0,0,1-4.86,2.9,35.65,35.65,0,0,1-8.12,2.2,4,4,0,0,0-1.76,1.05,4.32,4.32,0,0,0-1.16,2.9,4.39,4.39,0,0,0,1.16,2.89,3.71,3.71,0,0,0,2.78,1.15,32.22,32.22,0,0,0,10.11-2.25,38.21,38.21,0,0,0,4.33-2.09,28.9,28.9,0,0,0,3.94-2.95,23.78,23.78,0,0,0,5.21-6.35,23.47,23.47,0,0,0,3.21-14.55,36.49,36.49,0,0,0-.73-3.94,21.14,21.14,0,0,0-1.61-3.8,19.84,19.84,0,0,0-2.14-3.2,12.46,12.46,0,0,0-2.23-2.3,18.76,18.76,0,0,0-3.26-2.25,19.26,19.26,0,0,0-4-1.65,22,22,0,0,0-4-.7,13.94,13.94,0,0,0-2-.1,14.25,14.25,0,0,0-1.46,0Z" style="fill:#161616"/><path d="M1238.83,254.49q.15,8.1.29,16.2c.15,5.4.15,10.8.49,16.19a3.3,3.3,0,0,0,.87,2.2,2.94,2.94,0,0,0,5.06-2.2c-.14-2.6-.39-5.19-.58-7.79-.2-2.8-.39-5.6-.54-8.4-.29-5.4-.48-10.8-.63-16.2a2.48,2.48,0,1,0-5,0Z" style="fill:#161616"/><path d="M1268.4,251.75c-4.47.2-9,.55-13.37,1a4.19,4.19,0,0,0-2.82,7.09A3.76,3.76,0,0,0,1255,261c4.42-.4,8.9-.7,13.37-1a124.74,124.74,0,0,0,13.67-1.15,3.79,3.79,0,0,0,1.61-.95,3.92,3.92,0,0,0,1.07-2.7,3.8,3.8,0,0,0-1.07-2.64,3.52,3.52,0,0,0-2.58-1.1c-1.31-.1-2.63-.15-3.94-.15-2.92,0-5.89.2-8.76.35Z" style="fill:#161616"/><path d="M1264.76,256.79a2.76,2.76,0,0,0-.78,1.9c-.34,4.45-.59,8.95-.64,13.45,0,2.35,0,4.7-.09,7s0,4.7.14,7a3.08,3.08,0,0,0,.93,2.3,3,3,0,0,0,2.23,1,3.28,3.28,0,0,0,3.17-3.3c-.1-2.15-.3-4.29-.44-6.44-.15-2.35-.24-4.7-.29-7-.15-4.7-.15-9.4.09-14.05a2.62,2.62,0,0,0-2.53-2.69,2.39,2.39,0,0,0-1.79.79Z" style="fill:#161616"/><path d="M1298.51,244a3.1,3.1,0,0,0-1.94,1.5c-.1.25-.2.55-.3.8a3.7,3.7,0,0,0,0,1.75c0,.4.1.85.15,1.25.49,3.8.88,7.59,1.12,11.44.29,4.1.29,8.25.49,12.35a3.24,3.24,0,0,0,3.16,3.3,3.19,3.19,0,0,0,2.24-.95,3.48,3.48,0,0,0,.92-2.35,97.33,97.33,0,0,0-.34-13q-.59-6.9-1.61-13.79a3.13,3.13,0,0,0-1.46-2,3,3,0,0,0-1.6-.45,2.27,2.27,0,0,0-.83.15Z" style="fill:#161616"/><path d="M1296,288.48a4.72,4.72,0,1,0,4.72-4.9,4.82,4.82,0,0,0-4.72,4.9Z" style="fill:#161616"/><path d="M1202,153.88l-.15.15.15-.15Zm.29-.2s-.1,0-.15.1.1-.05.15-.1Zm25.39-15.29-.29.15.29-.15Zm-1-4.3a131.41,131.41,0,0,0-16.05,8.25,113.73,113.73,0,0,0-14.5,10.54,92.8,92.8,0,0,0-22,26.64,77.29,77.29,0,0,0-6.13,14.55,69.15,69.15,0,0,0-2.78,15.69,70,70,0,0,0,1.07,16.55,72.62,72.62,0,0,0,5.45,17.09,2.64,2.64,0,0,0,3.07,1.25,2.83,2.83,0,0,0,1.6-1.25,2.79,2.79,0,0,0,.25-2.15c-1.37-3.4-2.58-6.8-3.6-10.3a74.07,74.07,0,0,1-2-9.69,67,67,0,0,1,0-16.5,70.39,70.39,0,0,1,4.28-16.34,80.27,80.27,0,0,1,9.63-16.94,98.44,98.44,0,0,1,17.13-17.65,114.77,114.77,0,0,1,25.24-15.29c.15,0,.34-.15.49-.2a2.56,2.56,0,0,0,1.26-1,2.29,2.29,0,0,0-.73-3,2.27,2.27,0,0,0-1.12-.35,1.67,1.67,0,0,0-.53.1" style="fill:#161616"/><path d="M1170.78,241.3a74,74,0,0,0-7.93,23.19,57.77,57.77,0,0,0-.68,11.25,53.68,53.68,0,0,0,1.46,10.74,52.56,52.56,0,0,0,3.45,10.1,54.3,54.3,0,0,0,5.06,8.8,65.61,65.61,0,0,0,7,8.34,69,69,0,0,0,8.56,7.15,64.29,64.29,0,0,0,22.42,10.25,3.35,3.35,0,0,0,2.39-.35,3.31,3.31,0,0,0,1.41-1.9,3.4,3.4,0,0,0-.34-2.45,3.1,3.1,0,0,0-1.8-1.45c-1.17-.5-2.34-1-3.46-1.5a90.8,90.8,0,0,1-19.94-11.55,62.6,62.6,0,0,1-10.12-10.39,56.11,56.11,0,0,1-6.27-11.1,55.44,55.44,0,0,1-3.21-11.89,57,57,0,0,1,0-13.25,65.72,65.72,0,0,1,4.13-15.34c.83-1.95,1.7-3.85,2.68-5.7a3,3,0,0,0-1-3.95,2.4,2.4,0,0,0-1.41-.4,2.63,2.63,0,0,0-2.38,1.4Z" style="fill:#161616"/><path d="M1198.55,350.56c0,.15-.09.3-.14.45l.14-.45ZM1209.4,328c-2,3.75-4.08,7.55-5.93,11.39s-3.51,7.7-5.11,11.65a2.16,2.16,0,0,1-.19.45,3,3,0,0,0-.39,1.5,3,3,0,0,0,.82,2.1,2.89,2.89,0,0,0,3.5.5,48.93,48.93,0,0,0,5.45-4.15c1.9-1.5,3.7-3,5.5-4.6s3.31-2.95,5-4.45,3.5-3.2,5.11-5a3.16,3.16,0,0,0,.48-3.7,2.83,2.83,0,0,0-1.8-1.4,2.71,2.71,0,0,0-2.23.3c-1.75,1.25-3.31,2.7-4.92,4.1s-3.21,3-4.86,4.54l-2.77,2.55c2-4.54,4.23-8.94,6.56-13.24a2.6,2.6,0,0,0-.87-3.45,2.16,2.16,0,0,0-1.22-.35,2.41,2.41,0,0,0-2.09,1.25Z" style="fill:#161616"/><path d="M1351.34,290.43c0,.05-.1.15-.2.2.1-.05.15-.15.2-.2Zm11-44.48a.85.85,0,0,0,.05.35.85.85,0,0,1-.05-.35Zm.49-14.55a3.56,3.56,0,0,0-2.34,4.25c.73,3.3,1.31,6.65,1.8,10a73.71,73.71,0,0,1,.24,17.69,61.55,61.55,0,0,1-3.69,13.9,63.81,63.81,0,0,1-7.25,12.84,79.22,79.22,0,0,1-13,13.35,114.09,114.09,0,0,1-24.8,14.59,196,196,0,0,1-50.88,14l.92-.15a200.9,200.9,0,0,1-37.16,1.9,3.5,3.5,0,0,0,0,7,200.34,200.34,0,0,0,31-.95,245.51,245.51,0,0,0,35.66-6.44,163.35,163.35,0,0,0,34.24-12.95,113.11,113.11,0,0,0,14.55-9.1,82.49,82.49,0,0,0,12.84-11.44,61.93,61.93,0,0,0,14.93-28.64,68.41,68.41,0,0,0,1.22-17.54,74.68,74.68,0,0,0-4.14-19.85,3.82,3.82,0,0,0-1.55-2.05,3.18,3.18,0,0,0-1.66-.45,5.16,5.16,0,0,0-.87.1Z" style="fill:#161616"/><path d="M1283.87,131.29h0Zm-.58-.1a.51.51,0,0,1,.24.05.51.51,0,0,0-.24-.05Zm-23-6.8a85.44,85.44,0,0,0-30.55,7.8,2.81,2.81,0,0,0-1.26,1.75,3,3,0,0,0,.29,2.25,2.79,2.79,0,0,0,1.65,1.35,2.89,2.89,0,0,0,2.14-.3l1.9-.9a77.52,77.52,0,0,1,19-5.25,113.85,113.85,0,0,1,30.3.15,139.71,139.71,0,0,1,34.59,9.85,112.58,112.58,0,0,1,24.46,14.59,83.14,83.14,0,0,1,14,14.35,64.87,64.87,0,0,1,7.59,13.39A56.73,56.73,0,0,1,1368,197a60.36,60.36,0,0,1,0,14.59,69.81,69.81,0,0,1-3.26,13.8,4.05,4.05,0,0,0,2.73,5,3.75,3.75,0,0,0,3-.4,4.36,4.36,0,0,0,1.8-2.44,91.59,91.59,0,0,0,2.83-9.45,70.31,70.31,0,0,0,1.41-9.95,61.93,61.93,0,0,0-1.41-17.89,63.27,63.27,0,0,0-6.23-16.05,74.31,74.31,0,0,0-10.17-14.09,95.53,95.53,0,0,0-13.37-11.9,109.83,109.83,0,0,0-15.28-9.44,127.78,127.78,0,0,0-17.41-7.4,129.62,129.62,0,0,0-17.9-4.75,132,132,0,0,0-25.49-2.55c-3,0-5.93.1-8.85.35" style="fill:#161616"/><path d="M993.09,518.8s.1.05.15.1-.1-.1-.15-.1Zm-14.54-11.3a2.08,2.08,0,0,0,0,2.85,113.25,113.25,0,0,0,17.8,16.6,2.25,2.25,0,0,0,1.7.2,2.27,2.27,0,0,0,1.37-1,2.31,2.31,0,0,0,.19-1.8,2.34,2.34,0,0,0-1-1.35c-1.8-1.3-3.55-2.65-5.25-4a102.1,102.1,0,0,1-12.07-11.45,1.7,1.7,0,0,0-1.31-.6,1.84,1.84,0,0,0-1.41.6Z" style="fill:#161616"/><path d="M982.34,508.9a2.14,2.14,0,0,0-.58,1.5,2.26,2.26,0,0,0,.58,1.45,58.83,58.83,0,0,0,5.69,6.4c1.07,1,2.19,2,3.36,2.9a20.91,20.91,0,0,0,3.55,2.3,1.75,1.75,0,0,0,1,.3,1.91,1.91,0,0,0,1.41-.6,2.2,2.2,0,0,0,0-3c-1.55-1.2-3.21-2.35-4.76-3.55a43.5,43.5,0,0,1-7.4-7.7,2,2,0,0,0-1.46-.6,1.93,1.93,0,0,0-1.41.6Z" style="fill:#161616"/><path d="M986.14,511a1.69,1.69,0,0,0,0,2.35c3.3,3,6.66,6,10.11,8.75a1.69,1.69,0,0,0,1.17.5,1.9,1.9,0,0,0,1.22-.5,2,2,0,0,0,.48-1.25,1.77,1.77,0,0,0-.48-1.2c-1.7-1.4-3.36-2.8-5.06-4.2s-3.45-2.95-5.16-4.45a1.67,1.67,0,0,0-1.16-.5,1.46,1.46,0,0,0-1.12.5Z" style="fill:#161616"/></g></svg>