<svg id="Layer_1" data-name="Layer 1" xmlns="http://www.w3.org/2000/svg" viewBox="0 0 1000 1000"><title>edelweiss_red</title><path d="M276.28,211a621,621,0,0,1,41.93,81.52l-4.23-10q8.89,21.15,16.25,42.89l70.2-40.86q-5.7-6.23-10.88-12.87l6.57,8.5A197.39,197.39,0,0,1,371.53,238l4.23,10A201.08,201.08,0,0,1,366.61,221l-70.19,40.87A332.7,332.7,0,0,1,354.9,321l-6.57-8.5c34.84,45.27,59.59,97.2,81.72,149.58l-4.23-10c6,14.27,11.86,28.61,17.66,43l76.77-32.36a152.16,152.16,0,0,1-14.85-27l4.24,10a140.27,140.27,0,0,1-9.19-32l1.5,11.16a67.64,67.64,0,0,1,0-17.64l-1.5,11.17a51.63,51.63,0,0,1,3.18-11.85l-4.24,10a36.44,36.44,0,0,1,4-6.93l-6.56,8.5a29.24,29.24,0,0,1,3.8-3.91l-8.5,6.57a24.94,24.94,0,0,1,4.64-2.81l-10,4.23a25,25,0,0,1,5.51-1.52l-11.17,1.5a24.33,24.33,0,0,1,5.19,0l-11.16-1.5a26,26,0,0,1,4.89,1.4l-10-4.23a29.92,29.92,0,0,1,4.46,2.56l-8.5-6.57a32,32,0,0,1,5.58,5.58l-6.57-8.5a35.18,35.18,0,0,1,3.34,5.8l-4.24-10a33.44,33.44,0,0,1,1.86,6.42L464.37,402a28.36,28.36,0,0,1,.12,6.64l1.5-11.16a34.28,34.28,0,0,1-2.23,8.07l4.24-10a40.49,40.49,0,0,1-4.28,7.19l6.57-8.5a46.07,46.07,0,0,1-7,7l8.5-6.56a50.93,50.93,0,0,1-11.17,6.46l10-4.24c-1.34.52-2.68,1-4,1.42L499,475.11c1.41-.7,2.82-1.35,4.28-2l-10,4.23a62.83,62.83,0,0,1,13.62-3.57l-11.17,1.5a64.61,64.61,0,0,1,15.66.05l-11.17-1.5a64,64,0,0,1,13.61,3.62l-10-4.23a65.89,65.89,0,0,1,8.37,4.27V405a30.91,30.91,0,0,1-4.26,2.42l10-4.24a27.68,27.68,0,0,1-6.74,1.82l11.16-1.5a31.07,31.07,0,0,1-6.95-.16l11.16,1.5a37.54,37.54,0,0,1-8-2.35l10,4.23a45.61,45.61,0,0,1-8.57-5.12l8.5,6.57a50.17,50.17,0,0,1-8.15-8.2l6.57,8.5a47.92,47.92,0,0,1-5.24-8.86l4.23,10a42.91,42.91,0,0,1-2.79-10.27l1.5,11.17a67.11,67.11,0,0,1,.1-15.71L523.15,406a107.49,107.49,0,0,1,7.41-25.55l-4.23,10c6.89-16.29,15.47-31.86,22.93-47.9,8.69-18.67,16.8-37.63,24.5-56.74A973.49,973.49,0,0,0,608.1,185.11q8.25-29.43,14.65-59.32l-82.5-11.16L529.86,258.06l-5.23,72.21c-1,13.49-2,25.67.49,39.13,3.51,19.33,18.45,37.11,37.68,42.26,14.52,3.89,29.25,1.67,42.31-5.55,7.48-4.13,14.1-10.23,20.54-15.86a318.53,318.53,0,0,0,27.1-26.78l-66-50.89c-15,27.09-30.16,54.15-45.13,81.29-7.48,13.56-11.11,27.7-6.82,43,5.89,21,25.38,33.27,46.3,34.39,18,.95,33.33-8,48.66-16,47.82-25,94.33-51.65,136.31-85.79,24.7-20.09,45.91-43.18,64.63-68.91,5.8-8,7.19-23.24,4.24-32.37a43.52,43.52,0,0,0-15.06-21.81c-15.62-12.07-41.24-12.47-55.14,3.28-18.77,21.25-33,45.23-46.15,70.21-11.53,22-22.68,44.31-37.82,64.07l6.57-8.5a148.08,148.08,0,0,1-25.44,25.89l8.5-6.57a136.17,136.17,0,0,1-28.88,16.69l10-4.24c-33.29,14-69.69,17-104.24,26.68a41.21,41.21,0,0,0-27.21,24.32,31.6,31.6,0,0,0-3.62,16.18,41.77,41.77,0,0,0,5.73,21.2l.71,1.58-4.24-10a75.52,75.52,0,0,1,4.67,18.23l-1.5-11.16c1.23,9.84,1.3,19.76,2.25,29.63a177.52,177.52,0,0,0,3.19,22.51c1.58,6.93,4.7,13.76,7.6,20.12,11.64,25.58,36.92,44.08,65.2,45.11,20,.72,42.49-9.91,51.35-28.41,5.81-12.14,8.1-25.69,4.34-38.87-3-10.31-8.19-18.7-15.21-26.68-9.38-10.65-21.87-16.82-34.7-22.08-10.28-4.22-21.19-5.48-32.18-6.77-18.2-2.13-36.62-.58-54.8-3l11.16,1.5a85.16,85.16,0,0,1-20.4-5.38l10,4.23a67.7,67.7,0,0,1-13.58-8l8.51,6.57a90.63,90.63,0,0,1-15.07-15.38l6.57,8.5c-8.61-11.28-15.25-23.83-22-36.27a301.33,301.33,0,0,0-23-36.62c-20.85-27.9-45.14-53.11-75.83-70.3-16.68-9.35-35.19-16.74-54.08-20.07-7.4-1.3-14.95-2-22.33,0a41.71,41.71,0,0,0-21.82,15.06,39.85,39.85,0,0,0-8.27,19.86c-1.31,9.79.64,17.83,5,26.78l.73,1.5-4.24-10a33.48,33.48,0,0,1,2.11,7.8l-1.5-11.16a51.14,51.14,0,0,1-.32,11.53l1.5-11.17c-1.18,7.78-3.35,15.36-4.62,23.12-2.16,13.15-2.47,24.57.89,37.72,6.91,27.1,29.57,47.29,58,47.89l-29.7-71.7a28,28,0,0,1-2.19,1.89l8.5-6.56a34.9,34.9,0,0,1-6,3.55l10-4.23a41.72,41.72,0,0,1-9.5,2.56l11.16-1.5a79.81,79.81,0,0,1-19.41-.42l11.17,1.5c-20.56-2.8-40.86-6.85-61.63-8.07a321.49,321.49,0,0,0-54.09,1.43c-21.11,2.34-42.08,5.74-62.55,11.47a385.27,385.27,0,0,0-59.89,22.83l-8.5,6.57-6.57,8.5a41.56,41.56,0,0,0-5,26.78C54.26,484.12,66,498.87,82.19,503,149,519.9,218.86,535.16,287.54,520c20.69-4.57,39.55-13.6,58.9-22l-10,4.24c7.09-3,14.27-5.55,21.92-6.64l-11.16,1.5a47.64,47.64,0,0,1,10.2-.05l-11.17-1.5a41,41,0,0,1,8.84,2.31l-10-4.23a39,39,0,0,1,7.76,4.49l-8.5-6.57a44.92,44.92,0,0,1,7.25,7.27l-6.57-8.5a57.24,57.24,0,0,1,6.65,11.46l-4.24-10A70.7,70.7,0,0,1,352,508.86l-1.5-11.17c1.12,9-.12,17.93.44,26.92,1.16,18.78,7,35.65,20.13,49.43,7.14,7.48,16.26,13.18,25.55,17.63,6.95,3.33,14,6.39,20.25,11l-8.5-6.57A45,45,0,0,1,413,600.3V540.9l-63.67,74,29.7-12.3-1.16-.15L389,604a19.24,19.24,0,0,1-3.16-1l10,4.24a19.22,19.22,0,0,1-2.71-1.65l8.5,6.57a20.74,20.74,0,0,1-3-3.09l6.57,8.5a29.83,29.83,0,0,1-2.79-5l4.23,10a52.42,52.42,0,0,1-3.08-12.16l1.5,11.17c-1.1-8.72-1.29-17.36-2.84-26.08a73.29,73.29,0,0,0-9-23.73c-15.69-26.59-49.72-37.83-77-21.18-9.18,5.61-15.14,12.9-21.57,21.15l-16,20.48-31.36,40.2L211.17,679a46.73,46.73,0,0,0-12.31,29.7c0,10.3,4.58,22.6,12.31,29.7,8,7.34,18.51,12.8,29.69,12.3l11.17-1.5a42.07,42.07,0,0,0,18.53-10.8q4.24-3.36,8.52-6.67l-8.5,6.56A816,816,0,0,1,442.21,636.31l-10,4.23a43.68,43.68,0,0,1,10.37-3.12l-11.17,1.5a18.11,18.11,0,0,1,3.53,0l-11.16-1.5a21.94,21.94,0,0,1,4.47,1.09l-10-4.24a25.59,25.59,0,0,1,3.64,2.06l-8.5-6.57a30.1,30.1,0,0,1,5,5.08l-6.57-8.5a54.2,54.2,0,0,1,5.75,10.55l-4.23-10a111.87,111.87,0,0,1,7.05,26.36L418.83,642a147.51,147.51,0,0,1-.33,37.67l1.5-11.17c-5,36.06-20.05,69.06-32.77,102.81-6.6,17.49-12.58,35.33-16,53.76a232.46,232.46,0,0,0-4.2,36.62c-.27,12.32,1.33,24.62,3.45,36.74l4.23,10,6.57,8.5a41.37,41.37,0,0,0,24.11,11.55c15.68,2.11,34.34-5.13,41.85-20a1486.12,1486.12,0,0,0,63-143.71c17.36-46,33.21-93.2,44.71-141,3-12.42,4-25.07.42-37.52a63.37,63.37,0,0,0-16.89-27.65c-12.35-11.5-27.68-18.34-43.77-22.89-16.29-4.6-34,1.92-44.15,15.05a39.82,39.82,0,0,0-8.26,19.87c-1.16,8.61-.28,19.43,5,26.78,10.57,14.78,21.53,25.37,36.2,36,8.77,6.37,18.35,11.52,28.05,16.29,19.8,9.74,40.58,18,58.3,31.4l-8.51-6.56a96.53,96.53,0,0,1,16.78,16.41l-6.57-8.5A98.18,98.18,0,0,1,583.42,703l-4.24-10c11,26.4,13,55.5,20.16,83a416.73,416.73,0,0,0,38.53,95.36l72.53-42.4-53.06-85.45c-16.51-26.58-34-52.9-46.22-81.82l4.24,10a167,167,0,0,1-11.47-40.2l1.5,11.17a114.14,114.14,0,0,1-.1-29.14l-1.5,11.17a80.58,80.58,0,0,1,4.9-19l-4.23,10a46.93,46.93,0,0,1,5.53-9.46l-6.57,8.5a39.42,39.42,0,0,1,5.59-5.52l-8.5,6.57a45.13,45.13,0,0,1,8.17-4.71l-10,4.23a65.14,65.14,0,0,1,15.43-4l-11.17,1.5a103.87,103.87,0,0,1,26.6.14l-11.16-1.5a107.37,107.37,0,0,1,25.71,7.16l-10-4.23A107,107,0,0,1,651.56,624c8.27,5.66,23,7.28,32.36,4.24,10.46-3.39,19.4-9.68,25.1-19.3,16.4-27.65,28.26-58.73,33.35-90.5L690.7,547.79a936.91,936.91,0,0,1,200.32,59l-10-4.24,6.88,2.93,21.2-78.26-88.35-5c-28.64-1.61-57.8-1.82-86.26-5.55l11.17,1.51A111.93,111.93,0,0,1,718,511l10,4.23c-37.18-16.25-67.5-55.06-112.22-46.59-20,3.8-33.81,20.8-39.44,39.43a267,267,0,0,0-6.19,26.81c-4.56,23.95-6.5,48-.39,71.89C576.4,632.38,592.19,655,614.71,669c14.3,8.92,33.74,6.69,46.64-3.28,13.94-10.77,18.41-27.18,15-44.15L654,508.43c-2-9.9-10.85-20.15-19.31-25.1-9-5.27-22.27-7.5-32.36-4.24s-20,9.59-25.1,19.3c-5.5,10.41-6.52,20.79-4.23,32.37L595.4,643.93l61.7-47.43c-1.66-1-3.26-2.14-4.82-3.32l8.5,6.56a57.56,57.56,0,0,1-9.15-9.31l6.56,8.5a69.1,69.1,0,0,1-8-14l4.23,10a83.16,83.16,0,0,1-5.37-20.1l1.5,11.17a117.53,117.53,0,0,1,.4-28.85l-1.5,11.16c1.83-13.42,4.23-28,8.93-40.71l-4.23,10a21.09,21.09,0,0,1,2-3.62l-6.57,8.5a10,10,0,0,1,2-1.92l-8.5,6.57a9.36,9.36,0,0,1,2.47-1.28l-10,4.23a11.37,11.37,0,0,1,2.71-.57L627,551.09a24.62,24.62,0,0,1,4.29.2l-11.16-1.5A52.54,52.54,0,0,1,630.25,553l-10-4.23c14.69,6.33,27.46,16,40.67,24.81,16.45,11,34.69,20.34,54.25,24.2C736.82,602.09,759,602.74,781,604l60.55,3.4,67.5,3.8,11.16-1.5a31.6,31.6,0,0,0,14.28-7.52c6.94-5.36,13-13,15.06-21.82a50.1,50.1,0,0,0,0-22.33c-2-8.82-10.7-21.4-19.31-25.1-69.91-30-142.2-52.89-217.22-66.12-10.87-1.91-22.61-2.05-32.36,4.24-8.61,5.55-17.61,14.53-19.3,25.1a231.06,231.06,0,0,1-15.29,53.31l4.24-10a237.21,237.21,0,0,1-13.83,27.15L694,551.49c-28-19.11-63.31-26.46-96.62-22-19.81,2.66-40.06,10-53.31,25.78a95,95,0,0,0-17.48,31c-3.31,9.23-4.38,19.33-5.47,29-3.75,33.09,6.91,65.65,20.38,95.36,11.69,25.8,27.41,49.58,42.32,73.59q27,43.56,54.1,87.13c5.67,9.12,14.64,16.42,25.1,19.3,10,2.77,23.44,1.52,32.36-4.24,19.49-12.56,26.46-36.88,15.07-57.46a382.89,382.89,0,0,1-17.57-36.1l4.23,10a372.15,372.15,0,0,1-20.73-66.1c-4.16-19.6-6.65-39.68-13.29-58.66-8.17-23.37-20.7-45.64-40.24-61.37C607,604,590.52,594.44,572.29,585.83c-17-8.05-34.47-15.78-49.51-27.35l8.51,6.57a94.53,94.53,0,0,1-15.67-15.43l6.56,8.5c-.8-1-1.58-2.1-2.35-3.18l-47.43,61.7a118.07,118.07,0,0,1,11.61,3.9l-10-4.23a54,54,0,0,1,11.69,6.53l-8.51-6.57a33.27,33.27,0,0,1,4.5,4.38l-6.57-8.51a25.48,25.48,0,0,1,3.11,5.25l-4.23-10a25,25,0,0,1,1.24,4.89l-1.5-11.17a33.57,33.57,0,0,1-.09,5.76l1.5-11.16c-2.72,17.13-8.75,34.27-13.66,50.89q-7.15,24.24-15.22,48.22-16.39,48.83-36.42,96.33l4.23-10q-18.23,43.14-39.29,85l76.77,10c-.32-1.83-.61-3.65-.87-5.49l1.5,11.17a145,145,0,0,1,.2-36.47l-1.5,11.16c4.72-34.71,19.15-66.81,31.62-99.22,12.74-33.11,23.14-69.27,21.29-105.09-1.13-21.88-5.84-43.85-16.33-63.27-5.85-10.83-15.66-21.75-26.87-27.19-16.1-7.81-34-9-50.73-2.15-33.9,13.85-66.7,30.85-98.18,49.51-35.19,20.86-68.45,44.51-100.49,69.9l59.39,59.4,48.58-62.26,24-30.73,12.3-15.76c3.46-4.44,6.71-9.12,11.2-12.59l-8.5,6.57a15.37,15.37,0,0,1,2.6-1.52l-10,4.23a17.58,17.58,0,0,1,4-1.11l-11.17,1.5a16.91,16.91,0,0,1,3.26.09l-11.17-1.5a16.17,16.17,0,0,1,3,.94l-10-4.24a19.75,19.75,0,0,1,2.65,1.68l-8.5-6.57a24.07,24.07,0,0,1,3,3.18l-6.57-8.5a33.51,33.51,0,0,1,3.54,6.29l-4.23-10a50.13,50.13,0,0,1,3,11.11L320,608c1.07,8.3,1.38,16.49,2.65,24.82a77,77,0,0,0,7.8,23.28c14.34,28.54,56.9,43.14,80.24,16l61.72-71.76c7-8.18,12.81-18.43,12.3-29.7s-4.37-21.45-12.3-29.7c-7.44-7.73-16.74-13.8-26.37-18.44-6.85-3.3-13.88-6.27-20-10.8l8.5,6.57a37,37,0,0,1-6-5.85l6.57,8.5a33.13,33.13,0,0,1-3.33-5.62l4.24,10a38.18,38.18,0,0,1-2.14-7.78l1.5,11.17c-.91-7.19-.21-14.34-.22-21.55a122.63,122.63,0,0,0-3.21-26.66c-3.78-16.69-12.77-34-25.31-45.8-15.86-14.93-37.46-23.66-59.41-21.54a107.49,107.49,0,0,0-31.42,7.44c-10,4.1-19.82,8.73-29.8,13l10-4.23a193.49,193.49,0,0,1-47,12.57l11.17-1.5c-25.68,3.41-51.59,2.28-77.21-1.11l11.17,1.5c-30.28-4.13-60-11.29-89.61-18.78l10,76.76c3.76-1.76,7.53-3.46,11.34-5.09l-10,4.23a325.81,325.81,0,0,1,82-22.49l-11.16,1.5a326.4,326.4,0,0,1,85-.22l-11.17-1.5c15.9,2.15,31.69,6,47.76,6.7,21.6.89,41.77-6.18,57.74-20.71,5-4.53,9-12.11,10.8-18.54a41.71,41.71,0,0,0-2.12-27.34,42.3,42.3,0,0,0-38.38-25.82,15.91,15.91,0,0,1-2.29-.13l11.16,1.5a19,19,0,0,1-4.13-1.21l10,4.23a21.87,21.87,0,0,1-2.71-1.63l8.5,6.56a23.6,23.6,0,0,1-3.08-3l6.56,8.5a29.23,29.23,0,0,1-3.5-5.9l4.23,10a40.93,40.93,0,0,1-2.58-9.46l1.5,11.16a44.81,44.81,0,0,1-.05-11.1l-1.5,11.16c1.78-11.54,4.76-22.61,6.12-34.28,1.74-14.85-1.78-28.71-8.25-42l-47.43,61.69a139.3,139.3,0,0,1,30,8.92l-10-4.24a164.21,164.21,0,0,1,34.57,20.6l-8.5-6.57a218.43,218.43,0,0,1,37.4,37.89l-6.57-8.5a279.47,279.47,0,0,1,23.32,35.73c6.73,12.19,13,24.68,21,36.1,11.31,16.13,24.47,31.1,42,40.68C490,565.88,508.93,569.42,529,570.8c15.37,1.06,30.84.22,46.15,2.16L564,571.46a79.17,79.17,0,0,1,19.63,5.1l-10-4.23a56.17,56.17,0,0,1,10.47,6l-8.5-6.56a38.82,38.82,0,0,1,6.16,5.79l-6.57-8.5a30.1,30.1,0,0,1,3,4.94l-4.24-10a23,23,0,0,1,1.2,4l-1.5-11.17a15.58,15.58,0,0,1,0,3.92l1.5-11.16-.34,1.25,4.24-10a9.47,9.47,0,0,1-1.24,2.38l6.57-8.5a9.77,9.77,0,0,1-2,2l8.5-6.56a12.91,12.91,0,0,1-2.44,1.48l10-4.24a24.79,24.79,0,0,1-5.48,1.53l11.17-1.5a28.25,28.25,0,0,1-6.5,0l11.16,1.5a29.85,29.85,0,0,1-6.09-1.74l10,4.23a36,36,0,0,1-6.66-4l8.5,6.57a46,46,0,0,1-6.71-6.75l6.56,8.5a58.91,58.91,0,0,1-7.2-12.23l4.24,10a64.66,64.66,0,0,1-4.17-15.58l1.5,11.17c-1.28-9.85-1.36-19.79-2.28-29.66a201.78,201.78,0,0,0-3.21-23.12c-1.71-8.07-5.12-15.56-8.47-23.07l-25.1,61.7C615.86,502,666,499.38,706.89,471.62c21.24-14.43,37.63-32.19,52.25-53.2,11.21-16.11,20.23-33.61,29.31-51,10.26-19.62,20.65-39.27,34.1-56.95L816,319q3.93-5.08,8.18-9.91l-66-50.9c-1.6,2.19-3.22,4.37-4.86,6.52l6.56-8.5c-17.51,22.64-38.26,42.39-60.81,59.94l8.5-6.57c-21.14,16.33-43.66,30.75-66.78,44.1-11.4,6.59-22.94,12.92-34.55,19.13S583,386,570.82,391.24l10-4.23a33.25,33.25,0,0,1-5.78,1.6l11.16-1.5a21.66,21.66,0,0,1-5.63.08l11.16,1.5a10.11,10.11,0,0,1-1.94-.52l10,4.24a6.86,6.86,0,0,1-1.64-.89l8.5,6.57a5.84,5.84,0,0,1-1.25-1.28l6.57,8.5-.46-.8,4.24,10a6.27,6.27,0,0,1-.53-2l1.5,11.16v-1.46l-1.5,11.17a9.89,9.89,0,0,1,.8-2.82l-4.24,10c6.91-14.52,15.64-28.4,23.45-42.46l24-43.24a42.23,42.23,0,0,0-10.81-54.18c-15.74-12.16-41.09-12.33-55.15,3.29-10.77,12-22.35,23.6-35.1,33.47l8.5-6.57a35.4,35.4,0,0,1-5.44,3.28l10-4.23a19.5,19.5,0,0,1-4.38,1.15l11.16-1.5h-1.5l11.16,1.5a14.48,14.48,0,0,1-3.7-.95l10,4.23a9.22,9.22,0,0,1-1.87-1.15l8.5,6.57a10.6,10.6,0,0,1-1.56-1.51l6.57,8.5a18.79,18.79,0,0,1-2.3-3.89l4.23,10a32.48,32.48,0,0,1-1.56-6l1.5,11.16c-1.11-8.58.24-17.4.87-26l2.29-31.65,4.44-61.33,9-124.64c.71-9.84-5.11-23.09-12.3-29.7a43.16,43.16,0,0,0-24.12-11.55c-19.55-2.63-41.67,9.57-46.08,30.08a980.9,980.9,0,0,1-55,174.59L491,268q-9.75,23-20.63,45.54c-8.44,17.44-17.71,34.57-24,53-3.51,10.22-5.2,21-6.06,31.77a61.6,61.6,0,0,0,.17,11.36c.66,6.38,1.17,13.17,3.25,19.33,6.76,20.06,20,37.64,38.54,48.31C504,489.82,533,492,554.49,477.52c12.51-8.4,20.8-20.73,20.8-36.26A42.53,42.53,0,0,0,554.49,405c-14.72-8.94-31.52-13.37-48.65-14.12-17.33-.75-33.91,4.12-49.27,11.71-8.67,4.28-17.18,15.77-19.3,25.1A43.39,43.39,0,0,0,439.39,455c7.81,18.53,29.45,30.67,49.54,24.32,26.46-8.36,50.38-28.23,57.4-56,4.37-17.32,1.91-34.32-6.11-50.12-5.73-11.29-16.5-22.19-27.88-27.78-17.11-8.4-35.39-9.47-53-2a63.69,63.69,0,0,0-30.71,27.19c-11.95,20.78-12.91,44.87-8.81,67.9,4.19,23.51,14.35,47,27.87,66.62,6,8.71,14.34,16.85,25.1,19.31a43.49,43.49,0,0,0,27.35-2.12c8.07-3.41,15.88-9.22,20.09-17.19,4.92-9.32,8.37-22.11,4.23-32.36-32-79.27-65.14-158.67-121.06-224.52a320.07,320.07,0,0,0-47.61-45.77l-8.5-6.57a31.19,31.19,0,0,0-15.61-5c-9-1.21-19-.06-26.78,5-15.87,10.23-24.14,28.8-19.31,47.43,9.76,37.63,29.21,72,55.42,100.58,12.07,13.15,35.83,16.29,50.9,6.57A50.14,50.14,0,0,0,407,335.36c5.44-8.44,7.46-22.81,4.23-32.36a667.85,667.85,0,0,0-62.42-134.45,43.81,43.81,0,0,0-25.1-19.3c-10-2.77-23.44-1.52-32.36,4.24C272.54,165.61,264,190.9,276.28,211Z" style="fill:#fff"/><path d="M418.87,475a27.75,27.75,0,0,0,16.21-10.13c2-2,1-3-2-2a49.19,49.19,0,0,0-7.1,3,25.79,25.79,0,0,1-32.74-16.05,25.25,25.25,0,0,1-1-4.11,27.84,27.84,0,0,1,1-9.12c0-3-2-3-3-1a47.6,47.6,0,0,0-3.6,16.21A24.1,24.1,0,0,0,418.87,475Z" style="fill:#da2222"/><path d="M443.19,553.83a11.33,11.33,0,0,1-7.09,3,28.42,28.42,0,0,1-9.13,1,22.52,22.52,0,0,1-23.19-21.17,13.84,13.84,0,0,1,0-9.12c0-3-2-3-3,0a37.31,37.31,0,0,0-4.06,15.2A25,25,0,0,0,429,567a44.07,44.07,0,0,0,16.22-10.13C447.24,553.83,446.23,552.81,443.19,553.83Z" style="fill:#da2222"/><path d="M832.25,457.89q-24.21-9.13-45-15.21c7.1-9.12,15.21-19.25,22.52-30.29C838,371,859.27,313.3,859.27,272A66.16,66.16,0,0,0,848,231.55a42,42,0,0,0-34.34-18.25,56.4,56.4,0,0,0-30.3,10.14A283.07,283.07,0,0,0,747,251.7c-14.19,11.26-32.32,22.52-56.3,39.41A42.83,42.83,0,0,0,660.41,274c2-14.19,4.05-29.28,5.07-46.51,5.06-72.74-21.29-162.72-59.69-177.8a45.73,45.73,0,0,0-18.13-4.06,50.34,50.34,0,0,0-42.45,29.28L536.54,93l-9.12,25.22c-8.11,19.26-19.26,40.43-30.29,64.64A624.81,624.81,0,0,0,469,257.78c-39.42-45-57.55-53.6-92.9-91-26.24-28.27-41.44-50.56-68.69-50.56-30.29,0-48.54,30.29-48.54,70.71a322.22,322.22,0,0,0,31.31,125.33c-33.78,7.1-45.05,25.23-45.05,44.48a36,36,0,0,0,2,12.17c-110.13,0-223.3,49.54-223.3,101.34,0,38.4,26.24,48.54,64.64,52.59,56.3,6.08,117.22,32.32,180.85,34.34C234,603.71,225.86,633,199.62,676.45c-14.19,23.2-25.22,35.36-25.22,52.59,0,27.25,18.24,43.47,45,43.47,40.43,0,103-30.29,145.49-62.61A404.3,404.3,0,0,0,347.7,820c0,73.76,21.28,134.34,64.64,134.34,27.25,0,33.78-16.1,58.55-65.65,33.78-68.69,45-60.58,72.75-128.37C571.45,800.89,599.83,823.41,621,859c19.25,32.32,37.38,58.56,66.66,58.56,32.32,0,51.57-39.42,51.57-87.95a372.88,372.88,0,0,0-45-173.86c23.2-3,41.44-11.27,47.52-38.4a516.05,516.05,0,0,0,64.64,5.06c58.66,0,95.94,6.08,121.27,6.08,28.27,0,48.54-14.18,48.54-44.48,0-44.48-74.77-101.34-143.46-126.34ZM777.63,284c15.2-16.22,26.24-33.78,33.78-33.78s9.13,7.09,9.13,16.21c0,72.75-121.28,194-156.64,194-6.08,0-8.11-4.05-3-10.13a66,66,0,0,0,16.21-29.28c0-4.05-1-6.08-4.05-6.08-9.12,0-26.24,14.19-34.34,22.52l-3-6.08c17.23-73.75,104-107.09,142.45-147.51ZM594.76,515.43a38.38,38.38,0,0,1,39.4,37.36c0,.12,0,.24,0,.36A35,35,0,0,1,598,586.94h-.16a38.51,38.51,0,0,1-40.43-36.37,35.48,35.48,0,0,1,36.53-34.38l.86,0Zm-40.43-61.6A32.65,32.65,0,0,1,585.8,420c1,0,1.92,0,2.88,0a37,37,0,0,1,37.38,36.37,32.43,32.43,0,0,1-32.48,32.38c-.62,0-1.24,0-1.86-.06a36.94,36.94,0,0,1-37.39-35.36Zm93,117.22c16.21,2,44.48,31.31,43.46,47.52a132.61,132.61,0,0,1-68.69-19.25A49.57,49.57,0,0,0,647.35,571.05ZM636.09,309.36s8.1,4.05,8.1,19.25c0,24.21-30.29,65.65-49.54,76.8a8.94,8.94,0,0,0-5.07-1,34.59,34.59,0,0,0-9.12,1,55.86,55.86,0,0,0-12.16,4c14.18-30.29,56.3-71.73,67.56-100ZM580.57,80.2c9.12,0,19.26,13.18,19.26,60.58,0,64.64-22.53,180.85-42.46,211.25a42.87,42.87,0,0,1-5.06-21.17c0-16.21,5.06-38.39,5.06-60.69,0-15.2-2-20.16-5.06-20.16-5.07,0-26.24,58.67-26.24,115.2a79.38,79.38,0,0,0-26.24-8.11,53.11,53.11,0,0,1-4.05-24.21c0-83.89,61.59-170.82,84.9-252.69ZM495.66,373c21.17,0,39.42,13.17,39.42,32.32a33.75,33.75,0,0,1-37.39,34.34,36.59,36.59,0,0,1-39.39-33.56,1.8,1.8,0,0,1,0-.22A34.68,34.68,0,0,1,493.75,372c.64,0,1.28,0,1.91.1Zm7.1,77.81a51.68,51.68,0,0,1,51.46,51.57,46.17,46.17,0,0,1-47.52,44.48,51,51,0,0,1-53.59-48.29c0-.08,0-.16,0-.24A49.2,49.2,0,0,1,502.76,450.79Zm-45,98A33.79,33.79,0,0,1,424.6,583.2a32.36,32.36,0,0,1-3.26-.1,38.4,38.4,0,0,1-39.41-37.35v0a36.5,36.5,0,0,1,38.4-34.35A38.63,38.63,0,0,1,457.72,548.76Zm-151-200.1c23.2,0,38.4,9.12,58.56,16.21-37.39-46.5-68.69-114.18-68.69-178.82,0-21.17,5.06-28.26,10.13-31.3,41.44,91,132.43,137.38,143.46,225.21a47.82,47.82,0,0,0-7.09,21.17,115.93,115.93,0,0,1-55.63-31.3c-4.05-4.06-7.09-3-7.09,2a50.77,50.77,0,0,0,21.17,33.79,47.41,47.41,0,0,0-26.24,11.26c-29.28-13.18-56.31-44.48-91-60.7a28.83,28.83,0,0,1,22.52-7.09ZM131.94,474.33a256.15,256.15,0,0,0-67.56,6.08,9.57,9.57,0,0,1-4-9.12c0-33.79,110.13-64.64,205.17-64.64,55.51,0,69.7,15.2,69.7,15.2-15.2,0-67.56,0-67.56,9.12,0,18.24,81.86,17.23,81.86,36.37,0,12.17-30.29,25.23-70.72,25.23-43.46,0-102-18.13-146.38-18.13ZM222,732a11.93,11.93,0,0,1-10.13-5.07c53.6-66.66,71.73-166.77,138.39-166.77,11.26,0,15.2,6.08,15.2,14.19C365.49,629.84,258.4,732,222,732ZM409.86,420.5a37.5,37.5,0,0,1,38.39,36.59c0,.26,0,.53,0,.8a34.46,34.46,0,0,1-35.08,33.82c-.43,0-.86,0-1.29,0a37.61,37.61,0,0,1-39.39-35.75l0-.62A35.48,35.48,0,0,1,409,420.91l.86,0Zm-31,235.35c0-14.19,17.23-25.23,22.52-58.56a52.91,52.91,0,0,0,25.23,3c0,26.24-19.26,64.64-42.46,71.73A20.73,20.73,0,0,1,378.89,655.85Zm32.32,259.67c-8.11,0-17.23-23.2-17.23-76.8,0-120.26,43.47-156.63,63.62-232.42a52.18,52.18,0,0,0,18.25,29.28c0,4,1,9.12,1,15.2,0,16.22-5.07,31.31-5.07,40.43a5.4,5.4,0,0,0,5.07,5.06c7.09,0,11.26-16.21,18.13-16.21,3,0,4.05,4.05,4.05,11.26C499,770.14,419.2,852,411.1,915.63Zm59.57-323.41a35.47,35.47,0,0,1,36.53-34.38l.85,0a38.4,38.4,0,0,1,39.63,37.13c0,.12,0,.24,0,.37a35,35,0,0,1-36.21,33.78h-.16A38.52,38.52,0,0,1,471,592.68Zm227,254.83c0,21.17-6.08,39.41-15.2,39.41a269.85,269.85,0,0,0-29.28-49.54C606.81,768.12,542.17,717.56,531,643.24a50.12,50.12,0,0,0,28-26.69c30.29,0,31.31,28.26,41.44,28.26,5.07,0,5.07-13.17,10.14-13.17,23.19,0,86.93,141.43,86.93,215.3Zm235.46-253.7a926.3,926.3,0,0,0-141.43-8.11c-67.56,0-117.22-18.24-117.22-31.3,0-9.13,34.34-6.08,34.34-13.18,0-10.13-29.28-13.17-29.28-26.24,0-6.08,7.1-15.2,40.43-15.2,105.06,0,217.22,49.55,217.22,83.89C937.31,591.21,933.25,593.24,933.25,593.24Z" style="fill:#da2222"/><path d="M604.1,571.05a39.8,39.8,0,0,0,15.21-10.13c3-3,1-4-2-3a16.12,16.12,0,0,1-7.09,4,24.77,24.77,0,0,1-31.52-15.29,24.18,24.18,0,0,1-1.14-4.75v-9.12c1-3-1-4.06-3-1a41,41,0,0,0-4.17,19A25.8,25.8,0,0,0,600,572a25.14,25.14,0,0,0,4.1-1Z" style="fill:#da2222"/><path d="M615.37,463.06c3-2,1-3-2-2a51.06,51.06,0,0,1-7.1,3A24.77,24.77,0,0,1,575,448.33a23.72,23.72,0,0,1-1-4.41V434.8c1-3-1-3-3-1A44,44,0,0,0,566.83,453a24,24,0,0,0,23.87,21.29,28.15,28.15,0,0,0,9.13-1A25.57,25.57,0,0,0,615.37,463.06Z" style="fill:#da2222"/><path d="M532,601.35a13.44,13.44,0,0,1-8.11,3,25,25,0,0,1-8.11,1,24,24,0,0,1-24.32-21.28v-8.45c1-3-1-4-3-1a31.1,31.1,0,0,0-3,13.17A24.43,24.43,0,0,0,508,614c.55,0,1.1.07,1.65.07a22.51,22.51,0,0,0,8.11-1A37,37,0,0,0,534,603.94c2-3,1-4.06-2-3Z" style="fill:#da2222"/><path d="M506.81,426.47A44.18,44.18,0,0,0,523,416.33c2-3,1-4.05-2-3a11.2,11.2,0,0,1-7.09,3,28.4,28.4,0,0,1-9.12,1,22.53,22.53,0,0,1-23.2-21.17,14,14,0,0,1,0-9.12c0-3-2-3-3,0a37.63,37.63,0,0,0-4.06,15.2,25,25,0,0,0,32.32,24.21Z" style="fill:#da2222"/><path d="M506.81,529.62a28.06,28.06,0,0,0,9.12-1,37.8,37.8,0,0,0,20.61-12.16c3-3,1-5.07-3-3a31.91,31.91,0,0,1-9.12,3,38,38,0,0,1-10.14,1,32.09,32.09,0,0,1-33.78-28.26,25,25,0,0,1,0-12.16c0-4.06-3-5.07-5.06-1a71.73,71.73,0,0,0-4.06,20.27,33.78,33.78,0,0,0,33.75,33.82l1.61,0Z" style="fill:#da2222"/><path d="M418.87,475a27.75,27.75,0,0,0,16.21-10.13c2-2,1-3-2-2a49.19,49.19,0,0,0-7.1,3,25.79,25.79,0,0,1-32.74-16.05,25.25,25.25,0,0,1-1-4.11,27.84,27.84,0,0,1,1-9.12c0-3-2-3-3-1a47.6,47.6,0,0,0-3.6,16.21A24.1,24.1,0,0,0,418.87,475Z" style="fill:#da2222"/><path d="M443.19,553.83a11.33,11.33,0,0,1-7.09,3,28.42,28.42,0,0,1-9.13,1,22.52,22.52,0,0,1-23.19-21.17,13.84,13.84,0,0,1,0-9.12c0-3-2-3-3,0a37.31,37.31,0,0,0-4.06,15.2A25,25,0,0,0,429,567a44.07,44.07,0,0,0,16.22-10.13C447.24,553.83,446.23,552.81,443.19,553.83Z" style="fill:#da2222"/><path d="M832.25,457.89q-24.21-9.13-45-15.21c7.1-9.12,15.21-19.25,22.52-30.29C838,371,859.27,313.3,859.27,272A66.16,66.16,0,0,0,848,231.55a42,42,0,0,0-34.34-18.25,56.4,56.4,0,0,0-30.3,10.14A283.07,283.07,0,0,0,747,251.7c-14.19,11.26-32.32,22.52-56.3,39.41A42.83,42.83,0,0,0,660.41,274c2-14.19,4.05-29.28,5.07-46.51,5.06-72.74-21.29-162.72-59.69-177.8a45.73,45.73,0,0,0-18.13-4.06,50.34,50.34,0,0,0-42.45,29.28L536.54,93l-9.12,25.22c-8.11,19.26-19.26,40.43-30.29,64.64A624.81,624.81,0,0,0,469,257.78c-39.42-45-57.55-53.6-92.9-91-26.24-28.27-41.44-50.56-68.69-50.56-30.29,0-48.54,30.29-48.54,70.71a322.22,322.22,0,0,0,31.31,125.33c-33.78,7.1-45.05,25.23-45.05,44.48a36,36,0,0,0,2,12.17c-110.13,0-223.3,49.54-223.3,101.34,0,38.4,26.24,48.54,64.64,52.59,56.3,6.08,117.22,32.32,180.85,34.34C234,603.71,225.86,633,199.62,676.45c-14.19,23.2-25.22,35.36-25.22,52.59,0,27.25,18.24,43.47,45,43.47,40.43,0,103-30.29,145.49-62.61A404.3,404.3,0,0,0,347.7,820c0,73.76,21.28,134.34,64.64,134.34,27.25,0,33.78-16.1,58.55-65.65,33.78-68.69,45-60.58,72.75-128.37C571.45,800.89,599.83,823.41,621,859c19.25,32.32,37.38,58.56,66.66,58.56,32.32,0,51.57-39.42,51.57-87.95a372.88,372.88,0,0,0-45-173.86c23.2-3,41.44-11.27,47.52-38.4a516.05,516.05,0,0,0,64.64,5.06c58.66,0,95.94,6.08,121.27,6.08,28.27,0,48.54-14.18,48.54-44.48,0-44.48-74.77-101.34-143.46-126.34ZM777.63,284c15.2-16.22,26.24-33.78,33.78-33.78s9.13,7.09,9.13,16.21c0,72.75-121.28,194-156.64,194-6.08,0-8.11-4.05-3-10.13a66,66,0,0,0,16.21-29.28c0-4.05-1-6.08-4.05-6.08-9.12,0-26.24,14.19-34.34,22.52l-3-6.08c17.23-73.75,104-107.09,142.45-147.51ZM594.76,515.43a38.38,38.38,0,0,1,39.4,37.36c0,.12,0,.24,0,.36A35,35,0,0,1,598,586.94h-.16a38.51,38.51,0,0,1-40.43-36.37,35.48,35.48,0,0,1,36.53-34.38l.86,0Zm-40.43-61.6A32.65,32.65,0,0,1,585.8,420c1,0,1.92,0,2.88,0a37,37,0,0,1,37.38,36.37,32.43,32.43,0,0,1-32.48,32.38c-.62,0-1.24,0-1.86-.06a36.94,36.94,0,0,1-37.39-35.36Zm93,117.22c16.21,2,44.48,31.31,43.46,47.52a132.61,132.61,0,0,1-68.69-19.25A49.57,49.57,0,0,0,647.35,571.05ZM636.09,309.36s8.1,4.05,8.1,19.25c0,24.21-30.29,65.65-49.54,76.8a8.94,8.94,0,0,0-5.07-1,34.59,34.59,0,0,0-9.12,1,55.86,55.86,0,0,0-12.16,4c14.18-30.29,56.3-71.73,67.56-100ZM580.57,80.2c9.12,0,19.26,13.18,19.26,60.58,0,64.64-22.53,180.85-42.46,211.25a42.87,42.87,0,0,1-5.06-21.17c0-16.21,5.06-38.39,5.06-60.69,0-15.2-2-20.16-5.06-20.16-5.07,0-26.24,58.67-26.24,115.2a79.38,79.38,0,0,0-26.24-8.11,53.11,53.11,0,0,1-4.05-24.21c0-83.89,61.59-170.82,84.9-252.69ZM495.66,373c21.17,0,39.42,13.17,39.42,32.32a33.75,33.75,0,0,1-37.39,34.34,36.59,36.59,0,0,1-39.39-33.56,1.8,1.8,0,0,1,0-.22A34.68,34.68,0,0,1,493.75,372c.64,0,1.28,0,1.91.1Zm7.1,77.81a51.68,51.68,0,0,1,51.46,51.57,46.17,46.17,0,0,1-47.52,44.48,51,51,0,0,1-53.59-48.29c0-.08,0-.16,0-.24A49.2,49.2,0,0,1,502.76,450.79Zm-45,98A33.79,33.79,0,0,1,424.6,583.2a32.36,32.36,0,0,1-3.26-.1,38.4,38.4,0,0,1-39.41-37.35v0a36.5,36.5,0,0,1,38.4-34.35A38.63,38.63,0,0,1,457.72,548.76Zm-151-200.1c23.2,0,38.4,9.12,58.56,16.21-37.39-46.5-68.69-114.18-68.69-178.82,0-21.17,5.06-28.26,10.13-31.3,41.44,91,132.43,137.38,143.46,225.21a47.82,47.82,0,0,0-7.09,21.17,115.93,115.93,0,0,1-55.63-31.3c-4.05-4.06-7.09-3-7.09,2a50.77,50.77,0,0,0,21.17,33.79,47.41,47.41,0,0,0-26.24,11.26c-29.28-13.18-56.31-44.48-91-60.7a28.83,28.83,0,0,1,22.52-7.09ZM131.94,474.33a256.15,256.15,0,0,0-67.56,6.08,9.57,9.57,0,0,1-4-9.12c0-33.79,110.13-64.64,205.17-64.64,55.51,0,69.7,15.2,69.7,15.2-15.2,0-67.56,0-67.56,9.12,0,18.24,81.86,17.23,81.86,36.37,0,12.17-30.29,25.23-70.72,25.23-43.46,0-102-18.13-146.38-18.13ZM222,732a11.93,11.93,0,0,1-10.13-5.07c53.6-66.66,71.73-166.77,138.39-166.77,11.26,0,15.2,6.08,15.2,14.19C365.49,629.84,258.4,732,222,732ZM409.86,420.5a37.5,37.5,0,0,1,38.39,36.59c0,.26,0,.53,0,.8a34.46,34.46,0,0,1-35.08,33.82c-.43,0-.86,0-1.29,0a37.61,37.61,0,0,1-39.39-35.75l0-.62A35.48,35.48,0,0,1,409,420.91l.86,0Zm-31,235.35c0-14.19,17.23-25.23,22.52-58.56a52.91,52.91,0,0,0,25.23,3c0,26.24-19.26,64.64-42.46,71.73A20.73,20.73,0,0,1,378.89,655.85Zm32.32,259.67c-8.11,0-17.23-23.2-17.23-76.8,0-120.26,43.47-156.63,63.62-232.42a52.18,52.18,0,0,0,18.25,29.28c0,4,1,9.12,1,15.2,0,16.22-5.07,31.31-5.07,40.43a5.4,5.4,0,0,0,5.07,5.06c7.09,0,11.26-16.21,18.13-16.21,3,0,4.05,4.05,4.05,11.26C499,770.14,419.2,852,411.1,915.63Zm59.57-323.41a35.47,35.47,0,0,1,36.53-34.38l.85,0a38.4,38.4,0,0,1,39.63,37.13c0,.12,0,.24,0,.37a35,35,0,0,1-36.21,33.78h-.16A38.52,38.52,0,0,1,471,592.68Zm227,254.83c0,21.17-6.08,39.41-15.2,39.41a269.85,269.85,0,0,0-29.28-49.54C606.81,768.12,542.17,717.56,531,643.24a50.12,50.12,0,0,0,28-26.69c30.29,0,31.31,28.26,41.44,28.26,5.07,0,5.07-13.17,10.14-13.17,23.19,0,86.93,141.43,86.93,215.3Zm235.46-253.7a926.3,926.3,0,0,0-141.43-8.11c-67.56,0-117.22-18.24-117.22-31.3,0-9.13,34.34-6.08,34.34-13.18,0-10.13-29.28-13.17-29.28-26.24,0-6.08,7.1-15.2,40.43-15.2,105.06,0,217.22,49.55,217.22,83.89C937.31,591.21,933.25,593.24,933.25,593.24Z" style="fill:#da2222"/><path d="M604.1,571.05a39.8,39.8,0,0,0,15.21-10.13c3-3,1-4-2-3a16.12,16.12,0,0,1-7.09,4,24.77,24.77,0,0,1-31.52-15.29,24.18,24.18,0,0,1-1.14-4.75v-9.12c1-3-1-4.06-3-1a41,41,0,0,0-4.17,19A25.8,25.8,0,0,0,600,572a25.14,25.14,0,0,0,4.1-1Z" style="fill:#da2222"/><path d="M615.37,463.06c3-2,1-3-2-2a51.06,51.06,0,0,1-7.1,3A24.77,24.77,0,0,1,575,448.33a23.72,23.72,0,0,1-1-4.41V434.8c1-3-1-3-3-1A44,44,0,0,0,566.83,453a24,24,0,0,0,23.87,21.29,28.15,28.15,0,0,0,9.13-1A25.57,25.57,0,0,0,615.37,463.06Z" style="fill:#da2222"/><path d="M532,601.35a13.44,13.44,0,0,1-8.11,3,25,25,0,0,1-8.11,1,24,24,0,0,1-24.32-21.28v-8.45c1-3-1-4-3-1a31.1,31.1,0,0,0-3,13.17A24.43,24.43,0,0,0,508,614c.55,0,1.1.07,1.65.07a22.51,22.51,0,0,0,8.11-1A37,37,0,0,0,534,603.94c2-3,1-4.06-2-3Z" style="fill:#da2222"/><path d="M506.81,426.47A44.18,44.18,0,0,0,523,416.33c2-3,1-4.05-2-3a11.2,11.2,0,0,1-7.09,3,28.4,28.4,0,0,1-9.12,1,22.53,22.53,0,0,1-23.2-21.17,14,14,0,0,1,0-9.12c0-3-2-3-3,0a37.63,37.63,0,0,0-4.06,15.2,25,25,0,0,0,32.32,24.21Z" style="fill:#da2222"/><path d="M506.81,529.62a28.06,28.06,0,0,0,9.12-1,37.8,37.8,0,0,0,20.61-12.16c3-3,1-5.07-3-3a31.91,31.91,0,0,1-9.12,3,38,38,0,0,1-10.14,1,32.09,32.09,0,0,1-33.78-28.26,25,25,0,0,1,0-12.16c0-4.06-3-5.07-5.06-1a71.73,71.73,0,0,0-4.06,20.27,33.78,33.78,0,0,0,33.75,33.82l1.61,0Z" style="fill:#da2222"/></svg>