<svg id="a" xmlns="http://www.w3.org/2000/svg" viewBox="0 0 1576 1280"><path d="M1576 152c-44.67 65.33-98.67 121-162 167 .67 9.33 1 23.33 1 42 0 86.67-12.67 173.17-38 259.5-25.33 86.33-63.83 169.17-115.5 248.5s-113.17 149.5-184.5 210.5-157.33 109.67-258 146c-100.67 36.33-208.33 54.5-323 54.5-180.67 0-346-48.33-496-145 23.33 2.67 49.33 4 78 4 150 0 283.67-46 401-138-70-1.33-132.67-22.83-188-64.5S197.67 841.67 177 777c22 3.33 42.33 5 61 5 28.67 0 57-3.67 85-11-74.67-15.33-136.5-52.5-185.5-111.5S64 532 64 454v-4c45.33 25.33 94 39 146 41-44-29.33-79-67.67-105-115s-39-98.67-39-154c0-58.67 14.67-113 44-163 80.67 99.33 178.83 178.83 294.5 238.5C520.17 357.17 644 390.33 776 397c-5.33-25.33-8-50-8-74 0-89.33 31.5-165.5 94.5-228.5S1001.67 0 1091 0s172 34 236 102c72.67-14 141-40 205-78-24.67 76.67-72 136-142 178 62-6.67 124-23.33 186-50z"/></svg>