<?xml version="1.0" encoding="UTF-8"?><svg id="Layer_1" xmlns="http://www.w3.org/2000/svg" viewBox="0 0 3295.39 791.09"><defs><style>.cls-1{fill:#fff;}.cls-2{stroke:#fff;stroke-miterlimit:10;stroke-width:2.77px;}</style></defs><polygon class="cls-1" points="463.1 278.98 522.06 204.67 554.85 235.39 503.37 308.05 447.73 318.43 463.1 278.98"/><polygon class="cls-1" points="529.94 431.35 590.14 483.66 550.29 503.59 490.09 472.86 514.17 452.51 529.94 431.35"/><polygon class="cls-1" points="470.17 473.69 546.13 516.87 593.88 681.7 561.49 727.77 401.66 505.66 431.13 495.29 445.25 482.83 460.61 469.95 470.17 473.69"/><polygon class="cls-1" points="368.02 453.77 422.41 578.31 332.33 752.68 295.38 700.78 306.99 562.13 368.02 453.77"/><polygon class="cls-1" points="340.21 461.65 310.32 460 281.26 536.38 308.66 540.53 335.23 511.06 350.6 472.45 355.15 462.07 340.21 461.65"/><polygon class="cls-1" points="140.1 577.9 260.92 404.37 307.42 449.2 218.57 584.95 158.79 596.16 140.1 577.9"/><path class="cls-1" d="M218.57,248.68l24.91-22.01-29.48-104.21,19.93-38.53,29.47,14.52s32.81,51.49,38.61,52.32,36.54,48.99,37.78,49.34,41.52,19.93,41.52,19.93l35.25-105.88s36.99-65.6,36.99-66.9,18.33-34.03,18.33-34.03l29.07,24.91,16.18,117.02-13.28,44.42-11.7,29.55-35.7,53.14-44-10.35-31.13-.42-10.8,7.05-7.47,14.94-4.58,17.41-37.36,.41-27.41,12.46-91.75-57.3,16.61-17.81Z"/><polygon class="cls-1" points="42.79 326.31 186 290.08 256.75 301 279.18 321.13 287.23 369.45 236.04 398.21 88.79 386.13 19.21 372.32 22.66 335.51 42.79 326.31"/><polygon class="cls-1" points="601.84 203.23 668.56 161.23 689.27 206.11 663.96 284.9 535.69 378.08 505.79 312.51 602.42 200.93 601.84 203.23"/><polygon class="cls-1" points="634.62 363.12 784.74 438.46 783.58 471.25 658.21 474.13 556.4 450.54 535.12 411.43 555.25 373.47 634.62 363.12"/><path class="cls-2" d="M335.25,364.23c5.44-1.14,10.3-4.18,13.7-8.57,1.72-1.71,.86-2.57-1.72-1.71-2.06,.7-4.06,1.56-5.99,2.57-11.38,3.9-23.77-2.16-27.67-13.54v-.02c-.4-1.13-.69-2.29-.88-3.47-.14-2.6,.14-5.21,.85-7.71,0-2.57-1.71-2.57-2.57-.86-1.8,4.36-2.83,8.99-3.05,13.7-.27,11.24,8.63,20.57,19.87,20.84,2.54,.06,5.07-.36,7.45-1.22Z"/><path class="cls-2" d="M355.8,430.86c-1.63,1.54-3.75,2.45-5.99,2.57-2.51,.71-5.11,1-7.71,.86-10.3,.33-19-7.6-19.61-17.89-.87-2.5-.87-5.22,0-7.71,0-2.57-1.71-2.57-2.57,0-2.04,3.99-3.21,8.37-3.43,12.84-.15,11.68,9.2,21.27,20.88,21.42,2.18,.03,4.35-.28,6.43-.92,5.13-1.83,9.8-4.77,13.68-8.6,1.75-2.57,.89-3.43-1.68-2.57Z"/><path class="cls-2" d="M684.67,349.77c-13.65-5.15-26.34-9.44-38.07-12.86,5.99-7.7,12.84-16.27,19.03-25.6,23.9-35.02,41.89-83.76,41.89-118.69,.62-12.12-2.72-24.12-9.52-34.17-6.57-9.58-17.41-15.33-29.03-15.41-9.19,.32-18.09,3.3-25.63,8.57-10.88,7.14-21.16,15.16-30.73,23.97-12,9.52-27.32,19.03-47.6,33.31-6.1-8.23-15.4-13.49-25.6-14.46,1.71-12,3.43-24.76,4.23-39.32,4.23-61.48-17.99-137.54-50.46-150.29-4.82-2.19-10.03-3.35-15.32-3.43-15.55,1.04-29.28,10.5-35.8,24.66l-7.33,15.32-7.71,21.32c-6.85,16.28-16.27,34.17-25.6,54.64-9.28,20.57-17.23,41.7-23.8,63.29-33.31-38.07-48.64-45.3-78.53-76.91-22.18-23.88-35.02-42.73-58.06-42.73-25.6,0-41.03,25.6-41.03,59.78,1.57,36.74,10.58,72.77,26.46,105.93-28.56,6.01-38.07,21.33-38.07,37.6-.03,3.5,.55,6.98,1.72,10.28C97.08,274.57,1.39,316.45,1.39,360.24c0,32.43,22.18,41.01,54.63,44.44,47.6,5.15,99.08,27.32,152.87,29.04-29.89,39.31-36.74,64.05-58.92,100.8-12,19.6-21.33,29.87-21.33,44.44,0,23.04,15.42,36.75,38.07,36.75,34.17,0,87.1-25.62,122.98-52.92-9.12,30.2-14.02,61.51-14.56,93.05,0,62.34,17.99,113.55,54.63,113.55,23.04,0,28.56-13.6,49.5-55.49,28.55-58.06,38.07-51.2,61.48-108.56,23.52,34.27,47.5,53.31,65.4,83.39,16.27,27.31,31.59,49.48,56.39,49.48,27.31,0,43.59-33.31,43.59-74.33-.53-51.36-13.6-101.81-38.07-146.97,19.61-2.57,35.03-9.52,40.17-32.43,18.11,2.55,36.36,3.96,54.64,4.23,49.58,0,81.09,5.13,102.51,5.13,23.97,0,41.03-11.98,41.03-37.59,0-37.6-63.2-85.67-121.24-106.81l-.48,.31Zm-46.17-146.96c12.86-13.72,22.18-28.56,28.56-28.56s7.7,5.99,7.7,13.7c0,61.5-102.51,164-132.4,164-5.15,0-6.85-3.43-2.57-8.57,6.6-6.94,11.3-15.46,13.65-24.74,0-3.43-.86-5.13-3.43-5.13-7.71,0-22.18,11.98-29.03,19.03l-2.58-5.15c14.56-62.34,87.96-90.51,120.41-124.68l-.32,.1Zm-154.57,195.6c17.9-.49,32.81,13.63,33.3,31.53v.36c-.57,16.33-14.27,29.11-30.61,28.55h-.14c-17.92,.92-33.2-12.83-34.17-30.75,.5-16.55,14.32-29.56,30.86-29.06h.75v-.63Zm-34.16-52.06c-.55-15.23,11.36-28.03,26.59-28.58h2.44c17.18-.15,31.28,13.57,31.61,30.75-.02,15.14-12.3,27.39-27.44,27.38h-1.58c-16.88,.21-30.87-13.02-31.59-29.89l-.03,.34Zm78.63,99.08c13.7,1.72,37.59,26.46,36.74,40.17-20.48-.01-40.56-5.64-58.07-16.27,9.99-4.83,17.66-13.42,21.33-23.9Zm-9.53-221.2s6.87,3.43,6.87,16.27c0,20.47-25.62,55.49-41.89,64.85-1.3-.69-2.77-.99-4.23-.86-2.6-.06-5.19,.23-7.71,.86-3.55,.74-6.99,1.89-10.28,3.43,12-25.6,47.6-60.62,57.11-84.59l.13,.04ZM471.93,30.51c7.71,0,16.27,11.14,16.27,51.22,0,54.63-19.03,152.87-35.88,178.55-2.92-5.5-4.38-11.66-4.23-17.89,0-13.7,4.23-32.43,4.23-51.3,0-12.84-1.71-17.03-4.23-17.03-4.23,0-22.18,49.58-22.18,97.36-6.94-3.55-14.44-5.87-22.18-6.85-2.72-6.46-3.89-13.46-3.43-20.46,0-70.91,52.06-144.39,71.77-213.6h-.16Zm-71.77,247.48c17.9,0,33.31,11.14,33.31,27.32,.35,15.76-12.14,28.83-27.9,29.18h0c-1.23,.03-2.47-.03-3.69-.16-17.02,1.37-31.93-11.32-33.3-28.34v-.21c.37-16.19,13.78-29.01,29.97-28.65,.55,0,1.09,0,1.62,.08v.76Zm5.99,65.78c24.01,.12,43.43,19.58,43.49,43.59-.78,21.44-18.72,38.23-40.17,37.6-23.79,1.23-44.07-17.06-45.3-40.84v-.24c.8-22.54,19.42-40.33,41.97-40.11Zm-38.07,82.8c.31,15.76-12.21,28.8-27.97,29.11h-.01c-.92,0-1.85,0-2.82-.07-17.9,.5-32.82-13.61-33.31-31.51v-.07h0c.98-16.95,15.47-29.93,32.43-29.03,17.22,.5,31.08,14.29,31.68,31.51v.06Zm-127.62-169.14c19.61,0,32.43,7.71,49.5,13.7-31.59-39.31-58.06-96.52-58.06-151.15,0-17.9,4.23-23.97,8.56-26.46,35.03,76.91,111.94,116.13,121.24,190.33-3.38,5.41-5.44,11.54-6.01,17.89-17.84-4.24-34.13-13.41-47.02-26.46-3.43-3.43-5.99-2.57-5.99,1.72,1.82,11.56,8.28,21.87,17.89,28.55-8.2,.85-15.94,4.19-22.18,9.59-24.74-11.14-47.6-37.6-76.91-51.3,5.2-4.63,12.12-6.81,19.03-5.99l-.07-.41Zm-147.75,106.23c-19.18-.83-38.39,.9-57.11,5.13-2.5-1.72-3.82-4.7-3.43-7.71,0-28.55,93.05-54.63,173.41-54.63,46.93,0,58.92,12.84,58.92,12.84-12.84,0-57.1,0-57.1,7.71,0,15.42,69.19,14.56,69.19,30.75,0,10.28-25.6,21.32-59.78,21.32-36.74,0-86.24-15.32-123.74-15.32l-.37-.08Zm76.13,217.78c-3.38,.12-6.6-1.47-8.56-4.23,45.3-56.39,60.62-140.98,117.02-140.98,9.52,0,12.86,5.15,12.86,12-.03,46.88-90.58,133.21-121.3,133.21h-.01Zm158.79-263.28c17.49-.4,32,13.44,32.43,30.93v.68c-.29,16.07-13.54,28.86-29.61,28.59h-1.1c-17.53,.85-32.43-12.67-33.29-30.19v-.54c.51-16.55,14.32-29.56,30.87-29.07h.73l-.04-.39Zm-26.18,198.94c0-12,14.56-21.32,19.03-49.5,6.79,2.59,14.11,3.49,21.33,2.62,0,22.18-16.28,54.63-35.89,60.62-3.4-3.72-5.03-8.73-4.47-13.75Zm27.32,219.5c-6.85,0-14.56-19.61-14.56-64.92,0-101.65,36.74-132.4,53.77-196.46,2.18,9.76,7.62,18.49,15.42,24.76,0,3.43,.86,7.71,.86,12.84,0,13.7-4.23,26.46-4.23,34.17,.17,2.26,1.97,4.06,4.23,4.23,5.99,0,9.52-13.7,15.32-13.7,2.57,0,3.43,3.43,3.43,9.52,0,66.63-67.49,135.82-74.34,189.61l.1-.04Zm50.34-273.42c.51-16.55,14.32-29.56,30.88-29.07h.73c17.9-.6,32.89,13.42,33.49,31.32v.39c-.57,16.33-14.27,29.11-30.6,28.55h-.13c-17.92,.92-33.2-12.83-34.17-30.75l-.2-.44Zm191.89,215.45c0,17.9-5.13,33.31-12.84,33.31-6.74-14.8-15.03-28.84-24.76-41.87-39.31-58.07-93.94-100.8-103.37-163.62,10.61-4.04,19.15-12.16,23.7-22.56,25.62,0,26.46,23.88,35.03,23.88,4.23,0,4.23-11.14,8.57-11.14,19.6,0,73.48,119.55,73.48,181.99h.18Zm199.04-214.45c-39.62-5.33-79.59-7.62-119.55-6.85-57.11,0-99.1-15.42-99.1-26.46,0-7.71,29.04-5.13,29.04-11.14,0-8.56-24.76-11.14-24.76-22.18,0-5.13,6.01-12.84,34.17-12.84,88.82,0,183.62,41.87,183.62,70.91,0,6.85-3.43,8.56-3.43,8.56Z"/><path class="cls-2" d="M491.82,445.42c4.89-1.82,9.29-4.75,12.84-8.57,2.58-2.57,.86-3.43-1.71-2.57-1.67,1.64-3.73,2.81-5.99,3.43-10.92,3.79-22.85-1.99-26.64-12.92h0c-.45-1.32-.77-2.66-.96-4.03v-7.7c.85-2.58-.86-3.43-2.58-.86-2.46,5-3.69,10.52-3.57,16.09,1.95,11.88,13.16,19.93,25.04,17.98l.1-.02c1.18-.2,2.34-.49,3.47-.89v.06Z"/><path class="cls-2" d="M501.28,354.14c2.57-1.71,.86-2.57-1.71-1.71-1.93,1-3.94,1.86-6.01,2.57-10.97,3.63-22.81-2.31-26.44-13.28v-.03c-.41-1.21-.7-2.46-.87-3.72v-7.71c.85-2.57-.86-2.57-2.58-.86-2.35,5.1-3.53,10.67-3.43,16.28,1.17,10.26,9.86,18.01,20.19,17.99,2.6,.14,5.2-.15,7.7-.86,5.31-1.14,10.01-4.23,13.14-8.67Z"/><path class="cls-2" d="M430.9,471.03c-1.94,1.59-4.35,2.5-6.85,2.58-2.22,.65-4.54,.94-6.85,.85-10.47,.22-19.38-7.58-20.56-17.99v-7.13c.85-2.57-.86-3.43-2.58-.86-1.66,3.48-2.54,7.28-2.57,11.14-.85,11.37,7.68,21.27,19.05,22.12h1.44c2.32,.14,4.64-.15,6.85-.86,5.15-1.35,9.87-4,13.7-7.7,1.71-2.58,.86-3.44-1.72-2.58l.08,.44Z"/><path class="cls-2" d="M409.64,323.21c5.14-1.82,9.81-4.74,13.7-8.56,1.71-2.58,.86-3.44-1.72-2.58-1.63,1.54-3.75,2.45-5.99,2.58-2.51,.7-5.11,.98-7.71,.85-10.3,.33-19-7.6-19.61-17.89-.86-2.5-.86-5.21,0-7.71,0-2.57-1.71-2.57-2.57,0-2.03,4-3.2,8.38-3.43,12.86-.13,11.66,9.2,21.23,20.87,21.39,2.19,.03,4.37-.28,6.46-.93Z"/><path class="cls-2" d="M409.64,410.4c2.6,.13,5.2-.16,7.71-.86,6.76-1.46,12.87-5.06,17.41-10.28,2.57-2.58,.86-4.23-2.57-2.58-2.43,1.24-5.03,2.11-7.71,2.58-2.81,.66-5.69,.95-8.57,.85-14.34,.85-26.86-9.62-28.55-23.88-.85-3.37-.85-6.9,0-10.28,0-3.43-2.57-4.23-4.23-.86-1.96,5.51-3.12,11.28-3.43,17.13-.02,15.77,12.75,28.57,28.52,28.59h1.41v-.41Z"/><g><path d="M963.1,369.21l-39.55,38.09c-3.91-12.7-5.86-25.39-5.86-38.09,0-40.04,15.17-73.44,45.53-100.22,30.36-26.77,68.32-40.16,113.9-40.16,6.35,0,12.29,.24,17.83,.73,6.18,.49,10.09,.73,11.72,.73h2.69c-.65,5.7-.98,9.77-.98,12.21,0,33.53,21.68,76.17,65.04,127.93l18.27,21.48,16.08,19.29c17.05,20.35,30.53,39.06,40.44,56.15l16.17-132.57c10.28-80.89,29.12-137.61,56.53-170.17,31.32-37.11,65.91-55.66,103.76-55.66,14.19,0,28.22,2.61,42.09,7.81l-36.19,35.89c-14.84-8.62-27.96-12.94-39.37-12.94-25.27,0-44.47,11.6-57.59,34.79-13.12,23.19-23.35,63.6-30.69,121.22l-25.61,206.79-30.98,63.48c-7.49-29.95-15.47-52.73-23.94-68.36s-25.33-38.57-50.57-68.85l-18.81-22.71c-28.89-34.99-49.34-66.22-61.35-93.67l-12.13,109.54-2.93,26.37c-2.6,21.81-6.79,37.8-12.57,47.97-5.78,10.17-17.29,21.69-34.54,34.55l53.94,4.88-29.04,28.32-106.2-5.37,31.49-30.27,27.1,2.44c12.37-8.95,20.91-18.63,25.63-29.05,4.72-10.41,8.46-27.67,11.23-51.76l2.2-21.24,18.71-168.95h-11.46c-67.65,0-101.47,22.38-101.47,67.14,0,14,3.82,28.08,11.47,42.24Z"/><path d="M1473.62,487.62c4.37,2.61,6.56,5.13,6.56,7.57,0,5.86-7.08,17.42-21.24,34.67-19.04,23.44-36.71,35.16-52.98,35.16-11.88,0-17.82-7.88-17.82-23.66,0-6.66,2.44-27.15,7.32-61.45l9.52-66.33,2.44-16.83,1.95-13.41c.81-5.69,1.22-10.49,1.22-14.39,0-8.12-2.27-12.19-6.81-12.19-12.63,0-26.25,13.92-40.82,41.75-3.08-2.77-4.62-5.53-4.62-8.3,0-9.93,9.16-23.27,27.47-40.04,18.31-16.76,32.92-25.15,43.82-25.15,12.21,0,18.31,8.45,18.31,25.36,0,3.25-.65,9.92-1.95,20l-2.2,16.34c-.16,1.3-1.06,7.88-2.69,19.75l-10.01,69.74-2.44,15.61c-2.12,15.45-3.17,25.77-3.17,30.97,0,6.99,2.03,10.49,6.08,10.49,13.61,0,27.63-15.22,42.05-45.65Zm-48.86-194.09l20.51-50.54c18.23-7.48,33.2-17.82,44.92-31.01,1.62,2.28,2.44,4.64,2.44,7.08,0,21.81-22.62,46.63-67.87,74.46Z"/><path d="M1673.3,331.37l-27.83,33.45c-13.02-5.37-25.47-8.06-37.35-8.06-21.32,0-38.13,9.03-50.42,27.1-12.29,18.07-18.43,42.81-18.43,74.22,0,22.14,4.43,39.96,13.31,53.47,8.87,13.51,20.47,20.26,34.79,20.26,24.25,0,43.29-15.87,57.13-47.61,3.58,3.91,5.37,7.57,5.37,10.99,0,13.51-10.54,28.53-31.62,45.04-21.08,16.52-40.41,24.78-57.98,24.78s-30.8-6.79-41.63-20.39c-10.83-13.59-16.24-31.21-16.24-52.86,0-42.15,14.32-80.48,42.97-114.99,28.64-34.5,60.46-51.76,95.46-51.76,12.7,0,23.52,2.12,32.47,6.35Z"/><path d="M1720.91,357.98l-6.35-6.84c25.06-18.07,37.6-37.84,37.6-59.33,0-17.9-9.85-33.36-29.54-46.39l34.18-33.94c20.02,14.81,30.03,32.31,30.03,52.49,0,28.97-21.97,60.3-65.92,93.99Z"/><path d="M1782.43,551.83l33.76-27.59c12.72,13.51,28.71,20.26,47.96,20.26,23.48,0,35.23-11.31,35.23-33.94,0-12.53-10.78-30.03-32.33-52.49l-13.96-14.4c-20.41-21.32-30.61-38.57-30.61-51.76,0-18.88,8.18-34.75,24.54-47.61,16.36-12.86,36.5-19.29,60.42-19.29,13.02,0,27.26,2.44,42.72,7.32l-29.3,27.1c-12.37-9.28-26.12-13.92-41.26-13.92-17.74,0-26.61,7.41-26.61,22.22,0,10.58,9.85,26.12,29.54,46.63l15.14,16.11c22.46,23.44,33.69,42.32,33.69,56.64,0,20.51-9.85,38.62-29.54,54.32-19.7,15.71-42.4,23.56-68.12,23.56-18.23,0-35.32-4.39-51.27-13.18Z"/><path d="M2180.57,550.12l-36.53,14.89,.73-6.84,1.96-18.07,1.96-17.09,12.72-113.28,1.47-12.94c.98-10.09,1.47-18.23,1.47-24.41,0-10.41-2.61-15.62-7.82-15.62-12.23,0-25.35,13.84-39.37,41.5-3.75-3.09-5.62-5.78-5.62-8.06,0-9.77,8.92-23.07,26.76-39.92,17.84-16.85,31.89-25.27,42.16-25.27,14.01,0,21.02,8.95,21.02,26.86,0,4.56-.41,10.66-1.22,18.31l-1.95,19.78-2,16.6-2,17.33c19.2-28.64,40.24-52.28,63.11-70.92,22.87-18.63,42.36-27.95,58.47-27.95s23.68,10.97,23.68,32.92c0,6.67-.86,16.67-2.59,30l-13.27,90.96c-2.7,18.21-4.05,32.6-4.05,43.16,0,8.45,2.28,12.68,6.85,12.68,11.25,0,25.12-14.89,41.6-44.68,3.91,2.44,5.88,4.97,5.88,7.57,0,10.58-9.09,24.46-27.26,41.63-18.17,17.17-32.96,25.76-44.37,25.76-12.71,0-19.06-9.11-19.06-27.34,0-13.34,1.71-31.82,5.13-55.42l8.62-59.08c2.77-19.2,4.15-34.42,4.15-45.65,0-12.86-4.47-19.29-13.42-19.29-20.81,0-41.91,14.12-63.29,42.36-21.38,28.24-33.86,58.56-37.44,90.94l-6.49,58.59Z"/><path d="M2450.89,565.01c-36.62,0-54.93-24.25-54.93-72.75,0-39.06,14.32-76.7,42.97-112.92,28.64-36.21,58.35-54.32,89.11-54.32,37.11,0,55.66,24.25,55.66,72.75,0,39.23-14.32,76.9-42.97,113.04-28.65,36.13-58.59,54.2-89.84,54.2Zm29.54-27.34c18.71,0,34.38-10.41,47-31.25,12.61-20.83,18.92-46.79,18.92-77.88,0-50.78-15.79-76.17-47.36-76.17-18.55,0-34.14,10.46-46.75,31.37-12.62,20.92-18.92,46.84-18.92,77.76,0,50.78,15.71,76.17,47.12,76.17Z"/><path d="M2687.53,359.69l-11.82,107.91c-2.12,19.37-3.17,33.69-3.17,42.97,0,18.39,6.25,27.59,18.75,27.59,13.46,0,27.41-11.07,41.85-33.2,2.43,3.09,3.65,5.86,3.65,8.3,0,9.12-8.02,20.02-24.05,32.71-16.03,12.7-29.83,19.04-41.38,19.04-23.11,0-34.67-14.81-34.67-44.43,0-10.9,1.38-28.56,4.15-52.98l11.71-107.91h-51.26l28.41-28.32h25.99l5.17-44.43,35.96-11.96-5.93,56.4h103.52l-28.61,28.32h-78.25Z"/><path d="M2932.82,481.03c4.07,2.77,6.1,6.02,6.1,9.77,0,5.05-5.21,13.67-15.62,25.88-27.83,32.23-55.34,48.34-82.52,48.34-16.6,0-30.27-6.59-41.02-19.78s-16.11-30.03-16.11-50.54c0-37.11,14.04-74.67,42.11-112.67,28.08-38,55.87-57.01,83.37-57.01,19.86,0,29.79,10.66,29.79,31.98,0,23.93-11.6,47.28-34.79,70.07-23.19,22.79-51.48,38.66-84.84,47.61,3.25,39.06,18.71,58.59,46.39,58.59s49.72-17.41,67.14-52.25Zm-112.55-36.13c4.72,1.63,9.03,2.44,12.94,2.44,20.18,0,37.84-6.18,52.98-18.55,15.14-12.37,22.71-26.86,22.71-43.46,0-19.04-9.69-28.56-29.05-28.56-14,0-26.65,8.34-37.96,25.02-11.31,16.69-18.52,37.72-21.61,63.11Z"/><path d="M2954.8,551.83l33.76-27.59c12.72,13.51,28.71,20.26,47.96,20.26,23.48,0,35.23-11.31,35.23-33.94,0-12.53-10.78-30.03-32.33-52.49l-13.96-14.4c-20.41-21.32-30.61-38.57-30.61-51.76,0-18.88,8.18-34.75,24.54-47.61,16.36-12.86,36.5-19.29,60.42-19.29,13.02,0,27.26,2.44,42.72,7.32l-29.3,27.1c-12.37-9.28-26.12-13.92-41.26-13.92-17.74,0-26.61,7.41-26.61,22.22,0,10.58,9.85,26.12,29.54,46.63l15.14,16.11c22.46,23.44,33.69,42.32,33.69,56.64,0,20.51-9.85,38.62-29.54,54.32-19.7,15.71-42.4,23.56-68.12,23.56-18.23,0-35.32-4.39-51.27-13.18Z"/></g></svg>