<?xml version="1.0" encoding="UTF-8"?><svg id="Layer_1" xmlns="http://www.w3.org/2000/svg" viewBox="0 0 3295.39 791.09"><defs><style>.cls-1{font-family:Apple-Chancery, 'Apple Chancery';font-size:500px;}.cls-2{letter-spacing:0em;}.cls-3{fill:#fff;}.cls-4{stroke:#fff;stroke-miterlimit:10;stroke-width:2.77px;}</style></defs><polygon class="cls-3" points="463.1 278.98 522.06 204.67 554.85 235.39 503.37 308.05 447.73 318.43 463.1 278.98"/><polygon class="cls-3" points="529.94 431.35 590.14 483.66 550.29 503.59 490.09 472.86 514.17 452.51 529.94 431.35"/><polygon class="cls-3" points="470.17 473.69 546.13 516.87 593.88 681.7 561.49 727.77 401.66 505.66 431.13 495.29 445.25 482.83 460.61 469.95 470.17 473.69"/><polygon class="cls-3" points="368.02 453.77 422.41 578.31 332.33 752.68 295.38 700.78 306.99 562.13 368.02 453.77"/><polygon class="cls-3" points="340.21 461.65 310.32 460 281.26 536.38 308.66 540.53 335.23 511.06 350.6 472.45 355.15 462.07 340.21 461.65"/><polygon class="cls-3" points="140.1 577.9 260.92 404.37 307.42 449.2 218.57 584.95 158.79 596.16 140.1 577.9"/><path class="cls-3" d="M218.57,248.68l24.91-22.01-29.48-104.21,19.93-38.53,29.47,14.52s32.81,51.49,38.61,52.32,36.54,48.99,37.78,49.34,41.52,19.93,41.52,19.93l35.25-105.88s36.99-65.6,36.99-66.9,18.33-34.03,18.33-34.03l29.07,24.91,16.18,117.02-13.28,44.42-11.7,29.55-35.7,53.14-44-10.35-31.13-.42-10.8,7.05-7.47,14.94-4.58,17.41-37.36,.41-27.41,12.46-91.75-57.3,16.61-17.81Z"/><polygon class="cls-3" points="42.79 326.31 186 290.08 256.75 301 279.18 321.13 287.23 369.45 236.04 398.21 88.79 386.13 19.21 372.32 22.66 335.51 42.79 326.31"/><polygon class="cls-3" points="601.84 203.23 668.56 161.23 689.27 206.11 663.96 284.9 535.69 378.08 505.79 312.51 602.42 200.93 601.84 203.23"/><polygon class="cls-3" points="634.62 363.12 784.74 438.46 783.58 471.25 658.21 474.13 556.4 450.54 535.12 411.43 555.25 373.47 634.62 363.12"/><path class="cls-4" d="M335.25,364.23c5.44-1.14,10.3-4.18,13.7-8.57,1.72-1.71,.86-2.57-1.72-1.71-2.06,.7-4.06,1.56-5.99,2.57-11.38,3.9-23.77-2.16-27.67-13.54v-.02c-.4-1.13-.69-2.29-.88-3.47-.14-2.6,.14-5.21,.85-7.71,0-2.57-1.71-2.57-2.57-.86-1.8,4.36-2.83,8.99-3.05,13.7-.27,11.24,8.63,20.57,19.87,20.84,2.54,.06,5.07-.36,7.45-1.22Z"/><path class="cls-4" d="M355.8,430.86c-1.63,1.54-3.75,2.45-5.99,2.57-2.51,.71-5.11,1-7.71,.86-10.3,.33-19-7.6-19.61-17.89-.87-2.5-.87-5.22,0-7.71,0-2.57-1.71-2.57-2.57,0-2.04,3.99-3.21,8.37-3.43,12.84-.15,11.68,9.2,21.27,20.88,21.42,2.18,.03,4.35-.28,6.43-.92,5.13-1.83,9.8-4.77,13.68-8.6,1.75-2.57,.89-3.43-1.68-2.57Z"/><path class="cls-4" d="M684.67,349.77c-13.65-5.15-26.34-9.44-38.07-12.86,5.99-7.7,12.84-16.27,19.03-25.6,23.9-35.02,41.89-83.76,41.89-118.69,.62-12.12-2.72-24.12-9.52-34.17-6.57-9.58-17.41-15.33-29.03-15.41-9.19,.32-18.09,3.3-25.63,8.57-10.88,7.14-21.16,15.16-30.73,23.97-12,9.52-27.32,19.03-47.6,33.31-6.1-8.23-15.4-13.49-25.6-14.46,1.71-12,3.43-24.76,4.23-39.32,4.23-61.48-17.99-137.54-50.46-150.29-4.82-2.19-10.03-3.35-15.32-3.43-15.55,1.04-29.28,10.5-35.8,24.66l-7.33,15.32-7.71,21.32c-6.85,16.28-16.27,34.17-25.6,54.64-9.28,20.57-17.23,41.7-23.8,63.29-33.31-38.07-48.64-45.3-78.53-76.91-22.18-23.88-35.02-42.73-58.06-42.73-25.6,0-41.03,25.6-41.03,59.78,1.57,36.74,10.58,72.77,26.46,105.93-28.56,6.01-38.07,21.33-38.07,37.6-.03,3.5,.55,6.98,1.72,10.28C97.08,274.57,1.39,316.45,1.39,360.24c0,32.43,22.18,41.01,54.63,44.44,47.6,5.15,99.08,27.32,152.87,29.04-29.89,39.31-36.74,64.05-58.92,100.8-12,19.6-21.33,29.87-21.33,44.44,0,23.04,15.42,36.75,38.07,36.75,34.17,0,87.1-25.62,122.98-52.92-9.12,30.2-14.02,61.51-14.56,93.05,0,62.34,17.99,113.55,54.63,113.55,23.04,0,28.56-13.6,49.5-55.49,28.55-58.06,38.07-51.2,61.48-108.56,23.52,34.27,47.5,53.31,65.4,83.39,16.27,27.31,31.59,49.48,56.39,49.48,27.31,0,43.59-33.31,43.59-74.33-.53-51.36-13.6-101.81-38.07-146.97,19.61-2.57,35.03-9.52,40.17-32.43,18.11,2.55,36.36,3.96,54.64,4.23,49.58,0,81.09,5.13,102.51,5.13,23.97,0,41.03-11.98,41.03-37.59,0-37.6-63.2-85.67-121.24-106.81l-.48,.31Zm-46.17-146.96c12.86-13.72,22.18-28.56,28.56-28.56s7.7,5.99,7.7,13.7c0,61.5-102.51,164-132.4,164-5.15,0-6.85-3.43-2.57-8.57,6.6-6.94,11.3-15.46,13.65-24.74,0-3.43-.86-5.13-3.43-5.13-7.71,0-22.18,11.98-29.03,19.03l-2.58-5.15c14.56-62.34,87.96-90.51,120.41-124.68l-.32,.1Zm-154.57,195.6c17.9-.49,32.81,13.63,33.3,31.53v.36c-.57,16.33-14.27,29.11-30.61,28.55h-.14c-17.92,.92-33.2-12.83-34.17-30.75,.5-16.55,14.32-29.56,30.86-29.06h.75v-.63Zm-34.16-52.06c-.55-15.23,11.36-28.03,26.59-28.58h2.44c17.18-.15,31.28,13.57,31.61,30.75-.02,15.14-12.3,27.39-27.44,27.38h-1.58c-16.88,.21-30.87-13.02-31.59-29.89l-.03,.34Zm78.63,99.08c13.7,1.72,37.59,26.46,36.74,40.17-20.48-.01-40.56-5.64-58.07-16.27,9.99-4.83,17.66-13.42,21.33-23.9Zm-9.53-221.2s6.87,3.43,6.87,16.27c0,20.47-25.62,55.49-41.89,64.85-1.3-.69-2.77-.99-4.23-.86-2.6-.06-5.19,.23-7.71,.86-3.55,.74-6.99,1.89-10.28,3.43,12-25.6,47.6-60.62,57.11-84.59l.13,.04ZM471.93,30.51c7.71,0,16.27,11.14,16.27,51.22,0,54.63-19.03,152.87-35.88,178.55-2.92-5.5-4.38-11.66-4.23-17.89,0-13.7,4.23-32.43,4.23-51.3,0-12.84-1.71-17.03-4.23-17.03-4.23,0-22.18,49.58-22.18,97.36-6.94-3.55-14.44-5.87-22.18-6.85-2.72-6.46-3.89-13.46-3.43-20.46,0-70.91,52.06-144.39,71.77-213.6h-.16Zm-71.77,247.48c17.9,0,33.31,11.14,33.31,27.32,.35,15.76-12.14,28.83-27.9,29.18h0c-1.23,.03-2.47-.03-3.69-.16-17.02,1.37-31.93-11.32-33.3-28.34v-.21c.37-16.19,13.78-29.01,29.97-28.65,.55,0,1.09,0,1.62,.08v.76Zm5.99,65.78c24.01,.12,43.43,19.58,43.49,43.59-.78,21.44-18.72,38.23-40.17,37.6-23.79,1.23-44.07-17.06-45.3-40.84v-.24c.8-22.54,19.42-40.33,41.97-40.11Zm-38.07,82.8c.31,15.76-12.21,28.8-27.97,29.11h-.01c-.92,0-1.85,0-2.82-.07-17.9,.5-32.82-13.61-33.31-31.51v-.07h0c.98-16.95,15.47-29.93,32.43-29.03,17.22,.5,31.08,14.29,31.68,31.51v.06Zm-127.62-169.14c19.61,0,32.43,7.71,49.5,13.7-31.59-39.31-58.06-96.52-58.06-151.15,0-17.9,4.23-23.97,8.56-26.46,35.03,76.91,111.94,116.13,121.24,190.33-3.38,5.41-5.44,11.54-6.01,17.89-17.84-4.24-34.13-13.41-47.02-26.46-3.43-3.43-5.99-2.57-5.99,1.72,1.82,11.56,8.28,21.87,17.89,28.55-8.2,.85-15.94,4.19-22.18,9.59-24.74-11.14-47.6-37.6-76.91-51.3,5.2-4.63,12.12-6.81,19.03-5.99l-.07-.41Zm-147.75,106.23c-19.18-.83-38.39,.9-57.11,5.13-2.5-1.72-3.82-4.7-3.43-7.71,0-28.55,93.05-54.63,173.41-54.63,46.93,0,58.92,12.84,58.92,12.84-12.84,0-57.1,0-57.1,7.71,0,15.42,69.19,14.56,69.19,30.75,0,10.28-25.6,21.32-59.78,21.32-36.74,0-86.24-15.32-123.74-15.32l-.37-.08Zm76.13,217.78c-3.38,.12-6.6-1.47-8.56-4.23,45.3-56.39,60.62-140.98,117.02-140.98,9.52,0,12.86,5.15,12.86,12-.03,46.88-90.58,133.21-121.3,133.21h-.01Zm158.79-263.28c17.49-.4,32,13.44,32.43,30.93v.68c-.29,16.07-13.54,28.86-29.61,28.59h-1.1c-17.53,.85-32.43-12.67-33.29-30.19v-.54c.51-16.55,14.32-29.56,30.87-29.07h.73l-.04-.39Zm-26.18,198.94c0-12,14.56-21.32,19.03-49.5,6.79,2.59,14.11,3.49,21.33,2.62,0,22.18-16.28,54.63-35.89,60.62-3.4-3.72-5.03-8.73-4.47-13.75Zm27.32,219.5c-6.85,0-14.56-19.61-14.56-64.92,0-101.65,36.74-132.4,53.77-196.46,2.18,9.76,7.62,18.49,15.42,24.76,0,3.43,.86,7.71,.86,12.84,0,13.7-4.23,26.46-4.23,34.17,.17,2.26,1.97,4.06,4.23,4.23,5.99,0,9.52-13.7,15.32-13.7,2.57,0,3.43,3.43,3.43,9.52,0,66.63-67.49,135.82-74.34,189.61l.1-.04Zm50.34-273.42c.51-16.55,14.32-29.56,30.88-29.07h.73c17.9-.6,32.89,13.42,33.49,31.32v.39c-.57,16.33-14.27,29.11-30.6,28.55h-.13c-17.92,.92-33.2-12.83-34.17-30.75l-.2-.44Zm191.89,215.45c0,17.9-5.13,33.31-12.84,33.31-6.74-14.8-15.03-28.84-24.76-41.87-39.31-58.07-93.94-100.8-103.37-163.62,10.61-4.04,19.15-12.16,23.7-22.56,25.62,0,26.46,23.88,35.03,23.88,4.23,0,4.23-11.14,8.57-11.14,19.6,0,73.48,119.55,73.48,181.99h.18Zm199.04-214.45c-39.62-5.33-79.59-7.62-119.55-6.85-57.11,0-99.1-15.42-99.1-26.46,0-7.71,29.04-5.13,29.04-11.14,0-8.56-24.76-11.14-24.76-22.18,0-5.13,6.01-12.84,34.17-12.84,88.82,0,183.62,41.87,183.62,70.91,0,6.85-3.43,8.56-3.43,8.56Z"/><path class="cls-4" d="M491.82,445.42c4.89-1.82,9.29-4.75,12.84-8.57,2.58-2.57,.86-3.43-1.71-2.57-1.67,1.64-3.73,2.81-5.99,3.43-10.92,3.79-22.85-1.99-26.64-12.92h0c-.45-1.32-.77-2.66-.96-4.03v-7.7c.85-2.58-.86-3.43-2.58-.86-2.46,5-3.69,10.52-3.57,16.09,1.95,11.88,13.16,19.93,25.04,17.98l.1-.02c1.18-.2,2.34-.49,3.47-.89v.06Z"/><path class="cls-4" d="M501.28,354.14c2.57-1.71,.86-2.57-1.71-1.71-1.93,1-3.94,1.86-6.01,2.57-10.97,3.63-22.81-2.31-26.44-13.28v-.03c-.41-1.21-.7-2.46-.87-3.72v-7.71c.85-2.57-.86-2.57-2.58-.86-2.35,5.1-3.53,10.67-3.43,16.28,1.17,10.26,9.86,18.01,20.19,17.99,2.6,.14,5.2-.15,7.7-.86,5.31-1.14,10.01-4.23,13.14-8.67Z"/><path class="cls-4" d="M430.9,471.03c-1.94,1.59-4.35,2.5-6.85,2.58-2.22,.65-4.54,.94-6.85,.85-10.47,.22-19.38-7.58-20.56-17.99v-7.13c.85-2.57-.86-3.43-2.58-.86-1.66,3.48-2.54,7.28-2.57,11.14-.85,11.37,7.68,21.27,19.05,22.12h1.44c2.32,.14,4.64-.15,6.85-.86,5.15-1.35,9.87-4,13.7-7.7,1.71-2.58,.86-3.44-1.72-2.58l.08,.44Z"/><path class="cls-4" d="M409.64,323.21c5.14-1.82,9.81-4.74,13.7-8.56,1.71-2.58,.86-3.44-1.72-2.58-1.63,1.54-3.75,2.45-5.99,2.58-2.51,.7-5.11,.98-7.71,.85-10.3,.33-19-7.6-19.61-17.89-.86-2.5-.86-5.21,0-7.71,0-2.57-1.71-2.57-2.57,0-2.03,4-3.2,8.38-3.43,12.86-.13,11.66,9.2,21.23,20.87,21.39,2.19,.03,4.37-.28,6.46-.93Z"/><path class="cls-4" d="M409.64,410.4c2.6,.13,5.2-.16,7.71-.86,6.76-1.46,12.87-5.06,17.41-10.28,2.57-2.58,.86-4.23-2.57-2.58-2.43,1.24-5.03,2.11-7.71,2.58-2.81,.66-5.69,.95-8.57,.85-14.34,.85-26.86-9.62-28.55-23.88-.85-3.37-.85-6.9,0-10.28,0-3.43-2.57-4.23-4.23-.86-1.96,5.51-3.12,11.28-3.43,17.13-.02,15.77,12.75,28.57,28.52,28.59h1.41v-.41Z"/><text class="cls-1" transform="translate(888.15 558.66)"><tspan x="0" y="0">Nic’s no</tspan><tspan class="cls-2" x="1697.02" y="0">t</tspan><tspan x="1870.36" y="0">es</tspan></text></svg>