<svg xmlns="http://www.w3.org/2000/svg" viewBox="0 0 1200 628"><title>SP00_blog</title><g id="Footer"><g id="White"><rect width="1200" height="628" style="fill:#fff"/></g></g><g id="_00" data-name="00"><g id="draw"><path d="M933.72,250.25a8.16,8.16,0,0,0-1.1.19,7.19,7.19,0,0,0-1.17.44,6.92,6.92,0,0,0-1.66,1.12,8,8,0,0,0-1.45,1.72,10.41,10.41,0,0,0-1.56,4.66,1.25,1.25,0,0,0,.38.91,1.28,1.28,0,0,0,1.82,0,1.41,1.41,0,0,0,.38-.91.41.41,0,0,1,0-.11,9.12,9.12,0,0,1,.5-1.86,7.83,7.83,0,0,1,.79-1.38,7,7,0,0,1,1-1,7.8,7.8,0,0,1,1.08-.63,3.82,3.82,0,0,1,3,0,8,8,0,0,1,1.29.78,11.52,11.52,0,0,1,.89.82,1.37,1.37,0,0,0,1.92,0,1.33,1.33,0,0,0,.4-1,1.51,1.51,0,0,0-.4-1,7.57,7.57,0,0,0-3.91-2.68,6.22,6.22,0,0,0-1.55-.2c-.21,0-.41,0-.62,0" style="fill:#161616"/><path d="M939,264.32a12.12,12.12,0,0,0-4.35,1.62,13.06,13.06,0,0,0-3.72,3.46,1.24,1.24,0,0,0-.13,1,1.3,1.3,0,0,0,.58.76,1.35,1.35,0,0,0,1,.13,1.36,1.36,0,0,0,.76-.59s0,0,0,0a11.86,11.86,0,0,1,1.73-1.74,11.45,11.45,0,0,1,2.25-1.3,12,12,0,0,1,2.69-.73,13.2,13.2,0,0,1,2.81,0,14.14,14.14,0,0,1,3.15.87c.43.19.85.39,1.27.61a1.09,1.09,0,0,0,1.28-.17,1.06,1.06,0,0,0,0-1.5,10.39,10.39,0,0,0-4.31-2.22,11.44,11.44,0,0,0-2.79-.33,15.09,15.09,0,0,0-2.22.17m-5.67,6.09-.17.22.17-.22" style="fill:#161616"/><path d="M935.35,271.06a2.9,2.9,0,1,0,2.9-2.9,2.93,2.93,0,0,0-2.9,2.9" style="fill:#161616"/><path d="M965.44,259a12.92,12.92,0,0,0-5,1.62,12.44,12.44,0,0,0-4,3.72,1.16,1.16,0,0,0,.41,1.58,1.2,1.2,0,0,0,.89.11,1.22,1.22,0,0,0,.69-.53l.22-.31a11.06,11.06,0,0,1,1.71-1.71,11.8,11.8,0,0,1,2.2-1.28,12.45,12.45,0,0,1,2.67-.74,12.93,12.93,0,0,1,3.23,0,14.32,14.32,0,0,1,3,.84,19.83,19.83,0,0,1,2.41,1.28,1,1,0,0,0,1.18-.15,1,1,0,0,0,0-1.38,10.72,10.72,0,0,0-4.57-2.63,12.32,12.32,0,0,0-2.62-.47c-.32,0-.64,0-1,0a12.58,12.58,0,0,0-1.5.09" style="fill:#161616"/><path d="M960.29,265.71a3.13,3.13,0,1,0,3.13-3.13,3.17,3.17,0,0,0-3.13,3.13" style="fill:#161616"/><path d="M948.36,274.78a1.07,1.07,0,0,0-.31.73c0,.33-.07.66-.11,1-.19,1.3-.44,2.6-.64,3.9-.11.74-.2,1.48-.25,2.23a11.8,11.8,0,0,0,.09,2.14,4.2,4.2,0,0,0,1.93,3.1,4.61,4.61,0,0,0,2.08.55,5.26,5.26,0,0,0,1.12-.05,11.07,11.07,0,0,0,1.62-.33,1.05,1.05,0,0,0,.73-1.27,1.08,1.08,0,0,0-.48-.63,1.12,1.12,0,0,0-.8-.1l-.43.07.14,0-.15,0-.14,0,.14,0a7.56,7.56,0,0,1-1.84.05,3.32,3.32,0,0,1-.62-.16,2.88,2.88,0,0,1-.38-.22l-.26-.26a2.86,2.86,0,0,1-.24-.42,5.54,5.54,0,0,1-.26-1,16.09,16.09,0,0,1,.16-3.73c.23-1.61.54-3.22.67-4.85a1,1,0,0,0-1-1,1,1,0,0,0-.73.31m4.54,11.33Z" style="fill:#161616"/><path d="M965.81,288.06a1.16,1.16,0,0,0-.65.5l-.63.87a18.76,18.76,0,0,1-3,3.06,13.08,13.08,0,0,1-2.34,1.38,11.53,11.53,0,0,1-2.53.68,11.91,11.91,0,0,1-2,0,1.37,1.37,0,0,0-1.38,1.37,1.34,1.34,0,0,0,.4,1,1.45,1.45,0,0,0,1,.41,12.32,12.32,0,0,0,7.4-1.88A12.79,12.79,0,0,0,965,293a12.12,12.12,0,0,0,1.24-1.7,12,12,0,0,0,.91-1.87,1.09,1.09,0,0,0-1-1.38,1,1,0,0,0-.29,0" style="fill:#161616"/><path d="M958.36,244.21a6.5,6.5,0,0,0-1.63,1.22,8.22,8.22,0,0,0-1.37,1.85,1.06,1.06,0,1,0,1.83,1.08,9.64,9.64,0,0,1,.55-.86,6.13,6.13,0,0,1,.84-.85,5.25,5.25,0,0,1,.94-.55,6.4,6.4,0,0,1,1.14-.31,6.94,6.94,0,0,1,1.51,0,9.64,9.64,0,0,1,2.17.63,21,21,0,0,1,4,2.45,1,1,0,0,0,1.26-.16,1.05,1.05,0,0,0,0-1.47,13.29,13.29,0,0,0-5.38-3.33,10.27,10.27,0,0,0-2-.42c-.24,0-.49,0-.74,0a6.88,6.88,0,0,0-3.08.74" style="fill:#161616"/><path d="M944.82,341.4a.65.65,0,0,0-.31.4.58.58,0,0,0,.07.51l2.32,3.14c.8,1.1,1.59,2.22,2.41,3.32a.72.72,0,0,0,.4.31.7.7,0,0,0,.53-.07.67.67,0,0,0,.24-.93c-.74-1.07-1.52-2.11-2.29-3.16s-1.63-2.19-2.46-3.28a.69.69,0,0,0-.4-.31l-.18,0a.67.67,0,0,0-.33.1" style="fill:#161616"/><path d="M906.22,204.19a18.52,18.52,0,0,0-.45,2.95,14.68,14.68,0,0,0,.17,3,18.75,18.75,0,0,0,1.87,5.74,22.06,22.06,0,0,0,3.38,4.87,20.81,20.81,0,0,0,2.84,2.62,49.94,49.94,0,0,0-8.23,4.54c-1.1.75-2.22,1.56-3.32,2.42-.2.19-.4.38-.59.58a2.35,2.35,0,0,1-.52.37,1.65,1.65,0,0,1-.31.2l-.91.76-.21.19c-.33.3-.65.6-1,.91q-.19.17-.39.3a47.72,47.72,0,0,0-3.41,3.42,1.36,1.36,0,0,0-.2,1.61,1.39,1.39,0,0,0,1.15.67,1.34,1.34,0,0,0,.35,0,49.4,49.4,0,0,1,5.49-1.64,56.28,56.28,0,0,1,5.95-1.14,51,51,0,0,1,6.49-.43,41.46,41.46,0,0,1,4.77.27c-1.15,1-2.37,2.08-3.74,3.43-1.83,1.8-3.66,3.77-5.44,5.85s-3.36,4.16-5,6.48-3.25,5-4.53,7.12a1.92,1.92,0,0,0,.3,2.32,1.83,1.83,0,0,0,.85.5,2.08,2.08,0,0,0,.55.07,1.53,1.53,0,0,0,.93-.26c.43-.33.86-.66,1.28-1l.09-.07-.11,0,.16-.08.05,0,0,0c1.6-1.2,3.27-2.36,5-3.47a13.62,13.62,0,0,1,2.66-1.79,3.56,3.56,0,0,1,.66-.25l.7-.4c2.49-1.42,5.15-2.76,8.13-4.09a49.84,49.84,0,0,0,.48,6.13,3.07,3.07,0,0,1,.19.86c0,.33.05.65.09,1a82.83,82.83,0,0,0,2.29,10.05c.91,3.17,2,6.49,3.42,10.14a2.22,2.22,0,0,1,.31.66c0,.16.09.33.14.49,1.36,3.48,2.85,6.81,4.4,9.91a78.51,78.51,0,0,0,7,11.59,42,42,0,0,0,8.38,8.87l.1.1.11.11a1.65,1.65,0,0,0,.55.33,1.47,1.47,0,0,0,1.26.72,40,40,0,0,0,14.88-2.84A32.21,32.21,0,0,0,969,307l0,.26c.06.35.13.69.18,1a.5.5,0,0,1,0,.16,1.52,1.52,0,0,0-.55.17c-2.22,1-4.62,2.14-7.06,3.18l-.1.06c-2.9,1.19-5.48,2.13-7.87,2.87a81.21,81.21,0,0,1-9.05,2.13,1.2,1.2,0,0,0-.9,1.18,1.25,1.25,0,0,0,.11.5,76.31,76.31,0,0,0-8.25,7.34c-.21.21-.41.43-.61.64a2.67,2.67,0,0,1-.4.55,31.78,31.78,0,0,0-2.3,2.61l-.11.13a3.56,3.56,0,0,1-.54.61l0,.06a33,33,0,0,0-3.09,4.54c-.36-.8-.76-1.6-1.16-2.4a1.39,1.39,0,0,0-1.27-.72,1.55,1.55,0,0,0-.75.19,1.42,1.42,0,0,0-.59.65,31.79,31.79,0,0,0-3.3-1l-1.12-.28h0l.07,0a1.13,1.13,0,0,0,.53-.69,8.23,8.23,0,0,0,.09-2.29,7,7,0,0,0-.54-2.09,4.54,4.54,0,0,0-2.27-2.37,5,5,0,0,0-1.79-.42h-.25a5.45,5.45,0,0,0-1.52.23,6.52,6.52,0,0,0-1.2.44l-.43-1-.14-.32-.24-.55a2,2,0,0,1-.36-.45,21.71,21.71,0,0,1-1.54-3.23,17.31,17.31,0,0,1-.77-2.41c-.15-.34-.29-.68-.43-1-1.62-3.83-2.9-7.05-4-10.13a1.75,1.75,0,0,0-.77-1l-.1,0a.86.86,0,0,0,.1-.41,1.11,1.11,0,0,0-.77-1.06,14.35,14.35,0,0,0-1.37-1.69,5.89,5.89,0,0,0-1.59-1.18,3.33,3.33,0,0,0-1.45-.36h-.11a2.62,2.62,0,0,0-1.6.63,3.88,3.88,0,0,0-1.12,3,7.44,7.44,0,0,0,.33,2c0,.14.08.27.13.41a7.81,7.81,0,0,0-.23,4,11.19,11.19,0,0,0,.5,1.81,23.22,23.22,0,0,0,1.67,3.58c.32.58.66,1.14,1,1.7a13.85,13.85,0,0,0,1.2,1.68,1.11,1.11,0,0,0,.86.36,1.28,1.28,0,0,0,.64-.17,1.26,1.26,0,0,0,.57-1.4,16.31,16.31,0,0,0-1.61-3.07l-.39-.63a29.07,29.07,0,0,1-1.86-3.43l-.09-.16-.09-.28-.14-.39c.75,1.28,1.53,2.49,2.36,3.7.59,1.39,1.22,2.82,1.94,4.38.79,1.72,1.55,3.3,2.31,4.83l.13.24.12.25a.78.78,0,0,0-.24-.16,5.59,5.59,0,0,0-2.17-.6h-.19a3.49,3.49,0,0,0-1.79.51,4.43,4.43,0,0,0-1.53,1.75,10.87,10.87,0,0,0-1,3.16,1,1,0,0,0,.08.73l-.34-.08-3.45-.66a1.14,1.14,0,0,0-.16-.8,1.38,1.38,0,0,0-.79-.6,7.67,7.67,0,0,0-2.7-.54,4.79,4.79,0,0,0-2.29.55,4,4,0,0,0-1.47,1.46,5.12,5.12,0,0,0-.62,2.18,5.93,5.93,0,0,0,.2,2.1,7.57,7.57,0,0,0,.93,2.17,8.09,8.09,0,0,0,.64.9,4.53,4.53,0,0,0-.39,1,5.28,5.28,0,0,0-.15,1.48,4.46,4.46,0,0,0,.38,1.55,4.85,4.85,0,0,0,2.6,2.47,6.39,6.39,0,0,0,.27,3.6,5.49,5.49,0,0,0,.74,1.36,6.5,6.5,0,0,0,.61.7,8.07,8.07,0,0,0,.75.59,4.43,4.43,0,0,0,.9.49,4.18,4.18,0,0,0,0,1.06A107.67,107.67,0,0,0,892,364.31c-.29,3.25-.45,8.05,1.49,12.24a10.81,10.81,0,0,0,2.91,3.79,13,13,0,0,0,5,2.44,21.17,21.17,0,0,0,5.31.61c.47,0,.95,0,1.41,0A43.35,43.35,0,0,0,917,382a1.36,1.36,0,0,0,.84-.65,1.44,1.44,0,0,0,.14-1.09,1.42,1.42,0,0,0-.65-.85,1.36,1.36,0,0,0-.68-.18,2.85,2.85,0,0,0-.4,0c-1.59.29-2.88.49-4.06.65h.2a49.41,49.41,0,0,1-5.44.36,24.93,24.93,0,0,1-3.07-.17,15.53,15.53,0,0,1-3.57-.93,10.52,10.52,0,0,1-2-1.16,9.57,9.57,0,0,1-1.53-1.52,10.76,10.76,0,0,1-1.18-2,15.93,15.93,0,0,1-.95-3.65,39.31,39.31,0,0,1,.25-9.76l0-.17v0c.38-2.68.92-5.53,1.7-8.94a4.68,4.68,0,0,0,.83.7,5.24,5.24,0,0,0,.74.41,1.69,1.69,0,0,0-.1.27,5.85,5.85,0,0,0,.05,3.37,5.34,5.34,0,0,0,2,2.66,5.65,5.65,0,0,0,1.42.75.62.62,0,0,0,0,.16,5.45,5.45,0,0,0,.64,3,5.23,5.23,0,0,0,2.16,2.08,6.79,6.79,0,0,0,.67.32,5.21,5.21,0,0,0-.23.7,5,5,0,0,0,.26,3.32,4.09,4.09,0,0,0,.85,1.19,4.58,4.58,0,0,0,1.49.93,5,5,0,0,0,1.54.38,4.45,4.45,0,0,0,.35,3.43,3.63,3.63,0,0,0,.77.92,4.42,4.42,0,0,0,1.38.82,6.23,6.23,0,0,0,2.48.46q.31,0,.63,0a1.21,1.21,0,0,0,1-.59c1,.33,2,.71,3.22,1.22l.11,0,.11.05.4.17.17.07a1.07,1.07,0,0,0,.58,0,1.1,1.1,0,0,0,.66-.5,1.4,1.4,0,0,0,.13-.36l.26.28a23.85,23.85,0,0,0,6.3,3.94,28.11,28.11,0,0,0,7.44,2.12,25.68,25.68,0,0,0,3.54.26,20,20,0,0,0,4-.4,12.64,12.64,0,0,0,1.89-.56,9.33,9.33,0,0,0,1.1-.49.66.66,0,0,0,.19.25,1.92,1.92,0,0,0,1.25.53l.68.07a6.1,6.1,0,0,1-.51,1.7,72.15,72.15,0,0,1-7.15,11.94c-.74,1.07-1.47,2.13-2.18,3.2a46,46,0,0,0-4.13,7.28,23.34,23.34,0,0,0-1.37,4,18.83,18.83,0,0,0-.5,4.32,21.47,21.47,0,0,0,2,8.86c-5.24-2.76-10.77-5.37-16.42-7.77a216.72,216.72,0,0,0-23.76-8.51,118.84,118.84,0,0,0-14.64-3.31,89.92,89.92,0,0,0-14.14-1.21h-.4a1.39,1.39,0,0,0-1,2.38,1.45,1.45,0,0,0,1,.41c1.71.16,3.58.38,6.06.7a209.45,209.45,0,0,1,23.64,4.78,189.25,189.25,0,0,1,23.8,7.88L921,421.8a171.4,171.4,0,0,1,16,7.75,1.47,1.47,0,0,0,1,.92c1.19.22,2.38.46,3.57.71a45.47,45.47,0,0,0-5.18,11l0,.14,0,.13c-1.51-1.76-2.92-3.45-4.17-5l-1.46-1.84-.15-.22-.17-.21a.6.6,0,0,0-.34-.26l-.15,0a.6.6,0,0,0-.29.08.59.59,0,0,0-.27.41.43.43,0,0,0,.07.37c2.09,2.76,4.29,5.47,6.54,8.06a43.14,43.14,0,0,0-1.06,4.67c0,.22-.07.45-.11.67-.65-.81-1.27-1.56-1.87-2.33l-.12-.11h0a.86.86,0,0,0-.5-.41.75.75,0,0,0-.22,0,.93.93,0,0,0-.44.11.83.83,0,0,0-.39.51.88.88,0,0,0,.08.66c1.06,1.38,2.12,2.69,3.15,3.89a24,24,0,0,0-.15,3.74,1.26,1.26,0,0,0,1.24,1.24,1.24,1.24,0,0,0,1.23-1.24l0-.58,0-.58.61.67a.88.88,0,0,0,.64.26.9.9,0,0,0,.64-.26.92.92,0,0,0,0-1.27c-.58-.58-1.15-1.18-1.71-1.78.05-.57.11-1.16.19-1.74.18-1.3.42-2.59.72-3.85.87,1,1.82,2,2.88,3.16l.47.49c-.43,2-.78,4.11-1,6.33a56.31,56.31,0,0,0-.41,8.25c0,.74.07,1.48.13,2.22,0,.14,0,.29,0,.43-.66-.55-1.36-1.08-2.07-1.62l-.17-.12-.2-.15c-1.85-1.37-3.79-2.69-5.44-3.8-3.58-2.42-7.49-4.86-11.61-7.24a156.77,156.77,0,0,0-25-11.84A92.33,92.33,0,0,0,878,437.53l.38-.51c.3-.43.6-.85.91-1.26a1.61,1.61,0,0,0,.17-1.28,1.63,1.63,0,0,0-.75-1,1.56,1.56,0,0,0-.83-.22,1.48,1.48,0,0,0-.44,0,1.73,1.73,0,0,0-1,.76l-.08.1-.08.1c-4.94,6.3-8.58,13.54-11.19,19.14-1.47,3.15-2.9,6.6-4.64,11.2-1.44,3.8-2.77,7.66-4,11.49a167.47,167.47,0,0,0-4.83,19.76,114.09,114.09,0,0,0-1.92,18.24,1.36,1.36,0,0,0,.08.44l-.49-.06c-1.62-.15-3.15-.28-4.67-.48a74.51,74.51,0,0,1-8.93-1.83,66.36,66.36,0,0,1-8.71-3c-1.23-.52-2.47-1.09-3.67-1.68a5,5,0,0,0,.36-.6l.16-.31c.39-.72.75-1.46,1.1-2.2.65-1.38,1.28-2.86,2-4.66,1.07-2.68,2.07-5.62,3.15-9.26.91-3.06,1.78-6.3,2.6-9.63.42-1.76.83-3.53,1.24-5.29l.07-.29c.33-1.43.66-2.85,1-4.27l.23-.93.06-.29c1.45-6.06,2.95-12.34,4.69-18.45a163.68,163.68,0,0,1,6.46-18.78A83.44,83.44,0,0,1,857,414.14a62.76,62.76,0,0,1,5-5.73,1.1,1.1,0,0,0,0-1.54,1.07,1.07,0,0,0-.77-.31,1.06,1.06,0,0,0-.77.31A73.59,73.59,0,0,0,849,422.26a114.23,114.23,0,0,0-8.05,17.89c-2.34,6.49-4.23,13.08-5.92,19.23-.59,2.13-1.17,4.25-1.74,6.38l-.1.36c-1.14,4.2-2.33,8.56-3.56,12.81-1.49,5.12-2.85,9.75-4.38,14.48q-1.14,3.49-2.34,7c-.4,1.15-.79,2.29-1.19,3.43l-.13.38c-.32.9-.69,1.92-1,2.92l-.06.11a1.46,1.46,0,0,0-.13,1,1.32,1.32,0,0,0,.62.79l.17.09a1,1,0,0,0,.23.16c.79.4,1.6.8,2.41,1.18a15.13,15.13,0,0,1-2.18,2.07,39.8,39.8,0,0,1-4.37,2.8c-1.95,1.1-3.92,2.08-5.76,3-1.48.72-3,1.42-4.46,2.12-2.8,1.31-5.62,2.64-8.34,4a66,66,0,0,0-5.86,3.38,34.44,34.44,0,0,0-5,3.88c-1.79,1.7-4.72,5.19-4.24,9.52a10.51,10.51,0,0,0,.48,2.27,13.83,13.83,0,0,0,1.1,2.42,21.63,21.63,0,0,0,3.86,4.78,1.48,1.48,0,0,0,.42.3,1.22,1.22,0,0,0,1.17.91h.77a42.7,42.7,0,0,0,15.49-3.1,96.17,96.17,0,0,0,14.6-7.49c1.17-.7,2.34-1.42,3.5-2.13l.1-.07h0a133.16,133.16,0,0,1,16.7-9.1l.07,0,0,0a50.73,50.73,0,0,1,9.14-2.83,1.45,1.45,0,0,0,.75.51,1.58,1.58,0,0,0,.38.05,1.46,1.46,0,0,0,1.45-1.09,19.92,19.92,0,0,0-.73-9.91,1.43,1.43,0,0,0-.08-.22A1.15,1.15,0,0,0,853,516a1.29,1.29,0,0,0-.37-.91,1.23,1.23,0,0,0-.6-.33,1,1,0,0,0,.21-.61,102.82,102.82,0,0,1,.89-11.21l0-.32a153.07,153.07,0,0,1,4-19.29,163,163,0,0,1,6.81-20l-.12.2A162.56,162.56,0,0,1,871,448.8c1.19-2.15,2.51-4.35,4-6.74.39-.61.78-1.2,1.18-1.8a.83.83,0,0,0,.45.22,96.18,96.18,0,0,1,22.78,6.67,172.51,172.51,0,0,1,21.71,11.24c3.2,1.92,6.58,4.08,10.35,6.58l2.16,1.45.88.58,1.78,1.2,2.38,1.56c.42.28.85.55,1.28.82l.49.29c.27.16.54.32.8.5v.11l-.06.08c-2.63,3.41-5.23,6.84-7.84,10.26s-5.21,6.85-7.85,10.26l.16-.17c-6.54,8.42-11.72,14.76-16.79,20.5a210.28,210.28,0,0,1-18.72,18.79c-3,2.68-6.21,5.34-9.27,7.92-3.38,2.85-6.88,5.8-10.25,8.79a132.36,132.36,0,0,0-17.74,18.58c-1,1.37-2,2.74-2.92,4.06a1.31,1.31,0,0,0-.17,1,1.56,1.56,0,0,0,.68,1,1.53,1.53,0,0,0,.73.19,1.41,1.41,0,0,0,1.22-.71c.72-1,1.46-2,2.21-3a116.07,116.07,0,0,1,8.24-9.46c2.67-2.75,5.69-5.62,9.22-8.77s7-6.07,10.46-9c3-2.51,6-5.1,9-7.72,3.34-2.93,6.52-5.92,9.46-8.87s6-6.19,9.08-9.7c5-5.66,10.17-12,16.7-20.41l.14-.19.09-.11c3-3.84,6-7.79,8.84-11.6l3.26-4.3,2.88-3.77.06-.09h0l1.41-1.83.16-.21.65-.84a1,1,0,0,0,.16-.21c1-1.24,1.91-2.46,2.88-3.68a1.6,1.6,0,0,0,.42-1,1.47,1.47,0,0,0-.42-1,1.45,1.45,0,0,0-1-.42,1.38,1.38,0,0,0-1,.42l-2.39,3.06a1.74,1.74,0,0,0-.24-.22q-.29-.27-.57-.51c0-.79,0-1.61,0-2.35,0-.38,0-.71,0-1.05,0-1.2,0-2.4,0-3.55a65.22,65.22,0,0,1,.58-7.32c.12-.92.28-1.9.45-2.88,3,3.12,6.49,6.37,10.52,9.92l.58.51c.7.63,1.34,1.2,2,1.72a.88.88,0,0,0,.47.13.91.91,0,0,0,.64-.27.93.93,0,0,0,.27-.7.82.82,0,0,0-.27-.6c-.38-.34-.79-.65-1.19-1l-.47-.37-1.79-1.46c-1.18-1-2.31-1.94-3.37-2.87-2.22-2-4.39-4-6.46-6-.22-.2-.43-.42-.64-.63a63.74,63.74,0,0,1,3.45-11.35l0-.1.05-.12a47.5,47.5,0,0,1,2.45-4.95.77.77,0,0,0,.12-.35l4.42,1.18a136.61,136.61,0,0,1,17,5.77A75,75,0,0,1,987.21,449c1.21.94,2.39,2,3.53,3,.64.59,1.47,1.39,2.3,2.25l-.09.2c-.76,2.3-1.64,4.63-2.61,6.92A110.61,110.61,0,0,1,976,485.49c-8.37,10.83-18.23,20.48-28.45,30.25l-3.87,3.68c-8.63,8.21-17.56,16.7-25.48,25.87-2.3,2.68-4.51,5.5-6.65,8.23l-.19.25c-2.83,3.63-5.65,7.13-8.38,10.42s-5.62,6.75-8.55,10.19l-3.33,3.92c-1.77,2.08-3.53,4.17-5.31,6.24l-2,2.31-2.92,3.4-.38.44c-1.28,1.47-2.59,3-3.85,4.52l-.13-.09a38.9,38.9,0,0,1-5.88-3.8l.27.24a105.54,105.54,0,0,1-8.81-8l-2.16-2.12c-2.14-2.08-3.84-3.6-5.5-4.93a33.91,33.91,0,0,0-6.24-4.07,1.25,1.25,0,0,0-.55-.14,1,1,0,0,0-.9.52.87.87,0,0,0-.1.25l-.24-.23a82.14,82.14,0,0,0-9.46-7.41,36.34,36.34,0,0,0-4.88-2.78,22.34,22.34,0,0,0-5-1.72,14.75,14.75,0,0,0-2.75-.28,12.35,12.35,0,0,0-2.29.21,10.69,10.69,0,0,0-4.53,2.14,14.8,14.8,0,0,0-3.39,3.92,26.82,26.82,0,0,0-2.63,5.78h0a1.31,1.31,0,0,0-.65.17,1.35,1.35,0,0,0-.48,1.83c3,5.58,8.59,9.08,12.58,11.23,1.48.8,3,1.55,4.48,2.27,1,.49,2,1,2.93,1.47,1.48.74,2.68,1.41,3.78,2.1a42.26,42.26,0,0,1,3.69,2.57,88.38,88.38,0,0,1,9.25,8.89l.1.12c1.52,1.61,3,3.19,4.6,4.73a64.09,64.09,0,0,0,5.44,4.71,1.19,1.19,0,0,0,.6.17,1.25,1.25,0,0,0,.8-.31,1.48,1.48,0,0,0,.19.57,1.67,1.67,0,0,0,1,.77,1.58,1.58,0,0,0,.42.06,2,2,0,0,0,.88-.23,19.44,19.44,0,0,0,4.55-3.11,26.85,26.85,0,0,0,3.7-4.06,25.76,25.76,0,0,0,4.48-9.73c.42.26.86.5,1.3.73a.76.76,0,0,1,.73.6,1.38,1.38,0,0,0,1,.39,1.5,1.5,0,0,0,1-.39c1.63-1.53,3.2-3.12,4.8-4.76s3.11-3.2,4.65-4.83c2.73-2.89,5.94-6.32,9-9.83,2.91-3.32,5.8-6.74,8.58-10.16,2.48-3,5.07-6.36,8.41-10.72q1-1.36,2.07-2.76c.76-1,1.51-2,2.28-3,8.18-10.53,17.57-19.94,28.1-30.26l2.45-2.39c9-8.79,18.26-17.87,26.35-27.77a134.73,134.73,0,0,0,11.93-16.91A101.55,101.55,0,0,0,995,456h.07a1.24,1.24,0,0,0,.68-.17,1.34,1.34,0,0,0,.6-.78,1.54,1.54,0,0,0,.82-.58,15.42,15.42,0,0,0,1.34-2.6,19.81,19.81,0,0,0,.93-2.9,1,1,0,0,0-.06-.65,17.46,17.46,0,0,0,3.81-2.14,21.74,21.74,0,0,0,3.26-3,24.92,24.92,0,0,0,2.63-3.57,30.55,30.55,0,0,0,2-4.06,44.7,44.7,0,0,0,2.49-8.55c.7-3.45,1.09-6.85,1.35-9.44.15-1.47.28-2.94.39-4.42a15.67,15.67,0,0,1-1.74-.62c-.4-.16-.8-.34-1.19-.53-.19,2.28-.42,4.58-.71,6.84a59.56,59.56,0,0,1-3.74,15,31.71,31.71,0,0,1-3.69,6.49,23.56,23.56,0,0,1-3.79,3.81c-.64.48-1.36,1-2.26,1.53a1.64,1.64,0,0,0-.57.63l-.19-.22c-.52-.5-1.09-1-1.75-1.57-1.12-.95-2.35-1.91-3.77-2.93a78.09,78.09,0,0,0-8.25-5.14,108.13,108.13,0,0,0-18.89-7.92,102.76,102.76,0,0,0-14.55-3.45,73.46,73.46,0,0,0-11.62-1c-.67,0-1.34,0-2,0a1,1,0,0,0-.32.05,1.33,1.33,0,0,0-.05-.19,25,25,0,0,1-1.38-5.15,19.68,19.68,0,0,1,0-4.85,23.69,23.69,0,0,1,1.59-5.63,61.45,61.45,0,0,1,5.77-9.75l1.29-1.92c1.13-1.68,2.57-3.91,3.82-6.21a40.85,40.85,0,0,0,2.82-6.4c9.59,1.45,19,4.42,28.14,7.3l.78.25c5.17,1.63,9.85,3.09,14.68,4.34a11.53,11.53,0,0,1-1.2-3.42c0-.23-.07-.47-.11-.7-4.09-1.15-8.05-2.38-11.8-3.54l-1.48-.47c-9.29-2.88-18.82-5.85-28.55-7.24-.85-.12-1.69-.22-2.53-.32a7.31,7.31,0,0,0,.65-.8,15.91,15.91,0,0,0,1.23-2,18.87,18.87,0,0,0,1.7-4.66,17.3,17.3,0,0,0,0-7.24,53.91,53.91,0,0,0,6.45,2.65.28.28,0,0,0,0,.18,20.08,20.08,0,0,1-.13,3.19,24.37,24.37,0,0,1-.54,2.62c-.27,1-.63,1.92-1,2.81a1.12,1.12,0,0,0,.51,1.28,1.15,1.15,0,0,0,1.55-.4,16.19,16.19,0,0,0,1.67-4.48,19.3,19.3,0,0,0,.44-4.41,106.88,106.88,0,0,0,10.82,2.68,172.7,172.7,0,0,0,20.84,2.75,21.88,21.88,0,0,1,.51-3.42l-.77-.07-1.94-.18c-5.52-.53-9.79-1-13.85-1.54-6.23-.85-14.35-2.22-21.81-5.3a4.3,4.3,0,0,0,.62-1.42,14.39,14.39,0,0,0,.32-1.49,32.85,32.85,0,0,0,.37-3.38,49.24,49.24,0,0,0,0-6.29,64.39,64.39,0,0,0-2.11-12.52,1.57,1.57,0,0,0-1.9-1.07,1.54,1.54,0,0,0-1.08,1.89c.43,1.59.81,3.27,1.12,5-.39-.65-.82-1.27-1.26-1.89-1.49-2.11-3.11-4.18-4.36-5.74a.89.89,0,0,0-.68-.28.94.94,0,0,0-.67.27,1,1,0,0,0-.28.68,1,1,0,0,0,.28.67l.53.69c1.44,1.86,2.67,3.55,3.77,5.18.58.85,1.14,1.73,1.68,2.61.21.33.4.67.6,1,.34.58.69,1.17,1.07,1.73l.06.83a.7.7,0,0,0-.26.16c-1.21,1-2.33,2.11-3.68,3.41-1.19,1.17-2.37,2.34-3.55,3.53l-.09-.13a24.7,24.7,0,0,0-6-5,1.65,1.65,0,0,0-.76-.19,1.45,1.45,0,0,0-1.27.72l-.07.14c-.8-1.88-1.69-3.92-2.82-6.43-1.44-3.23-3-6.49-4.53-9.7a.31.31,0,0,0,.13-.09c.53-.65,1.06-1.32,1.58-2l.13-.16c.58-.73,1.16-1.47,1.77-2.18,1.25-1.49,2.57-3,3.93-4.37a81.67,81.67,0,0,1,8.51-7.57l.12-.1.47-.35a1.58,1.58,0,0,0,.62-.81c0-.06,0-.11,0-.18A40.42,40.42,0,0,0,958,316.63c1.8-.67,3.7-1.46,6-2.49a30.38,30.38,0,0,0-3.08,4.64,32.47,32.47,0,0,0-2.79,6.72,24.64,24.64,0,0,0-.69,3.5c-.07.54-.12,1.1-.14,1.71a14.06,14.06,0,0,0,.05,1.48l0,.18a1.17,1.17,0,0,0,.16.55.37.37,0,0,0,0,.11,1.44,1.44,0,0,0,.4,1,1.41,1.41,0,0,0,1,.4,1.31,1.31,0,0,0,1-.4,12.89,12.89,0,0,1,2.21-2.22,17.16,17.16,0,0,1,3.48-2,26.14,26.14,0,0,1,6.64-1.72l.88-.1a3.55,3.55,0,0,0,.35.44,1.12,1.12,0,0,0,.86.36,1.27,1.27,0,0,0,.64-.16,1.18,1.18,0,0,0,.43-.43,1.06,1.06,0,0,0,.49.27,1.4,1.4,0,0,0,.34.05,1.88,1.88,0,0,0,.74-.19l.11-.05.11-.05c.68-.27,1.36-.52,2.05-.73-.15-.26-.3-.52-.44-.78a15.36,15.36,0,0,1-1.08-1.67,16.62,16.62,0,0,1-.92-1.84c-.62.93-1.26,1.9-1.91,2.93-.5-.9-.85-1.56-1.15-2.2a14.22,14.22,0,0,1-.87-3.16,13.71,13.71,0,0,1-.1-1.67,1.21,1.21,0,0,0-2.41,0,16.37,16.37,0,0,0,.71,4.78,13.11,13.11,0,0,0,.72,1.89,18.47,18.47,0,0,0-2.57.26A19.72,19.72,0,0,0,965,327.1a17.48,17.48,0,0,0-5.18,3c.16-.66.34-1.41.55-2.25a38.11,38.11,0,0,1,1.59-4.68,35.92,35.92,0,0,1,4.37-7.53,26.54,26.54,0,0,1,3.1-3.35c-.06.56-.11,1.13-.17,1.71,0,.39-.07.79-.1,1.19a1.26,1.26,0,0,0,.93,1.23,1.12,1.12,0,0,0,.32,0,1.28,1.28,0,0,0,1.24-.93,13.35,13.35,0,0,0,.34-2.68,20.94,20.94,0,0,0,0-2.59V310a1.4,1.4,0,0,0-.12-1.14,26.4,26.4,0,0,0-.65-3.28,2,2,0,0,0,.27-.17,27.32,27.32,0,0,0,4.49-4.06,10.21,10.21,0,0,1,.41-2.47,19.55,19.55,0,0,1,2.11-4.74,26.73,26.73,0,0,1,2.12-3,17.69,17.69,0,0,1,1-1.58,29.47,29.47,0,0,0,.48-4.61,27.35,27.35,0,0,0-.54-6.41.87.87,0,0,0-.84-.64.89.89,0,0,0-.62.26.83.83,0,0,0-.24.61v.56c0,1,0,2,0,3s-.11,2-.24,3.1a29.87,29.87,0,0,1-1.85,7.09,23.87,23.87,0,0,1-7.58,9.83,29.27,29.27,0,0,1-6.06,3.52,35.9,35.9,0,0,1-8.6,2.29,42.59,42.59,0,0,1-4.75.35,8.24,8.24,0,0,1-.74-.85l-.13-.16-.4-.5-.41-.51c-.53-.66-1.06-1.33-1.58-2a141.57,141.57,0,0,1-8.85-13,121.75,121.75,0,0,1-7.85-15.21l-.1-.22a83.89,83.89,0,0,1-5.86-20.51l0-.19,0-.17a46.77,46.77,0,0,1-.37-5.75,145.72,145.72,0,0,1,36-9.22h0c4-.53,8.07-.93,12-1.18a50.6,50.6,0,0,0,1.17,11.33,56,56,0,0,0,1.64,6.1,30.79,30.79,0,0,0,2.22,5.21,1.21,1.21,0,0,0,.36.77,1.28,1.28,0,0,0,.9.37,1.36,1.36,0,0,0,.4,0,1.24,1.24,0,0,0,.88-1.33,11.41,11.41,0,0,1,.76-2.76,13.82,13.82,0,0,1,1.58-2.7,12.83,12.83,0,0,1,1.88-1.88,10.15,10.15,0,0,1,1.7-1,7.21,7.21,0,0,1,1.37-.38,4.58,4.58,0,0,1,.53,0,5.44,5.44,0,0,1,.57,0,7,7,0,0,1,.88.25,5.5,5.5,0,0,1,.9.54,7.38,7.38,0,0,1,1.07,1.09,11.72,11.72,0,0,1,1.21,2.1,10.38,10.38,0,0,1,.61,2.19,10.59,10.59,0,0,1,0,2.18,11.94,11.94,0,0,1-.72,2.56,16.54,16.54,0,0,1-1.92,3.23,23.94,23.94,0,0,1-4.1,4.07,26.6,26.6,0,0,1-4.76,2.88,1.43,1.43,0,0,0-.67,1.64,1.54,1.54,0,0,0,.74.91c1,3.45,1.85,6.94,2.61,10.44a6.07,6.07,0,0,1,1-.65,7.4,7.4,0,0,1,1.52-.6l.14,0q-1-4.85-2.45-9.83a19.71,19.71,0,0,0,1.92-1,2.41,2.41,0,0,1,.84-.57,2.78,2.78,0,0,1,.47-.28,27.25,27.25,0,0,0,2.56-2,18.87,18.87,0,0,0,5.34-7.67,12,12,0,0,0,.7-4.46,11.83,11.83,0,0,0-1.26-4.79,12.53,12.53,0,0,0-1.39-2.12,8.37,8.37,0,0,0-1.73-1.65,14.17,14.17,0,0,0,1-2.43c.28-.83.53-1.72.81-2.9a40.38,40.38,0,0,0,1-6.44,28.67,28.67,0,0,0-.26-6.23,14.85,14.85,0,0,0-1.81-5.29,10.46,10.46,0,0,0-2.06-2.5,9.72,9.72,0,0,0-1.42-1.06,11,11,0,0,0-1.74-.84,12.28,12.28,0,0,0-3.71-.74c-.34,0-.67,0-1,0a20.66,20.66,0,0,0-3.38.3,1,1,0,0,0-.47-.58,28.9,28.9,0,0,0-7.1-3,46.75,46.75,0,0,0-8-1.5,99.72,99.72,0,0,0-10.76-.49c-1.67,0-3.34,0-5,0h-2.42c-1.34,0-2.68,0-4,0a94.4,94.4,0,0,1-11.88-.62,37.35,37.35,0,0,1-9.33-2.4,25.72,25.72,0,0,1-4.93-2.86,23.43,23.43,0,0,1-4-4c-.42-.56-.82-1.15-1.21-1.74s-.58-1-.85-1.44l-.35-.63a1.58,1.58,0,0,0-2.87.37m11,17.76c-.49-.3-1-.62-1.43-1a19.12,19.12,0,0,1-5.82-7.5,16.77,16.77,0,0,1-1.07-3.81l0-.13v-.13a19.7,19.7,0,0,0,2.31,2.75,24.66,24.66,0,0,0,6.15,4.47c4,2.08,8.87,3.31,15.18,3.85,2.54.21,5.29.32,8.66.32,2.08,0,4.17,0,6.25-.08l1.71,0c1.81,0,3.62-.06,5.43-.06a96.9,96.9,0,0,1,11.14.54l.89.11a40.91,40.91,0,0,1,10,2.58c.37.16.75.32,1.12.5a1.09,1.09,0,0,0,.23.09.73.73,0,0,0,0,.31,1.4,1.4,0,0,0,.64.83,1.3,1.3,0,0,0,.68.18l.4,0,.59-.1a19.11,19.11,0,0,1,2.3-.15,15.22,15.22,0,0,1,1.65.1,10.46,10.46,0,0,1,2.28.6,9.73,9.73,0,0,1,1.53.88,8.2,8.2,0,0,1,1.21,1.22,10.49,10.49,0,0,1,1.13,2,16.07,16.07,0,0,1,.92,3.51,32.39,32.39,0,0,1-.17,8.33c-.19,1.3-.42,2.72-.74,4.33l-.12.66c-.21,1-.41,2.05-.54,3.06a6.27,6.27,0,0,0-1.56-.27H988a7.9,7.9,0,0,0-3.59,1,11.31,11.31,0,0,0-3.21,2.57,14.8,14.8,0,0,0-2.43,3.65l-.15.35c-.57-1.75-1-3.07-1.33-4.27a60.6,60.6,0,0,1-1.88-8.73,39.75,39.75,0,0,1-.34-6.26,1.06,1.06,0,0,0-.09-.5,1.76,1.76,0,0,0,0-.34,1.74,1.74,0,0,0-1.62-1.71,190.76,190.76,0,0,0-26.86,3.55,135.94,135.94,0,0,0-26.75,8.36,93,93,0,0,0-9.91,5l-1.05.63c1.1-1.51,2-2.72,2.84-3.81,1.77-2.25,3.61-4.39,5.48-6.35s3.6-3.58,5.41-5.29l1.24-1.17a1.47,1.47,0,0,0,.45-1.07,1.56,1.56,0,0,0-1.56-1.61,1.64,1.64,0,0,0-1.07.43,40.62,40.62,0,0,0-7.47-.67,50.15,50.15,0,0,0-5.1.27,61.06,61.06,0,0,0-6.87,1.08c-.5.1-1,.22-1.5.34,1.23-1.09,2.47-2.13,3.82-3.18l.08-.07.12-.11a64.13,64.13,0,0,1,5.89-3.93,56.41,56.41,0,0,1,6.51-3.25c.66-.28,1.29-.54,1.94-.77a1.29,1.29,0,0,0,.71-.56,1.2,1.2,0,0,0,.12-.91,1.23,1.23,0,0,0-1.15-.89,1,1,0,0,0-.32,0l-1,.33-.11-.08m-7.47,107.5-.32-.05-2.94-.47-5.75-.94a.67.67,0,0,0,.31-.45,12.06,12.06,0,0,1,.6-2.19,5.73,5.73,0,0,1,.5-.87,5.18,5.18,0,0,1,.4-.41l.3-.17a1.81,1.81,0,0,1,.31-.09h.44a5.46,5.46,0,0,1,.66.19,7.87,7.87,0,0,1,1.44.89,21.7,21.7,0,0,1,2.68,2.63c.36.41.7.83,1,1.25l.1.11.5.62Zm7.72,1.39c-.62-.13-1.23-.25-1.85-.36a15.81,15.81,0,0,0-1-3.57l-.21-.52.09,0,.1-.05a5.12,5.12,0,0,1,1.09-.31,3.1,3.1,0,0,1,.43,0,2.3,2.3,0,0,1,.37,0,2.91,2.91,0,0,1,.56.15,2.51,2.51,0,0,1,.45.26,4.07,4.07,0,0,1,.41.42,3.94,3.94,0,0,1,.36.63,6.23,6.23,0,0,1,.36,1.34c0,.48.06,1,.06,1.63a1.08,1.08,0,0,0,.24.7l-1.41-.3m-27.28-.61a5,5,0,0,1,0-1,4,4,0,0,1,.15-.6,3,3,0,0,1,.21-.35l.21-.22.29-.17a3.74,3.74,0,0,1,.48-.12l.33,0H892a1.09,1.09,0,0,0,.82,1.05c4.64,1,9.41,1.8,14,2.56l.19,0,1.84.31c3.31.55,5.79,1,8,1.42l4,.8,1.07.22,1.49.32h-.11l-.18,0a1,1,0,0,0-.62.48,1,1,0,0,0-.11.81c1.31,3.33,2.79,6.64,4.22,9.85l.1.22c1,2.24,2,4.5,3,6.75v-.13c.32.87.68,1.73,1,2.59l.34.83c.27.65.54,1.29.81,1.95l.84,1.95c-.66-.4-1.35-.78-2-1.16A52.09,52.09,0,0,0,923,355a13.3,13.3,0,0,0-3.39-.74h-.36a6.44,6.44,0,0,0-2.58.59,3.58,3.58,0,0,0-1,.65,2.6,2.6,0,0,0-.7,1.09,2,2,0,0,0-.12.92,3.69,3.69,0,0,0,.36,1.25,5.08,5.08,0,0,0,.68,1,7,7,0,0,0-.51,1.36,7.81,7.81,0,0,0-.19,1.37,6.27,6.27,0,0,0,.72,3,.6.6,0,0,0-.06.29,9.36,9.36,0,0,0,.28,2.28,10,10,0,0,0,.81,2.15c.16.33.35.65.54,1a.93.93,0,0,0-.33.35,1.15,1.15,0,0,0-.13,1,13.81,13.81,0,0,0,1.65,3c.19.26.39.51.6.76a24,24,0,0,0-3.09-1.18c-.54-1.35-1.19-2.7-1.82-4l-.11-.22-.55-1.15c-.91-1.94-1.84-3.86-2.79-5.78-2.14-4.35-3.93-7.92-5.64-11.25a215.94,215.94,0,0,0-11.48-20.2,97.21,97.21,0,0,1,12.51,2.93l2.15.64.65.19c1.21.37,2.42.73,3.64,1.08s2.29.62,3.27.85a21.12,21.12,0,0,0,3.47.58,1.33,1.33,0,0,0,1.26-1,1.35,1.35,0,0,0-.13-1,1.51,1.51,0,0,0-.78-.6,27.88,27.88,0,0,0-3.1-1l-.14,0c-1.16-.33-2.32-.63-3.49-.93q-3.37-.85-6.76-1.66A116.56,116.56,0,0,0,892.54,330h0a1,1,0,0,0-.49.11,1.5,1.5,0,0,0-.36-.16,1.88,1.88,0,0,0-.43-.05,1.55,1.55,0,0,0-.82.22.94.94,0,0,0-.22.15ZM924.72,336l-.31-.77a1.17,1.17,0,0,0-.48-.63l-.14-.06a9.7,9.7,0,0,0,1.05.2,1.46,1.46,0,0,0,.29,0c1.54,3.16,3.12,6.63,4.8,10.6.92,2.18,1.83,4.44,2.73,6.69l.62,1.53.14.35c.28.7.57,1.39.85,2.09a1.22,1.22,0,0,1-.07-.17c-.84-1.77-1.78-3.59-2.54-5.06l-.57-1.12c-2.37-4.64-4.33-8.81-6-12.76v0Zm-32.94,2.45a4.34,4.34,0,0,1-.53-.52,4.27,4.27,0,0,1-.3-.51,4.94,4.94,0,0,1-.15-.55,3.53,3.53,0,0,1,0-.65c0-.13,0-.22.06-.31a6.5,6.5,0,0,0,1.6.82l.25.05.2.34.28.46a.81.81,0,0,0-.52.42c-.13.26-.26.52-.37.78a5.69,5.69,0,0,1-.52-.33m2.8,3.15a1,1,0,0,0,.78-.38l.6,1.13.4.72.13.24.23.41a1,1,0,0,0-.35.35,8.7,8.7,0,0,0-.78,1.27l-.44-.31a4.8,4.8,0,0,1-.68-.67,4.36,4.36,0,0,1-.43-.74,6,6,0,0,1-.26-1,5.87,5.87,0,0,1,0-1.11,5,5,0,0,0,.78.08Zm3,6.67a1.13,1.13,0,0,0,1.07-.83l0-.13.62,1.3.65,1.3a.33.33,0,0,0-.12.1c-.21.27-.41.54-.6.82l-.67-.44a4.49,4.49,0,0,1-.69-.69,3.26,3.26,0,0,1-.37-.63,3.22,3.22,0,0,1-.14-.44,1.26,1.26,0,0,0,0-.39l.18,0ZM950.28,362a18.92,18.92,0,0,1-1.75-1.16,19.77,19.77,0,0,1-1.61-1.43c1.25-1.24,2.39-2.41,3.48-3.56s1.68-1.81,2.33-2.57v.86c0,.44,0,.88,0,1.33,0,1.41-.07,2.81-.13,4l0,.67,0,.45c0,.29,0,.58,0,.86v.2a8.37,8.37,0,0,0,0,1.5,5.91,5.91,0,0,0-.66-.36l-.11-.06a1.53,1.53,0,0,0-.69-.17l-.21,0a1.29,1.29,0,0,0-.55-.58M902,357.24a5.07,5.07,0,0,1-.66-.64A4.3,4.3,0,0,1,901,356a3.9,3.9,0,0,1-.18-.67,5.47,5.47,0,0,1,0-.81,8,8,0,0,1,.22-.84,1,1,0,0,0,.64-.32l.18.43.21.43c.34.7.68,1.4,1,2.1a1.05,1.05,0,0,0-.52.48c-.12.2-.22.4-.32.61l-.26-.18M939.28,362a1.16,1.16,0,0,0,.33-.89,11.38,11.38,0,0,0-.86-3.22l-.16-.43c-.29-.8-.6-1.58-.92-2.37l1.42,1a44.32,44.32,0,0,1,3.69,3.42l.81.8a25.94,25.94,0,0,0,5.23,4.18,10,10,0,0,1,.48,1.91,16.66,16.66,0,0,1,0,3.8,19,19,0,0,1-1.2,4.31c-.39.85-.83,1.71-1.36,2.63-.21.36-.44.72-.66,1.08-.34.55-.72,1.13-1,1.71a1.3,1.3,0,0,0-.15.84c-1.28.32-2.28.53-3.23.67a24.32,24.32,0,0,1-3,.19,28.28,28.28,0,0,1-3.5-.23,28.93,28.93,0,0,1-7-1.92,22.93,22.93,0,0,1-4.86-2.8c-.25-.2-.49-.41-.73-.63a14,14,0,0,0,6.17,2.18,1.06,1.06,0,0,0,1-.75,1.11,1.11,0,0,0-.13-.83.92.92,0,0,0-.59-.44,21.43,21.43,0,0,1-3.62-1.11,17.72,17.72,0,0,1-3.76-2.17,14.19,14.19,0,0,1-2.4-2.37,10.28,10.28,0,0,1-1.17-2A4.76,4.76,0,0,1,918,368a9,9,0,0,0,1.25,1.08,25.44,25.44,0,0,0,10.3,4.31c.32.05.65.09,1,.12a1.11,1.11,0,0,0,1-.79,1.1,1.1,0,0,0-.12-.83,1,1,0,0,0-.64-.49,31.88,31.88,0,0,1-7-2.06,19.75,19.75,0,0,1-3.91-2.22,11.74,11.74,0,0,1-1.82-1.74,6.85,6.85,0,0,1-.78-1.31,5.51,5.51,0,0,1-.32-1.14,6.49,6.49,0,0,1,0-1.08,5.34,5.34,0,0,1,.21-.81,6.09,6.09,0,0,0,.74.68,37.26,37.26,0,0,0,4.58,3.17c1.5.9,3.08,1.74,4.69,2.5.68.32,1.37.62,2.1.91a13.35,13.35,0,0,0,1.55.53l.21,0a.85.85,0,0,0,.84-.62.86.86,0,0,0-.6-1c-.31-.1-.61-.22-.91-.34a40.37,40.37,0,0,1-4.6-2.37,48.46,48.46,0,0,1-5.23-3.44l0,0s0,.05,0,.05a18.17,18.17,0,0,1-2.7-2.57,5,5,0,0,1-.44-.73c0-.09-.05-.18-.07-.26a.87.87,0,0,1,.23-.16,5.15,5.15,0,0,1,.92-.23l.32,0,.54,0a13.35,13.35,0,0,1,2.49.77c1.15.5,2.24,1.07,3.54,1.78s2.67,1.51,4.13,2.37c1.23.73,2.55,1.49,3.85,2.19a21,21,0,0,0,3.4,1.53,1.67,1.67,0,0,0,.49.08,1.92,1.92,0,0,0,1.8-1.38,1.84,1.84,0,0,0-.91-2.11h.06a1.35,1.35,0,0,0,1-.46m-2.22,0-.51-.22a17.06,17.06,0,0,0-.81-2.38c.08.19.17.38.26.57l.06.12a9.46,9.46,0,0,0,1.2,2l-.2-.09m-31.75,1a5.1,5.1,0,0,1-.62-.61,4.19,4.19,0,0,1-.34-.58,4.38,4.38,0,0,1-.19-.71,5.43,5.43,0,0,1,0-.7,1.21,1.21,0,0,0,.6-.73c.53,1.12,1.1,2.25,1.68,3.37a.49.49,0,0,0-.13.15l-.22.28a6.9,6.9,0,0,1-.77-.47m4.31,6.76h0a5.68,5.68,0,0,1-1.08-.29,4.42,4.42,0,0,1-.6-.34,3.31,3.31,0,0,1-.33-.32,2.36,2.36,0,0,1-.22-.38,3.31,3.31,0,0,1-.12-.45,3.86,3.86,0,0,1,0-.68,5.94,5.94,0,0,1,.3-1l0-.11A1,1,0,0,0,908,366c.59,1.15,1.24,2.33,1.92,3.5a.64.64,0,0,0-.16.2Zm2.88,5.18a3.61,3.61,0,0,1-.6-.35,3.31,3.31,0,0,1-.27-.26,1.74,1.74,0,0,1-.15-.26,2.85,2.85,0,0,1-.11-.39c0-.2,0-.41,0-.61a5.54,5.54,0,0,1,.21-.8c.66,1.14,1.27,2.08,1.9,3a9.11,9.11,0,0,1-1-.29m22.8,50.87a1.69,1.69,0,0,0,.27-.12,1.1,1.1,0,0,0,1,.83c.68,0,1.33,0,2,0,1.51,0,3.07.06,4.64.18a9,9,0,0,0-.81,1.46c-1.16-.26-2.35-.5-3.54-.72a2.28,2.28,0,0,0-.44-.05,1.66,1.66,0,0,0-.51.07l-3-1.61.08,0a1,1,0,0,0,.24,0m9.21,2.73c.26-.45.51-.87.77-1.27a1.1,1.1,0,0,0,.15-.44l2.27.29-.14-.06c3.13.47,6.28,1.08,9.34,1.82-.11.43-.21.85-.31,1.28l-.09.39-.2.87c-3.69-1-7.55-2-11.79-2.88m26.14,7.69c-3.22-1.3-6.63-2.49-10.43-3.66l-1.79-.54c.28-.85.49-1.76.67-2.54a98.92,98.92,0,0,1,13.59,4.59c2.28,1,4.51,2,6.64,3.08-.21.82-.44,1.66-.74,2.63-2.34-1.18-4.94-2.35-7.94-3.56m-32.34,8.36a49.21,49.21,0,0,1,2-5.93,44.59,44.59,0,0,1,3.72-6.94l3.55.83a57.88,57.88,0,0,0-5.79,15l0,.22-.09.35c-1.18-1.2-2.3-2.4-3.34-3.53m42.43-3.66-.1,0-.1-.05a18,18,0,0,0,.83-2.63c.87.49,1.76,1,2.64,1.49l-.13.29-.11.28a18.4,18.4,0,0,1-.95,1.87c-.68-.41-1.38-.81-2.08-1.2m14.86,12.2c-.25-.35-.51-.7-.78-1a24.86,24.86,0,0,0-1.63-1.91,35.84,35.84,0,0,0-3.64-3.35,57.53,57.53,0,0,0-4.89-3.55,11.74,11.74,0,0,0,1.29-2.46c2.52,1.57,4.92,3.21,7.13,4.9.71.55,1.42,1.12,2.13,1.69l.7.59.39.32.32.26c.25.22.51.43.75.65-.16.54-.34,1.07-.56,1.62a23.22,23.22,0,0,1-1.18,2.32Z" style="fill:#161616"/><path d="M1008.17,341.82c-.06,1.87-.13,4.05-.28,6.37a23.77,23.77,0,0,1,2.56-1.45c.09-1.71.14-3.36.19-4.92a1.2,1.2,0,0,0-.35-.85,1.22,1.22,0,0,0-2.12.85" style="fill:#161616"/><path d="M940.05,299a15.5,15.5,0,0,0-1.67.54l1.47,1.87.26.36.65-.18a1.34,1.34,0,0,0-.37-2.63,1.32,1.32,0,0,0-.34,0" style="fill:#161616"/><path d="M932.6,329.24a1.27,1.27,0,0,0,1.51-.22,1.24,1.24,0,0,0,.19-1.51l-.07-.11c-.57.59-1.11,1.2-1.63,1.84" style="fill:#161616"/><path d="M929.39,282.22c.19.5.38,1,.59,1.51l.15.35c.21-.31.42-.63.64-.93a.84.84,0,0,0-.3-1.15.81.81,0,0,0-.41-.12.9.9,0,0,0-.67.34" style="fill:#161616"/><path d="M904.45,228.51c-.88.77-1.75,1.55-2.58,2.38a2.26,2.26,0,0,1-.48.35c.7-.15,1.39-.28,2.1-.39,1.21-.15,2.44-.19,3.64-.39a.87.87,0,0,0,.64-.84.89.89,0,0,0-.64-.85,8.8,8.8,0,0,0-2.29-.26h-.39" style="fill:#161616"/><path d="M909.34,256.27a8.22,8.22,0,0,0,0,1.11,15.23,15.23,0,0,1,1.8-1.37.94.94,0,0,0-.88-.65.91.91,0,0,0-.91.91" style="fill:#161616"/><path d="M922.48,258.73c.07.62.14,1.25.22,1.87s.17,1.21.27,1.82c0,.12.07.25.11.38a7.72,7.72,0,0,0,.71-3.1,1,1,0,0,0-.74-1,1.09,1.09,0,0,0-.25,0,1.19,1.19,0,0,0-.32.05" style="fill:#161616"/><path d="M958,309a.89.89,0,0,0,0,1.26,8,8,0,0,1,1,1,8.52,8.52,0,0,1,.78,1.34c.09.23.16.45.24.68a.92.92,0,1,0,1.77-.49,8.06,8.06,0,0,0-2.48-3.77,1,1,0,0,0-.63-.26.9.9,0,0,0-.63.26" style="fill:#161616"/><path d="M931.21,286.49l0,.08a1.75,1.75,0,0,0,.31-1,1.72,1.72,0,0,0-.49-1.19,1.81,1.81,0,0,0-1-.48c.37.87.76,1.72,1.15,2.58" style="fill:#161616"/><path d="M910,321.46c0,.37.07.73.12,1.1a1,1,0,0,0,2,0c.05-.26.09-.53.12-.79a21.41,21.41,0,0,1-1.47-3.1c-.21-.55-.4-1.1-.56-1.66a28.77,28.77,0,0,0-.19,4.45" style="fill:#161616"/><path d="M986.45,271.76a1.5,1.5,0,0,0-1.05,1.85,1.59,1.59,0,0,0,.69.9l.29.22a2.47,2.47,0,0,1,.86-.6,3,3,0,0,1,.77-.4l.44-.17.71-.47c-.51-.4-1-.79-1.55-1.18a1.35,1.35,0,0,0-.74-.2,1.86,1.86,0,0,0-.42.05" style="fill:#161616"/><path d="M1040.6,414.05a22,22,0,0,1-2.41.8,12.42,12.42,0,0,0,2.27-.41,6.81,6.81,0,0,0,2.38-1.18,3.25,3.25,0,0,0,.59-.58,25.47,25.47,0,0,1-2.83,1.37" style="fill:#161616"/><path d="M906.87,457.58c-3.69.38-7.37,1-11,1.7-7.23,1.43-14.34,3.41-21.42,5.44-3.26.93-6.5,1.88-9.76,2.79a1.27,1.27,0,0,0,.68,2.45c13.08-3.69,26.12-7.72,39.62-9.57,4.28-.57,8.59-.9,12.91-1.12a1,1,0,0,0,0-2c-1.14-.07-2.28-.1-3.42-.1a74.44,74.44,0,0,0-7.6.42" style="fill:#161616"/><path d="M1002.39,450.71a1.3,1.3,0,0,0-1.26,1.27,1.27,1.27,0,0,0,1.26,1.26,217.23,217.23,0,0,1,24.74-.11c6.87.35,13.71,1,20.53,1.83-.42-.9-.84-1.8-1.22-2.72-2.27-.27-4.55-.52-6.82-.74-8-.77-15.94-1.21-23.93-1.21q-6.66,0-13.3.42" style="fill:#161616"/><path d="M1057.15,453.72c.51.51,1,1,1.58,1.45a1.75,1.75,0,0,1,.4,0,2.4,2.4,0,0,1,1.61.64c.32.3.65.58,1,.85l.58.42c8.49,1.34,17,2.87,25.42,4.43a1.12,1.12,0,0,0,.84-.1,1.14,1.14,0,0,0,.5-.66,1.1,1.1,0,0,0-.76-1.35c-10.35-2.14-20.74-4.12-31.19-5.68l0,0" style="fill:#161616"/><path d="M1090.54,433.5a1,1,0,0,0-.62.48,1,1,0,0,0-.11.8c1.75,4.32,3.44,8.66,4.86,13.1q1.07,3.36,1.89,6.78c.29,1.21.54,2.42.77,3.64-2.29-2.32-4.52-4.7-6.82-7-1.58-1.57-3.18-3.11-4.84-4.58-.82-.74-1.67-1.45-2.52-2.14s-1.73-1.39-2.64-2a.87.87,0,0,0-1.08.14.89.89,0,0,0,0,1.26,32.07,32.07,0,0,1,3.11,3.48,1.47,1.47,0,0,1-.1-.13c3,3.94,5.28,8.4,7.9,12.61a.86.86,0,1,0,1.48-.86c-1.72-2.78-3.28-5.65-5-8.43l-.51-.81c1.13,1.08,2.25,2.19,3.35,3.31,2.86,2.9,5.62,5.88,8.46,8.79a1,1,0,0,0,1.42,0,.94.94,0,0,0,.29-.7,76.66,76.66,0,0,0-3.11-13.71c-.45-1.43-.92-2.85-1.42-4.26,1.19,1.87,2.36,3.75,3.49,5.66,1.4,2.35,2.74,4.75,4,7.19s2.46,5,3.57,7.6a1.15,1.15,0,0,0,.33.33.88.88,0,0,0,.69.08.9.9,0,0,0,.63-1.1,80,80,0,0,0-3.37-7.57c-1.26-2.51-2.62-5-4-7.38-2.8-4.79-5.85-9.43-8.88-14.08a1.08,1.08,0,0,0-.9-.52,1,1,0,0,0-.28,0m-8,14,0-.05,0,.05" style="fill:#161616"/><path d="M1116.29,449a18,18,0,0,0-4,5.56c-1.06,2.2-1.81,4.53-2.66,6.82a1,1,0,0,0,.67,1.18,1,1,0,0,0,.75-.1,1,1,0,0,0,.44-.57c.65-1.77,1.25-3.54,2-5.28a21.45,21.45,0,0,1,2.3-4.17c0,1,0,2,0,3.06a44,44,0,0,1-.11,6.18,1,1,0,0,0,0,.53,1,1,0,0,0,1.68.45,34.49,34.49,0,0,1,5.12-4.84l1.84-1.52-.27,1a43.56,43.56,0,0,1-1.71,5.45l-.25.55a1,1,0,0,0,.16,1.25,1,1,0,0,0,.46.26,1,1,0,0,0,.8-.1,42.59,42.59,0,0,1,4.25-2.79c1.44-.83,2.92-1.57,4.41-2.28,3-1.44,6.09-2.74,9.07-4.24a1,1,0,0,0,.34-1.3.93.93,0,0,0-.56-.43,1,1,0,0,0-.73.09c-3,1.46-6.1,2.74-9.12,4.16a57.19,57.19,0,0,0-6,3.21c.26-.83.5-1.67.73-2.51a44.2,44.2,0,0,1,1.59-5.26l0-.07a1.07,1.07,0,0,0,.14-.52,1,1,0,0,0-1.78-.74,24.14,24.14,0,0,1-2.1,2.07c-.89.77-1.81,1.52-2.71,2.27-1.09.89-2.18,1.81-3.2,2.79,0-1.06,0-2.13,0-3.19s0-2.09,0-3.14a21.45,21.45,0,0,1,.14-2.66l0-.22a.92.92,0,0,0,0-.52,1,1,0,0,0-.45-.58.9.9,0,0,0-.47-.13,1,1,0,0,0-.71.29m-.58,12.56a.2.2,0,0,1,0,.07v-.07m0,.1v0h0v0" style="fill:#161616"/><path d="M1140.4,462.38a75.78,75.78,0,0,0-8.16,2.72,1,1,0,0,0-.66,1.17,1,1,0,0,0,1.17.67c2.66-1.06,5.38-2,8.14-2.78a.93.93,0,0,0-.26-1.82.59.59,0,0,0-.23,0" style="fill:#161616"/><path d="M998.84,459.25c-1.48,0-3,0-4.43,0a.82.82,0,0,0-.81.81.83.83,0,0,0,.81.82c3,0,6.05,0,9.07,0,8.18,0,16.37,0,24.5,1.05a1.81,1.81,0,0,1,.23,0l1.44.21a2.12,2.12,0,0,1,1.24-.39,16.63,16.63,0,0,0,2.12-.1,19,19,0,0,0,2.26-.51,72.66,72.66,0,0,0-7.79-1.27c-3.16-.37-6.33-.56-9.51-.65-2.34-.08-4.69-.1-7-.1-4,0-8.07.07-12.1.08" style="fill:#161616"/><path d="M1028.21,462h0" style="fill:#161616"/><path d="M992.49,465.93a.83.83,0,0,0,.83.82c2.94.16,5.87.31,8.81.44s5.88.28,8.82.35a.8.8,0,0,0,.8-.8.81.81,0,0,0-.8-.81c-2.94-.15-5.88-.27-8.82-.4s-5.87-.27-8.81-.42h0a.83.83,0,0,0-.79.82" style="fill:#161616"/><path d="M993.68,472.08a.47.47,0,0,0,.14.33.52.52,0,0,0,.33.14c2.94.22,5.88.5,8.8.85a.45.45,0,0,0,.32-.77.51.51,0,0,0-.32-.13c-2.92-.37-5.86-.67-8.8-.9h0a.48.48,0,0,0-.45.48" style="fill:#161616"/><path d="M1012.54,439.22a.5.5,0,0,0,0,.73c3.64,3.62,7.44,7.1,11.42,10.35a.58.58,0,0,0,.37.15.53.53,0,0,0,.36-.15.52.52,0,0,0,0-.73c-2-1.65-3.92-3.33-5.82-5.05s-3.78-3.49-5.6-5.3a.48.48,0,0,0-.37-.15.47.47,0,0,0-.36.15" style="fill:#161616"/><path d="M1011.92,422.57a.64.64,0,0,0,0,.89q4.86,6.17,10.16,12,2.68,2.93,5.49,5.74c1.86,1.88,3.75,3.73,5.72,5.5a.65.65,0,0,0,.9,0,.64.64,0,0,0,0-.9c-1.88-1.78-3.75-3.56-5.57-5.38s-3.71-3.79-5.5-5.74c-3.59-3.89-7-7.94-10.31-12.09a.6.6,0,0,0-.44-.19.64.64,0,0,0-.45.19" style="fill:#161616"/><path d="M1023.34,421.75c2.52,2.85,5.12,5.65,7.81,8.35a.66.66,0,0,0,.94,0,.68.68,0,0,0,0-1c-2.65-2.65-5.25-5.35-7.76-8.14-2-2.26-4-4.56-5.91-6.92-.22-.1-.44-.22-.65-.34-.46-.09-.92-.18-1.37-.3q3.36,4.24,6.94,8.3" style="fill:#161616"/><path d="M1028.37,415.57a60.15,60.15,0,0,0,6.45,6.32.68.68,0,0,0,.45.19.65.65,0,0,0,.46-1.1,62.35,62.35,0,0,1-5.73-5.53c-.54.05-1.08.09-1.63.12" style="fill:#161616"/><path d="M941.81,51.93a1.38,1.38,0,0,0,0,1.93c2.66,3,5.51,5.73,8.37,8.48s5.74,5.41,8.61,8.12a152.77,152.77,0,0,1,15.65,16.63l-.1-.12.2.25.11.15-.07-.09A70.31,70.31,0,0,1,983.3,102a62.36,62.36,0,0,1,3.14,9.73c.89,3.8,1.57,7.66,2.09,11.53l0-.26c2.67,20.22,1.67,40.69.4,61-.81,13-1.83,26.06-2,39.13a1.13,1.13,0,0,0,2.26,0c.35-20.19,2.66-40.28,3.59-60.44a284.87,284.87,0,0,0,0-30.51c-.3-5-.85-9.93-1.59-14.85-.36-2.37-.76-4.74-1.26-7.09a59.58,59.58,0,0,0-7-17.81,80.49,80.49,0,0,0-7.2-10.17,159.34,159.34,0,0,0-17.49-17.56q-3.58-3.19-7.21-6.35c-2.42-2.12-4.81-4.27-7.22-6.41a1.46,1.46,0,0,0-1-.39,1.28,1.28,0,0,0-.94.39m32.77,35.35,0-.06a.64.64,0,0,1-.1-.13,1.33,1.33,0,0,0,.14.19" style="fill:#161616"/><path d="M940.49,30.13a1.27,1.27,0,0,0-.45,1.71c.24.49.48,1,.7,1.49a26.18,26.18,0,0,1,1.74,6.27,21.31,21.31,0,0,1,0,4.79,18.39,18.39,0,0,1-1.13,4.25,16.67,16.67,0,0,1-1.85,3.19,15.56,15.56,0,0,1-2.5,2.5,16.06,16.06,0,0,1-3.24,1.87,19.52,19.52,0,0,1-4.32,1.14h0a1.39,1.39,0,0,0-.9.37,1.28,1.28,0,0,0,0,1.8,1.22,1.22,0,0,0,.9.37,22,22,0,0,0,4.38-1,19.09,19.09,0,0,0,3.72-1.74,16.9,16.9,0,0,0,5.44-5.4,17.91,17.91,0,0,0,2.51-7.29,21,21,0,0,0-3.26-13.91,1.36,1.36,0,0,0-1.1-.62,1.28,1.28,0,0,0-.61.17M934,56.1l-.08,0,.08,0" style="fill:#161616"/><path d="M966.25,7.87c0,.51-.07,1-.14,1.55A18.66,18.66,0,0,1,965,13.76a17.24,17.24,0,0,1-2,3.42,18.8,18.8,0,0,1-3.13,3.11,25.9,25.9,0,0,1-5.5,3.16,41.29,41.29,0,0,1-10.25,2.67l.36-.05a51.18,51.18,0,0,1-13.26,0c-.66-.09-1.33-.2-2-.32a1.34,1.34,0,0,0-1,.13,1.29,1.29,0,0,0,.31,2.37,52.73,52.73,0,0,0,15.61.53A37.56,37.56,0,0,0,959.61,24a20.78,20.78,0,0,0,6.72-6.47,17.57,17.57,0,0,0,2.59-9.63,1.35,1.35,0,0,0-1.33-1.34,1.37,1.37,0,0,0-1.34,1.34m-1.32,6c0,.05,0,.1-.07.16s0-.11.07-.16M963.1,17l-.08.1.08-.1" style="fill:#161616"/><path d="M954,25.08a1.51,1.51,0,0,0-.69.91,1.43,1.43,0,0,0,.15,1.16,111.82,111.82,0,0,0,15.69,17.41,77,77,0,0,0,9.48,7.23,56.89,56.89,0,0,0,5,2.87A39.87,39.87,0,0,0,989.08,57l.64.21a1.24,1.24,0,0,0,.95-2.26,88.69,88.69,0,0,1-7.9-4.15,78.63,78.63,0,0,1-7.23-4.92,101.43,101.43,0,0,1-17.76-18l.1.12-.15-.19-.09-.12,0,.05c-.53-.69-1.06-1.38-1.57-2.09a1.65,1.65,0,0,0-.91-.69,1.39,1.39,0,0,0-.4-.06,1.51,1.51,0,0,0-.77.21M975.24,45.6l.3.23ZM957.73,27.78a.18.18,0,0,1,0,.07l-.1-.14.05.07" style="fill:#161616"/><path d="M989.4,4.83c0,1,.12,2.11.21,3.16s.21,2.3.31,3.44c.21,2.22.41,4.44.58,6.66q.51,6.7.67,13.42a217.61,217.61,0,0,1-1,26.78c0,.44-.09.88-.14,1.32a1.28,1.28,0,0,0,1.27,1.27,1.26,1.26,0,0,0,.9-.37,1.37,1.37,0,0,0,.37-.9,229.78,229.78,0,0,0,1.25-26.75q-.06-6.72-.49-13.43c-.28-4.47-.64-8.94-1.33-13.37-.09-.52-.18-1-.29-1.55a1.19,1.19,0,0,0-2.33.32" style="fill:#161616"/><path d="M1095.43,4.67c-3.61,58.18-7.54,116.35-10.43,174.57-2.51,50.4-4.21,100.85-4.15,151.31.86.57,1.74,1.11,2.64,1.61l.53.13q0-39,1-78c1.5-58.21,4.59-116.36,8.08-174.49q2.25-37.56,4.63-75.12a1.17,1.17,0,0,0-1.16-1.17,1.18,1.18,0,0,0-1.17,1.17" style="fill:#161616"/><path d="M1080.88,339.3l0,5.22,1.78.44a2.18,2.18,0,0,1,1.38,1.13c0-1.46,0-2.91,0-4.37,0-1.18,0-2.36,0-3.54-1.06.36-2.11.73-3.15,1.12" style="fill:#161616"/><path d="M1083.45,348.87a2.85,2.85,0,0,1-.52.45l-.55.37a2.18,2.18,0,0,1-.37.49c-.34.34-.69.67-1,1,0,.93,0,1.87,0,2.81,0,3.74.11,7.48.18,11.22l.69-.89a16.13,16.13,0,0,1,1.39-2.09,9.68,9.68,0,0,1,1-1.07q-.09-6.52-.13-13a2.22,2.22,0,0,1-.64.75" style="fill:#161616"/><path d="M1081.81,400.3c.21,7.49.63,15,1.52,22.42s2.2,14.93,5,21.92a1.2,1.2,0,0,0,.51.66,1.09,1.09,0,0,0,1.6-1.24c-.33-1.53-.69-3.06-1-4.59-.39-1.8-.73-3.61-1.08-5.41q-1-5.07-1.66-10.18l.06.42c-1.71-13.06-2-26.23-2.14-39.38a15.12,15.12,0,0,1-1.34-1.2,12.33,12.33,0,0,1-1.72-1.59c.08,6.06.14,12.11.31,18.17" style="fill:#161616"/><path d="M985,104a22.12,22.12,0,0,1-1.6,2.39,22.44,22.44,0,0,1-3.65,3.64,23,23,0,0,1-4.72,2.76,22.27,22.27,0,0,1-5.31,1.47,21.16,21.16,0,0,1-5,0,19.83,19.83,0,0,1-4.6-1.25,20.21,20.21,0,0,1-3.85-2.23,22.28,22.28,0,0,1-3.77-3.81l0,.06a1.42,1.42,0,0,0-.77-.56,1.31,1.31,0,0,0-1,.14,1.35,1.35,0,0,0-.49,1.84,21.43,21.43,0,0,0,3.17,3.62,20.06,20.06,0,0,0,3.69,2.65,20.62,20.62,0,0,0,8.35,2.48,22,22,0,0,0,8.44-1,24.11,24.11,0,0,0,13.41-10.87,1.33,1.33,0,0,0-.47-1.8,1.31,1.31,0,0,0-.66-.18A1.36,1.36,0,0,0,985,104m-1.41,2.15-.13.16Z" style="fill:#161616"/><path d="M920.5,105.73a1.35,1.35,0,0,0-.47,1.81,15.1,15.1,0,0,0,5.34,5.95,13.9,13.9,0,0,0,6.84,2,18.76,18.76,0,0,0,7.11-1.27,26.85,26.85,0,0,0,6.75-3.74,29.59,29.59,0,0,0,3.47-3,1,1,0,0,0-1.46-1.47,27,27,0,0,1-2.77,2.47,25.56,25.56,0,0,1-5.19,3.06,21.18,21.18,0,0,1-4.87,1.39,15.58,15.58,0,0,1-3.86,0,13.55,13.55,0,0,1-2.92-.78,12.54,12.54,0,0,1-2.47-1.46,14.11,14.11,0,0,1-2.36-2.4,19.4,19.4,0,0,1-1.33-2.05,1.32,1.32,0,0,0-1.15-.65,1.41,1.41,0,0,0-.66.17m25,2.55-.18.14.18-.14m-10.25,4.59-.32,0,.32,0" style="fill:#161616"/><path d="M872,80A27.87,27.87,0,0,0,873,89.87a23.84,23.84,0,0,0,1.8,4.3,24.93,24.93,0,0,0,2.55,3.74A25.34,25.34,0,0,0,884,103.5a31.54,31.54,0,0,0,8.19,3.38,40,40,0,0,0,29.37-4,1.63,1.63,0,0,0-1.64-2.82,36,36,0,0,1-3.61,1.83,37.69,37.69,0,0,1-9.25,2.49,38.79,38.79,0,0,1-9.63,0,34.39,34.39,0,0,1-8.1-2.17,28.18,28.18,0,0,1-5.8-3.36,24.32,24.32,0,0,1-4-4,24,24,0,0,1-2.73-4.7,26.41,26.41,0,0,1-1.63-6.05,32.19,32.19,0,0,1-.23-4.17,1.49,1.49,0,0,0-3,0m4.91,10.39a.54.54,0,0,1,0,.11.54.54,0,0,0,0-.11M879.59,95a.76.76,0,0,0,.08.11.76.76,0,0,1-.08-.11m36.66,6.9L916,102l.26-.11m-27.28.2.12.05-.12-.05" style="fill:#161616"/><path d="M849,53.8a18.78,18.78,0,0,0-.17,9.56,19,19,0,0,0,4.08,7.75,22,22,0,0,0,6.81,5.23,26.69,26.69,0,0,0,8.79,2.59,27.83,27.83,0,0,0,4.47.2,1.14,1.14,0,0,0,0-2.28,27.8,27.8,0,0,1-4.18-.19A24.54,24.54,0,0,1,863,75.05a23.43,23.43,0,0,1-4.68-2.7,20.17,20.17,0,0,1-3.27-3.26,19.48,19.48,0,0,1-2.3-3.91,19.56,19.56,0,0,1-1.2-4.5,26.85,26.85,0,0,1,.15-6.52,1.33,1.33,0,0,0-.19-.69,1.36,1.36,0,0,0-.81-.62,1.49,1.49,0,0,0-.36-.05,1.39,1.39,0,0,0-1.32,1m2.5,6.67a.52.52,0,0,0,0,.11.52.52,0,0,1,0-.11m0,.29v0M863,75.07l.21.09-.21-.09" style="fill:#161616"/><path d="M833.28-1.1a18.21,18.21,0,0,0-6,5.89,20.37,20.37,0,0,0-2.88,7.65,34.21,34.21,0,0,0,2,17.59A43.3,43.3,0,0,0,836,45.46a29.86,29.86,0,0,0,6.7,5.14,24,24,0,0,0,3.79,1.65,19.71,19.71,0,0,0,4,.84,17.55,17.55,0,0,0,5.87-.34,1.52,1.52,0,0,0,1.06-1.86,1.54,1.54,0,0,0-1.87-1.06L854.4,50a15.93,15.93,0,0,1-3.78,0,19,19,0,0,1-4.25-1.18A24.92,24.92,0,0,1,841.52,46a33.17,33.17,0,0,1-5.71-5.83,42.35,42.35,0,0,1-5-8.75A42,42,0,0,1,828,21.35a31.25,31.25,0,0,1,0-7.61,23.64,23.64,0,0,1,1.49-5.54,19,19,0,0,1,2.2-3.77,19.24,19.24,0,0,1,3.25-3.19l-.06,0a1.47,1.47,0,0,0,.56-.77,1.46,1.46,0,0,0-.15-1.1,1.46,1.46,0,0,0-1.25-.7,1.37,1.37,0,0,0-.7.19m-1.75,5.66-.08.1.08-.1m-2.18,3.81-.06.14.06-.14m1.49,23.24c0,.05,0,.1.07.16s0-.11-.07-.16M850.33,50l.25,0-.25,0" style="fill:#161616"/><path d="M963.65,21.05a.93.93,0,0,0-.33,1.28c2.64,3.74,5.14,7.56,7.65,11.37,1.24,1.88,2.48,3.76,3.74,5.62s2.56,3.79,4,5.59a.89.89,0,0,0,.42.24.94.94,0,0,0,1.06-1.38c-.61-.91-1.26-1.8-1.88-2.69s-1.27-1.82-1.9-2.74c-1.27-1.86-2.51-3.73-3.75-5.6-2.53-3.81-5-7.62-7.7-11.35a1,1,0,0,0-.55-.43l-.25,0a1,1,0,0,0-.48.12" style="fill:#161616"/><path d="M971.4,16.14a.87.87,0,0,0-.31,1.18q2.74,5.3,5.63,10.53,1.46,2.61,2.95,5.19c.51.89,1,1.77,1.55,2.66s1,1.76,1.62,2.6a1,1,0,0,0,1.27.34.94.94,0,0,0,.33-1.27c-.47-.84-1-1.65-1.48-2.47l-1.58-2.63c-1-1.71-2-3.44-3-5.17-2-3.51-3.93-7.07-5.8-10.65a.84.84,0,0,0-.75-.42.81.81,0,0,0-.43.11" style="fill:#161616"/><path d="M978.12,13.18a.83.83,0,0,0-.3,1.13c2.87,5.13,5.81,10.23,8.89,15.25a.87.87,0,0,0,1.51-.88c-1.52-2.49-3-5-4.52-7.47s-3-5.14-4.45-7.74a.81.81,0,0,0-.72-.4.74.74,0,0,0-.41.11" style="fill:#161616"/><path d="M1133,85a39.22,39.22,0,0,1-1.75,5.34,32.82,32.82,0,0,1-4,6.78,30.32,30.32,0,0,1-5,5,28.82,28.82,0,0,1-5.77,3.39,25.76,25.76,0,0,1-13.78,1.88,30,30,0,0,1-7-1.93,32.94,32.94,0,0,1-4.47-2.37,1.45,1.45,0,1,0-1.47,2.5,32.91,32.91,0,0,0,9.49,4.14,29.33,29.33,0,0,0,9.56.8,30.24,30.24,0,0,0,4.74-.78,31.22,31.22,0,0,0,4.51-1.56,29.6,29.6,0,0,0,7.87-5.07,31.67,31.67,0,0,0,9.89-17.31,1.49,1.49,0,0,0-.15-1.15,1.47,1.47,0,0,0-.89-.69,1.31,1.31,0,0,0-.39,0A1.5,1.5,0,0,0,1133,85m-5.52,11.89-.15.2.15-.2m-24.94,10.46.17,0-.17,0m.25,0,.15,0-.15,0" style="fill:#161616"/><path d="M1162.73,76a27.78,27.78,0,0,1-1.73,2.59,23.34,23.34,0,0,1-3.82,3.81,22.31,22.31,0,0,1-4.31,2.5,23.55,23.55,0,0,1-5.2,1.41,25.22,25.22,0,0,1-6.32,0l.2,0-.22,0h0a28.53,28.53,0,0,1-6-1.59,1.16,1.16,0,0,0-1.31,1.7,1.26,1.26,0,0,0,.69.53,26.89,26.89,0,0,0,17.08,1A22.22,22.22,0,0,0,1165,77.36a1.34,1.34,0,0,0-.48-1.81,1.26,1.26,0,0,0-.65-.17,1.34,1.34,0,0,0-1.16.65m-5.31,6.22-.17.12.17-.12m-16.09,4.1h0" style="fill:#161616"/><path d="M1216.55,26.3a1.52,1.52,0,0,0-.89.68,1.61,1.61,0,0,0-.14,1.14c0,.13,0,.26,0,.39a40.35,40.35,0,0,1,0,10.53,47.41,47.41,0,0,1-3.2,11.43,50,50,0,0,1-6.21,10.65,45.6,45.6,0,0,1-7.7,7.76,37.45,37.45,0,0,1-7.83,4.63,30.93,30.93,0,0,1-7.36,2,28.43,28.43,0,0,1-7,0,30.1,30.1,0,0,1-7.45-2.07l-.84-.38a1.39,1.39,0,0,0-1-.13,1.33,1.33,0,0,0-.8.61,1.35,1.35,0,0,0,.48,1.85,35.4,35.4,0,0,0,4.78,1.83,29.73,29.73,0,0,0,4.77,1,30.07,30.07,0,0,0,9.13-.24,36,36,0,0,0,16.28-8,48.94,48.94,0,0,0,11.84-14.68,46.89,46.89,0,0,0,5.51-18.2,33.45,33.45,0,0,0-.6-9.88,1.46,1.46,0,0,0-1.45-1.08,1.49,1.49,0,0,0-.36.05M1198.33,69l-.09.07.09-.07" style="fill:#161616"/><path d="M1088.25,435.77a1.28,1.28,0,0,0,1.27,1.27,167.06,167.06,0,0,1,19.48,1.51l-.34,0c17.18,2.32,34,7,50.35,12.59s32.24,12.26,48.13,18.94l4.59,1.93,0,0,.07,0,.14.06-.13-.06.14.06a1.4,1.4,0,0,0,1,.13,1.31,1.31,0,0,0,.74-.57,1.28,1.28,0,0,0,.12-1,1.21,1.21,0,0,0-.57-.74c-3.84-1.65-7.67-3.34-11.52-5s-7.92-3.35-11.89-5c-8-3.31-16.14-6.48-24.32-9.42-16.34-5.87-33.1-10.8-50.25-13.62a176.4,176.4,0,0,0-25.65-2.39h0a1.28,1.28,0,0,0-1.25,1.27M1211.76,472h0" style="fill:#161616"/><path d="M775.46,435.59a1,1,0,0,0-.3.71,1,1,0,0,0,.3.7c2.87,3.45,5.7,6.92,8.45,10.47A155.58,155.58,0,0,1,797,466.9a137.62,137.62,0,0,0-12.84-5.09,51.38,51.38,0,0,0-17-2.92,1,1,0,0,0-1,.73,1,1,0,0,0,.46,1.12c8,3.4,16,7.05,23,12.34,1.34,1,2.64,2.15,3.88,3.31a1,1,0,0,0,1.4,0,1,1,0,0,0,0-1.39c-6.47-6.07-14.31-10.22-22.34-13.84l.52.07A76,76,0,0,1,792,466.92h0c2.26.95,4.51,1.95,6.75,3a1,1,0,0,0,.51.13,1,1,0,0,0,.86-1.51,134.5,134.5,0,0,0-10.69-17q-1.44-2-2.91-3.91a177.41,177.41,0,0,1,13.63,15.49l-.15-.19q2.7,3.48,5.17,7.15a1,1,0,0,0,1.32.34,1,1,0,0,0,.35-1.31c-7.44-11.18-16.67-21.05-26.44-30.22q-1.75-1.63-3.53-3.25a1,1,0,0,0-.72-.29.94.94,0,0,0-.69.29" style="fill:#161616"/><path d="M813.91,455.17a1,1,0,0,0-.42.55,73.75,73.75,0,0,0-4.25,15,1.06,1.06,0,0,0,.1.74,1,1,0,0,0,.57.43.93.93,0,0,0,.73-.09.9.9,0,0,0,.44-.57,82.53,82.53,0,0,1,4.18-15.05.92.92,0,0,0-.64-1.12.67.67,0,0,0-.24,0,1,1,0,0,0-.47.13" style="fill:#161616"/><path d="M821,461.55q-3.3,4.2-6.19,8.7a1.1,1.1,0,0,0,1.9,1.11q2.79-4.39,6-8.54a1.08,1.08,0,0,0,.14-.53,1.06,1.06,0,0,0-1-1.05,1,1,0,0,0-.75.31" style="fill:#161616"/><path d="M921.65,464.82c-6.21.21-12.41.44-18.61.82s-12.42.93-18.57,1.91a105.08,105.08,0,0,0-14.66,3.34.76.76,0,1,0,.4,1.47,111.48,111.48,0,0,1,18-3.82l-.2,0c5.56-.74,11.14-1.17,16.73-1.49s11.29-.51,16.93-.86a.7.7,0,0,0,0-1.4h0" style="fill:#161616"/><path d="M890.06,472.08a.83.83,0,0,0-.81.81.81.81,0,0,0,.81.81c3.84-.17,7.7-.18,11.54-.06a.77.77,0,1,0,0-1.53q-3-.15-6-.15-2.77,0-5.55.12" style="fill:#161616"/><path d="M1131.53,497a1,1,0,0,0-.3.73,1.09,1.09,0,0,0,.3.72c1.47,1.84,3,3.68,4.4,5.54l-.17-.21a73.92,73.92,0,0,1,8.91,14c-2.44-1.09-4.94-2-7.46-2.93-1.66-.59-3.33-1.14-5-1.69s-3.32-1.08-5-1.58a.93.93,0,0,0-.71,1.71c2.68,1.36,5.24,3,7.8,4.56s5.14,3.17,7.82,4.55a.9.9,0,0,0,.9-1.55c-2.68-1.38-5.25-3-7.82-4.55l-.37-.23c2.52.86,5,1.78,7.48,2.81l-.24-.09c1.37.57,2.71,1.19,4,1.86a1,1,0,0,0,1,0,1,1,0,0,0,.46-1.13,54.55,54.55,0,0,0-6.4-11.8c-1.38-2-2.84-3.95-4.34-5.87.61.43,1.2.87,1.78,1.31l0,0,.16.12,0,0,0,0a85.21,85.21,0,0,1,13.12,13,.92.92,0,0,0,.67.27,1,1,0,0,0,.67-.27,1,1,0,0,0,.28-.67,1,1,0,0,0-.28-.67c-5.69-7.14-12.44-13.64-20.44-18.12a1.07,1.07,0,0,0-.52-.14,1,1,0,0,0-.73.3m7.23,6.25,0,0-.12-.09.15.11" style="fill:#161616"/><path d="M1162.91,511.9a28.68,28.68,0,0,0-4,8.73.92.92,0,0,0,1.78.49,28.34,28.34,0,0,1,3.72-8.34.87.87,0,0,0-.74-1.31,1,1,0,0,0-.77.43" style="fill:#161616"/><path d="M1171.75,516.12q-3.91,2.13-7.66,4.56a.85.85,0,0,0,.86,1.47q3.73-2.45,7.63-4.6a.84.84,0,0,0,.3-1.13.81.81,0,0,0-.71-.4.87.87,0,0,0-.42.1" style="fill:#161616"/><path d="M1002.39,50q.43,19.8.53,39.58t0,39.6c0,6.53-.12,13.07-.11,19.6a1,1,0,0,0,1,1,1,1,0,0,0,1-1c.18-6.6.21-13.2.24-19.8s0-13.19,0-19.79q-.15-19.8-.57-39.6-.21-9.79-.42-19.59a.75.75,0,0,0-1.5,0" style="fill:#161616"/><path d="M1003.43,160.57c.12,4.31.14,8.63.09,12.94a.72.72,0,1,0,1.43,0q0-6.47-.17-12.94a.68.68,0,1,0-1.35,0" style="fill:#161616"/><path d="M1073.77,19.62a.93.93,0,0,0-.25.6q-1.07,10.08-1.83,20.19t-1.19,20.31q-.91,20.32-1.1,40.68c-.05,5.27-.11,10.54,0,15.81a1.15,1.15,0,1,0,2.29,0c.11-3.37.13-6.75.16-10.13s.07-6.76.09-10.15q.09-10.17.24-20.34t.56-20.35c.27-6.76.63-13.53,1.12-20.28.37-5.26.8-10.51,1.35-15.74a.83.83,0,0,0-.83-.84.85.85,0,0,0-.59.24" style="fill:#161616"/><path d="M1050.55,163.49c-.51,13.89-.36,27.78-.1,41.67s.65,27.78.75,41.68c0,4.92,0,9.84,0,14.77a1.07,1.07,0,0,0,2.14,0c.19-6.93.17-13.88.09-20.81s-.28-13.9-.48-20.84c-.4-13.89-.85-27.78-.78-41.68q0-7.4.29-14.79a.93.93,0,0,0-.93-.93.94.94,0,0,0-.94.93" style="fill:#161616"/><path d="M1060.78,208.64c1.1,18.69.72,37.41.11,56.11s-1.45,37.5-1.2,56.26q.11,7.86.52,15.7c0,.88.1,1.77.16,2.66.38-.11.75-.23,1.13-.37l.7-.35,0-.26c-.24-4.67-.4-9.34-.51-14-.2-9.37-.14-18.74,0-28.1.37-18.76,1.2-37.51,1.32-56.28.07-10.46-.11-20.92-.72-31.36a.77.77,0,0,0-.77-.76.77.77,0,0,0-.76.76" style="fill:#161616"/><path d="M1060.83,345.43c.1,1,.2,2,.34,2.94.09.64.21,1.28.32,1.92s.22,1.46.34,2.19a.5.5,0,0,0,1-.13c0-1.12-.08-2.23-.08-3.35s-.08-2.42-.15-3.63c0-.23,0-.47,0-.7a18.55,18.55,0,0,1-1.71.76" style="fill:#161616"/><path d="M1063.12,395l.06,2.69c0,2.61,0,5.22,0,7.84,0,1.32,0,2.65-.07,4s-.1,2.62-.1,3.93a1,1,0,0,0,.94.94.91.91,0,0,0,.66-.28,1,1,0,0,0,.28-.66c.12-1.24.15-2.49.19-3.74s.05-2.65.06-4c0-2.62,0-5.23-.09-7.84,0-1.69-.1-3.38-.16-5.07a10.21,10.21,0,0,1-1.79,2.19" style="fill:#161616"/><path d="M1049.72-5.55c.63,14.42,1.22,28.83,1.51,43.26s.25,29.11-.28,43.66q-.24,6.5-.61,13c-.24,4.28-.55,8.56-.82,12.84a.88.88,0,0,0,.86.87.91.91,0,0,0,.62-.26,1,1,0,0,0,.25-.61c.87-7.13,1.32-14.31,1.65-21.48s.47-14.51.49-21.77c0-14.56-.39-29.12-1-43.66-.34-8.61-.73-17.22-1.11-25.83a.82.82,0,0,0-.8-.8.81.81,0,0,0-.81.8" style="fill:#161616"/><path d="M1039.54,57.29c.24,4.12.45,8.23.59,12.35.07,2.09.12,4.19.15,6.28,0,1,0,2.09,0,3.14s0,2.09,0,3.14a.83.83,0,0,0,.82.81.8.8,0,0,0,.58-.24.87.87,0,0,0,.24-.57c.11-1,.13-2,.15-2.94s0-2.1,0-3.14c0-2.1-.07-4.19-.16-6.28-.17-4.19-.46-8.37-.72-12.55a.88.88,0,0,0-.87-.86.86.86,0,0,0-.86.86" style="fill:#161616"/><path d="M1006.07,279.12a44,44,0,0,0-6,.4,15.41,15.41,0,0,0-5.66,2,.67.67,0,0,0,.67,1.16c.34-.17.67-.33,1-.48a15.12,15.12,0,0,1,3.43-.92,41.5,41.5,0,0,1,5.9-.15,47.68,47.68,0,0,1,5.06.4l-.29,0a41.07,41.07,0,0,1,10.22,2.79,38.75,38.75,0,0,1,8.26,4.81,36.18,36.18,0,0,1,6.12,6.06l0,0a31,31,0,0,1,4.08,6.9,27.61,27.61,0,0,1,1.79,6.5.41.41,0,0,0,0-.11l0,.14a.43.43,0,0,0,0,.11.64.64,0,0,1,0-.07,26.67,26.67,0,0,1,0,6.68c0-.05,0-.11,0-.17l0,.22v0a27.41,27.41,0,0,1-1.86,6.71l.08-.21a32,32,0,0,1-4.06,6.92,34.75,34.75,0,0,1-5.81,5.94,30.09,30.09,0,0,1-6.45,3.75,33.21,33.21,0,0,1-7.9,2.13,38.18,38.18,0,0,1-9.73,0,40,40,0,0,1-10-2.73,38.12,38.12,0,0,1-8.12-4.73,34.35,34.35,0,0,1-5.64-5.6A26.14,26.14,0,0,1,978,322a31.38,31.38,0,0,1-2-7.67,35.91,35.91,0,0,1,0-9,34.74,34.74,0,0,1,2.31-8.44,30.25,30.25,0,0,1,3.65-6.24,25.55,25.55,0,0,1,4.13-4.12,22.82,22.82,0,0,1,5-2.87,1.32,1.32,0,0,0,.63-.83,1.4,1.4,0,0,0-1-1.71l-.38-.05a1.34,1.34,0,0,0-.7.19,24.26,24.26,0,0,0-5.7,3.46,26.09,26.09,0,0,0-4.55,4.78,28.35,28.35,0,0,0-3.26,5.55,35.55,35.55,0,0,0-2.18,6.43,36.85,36.85,0,0,0-.92,6.79,36,36,0,0,0,.35,6.8,30.11,30.11,0,0,0,4.46,12.15,30.88,30.88,0,0,0,4.51,5.36,37,37,0,0,0,5.74,4.47,40,40,0,0,0,13.43,5.32c9.36,1.89,19.62.47,27.48-5.2a32.85,32.85,0,0,0,5.59-5.21,37.56,37.56,0,0,0,4.51-6.48,28.1,28.1,0,0,0,.94-25.8,33.11,33.11,0,0,0-7.76-10.56,38.5,38.5,0,0,0-11.85-7.38,37.88,37.88,0,0,0-13.88-2.62h-.5m-24.92,48.29.08.1-.08-.1m5.84,5.8.08.07-.08-.07m42,1.49-.18.14.18-.14m11.65-19.36h0v0m0-6.73v-.07a.17.17,0,0,1,0,.07" style="fill:#161616"/><path d="M1003.47,274.47a22.44,22.44,0,0,0-.16,5.85c.11,2,.28,4.06.38,6.09a1.62,1.62,0,0,0,1.6,1.59,1.6,1.6,0,0,0,1.6-1.59l-.27-5.79c0-1-.11-2-.17-3.05a17.86,17.86,0,0,0-.37-3.1,1.35,1.35,0,0,0-2.61,0" style="fill:#161616"/><path d="M999.83,274.88a4.59,4.59,0,1,0,4.59-4.59,4.64,4.64,0,0,0-4.59,4.59" style="fill:#161616"/><path d="M1003.62,265.87a10.1,10.1,0,0,0-3.47,1.69,12.84,12.84,0,0,0-2.88,3,.93.93,0,0,0,.33,1.26.91.91,0,0,0,.72.1,1,1,0,0,0,.55-.43l.2-.27a11.32,11.32,0,0,1,1.65-1.67,8.25,8.25,0,0,1,3.87-1.68,8.53,8.53,0,0,1,1.75,0,9,9,0,0,1,1.69.47,13.21,13.21,0,0,1,1.82,1.05,1,1,0,0,0,1.26-1.63,7.7,7.7,0,0,0-3.56-1.92,8.05,8.05,0,0,0-1.76-.2,9.34,9.34,0,0,0-2.17.27m.89,2h0" style="fill:#161616"/><path d="M1002.68,262.23a11.13,11.13,0,0,0-4.2,1.56,11,11,0,0,0-3.51,3.58,1.62,1.62,0,0,0,2.79,1.63c.15-.25.32-.5.49-.74a10,10,0,0,1,1.42-1.41,10.63,10.63,0,0,1,1.81-1.07,12.31,12.31,0,0,1,2.53-.69,13.48,13.48,0,0,1,2.84,0,17.06,17.06,0,0,1,3.84,1.11,1.18,1.18,0,0,0,1.34-.54,1.21,1.21,0,0,0,.12-.91,1.25,1.25,0,0,0-.54-.71,11,11,0,0,0-4.18-1.72,14.46,14.46,0,0,0-2.37-.27h-.29a14.74,14.74,0,0,0-2.09.18" style="fill:#161616"/><path d="M1001.41,257.7a17,17,0,0,0-3,1.05,13.53,13.53,0,0,0-2.53,1.46,12.45,12.45,0,0,0-4,4.52,1.76,1.76,0,0,0-.16,1.29,1.67,1.67,0,0,0,3.06.4,10.12,10.12,0,0,1,.86-1.4,11.32,11.32,0,0,1,1.73-1.73,14.57,14.57,0,0,1,2.84-1.64,16.11,16.11,0,0,1,3.41-.94,13.88,13.88,0,0,1,3.09,0,12,12,0,0,1,2.28.62,10,10,0,0,1,1.91,1.14l-.06,0a1.32,1.32,0,0,0,1.83-.06,1.36,1.36,0,0,0,0-1.89,9.5,9.5,0,0,0-5-2.84,12.16,12.16,0,0,0-2.81-.31,16,16,0,0,0-3.45.39" style="fill:#161616"/><path d="M976.84,302.62c-1.78.58-2.6,2.46-3,4.14a.82.82,0,0,0,0,.54,1.24,1.24,0,0,0-.51.74,11.48,11.48,0,0,0-.13,3.46,11,11,0,0,0,.31,1.62,9.91,9.91,0,0,0,.59,1.57,8.34,8.34,0,0,0,1.58,2.27,6.48,6.48,0,0,0,2,1.46,5.3,5.3,0,0,0,2.43.55,4.49,4.49,0,0,0,2.33-.74c1.75-1.17,2.51-3.3,2.8-5.3a9.61,9.61,0,0,0,.13-1.42,8.44,8.44,0,0,0-.15-1.41,9.67,9.67,0,0,0-.89-2.57,10.83,10.83,0,0,0-3.41-4,5.4,5.4,0,0,0-3-1.07,3.7,3.7,0,0,0-1.09.17m1.29,1.63a3.4,3.4,0,0,1,.71.2,5.91,5.91,0,0,1,1.08.64,9.15,9.15,0,0,1,1.41,1.44,11.29,11.29,0,0,1,1.24,2.13,9.61,9.61,0,0,1,.55,2,8,8,0,0,1,0,1.38,11.08,11.08,0,0,1-.62,2.36,6.89,6.89,0,0,1-.6,1.06,4.94,4.94,0,0,1-.56.56,3.82,3.82,0,0,1-.48.29,4.42,4.42,0,0,1-.52.14,3.77,3.77,0,0,1-.58,0,3.58,3.58,0,0,1-.71-.2,5.57,5.57,0,0,1-.85-.5,7,7,0,0,1-.9-.91,7.73,7.73,0,0,1-.87-1.49,9.64,9.64,0,0,1-.53-2,10.86,10.86,0,0,1,0-2.35,2.51,2.51,0,0,1,0-.27,1.42,1.42,0,0,0-.14-1,1.24,1.24,0,0,0-.43-.45.25.25,0,0,0,0-.07,9.36,9.36,0,0,1,.37-1.17,5.54,5.54,0,0,1,.56-1,3.64,3.64,0,0,1,.43-.45,3.26,3.26,0,0,1,.4-.24,2,2,0,0,1,.42-.11,2.44,2.44,0,0,1,.54,0m4.4,4.31,0,.07,0-.07m.05.12.06.13-.06-.13" style="fill:#161616"/><path d="M1003.38,310.21a8.86,8.86,0,0,0-2.41,2.69,7,7,0,0,0-.9,3.38,6.41,6.41,0,0,0,1.35,3.85c.11.15.23.3.35.44a6.61,6.61,0,0,0,1,1.38,7,7,0,0,0,2.23,1.63c3.39,1.6,8.14.91,10.29-2.38a6.65,6.65,0,0,0,1-2.94,9.62,9.62,0,0,0-.49-3.72,10,10,0,0,0-2.31-4,6.84,6.84,0,0,0-3.28-1.86,7.11,7.11,0,0,0-1.66-.2,8.66,8.66,0,0,0-5.11,1.77m5.9.1a5.83,5.83,0,0,1,1.3.36,6.5,6.5,0,0,1,1.14.66,7.66,7.66,0,0,1,1.06,1.07,9.37,9.37,0,0,1,1.15,2l0-.08,0,.09a.54.54,0,0,1,.05.11.36.36,0,0,0,0-.09,10.74,10.74,0,0,1,.7,2.43,7.4,7.4,0,0,1,0,1.76,5.55,5.55,0,0,1-.35,1.33,5.47,5.47,0,0,1-.63,1.07,6.1,6.1,0,0,1-1,.94,7.92,7.92,0,0,1-1.39.79,8.81,8.81,0,0,1-1.83.48,9,9,0,0,1-2.07,0h.06l-.36-.05a.41.41,0,0,0-.29-.35l-.55-.21a8.41,8.41,0,0,1-1.47-.88A10.16,10.16,0,0,1,1003,320a8.06,8.06,0,0,1-.94-1.57c-.08-.22-.16-.44-.22-.66a8.74,8.74,0,0,1,.06-1.77s0,.08,0,.12a12,12,0,0,1,.56-2.29,5.31,5.31,0,0,1,.42-.63,8.7,8.7,0,0,1,1.39-1.39,9.91,9.91,0,0,1,1.66-1,8.58,8.58,0,0,1,1.78-.5,7.4,7.4,0,0,1,1.56,0m-3.19.44-.14.06.14-.06m-3.15,2.36,0,0,0,0m11.71,3.81s0,.07,0,.11,0-.07,0-.11m-12.53,1.56,0,0,0,0m2.59,3.18.1.07Zm8.1.22-.09.06.09-.06m-6.53.73.09,0-.09,0m7.66-8.19v0h0v0" style="fill:#161616"/><path d="M1007.36,324.14a26.85,26.85,0,0,0,1.36,7.27,19.07,19.07,0,0,0,1.56,3.37,14.48,14.48,0,0,0,2.36,3,.59.59,0,1,0,.83-.83l-.42-.51a18.93,18.93,0,0,1-2.23-3.84,25.33,25.33,0,0,1-1.62-6c-.1-.79-.18-1.6-.23-2.4a.81.81,0,1,0-1.61,0m1.81,2.2c0,.06,0,.11,0,.18l0-.18" style="fill:#161616"/><path d="M1020.67,286.43a23,23,0,0,0-5,3.43,23.75,23.75,0,0,0-3.93,4.67c-.56.86-1.08,1.75-1.55,2.65s-.91,1.92-1.31,2.9a41.09,41.09,0,0,0-1.84,5.83c-.15.62-.28,1.24-.4,1.86a1,1,0,0,0,.1.71,1,1,0,0,0,.55.43.93.93,0,0,0,.71-.1.92.92,0,0,0,.43-.55c.31-1.62.67-3.22,1.13-4.8a42.09,42.09,0,0,1,1.67-4.77,31.61,31.61,0,0,1,1.64-3.36,27.92,27.92,0,0,1,2-3.07,19.93,19.93,0,0,1,3.44-3.49,15.83,15.83,0,0,1,2.73-1.67.39.39,0,0,0-.19-.72.53.53,0,0,0-.2.05m-5.78,5.84,0,0,0,0" style="fill:#161616"/><path d="M1032.48,337.43c-1,.36-2,.81-3.06,1.25s-2.08.94-3.12,1.42c-2,.94-4.09,1.88-6.16,2.76a79.62,79.62,0,0,1-16.32,5.09,1.09,1.09,0,0,0-.68.53,1.13,1.13,0,0,0-.12.88,1.15,1.15,0,0,0,.53.69,1.25,1.25,0,0,0,.89.12,79.46,79.46,0,0,0,14.79-4.29c2.38-.95,4.73-2,7-3.06,1.15-.54,2.29-1.1,3.41-1.68a34.57,34.57,0,0,0,3.51-2,1,1,0,0,0,.44-1.05,1,1,0,0,0-.9-.7.78.78,0,0,0-.26,0m-12.07,5.31-.13.06.13-.06" style="fill:#161616"/><path d="M1002.55,348.48c-3.83,3.81-6.37,8.77-8.21,13.8a60.53,60.53,0,0,0-3.52,18,50.65,50.65,0,0,0,.38,9,37.73,37.73,0,0,0,2,8.25,29.8,29.8,0,0,0,1.67,3.69A24.51,24.51,0,0,0,997,404.4a25.88,25.88,0,0,0,6.49,5.67,43.3,43.3,0,0,0,8.6,4.12,56.63,56.63,0,0,0,9.41,2.46,45.76,45.76,0,0,0,18.43-.25,40.62,40.62,0,0,0,9.47-3.65,44.51,44.51,0,0,0,8.33-5.8,42,42,0,0,0,6.71-7.5,36.51,36.51,0,0,0,4.47-8.86,35.8,35.8,0,0,0,1.62-6.78c.19-1.2.32-2.4.39-3.61s0-2.5,0-3.75a1,1,0,1,0-2,0,28.61,28.61,0,0,1-.31,4.43l0-.22c0,.08,0,.16,0,.25v0a29.32,29.32,0,0,1-.82,3.94,37.12,37.12,0,0,1-1.43,4,42.52,42.52,0,0,1-22.55,22.37,40.07,40.07,0,0,1-9.7,2.75,47,47,0,0,1-12-.23l.39.06a53.46,53.46,0,0,1-13.26-3.53,34.68,34.68,0,0,1-7.11-4,21.75,21.75,0,0,1-3.87-3.8,24.55,24.55,0,0,1-2.79-4.88,35.67,35.67,0,0,1-2.25-8.56v0s0-.07,0-.1a1,1,0,0,0,0-.17s0,.07,0,.11a53.86,53.86,0,0,1,.12-14,58.22,58.22,0,0,1,3.9-14.48l-.1.24a38.43,38.43,0,0,1,4.67-8.26l0,.05a24,24,0,0,1,2.2-2.51,1,1,0,0,0,0-1.42,1,1,0,0,0-.71-.29,1,1,0,0,0-.71.29m-.63,3.72,0,.06,0-.06m-8.6,22.72s0,.06,0,.09Zm67.61,23-.09.11.09-.11m-67.72-9v0m75.36-8h0v0" style="fill:#161616"/><path d="M1032.73,346.81a1.34,1.34,0,0,0-.89.36,1.29,1.29,0,0,0-.36.89,1.27,1.27,0,0,0,1.25,1.26,62.09,62.09,0,0,1,13.14.41,81.09,81.09,0,0,1,20.31,5.69l-.32-.14c2.79,1.19,5.53,2.51,8.19,4q2,1.08,3.84,2.26l1.94,1.21c.63.4,1.29.79,1.91,1.2a1.07,1.07,0,0,0,1.3-.16,1.13,1.13,0,0,0,.31-.76,1,1,0,0,0-.31-.75c-.62-.5-1.22-1-1.85-1.48s-1.34-1-2-1.44c-1.34-.9-2.73-1.73-4.14-2.53a80.36,80.36,0,0,0-28.29-9.55,68.41,68.41,0,0,0-9.15-.64c-1.62,0-3.23.06-4.85.2m12.92,2.89h0" style="fill:#161616"/><path d="M1036.38,355.49a1.3,1.3,0,1,0,0,2.6,68.52,68.52,0,0,1,10,.61,84.63,84.63,0,0,1,21,5.84q2.83,1.2,5.6,2.56c.89.44,1.76.91,2.63,1.38s1.83,1,2.72,1.51a.92.92,0,0,0,.93-1.59c-1.26-.87-2.54-1.71-3.87-2.49s-2.71-1.54-4.1-2.24a77.08,77.08,0,0,0-8.9-3.73,79.67,79.67,0,0,0-18.72-4.14q-3.2-.32-6.4-.32h-1" style="fill:#161616"/><path d="M1080,362.44a10.5,10.5,0,0,0-2.58,6.68,1.66,1.66,0,0,0,1.66,1.65,1.68,1.68,0,0,0,1.66-1.65c0-.19,0-.37,0-.56a9.93,9.93,0,0,1,.45-1.68,10.38,10.38,0,0,1,.91-1.54l.34-.41a1.83,1.83,0,0,0,.52-1.25,1.77,1.77,0,0,0-.52-1.24,1.83,1.83,0,0,0-1.27-.51,1.6,1.6,0,0,0-1.21.51" style="fill:#161616"/><path d="M1077.92,372.78a18.93,18.93,0,0,0,1.4,7.44,15.22,15.22,0,0,0,4.06,5.79,11.34,11.34,0,0,0,2.82,1.82,12.76,12.76,0,0,0,1.6.59,12.24,12.24,0,0,0,1.81.32,10.35,10.35,0,0,0,3.46-.25,11.63,11.63,0,0,0,3.52-1.49,13.9,13.9,0,0,0,2.74-2.21.88.88,0,0,0-1.07-1.38,19.71,19.71,0,0,1-3.61,2.11,12.49,12.49,0,0,1-2.69.75,10.17,10.17,0,0,1-2.34,0,10.56,10.56,0,0,1-2-.56,11.49,11.49,0,0,1-2.27-1.34,13.7,13.7,0,0,1-2.07-2.1,15.66,15.66,0,0,1-1.77-3,16.93,16.93,0,0,1-1.11-4.07,18.89,18.89,0,0,1-.14-2.38,1.15,1.15,0,0,0-2.29,0m16.69,12.76-.11,0,.11,0m-2.7.74-.15,0,.15,0" style="fill:#161616"/><path d="M1090.91,373.49a1.4,1.4,0,0,0-.62.81,1.29,1.29,0,0,0,.14,1c1.83,2.41,3.9,4.63,5.76,7,.49.64,1,1.29,1.42,2a1.19,1.19,0,1,0,2.06-1.21c-1.06-1.58-2.19-3.11-3.35-4.64s-2.46-3.21-3.77-4.75a1.24,1.24,0,0,0-.93-.39,1.44,1.44,0,0,0-.71.18m5.15,8.68.11.13-.11-.13" style="fill:#161616"/><path d="M1091.13,372.9a1.36,1.36,0,0,0-1.34,1.33,1.34,1.34,0,0,0,1.34,1.34,54.53,54.53,0,0,1,10.68.53c1.9.26,3.79.59,5.69.79a1.23,1.23,0,0,0,.32-2.41c-1.29-.29-2.61-.5-3.92-.71s-2.87-.43-4.31-.6a51,51,0,0,0-5.8-.36c-.88,0-1.77,0-2.66.09" style="fill:#161616"/><path d="M1093.72,354.16a14.36,14.36,0,0,0-4.8.93,18,18,0,0,0-5.14,3,1.35,1.35,0,0,0-.22,1.64,1.37,1.37,0,0,0,1.85.49,21.17,21.17,0,0,1,3.67-2.09,14.46,14.46,0,0,1,3.27-.91,10.83,10.83,0,0,1,5.67.75,14.16,14.16,0,0,1,2.76,1.62,17,17,0,0,1,2.47,2.48,18.78,18.78,0,0,1,2.18,3.72,19.79,19.79,0,0,1,1.24,4.58,20.25,20.25,0,0,1,0,4.47,1.33,1.33,0,0,0,.41,1,1.4,1.4,0,0,0,1,.42,1.42,1.42,0,0,0,1-.42,1.5,1.5,0,0,0,.41-1,21.13,21.13,0,0,0-1.42-10,19.31,19.31,0,0,0-2.31-4.2,17.32,17.32,0,0,0-3.48-3.57,13.93,13.93,0,0,0-8.5-2.94Z" style="fill:#161616"/><path d="M1035.82,337.18a1,1,0,0,0,1,1c.75,0,1.51.12,2.26.21a33.93,33.93,0,0,1,8,2.22,45.5,45.5,0,0,1,9.78,5.85l-.25-.19c1.35,1,2.65,2.14,3.92,3.27s2.48,2.27,3.75,3.38a.91.91,0,0,0,1.42-1.1,29.9,29.9,0,0,0-5.64-6,45.09,45.09,0,0,0-7-4.74,38.6,38.6,0,0,0-15.75-4.85l-.49,0h0a1,1,0,0,0-.93,1m3,1.16.1,0-.1,0" style="fill:#161616"/><path d="M1065.9,361.78a1.3,1.3,0,0,0-.46,1.77c.33.63.63,1.26.91,1.91a32.57,32.57,0,0,1,2.11,8,37.08,37.08,0,0,1,.17,7.88.68.68,0,0,0,1.33.18,25.22,25.22,0,0,0,.64-9.63,27.18,27.18,0,0,0-2.93-9.64,1.25,1.25,0,0,0-1.12-.64,1.34,1.34,0,0,0-.65.17" style="fill:#161616"/><path d="M1021.13,343a1.51,1.51,0,0,0-.84.65,57.14,57.14,0,0,0-8.31,17.65,64.37,64.37,0,0,0-1.78,9.44,66.51,66.51,0,0,0-.43,9.88.91.91,0,0,0,1.82,0c.14-2.74.34-5.48.69-8.2a68.59,68.59,0,0,1,1.66-8.38,64,64,0,0,1,2.67-8,59.3,59.3,0,0,1,6.12-11,1.36,1.36,0,0,0,.14-1.08,1.42,1.42,0,0,0-.65-.85,1.52,1.52,0,0,0-.72-.19,1.57,1.57,0,0,0-.37,0m-4.42,12.81-.1.24.1-.24" style="fill:#161616"/><path d="M1003.06,380.43a42.79,42.79,0,0,1-8.84,2.18c-.53.07-1.07.13-1.6.18a1.17,1.17,0,0,0-.78.32,1.11,1.11,0,0,0-.33.78,1.07,1.07,0,0,0,.33.78,1.05,1.05,0,0,0,.78.33,39.54,39.54,0,0,0,5.62-1,38.54,38.54,0,0,0,5.31-1.79,1,1,0,0,0,.56-.43,1,1,0,0,0,.1-.72,1,1,0,0,0-.9-.7.69.69,0,0,0-.25,0" style="fill:#161616"/><path d="M1033.77,414.61a1.32,1.32,0,0,0-.77.6,1.23,1.23,0,0,0-.13,1c1.05,2.69,1.93,5.43,2.74,8.2s1.63,5.72,2.4,8.6,1.57,5.74,2.48,8.58c.46,1.41,1,2.82,1.48,4.21.28.74.59,1.47.9,2.19a20.17,20.17,0,0,0,1,2,1.36,1.36,0,0,0,1.55.63,1.39,1.39,0,0,0,1-1.68c-.32-1.35-.77-2.68-1.18-4s-.9-2.84-1.34-4.26c-.89-2.84-1.77-5.69-2.66-8.52s-1.74-5.51-2.68-8.24-2-5.61-3.11-8.38a1.35,1.35,0,0,0-.59-.78,1.37,1.37,0,0,0-.65-.17,1.39,1.39,0,0,0-.35,0" style="fill:#161616"/><path d="M1043.45,412.37a1.53,1.53,0,0,0-1,1.86q2.31,9,4.94,17.85c.88,3,1.83,6,2.76,9s1.89,6,3,8.9a1.22,1.22,0,0,0,.53.69,1.17,1.17,0,0,0,.88.11,1.15,1.15,0,0,0,.8-1.41c-.72-2.95-1.57-5.86-2.43-8.77s-1.74-6-2.6-9.06c-1.72-6-3.41-12.06-5-18.13a1.52,1.52,0,0,0-1.47-1.11,1.74,1.74,0,0,0-.39.05" style="fill:#161616"/><path d="M1054.31,452.1c-.2.18-.42.36-.63.53a9.16,9.16,0,0,1-1.59.95,7.83,7.83,0,0,1-1.34.37,8.3,8.3,0,0,1-1.41,0,8.53,8.53,0,0,1-1.55-.44l-.32-.15a1.64,1.64,0,0,0-1.19-.16,1.6,1.6,0,0,0-.92.71,1.55,1.55,0,0,0,.55,2.11,10.38,10.38,0,0,0,2.63,1,8.51,8.51,0,0,0,3.1.07,7.81,7.81,0,0,0,2.73-1,7.19,7.19,0,0,0,2.29-2.17,1.49,1.49,0,0,0-1.29-2.25,1.6,1.6,0,0,0-1.06.43" style="fill:#161616"/><path d="M1050.1,443.45c-.2.2-.41.39-.63.58a8.84,8.84,0,0,1-1.3.76,7.53,7.53,0,0,1-1.46.4,8.92,8.92,0,0,1-1.79,0,1.37,1.37,0,0,0-1.36,1.36,1.35,1.35,0,0,0,.4,1,1.54,1.54,0,0,0,1,.4,8.92,8.92,0,0,0,3.84-.39,7.27,7.27,0,0,0,3.2-2.19,1.4,1.4,0,0,0,.39-.94,1.29,1.29,0,0,0-.39-.93,1.33,1.33,0,0,0-1.86,0" style="fill:#161616"/><path d="M1047.36,432.49a16.22,16.22,0,0,1-2.38,1.32,13,13,0,0,1-3,.82,11.9,11.9,0,0,1-1.34.08,1.23,1.23,0,0,0-1.2,1.21,1.21,1.21,0,0,0,1.2,1.2,13.4,13.4,0,0,0,7.87-2.58,1.36,1.36,0,0,0,.54-.71,1.19,1.19,0,0,0-1.17-1.51,1,1,0,0,0-.57.17" style="fill:#161616"/><path d="M1043,422.38a21.27,21.27,0,0,1-4.59,1.21l-.93.1a1.55,1.55,0,0,0-1,.43,1.48,1.48,0,0,0,1,2.52,22,22,0,0,0,6.3-1.45,1.62,1.62,0,0,0,.87-.67,1.47,1.47,0,0,0-.52-2,1.56,1.56,0,0,0-.77-.21,1.09,1.09,0,0,0-.36.06m-4.66,1.22-.19,0,.19,0" style="fill:#161616"/><path d="M1031.75,347.21a10.93,10.93,0,0,0-1,1.37,8.92,8.92,0,0,0-.64,1.49,7.09,7.09,0,0,0-.35,3.06,7.44,7.44,0,0,0,.92,2.87,7.71,7.71,0,0,0,2.25,2.37,1.08,1.08,0,0,0,1.3-1.7,5.41,5.41,0,0,1-1.44-1.95,6.3,6.3,0,0,1-.31-1.13,7.38,7.38,0,0,1,0-1.41,7.25,7.25,0,0,1,.36-1.31,8.4,8.4,0,0,1,.86-1.45l.1-.12a1.57,1.57,0,0,0,.43-1.05,1.47,1.47,0,0,0-1.47-1.47,1.41,1.41,0,0,0-1,.43" style="fill:#161616"/><path d="M1045,347.53a12.41,12.41,0,0,0-1,2.18,9.55,9.55,0,0,0-.48,2.48,7.65,7.65,0,0,0,1.33,4.75,1,1,0,1,0,1.75-1c-.12-.22-.23-.44-.34-.67a8.71,8.71,0,0,1-.51-1.88,8.53,8.53,0,0,1,0-1.75,9,9,0,0,1,.53-1.91,10.83,10.83,0,0,1,.58-1.12,1.07,1.07,0,0,0-.38-1.44,1,1,0,0,0-.53-.15,1.09,1.09,0,0,0-.93.53" style="fill:#161616"/><path d="M1057.59,350.82a7.86,7.86,0,0,0-2.55,3.83,6.45,6.45,0,0,0-.23,2.23,7.35,7.35,0,0,0,.66,2.51.93.93,0,0,0,.38.38,1.08,1.08,0,0,0,.81.11,1.05,1.05,0,0,0,.73-1.29,7.54,7.54,0,0,1-.34-1.3,6.18,6.18,0,0,1,0-1.29,6.47,6.47,0,0,1,.33-1.22,7.05,7.05,0,0,1,.7-1.18,8.33,8.33,0,0,1,1.15-1.15,1.15,1.15,0,0,0,.34-.82,1.16,1.16,0,0,0-1.16-1.15,1.19,1.19,0,0,0-.81.34" style="fill:#161616"/><path d="M1067.72,355.68a8.11,8.11,0,0,0-1.09,2.65,8.24,8.24,0,0,0,0,3.09.92.92,0,0,0,1.8-.24,8,8,0,0,1,0-1.29,9.4,9.4,0,0,1,.46-1.71,10.22,10.22,0,0,1,.75-1.38,1.1,1.1,0,0,0-.4-1.52,1,1,0,0,0-.54-.15,1.16,1.16,0,0,0-1,.55" style="fill:#161616"/><path d="M1044.12,453.48A82.3,82.3,0,0,1,1033,458.9c-1.93.84-3.87,1.68-5.77,2.6a33.67,33.67,0,0,0-5.45,3.17,1.73,1.73,0,0,0-.74,1,1.63,1.63,0,0,0,.17,1.24,1.6,1.6,0,0,0,1,.73,1.63,1.63,0,0,0,1.24-.16c1.8-.87,3.58-1.8,5.4-2.65s3.86-1.71,5.79-2.56a81.49,81.49,0,0,0,11.27-5.69,1.79,1.79,0,0,0,.64-2.42,1.82,1.82,0,0,0-1.56-.88,1.61,1.61,0,0,0-.87.24" style="fill:#161616"/><path d="M1020,466.64a.78.78,0,0,0-.47.36.86.86,0,0,0-.08.61c0,.17,0,.34.07.5v0a20.45,20.45,0,0,0,.32,2.2.75.75,0,0,0,1.48-.2,12.12,12.12,0,0,0-.12-1.34c-.07-.52-.15-1-.22-1.55a.78.78,0,0,0-.36-.47.84.84,0,0,0-.41-.11.69.69,0,0,0-.2,0" style="fill:#161616"/><path d="M1085.51,466.33l-.29.14a110.56,110.56,0,0,1-25.93,6.77l.31,0a96.49,96.49,0,0,1-25.35.3l.29,0a51.83,51.83,0,0,1-13.09-3.34l-.13-.06a1.2,1.2,0,0,0-.83-.11,1.07,1.07,0,0,0-.75,1.33,1,1,0,0,0,.49.64,46.26,46.26,0,0,0,7,2.37,63.21,63.21,0,0,0,7.84,1.44,91.11,91.11,0,0,0,16.92.44,111.49,111.49,0,0,0,17.25-2.38A73.36,73.36,0,0,0,1084.4,469c.69-.32,1.37-.68,2.06-1a.93.93,0,0,0-.23-1.71.66.66,0,0,0-.23,0,1.09,1.09,0,0,0-.49.13m-64,3.88.23.1-.23-.1" style="fill:#161616"/><path d="M1056.33,451.29a1.41,1.41,0,0,0-.83.64,1.38,1.38,0,0,0-.14,1.07,1.49,1.49,0,0,0,.63.83c4.51,3.21,9.87,5,15.21,6.27,2.75.66,5.54,1.17,8.34,1.61,1.45.23,2.9.43,4.36.61.65.08,1.3.16,1.94.22s1.39.09,2.08.17a1,1,0,0,0,1-.76,1,1,0,0,0-.72-1.26c-.49-.12-1-.28-1.46-.41s-1-.25-1.51-.36c-1-.24-2.08-.44-3.12-.63-2.16-.4-4.32-.78-6.48-1.19a65.37,65.37,0,0,1-12.65-3.57,30.42,30.42,0,0,1-5.58-3.1,1.18,1.18,0,0,0-.68-.19,1.52,1.52,0,0,0-.38.05" style="fill:#161616"/><path d="M1087,462.57c0,.73,0,1.46.1,2.19a1.55,1.55,0,0,0,.45,1.06,1.5,1.5,0,0,0,1.06.44,1.52,1.52,0,0,0,1.5-1.5c0-.73,0-1.46,0-2.19a1.54,1.54,0,1,0-3.07,0" style="fill:#161616"/><path d="M1020,466.16a1.19,1.19,0,0,0,.43,1.62,33.5,33.5,0,0,0,11.36,4,64.84,64.84,0,0,0,13.2.95A91.31,91.31,0,0,0,1055,472c1.62-.22,3.23-.51,4.85-.78l2.19-.4c.74-.15,1.46-.33,2.2-.46a.56.56,0,0,0,.38-.68.56.56,0,0,0-.68-.39c-.37.07-.74.12-1.12.17h.07l-1.18.16.12,0-.81.11.17,0-.72.1h0c-2,.27-4,.43-6,.59s-4.25.29-6.38.35a79.94,79.94,0,0,1-12.75-.55l.12,0a42.09,42.09,0,0,1-10.59-2.72,27.38,27.38,0,0,1-3.32-1.71,1.16,1.16,0,0,0-.59-.16,1.22,1.22,0,0,0-1,.59m41.88,3.41h0" style="fill:#161616"/><path d="M1055.27,337.34c-2,.15-3.92.45-5.87.72l.26,0-1,.12a1.05,1.05,0,0,0-.68.29,1,1,0,0,0-.29.68.94.94,0,0,0,.29.68.89.89,0,0,0,.68.29c2-.26,4-.53,6-.7a30.08,30.08,0,0,1,6.22.1,1,1,0,0,0,.52-.15,1,1,0,0,0,.47-.61,1.09,1.09,0,0,0-.1-.79,1,1,0,0,0-.62-.47,21.54,21.54,0,0,0-3-.24h-.3c-.87,0-1.74,0-2.61.12" style="fill:#161616"/><path d="M1069.87,328.23a16.8,16.8,0,0,0-6.21,4,18.73,18.73,0,0,0-3.22,4.49,1,1,0,1,0,1.65,1,18.14,18.14,0,0,1,1.61-2.54,16.52,16.52,0,0,1,2.61-2.61,14.83,14.83,0,0,1,2.9-1.71,14.45,14.45,0,0,1,3.09-.85,15.35,15.35,0,0,1,3.52,0,16.05,16.05,0,0,1,3.66,1,17.14,17.14,0,0,1,3.38,2,28.09,28.09,0,0,1,4.41,4.64,1.27,1.27,0,0,0,.61.36,1.38,1.38,0,0,0,1.72-1,1.53,1.53,0,0,0-.14-1.07,15.41,15.41,0,0,0-5.53-6.1,17.32,17.32,0,0,0-3.46-1.69,16.2,16.2,0,0,0-3.64-.79,13.64,13.64,0,0,0-1.57-.09,15.76,15.76,0,0,0-5.39,1" style="fill:#161616"/><path d="M1087.56,335.37l-.09,0c-1.68.69-3.38,1.31-5.09,1.92a34.53,34.53,0,0,0-5.37,2.14,1.71,1.71,0,0,0,1.32,3.13,21.87,21.87,0,0,0,2.53-.8l2.81-1.07c1.9-.74,3.79-1.5,5.67-2.32a1.71,1.71,0,0,0,.81-1.05A1.79,1.79,0,0,0,1090,336a1.77,1.77,0,0,0-1.06-.81,1.52,1.52,0,0,0-.42-.06,2.29,2.29,0,0,0-.93.24m-.2.08-.11.05.11-.05" style="fill:#161616"/><path d="M1076.5,339.9a1.51,1.51,0,0,0-.93.71,1.58,1.58,0,0,0-.16,1.2,1.74,1.74,0,0,0,.71.93,40.5,40.5,0,0,0,3.83,2.49,31.11,31.11,0,0,0,4.18,2,1.36,1.36,0,0,0,1.54-.62,1.39,1.39,0,0,0-.49-1.86c-1.18-.81-2.45-1.49-3.68-2.23s-2.58-1.61-3.81-2.52a1.27,1.27,0,0,0-.75-.21,1.51,1.51,0,0,0-.44.06" style="fill:#161616"/><path d="M1060.47,343.94a.94.94,0,0,0-.43.56,1.06,1.06,0,0,0,.09.72,16.42,16.42,0,0,0,8.07,8.25,14,14,0,0,0,5.51,1.29,11.81,11.81,0,0,0,5.46-1.2,10.78,10.78,0,0,0,2.75-1.94,9.87,9.87,0,0,0,1.23-1.43,8.6,8.6,0,0,0,1-1.61.66.66,0,0,0-.1-.79.65.65,0,0,0-.92,0c-.42.47-.82.95-1.27,1.4a13.63,13.63,0,0,1-1.34,1.18,10.66,10.66,0,0,1-8.13,2.22,15,15,0,0,1-3.21-.88,15.15,15.15,0,0,1-3-1.74,14.28,14.28,0,0,1-4.43-5.7.9.9,0,0,0-.56-.43l-.24,0a.91.91,0,0,0-.48.13m11.76,8.63h0Zm.19,0,.09,0-.09,0" style="fill:#161616"/></g><g id="Template"><path d="M163.48,180a45.82,45.82,0,0,1-1.6,12.88,27,27,0,0,1-4.36,9,17.67,17.67,0,0,1-6.46,5.3,18.76,18.76,0,0,1-15.78,0,17.78,17.78,0,0,1-6.44-5.3,26.58,26.58,0,0,1-4.34-9,53.29,53.29,0,0,1,0-25.76,26.58,26.58,0,0,1,4.34-9,17.78,17.78,0,0,1,6.44-5.3,18.76,18.76,0,0,1,15.78,0,17.67,17.67,0,0,1,6.46,5.3,27,27,0,0,1,4.36,9A45.82,45.82,0,0,1,163.48,180Zm-4,0a45.5,45.5,0,0,0-1.32-11.76,24.8,24.8,0,0,0-3.54-8,13.76,13.76,0,0,0-5.2-4.54,14.21,14.21,0,0,0-6.26-1.44,13.69,13.69,0,0,0-11.44,6,24.6,24.6,0,0,0-3.56,8,53.13,53.13,0,0,0,0,23.54,24.57,24.57,0,0,0,3.56,8,13.83,13.83,0,0,0,5.2,4.52,14.18,14.18,0,0,0,6.24,1.42,14.33,14.33,0,0,0,6.26-1.42,13.61,13.61,0,0,0,5.2-4.52,24.78,24.78,0,0,0,3.54-8A45.51,45.51,0,0,0,159.48,180Z"/><path d="M209.88,180a45.82,45.82,0,0,1-1.6,12.88,27,27,0,0,1-4.36,9,17.67,17.67,0,0,1-6.46,5.3,18.76,18.76,0,0,1-15.78,0,17.78,17.78,0,0,1-6.44-5.3,26.58,26.58,0,0,1-4.34-9,53.29,53.29,0,0,1,0-25.76,26.58,26.58,0,0,1,4.34-9,17.78,17.78,0,0,1,6.44-5.3,18.76,18.76,0,0,1,15.78,0,17.67,17.67,0,0,1,6.46,5.3,27,27,0,0,1,4.36,9A45.82,45.82,0,0,1,209.88,180Zm-4,0a45.5,45.5,0,0,0-1.32-11.76,24.8,24.8,0,0,0-3.54-8,13.76,13.76,0,0,0-5.2-4.54,14.21,14.21,0,0,0-6.26-1.44,13.69,13.69,0,0,0-11.44,6,24.39,24.39,0,0,0-3.56,8,53.13,53.13,0,0,0,0,23.54,24.36,24.36,0,0,0,3.56,8,13.83,13.83,0,0,0,5.2,4.52,14.18,14.18,0,0,0,6.24,1.42,14.33,14.33,0,0,0,6.26-1.42,13.61,13.61,0,0,0,5.2-4.52,24.78,24.78,0,0,0,3.54-8A45.51,45.51,0,0,0,205.88,180Z"/><g id="_000_Introduction" data-name="000_Introduction"><path d="M145.93,302.9h.17l9.64-29.85h13.1V315.7h-9.9V288.22l-.18,0-9.4,27.51h-6.65l-9.23-27.1-.18,0V315.7h-9.9V273.05h13Z"/><path d="M187.32,301.73l0,.23h.18l5.24-18h10.55l-12.63,36.42a17.26,17.26,0,0,1-3.78,5.8c-1.54,1.52-4,2.29-7.35,2.29a11,11,0,0,1-2.11-.17q-.82-.15-2.58-.6l1.2-7.06.62.14a3.59,3.59,0,0,0,.53,0,6.53,6.53,0,0,0,3.42-.69,4.13,4.13,0,0,0,1.62-2.06l.79-2.06-11-32.05h10.52Z"/><path d="M231.21,315.7h-9.93V270h9.93Z"/><path d="M251.34,316.32q-7.22,0-11.3-4.37a15.53,15.53,0,0,1-4.08-11v-1.12q0-7.26,3.85-11.83T251,283.42q6.41,0,9.94,3.84t3.53,10.51V303H246.27l-.06.17a6.14,6.14,0,0,0,1.85,4,6.41,6.41,0,0,0,4.63,1.54,20.2,20.2,0,0,0,4.73-.47,29.82,29.82,0,0,0,4.32-1.49l2.37,6a17.93,17.93,0,0,1-5.51,2.52A25.13,25.13,0,0,1,251.34,316.32ZM251,291a4.09,4.09,0,0,0-3.5,1.5,7.55,7.55,0,0,0-1.31,4.09l.06.15h8.56V296a6.59,6.59,0,0,0-.87-3.73A3.32,3.32,0,0,0,251,291Z"/><path d="M286.93,315.67a12.27,12.27,0,0,1-.95-2.25,18.15,18.15,0,0,1-.6-2.64,12.17,12.17,0,0,1-3.18,4,7.63,7.63,0,0,1-4.93,1.51q-5,0-7.75-2.57a9,9,0,0,1-2.77-7,8.45,8.45,0,0,1,3.54-7.28q3.56-2.57,10.75-2.57h4.08v-2.25a4.56,4.56,0,0,0-1-3.11,3.77,3.77,0,0,0-3-1.08,3.59,3.59,0,0,0-2.56.8,3.35,3.35,0,0,0-.84,2.51l-9.61,0-.06-.18a8.29,8.29,0,0,1,3.62-7.25q3.83-2.91,10.1-2.91a14.77,14.77,0,0,1,9.53,2.93q3.64,2.92,3.65,8.38v11.95a24.72,24.72,0,0,0,.42,4.69,25.35,25.35,0,0,0,1.28,4.33Zm-7-6.41a6,6,0,0,0,3.21-.85,4.87,4.87,0,0,0,1.95-2V302.2h-4a4.46,4.46,0,0,0-3.42,1.14,4.08,4.08,0,0,0-1.06,2.9,2.8,2.8,0,0,0,.92,2.18A3.42,3.42,0,0,0,280,309.26Z"/><path d="M318,292.44l-3.22,0A5.51,5.51,0,0,0,312,293a3.89,3.89,0,0,0-1.61,1.77V315.7h-9.9V284h9.32l.35,4.66a9.57,9.57,0,0,1,2.63-3.87,5.85,5.85,0,0,1,3.84-1.37,7.16,7.16,0,0,1,1.2.09,7.45,7.45,0,0,1,1.12.26Z"/><path d="M330.7,284l.38,4.46a11.6,11.6,0,0,1,3.84-3.71,9.93,9.93,0,0,1,5.1-1.33,8.94,8.94,0,0,1,7.28,3.16q2.63,3.17,2.62,10.05V315.7H340V296.6a7.22,7.22,0,0,0-1-4.29,3.3,3.3,0,0,0-2.81-1.27,7,7,0,0,0-2.84.55,5.73,5.73,0,0,0-2.11,1.58V315.7h-9.87V284Z"/><path d="M365.68,276.65h-9.93V270h9.93Zm0,39.05h-9.93V284h9.93Z"/><path d="M380.86,284l.38,4.46a11.51,11.51,0,0,1,3.84-3.71,9.9,9.9,0,0,1,5.1-1.33,8.94,8.94,0,0,1,7.28,3.16q2.61,3.17,2.62,10.05V315.7h-9.9V296.6a7.29,7.29,0,0,0-1-4.29A3.31,3.31,0,0,0,386.4,291a7,7,0,0,0-2.85.55,5.61,5.61,0,0,0-2.1,1.58V315.7h-9.88V284Z"/><path d="M404.12,299.91q0-7.41,3.24-12a10.55,10.55,0,0,1,9.12-4.54,8.16,8.16,0,0,1,4.4,1.18,10.55,10.55,0,0,1,3.28,3.36l.64-4h8.74v31.35q0,6.27-4.3,9.71t-11.82,3.45a21.15,21.15,0,0,1-5.15-.68,28.91,28.91,0,0,1-5.16-1.81l1.7-7.33a22.73,22.73,0,0,0,4.09,1.39,19.23,19.23,0,0,0,4.46.46,7.36,7.36,0,0,0,4.71-1.26,4.88,4.88,0,0,0,1.53-4v-2.46a8.59,8.59,0,0,1-7.17,3.49,10.67,10.67,0,0,1-9.09-4.34q-3.22-4.34-3.22-11.45Zm9.87.62a13.19,13.19,0,0,0,1.13,6A4,4,0,0,0,419,308.7a6.81,6.81,0,0,0,2.76-.5,4.42,4.42,0,0,0,1.89-1.49V293.38a4.87,4.87,0,0,0-1.87-1.74A5.79,5.79,0,0,0,419,291a4,4,0,0,0-3.82,2.44,14.85,14.85,0,0,0-1.19,6.43Z"/><path d="M455.71,306.8a2.59,2.59,0,0,0-1.33-2.1,14.52,14.52,0,0,0-4.85-1.65c-3.69-.73-6.47-1.84-8.35-3.36a7.6,7.6,0,0,1-2.81-6.25,8.93,8.93,0,0,1,3.51-7.11q3.53-2.91,9.53-2.91,6.31,0,10.07,2.83a8.3,8.3,0,0,1,3.58,7.3l-.06.18h-9.61a3.89,3.89,0,0,0-.94-2.84,4.11,4.11,0,0,0-3.07-1,4.05,4.05,0,0,0-2.61.85,2.68,2.68,0,0,0-1.06,2.17,2.59,2.59,0,0,0,1.22,2.14,13.93,13.93,0,0,0,4.91,1.58c3.88.76,6.76,1.9,8.61,3.41a7.82,7.82,0,0,1,2.78,6.43,8.39,8.39,0,0,1-3.79,7.05q-3.79,2.77-10,2.77-6.48,0-10.24-3.28t-3.59-7.33l.06-.17h9a4,4,0,0,0,1.36,3.25,6,6,0,0,0,3.71,1,5,5,0,0,0,3-.78A2.62,2.62,0,0,0,455.71,306.8Z"/><path d="M485.54,298.36q0-11.4,4.33-19.32t10.2-10.18h.17l1.79,4.66q-3.75,2.75-6.18,8.9t-2.43,15.88v.94q0,9.75,2.43,15.89T502,324l-1.79,4.66h-.17q-5.86-2.25-10.2-10.16t-4.33-19.34Z"/><path d="M522.66,306.8a2.61,2.61,0,0,0-1.34-2.1,14.52,14.52,0,0,0-4.85-1.65c-3.69-.73-6.47-1.84-8.35-3.36a7.6,7.6,0,0,1-2.81-6.25,8.91,8.91,0,0,1,3.52-7.11q3.51-2.91,9.52-2.91,6.33,0,10.08,2.83a8.29,8.29,0,0,1,3.57,7.3l-.06.18h-9.61a3.93,3.93,0,0,0-.93-2.84,4.14,4.14,0,0,0-3.08-1,4.07,4.07,0,0,0-2.61.85,2.68,2.68,0,0,0-1.05,2.17,2.58,2.58,0,0,0,1.21,2.14,13.93,13.93,0,0,0,4.91,1.58q5.84,1.14,8.61,3.41a7.83,7.83,0,0,1,2.79,6.43,8.4,8.4,0,0,1-3.8,7.05q-3.79,2.77-10,2.77-6.48,0-10.24-3.28t-3.59-7.33l.06-.17h9a4,4,0,0,0,1.37,3.25,6,6,0,0,0,3.7,1,4.93,4.93,0,0,0,3-.78A2.63,2.63,0,0,0,522.66,306.8Z"/><path d="M535.52,299.56c0-4.76,1.35-8.65,4-11.64s6.46-4.5,11.28-4.5,8.61,1.5,11.31,4.5,4,6.88,4,11.64v.62q0,7.17-4,11.66t-11.25,4.48q-7.29,0-11.34-4.48t-4-11.66Zm9.9.62a13,13,0,0,0,1.25,6.25,4.43,4.43,0,0,0,4.23,2.27,4.38,4.38,0,0,0,4.16-2.28,13,13,0,0,0,1.26-6.24v-.62a13.07,13.07,0,0,0-1.26-6.2,4.41,4.41,0,0,0-4.22-2.32,4.35,4.35,0,0,0-4.17,2.34,13,13,0,0,0-1.25,6.18Z"/><path d="M587.64,315.7V290.86h-4.57V284h4.57v-3.28q0-5.45,3.28-8.39t9.29-2.95a16.15,16.15,0,0,1,2.29.17c.78.1,1.64.26,2.6.45l-.73,7.29c-.55-.09-1-.17-1.44-.21a12.49,12.49,0,0,0-1.49-.08,4,4,0,0,0-2.88,1,3.66,3.66,0,0,0-1,2.75V284h6.27v6.86h-6.27V315.7Z"/><path d="M625.31,315.67a11.62,11.62,0,0,1-.95-2.25,18.15,18.15,0,0,1-.6-2.64,12.17,12.17,0,0,1-3.18,4,7.64,7.64,0,0,1-4.94,1.51q-5,0-7.74-2.57a9,9,0,0,1-2.77-7,8.45,8.45,0,0,1,3.54-7.28q3.55-2.57,10.75-2.57h4.08v-2.25a4.56,4.56,0,0,0-1-3.11,3.78,3.78,0,0,0-3-1.08,3.59,3.59,0,0,0-2.56.8,3.35,3.35,0,0,0-.84,2.51l-9.61,0-.06-.18a8.29,8.29,0,0,1,3.62-7.25q3.82-2.91,10.09-2.91a14.78,14.78,0,0,1,9.54,2.93q3.64,2.92,3.65,8.38v11.95a24.72,24.72,0,0,0,.42,4.69,25.35,25.35,0,0,0,1.28,4.33Zm-7-6.41a6,6,0,0,0,3.21-.85,4.94,4.94,0,0,0,2-2V302.2h-4a4.5,4.5,0,0,0-3.43,1.14,4.12,4.12,0,0,0-1.05,2.9,2.8,2.8,0,0,0,.92,2.18A3.42,3.42,0,0,0,618.34,309.26Z"/><path d="M656.34,292.44l-3.22,0a5.49,5.49,0,0,0-2.79.63,3.89,3.89,0,0,0-1.61,1.77V315.7h-9.9V284h9.31l.36,4.66a9.57,9.57,0,0,1,2.63-3.87,5.85,5.85,0,0,1,3.84-1.37,7.16,7.16,0,0,1,1.2.09,7.74,7.74,0,0,1,1.12.26Z"/><path d="M675.62,299.18A38.38,38.38,0,0,1,671,318.3q-4.6,8.15-10.61,10.38h-.18L658.45,324q3.69-2.77,6.15-8.92t2.46-15.86v-.94q0-9.72-2.46-15.88t-6.15-8.9l1.78-4.66h.18q6,2.22,10.61,10.4a38.35,38.35,0,0,1,4.6,19.1Z"/><path d="M133.18,338.65h-9.93V332h9.93Zm0,39.05h-9.93V346h9.93Z"/><path d="M148.36,346l.38,4.46a11.51,11.51,0,0,1,3.84-3.71,9.9,9.9,0,0,1,5.1-1.33,8.94,8.94,0,0,1,7.28,3.16q2.61,3.17,2.62,10.05V377.7h-9.9V358.6a7.29,7.29,0,0,0-1-4.29A3.31,3.31,0,0,0,153.9,353a7,7,0,0,0-2.85.55,5.61,5.61,0,0,0-2.1,1.58V377.7h-9.88V346Z"/><path d="M210.5,366.39a4.25,4.25,0,0,0-1.5-3.5,19.33,19.33,0,0,0-5.42-2.59q-7.94-2.58-11.79-5.49a9.89,9.89,0,0,1-3.85-8.4,10.29,10.29,0,0,1,4.48-8.67,18.74,18.74,0,0,1,11.4-3.31q7.29,0,11.75,3.41t4.3,9.63l-.06.17h-9.6a5.37,5.37,0,0,0-1.65-4.38,7.65,7.65,0,0,0-4.95-1.36,6.33,6.33,0,0,0-4.24,1.32,4.09,4.09,0,0,0-1.56,3.25,3.52,3.52,0,0,0,1.6,3,31,31,0,0,0,6,2.82q7.41,2.2,11.22,5.36a10.67,10.67,0,0,1,3.81,8.68,10.25,10.25,0,0,1-4.39,8.8q-4.39,3.18-11.66,3.18a21.36,21.36,0,0,1-12.27-3.41q-5-3.42-4.87-10.74l.06-.18h9.63c0,2.48.61,4.25,1.84,5.29s3.09,1.57,5.61,1.57a7.24,7.24,0,0,0,4.62-1.23A4,4,0,0,0,210.5,366.39Z"/><path d="M236.57,338.12V346h5v6.86h-5v14.53a3.57,3.57,0,0,0,.69,2.45,2.43,2.43,0,0,0,1.86.74c.51,0,.91,0,1.22-.05a10,10,0,0,0,1.15-.24l.68,7.33a25.7,25.7,0,0,1-2.7.54,23.11,23.11,0,0,1-2.84.16q-4.89,0-7.43-2.61t-2.53-8.26V352.86h-4.42V346h4.42v-7.88Z"/><path d="M264.7,377.67a11.62,11.62,0,0,1-.95-2.25,16.94,16.94,0,0,1-.61-2.64,12.14,12.14,0,0,1-3.17,4,7.66,7.66,0,0,1-4.94,1.51q-5,0-7.75-2.57a9,9,0,0,1-2.77-7,8.43,8.43,0,0,1,3.55-7.28q3.54-2.57,10.75-2.57h4.07v-2.25a4.51,4.51,0,0,0-1-3.11,3.76,3.76,0,0,0-3-1.08,3.61,3.61,0,0,0-2.57.8,3.35,3.35,0,0,0-.83,2.51l-9.61,0-.06-.18a8.27,8.27,0,0,1,3.62-7.25q3.83-2.91,10.09-2.91a14.74,14.74,0,0,1,9.54,2.93q3.64,2.92,3.64,8.38v11.95a23.9,23.9,0,0,0,.43,4.69,25.31,25.31,0,0,0,1.27,4.33Zm-7-6.41a6.08,6.08,0,0,0,3.21-.85,4.87,4.87,0,0,0,1.95-2V364.2h-4a4.47,4.47,0,0,0-3.43,1.14,4.13,4.13,0,0,0-1.06,2.9,2.78,2.78,0,0,0,.93,2.18A3.39,3.39,0,0,0,257.72,371.26Z"/><path d="M295.72,354.44l-3.22,0a5.47,5.47,0,0,0-2.78.63,3.84,3.84,0,0,0-1.61,1.77V377.7H278.2V346h9.32l.35,4.66a9.49,9.49,0,0,1,2.64-3.87,5.81,5.81,0,0,1,3.84-1.37,7.24,7.24,0,0,1,1.2.09,7.34,7.34,0,0,1,1.11.26Z"/><path d="M311.22,338.12V346h5v6.86h-5v14.53a3.57,3.57,0,0,0,.69,2.45,2.43,2.43,0,0,0,1.86.74c.51,0,.91,0,1.22-.05a10.42,10.42,0,0,0,1.15-.24l.68,7.33a25.7,25.7,0,0,1-2.7.54,23.11,23.11,0,0,1-2.84.16q-4.89,0-7.43-2.61t-2.53-8.26V352.86h-4.43V346h4.43v-7.88Z"/><path d="M340.14,373a10.49,10.49,0,0,1-3.65,4,9.66,9.66,0,0,1-5.17,1.39,9.37,9.37,0,0,1-7.72-3.46q-2.81-3.45-2.8-10.69V346h9.87v18.23q0,3.72,1,5.09a3.31,3.31,0,0,0,2.94,1.38,8.15,8.15,0,0,0,2.78-.44,5.26,5.26,0,0,0,2-1.32V346h9.91v31.7h-8Z"/><path d="M384.11,362.53q0,7.14-3.22,11.47a10.68,10.68,0,0,1-9.08,4.32,9,9,0,0,1-4.06-.88,9.15,9.15,0,0,1-3.09-2.55v15h-9.9V346h9.34l.29,3.46a9.72,9.72,0,0,1,3.15-3,8.33,8.33,0,0,1,4.21-1.05,10.53,10.53,0,0,1,9.12,4.54q3.24,4.55,3.24,12Zm-9.87-.62a15,15,0,0,0-1.17-6.44,3.92,3.92,0,0,0-3.75-2.43,6,6,0,0,0-2.83.61,4.56,4.56,0,0,0-1.83,1.79v13.24a4.26,4.26,0,0,0,1.86,1.52,7.08,7.08,0,0,0,2.86.5,3.9,3.9,0,0,0,3.73-2.15,13.19,13.19,0,0,0,1.13-6Z"/><path d="M398.85,377.7h-9.93V332h9.93Z"/><path d="M423.22,377.67a11.62,11.62,0,0,1-1-2.25,18.15,18.15,0,0,1-.6-2.64,12.17,12.17,0,0,1-3.18,4,7.64,7.64,0,0,1-4.94,1.51q-5,0-7.74-2.57a9,9,0,0,1-2.77-7,8.45,8.45,0,0,1,3.54-7.28q3.54-2.57,10.75-2.57h4.08v-2.25a4.56,4.56,0,0,0-1-3.11,3.78,3.78,0,0,0-3-1.08,3.59,3.59,0,0,0-2.56.8,3.35,3.35,0,0,0-.84,2.51l-9.61,0-.06-.18a8.29,8.29,0,0,1,3.62-7.25q3.83-2.91,10.09-2.91a14.72,14.72,0,0,1,9.54,2.93q3.64,2.92,3.65,8.38v11.95a24.72,24.72,0,0,0,.42,4.69A25.35,25.35,0,0,0,433,377.7Zm-7-6.41a6.11,6.11,0,0,0,3.21-.85,4.87,4.87,0,0,0,2-2V364.2h-4a4.5,4.5,0,0,0-3.43,1.14,4.12,4.12,0,0,0-1.05,2.9,2.8,2.8,0,0,0,.92,2.18A3.42,3.42,0,0,0,416.25,371.26Z"/><path d="M445.84,346l.38,4.46a11.6,11.6,0,0,1,3.84-3.71,9.9,9.9,0,0,1,5.1-1.33,8.94,8.94,0,0,1,7.28,3.16q2.61,3.17,2.62,10.05V377.7h-9.9V358.6a7.29,7.29,0,0,0-1-4.29,3.31,3.31,0,0,0-2.81-1.27,6.92,6.92,0,0,0-2.84.55,5.65,5.65,0,0,0-2.11,1.58V377.7h-9.88V346Z"/><path d="M469.13,361.91q0-7.41,3.24-12a10.55,10.55,0,0,1,9.12-4.54,7.79,7.79,0,0,1,4,1,10.25,10.25,0,0,1,3.18,2.88V332h9.9v45.7h-8.67l-.67-3.86a10.72,10.72,0,0,1-3.36,3.32,8.33,8.33,0,0,1-4.4,1.16,10.67,10.67,0,0,1-9.09-4.34q-3.23-4.34-3.22-11.45Zm9.9.62a13.19,13.19,0,0,0,1.13,6,4,4,0,0,0,3.8,2.15,6.23,6.23,0,0,0,2.73-.57,4.87,4.87,0,0,0,1.95-1.68V355.64a5.41,5.41,0,0,0-1.93-1.93A5.3,5.3,0,0,0,484,353a4,4,0,0,0-3.8,2.43,14.82,14.82,0,0,0-1.18,6.44Z"/></g></g></g><g id="Header"><path d="M141.6,114.68h-6l-2.48,15.21h-7.39l2.49-15.21H120v-6.8h9.35L131,98.09h-8.2V91.3h9.32l2.56-15.44H142L139.48,91.3h6L148,75.86h7.38L152.84,91.3h8.57v6.79h-9.68l-1.63,9.79h8.49v6.8H149l-2.48,15.21h-7.39Zm-4.86-6.8h6l1.63-9.79h-6Z" style="fill:#18569c"/><path d="M195,115.57a5.41,5.41,0,0,0-1.89-4.44,24.62,24.62,0,0,0-6.87-3.28q-10-3.27-14.93-7t-4.88-10.63a13.05,13.05,0,0,1,5.67-11q5.69-4.18,14.44-4.19,9.24,0,14.88,4.32t5.46,12.19l-.08.23H194.59q0-3.82-2.08-5.55t-6.27-1.73a8.06,8.06,0,0,0-5.38,1.67,5.22,5.22,0,0,0-2,4.12,4.45,4.45,0,0,0,2,3.81,39.56,39.56,0,0,0,7.55,3.58q9.39,2.77,14.21,6.79t4.82,11a13,13,0,0,1-5.56,11.15q-5.56,4-14.77,4t-15.53-4.32q-6.37-4.34-6.18-13.6l.07-.23h12.21c0,3.15.78,5.38,2.32,6.7s3.92,2,7.11,2q3.93,0,5.86-1.56A5,5,0,0,0,195,115.57Z" style="fill:#18569c"/><path d="M228,79.76v10h6.34v8.68H228v18.41a4.52,4.52,0,0,0,.87,3.1,3.05,3.05,0,0,0,2.36.94,12.75,12.75,0,0,0,1.54-.07,13.14,13.14,0,0,0,1.46-.3l.86,9.28a31.86,31.86,0,0,1-3.42.69,28.58,28.58,0,0,1-3.6.2q-6.19,0-9.4-3.3t-3.21-10.47V98.42h-5.61V89.74h5.61v-10Z" style="fill:#18569c"/><path d="M263.61,129.85a14.89,14.89,0,0,1-1.2-2.85,21.09,21.09,0,0,1-.76-3.34,15.44,15.44,0,0,1-4,5.1,9.75,9.75,0,0,1-6.25,1.91q-6.31,0-9.82-3.25a11.45,11.45,0,0,1-3.51-8.85,10.7,10.7,0,0,1,4.5-9.22q4.49-3.24,13.61-3.25h5.16v-2.85a5.77,5.77,0,0,0-1.22-3.94,4.8,4.8,0,0,0-3.75-1.37,4.54,4.54,0,0,0-3.25,1,4.25,4.25,0,0,0-1.05,3.17l-12.18,0-.07-.23q-.25-5.49,4.58-9.18T257.16,89q7.45,0,12.08,3.71t4.62,10.61v15.14a30.81,30.81,0,0,0,.53,5.94,31.69,31.69,0,0,0,1.62,5.49Zm-8.83-8.12a7.6,7.6,0,0,0,4.06-1.08,6.15,6.15,0,0,0,2.47-2.56v-5.31h-5a5.7,5.7,0,0,0-4.35,1.45,5.21,5.21,0,0,0-1.33,3.67,3.57,3.57,0,0,0,1.17,2.77A4.34,4.34,0,0,0,254.78,121.73Z" style="fill:#18569c"/><path d="M302.91,100.43l-4.08,0a6.91,6.91,0,0,0-3.53.8,5,5,0,0,0-2,2.24v26.46H280.72V89.74h11.8l.45,5.9a12.06,12.06,0,0,1,3.34-4.9A7.32,7.32,0,0,1,301.17,89a8.74,8.74,0,0,1,1.52.11,10.88,10.88,0,0,1,1.41.33Z" style="fill:#18569c"/><path d="M322.54,79.76v10h6.35v8.68h-6.35v18.41a4.47,4.47,0,0,0,.88,3.1,3,3,0,0,0,2.35.94,12.64,12.64,0,0,0,1.54-.07,13.71,13.71,0,0,0,1.47-.3l.85,9.28a31.72,31.72,0,0,1-3.41.69,28.81,28.81,0,0,1-3.6.2q-6.19,0-9.41-3.3T310,116.9V98.42h-5.6V89.74H310v-10Z" style="fill:#18569c"/><path d="M359.17,123.88a13.26,13.26,0,0,1-4.62,5,12.21,12.21,0,0,1-6.55,1.76,11.88,11.88,0,0,1-9.78-4.38q-3.54-4.38-3.54-13.54v-23h12.5v23.08c0,3.14.41,5.29,1.21,6.46a4.22,4.22,0,0,0,3.73,1.74,10,10,0,0,0,3.52-.56,6.7,6.7,0,0,0,2.6-1.67V89.74h12.55v40.15h-10.1Z" style="fill:#18569c"/><path d="M414.87,110.67q0,9-4.08,14.53t-11.5,5.47a11,11,0,0,1-9.06-4.34v19H377.69V89.74h11.84l.37,4.38a12.07,12.07,0,0,1,4-3.79A10.45,10.45,0,0,1,399.21,89a13.36,13.36,0,0,1,11.56,5.75q4.1,5.75,4.1,15.14Zm-12.5-.78a19,19,0,0,0-1.49-8.17,5,5,0,0,0-4.75-3.08,7.55,7.55,0,0,0-3.58.78,5.76,5.76,0,0,0-2.32,2.27v16.77a5.32,5.32,0,0,0,2.36,1.93,9.14,9.14,0,0,0,3.62.63,4.94,4.94,0,0,0,4.73-2.73,16.67,16.67,0,0,0,1.43-7.62Z" style="fill:#18569c"/><path d="M433.69,111.37v18.52H421.14v-54h20.64q9.6,0,15.25,4.9a16.22,16.22,0,0,1,5.64,12.87A16.17,16.17,0,0,1,457,106.49q-5.64,4.89-15.25,4.88Zm0-9.65h8.09A8.22,8.22,0,0,0,448,99.48a8,8,0,0,0,2.15-5.77,8.34,8.34,0,0,0-2.13-5.9c-1.42-1.54-3.51-2.3-6.25-2.3h-8.09Z" style="fill:#18569c"/><path d="M482,129.89H469.42V72H482Z" style="fill:#18569c"/><path d="M512.88,129.85a14.9,14.9,0,0,1-1.21-2.85,22.25,22.25,0,0,1-.76-3.34,15.44,15.44,0,0,1-4,5.1,9.73,9.73,0,0,1-6.25,1.91q-6.31,0-9.81-3.25a11.45,11.45,0,0,1-3.51-8.85,10.72,10.72,0,0,1,4.49-9.22q4.49-3.24,13.62-3.25h5.16v-2.85a5.72,5.72,0,0,0-1.23-3.94,4.77,4.77,0,0,0-3.75-1.37,4.5,4.5,0,0,0-3.24,1,4.21,4.21,0,0,0-1.06,3.17l-12.17,0-.08-.23q-.26-5.49,4.59-9.18c3.22-2.46,7.49-3.69,12.78-3.69q7.45,0,12.08,3.71t4.62,10.61v15.14a30.78,30.78,0,0,0,.54,5.94,31.64,31.64,0,0,0,1.61,5.49ZM504,121.73a7.64,7.64,0,0,0,4.07-1.08,6.21,6.21,0,0,0,2.47-2.56v-5.31h-5.05a5.69,5.69,0,0,0-4.34,1.45,5.22,5.22,0,0,0-1.34,3.67,3.57,3.57,0,0,0,1.17,2.77A4.36,4.36,0,0,0,504,121.73Z" style="fill:#18569c"/><path d="M545,112.19l0,.3h.23l6.64-22.75h13.36l-16,46.13a22.13,22.13,0,0,1-4.78,7.34q-2.94,2.89-9.32,2.9a13.86,13.86,0,0,1-2.67-.21c-.69-.13-1.78-.39-3.26-.76l1.52-8.94.78.17a3.86,3.86,0,0,0,.66,0,8.39,8.39,0,0,0,4.35-.87,5.19,5.19,0,0,0,2-2.62l1-2.59-13.88-40.6H539Z" style="fill:#18569c"/><path d="M605.69,110.67q0,9.17-3.94,14.58t-11.65,5.42a11.22,11.22,0,0,1-5.71-1.41,12.45,12.45,0,0,1-4.2-4.08l-.74,4.71h-11V72h12.55V93.63a12.17,12.17,0,0,1,3.87-3.43A10.57,10.57,0,0,1,590,89q7.76,0,11.71,5.67t4,15.22Zm-12.51-.78a20.72,20.72,0,0,0-1.33-8.3,5,5,0,0,0-5-3,7.44,7.44,0,0,0-3.5.77,5.65,5.65,0,0,0-2.32,2.2V118.5a5.47,5.47,0,0,0,2.35,1.89A9,9,0,0,0,587,121q3.7,0,5-2.58t1.26-7.77Z" style="fill:#18569c"/><path d="M609.55,109.44q0-9,5.12-14.75T629,89q9.19,0,14.32,5.69t5.12,14.75v.78q0,9.09-5.12,14.77T629,130.67q-9.24,0-14.36-5.68t-5.12-14.77Zm12.54.78a16.64,16.64,0,0,0,1.58,7.93A5.62,5.62,0,0,0,629,121a5.55,5.55,0,0,0,5.27-2.89,16.53,16.53,0,0,0,1.59-7.91v-.78a16.6,16.6,0,0,0-1.59-7.85,5.61,5.61,0,0,0-5.34-3,5.51,5.51,0,0,0-5.29,3,16.73,16.73,0,0,0-1.58,7.83Z" style="fill:#18569c"/><path d="M652.26,109.44q0-9,5.12-14.75T671.67,89q9.2,0,14.32,5.69t5.12,14.75v.78q0,9.09-5.12,14.77t-14.25,5.68q-9.24,0-14.36-5.68t-5.12-14.77Zm12.54.78a16.64,16.64,0,0,0,1.58,7.93,5.62,5.62,0,0,0,5.36,2.87,5.54,5.54,0,0,0,5.27-2.89,16.41,16.41,0,0,0,1.6-7.91v-.78a16.47,16.47,0,0,0-1.6-7.85,5.59,5.59,0,0,0-5.34-3,5.51,5.51,0,0,0-5.29,3,16.73,16.73,0,0,0-1.58,7.83Z" style="fill:#18569c"/><path d="M711.45,113.93h-2.26v16H696.64V72h12.55v32.47H711l8.46-14.73h14.36l-12.36,18.11,14.4,22H721.54Z" style="fill:#18569c"/></g></svg>