<svg id="Layer_1" data-name="Layer 1" xmlns="http://www.w3.org/2000/svg" viewBox="0 0 1000 673.73"><title>mvp</title><rect id="White" width="1000" height="674" style="fill:#fff"/><path d="M237.27,228.67a12.78,12.78,0,0,0-2.39-.56q-10.27,0-20.56.13a12.67,12.67,0,0,0-2.16.45c-.63,1.86-1.26,3.74-1.9,5.6a25.74,25.74,0,0,1-12.78,14.81c-13.95,7.33-30.56,0-35.75-13.57-3.65-9.55-2.16-18.48,4.46-26.28s15.44-10.54,25.32-8.37c9.1,2,15.38,7.77,18.61,16.61.8,2.18,1.35,4.44,2,6.71a7.9,7.9,0,0,0,2,.56q10.28,0,20.56-.16a6.3,6.3,0,0,0,1.66-.44c1.47-1.3,1.3-2.94,1.67-4.36,2.64-10.29,9-16.72,19.28-19.72,8.49-2.48,21.82,1,28.06,11.81,5.22,9,5.29,18.26-.25,27.09s-13.86,12.94-24.28,11.94c-11.11-1.06-18.29-7.42-22.18-17.7C238.14,231.83,237.78,230.38,237.27,228.67Z" style="fill:#da2427"/><path d="M263.41,247.72c11.75.36,22.55-9.8,22.43-22.7-.1-10.54-8-22.13-22.42-22.32-12.69-.16-22.55,9.64-22.69,22.56S251.48,248.18,263.41,247.72Z" style="fill:#da2427"/><path d="M185.9,203.55a22.57,22.57,0,1,0,0,45.13c12.16.11,22.32-10.16,22.49-22.36A22.57,22.57,0,0,0,185.9,203.55Z" style="fill:#da2427"/><path d="M20.41,585.57c4.19,2,6.43,5.59,10.29,8.12,4.93.32,10.43.09,15.92.12s10.69,0,16,0H95.05c3.75-2.34,6.25-5.86,10-8.21l1.63,1.94c-2.88,3.62-6.33,6.24-8.72,8.39-2.58,1.69-4.9.39-6.68,2.16,1,.88,1.85,1.62,2.65,2.44a9,9,0,0,1-7.84,15.4,9,9,0,0,1-7.56-7.66,8.61,8.61,0,0,1,2.37-7.36,36.65,36.65,0,0,1,2.89-2.6c-.14-1.28-1.07-1.24-1.85-1.25-2.84,0-5.68,0-8.52,0-9.69,0-19.37-.05-29.06,0-1.23,0-2.69-.46-3.66,1.18.84.77,1.73,1.5,2.51,2.32a9,9,0,0,1-6.13,15.39,8.56,8.56,0,0,1-8.53-5,8.31,8.31,0,0,1,.9-9.4,43.67,43.67,0,0,1,3.35-3.45c-1-1.52-2.65-.7-4.55-1.84a85.68,85.68,0,0,1-8.87-8.36Z" style="fill:#da2427"/><path d="M36.82,601c-3.5,1.16-4.13,1.56-5.09,3.06a5.23,5.23,0,0,0-.75,3.82,5.89,5.89,0,0,0,11.49.29,5.18,5.18,0,0,0-.55-3.85A6.84,6.84,0,0,0,36.82,601Z" style="fill:#da2427"/><path d="M87.59,601a19.71,19.71,0,0,0-3.26,1.38,5.5,5.5,0,0,0-2.21,6.16,5.69,5.69,0,0,0,10.89.4,5.55,5.55,0,0,0-2.17-6.61A19,19,0,0,0,87.59,601Z" style="fill:#da2427"/><path d="M216.21,543.1l-5.55-1.6c0-.69-.08-1.43-.12-2.33a14.51,14.51,0,0,1,9.29,1.5c.91,2.09.55,4.12.56,6.1,0,14.38,0,28.77,0,43.15,0,1.61-.48,3.33.82,5.08,4.37-1.61,8.52-4.83,13.55-2.8a3,3,0,0,1,.58.88,2.73,2.73,0,0,1-.15.95c-1.07,1.1-2.48.78-3.78.84a11,11,0,0,0-6.48,2.38,9.94,9.94,0,0,0-3.87,5.69c-.29,1.28-.71,2.53-1.11,3.93a32.65,32.65,0,0,1-3.55.46c-17.78.53-34.36.28-38.82-.59-.27-.78-.6-1.69-.9-2.61a45.39,45.39,0,0,0-1.76-5.2,10.08,10.08,0,0,0-6.23-5.47l-4.43-1.38c-.17-.61-.33-1.21-.53-1.91,2.92-1.63,5.37-.11,7.73.85A10.9,10.9,0,0,1,177,596c1.25,2.34,2.23,4.82,3.48,7.57a14.74,14.74,0,0,0,2.65.45q15.3.06,30.61,0a18.37,18.37,0,0,0,2.63-.4,14.42,14.42,0,0,0,.68-2.86c.09-2.67,0-5.35,0-8q0-21.83,0-43.66C217.05,547.23,217.39,545.36,216.21,543.1Z" style="fill:#da2427"/><path d="M48,200.31a25.86,25.86,0,1,1-25.75,25.93C22.17,211.05,35,200,48,200.31Z" style="fill:#da2427"/><path d="M25.58,226a22.21,22.21,0,0,0,22.5,22.67A22.23,22.23,0,0,0,70.63,226a22.54,22.54,0,0,0-22.84-22.43C35.87,203.63,25.27,213.87,25.58,226Z" style="fill:#da2427"/><path d="M198.5,93.29a24.4,24.4,0,1,1,24.2,24.38A24.42,24.42,0,0,1,198.5,93.29ZM223,71.67c-12.43,0-21.71,10.71-21.62,21.73A21.6,21.6,0,1,0,223,71.67Z" style="fill:#da2427"/><path d="M460.46,93.29a24.38,24.38,0,1,1,24.09,24.37A24.22,24.22,0,0,1,460.46,93.29Zm45.9.28a21.57,21.57,0,1,0-22,21.34A21.61,21.61,0,0,0,506.36,93.57Z" style="fill:#da2427"/><path d="M790.48,93.29a24.38,24.38,0,1,1,24.09,24.37A24.22,24.22,0,0,1,790.48,93.29Zm45.9.28a21.57,21.57,0,1,0-22,21.34A21.61,21.61,0,0,0,836.38,93.57Z" style="fill:#da2427"/><path d="M70.13,93.37A24.44,24.44,0,0,1,45.92,117.7c-13.5,0-24.76-11-24.57-24.5a24.39,24.39,0,1,1,48.78.17ZM46,71.67a21.6,21.6,0,1,0,21.4,21.94A21.56,21.56,0,0,0,46,71.67Z" style="fill:#da2427"/><path d="M156.31,606.92c-.35-4.24,3.58-9.22,9.16-9.16a9.2,9.2,0,0,1,9,9.39,9.06,9.06,0,0,1-9,8.84C160.11,616.17,156,611.33,156.31,606.92Z" style="fill:#da2427"/><path d="M165.36,601.05c-3.31,1.08-4.19,1.62-5.05,3.06a5.49,5.49,0,0,0-.62,3.84,5.79,5.79,0,0,0,11.44-.35,6.66,6.66,0,0,0-.67-3.31C169.56,602.33,167.8,601.42,165.36,601.05Z" style="fill:#da2427"/><path d="M241.83,607.1a8.89,8.89,0,0,1-9.28,9,9.1,9.1,0,0,1,.2-18.2C237.47,597.87,242.1,601.82,241.83,607.1Z" style="fill:#da2427"/><path d="M226.84,606.51c1.27,4.79,3.13,6.52,6.53,6.2a5.66,5.66,0,0,0,5.16-5.17,5.46,5.46,0,0,0-1-3.77,6.24,6.24,0,0,0-5.1-2.56C229.47,601.65,227.7,603.38,226.84,606.51Z" style="fill:#da2427"/><path d="M234.75,104.44l-2.22,1.17c-.69-.86-1.39-1.78-2.14-2.66a10.1,10.1,0,0,0-15.06.16c-.73.84-1.57,1.59-2.58,2.6l-1.29-1.81c2.73-4.68,6.53-7.16,11.89-7.07S232,99.74,234.75,104.44Z" style="fill:#da2427"/><path d="M210.47,86c1.16-2.06,2.8-3.64,5.45-3.26a4.86,4.86,0,0,1,4.39,4.32l-1.18,1.53L216,85.77c-2.49-.44-2.67,2.12-4.3,2.53C210.31,88.2,210.38,87.2,210.47,86Z" style="fill:#da2427"/><path d="M235.13,87.47l-1.34,1.08-3-2.82c-2.51-.36-2.64,2.22-4.4,2.67l-1.05-.59a3.17,3.17,0,0,1,1.33-3.61,7.18,7.18,0,0,1,3.1-1.42,5.42,5.42,0,0,1,2.83.69A4.42,4.42,0,0,1,235.13,87.47Z" style="fill:#da2427"/><path d="M475.13,105.71l-1.68-1.25c.52-2.78,2.6-4.38,4.8-5.82a11.82,11.82,0,0,1,9.57-1.5,12.42,12.42,0,0,1,7.84,5.71,1.77,1.77,0,0,1-.39,2.46,5.24,5.24,0,0,1-1.57-.67c-.85-.77-1.48-1.8-2.35-2.54a9.92,9.92,0,0,0-13.19.08A33.39,33.39,0,0,0,475.13,105.71Z" style="fill:#da2427"/><path d="M482.44,87.41l-1.67,1.17-2.84-2.81c-2.45-.43-2.74,2-4.33,2.44-1.35-.29-1.46-1.26-1.07-2.24a4.88,4.88,0,0,1,7.71-2.15,5.86,5.86,0,0,1,1.29,1.47A15.79,15.79,0,0,1,482.44,87.41Z" style="fill:#da2427"/><path d="M497.18,87.52l-1.61,1-2.84-2.79c-2.53-.36-2.74,2.16-4.47,2.59l-1-.73a3.36,3.36,0,0,1,1.48-3.55,6.14,6.14,0,0,1,3.14-1.29C494.74,82.68,496.33,84.42,497.18,87.52Z" style="fill:#da2427"/><path d="M57.16,103.67c-.25.65-.43,1.09-.59,1.48-.41,0-.85.19-1,0-1-.88-1.88-1.86-2.85-2.76a9.92,9.92,0,0,0-13.61-.19c-1.1,1-2.05,2.13-3.23,3.37-.61-.47-1.06-.83-1.63-1.29,2.2-4.68,5.75-7.09,10.58-7.47C50.4,96.42,54.34,99.09,57.16,103.67Z" style="fill:#da2427"/><path d="M56.77,88.57l-3.21-2.86c-2.45-.26-2.58,2.3-4.35,2.71L48,87.63c-.1-2.61,1.45-4,3.62-4.71s3.92.16,5.3,1.77C57.84,85.73,58.41,86.94,56.77,88.57Z" style="fill:#da2427"/><path d="M37.58,85.65l-3,2.78-1.28-.67c-.37-2,.73-3.21,2.13-4.19a4.38,4.38,0,0,1,3.76-.75,5.2,5.2,0,0,1,3.43,2.65,2.1,2.1,0,0,1-.25,2.74C40.31,88.53,40.18,85.81,37.58,85.65Z" style="fill:#da2427"/><path d="M371.4,28.64V.46h4l9,14.26a80.3,80.3,0,0,1,5.06,9.15l.08,0c-.33-3.76-.41-7.19-.41-11.58V.46h3.43V28.64h-3.68l-8.95-14.3a90.8,90.8,0,0,1-5.27-9.41l-.13.05c.22,3.55.3,6.93.3,11.62v12Z" style="fill:#da2427"/><path d="M423,14.25c0,9.71-5.89,14.85-13.08,14.85-7.44,0-12.67-5.77-12.67-14.3,0-9,5.56-14.8,13.09-14.8C418,0,423,5.89,423,14.25Zm-21.86.47c0,6,3.26,11.41,9,11.41s9-5.31,9-11.71c0-5.6-2.93-11.45-9-11.45S401.14,8.53,401.14,14.72Z" style="fill:#da2427"/><path d="M432.05,3.55h-8.57V.46h20.86V3.55h-8.61V28.64h-3.68Z" style="fill:#da2427"/><path d="M456.36.46H460V25.59h12v3.05H456.36Z" style="fill:#da2427"/><path d="M479.74.46V28.64H476.1V.46Z" style="fill:#da2427"/><path d="M486.1.46h3.64V14.05h.12c.75-1.09,1.51-2.09,2.22-3L500.69.46h4.51l-10.2,12,11,16.22h-4.31L492.41,14.8l-2.67,3.09V28.64H486.1Z" style="fill:#da2427"/><path d="M523.36,15.43h-11V25.59h12.2v3.05H508.77V.46H524V3.51H512.41v8.91h11Z" style="fill:#da2427"/><path d="M541.85,3.55h-8.57V.46h20.87V3.55h-8.62V28.64h-3.68Z" style="fill:#da2427"/><path d="M560.93.46V12.25h13.63V.46h3.68V28.64h-3.68V15.43H560.93V28.64h-3.64V.46Z" style="fill:#da2427"/><path d="M588.2.46V28.64h-3.63V.46Z" style="fill:#da2427"/><path d="M594.06,24.21a13,13,0,0,0,6.53,1.84c3.72,0,5.89-2,5.89-4.81,0-2.64-1.51-4.14-5.31-5.6-4.6-1.64-7.44-4-7.44-8,0-4.39,3.63-7.65,9.11-7.65a12.79,12.79,0,0,1,6.23,1.38l-1,3A11.23,11.23,0,0,0,602.72,3c-3.85,0-5.31,2.3-5.31,4.22,0,2.64,1.71,3.93,5.6,5.44,4.76,1.84,7.19,4.14,7.19,8.27,0,4.35-3.22,8.16-9.87,8.16a14.62,14.62,0,0,1-7.19-1.84Z" style="fill:#da2427"/><path d="M396.17,354.27h4.1V379.4h13.56v3.05H396.17Z" style="fill:#da2427"/><path d="M422.48,354.27v28.18h-4.1V354.27Z" style="fill:#da2427"/><path d="M429.62,354.27h4.1v13.59h.14c.85-1.08,1.69-2.09,2.49-3l9.7-10.58h5.09l-11.49,12L452,382.45h-4.85l-10.45-13.83-3,3.09v10.74h-4.1Z" style="fill:#da2427"/><path d="M471.55,369.24H459.22V379.4H473v3.05H455.12V354.27h17.14v3.06h-13v8.9h12.33Z" style="fill:#da2427"/><path d="M492.34,357.37h-9.65v-3.1h23.49v3.1h-9.69v25.08h-4.15Z" style="fill:#da2427"/><path d="M513.8,354.27v11.8h15.34v-11.8h4.14v28.18h-4.14V369.24H513.8v13.21h-4.1V354.27Z" style="fill:#da2427"/><path d="M544.47,354.27v28.18h-4.1V354.27Z" style="fill:#da2427"/><path d="M551.05,378a15.87,15.87,0,0,0,7.35,1.84c4.19,0,6.64-2,6.64-4.81,0-2.63-1.7-4.14-6-5.6-5.18-1.63-8.38-4-8.38-8,0-4.39,4.09-7.66,10.26-7.66a15.86,15.86,0,0,1,7,1.39l-1.13,3a13.89,13.89,0,0,0-6-1.33c-4.33,0-6,2.29-6,4.22,0,2.63,1.93,3.93,6.31,5.43,5.37,1.84,8.1,4.14,8.1,8.28,0,4.35-3.63,8.15-11.12,8.15a18,18,0,0,1-8.09-1.83Z" style="fill:#da2427"/><line x1="618.34" y1="369.35" x2="987.54" y2="369.35" style="fill:#da2427;stroke:#fff;stroke-miterlimit:10;stroke-width:3.4858733916681923px"/><line x1="647.08" y1="14.75" x2="987.54" y2="14.75" style="fill:#da2427;stroke:#fff;stroke-miterlimit:10;stroke-width:3.4858733916681923px"/><line y1="14.75" x2="340.46" y2="14.75" style="fill:#da2427;stroke:#fff;stroke-miterlimit:10;stroke-width:3.4858733916681923px"/><line y1="369.35" x2="364.52" y2="369.35" style="fill:#da2427;stroke:#fff;stroke-miterlimit:10;stroke-width:3.4858733916681923px"/><path d="M39.17,291.86h-.06l-3.24,1.75-.49-1.93,4.08-2.18h2.15v18.67H39.17Z" style="fill:#da2427"/><path d="M225,308.17v-1.55l2-1.93c4.76-4.53,6.92-6.95,6.95-9.76,0-1.9-.92-3.65-3.71-3.65a6.34,6.34,0,0,0-4,1.58l-.8-1.78a8.19,8.19,0,0,1,5.28-1.9c4,0,5.71,2.76,5.71,5.43,0,3.45-2.49,6.23-6.43,10L228.54,306v.06h8.38v2.1Z" style="fill:#da2427"/><path d="M496.09,305.27a8.45,8.45,0,0,0,4.14,1.17c3.24,0,4.25-2.06,4.22-3.61,0-2.62-2.39-3.74-4.83-3.74h-1.4V297.2h1.4c1.84,0,4.17-.95,4.17-3.16,0-1.49-1-2.82-3.28-2.82a6.8,6.8,0,0,0-3.73,1.24l-.66-1.84a8.86,8.86,0,0,1,4.88-1.44c3.68,0,5.34,2.19,5.34,4.46A4.64,4.64,0,0,1,502.9,298v.06a4.86,4.86,0,0,1,4.16,4.79c0,3-2.33,5.6-6.81,5.6a9.53,9.53,0,0,1-4.85-1.26Z" style="fill:#da2427"/><path d="M828.58,308.17v-5.09h-8.67v-1.66l8.33-11.92H831v11.6h2.61v2H831v5.09Zm0-7.07v-6.23c0-1,0-1.95.09-2.93h-.09c-.57,1.09-1,1.9-1.55,2.76l-4.56,6.35v.05Z" style="fill:#da2427"/><path d="M42.1,650.24H42L38.8,652l-.49-1.92,4.08-2.18h2.15v18.66H42.1Z" style="fill:#da2427"/><path d="M191.4,666.55V665l2-1.92c4.76-4.54,6.92-7,7-9.76,0-1.9-.92-3.65-3.71-3.65a6.34,6.34,0,0,0-4,1.58l-.81-1.78a8.22,8.22,0,0,1,5.29-1.9c4,0,5.71,2.76,5.71,5.43,0,3.45-2.5,6.23-6.43,10l-1.49,1.38v.06h8.38v2.09Z" style="fill:#da2427"/><path d="M371.15,663.65a8.44,8.44,0,0,0,4.14,1.18c3.24,0,4.25-2.07,4.22-3.62,0-2.61-2.39-3.73-4.83-3.73h-1.4v-1.9h1.4c1.84,0,4.17-.94,4.17-3.15,0-1.5-1-2.82-3.28-2.82a6.8,6.8,0,0,0-3.73,1.24l-.66-1.84a8.86,8.86,0,0,1,4.88-1.44c3.68,0,5.34,2.18,5.34,4.45,0,1.93-1.15,3.56-3.44,4.4v.05a4.87,4.87,0,0,1,4.16,4.8c0,3-2.33,5.6-6.81,5.6a9.53,9.53,0,0,1-4.85-1.26Z" style="fill:#da2427"/><path d="M563.59,666.55v-5.08h-8.67v-1.66l8.33-11.92H566v11.6h2.61v2H566v5.08Zm0-7.06v-6.23c0-1,0-2,.09-2.93h-.09c-.57,1.09-1,1.89-1.55,2.76l-4.57,6.34v.06Z" style="fill:#da2427"/><path d="M837.41,650h-7.13l-.71,4.8a9.52,9.52,0,0,1,1.52-.12,7.9,7.9,0,0,1,4,1,5.32,5.32,0,0,1,2.67,4.79c0,3.65-2.9,6.38-6.95,6.38a9.07,9.07,0,0,1-4.65-1.15l.63-1.92a8.35,8.35,0,0,0,4,1,4.12,4.12,0,0,0,4.42-4.05c0-2.41-1.63-4.13-5.37-4.13a18.68,18.68,0,0,0-2.58.2l1.2-9h8.94Z" style="fill:#da2427"/><circle cx="805.44" cy="86.25" r="3.02" style="fill:#da2427"/><circle cx="824.29" cy="86.25" r="3.02" style="fill:#da2427"/><path d="M827.64,98c0,5.3-5.72,9.6-12.78,9.6s-12.78-4.3-12.78-9.6" style="fill:#da2427"/><path d="M28.55,439.05a24.38,24.38,0,1,1,24.08,24.37A24.2,24.2,0,0,1,28.55,439.05Zm45.89.28a21.57,21.57,0,1,0-22,21.34A21.61,21.61,0,0,0,74.44,439.33Z" style="fill:#da2427"/><circle cx="43.5" cy="432.01" r="3.02" style="fill:#da2427"/><circle cx="62.35" cy="432.01" r="3.02" style="fill:#da2427"/><path d="M65.71,443.78c0,5.3-5.73,9.6-12.79,9.6s-12.78-4.3-12.78-9.6" style="fill:#da2427"/><path d="M175.19,439.05a24.38,24.38,0,1,1,24.08,24.37A24.2,24.2,0,0,1,175.19,439.05Zm45.89.28a21.57,21.57,0,1,0-22,21.34A21.61,21.61,0,0,0,221.08,439.33Z" style="fill:#da2427"/><circle cx="190.14" cy="432.01" r="3.02" style="fill:#da2427"/><circle cx="208.99" cy="432.01" r="3.02" style="fill:#da2427"/><path d="M212.35,443.78c0,5.3-5.73,9.6-12.79,9.6s-12.78-4.3-12.78-9.6" style="fill:#da2427"/><path d="M351.65,439.05a24.38,24.38,0,1,1,24.09,24.37A24.22,24.22,0,0,1,351.65,439.05Zm45.9.28a21.57,21.57,0,1,0-22,21.34A21.61,21.61,0,0,0,397.55,439.33Z" style="fill:#da2427"/><circle cx="366.61" cy="432.01" r="3.02" style="fill:#da2427"/><circle cx="385.46" cy="432.01" r="3.02" style="fill:#da2427"/><path d="M388.81,443.78c0,5.3-5.72,9.6-12.78,9.6s-12.78-4.3-12.78-9.6" style="fill:#da2427"/><path d="M544.85,439.05a24.38,24.38,0,1,1,24.08,24.37A24.21,24.21,0,0,1,544.85,439.05Zm45.89.28a21.57,21.57,0,1,0-22,21.34A21.61,21.61,0,0,0,590.74,439.33Z" style="fill:#da2427"/><circle cx="559.8" cy="432.01" r="3.02" style="fill:#da2427"/><circle cx="578.65" cy="432.01" r="3.02" style="fill:#da2427"/><path d="M582,443.78c0,5.3-5.72,9.6-12.78,9.6s-12.79-4.3-12.79-9.6" style="fill:#da2427"/><path d="M799.91,439.05A24.38,24.38,0,1,1,824,463.42,24.21,24.21,0,0,1,799.91,439.05Zm45.9.28a21.57,21.57,0,1,0-22,21.34A21.62,21.62,0,0,0,845.81,439.33Z" style="fill:#da2427"/><circle cx="814.86" cy="432.01" r="3.02" style="fill:#da2427"/><circle cx="833.71" cy="432.01" r="3.02" style="fill:#da2427"/><path d="M837.07,443.78c0,5.3-5.72,9.6-12.78,9.6s-12.79-4.3-12.79-9.6" style="fill:#da2427"/><path d="M997.14,593.91c-.16-1.8,1.06-15.45,1.06-15.45l-3.84-8s-5.83-6.13-17.81-9.61-21.14-6-34.76-8-26-3.16-26-3.16l-8.94.77s-28.76-16.89-43.47-22.34c0,0-10.89-3.41-20.27-3.7-27.45-.88-53.71,4.57-53.71,4.57s-20.27,4.91-27.68,7.19-18.52,7.19-18.52,7.19l-2.29-.1s-6.54,2-10.35,1.85l-6.43-4.69-17.87-.65s-.54,1.58,2,2.18c0,0,2.89,0,3.05,1.91a3.34,3.34,0,0,1-1.17,2.86s-1.88.81-1.88,1.06S707,552,707,552s-4.9,8.74-6.78,15.77-.49,18.47-.49,18.47,1.38,8.9,4.9,13.32l26.64,4.82A55,55,0,0,1,730,589.09c.57-7.77,7.11-19.37,17.82-21.5s20.34-1.55,27.86,6,9.07,15.77,7.68,32.2H918.53a57.18,57.18,0,0,1,.6-21c2.5-11.11,14.38-18,23.86-18s18.41,2.48,23.75,9.47,6.65,16.57,4.14,30.08L1000,604.2V598S997.3,595.7,997.14,593.91ZM709.33,559.42s-2.13,4.05-3.68,3.6c0,0-.9-.41-.45-2.58s4.09-9.76,6.5-9.64S709.33,559.42,709.33,559.42Zm153.3-31c16.67,6.21,43,22.39,43,22.39l-9.57.74L856.5,528.64ZM810.5,548.74h0l-31.4-1.27a1.65,1.65,0,0,1-1.17-2.75c2.58-2.89,6.54-7.2,7.56-7.69,1.47-.7,15.26-4,21.71-4.78h0l1-.11c5.88-.57,40.31-2.78,40.31-2.78s25.39,10.79,40.42,22.55l-11.5-.46-.34.25s1.55,3.29,1.55,3.59a3.53,3.53,0,0,1-1.64,1.64,19.43,19.43,0,0,1-4.63.13,2.47,2.47,0,0,1-2.18-1.93,14.94,14.94,0,0,1,1.42-2.94s-3.19-.11-4.44-.28-1.5-.94-1.5-.94l-52.81-2.13h0Zm100,18c-4.22,7.2-15.23,25.53-18.77,26.71-4.41,1.47-72.89,0-72.89,0s70.11-2,71.75-2.62,17-24.51,17-24.51L896,562.2l12.88,1.3A2.15,2.15,0,0,1,910.49,566.71Zm73.57,6.11c-8.17-7.84-29.63-13.18-29.63-13.18l8.72.44s19.36,4.82,24.35,8.17,5.94,6.75,5.94,6.75A69.14,69.14,0,0,1,984.06,572.82Z" style="fill:#da2427"/><path d="M867.18,551.9c1.25.17,4.44.28,4.44.28a14.94,14.94,0,0,0-1.42,2.94,2.47,2.47,0,0,0,2.18,1.93,19.43,19.43,0,0,0,4.63-.13,3.53,3.53,0,0,0,1.64-1.64c0-.3-1.55-3.59-1.55-3.59l.34-.25L865.68,551S865.93,551.74,867.18,551.9Z" style="fill:#da2427"/><path d="M877.91,546.56a12.69,12.69,0,0,0-9.23-3.86s-3,1.85-3,2.39V551h0l11.76.48.42-.3Z" style="fill:#da2427"/><path d="M711.7,550.8c-2.41-.12-6.05,7.48-6.5,9.64s.45,2.58.45,2.58c1.55.45,3.68-3.6,3.68-3.6S714.11,550.92,711.7,550.8Z" style="fill:#da2427;stroke:#fff;stroke-miterlimit:10;stroke-width:1.5629930882892167px"/><path d="M807.2,532.24h0l1-.12Z" style="fill:#da2427"/><polygon points="810.5 548.74 810.5 548.74 812.87 548.83 812.87 548.83 810.5 548.74" style="fill:#da2427"/><path d="M908.85,563.5,896,562.2l11.61,4.09s-15.37,23.86-17,24.51-71.75,2.62-71.75,2.62,68.48,1.47,72.89,0c3.54-1.18,14.55-19.51,18.77-26.71A2.15,2.15,0,0,0,908.85,563.5Z" style="fill:#da2427;stroke:#fff;stroke-miterlimit:10;stroke-width:1.5629930882892167px"/><path d="M987.5,568.25c-5-3.35-24.35-8.17-24.35-8.17l-8.72-.44s21.46,5.34,29.63,13.18a69.14,69.14,0,0,0,9.38,2.18S992.48,571.6,987.5,568.25Z" style="fill:#da2427;stroke:#fff;stroke-miterlimit:10;stroke-width:1.5629930882892167px"/><path d="M757.05,570.05a23.37,23.37,0,1,0,23.37,23.37A23.37,23.37,0,0,0,757.05,570.05Zm0,41.34a18,18,0,1,1,18-18A18,18,0,0,1,757.05,611.39Z" style="fill:#da2427"/><circle cx="757.05" cy="593.42" r="17.98" style="fill:#da2427;stroke:#fff;stroke-miterlimit:10;stroke-width:1.5629930882892167px"/><path d="M944.51,570.05a23.37,23.37,0,1,0,23.37,23.37A23.37,23.37,0,0,0,944.51,570.05Zm0,41.34a18,18,0,1,1,18-18A18,18,0,0,1,944.51,611.39Z" style="fill:#da2427"/><circle cx="944.51" cy="593.42" r="17.98" style="fill:#da2427;stroke:#fff;stroke-miterlimit:10;stroke-width:1.5629930882892167px"/><path d="M641.94,240.53c-.16-1.8,1.06-15.45,1.06-15.45l-3.84-8s-5.83-6.13-17.81-9.62-21.14-6-34.76-8-26-3.16-26-3.16l-8.94.76s-28.76-16.89-43.47-22.34c0,0-10.88-3.4-20.27-3.7-27.45-.87-53.71,4.57-53.71,4.57s-20.27,4.91-27.68,7.2S388,190,388,190l-2.29-.11s-6.54,2-10.35,1.85l-6.43-4.69L351,186.43s-.54,1.58,2,2.18c0,0,2.89,0,3,1.91a3.34,3.34,0,0,1-1.17,2.86s-1.88.81-1.88,1.06-1.14,4.17-1.14,4.17-4.9,8.74-6.78,15.77-.49,18.47-.49,18.47,1.38,8.9,4.9,13.32L376.11,251a55,55,0,0,1-1.31-15.28c.57-7.77,7.11-19.37,17.82-21.49s20.35-1.56,27.86,6,9.07,15.77,7.68,32.2H563.33a57.18,57.18,0,0,1,.6-21c2.5-11.11,14.38-18,23.86-18s18.41,2.48,23.75,9.47,6.65,16.57,4.14,30.08l29.12-2.17v-6.22S642.1,242.33,641.94,240.53ZM354.13,206s-2.13,4.05-3.68,3.6c0,0-.9-.41-.45-2.58s4.09-9.76,6.5-9.64S354.13,206,354.13,206Zm153.3-31c16.67,6.21,43,22.39,43,22.39l-9.57.74L501.3,175.26ZM455.3,195.36h0l-31.4-1.27a1.65,1.65,0,0,1-1.17-2.75c2.58-2.89,6.54-7.2,7.56-7.69,1.47-.69,15.26-4,21.71-4.78h0l1-.11c5.88-.57,40.31-2.78,40.31-2.78s25.39,10.79,40.42,22.56l-11.5-.47-.34.25s1.55,3.29,1.55,3.59a3.53,3.53,0,0,1-1.64,1.64,19.43,19.43,0,0,1-4.63.13,2.47,2.47,0,0,1-2.18-1.93,14.94,14.94,0,0,1,1.42-2.94s-3.19-.11-4.44-.27-1.5-.94-1.5-.94l-52.81-2.14h0Zm100,18c-4.22,7.21-15.23,25.53-18.77,26.71-4.41,1.47-72.89,0-72.89,0s70.11-2,71.75-2.62,17-24.51,17-24.51l-11.61-4.09,12.88,1.3A2.15,2.15,0,0,1,555.29,213.33Zm73.58,6.12c-8.18-7.85-29.64-13.19-29.64-13.19l8.72.44s19.36,4.82,24.35,8.17,5.94,6.75,5.94,6.75A67.8,67.8,0,0,1,628.87,219.45Z" style="fill:#da2427"/><path d="M512,198.53c1.25.16,4.44.27,4.44.27a14.94,14.94,0,0,0-1.42,2.94,2.47,2.47,0,0,0,2.18,1.93,19.43,19.43,0,0,0,4.63-.13,3.53,3.53,0,0,0,1.64-1.64c0-.3-1.55-3.59-1.55-3.59l.34-.25-11.76-.47S510.73,198.36,512,198.53Z" style="fill:#da2427"/><path d="M522.71,193.19a12.72,12.72,0,0,0-9.23-3.87s-3,1.85-3,2.4v5.87h0l11.76.47.42-.3Z" style="fill:#da2427"/><path d="M356.5,197.42c-2.41-.12-6.05,7.48-6.5,9.64s.45,2.58.45,2.58c1.55.45,3.68-3.6,3.68-3.6S358.91,197.54,356.5,197.42Z" style="fill:#da2427;stroke:#fff;stroke-miterlimit:10;stroke-width:1.5629930882892167px"/><path d="M452,178.86h0l1-.12Z" style="fill:#da2427"/><polygon points="455.3 195.36 455.3 195.36 457.67 195.45 457.67 195.45 455.3 195.36" style="fill:#da2427"/><path d="M553.65,210.12l-12.88-1.3,11.61,4.09s-15.37,23.86-17,24.51S463.63,240,463.63,240s68.48,1.47,72.89,0c3.54-1.18,14.55-19.5,18.77-26.71A2.15,2.15,0,0,0,553.65,210.12Z" style="fill:#da2427;stroke:#fff;stroke-miterlimit:10;stroke-width:1.5629930882892167px"/><path d="M632.3,214.87c-5-3.35-24.35-8.17-24.35-8.17l-8.72-.44s21.46,5.34,29.64,13.19a67.8,67.8,0,0,0,9.37,2.17S637.28,218.22,632.3,214.87Z" style="fill:#da2427;stroke:#fff;stroke-miterlimit:10;stroke-width:1.5629930882892167px"/><path d="M993.65,240.53c-.16-1.8,1.07-15.45,1.07-15.45l-3.84-8s-5.83-6.13-17.82-9.62-21.14-6-34.76-8-26-3.16-26-3.16l-8.93.76s-28.77-16.89-43.48-22.34c0,0-10.88-3.4-20.26-3.7-27.46-.87-53.72,4.57-53.72,4.57s-20.26,4.91-27.67,7.2S739.67,190,739.67,190l-2.28-.11s-6.54,2-10.36,1.85l-6.42-4.69-17.87-.65s-.55,1.58,2,2.18c0,0,2.89,0,3,1.91a3.36,3.36,0,0,1-1.17,2.86s-1.88.81-1.88,1.06-1.15,4.17-1.15,4.17-4.9,8.74-6.78,15.77-.49,18.47-.49,18.47,1.39,8.9,4.9,13.32L727.82,251a54.79,54.79,0,0,1-1.3-15.28c.57-7.77,7.11-19.37,17.81-21.49s20.35-1.56,27.87,6,9.07,15.77,7.68,32.2H915a57.18,57.18,0,0,1,.6-21c2.51-11.11,14.38-18,23.86-18s18.42,2.48,23.75,9.47,6.65,16.57,4.15,30.08l29.11-2.17v-6.22S993.82,242.33,993.65,240.53ZM705.84,206s-2.12,4.05-3.68,3.6c0,0-.89-.41-.45-2.58s4.09-9.76,6.5-9.64S705.84,206,705.84,206Zm153.31-31c16.67,6.21,43,22.39,43,22.39l-9.56.74L853,175.26ZM807,195.36h0l-31.4-1.27a1.66,1.66,0,0,1-1.17-2.75c2.58-2.89,6.54-7.2,7.56-7.69,1.47-.69,15.27-4,21.71-4.78h0l1-.11C810.6,178.18,845,176,845,176s25.38,10.79,40.42,22.56l-11.5-.47-.35.25s1.55,3.29,1.55,3.59a3.51,3.51,0,0,1-1.63,1.64,19.46,19.46,0,0,1-4.63.13,2.45,2.45,0,0,1-2.18-1.93,15,15,0,0,1,1.41-2.94s-3.18-.11-4.44-.27-1.49-.94-1.49-.94l-52.81-2.14h0Zm100,18c-4.22,7.21-15.22,25.53-18.76,26.71-4.42,1.47-72.9,0-72.9,0s70.12-2,71.75-2.62,17-24.51,17-24.51l-11.6-4.09,12.88,1.3A2.14,2.14,0,0,1,907,213.33Zm73.58,6.12c-8.17-7.85-29.64-13.19-29.64-13.19l8.72.44S979,211.52,984,214.87s5.94,6.75,5.94,6.75A67.8,67.8,0,0,1,980.58,219.45Z" style="fill:#da2427"/><path d="M863.69,198.53c1.26.16,4.44.27,4.44.27a15,15,0,0,0-1.41,2.94,2.45,2.45,0,0,0,2.18,1.93,19.46,19.46,0,0,0,4.63-.13,3.51,3.51,0,0,0,1.63-1.64c0-.3-1.55-3.59-1.55-3.59l.35-.25-11.76-.47S862.44,198.36,863.69,198.53Z" style="fill:#da2427"/><path d="M874.43,193.19a12.75,12.75,0,0,0-9.24-3.87s-3,1.85-3,2.4v5.87h0l11.76.47.41-.3Z" style="fill:#da2427"/><path d="M708.21,197.42c-2.41-.12-6.05,7.48-6.5,9.64s.45,2.58.45,2.58c1.56.45,3.68-3.6,3.68-3.6S710.62,197.54,708.21,197.42Z" style="fill:#da2427;stroke:#fff;stroke-miterlimit:10;stroke-width:1.5629930882892167px"/><path d="M803.71,178.86h0l1-.12Z" style="fill:#da2427"/><polygon points="807.01 195.36 807.01 195.36 809.39 195.45 809.39 195.45 807.01 195.36" style="fill:#da2427"/><path d="M905.37,210.12l-12.88-1.3,11.6,4.09s-15.36,23.86-17,24.51S815.34,240,815.34,240s68.48,1.47,72.9,0c3.54-1.18,14.54-19.5,18.76-26.71A2.14,2.14,0,0,0,905.37,210.12Z" style="fill:#da2427;stroke:#fff;stroke-miterlimit:10;stroke-width:1.5629930882892167px"/><path d="M984,214.87c-5-3.35-24.35-8.17-24.35-8.17l-8.72-.44s21.47,5.34,29.64,13.19a67.8,67.8,0,0,0,9.37,2.17S989,218.22,984,214.87Z" style="fill:#da2427;stroke:#fff;stroke-miterlimit:10;stroke-width:1.5629930882892167px"/><path d="M753.57,216.67A23.37,23.37,0,1,0,776.94,240,23.37,23.37,0,0,0,753.57,216.67Zm0,41.35a18,18,0,1,1,18-18A18,18,0,0,1,753.57,258Z" style="fill:#da2427"/><circle cx="753.57" cy="240.04" r="17.98" style="fill:#da2427;stroke:#fff;stroke-miterlimit:10;stroke-width:1.5629930882892167px"/><path d="M941,216.67A23.37,23.37,0,1,0,964.4,240,23.37,23.37,0,0,0,941,216.67ZM941,258a18,18,0,1,1,18-18A18,18,0,0,1,941,258Z" style="fill:#da2427"/><circle cx="941.03" cy="240.04" r="17.98" style="fill:#da2427;stroke:#fff;stroke-miterlimit:10;stroke-width:1.5629930882892167px"/><path d="M539.67,555.39c-7.33-1.61-9.73-6.13-10.47-8.25l21.66,3.21C549.23,553.09,545.83,556.74,539.67,555.39Z" style="fill:#da2427"/><path d="M594.85,577.79a2.78,2.78,0,1,1-2.77,2.78A2.78,2.78,0,0,1,594.85,577.79Z" style="fill:#da2427"/><path d="M582,580.21a2,2,0,1,1-2,2A2,2,0,0,1,582,580.21Z" style="fill:#da2427"/><path d="M571.45,580.78a2,2,0,1,1-2,2A2,2,0,0,1,571.45,580.78Z" style="fill:#da2427"/><path d="M486.28,582.13c1.34.26,5.52-3.79,11.23-7.27a23.26,23.26,0,1,0,39.73,21.41h5.57l34.64,0v1.7h-4.74v4h13.77v-4h-5v-1.71h14.15l7.44-10.7c-1,5-.1,8.67,2.13,8.59.8-.13,2-2,3.68-4.65,0,.36,0,.71,0,1.07a23.28,23.28,0,1,0,34.54-20.38c4.62-.69,7.28-1.56,5-4.16-1.49-1.72-4.16-2.82-7.36-3.41,4.21-4.58,6.74-16.86-30.14-34.85-20.19-9.39-2.67,17.79-3.69,18.8A60.77,60.77,0,0,1,581.1,571c-5.34,2.54-12.27,3.43-19.4,3.43-16.5,0-34-4.79-35.06-5.08l.61-2.21c.36.1,35.94,9.83,52.86,1.79s25.17-23.69,25.17-23.69c-4.18-2.58-14.33-8.25-24.59-9.72.43-.91.59-2-.84-2.08-2.58-.22-7.94,0-9.44,0-1,0-.7,1.4-.38,2.41a18.49,18.49,0,0,0-5.61,2.39c-4.11,2.63-7.86,7.16-11.16,12.44h0c-1.53,2.85-4.88,7.27-11,7.27a14.4,14.4,0,0,1-3.08-.35c-9.47-2.08-11.88-8.54-12.42-10.63l-29.49-12.82c-5.67.61-10.14,2.36-10.66,6.25-.76,5.77,10,13.35,20.5,19.68C489.32,563.9,481.6,580.56,486.28,582.13Zm131.2,8.39a14.57,14.57,0,0,1,4.4-10.44l3.35,5.43a8,8,0,0,0-1.49,4.67,8.13,8.13,0,1,0,8.13-8.13,8.29,8.29,0,0,0-1.11.08l-3.36-5.45a14.2,14.2,0,0,1,4.71-.8,14.64,14.64,0,1,1-14.63,14.64Zm-29.13-9.81a6.51,6.51,0,1,1,6.5,6.51A6.5,6.5,0,0,1,588.35,580.71Zm-6.21,5.84a4.4,4.4,0,1,1,4.39-4.4A4.41,4.41,0,0,1,582.14,586.55Zm-14.93-3.83a4.4,4.4,0,1,1,4.4,4.4A4.4,4.4,0,0,1,567.21,582.72Zm-67.15,7.8A14.63,14.63,0,0,1,529,587.26h-7.49a8.13,8.13,0,1,0-1.63,9h8.32a14.63,14.63,0,0,1-28.09-5.74Z" style="fill:#da2427"/><path d="M303.3,566.49a31.87,31.87,0,0,1,42.22-2.63" style="fill:#fff;stroke:#da2427;stroke-linecap:round;stroke-linejoin:round;stroke-width:4.250634425712861px"/><path d="M359.92,540.92H347.23v5.4L360.18,543A1.06,1.06,0,0,0,359.92,540.92Z" style="fill:#fff;stroke:#da2427;stroke-linecap:round;stroke-linejoin:round;stroke-width:4.250634425712861px"/><circle cx="325.89" cy="588.98" r="24.75" transform="translate(-307.68 816.32) rotate(-80.78)" style="fill:#fff;stroke:#da2427;stroke-miterlimit:10;stroke-width:4.250634425712861px"/><line x1="325.89" y1="564.01" x2="325.89" y2="613.95" style="fill:#fff;stroke:#da2427;stroke-linecap:round;stroke-linejoin:round;stroke-width:1.06265860642821px"/><line x1="300.92" y1="588.98" x2="350.87" y2="588.98" style="fill:#fff;stroke:#da2427;stroke-linecap:round;stroke-linejoin:round;stroke-width:1.06265860642821px"/><line x1="308.24" y1="571.32" x2="343.55" y2="606.64" style="fill:#fff;stroke:#da2427;stroke-linecap:round;stroke-linejoin:round;stroke-width:1.06265860642821px"/><line x1="308.24" y1="606.64" x2="343.55" y2="571.32" style="fill:#fff;stroke:#da2427;stroke-linecap:round;stroke-linejoin:round;stroke-width:1.06265860642821px"/><circle cx="414.55" cy="588.98" r="24.75" transform="translate(-253.92 857.12) rotate(-76.72)" style="fill:#fff;stroke:#da2427;stroke-miterlimit:10;stroke-width:4.250634425712861px"/><line x1="414.55" y1="564.01" x2="414.55" y2="613.95" style="fill:#fff;stroke:#da2427;stroke-linecap:round;stroke-linejoin:round;stroke-width:1.06265860642821px"/><line x1="389.58" y1="588.98" x2="439.52" y2="588.98" style="fill:#fff;stroke:#da2427;stroke-linecap:round;stroke-linejoin:round;stroke-width:1.06265860642821px"/><line x1="396.89" y1="571.32" x2="432.21" y2="606.64" style="fill:#fff;stroke:#da2427;stroke-linecap:round;stroke-linejoin:round;stroke-width:1.06265860642821px"/><line x1="396.89" y1="606.64" x2="432.21" y2="571.32" style="fill:#fff;stroke:#da2427;stroke-linecap:round;stroke-linejoin:round;stroke-width:1.06265860642821px"/><path d="M379.21,589a6.38,6.38,0,0,0-6.55-6.38l-47,1.17a5.2,5.2,0,0,0-5.07,5.2h0a5.21,5.21,0,0,0,5.07,5.2l47,1.2a6.39,6.39,0,0,0,6.55-6.39Z" style="fill:#fff;stroke:#da2427;stroke-miterlimit:10;stroke-width:2.1253172128564235px;stroke-dasharray:2.125317096710205,1.0626585483551025"/><path d="M325.9,593.23a4.25,4.25,0,1,1,4.25-4.25A4.25,4.25,0,0,1,325.9,593.23Z" style="fill:#fff"/><path d="M325.9,585.79a3.19,3.19,0,1,1-3.19,3.19,3.19,3.19,0,0,1,3.19-3.19m0-2.12a5.32,5.32,0,1,0,5.31,5.31,5.32,5.32,0,0,0-5.31-5.31Z" style="fill:#da2427"/><path d="M414.55,593.23A4.25,4.25,0,1,1,418.8,589,4.25,4.25,0,0,1,414.55,593.23Z" style="fill:#fff"/><path d="M414.55,585.79a3.19,3.19,0,1,1-3.19,3.19,3.19,3.19,0,0,1,3.19-3.19m0-2.12a5.32,5.32,0,1,0,5.31,5.31,5.31,5.31,0,0,0-5.31-5.31Z" style="fill:#da2427"/><polygon points="371.77 588.98 326.07 588.98 356.35 551.3 399.32 551.3 371.77 588.98" style="fill:#fff;stroke:#da2427;stroke-linecap:round;stroke-linejoin:round;stroke-width:4.250634425712861px"/><line x1="353.2" y1="543.62" x2="371.77" y2="588.98" style="fill:#fff;stroke:#da2427;stroke-miterlimit:10;stroke-width:4.250634425712861px"/><circle cx="371.77" cy="588.98" r="6.38" style="fill:#fff;stroke:#da2427;stroke-miterlimit:10;stroke-width:2.1253172128564235px"/><line x1="371.77" y1="588.98" x2="371.77" y2="601.6" style="fill:#fff;stroke:#da2427;stroke-linecap:round;stroke-linejoin:round;stroke-width:2.1253172128564235px"/><line x1="365.64" y1="601.6" x2="371.77" y2="601.6" style="fill:#fff;stroke:#da2427;stroke-linecap:round;stroke-linejoin:round;stroke-width:4.250634425712861px"/><path d="M325.9,590.58a1.6,1.6,0,1,1,1.59-1.6A1.6,1.6,0,0,1,325.9,590.58Z" style="fill:#fff"/><path d="M325.9,587.92a1.07,1.07,0,1,1-1.07,1.06,1.07,1.07,0,0,1,1.07-1.06m0-1.06A2.13,2.13,0,1,0,328,589a2.12,2.12,0,0,0-2.12-2.12Z" style="fill:#da2427"/><path d="M394.74,529.08h9.17v5.37a5.38,5.38,0,0,1-5.35,5.37h-3.82L414.55,589" style="fill:#fff;stroke:#da2427;stroke-linecap:round;stroke-linejoin:round;stroke-width:4.250634425712861px"/><path d="M414.55,590.58a1.6,1.6,0,1,1,1.6-1.6A1.6,1.6,0,0,1,414.55,590.58Z" style="fill:#fff"/><path d="M414.55,587.92a1.07,1.07,0,1,1-1.06,1.06,1.06,1.06,0,0,1,1.06-1.06m0-1.06a2.13,2.13,0,1,0,2.13,2.12,2.12,2.12,0,0,0-2.13-2.12Z" style="fill:#da2427"/><path d="M381.15,589.32v-.05a8.51,8.51,0,0,0-8.5-8.51l-46.17,1.17a7.29,7.29,0,0,0-7.14,7.32v.07Z" style="fill:#fff;stroke:#da2427;stroke-linecap:round;stroke-linejoin:round;stroke-width:2.1253172128564235px"/></svg>