<svg id="_x39_0" enable-background="new 0 0 512 512" height="512" viewBox="0 0 512 512" width="512" xmlns="http://www.w3.org/2000/svg"><path d="m6 106v300c0 55.2 44.8 100 100 100h300c55.2 0 100-44.8 100-100v-300c0-55.2-44.8-100-100-100h-300c-55.2 0-100 44.8-100 100zm343.7 251.6c0 12.9-10.5 23.4-23.4 23.4h-171.9c-12.9 0-23.4-10.5-23.4-23.4v-171.9c0-12.9 10.5-23.4 23.4-23.4h78.1c4.3 0 7.8 3.5 7.8 7.8v15.6c0 4.3-3.5 7.8-7.8 7.8h-70.3v156.3h156.3v-54.7c0-4.3 3.5-7.8 7.8-7.8h15.6c4.3 0 7.8 3.5 7.8 7.7zm31.3-152.4c0 10.5-12.7 15.6-20 8.3l-17.5-17.4-119 119c-4.6 4.6-12 4.6-16.6 0l-11-11c-4.6-4.6-4.6-12 0-16.6l119-119-17.5-17.5c-7.4-7.3-2.1-20 8.3-20h62.5c6.5 0 11.7 5.2 11.8 11.7z"/></svg>